<?xml version="1.0" encoding="UTF-8" standalone="no"?>
<!-- Created with Inkscape (http://www.inkscape.org/) -->

<svg
   version="1.1"
   id="svg1"
   width="483.73441"
   height="189.52322"
   viewBox="0 0 483.7344 189.52323"
   sodipodi:docname="assembly5_3.svg"
   inkscape:version="1.3.2 (091e20e, 2023-11-25, custom)"
   xmlns:inkscape="http://www.inkscape.org/namespaces/inkscape"
   xmlns:sodipodi="http://sodipodi.sourceforge.net/DTD/sodipodi-0.dtd"
   xmlns="http://www.w3.org/2000/svg"
   xmlns:svg="http://www.w3.org/2000/svg">
  <defs
     id="defs1">
    <rect
       x="-40.388714"
       y="34.175068"
       width="35.728477"
       height="46.602364"
       id="rect2" />
    <rect
       x="-33.657261"
       y="48.673576"
       width="25.372396"
       height="26.92581"
       id="rect1" />
    <rect
       x="-40.388714"
       y="34.175068"
       width="35.728477"
       height="46.602364"
       id="rect2-3" />
  </defs>
  <sodipodi:namedview
     id="namedview1"
     pagecolor="#ffffff"
     bordercolor="#000000"
     borderopacity="0.25"
     inkscape:showpageshadow="2"
     inkscape:pageopacity="0.0"
     inkscape:pagecheckerboard="0"
     inkscape:deskcolor="#d1d1d1"
     inkscape:zoom="1.3655877"
     inkscape:cx="282.29604"
     inkscape:cy="179.04379"
     inkscape:window-width="1920"
     inkscape:window-height="1017"
     inkscape:window-x="1912"
     inkscape:window-y="-8"
     inkscape:window-maximized="1"
     inkscape:current-layer="g1">
    <inkscape:page
       x="0"
       y="0"
       inkscape:label="1"
       id="page1"
       width="483.73441"
       height="189.52322"
       margin="0"
       bleed="0" />
  </sodipodi:namedview>
  <g
     id="g1"
     inkscape:groupmode="layer"
     inkscape:label="1"
     transform="translate(60.759959,234.17504)">
    <path
       id="path27"
       d="M 370.30144,-118.0446 H 400.5361"
       style="fill:none;stroke:#000000;stroke-width:3.40157;stroke-linecap:butt;stroke-linejoin:miter;stroke-miterlimit:3.9;stroke-dasharray:none;stroke-opacity:1" />
    <path
       id="path28"
       d="m 400.5361,-118.0446 -8.50533,8.5 29.76533,-8.5 -29.76533,-8.50533 z"
       style="fill:#000000;fill-opacity:1;fill-rule:evenodd;stroke:none;stroke-width:1.33333" />
    <path
       id="path51-5"
       d="m -33.003269,-145.60516 h 4.849333 v -0.26 h -0.276 c -0.854666,0 -1.218666,-0.172 -1.218666,-0.55734 0,-0.29733 0.28,-1.07866 0.312,-1.28666 l 2.484,-9.016 c 0.07333,-0.26 0.104,-0.416 0.104,-0.50534 0,-0.0667 -0.03067,-0.12 -0.08267,-0.12 l -2.989333,0.58934 c -0.03733,0 -0.177334,0.036 -0.365334,0.0733 v 0.26 l 0.989334,-0.036 c 0.02133,0 0.032,0 0.032,0 0.385333,0 0.630666,0.228 0.630666,0.54133 0,0.104 -0.03733,0.276 -0.125333,0.588 l -2.396,8.54666 c -0.172,0.64667 -0.573333,0.81867 -1.948,0.93867 z"
       style="fill:#000000;fill-opacity:1;fill-rule:nonzero;stroke:none;stroke-width:1.33333" />
    <path
       id="path61-7"
       d="m 403.39026,-87.453688 v 0.281333 c 1.948,0 3.23466,0.552 3.23466,2.88 0,1.756 -1.07866,2.854667 -2.276,2.854667 -0.93733,0 -1.48,-1.046667 -2.36533,-1.046667 -0.484,0 -0.76533,0.244 -0.76533,0.676 0,0.662667 0.71333,1.026667 1.948,1.026667 3.00533,0 4.844,-2.150667 4.844,-4.448 0,-1.249333 -0.5,-2.046667 -1.66667,-2.588 v -0.052 c 2.104,-0.813333 2.71333,-1.390667 2.71333,-2.568 0,-1.270666 -1.04666,-2.209333 -2.432,-2.209333 -1.204,0 -2.276,0.693333 -2.84933,1.808 l 0.276,0.088 c 0.60933,-0.801333 1.21333,-1.166667 1.948,-1.166667 0.916,0 1.54133,0.646667 1.54133,1.584 0,2.172 -3.072,2.708 -4.15066,2.88 z"
       style="fill:#000000;fill-opacity:1;fill-rule:nonzero;stroke:none;stroke-width:1.33333" />
    <path
       id="path27-9"
       d="m -60.759959,-133.69333 h 30.234667"
       style="fill:none;stroke:#000000;stroke-width:3.40157;stroke-linecap:butt;stroke-linejoin:miter;stroke-miterlimit:3.9;stroke-dasharray:none;stroke-opacity:1" />
    <path
       id="path28-5"
       d="m -30.525292,-133.69333 -8.50534,8.5 29.7653402,-8.5 -29.7653402,-8.50533 z"
       style="fill:#000000;fill-opacity:1;fill-rule:evenodd;stroke:none;stroke-width:1.33333" />
    <text
       xml:space="preserve"
       id="text2"
       style="font-style:italic;font-size:26.6667px;font-family:'Times New Roman';-inkscape-font-specification:'Times New Roman, Italic';white-space:pre;shape-inside:url(#rect2);display:inline;fill:#000000;stroke:#000000;stroke-width:0"
       transform="translate(-13.846138,-210.07708)"><tspan
         x="-40.388672"
         y="57.852492"
         id="tspan1">H</tspan></text>
    <text
       xml:space="preserve"
       id="text2-9"
       style="font-style:italic;font-size:26.6667px;font-family:'Times New Roman';-inkscape-font-specification:'Times New Roman, Italic';white-space:pre;shape-inside:url(#rect2-3);display:inline;fill:#000000;stroke:#000000;stroke-width:0"
       transform="translate(422.35197,-146.22862)"><tspan
         x="-40.388672"
         y="57.852492"
         id="tspan2">H</tspan></text>
    <path
       id="path1-8"
       d="M -0.61966618,-133.99238 H 180.33366"
       style="fill:none;stroke:#017188;stroke-width:3.77953;stroke-linecap:butt;stroke-linejoin:miter;stroke-miterlimit:4;stroke-dasharray:none;stroke-opacity:1" />
    <path
       id="path14-7"
       d="m -6.1969962,-139.72704 v 12.06266 h 12.06267 v -12.06266 z"
       style="fill:#ffffff;fill-opacity:1;fill-rule:nonzero;stroke:#000000;stroke-width:1.22714;stroke-linecap:butt;stroke-linejoin:miter;stroke-miterlimit:4;stroke-dasharray:none;stroke-opacity:1" />
    <path
       id="path15-8"
       d="m 179.83367,-96.123043 v 30.333329"
       style="fill:none;stroke:#000000;stroke-width:0.999999;stroke-linecap:butt;stroke-linejoin:miter;stroke-miterlimit:4;stroke-dasharray:none;stroke-opacity:1" />
    <path
       id="path16-5"
       d="m -0.48366618,-96.123043 v 30.333329"
       style="fill:none;stroke:#000000;stroke-width:0.999999;stroke-linecap:butt;stroke-linejoin:miter;stroke-miterlimit:4;stroke-dasharray:none;stroke-opacity:1" />
    <path
       id="path17-9"
       d="M 177.69367,-80.956383 H 1.6310038"
       style="fill:none;stroke:#000000;stroke-width:0.999999;stroke-linecap:butt;stroke-linejoin:miter;stroke-miterlimit:4;stroke-dasharray:none;stroke-opacity:1" />
    <path
       id="path18-9"
       d="m 167.00033,-85.393713 12.02134,4.42133 -12.02134,4.41734 c 1.92267,-2.60934 1.912,-6.17734 0,-8.83867 z"
       style="fill:#000000;fill-opacity:1;fill-rule:evenodd;stroke:#000000;stroke-width:0.687499;stroke-linecap:butt;stroke-linejoin:round;stroke-miterlimit:4;stroke-dasharray:none;stroke-opacity:1" />
    <path
       id="path19-6"
       d="m 12.323004,-76.519043 -12.02000018,-4.42134 12.02000018,-4.41733 c -1.92133,2.60933 -1.91067,6.17733 0,8.83867 z"
       style="fill:#000000;fill-opacity:1;fill-rule:evenodd;stroke:#000000;stroke-width:0.687499;stroke-linecap:butt;stroke-linejoin:round;stroke-miterlimit:4;stroke-dasharray:none;stroke-opacity:1" />
    <path
       id="path20-1"
       d="m 93.380334,-70.081714 c 0,-1.525333 -1.170666,-2.447999 -2.634666,-2.447999 -4.896,0 -6.166667,8.490666 -7.089333,11.698666 l -3.525334,2.416 0.317334,0.542666 2.922666,-1.942666 c -0.510666,1.749333 -1.464,3.88 -1.464,5.754666 0,1.937333 1.145334,3.401333 3.182667,3.401333 2.634666,0 4.572,-2.573333 5.656,-4.703999 l -0.573334,-0.224 c -0.797333,1.494666 -2.317333,3.750666 -4.229333,3.750666 -1.238666,0 -1.874666,-0.953333 -1.874666,-2.098667 0,-1.813333 1.655999,-6.322666 2.161333,-8.042666 2.417333,-1.618667 7.150666,-4.828 7.150666,-8.104 z m -0.885333,0.193334 c 0,2.634666 -4.036,5.562666 -5.948,6.958666 l 1.370667,-4.672 c 0.410666,-1.396 1.270666,-3.750666 3.052,-3.750666 0.890666,0 1.525333,0.541333 1.525333,1.464 z"
       style="fill:#017188;fill-opacity:1;fill-rule:nonzero;stroke:none;stroke-width:1.33333" />
    <path
       id="path21-1"
       d="m 97.641668,-56.904381 c 0.432,0 0.62,0.313334 0.62,0.969334 v 9.358666 c 0,1.344 -0.496,1.573333 -1.964,1.614667 v 0.308 h 5.702662 v -0.308 c -1.62933,-0.02 -1.96266,-0.229334 -1.96266,-1.218667 v -12.396 l -0.166669,-0.04133 -3.718667,1.88 v 0.286667 c 0.806667,-0.328 1.176,-0.453334 1.489334,-0.453334 z"
       style="fill:#017188;fill-opacity:1;fill-rule:nonzero;stroke:none;stroke-width:1.33333" />
    <path
       id="path22-0"
       d="M 180.33366,-133.99238 H 361.28699"
       style="fill:none;stroke:#c3312f;stroke-width:3.77953;stroke-linecap:butt;stroke-linejoin:miter;stroke-miterlimit:4;stroke-dasharray:none;stroke-opacity:1" />
    <path
       id="path23-9"
       d="m 174.303,-140.02438 v 12.05734 h 12.05733 v -12.05734 z"
       style="fill:#ffffff;fill-opacity:1;fill-rule:nonzero;stroke:#000000;stroke-width:1.22714;stroke-linecap:butt;stroke-linejoin:miter;stroke-miterlimit:4;stroke-dasharray:none;stroke-opacity:1" />
    <path
       id="path24-6"
       d="m 360.15232,-96.123043 v 30.333329"
       style="fill:none;stroke:#000000;stroke-width:0.999999;stroke-linecap:butt;stroke-linejoin:miter;stroke-miterlimit:4;stroke-dasharray:none;stroke-opacity:1" />
    <path
       id="path25-2"
       d="m 179.83367,-96.123043 v 30.333329"
       style="fill:none;stroke:#000000;stroke-width:0.999999;stroke-linecap:butt;stroke-linejoin:miter;stroke-miterlimit:4;stroke-dasharray:none;stroke-opacity:1" />
    <path
       id="path26-0"
       d="M 358.01099,-80.956383 H 181.94833"
       style="fill:none;stroke:#000000;stroke-width:0.999999;stroke-linecap:butt;stroke-linejoin:miter;stroke-miterlimit:4;stroke-dasharray:none;stroke-opacity:1" />
    <path
       id="path27-7"
       d="m 347.31899,-85.393713 12.02,4.42133 -12.02,4.41734 c 1.92133,-2.60934 1.91067,-6.17734 0,-8.83867 z"
       style="fill:#000000;fill-opacity:1;fill-rule:evenodd;stroke:#000000;stroke-width:0.687499;stroke-linecap:butt;stroke-linejoin:round;stroke-miterlimit:4;stroke-dasharray:none;stroke-opacity:1" />
    <path
       id="path28-6"
       d="m 192.64166,-76.519043 -12.02133,-4.42134 12.02133,-4.41733 c -1.92266,2.60933 -1.912,6.17733 0,8.83867 z"
       style="fill:#000000;fill-opacity:1;fill-rule:evenodd;stroke:#000000;stroke-width:0.687499;stroke-linecap:butt;stroke-linejoin:round;stroke-miterlimit:4;stroke-dasharray:none;stroke-opacity:1" />
    <path
       id="path29-2"
       d="m 273.70433,-70.081714 c 0,-1.525333 -1.17734,-2.447999 -2.64134,-2.447999 -4.89599,0 -6.16666,8.490666 -7.08799,11.698666 l -3.52667,2.416 0.31733,0.542666 2.92267,-1.942666 c -0.51067,1.749333 -1.464,3.88 -1.464,5.754666 0,1.937333 1.14667,3.401333 3.18267,3.401333 2.63466,0 4.57333,-2.573333 5.65599,-4.703999 l -0.57333,-0.224 c -0.79066,1.494666 -2.31733,3.750666 -4.228,3.750666 -1.24,0 -1.876,-0.953333 -1.876,-2.098667 0,-1.813333 1.656,-6.322666 2.16134,-8.042666 2.41733,-1.618667 7.15733,-4.828 7.15733,-8.104 z m -0.89067,0.193334 c 0,2.634666 -4.03733,5.562666 -5.948,6.958666 l 1.36934,-4.672 c 0.412,-1.396 1.27066,-3.750666 3.05199,-3.750666 0.89067,0 1.52667,0.541333 1.52667,1.464 z"
       style="fill:#c3312f;fill-opacity:1;fill-rule:nonzero;stroke:none;stroke-width:1.33333" />
    <path
       id="path30-6"
       d="m 274.81899,-54.508381 0.432,0.104 c 0.828,-2.025333 1.572,-2.688 3,-2.688 1.73467,0 2.91067,1.177334 2.91067,2.917334 0,1.609333 -0.952,3.530666 -2.68667,5.369333 l -3.67733,3.906666 v 0.245334 h 8.05733 l 1.13467,-2.828 -0.26533,-0.105334 c -0.76534,1.177334 -1.036,1.365334 -1.96267,1.365334 h -4.93867 l 3.46934,-3.636 c 1.83866,-1.921334 2.64533,-3.494667 2.64533,-5.104 0,-2.068 -1.672,-3.656 -3.82267,-3.656 -3.328,0 -4.068,3.14 -4.296,4.109333 z"
       style="fill:#c3312f;fill-opacity:1;fill-rule:nonzero;stroke:none;stroke-width:1.33333" />
    <path
       id="path31-3"
       d="m 355.25632,-140.02438 v 12.05734 h 12.05734 v -12.05734 z"
       style="fill:#ffffff;fill-opacity:1;fill-rule:nonzero;stroke:#000000;stroke-width:1.22714;stroke-linecap:butt;stroke-linejoin:miter;stroke-miterlimit:4;stroke-dasharray:none;stroke-opacity:1" />
    <path
       id="path32-5"
       d="m 263.03233,-102.03904 0.31733,-0.428 c -2.75066,-2.16667 -4.54133,-4.30667 -4.54133,-11.12 0,-6.54667 1.79067,-8.60934 4.54133,-10.82267 l -0.24,-0.432 c -2.192,1.416 -6.59866,4.54667 -6.59866,11.33333 0,6.44267 4.54133,10.26534 6.52133,11.46934 z m 1.92133,-17.48 0.56267,0.13066 c 1.068,-2.62 2.03067,-3.47466 3.87467,-3.47466 2.24533,0 3.77066,1.52666 3.77066,3.77066 0,2.084 -1.22933,4.568 -3.47333,6.948 l -4.76,5.052 v 0.324 h 10.42133 l 1.47333,-3.66666 -0.348,-0.13067 c -0.98933,1.52133 -1.33866,1.76 -2.53733,1.76 H 267.547 l 4.49066,-4.70267 c 2.38,-2.484 3.42133,-4.516 3.42133,-6.59866 0,-2.672 -2.16666,-4.73467 -4.94266,-4.73467 -4.30667,0 -5.26533,4.06267 -5.56267,5.32267 z m 13.63067,-5.32267 -0.31867,0.432 c 2.75067,2.16133 4.54267,4.30267 4.54267,11.11467 0,6.552 -1.792,8.60933 -4.54267,10.828 l 0.24,0.428 c 2.19333,-1.41734 6.604,-4.548 6.604,-11.33334 0,-6.44266 -4.54667,-10.26666 -6.52533,-11.46933 z"
       style="fill:#c3312f;fill-opacity:1;fill-rule:nonzero;stroke:none;stroke-width:1.33333" />
    <path
       id="path33-6"
       d="m 82.079001,-102.03904 0.317334,-0.428 c -2.749334,-2.16667 -4.541334,-4.30667 -4.541334,-11.12 0,-6.54667 1.792,-8.60934 4.541334,-10.82267 l -0.24,-0.432 c -2.192,1.416 -6.598667,4.54667 -6.598667,11.33333 0,6.44267 4.541333,10.26534 6.521333,11.46934 z m 5.984,-20.584 c 0.562667,0 0.802667,0.40133 0.802667,1.26 v 12.10533 c 0,1.73867 -0.641334,2.03067 -2.537334,2.08267 v 0.40133 h 7.376 v -0.40133 c -2.109333,-0.0267 -2.537333,-0.292 -2.537333,-1.57334 v -16.036 l -0.213333,-0.0573 -4.812,2.432 v 0.37467 c 1.041333,-0.42667 1.52,-0.588 1.921333,-0.588 z m 9.568,-2.21867 -0.317333,0.432 c 2.749332,2.16133 4.541332,4.30267 4.541332,11.11467 0,6.552 -1.792,8.60933 -4.541332,10.828 l 0.238666,0.428 c 2.193333,-1.41734 6.603996,-4.548 6.603996,-11.33334 0,-6.44266 -4.546663,-10.26666 -6.525329,-11.46933 z"
       style="fill:#017188;fill-opacity:1;fill-rule:nonzero;stroke:none;stroke-width:1.33333" />
    <path
       id="path34-3"
       d="m -14.181266,-205.80571 h 29.54681"
       style="fill:none;stroke:#00ce99;stroke-width:6.74838;stroke-linecap:butt;stroke-linejoin:miter;stroke-miterlimit:4;stroke-dasharray:none;stroke-opacity:1" />
    <path
       id="path35-0"
       d="m 8.2191938,-205.80571 -5.95857,7.64667 20.8441102,-7.64667 -20.8441102,-7.65066 z"
       style="fill:#00ce99;fill-opacity:1;fill-rule:evenodd;stroke:#00ce99;stroke-width:1.79957;stroke-linecap:butt;stroke-linejoin:miter;stroke-miterlimit:4;stroke-dasharray:none;stroke-opacity:1" />
    <path
       id="path36-5"
       d="m -0.26546618,-196.40971 26.16208018,-9.58266 -25.86514018,-9.32267 4.17795998,5.74933 H -13.994376 v 7.66134 H 3.9124938 Z"
       style="fill:#ffffff;fill-opacity:1;fill-rule:nonzero;stroke:#000000;stroke-width:0.892754;stroke-linecap:butt;stroke-linejoin:miter;stroke-miterlimit:4;stroke-dasharray:none;stroke-opacity:1" />
    <path
       id="path37-0"
       d="m 6.1990038,-226.18571 c 0,-0.26533 -0.21333,-0.26533 -0.40133,-0.26533 -0.31734,0 -0.344,0.0253 -0.50534,0.61467 -0.37466,1.5 -0.88533,3.18266 -1.792,3.18266 -0.69733,0 -0.69733,-0.724 -0.69733,-1.1 0,-0.18666 0,-0.61466 0.18667,-1.35866 l 1.928,-7.69867 c 0.052,-0.16133 0.0773,-0.296 0.0773,-0.37467 0,-0.296 -0.21333,-0.69733 -0.744,-0.69733 -0.80267,0 -0.98933,0.776 -1.04667,0.98933 l -1.948,7.80667 c -0.136,0.48 -0.136,0.532 -0.37599998,0.88133 -0.50933,0.74934 -1.28133,1.552 -2.45733002,1.552 -1.204,0 -1.44267,-1.17733 -1.44267,-2.05733 0,-1.63067 0.88,-4.03733 1.54667,-5.85467 0.21333,-0.56266 0.34933,-0.93733 0.34933,-1.44266 0,-1.33867 -0.88133,-2.16667 -2.032,-2.16667 -2.484,0 -3.42133,3.95867 -3.42133,4.11467 0,0.27066 0.26533,0.27066 0.4,0.27066 0.34933,0 0.376,-0.0573 0.48533,-0.42666 0.21334,-0.83334 0.932,-3.37067 2.484,-3.37067 0.292,0 0.588,0.0787 0.588,0.776 0,0.64133 -0.27066,1.36 -0.64,2.40667 -0.69866,1.86933 -1.39066,3.84933 -1.39066,5.23466 0,2.328 1.54666,3.104 2.98933,3.104 1.41733002,0 2.32800002,-0.80266 2.96933,-1.604 0.47867,1.44267 1.62934,1.604 2.14,1.604 0.984,0 1.54667,-0.672 1.948,-1.5 0.484,-1.016 0.80267,-2.62 0.80267,-2.62 z"
       style="fill:#000000;fill-opacity:1;fill-rule:nonzero;stroke:none;stroke-width:1.33333" />
    <path
       id="path38-3"
       d="m 6.4070038,-217.01371 h 4.8493302 v -0.26 h -0.276 c -0.85466,0 -1.2186602,-0.17733 -1.2186602,-0.55733 0,-0.29733 0.2800002,-1.07867 0.3120002,-1.28667 l 2.484,-9.016 c 0.0733,-0.26 0.104,-0.416 0.104,-0.50533 0,-0.0667 -0.0307,-0.12 -0.0827,-0.12 l -2.9893302,0.58933 c -0.0373,0 -0.17734,0.036 -0.36534,0.068 v 0.26 l 0.9893402,-0.0307 c 0.0213,0 0.032,0 0.032,0 0.38533,0 0.63066,0.224 0.63066,0.536 0,0.104 -0.0373,0.28133 -0.12533,0.59333 l -2.3960002,8.54667 c -0.17733,0.64133 -0.57333,0.81866 -1.948,0.93866 z"
       style="fill:#000000;fill-opacity:1;fill-rule:nonzero;stroke:none;stroke-width:1.33333" />
    <path
       id="path39"
       d="m 159.67745,-205.80571 h 29.54161"
       style="fill:none;stroke:#00ce99;stroke-width:6.74838;stroke-linecap:butt;stroke-linejoin:miter;stroke-miterlimit:4;stroke-dasharray:none;stroke-opacity:1" />
    <path
       id="path40-4"
       d="m 182.07376,-205.80571 -5.95858,7.64667 20.84411,-7.64667 -20.84411,-7.65066 z"
       style="fill:#00ce99;fill-opacity:1;fill-rule:evenodd;stroke:#00ce99;stroke-width:1.79957;stroke-linecap:butt;stroke-linejoin:miter;stroke-miterlimit:4;stroke-dasharray:none;stroke-opacity:1" />
    <path
       id="path41-1"
       d="m 173.5891,-196.40971 26.16103,-9.58266 -25.86409,-9.32267 4.17692,5.74933 h -18.20278 v 7.66134 h 17.90584 z"
       style="fill:#ffffff;fill-opacity:1;fill-rule:nonzero;stroke:#000000;stroke-width:0.892754;stroke-linecap:butt;stroke-linejoin:miter;stroke-miterlimit:4;stroke-dasharray:none;stroke-opacity:1" />
    <path
       id="path42-2"
       d="m 180.05233,-226.18571 c 0,-0.26533 -0.21333,-0.26533 -0.4,-0.26533 -0.31866,0 -0.344,0.0253 -0.50533,0.61467 -0.376,1.5 -0.88133,3.18266 -1.792,3.18266 -0.69333,0 -0.69333,-0.724 -0.69333,-1.1 0,-0.18666 0,-0.61466 0.188,-1.35866 l 1.92133,-7.69867 c 0.052,-0.16133 0.0787,-0.296 0.0787,-0.37467 0,-0.296 -0.21334,-0.69733 -0.74534,-0.69733 -0.80133,0 -0.98933,0.776 -1.04133,0.98933 l -1.95333,7.80667 c -0.13467,0.48 -0.13467,0.532 -0.37467,0.88133 -0.50533,0.74934 -1.28133,1.552 -2.45867,1.552 -1.20266,0 -1.44266,-1.17733 -1.44266,-2.05733 0,-1.63067 0.88,-4.03733 1.552,-5.85467 0.21333,-0.56266 0.344,-0.93733 0.344,-1.44266 0,-1.33867 -0.88,-2.16667 -2.03067,-2.16667 -2.48533,0 -3.42267,3.95867 -3.42267,4.11467 0,0.27066 0.27067,0.27066 0.40134,0.27066 0.34933,0 0.37466,-0.0573 0.484,-0.42666 0.21333,-0.83334 0.93333,-3.37067 2.48533,-3.37067 0.29067,0 0.588,0.0787 0.588,0.776 0,0.64133 -0.26533,1.36 -0.64,2.40667 -0.69867,1.86933 -1.39067,3.84933 -1.39067,5.23466 0,2.328 1.552,3.104 2.99467,3.104 1.416,0 2.32267,-0.80266 2.96267,-1.604 0.48533,1.44267 1.63066,1.604 2.14133,1.604 0.98933,0 1.54667,-0.672 1.948,-1.5 0.484,-1.016 0.80133,-2.62 0.80133,-2.62 z"
       style="fill:#000000;fill-opacity:1;fill-rule:nonzero;stroke:none;stroke-width:1.33333" />
    <path
       id="path43-6"
       d="m 180.803,-225.98171 0.364,0.124 c 0.64666,-1.12933 1.39066,-1.63466 2.432,-1.63466 1.23466,0 2.172,0.90533 2.172,2.12 0,0.83333 -0.452,2 -2.5,4.17066 l -3.65067,3.89067 v 0.29733 h 6.16667 l 0.86933,-2.29733 -0.29067,-0.11867 c -0.42266,0.86934 -0.78666,1.09334 -1.724,1.09334 h -3.29733 v -0.0893 l 3.33333,-3.33333 c 2.03067,-2.03067 2.588,-2.9 2.588,-4.04667 0,-1.672 -1.23333,-2.95333 -2.812,-2.95333 -1.37466,0 -2.78133,0.62533 -3.65066,2.77733 z"
       style="fill:#000000;fill-opacity:1;fill-rule:nonzero;stroke:none;stroke-width:1.33333" />
    <path
       id="path44-4"
       d="M 340.63059,-205.80571 H 370.1722"
       style="fill:none;stroke:#00ce99;stroke-width:6.74838;stroke-linecap:butt;stroke-linejoin:miter;stroke-miterlimit:4;stroke-dasharray:none;stroke-opacity:1" />
    <path
       id="path45-0"
       d="m 363.0269,-205.80571 -5.95858,7.64667 20.84411,-7.64667 -20.84411,-7.65066 z"
       style="fill:#00ce99;fill-opacity:1;fill-rule:evenodd;stroke:#00ce99;stroke-width:1.79957;stroke-linecap:butt;stroke-linejoin:miter;stroke-miterlimit:4;stroke-dasharray:none;stroke-opacity:1" />
    <path
       id="path46-6"
       d="m 354.54224,-196.40971 26.16103,-9.58266 -25.86409,-9.32267 4.17692,5.74933 h -18.20278 v 7.66134 h 17.90584 z"
       style="fill:#ffffff;fill-opacity:1;fill-rule:nonzero;stroke:#000000;stroke-width:0.892754;stroke-linecap:butt;stroke-linejoin:miter;stroke-miterlimit:4;stroke-dasharray:none;stroke-opacity:1" />
    <path
       id="path47-8"
       d="m 361.00566,-226.18571 c 0,-0.26533 -0.21334,-0.26533 -0.40134,-0.26533 -0.31733,0 -0.34266,0.0253 -0.50533,0.61467 -0.37467,1.5 -0.88,3.18266 -1.79067,3.18266 -0.69333,0 -0.69333,-0.724 -0.69333,-1.1 0,-0.18666 0,-0.61466 0.188,-1.35866 l 1.92133,-7.69867 c 0.052,-0.16133 0.0787,-0.296 0.0787,-0.37467 0,-0.296 -0.21333,-0.69733 -0.74533,-0.69733 -0.80134,0 -0.98934,0.776 -1.04134,0.98933 l -1.95333,7.80667 c -0.13467,0.48 -0.13467,0.532 -0.37467,0.88133 -0.50533,0.74934 -1.28133,1.552 -2.45866,1.552 -1.20267,0 -1.44267,-1.17733 -1.44267,-2.05733 0,-1.63067 0.88,-4.03733 1.552,-5.85467 0.21333,-0.56266 0.344,-0.93733 0.344,-1.44266 0,-1.33867 -0.88,-2.16667 -2.03067,-2.16667 -2.48533,0 -3.42266,3.95867 -3.42266,4.11467 0,0.27066 0.27066,0.27066 0.40133,0.27066 0.34933,0 0.37467,-0.0573 0.484,-0.42666 0.21333,-0.83334 0.932,-3.37067 2.484,-3.37067 0.292,0 0.58933,0.0787 0.58933,0.776 0,0.64133 -0.26533,1.36 -0.64133,2.40667 -0.69733,1.86933 -1.39067,3.84933 -1.39067,5.23466 0,2.328 1.548,3.104 2.996,3.104 1.416,0 2.32267,-0.80266 2.96267,-1.604 0.484,1.44267 1.63067,1.604 2.14133,1.604 0.98934,0 1.54667,-0.672 1.948,-1.5 0.484,-1.016 0.80134,-2.62 0.80134,-2.62 z"
       style="fill:#000000;fill-opacity:1;fill-rule:nonzero;stroke:none;stroke-width:1.33333" />
    <path
       id="path48-9"
       d="m 362.79766,-223.56571 v 0.276 c 1.948,0 3.23466,0.55734 3.23466,2.88534 0,1.756 -1.07866,2.84933 -2.276,2.84933 -0.93733,0 -1.48,-1.04133 -2.36533,-1.04133 -0.484,0 -0.76533,0.244 -0.76533,0.676 0,0.66266 0.71333,1.02666 1.948,1.02666 3.00533,0 4.844,-2.156 4.844,-4.448 0,-1.24933 -0.5,-2.052 -1.66667,-2.588 v -0.052 c 2.104,-0.81866 2.71333,-1.39066 2.71333,-2.57333 0,-1.26533 -1.04666,-2.204 -2.432,-2.204 -1.204,0 -2.276,0.69333 -2.84933,1.808 l 0.276,0.0827 c 0.60933,-0.796 1.21333,-1.16134 1.948,-1.16134 0.916,0 1.54133,0.64134 1.54133,1.57867 0,2.172 -3.072,2.71333 -4.15066,2.88533 z"
       style="fill:#000000;fill-opacity:1;fill-rule:nonzero;stroke:none;stroke-width:1.33333" />
    <path
       id="path49-8"
       d="M -28.040996,-211.67504 H 420.84966 V -44.653714 H -28.040996 Z"
       style="fill:none;stroke:#ffffff;stroke-width:0.00377953;stroke-linecap:butt;stroke-linejoin:bevel;stroke-miterlimit:3.9;stroke-dasharray:none;stroke-opacity:1" />
    <path
       id="path50-6"
       d="m 355.14699,-140.23771 12.276,12.27067"
       style="fill:none;stroke:#000000;stroke-width:0.999999;stroke-linecap:butt;stroke-linejoin:miter;stroke-miterlimit:4;stroke-dasharray:none;stroke-opacity:1" />
    <path
       id="path51-9"
       d="m 355.14699,-127.96704 12.276,-12.27067"
       style="fill:none;stroke:#000000;stroke-width:0.999999;stroke-linecap:butt;stroke-linejoin:miter;stroke-miterlimit:4;stroke-dasharray:none;stroke-opacity:1" />
    <path
       id="path64"
       d="m 355.14699,-140.23771 v 12.27067 h 12.276 v -12.27067 z"
       style="fill:#ffffff;fill-opacity:1;fill-rule:nonzero;stroke:#000000;stroke-width:1.24902;stroke-linecap:butt;stroke-linejoin:miter;stroke-miterlimit:4;stroke-dasharray:none;stroke-opacity:1" />
    <path
       id="path65"
       d="m 370.26871,-150.52066 h 37.5"
       style="fill:none;stroke:#00ce99;stroke-width:7.55905;stroke-linecap:butt;stroke-linejoin:miter;stroke-miterlimit:4;stroke-dasharray:none;stroke-opacity:1" />
    <path
       id="path66"
       d="m 398.69538,-150.52066 -7.55734,7.55734 26.45867,-7.55734 -26.45867,-7.55733 z"
       style="fill:#00ce99;fill-opacity:1;fill-rule:evenodd;stroke:#00ce99;stroke-width:2.01575;stroke-linecap:butt;stroke-linejoin:miter;stroke-miterlimit:4;stroke-dasharray:none;stroke-opacity:1" />
    <path
       id="path67"
       d="m 387.93004,-141.23399 33.208,-9.46933 -32.83333,-9.21867 5.308,5.68267 h -23.10933 v 7.57733 h 22.72933 z"
       style="fill:none;stroke:#000000;stroke-width:0.999999;stroke-linecap:butt;stroke-linejoin:miter;stroke-miterlimit:4;stroke-dasharray:none;stroke-opacity:1" />
    <path
       id="path68"
       d="m 388.47138,-185.50999 h 11.896 v 0.984 h -11.896 z"
       style="fill:#000000;fill-opacity:1;fill-rule:nonzero;stroke:none;stroke-width:1.33333" />
    <path
       id="path69"
       d="m 395.61804,-167.92199 c 0.364,1.344 1.552,2.224 2.948,2.224 1.14,0 1.916,-0.776 2.432,-1.812 0.572,-1.188 0.984,-3.208 0.984,-3.26133 0,-0.35867 -0.26,-0.35867 -0.364,-0.35867 -0.36,0 -0.36,0.156 -0.464,0.62 -0.464,1.864 -1.088,4.088 -2.484,4.088 -0.672,0 -1.032,-0.416 -1.032,-1.5 0,-0.724 0.412,-2.276 0.672,-3.468 l 0.932,-3.568 c 0.1,-0.464 0.412,-1.708 0.568,-2.224 0.156,-0.776 0.464,-2.016 0.464,-2.224 0,-0.568 -0.464,-0.88 -0.932,-0.88 -0.152,0 -1.032,0.052 -1.292,1.14 -0.62,2.428 -2.068,8.224 -2.484,9.928 -0.048,0.156 -1.344,2.796 -3.776,2.796 -1.704,0 -2.016,-1.5 -2.016,-2.692 0,-1.86 0.932,-4.448 1.76,-6.724 0.412,-1.032 0.568,-1.5 0.568,-2.12 0,-1.448 -1.036,-2.688 -2.688,-2.688 -3.156,0 -4.348,4.808 -4.348,5.068 0,0.36 0.312,0.36 0.364,0.36 0.36,0 0.36,-0.1 0.516,-0.62 0.828,-2.844 2.12,-4.084 3.364,-4.084 0.308,0 0.828,0.052 0.828,1.084 0,0.776 -0.364,1.76 -0.572,2.224 -1.24,3.312 -1.912,5.328 -1.912,6.932 0,3.156 2.276,3.984 4.036,3.984 2.172,0 3.36,-1.5 3.928,-2.224 z"
       style="fill:#000000;fill-opacity:1;fill-rule:nonzero;stroke:none;stroke-width:1.33333" />
    <path
       id="path70"
       d="M 9.9283338,-157.12838 H 55.532334"
       style="fill:none;stroke:#810000;stroke-width:1.88976;stroke-linecap:butt;stroke-linejoin:miter;stroke-miterlimit:4;stroke-dasharray:none;stroke-opacity:1" />
    <path
       id="path71"
       d="m 47.975004,-157.12838 -3.78134,3.78134 13.22934,-3.78134 -13.22934,-3.776 z"
       style="fill:#810000;fill-opacity:1;fill-rule:evenodd;stroke:#810000;stroke-width:1.00787;stroke-linecap:butt;stroke-linejoin:miter;stroke-miterlimit:4;stroke-dasharray:none;stroke-opacity:1" />
    <path
       id="path72"
       d="m 183.147,-168.62304 c 0,-0.32267 -0.27067,-0.32267 -0.64667,-0.32267 -1.35867,0 -1.35867,-0.16133 -1.35867,-0.42666 0,-0.188 0.052,-0.324 0.0773,-0.48534 l 3.66134,-14.59333 c 0.0267,-0.0787 0.084,-0.344 0.084,-0.344 0,-0.24 -0.21867,-0.29733 -0.29734,-0.29733 -0.292,0 -1.25466,0.93866 -1.68133,1.688 -0.324,-0.776 -1.016,-1.71334 -2.30267,-1.71334 -2.964,0 -6.12,4.06267 -6.12,7.964 0,2.276 1.22934,4.14534 3.23467,4.14534 1.09867,0 2.08267,-0.69734 2.83333,-1.41734 -0.532,2.084 -0.50533,2.084 -1.04133,4.19867 -0.292,1.14533 -0.324,1.25467 -2.032,1.28133 -0.348,0 -0.64,0 -0.64,0.50534 0,0.244 0.16133,0.32266 0.348,0.32266 0.85467,0 1.78667,-0.0787 2.672,-0.0787 0.88133,0 1.844,0.0787 2.69867,0.0787 0.16133,0 0.51066,0 0.51066,-0.50533 z m -1.98,-7.94267 c -0.21334,0.828 -1.844,2.96934 -3.312,2.96934 -1.26,0 -1.47467,-1.57867 -1.47467,-2.38134 0,-1.33333 0.82934,-4.46266 1.31334,-5.58266 0.66666,-1.63067 1.896,-2.96934 2.98933,-2.96934 0.21866,0 0.83333,0.0267 1.312,0.776 0.26666,0.428 0.53733,1.204 0.53733,1.70934 0,0.0827 -0.032,0.18666 -0.084,0.348 z"
       style="fill:#000000;fill-opacity:1;fill-rule:nonzero;stroke:none;stroke-width:1.33333" />
    <path
       id="path73"
       d="M 67.485664,-157.12838 H 113.08967"
       style="fill:none;stroke:#810000;stroke-width:1.88976;stroke-linecap:butt;stroke-linejoin:miter;stroke-miterlimit:4;stroke-dasharray:none;stroke-opacity:1" />
    <path
       id="path74"
       d="m 105.527,-157.12838 -3.776,3.78134 13.22933,-3.78134 -13.22933,-3.776 z"
       style="fill:#810000;fill-opacity:1;fill-rule:evenodd;stroke:#810000;stroke-width:1.00787;stroke-linecap:butt;stroke-linejoin:miter;stroke-miterlimit:4;stroke-dasharray:none;stroke-opacity:1" />
    <path
       id="path75"
       d="m 125.03767,-157.12838 h 45.604"
       style="fill:none;stroke:#810000;stroke-width:1.88976;stroke-linecap:butt;stroke-linejoin:miter;stroke-miterlimit:4;stroke-dasharray:none;stroke-opacity:1" />
    <path
       id="path76"
       d="m 163.08433,-157.12838 -3.78133,3.78134 13.22933,-3.78134 -13.22933,-3.776 z"
       style="fill:#810000;fill-opacity:1;fill-rule:evenodd;stroke:#810000;stroke-width:1.00787;stroke-linecap:butt;stroke-linejoin:miter;stroke-miterlimit:4;stroke-dasharray:none;stroke-opacity:1" />
    <path
       id="path77"
       d="m 182.58966,-157.12838 h 45.604"
       style="fill:none;stroke:#810000;stroke-width:1.88976;stroke-linecap:butt;stroke-linejoin:miter;stroke-miterlimit:4;stroke-dasharray:none;stroke-opacity:1" />
    <path
       id="path78"
       d="m 220.63633,-157.12838 -3.78133,3.78134 13.22933,-3.78134 -13.22933,-3.776 z"
       style="fill:#810000;fill-opacity:1;fill-rule:evenodd;stroke:#810000;stroke-width:1.00787;stroke-linecap:butt;stroke-linejoin:miter;stroke-miterlimit:4;stroke-dasharray:none;stroke-opacity:1" />
    <path
       id="path79"
       d="m 240.147,-157.12838 h 45.60399"
       style="fill:none;stroke:#810000;stroke-width:1.88976;stroke-linecap:butt;stroke-linejoin:miter;stroke-miterlimit:4;stroke-dasharray:none;stroke-opacity:1" />
    <path
       id="path80"
       d="m 278.18833,-157.12838 -3.776,3.78134 13.22933,-3.78134 -13.22933,-3.776 z"
       style="fill:#810000;fill-opacity:1;fill-rule:evenodd;stroke:#810000;stroke-width:1.00787;stroke-linecap:butt;stroke-linejoin:miter;stroke-miterlimit:4;stroke-dasharray:none;stroke-opacity:1" />
    <path
       id="path81"
       d="m 297.69899,-157.12838 h 45.604"
       style="fill:none;stroke:#810000;stroke-width:1.88976;stroke-linecap:butt;stroke-linejoin:miter;stroke-miterlimit:4;stroke-dasharray:none;stroke-opacity:1" />
    <path
       id="path82"
       d="m 335.74566,-157.12838 -3.78134,3.78134 13.22934,-3.78134 -13.22934,-3.776 z"
       style="fill:#810000;fill-opacity:1;fill-rule:evenodd;stroke:#810000;stroke-width:1.00787;stroke-linecap:butt;stroke-linejoin:miter;stroke-miterlimit:4;stroke-dasharray:none;stroke-opacity:1" />
  </g>
</svg>
