<?xml version="1.0" encoding="UTF-8" standalone="no"?>
<!-- Created with Inkscape (http://www.inkscape.org/) -->

<svg
   version="1.1"
   id="svg1"
   width="307.66367"
   height="95.172165"
   viewBox="0 0 307.66367 95.172165"
   sodipodi:docname="extensionelementq.svg"
   inkscape:version="1.3.2 (091e20e, 2023-11-25, custom)"
   xmlns:inkscape="http://www.inkscape.org/namespaces/inkscape"
   xmlns:sodipodi="http://sodipodi.sourceforge.net/DTD/sodipodi-0.dtd"
   xmlns="http://www.w3.org/2000/svg"
   xmlns:svg="http://www.w3.org/2000/svg">
  <defs
     id="defs1" />
  <sodipodi:namedview
     id="namedview1"
     pagecolor="#ffffff"
     bordercolor="#000000"
     borderopacity="0.25"
     inkscape:showpageshadow="2"
     inkscape:pageopacity="0.0"
     inkscape:pagecheckerboard="0"
     inkscape:deskcolor="#d1d1d1"
     inkscape:zoom="3.984871"
     inkscape:cx="153.83183"
     inkscape:cy="47.554864"
     inkscape:window-width="1920"
     inkscape:window-height="1001"
     inkscape:window-x="-9"
     inkscape:window-y="-9"
     inkscape:window-maximized="1"
     inkscape:current-layer="g1">
    <inkscape:page
       x="0"
       y="0"
       inkscape:label="1"
       id="page1"
       width="307.66367"
       height="95.172165"
       margin="0"
       bleed="0" />
  </sodipodi:namedview>
  <g
     id="g1"
     inkscape:groupmode="layer"
     inkscape:label="1">
    <path
       id="path1"
       d="M 47.516,27.91 H 183.23"
       style="fill:none;stroke:#000000;stroke-width:2.83465;stroke-linecap:butt;stroke-linejoin:miter;stroke-miterlimit:4;stroke-dasharray:none;stroke-opacity:1"
       transform="scale(1.3333333)" />
    <path
       id="path2"
       d="m 103.285,44.715 c 0,-0.223 -0.238,-0.223 -0.301,-0.223 -0.218,0 -0.238,0.02 -0.418,0.481 -1.164,2.769 -1.867,4.07 -5.054,4.07 h -2.446 c -0.621,0 -0.621,-0.059 -0.621,-0.199 0,-0.121 0.063,-0.321 0.082,-0.442 l 1.383,-5.511 h 1.742 c 1.364,0 1.504,0.32 1.504,0.859 0,0.141 -0.019,0.441 -0.179,1.023 0,0 -0.039,0.161 -0.039,0.223 0,0.238 0.199,0.238 0.32,0.238 0.219,0 0.281,-0.039 0.359,-0.398 l 1.102,-4.41 c 0.019,-0.063 0.062,-0.262 0.062,-0.262 0,-0.242 -0.242,-0.242 -0.32,-0.242 -0.262,0 -0.262,0.062 -0.383,0.48 -0.379,1.426 -0.762,1.868 -2.387,1.868 H 96.07 l 1.223,-4.934 c 0.16,-0.66 0.301,-0.68 0.961,-0.68 h 2.508 c 2.164,0 2.664,0.602 2.664,2.024 0,0.543 -0.039,0.8 -0.102,1.285 -0.019,0.097 -0.039,0.277 -0.039,0.34 0,0.238 0.223,0.238 0.301,0.238 0.281,0 0.301,-0.078 0.34,-0.438 l 0.461,-3.55 c 0.062,-0.52 -0.059,-0.52 -0.481,-0.52 h -9.359 c -0.34,0 -0.543,0 -0.543,0.36 0,0.261 0.141,0.261 0.543,0.261 1.16,0 1.16,0.16 1.16,0.34 0,0 0,0.16 -0.078,0.461 l -2.688,10.746 c -0.16,0.68 -0.281,0.84 -1.644,0.84 -0.32,0 -0.539,0 -0.539,0.383 0,0.238 0.18,0.238 0.5,0.238 h 9.601 c 0.403,0 0.422,-0.019 0.563,-0.32 l 1.785,-4.391 c 0.02,-0.039 0.078,-0.238 0.078,-0.238 z"
       style="fill:#000000;fill-opacity:1;fill-rule:nonzero;stroke:none"
       transform="scale(1.3333333)" />
    <path
       id="path3"
       d="m 116.977,49.305 c 0,-0.262 -0.161,-0.262 -0.481,-0.262 -1.043,0 -1.101,-0.16 -1.141,-0.68 l -0.863,-12.551 c -0.019,-0.441 -0.039,-0.5 -0.359,-0.5 -0.324,0 -0.403,0.141 -0.524,0.36 l -6.656,11.726 c -0.859,1.524 -1.723,1.606 -2.426,1.645 -0.218,0.019 -0.238,0.383 -0.238,0.383 0,0.058 0.02,0.238 0.238,0.238 0.504,0 1.086,-0.059 1.606,-0.059 0.621,0 1.262,0.059 1.863,0.059 0.102,0 0.363,0 0.363,-0.379 0,-0.223 -0.16,-0.223 -0.324,-0.242 -0.117,-0.02 -0.84,-0.059 -0.84,-0.68 0,-0.179 0.102,-0.422 0.282,-0.761 l 1.441,-2.528 h 4.57 l 0.223,3.328 c 0,0.403 -0.481,0.641 -1.344,0.641 -0.219,0 -0.461,0 -0.461,0.383 0,0.238 0.242,0.238 0.301,0.238 0.742,0 1.543,-0.059 2.305,-0.059 0.703,0 1.422,0.059 2.105,0.059 0.121,0 0.36,0 0.36,-0.359 z m -3.528,-4.852 h -4.187 l 3.726,-6.555 z"
       style="fill:#000000;fill-opacity:1;fill-rule:nonzero;stroke:none"
       transform="scale(1.3333333)" />
    <path
       id="path4"
       d="m 122.488,48.723 c 0,-0.661 -0.277,-1.184 -0.922,-1.184 -0.8,0 -1.3,0.703 -1.3,1.285 0,0.641 0.461,0.84 0.882,0.84 0.399,0 0.719,-0.219 0.821,-0.301 -0.301,1.543 -1.301,2.828 -2.246,3.629 -0.239,0.242 -0.258,0.262 -0.258,0.34 0,0.063 0.058,0.203 0.199,0.203 0.359,0 2.828,-2.426 2.828,-4.812 z"
       style="fill:#000000;fill-opacity:1;fill-rule:nonzero;stroke:none"
       transform="scale(1.3333333)" />
    <path
       id="path5"
       d="m 139.992,37.637 c 0,-0.961 -0.742,-1.543 -1.664,-1.543 -3.09,0 -3.89,5.351 -4.473,7.379 l -2.222,1.523 0.199,0.34 1.844,-1.223 c -0.321,1.102 -0.922,2.446 -0.922,3.629 0,1.223 0.723,2.145 2.004,2.145 1.664,0 2.887,-1.625 3.57,-2.969 l -0.363,-0.141 c -0.5,0.946 -1.461,2.368 -2.664,2.368 -0.781,0 -1.184,-0.602 -1.184,-1.325 0,-1.14 1.043,-3.988 1.363,-5.07 1.524,-1.023 4.512,-3.047 4.512,-5.113 z m -0.562,0.121 c 0,1.664 -2.547,3.508 -3.75,4.39 l 0.863,-2.949 c 0.262,-0.879 0.801,-2.363 1.926,-2.363 0.558,0 0.961,0.34 0.961,0.922 z"
       style="fill:#000000;fill-opacity:1;fill-rule:nonzero;stroke:none"
       transform="scale(1.3333333)" />
    <path
       id="path6"
       d="m 23.387,-178.707 h 9.043 v -9.047 h -9.043 z"
       style="fill:#ffffff;fill-opacity:1;fill-rule:nonzero;stroke:#000000;stroke-width:0.920356;stroke-linecap:butt;stroke-linejoin:miter;stroke-miterlimit:4;stroke-dasharray:none;stroke-opacity:1"
       transform="matrix(0,1.3333333,-1.3333333,0,0,0)" />
    <path
       id="path7"
       d="m 23.387,-42.996 h 9.043 v -9.043 h -9.043 z"
       style="fill:#ffffff;fill-opacity:1;fill-rule:nonzero;stroke:#000000;stroke-width:0.920356;stroke-linecap:butt;stroke-linejoin:miter;stroke-miterlimit:4;stroke-dasharray:none;stroke-opacity:1"
       transform="matrix(0,1.3333333,-1.3333333,0,0,0)" />
    <path
       id="path8"
       d="M 0,27.91 H 22.676"
       style="fill:none;stroke:#000000;stroke-width:2.55118;stroke-linecap:butt;stroke-linejoin:miter;stroke-miterlimit:3.9;stroke-dasharray:none;stroke-opacity:1"
       transform="scale(1.3333333)" />
    <path
       id="path9"
       d="M 22.676,27.91 16.297,34.285 38.621,27.91 16.297,21.531 Z"
       style="fill:#000000;fill-opacity:1;fill-rule:evenodd;stroke:none"
       transform="scale(1.3333333)" />
    <path
       id="path10"
       d="M 18.836,6.461 19.297,2.91 C 19.355,2.391 19.234,2.391 18.816,2.391 H 9.695 c -0.343,0 -0.543,0 -0.543,0.359 0,0.262 0.141,0.262 0.543,0.262 1.16,0 1.16,0.16 1.16,0.34 0,0 0,0.16 -0.078,0.46 L 8.09,14.559 c -0.16,0.679 -0.281,0.839 -1.645,0.839 -0.32,0 -0.539,0 -0.539,0.383 0,0.239 0.219,0.239 0.282,0.239 0.8,0 1.64,-0.059 2.445,-0.059 0.922,0 1.863,0.059 2.765,0.059 0.18,0 0.422,0 0.422,-0.379 0,-0.243 -0.183,-0.243 -0.504,-0.243 h -0.199 c -1.465,0 -1.465,-0.16 -1.465,-0.418 0,-0.082 0,-0.121 0.082,-0.421 l 1.262,-5.051 h 1.664 c 1.305,0 1.485,0.301 1.485,0.84 0,0.34 -0.083,0.66 -0.161,0.984 -0.039,0.137 -0.062,0.219 -0.062,0.277 0,0.243 0.223,0.243 0.301,0.243 0.222,0 0.281,-0.02 0.382,-0.403 l 1.102,-4.41 c 0.02,-0.078 0.039,-0.18 0.039,-0.277 0,-0.223 -0.238,-0.223 -0.301,-0.223 -0.257,0 -0.277,0.059 -0.379,0.422 -0.359,1.422 -0.683,1.926 -2.343,1.926 h -1.567 l 1.285,-5.196 c 0.161,-0.66 0.301,-0.679 0.961,-0.679 h 2.344 c 2.145,0 2.586,0.621 2.586,2.004 0,0.48 -0.059,0.863 -0.117,1.324 l -0.02,0.32 c 0,0.242 0.219,0.242 0.301,0.242 0.277,0 0.297,-0.082 0.34,-0.441 z"
       style="fill:#000000;fill-opacity:1;fill-rule:nonzero;stroke:none"
       transform="scale(1.3333333)" />
    <path
       id="path11"
       d="m 18.391,20.031 h 3.636 v -0.195 h -0.211 c -0.636,0 -0.91,-0.133 -0.91,-0.418 0,-0.223 0.207,-0.809 0.235,-0.965 l 1.863,-6.762 c 0.051,-0.195 0.078,-0.312 0.078,-0.379 0,-0.05 -0.027,-0.089 -0.066,-0.089 l -2.243,0.441 c -0.023,0 -0.128,0.027 -0.273,0.055 v 0.195 l 0.746,-0.027 c 0.012,0 0.024,0 0.024,0 0.289,0 0.468,0.172 0.468,0.406 0,0.078 -0.023,0.207 -0.09,0.441 l -1.796,6.411 c -0.133,0.484 -0.434,0.613 -1.461,0.703 z"
       style="fill:#000000;fill-opacity:1;fill-rule:nonzero;stroke:none"
       transform="scale(1.3333333)" />
    <path
       id="path12"
       d="m 192.125,27.91 h 22.68"
       style="fill:none;stroke:#000000;stroke-width:2.55118;stroke-linecap:butt;stroke-linejoin:miter;stroke-miterlimit:3.9;stroke-dasharray:none;stroke-opacity:1"
       transform="scale(1.3333333)" />
    <path
       id="path13"
       d="m 214.805,27.91 -6.379,6.375 22.32,-6.375 -22.32,-6.379 z"
       style="fill:#000000;fill-opacity:1;fill-rule:evenodd;stroke:none"
       transform="scale(1.3333333)" />
    <path
       id="path14"
       d="m 210.961,6.461 0.461,-3.551 c 0.062,-0.519 -0.059,-0.519 -0.481,-0.519 h -9.121 c -0.34,0 -0.539,0 -0.539,0.359 0,0.262 0.137,0.262 0.539,0.262 1.164,0 1.164,0.16 1.164,0.34 0,0 0,0.16 -0.082,0.46 l -2.683,10.747 c -0.16,0.679 -0.281,0.839 -1.645,0.839 -0.32,0 -0.543,0 -0.543,0.383 0,0.239 0.223,0.239 0.281,0.239 0.801,0 1.645,-0.059 2.446,-0.059 0.922,0 1.863,0.059 2.765,0.059 0.18,0 0.422,0 0.422,-0.379 0,-0.243 -0.179,-0.243 -0.5,-0.243 h -0.203 c -1.461,0 -1.461,-0.16 -1.461,-0.418 0,-0.082 0,-0.121 0.078,-0.421 l 1.266,-5.051 h 1.664 c 1.301,0 1.481,0.301 1.481,0.84 0,0.34 -0.079,0.66 -0.161,0.984 -0.039,0.137 -0.058,0.219 -0.058,0.277 0,0.243 0.219,0.243 0.301,0.243 0.218,0 0.281,-0.02 0.378,-0.403 l 1.106,-4.41 c 0.019,-0.078 0.039,-0.18 0.039,-0.277 0,-0.223 -0.242,-0.223 -0.301,-0.223 -0.262,0 -0.281,0.059 -0.383,0.422 -0.359,1.422 -0.679,1.926 -2.343,1.926 h -1.563 l 1.281,-5.196 c 0.161,-0.66 0.301,-0.679 0.961,-0.679 h 2.348 c 2.145,0 2.586,0.621 2.586,2.004 0,0.48 -0.059,0.863 -0.121,1.324 l -0.02,0.32 c 0,0.242 0.223,0.242 0.301,0.242 0.281,0 0.301,-0.082 0.34,-0.441 z"
       style="fill:#000000;fill-opacity:1;fill-rule:nonzero;stroke:none"
       transform="scale(1.3333333)" />
    <path
       id="path15"
       d="m 210.922,13.309 0.273,0.089 c 0.481,-0.847 1.043,-1.226 1.825,-1.226 0.925,0 1.628,0.68 1.628,1.59 0,0.625 -0.339,1.5 -1.875,3.129 l -2.738,2.918 v 0.222 h 4.625 l 0.652,-1.722 -0.222,-0.09 c -0.313,0.652 -0.586,0.82 -1.289,0.82 h -2.477 v -0.062 l 2.504,-2.504 c 1.524,-1.524 1.942,-2.176 1.942,-3.035 0,-1.25 -0.926,-2.215 -2.114,-2.215 -1.027,0 -2.082,0.468 -2.734,2.086 z"
       style="fill:#000000;fill-opacity:1;fill-rule:nonzero;stroke:none"
       transform="scale(1.3333333)" />
    <path
       id="path16"
       d="M 45.73,-44.43 V -72.888"
       style="fill:none;stroke:#00ce99;stroke-width:5.73558;stroke-linecap:butt;stroke-linejoin:miter;stroke-miterlimit:4;stroke-dasharray:none;stroke-opacity:1"
       transform="matrix(0,1.3333333,-1.03826,0,0,0)" />
    <path
       id="path17"
       d="m -66.006,-45.73 5.739,-5.735 -20.076,5.735 20.076,5.734 z"
       style="fill:#00ce99;fill-opacity:1;fill-rule:evenodd;stroke:#00ce99;stroke-width:1.52949;stroke-linecap:butt;stroke-linejoin:miter;stroke-miterlimit:4;stroke-dasharray:none;stroke-opacity:1"
       transform="scale(-1.03826,-1.3333333)" />
    <path
       id="path18"
       d="m 52.777,-57.834 -7.183,-25.198 -6.996,24.912 4.312,-4.023 v 17.532 h 5.746 v -17.246 z"
       style="fill:#00b7d3;fill-opacity:1;fill-rule:nonzero;stroke:#000000;stroke-width:0.758769;stroke-linecap:butt;stroke-linejoin:miter;stroke-miterlimit:4;stroke-dasharray:none;stroke-opacity:1"
       transform="matrix(0,1.3333333,-1.03826,0,0,0)" />
    <path
       id="path19"
       d="m 45.73,-221.81 v -28.453"
       style="fill:none;stroke:#00ce99;stroke-width:5.73558;stroke-linecap:butt;stroke-linejoin:miter;stroke-miterlimit:4;stroke-dasharray:none;stroke-opacity:1"
       transform="matrix(0,1.3333333,-1.03826,0,0,0)" />
    <path
       id="path20"
       d="m -243.381,-45.73 5.734,-5.735 -20.071,5.735 20.071,5.734 z"
       style="fill:#00ce99;fill-opacity:1;fill-rule:evenodd;stroke:#00ce99;stroke-width:1.52949;stroke-linecap:butt;stroke-linejoin:miter;stroke-miterlimit:4;stroke-dasharray:none;stroke-opacity:1"
       transform="scale(-1.03826,-1.3333333)" />
    <path
       id="path21"
       d="m 52.777,-235.209 -7.183,-25.198 -6.996,24.912 4.312,-4.023 v 17.532 h 5.746 v -17.246 z"
       style="fill:#00b7d3;fill-opacity:1;fill-rule:nonzero;stroke:#000000;stroke-width:0.758769;stroke-linecap:butt;stroke-linejoin:miter;stroke-miterlimit:4;stroke-dasharray:none;stroke-opacity:1"
       transform="matrix(0,1.3333333,-1.03826,0,0,0)" />
    <path
       id="path22"
       d="m 49.883,64.504 c 0,-0.199 -0.16,-0.199 -0.301,-0.199 -0.238,0 -0.258,0.019 -0.379,0.461 -0.281,1.121 -0.664,2.382 -1.344,2.382 -0.523,0 -0.523,-0.539 -0.523,-0.82 0,-0.14 0,-0.461 0.141,-1.023 l 1.445,-5.774 c 0.039,-0.121 0.058,-0.219 0.058,-0.281 0,-0.219 -0.16,-0.52 -0.558,-0.52 -0.602,0 -0.742,0.582 -0.785,0.743 l -1.461,5.851 c -0.102,0.364 -0.102,0.403 -0.281,0.664 -0.383,0.559 -0.961,1.16 -1.844,1.16 -0.903,0 -1.082,-0.882 -1.082,-1.543 0,-1.222 0.66,-3.027 1.16,-4.39 0.16,-0.418 0.262,-0.699 0.262,-1.082 0,-1 -0.661,-1.625 -1.524,-1.625 -1.863,0 -2.566,2.969 -2.566,3.09 0,0.199 0.199,0.199 0.301,0.199 0.261,0 0.281,-0.039 0.363,-0.32 0.16,-0.622 0.699,-2.528 1.863,-2.528 0.219,0 0.442,0.063 0.442,0.582 0,0.481 -0.204,1.024 -0.481,1.805 -0.523,1.402 -1.043,2.887 -1.043,3.93 0,1.742 1.16,2.324 2.242,2.324 1.063,0 1.746,-0.602 2.227,-1.203 0.359,1.082 1.223,1.203 1.605,1.203 0.739,0 1.16,-0.5 1.461,-1.121 0.364,-0.762 0.602,-1.965 0.602,-1.965 z"
       style="fill:#000000;fill-opacity:1;fill-rule:nonzero;stroke:none"
       transform="scale(1.3333333)" />
    <path
       id="path23"
       d="m 50.039,71.379 h 3.637 v -0.195 h -0.207 c -0.641,0 -0.914,-0.129 -0.914,-0.418 0,-0.219 0.211,-0.809 0.234,-0.965 l 1.863,-6.762 c 0.055,-0.195 0.078,-0.312 0.078,-0.379 0,-0.051 -0.023,-0.09 -0.062,-0.09 l -2.242,0.446 c -0.028,0 -0.129,0.023 -0.274,0.05 v 0.196 l 0.743,-0.028 c 0.015,0 0.027,0 0.027,0 0.285,0 0.469,0.172 0.469,0.407 0,0.078 -0.028,0.207 -0.094,0.441 l -1.797,6.41 c -0.129,0.485 -0.43,0.613 -1.461,0.703 z"
       style="fill:#000000;fill-opacity:1;fill-rule:nonzero;stroke:none"
       transform="scale(1.3333333)" />
    <path
       id="path24"
       d="m 185.598,64.504 c 0,-0.199 -0.16,-0.199 -0.301,-0.199 -0.238,0 -0.262,0.019 -0.379,0.461 -0.281,1.121 -0.664,2.382 -1.344,2.382 -0.523,0 -0.523,-0.539 -0.523,-0.82 0,-0.14 0,-0.461 0.14,-1.023 l 1.446,-5.774 c 0.039,-0.121 0.058,-0.219 0.058,-0.281 0,-0.219 -0.16,-0.52 -0.562,-0.52 -0.598,0 -0.738,0.582 -0.781,0.743 l -1.461,5.851 c -0.102,0.364 -0.102,0.403 -0.282,0.664 -0.382,0.559 -0.961,1.16 -1.843,1.16 -0.903,0 -1.082,-0.882 -1.082,-1.543 0,-1.222 0.66,-3.027 1.16,-4.39 0.16,-0.418 0.261,-0.699 0.261,-1.082 0,-1 -0.66,-1.625 -1.523,-1.625 -1.863,0 -2.566,2.969 -2.566,3.09 0,0.199 0.199,0.199 0.3,0.199 0.262,0 0.282,-0.039 0.36,-0.32 0.164,-0.622 0.703,-2.528 1.867,-2.528 0.219,0 0.441,0.063 0.441,0.582 0,0.481 -0.203,1.024 -0.484,1.805 -0.52,1.402 -1.039,2.887 -1.039,3.93 0,1.742 1.16,2.324 2.242,2.324 1.063,0 1.746,-0.602 2.227,-1.203 0.359,1.082 1.222,1.203 1.605,1.203 0.738,0 1.16,-0.5 1.461,-1.121 0.363,-0.762 0.602,-1.965 0.602,-1.965 z"
       style="fill:#000000;fill-opacity:1;fill-rule:nonzero;stroke:none"
       transform="scale(1.3333333)" />
    <path
       id="path25"
       d="m 186.16,64.656 0.274,0.09 c 0.48,-0.848 1.043,-1.223 1.824,-1.223 0.926,0 1.629,0.676 1.629,1.59 0,0.625 -0.34,1.496 -1.879,3.125 l -2.735,2.918 v 0.223 h 4.625 l 0.653,-1.719 -0.223,-0.094 c -0.312,0.653 -0.586,0.825 -1.289,0.825 h -2.477 v -0.067 l 2.504,-2.504 c 1.524,-1.523 1.942,-2.175 1.942,-3.035 0,-1.25 -0.926,-2.215 -2.113,-2.215 -1.028,0 -2.083,0.469 -2.735,2.086 z"
       style="fill:#000000;fill-opacity:1;fill-rule:nonzero;stroke:none"
       transform="scale(1.3333333)" />
    <path
       id="path26"
       d="M 55.902,17.598 H 83.133"
       style="fill:none;stroke:#810000;stroke-width:0.957954;stroke-linecap:butt;stroke-linejoin:miter;stroke-miterlimit:4;stroke-dasharray:none;stroke-opacity:1"
       transform="scale(1.3333333)" />
    <path
       id="path27"
       d="m -79.301,-17.598 1.914,-1.918 -6.703,1.918 6.703,1.914 z"
       style="fill:#810000;fill-opacity:1;fill-rule:evenodd;stroke:#810000;stroke-width:0.510909;stroke-linecap:butt;stroke-linejoin:miter;stroke-miterlimit:4;stroke-dasharray:none;stroke-opacity:1"
       transform="scale(-1.3333333)" />
    <path
       id="path28"
       d="m 86.254,17.598 h 27.23"
       style="fill:none;stroke:#810000;stroke-width:0.957954;stroke-linecap:butt;stroke-linejoin:miter;stroke-miterlimit:4;stroke-dasharray:none;stroke-opacity:1"
       transform="scale(1.3333333)" />
    <path
       id="path29"
       d="m -109.652,-17.598 1.914,-1.918 -6.707,1.918 6.707,1.914 z"
       style="fill:#810000;fill-opacity:1;fill-rule:evenodd;stroke:#810000;stroke-width:0.510909;stroke-linecap:butt;stroke-linejoin:miter;stroke-miterlimit:4;stroke-dasharray:none;stroke-opacity:1"
       transform="scale(-1.3333333)" />
    <path
       id="path30"
       d="M 116.609,17.598 H 143.84"
       style="fill:none;stroke:#810000;stroke-width:0.957954;stroke-linecap:butt;stroke-linejoin:miter;stroke-miterlimit:4;stroke-dasharray:none;stroke-opacity:1"
       transform="scale(1.3333333)" />
    <path
       id="path31"
       d="m -140.008,-17.598 1.918,-1.918 -6.707,1.918 6.707,1.914 z"
       style="fill:#810000;fill-opacity:1;fill-rule:evenodd;stroke:#810000;stroke-width:0.510909;stroke-linecap:butt;stroke-linejoin:miter;stroke-miterlimit:4;stroke-dasharray:none;stroke-opacity:1"
       transform="scale(-1.3333333)" />
    <path
       id="path32"
       d="m 146.898,17.598 h 27.231"
       style="fill:none;stroke:#810000;stroke-width:0.957954;stroke-linecap:butt;stroke-linejoin:miter;stroke-miterlimit:4;stroke-dasharray:none;stroke-opacity:1"
       transform="scale(1.3333333)" />
    <path
       id="path33"
       d="m -170.297,-17.598 1.918,-1.918 -6.707,1.918 6.707,1.914 z"
       style="fill:#810000;fill-opacity:1;fill-rule:evenodd;stroke:#810000;stroke-width:0.510909;stroke-linecap:butt;stroke-linejoin:miter;stroke-miterlimit:4;stroke-dasharray:none;stroke-opacity:1"
       transform="scale(-1.3333333)" />
    <path
       id="path34"
       d="m 119.145,12.367 c 0,-0.238 -0.2,-0.238 -0.481,-0.238 -1.023,0 -1.023,-0.121 -1.023,-0.32 0,-0.141 0.039,-0.243 0.058,-0.364 L 120.449,0.5 c 0.02,-0.059 0.059,-0.258 0.059,-0.258 0,-0.183 -0.16,-0.222 -0.223,-0.222 -0.219,0 -0.941,0.703 -1.262,1.261 C 118.785,0.703 118.262,0 117.301,0 c -2.227,0 -4.59,3.047 -4.59,5.973 0,1.703 0.922,3.109 2.426,3.109 0.82,0 1.562,-0.523 2.125,-1.062 -0.403,1.562 -0.383,1.562 -0.785,3.144 -0.219,0.863 -0.239,0.945 -1.524,0.965 -0.258,0 -0.48,0 -0.48,0.379 0,0.18 0.121,0.242 0.261,0.242 0.641,0 1.344,-0.062 2.004,-0.062 0.66,0 1.383,0.062 2.024,0.062 0.121,0 0.383,0 0.383,-0.383 z M 117.66,6.414 c -0.16,0.621 -1.383,2.227 -2.484,2.227 -0.942,0 -1.102,-1.184 -1.102,-1.786 0,-1.003 0.621,-3.347 0.981,-4.187 0.5,-1.227 1.422,-2.227 2.246,-2.227 0.16,0 0.621,0.02 0.98,0.582 0.203,0.321 0.403,0.903 0.403,1.282 0,0.062 -0.02,0.14 -0.059,0.261 z"
       style="fill:#000000;fill-opacity:1;fill-rule:nonzero;stroke:none"
       transform="scale(1.3333333)" />
  </g>
</svg>
