<?xml version="1.0" encoding="UTF-8" standalone="no"?>
<!-- Created with Inkscape (http://www.inkscape.org/) -->

<svg
   version="1.1"
   id="svg1"
   width="269.19876"
   height="195.49493"
   viewBox="0 0 269.19876 195.49493"
   sodipodi:docname="shape_functions.svg"
   inkscape:version="1.3.2 (091e20e, 2023-11-25, custom)"
   xmlns:inkscape="http://www.inkscape.org/namespaces/inkscape"
   xmlns:sodipodi="http://sodipodi.sourceforge.net/DTD/sodipodi-0.dtd"
   xmlns="http://www.w3.org/2000/svg"
   xmlns:svg="http://www.w3.org/2000/svg">
  <defs
     id="defs1">
    <clipPath
       clipPathUnits="userSpaceOnUse"
       id="clipPath11">
      <path
         d="M -15.16336,-10.43784 H 166.7878 V 114.80998 H -15.16336 Z"
         id="path11" />
    </clipPath>
    <clipPath
       clipPathUnits="userSpaceOnUse"
       id="clipPath13">
      <path
         d="M -15.16336,-10.43784 H 166.7878 V 114.80998 H -15.16336 Z"
         id="path13" />
    </clipPath>
    <clipPath
       clipPathUnits="userSpaceOnUse"
       id="clipPath15">
      <path
         d="M -15.16336,-10.43784 H 166.7878 V 114.80998 H -15.16336 Z"
         id="path15" />
    </clipPath>
    <clipPath
       clipPathUnits="userSpaceOnUse"
       id="clipPath17">
      <path
         d="M -15.16336,-10.43784 H 166.7878 V 114.80998 H -15.16336 Z"
         id="path17" />
    </clipPath>
  </defs>
  <sodipodi:namedview
     id="namedview1"
     pagecolor="#ffffff"
     bordercolor="#000000"
     borderopacity="0.25"
     inkscape:showpageshadow="2"
     inkscape:pageopacity="0.0"
     inkscape:pagecheckerboard="0"
     inkscape:deskcolor="#d1d1d1"
     inkscape:zoom="3.3126241"
     inkscape:cx="132.52334"
     inkscape:cy="99.769848"
     inkscape:window-width="1920"
     inkscape:window-height="1001"
     inkscape:window-x="-9"
     inkscape:window-y="-9"
     inkscape:window-maximized="1"
     inkscape:current-layer="g1">
    <inkscape:page
       x="0"
       y="0"
       inkscape:label="1"
       id="page1"
       width="269.19876"
       height="195.49493"
       margin="0"
       bleed="0" />
  </sodipodi:namedview>
  <g
     id="g1"
     inkscape:groupmode="layer"
     inkscape:label="1"
     transform="translate(-23.167969,-18.895693)">
    <path
       id="path1"
       d="M 0,-10.43784 V 114.80998 M 151.63972,-10.43784 v 125.24782"
       style="fill:none;stroke:#bfbfbf;stroke-width:0.3985;stroke-linecap:butt;stroke-linejoin:miter;stroke-miterlimit:10;stroke-dasharray:none;stroke-opacity:1"
       transform="matrix(1.3333333,0,0,-1.3333333,69.717333,172.24133)" />
    <path
       id="path2"
       d="M -15.16336,0 H 166.7878 M -15.16336,90.90479 H 166.7878"
       style="fill:none;stroke:#bfbfbf;stroke-width:0.3985;stroke-linecap:butt;stroke-linejoin:miter;stroke-miterlimit:10;stroke-dasharray:none;stroke-opacity:1"
       transform="matrix(1.3333333,0,0,-1.3333333,69.717333,172.24133)" />
    <path
       id="path3"
       d="m 0,-10.43784 v 4.25168 m 151.63972,-4.25168 v 4.25168 M 0,114.80998 v -4.25169 m 151.63972,4.25169 v -4.25169"
       style="fill:none;stroke:#808080;stroke-width:0.19925;stroke-linecap:butt;stroke-linejoin:miter;stroke-miterlimit:10;stroke-dasharray:none;stroke-opacity:1"
       transform="matrix(1.3333333,0,0,-1.3333333,69.717333,172.24133)" />
    <path
       id="path4"
       d="m -15.16336,0 h 4.25212 m -4.25212,90.90479 h 4.25212 M 166.7878,0 h -4.2521 m 4.2521,90.90479 h -4.2521"
       style="fill:none;stroke:#808080;stroke-width:0.19925;stroke-linecap:butt;stroke-linejoin:miter;stroke-miterlimit:10;stroke-dasharray:none;stroke-opacity:1"
       transform="matrix(1.3333333,0,0,-1.3333333,69.717333,172.24133)" />
    <path
       id="path5"
       d="M -15.16336,-10.43784 V 114.80998 H 166.7878 V -10.43784 Z"
       style="fill:none;stroke:#000000;stroke-width:0.3985;stroke-linecap:butt;stroke-linejoin:miter;stroke-miterlimit:10;stroke-dasharray:none;stroke-opacity:1"
       transform="matrix(1.3333333,0,0,-1.3333333,69.717333,172.24133)" />
    <path
       id="path6"
       d="m 4.5809297,-3.1888828 c 0,-0.796875 -0.046875,-1.59375 -0.3984375,-2.3320313 -0.4570313,-0.9609375 -1.2773438,-1.1132812 -1.6875,-1.1132812 -0.5976563,0 -1.3359375,0.2578125 -1.73437501,1.1835937 -0.328125,0.6914063 -0.375,1.4648438 -0.375,2.2617188 0,0.75 0.046875,1.640625 0.4453125,2.40234374 0.43359371,0.80859375 1.16015621,1.0078125 1.65234371,1.0078125 0.5390625,0 1.2890625,-0.2109375 1.734375,-1.16015625 C 4.5340547,-1.6302891 4.5809297,-2.4037266 4.5809297,-3.1888828 Z m -2.0976563,3.18749999 c -0.3867187,0 -0.984375,-0.24609375 -1.1601562,-1.20703129 -0.1054688,-0.5976562 -0.1054688,-1.5117187 -0.1054688,-2.0976562 0,-0.6445313 0,-1.3007813 0.082031,-1.8398438 0.1875,-1.1835937 0.9257812,-1.265625 1.1835937,-1.265625 0.328125,0 0.984375,0.1757813 1.171875,1.1601563 0.09375,0.5625 0.09375,1.3125 0.09375,1.9453125 0,0.75 0,1.4179687 -0.1054687,2.0625 -0.1523438,0.93749999 -0.7148438,1.24218749 -1.160156,1.24218749 z m 0,0"
       style="fill:#000000;fill-opacity:1;fill-rule:nonzero;stroke:none"
       aria-label="0"
       transform="matrix(1.3333333,0,0,1.3333333,66.396,199.412)" />
    <path
       id="path7"
       d="m 2.9282812,-6.3763828 c 0,-0.234375 0,-0.2578125 -0.234375,-0.2578125 -0.609375,0.6328125 -1.4882812,0.6328125 -1.80468745,0.6328125 v 0.3164062 c 0.19921875,0 0.78515625,0 1.30078125,-0.2578125 v 5.15625004 c 0,0.3515625 -0.035156,0.48046875 -0.9257813,0.48046875 H 0.9478125 v 0.3046875 c 0.3515625,-0.03515625 1.2070312,-0.03515625 1.6054687,-0.03515625 0.3984375,0 1.265625,0 1.6171875,0.03515625 v -0.3046875 H 3.8540625 c -0.9023438,0 -0.9257813,-0.1171875 -0.9257813,-0.48046875 z m 0,0"
       style="fill:#000000;fill-opacity:1;fill-rule:nonzero;stroke:none"
       aria-label="1"
       transform="matrix(1.3333333,0,0,1.3333333,268.58,199.412)" />
    <path
       id="path8"
       d="m 2.9287344,-6.3763516 c 0,-0.234375 0,-0.2578125 -0.234375,-0.2578125 -0.609375,0.6328125 -1.4882813,0.6328125 -1.80468753,0.6328125 v 0.3164063 c 0.19921873,0 0.78515623,0 1.30078123,-0.2578125 v 5.15624999 c 0,0.3515625 -0.035156,0.48046875 -0.9257812,0.48046875 H 0.94826562 v 0.3046875 C 1.2998281,-0.03650781 2.1552969,-0.03650781 2.5537344,-0.03650781 c 0.3984375,0 1.265625,0 1.6171875,0.03515625 v -0.3046875 H 3.8545156 c -0.9023437,0 -0.9257812,-0.1171875 -0.9257812,-0.48046875 z m 0,0"
       style="fill:#000000;fill-opacity:1;fill-rule:nonzero;stroke:none"
       aria-label="1"
       transform="matrix(1.3333333,0,0,1.3333333,38.165333,176.52133)" />
    <path
       id="path9"
       d="m 4.5810781,-3.1871953 c 0,-0.796875 -0.046875,-1.59375 -0.3984375,-2.3320313 -0.4570312,-0.9609375 -1.2773437,-1.1132812 -1.6875,-1.1132812 -0.5976562,0 -1.3359375,0.2578125 -1.73437498,1.1835937 -0.328125,0.6914063 -0.375,1.4648438 -0.375,2.2617188 0,0.75 0.046875,1.640625 0.4453125,2.40234374 0.43359378,0.80859375 1.16015628,1.0078125 1.65234378,1.0078125 0.5390625,0 1.2890625,-0.2109375 1.734375,-1.16015625 C 4.5342031,-1.6286016 4.5810781,-2.4020391 4.5810781,-3.1871953 Z M 2.4834219,3.046875e-4 c -0.3867188,0 -0.984375,-0.2460937475 -1.1601563,-1.2070312875 -0.1054687,-0.5976562 -0.1054687,-1.5117187 -0.1054687,-2.0976562 0,-0.6445313 0,-1.3007813 0.082031,-1.8398438 0.1875,-1.1835937 0.9257813,-1.265625 1.1835938,-1.265625 0.328125,0 0.984375,0.1757813 1.171875,1.1601563 0.09375,0.5625 0.09375,1.3125 0.09375,1.9453125 0,0.75 0,1.4179687 -0.1054688,2.0625 C 3.4912344,-0.30438281 2.9287344,3.046875e-4 2.4834219,3.046875e-4 Z m 0,0"
       style="fill:#000000;fill-opacity:1;fill-rule:nonzero;stroke:none"
       aria-label="0"
       transform="matrix(1.3333333,0,0,1.3333333,38.165333,55.316)" />
    <path
       id="path10"
       d="m 0,0 c 0,0 1.10655,0.01239 1.53154,0.02762 0.42499,0.01521 1.10655,0.05195 1.53156,0.08215 0.425,0.03018 1.10656,0.09065 1.53157,0.13552 0.425,0.04486 1.10655,0.12863 1.53155,0.18781 0.425,0.05921 1.10657,0.1657 1.53157,0.23894 0.42501,0.07325 1.10657,0.202 1.53157,0.28897 0.425,0.08698 1.10655,0.23751 1.53156,0.33788 0.425,0.10039 1.10656,0.27215 1.53157,0.38563 0.425,0.11348 1.10655,0.30602 1.53155,0.43228 0.42501,0.12627 1.10657,0.33907 1.53157,0.47782 0.42499,0.13875 1.10657,0.37131 1.53154,0.52222 0.42499,0.15091 1.10655,0.40272 1.53156,0.56547 0.425,0.16275 1.10657,0.43334 1.53157,0.60764 0.425,0.1743 1.10655,0.46313 1.53155,0.64866 0.42501,0.18554 1.10657,0.4921 1.53157,0.68856 0.425,0.19645 1.10657,0.52031 1.53156,0.72735 0.42499,0.20705 1.10655,0.54767 1.53155,0.76502 0.42501,0.21734 1.10657,0.5742 1.53157,0.80154 0.42501,0.22732 1.10656,0.59995 1.53156,0.83695 0.425,0.237 1.10656,0.62489 1.53157,0.87124 0.42499,0.24637 1.10657,0.64897 1.53154,0.90439 0.42499,0.2554 1.10655,0.67229 1.53155,0.93642 0.42501,0.26414 1.10657,0.69478 1.53158,0.96733 0.425,0.27257 1.10655,0.71647 1.53155,0.99715 0.425,0.28067 1.10657,0.73733 1.53157,1.0258 0.425,0.28847 1.10657,0.75737 1.53156,1.05333 0.42498,0.29596 1.10655,0.77665 1.53155,1.07979 0.425,0.30311 1.10657,0.79504 1.53157,1.10502 0.42501,0.30998 1.10655,0.81267 1.53156,1.12921 0.425,0.31656 1.10656,0.8295 1.53157,1.15229 0.42499,0.32278 1.10657,0.84545 1.53154,1.17417 0.42499,0.32871 1.10655,0.86066 1.53155,1.195 0.425,0.33433 1.10657,0.87506 1.53157,1.21467 0.42501,0.33963 1.10656,0.88858 1.53156,1.23319 0.425,0.34462 1.10657,0.90133 1.53157,1.25062 0.425,0.34931 1.10655,0.91327 1.53155,1.26695 0.42501,0.35367 1.10657,0.9244 1.53157,1.28213 0.42501,0.35771 1.10657,0.93469 1.53156,1.29615 0.42499,0.36148 1.10655,0.9442 1.53155,1.30912 0.42501,0.3649 1.10657,0.95288 1.53157,1.3209 0.42501,0.36803 1.10656,0.96076 1.53156,1.33159 0.42499,0.37084 1.10657,0.96782 1.53156,1.34116 0.425,0.37332 1.10656,0.97407 1.53155,1.34959 0.42499,0.37552 1.10655,0.97949 1.53156,1.35689 0.425,0.37738 1.10657,0.98415 1.53157,1.36308 0.425,0.37894 1.10655,0.98793 1.53155,1.36814 0.425,0.3802 1.10657,0.99098 1.53157,1.37211 0.42501,0.38114 1.10657,0.99314 1.53156,1.37488 0.42499,0.38176 1.10655,0.99451 1.53155,1.37657 0.42501,0.38207 1.10657,0.99512 1.53157,1.3772 0.425,0.38206 1.10656,0.99479 1.53156,1.37657 0.42499,0.38176 1.10657,0.99379 1.53155,1.37494 0.42501,0.38113 1.10657,0.9919 1.53156,1.3721 0.42499,0.3802 1.10655,0.98928 1.53155,1.36823 0.42501,0.37895 1.10657,0.9857 1.53158,1.36311 0.425,0.3774 1.10655,0.98141 1.53155,1.35696 0.425,0.37554 1.10657,0.97634 1.53157,1.34969 0.425,0.37335 1.10655,0.97035 1.53155,1.3412 0.42501,0.37087 1.10657,0.96364 1.53158,1.33169 0.425,0.36806 1.10656,0.95612 1.53155,1.32107 0.42499,0.36493 1.10655,0.94769 1.53156,1.30919 0.42498,0.36151 1.10656,0.93854 1.53155,1.29631 0.425,0.35775 1.10655,0.92854 1.53156,1.28225 0.425,0.3537 1.10656,0.91776 1.53157,1.26709 0.425,0.34935 1.10656,0.90612 1.53155,1.25079 0.42499,0.34469 1.10655,0.89373 1.53156,1.23342 0.425,0.33969 1.10656,0.88045 1.53157,1.21483 0.425,0.33438 1.10655,0.86644 1.53155,1.19522 0.42501,0.32877 1.10657,0.85152 1.53157,1.17436 0.42501,0.32285 1.10657,0.83591 1.53156,1.15253 0.42499,0.3166 1.10655,0.81937 1.53155,1.12942 0.42501,0.31006 1.10657,0.8021 1.53157,1.10529 0.42499,0.30321 1.10654,0.78403 1.53154,1.08006 0.42501,0.29602 1.10657,0.76503 1.53157,1.05357 0.42501,0.28855 1.10657,0.74535 1.53156,1.02611 0.42499,0.28075 1.10655,0.72475 1.53155,0.99739 0.42501,0.27266 1.10657,0.70343 1.53157,0.96766 0.42501,0.26423 1.10656,0.68129 1.53156,0.93678 0.425,0.25548 1.10657,0.65825 1.53157,0.90468 0.425,0.24644 1.10656,0.63449 1.53156,0.87158 0.425,0.23709 1.10656,0.60985 1.53157,0.83728 0.425,0.22743 1.10656,0.58449 1.53155,0.80192 0.42498,0.21746 1.10655,0.5582 1.53154,0.76536 0.425,0.20715 1.10657,0.5312 1.53157,0.72776 0.425,0.19657 1.10655,0.50328 1.53156,0.68894 0.425,0.18565 1.10656,0.47465 1.53157,0.64908 0.425,0.17442 1.10656,0.4452 1.53155,0.60807 0.42499,0.16288 1.10655,0.41486 1.53156,0.56588 0.425,0.15101 1.10656,0.38379 1.53157,0.52266 0.425,0.13887 1.10655,0.35185 1.53156,0.47824 0.425,0.12638 1.10656,0.31913 1.53156,0.43274 0.42501,0.11361 1.10657,0.28561 1.53156,0.38613 0.42497,0.10051 1.10655,0.25124 1.53154,0.33834 0.425,0.0871 1.10657,0.21606 1.53157,0.28944 0.425,0.07338 1.10655,0.18012 1.53155,0.23946 0.42501,0.05935 1.10657,0.14332 1.53157,0.18832 0.42501,0.045 1.10657,0.10573 1.53156,0.13608 0.42499,0.03035 1.10655,0.0673 1.53155,0.08269 0.42501,0.01538 1.53158,0.0282 1.53158,0.0282"
       style="fill:none;stroke:#017188;stroke-width:0.79701;stroke-linecap:butt;stroke-linejoin:miter;stroke-miterlimit:10;stroke-dasharray:none;stroke-opacity:1"
       transform="matrix(1.3333333,0,0,-1.3333333,69.717333,172.24133)"
       clip-path="url(#clipPath11)" />
    <path
       id="path12"
       d="m 0,90.90479 c 0,0 1.10655,0.65509 1.53154,0.89967 0.42499,0.2446 1.10655,0.62863 1.53156,0.86314 0.425,0.23453 1.10656,0.60259 1.53157,0.82721 0.425,0.22463 1.10655,0.57691 1.53155,0.79178 0.425,0.21486 1.10657,0.55162 1.53157,0.75691 0.42501,0.2053 1.10657,0.52681 1.53157,0.72266 0.425,0.19584 1.10655,0.50235 1.53156,0.68894 0.425,0.18656 1.10656,0.47831 1.53157,0.65577 0.425,0.17744 1.10655,0.45471 1.53155,0.62317 0.42501,0.16847 1.10657,0.43147 1.53157,0.59112 0.42499,0.15967 1.10657,0.40867 1.53154,0.55968 0.42499,0.15102 1.10655,0.38626 1.53156,0.52876 0.425,0.1425 1.10657,0.36425 1.53157,0.4984 0.425,0.13416 1.10655,0.34264 1.53155,0.46862 0.42501,0.12597 1.10657,0.32144 1.53157,0.43938 0.425,0.11797 1.10657,0.30068 1.53156,0.41074 0.42499,0.11006 1.10655,0.28026 1.53155,0.38262 0.42501,0.10235 1.10657,0.2603 1.53157,0.35508 0.42501,0.0948 1.10656,0.24074 1.53156,0.32813 0.425,0.0874 1.10656,0.22156 1.53157,0.30168 0.42499,0.0801 1.10657,0.20281 1.53154,0.27583 0.42499,0.073 1.10655,0.18447 1.53155,0.25055 0.42501,0.0661 1.10657,0.16654 1.53158,0.22585 0.425,0.0593 1.10655,0.14896 1.53155,0.20163 0.425,0.0527 1.10657,0.13185 1.53157,0.17805 0.425,0.0462 1.10657,0.11513 1.53156,0.15502 0.42498,0.0399 1.10655,0.0988 1.53155,0.1325 0.425,0.0337 1.10657,0.0829 1.53157,0.1106 0.42501,0.0277 1.10655,0.0674 1.53156,0.0892 0.425,0.0219 1.10656,0.0523 1.53157,0.0684 0.42499,0.0162 1.10657,0.0376 1.53154,0.0482 0.42499,0.0106 1.10655,0.0233 1.53155,0.0285 0.425,0.005 1.10657,0.009 1.53157,0.009 0.42501,3e-5 1.10656,-0.004 1.53156,-0.009 0.425,-0.005 1.10657,-0.0172 1.53157,-0.0271 0.425,-0.01 1.10655,-0.0298 1.53155,-0.0445 0.42501,-0.0147 1.10657,-0.0421 1.53157,-0.0614 0.42501,-0.0193 1.10657,-0.0539 1.53156,-0.0777 0.42499,-0.0237 1.10655,-0.0654 1.53155,-0.0934 0.42501,-0.028 1.10657,-0.0764 1.53157,-0.1086 0.42501,-0.0322 1.10656,-0.0871 1.53156,-0.12321 0.42499,-0.0361 1.10657,-0.0973 1.53156,-0.13727 0.425,-0.04 1.10656,-0.10716 1.53155,-0.15079 0.42499,-0.0436 1.10655,-0.11656 1.53156,-0.16368 0.425,-0.0471 1.10657,-0.12558 1.53157,-0.17606 0.425,-0.0505 1.10655,-0.13418 1.53155,-0.18786 0.425,-0.0537 1.10657,-0.14238 1.53157,-0.19911 0.42501,-0.0568 1.10657,-0.15019 1.53156,-0.20979 0.42499,-0.0596 1.10655,-0.15755 1.53155,-0.2199 0.42501,-0.0623 1.10657,-0.16457 1.53157,-0.22948 0.425,-0.0649 1.10656,-0.17112 1.53156,-0.23846 0.42499,-0.0673 1.10657,-0.17729 1.53155,-0.24689 0.42501,-0.0696 1.10657,-0.18304 1.53156,-0.25476 0.42499,-0.0717 1.10655,-0.18843 1.53155,-0.26209 0.42501,-0.0737 1.10657,-0.19334 1.53158,-0.26879 0.425,-0.0754 1.10655,-0.19793 1.53155,-0.27501 0.425,-0.0771 1.10657,-0.20208 1.53157,-0.28064 0.425,-0.0786 1.10655,-0.20578 1.53155,-0.28569 0.42501,-0.0799 1.10657,-0.20911 1.53158,-0.29019 0.425,-0.08107 1.10656,-0.21207 1.53155,-0.29415 0.42499,-0.08206 1.10655,-0.21455 1.53156,-0.2975 0.42498,-0.08293 1.10656,-0.21666 1.53155,-0.30029 0.425,-0.08365 1.10655,-0.21837 1.53156,-0.30256 0.425,-0.08418 1.10656,-0.21967 1.53157,-0.30427 0.425,-0.08458 1.10656,-0.22056 1.53155,-0.30537 0.42499,-0.08481 1.10655,-0.22106 1.53156,-0.30596 0.425,-0.0849 1.10656,-0.22116 1.53157,-0.30597 0.425,-0.0848 1.10655,-0.22081 1.53155,-0.30539 0.42501,-0.08458 1.10657,-0.22007 1.53157,-0.30427 0.42501,-0.08418 1.10657,-0.21893 1.53156,-0.30258 0.42499,-0.08367 1.10655,-0.21741 1.53155,-0.30037 0.42501,-0.08296 1.10657,-0.21546 1.53157,-0.29755 0.42499,-0.08209 1.10654,-0.21307 1.53154,-0.29416 0.42501,-0.08108 1.10657,-0.21034 1.53157,-0.29027 0.42501,-0.07991 1.10657,-0.20716 1.53156,-0.28574 0.42499,-0.07859 1.10655,-0.20357 1.53155,-0.28068 0.42501,-0.0771 1.10657,-0.19963 1.53157,-0.27512 0.42501,-0.07546 1.10656,-0.19521 1.53156,-0.26888 0.425,-0.07367 1.10657,-0.19043 1.53157,-0.26216 0.425,-0.07172 1.10656,-0.18525 1.53156,-0.25487 0.425,-0.06963 1.10656,-0.17964 1.53157,-0.24701 0.425,-0.06735 1.10656,-0.17363 1.53155,-0.23858 0.42498,-0.06493 1.10655,-0.1672 1.53154,-0.22958 0.425,-0.06237 1.10657,-0.1604 1.53157,-0.22004 0.425,-0.05967 1.10655,-0.15317 1.53156,-0.20993 0.425,-0.05677 1.10656,-0.1455 1.53157,-0.19922 0.425,-0.05373 1.10656,-0.13751 1.53155,-0.18805 0.42499,-0.05054 1.10655,-0.12905 1.53156,-0.17623 0.425,-0.04716 1.10656,-0.12017 1.53157,-0.16386 0.425,-0.04367 1.10655,-0.11095 1.53156,-0.15095 0.425,-0.04001 1.10656,-0.10126 1.53156,-0.13744 0.42501,-0.03618 1.10657,-0.0912 1.53156,-0.12341 0.42497,-0.03222 1.10655,-0.08071 1.53154,-0.10879 0.425,-0.02807 1.10657,-0.06985 1.53157,-0.09364 0.425,-0.02379 1.10655,-0.05858 1.53155,-0.07792 0.42501,-0.01935 1.10657,-0.04688 1.53157,-0.06162 0.42501,-0.01474 1.10657,-0.03477 1.53156,-0.04477 0.42499,-0.01001 1.10655,-0.02226 1.53155,-0.02733 0.42501,-0.0051 1.53158,-0.0093 1.53158,-0.0093"
       style="fill:none;stroke:#00a390;stroke-width:0.79701;stroke-linecap:butt;stroke-linejoin:miter;stroke-miterlimit:10;stroke-dasharray:none;stroke-opacity:1"
       transform="matrix(1.3333333,0,0,-1.3333333,69.717333,172.24133)"
       clip-path="url(#clipPath13)" />
    <path
       id="path14"
       d="m 0,90.90479 c 0,0 1.10655,-0.01241 1.53154,-0.02764 0.42499,-0.01524 1.10655,-0.05197 1.53156,-0.08215 0.425,-0.0302 1.10656,-0.09068 1.53157,-0.13555 0.425,-0.04485 1.10655,-0.12861 1.53155,-0.1878 0.425,-0.0592 1.10657,-0.1657 1.53157,-0.23895 0.42501,-0.07325 1.10657,-0.202 1.53157,-0.28897 0.425,-0.08696 1.10655,-0.23749 1.53156,-0.33786 0.425,-0.10037 1.10656,-0.27215 1.53157,-0.38564 0.425,-0.11348 1.10655,-0.30603 1.53155,-0.4323 0.42501,-0.12626 1.10657,-0.33906 1.53157,-0.47781 0.42499,-0.13875 1.10657,-0.37129 1.53154,-0.5222 0.42499,-0.15091 1.10655,-0.40271 1.53156,-0.56546 0.425,-0.16275 1.10657,-0.43334 1.53157,-0.60764 0.425,-0.17432 1.10655,-0.46315 1.53155,-0.64868 0.42501,-0.18552 1.10657,-0.49211 1.53157,-0.68857 0.425,-0.19645 1.10657,-0.52031 1.53156,-0.72735 0.42499,-0.20705 1.10655,-0.54767 1.53155,-0.765 0.42501,-0.21735 1.10657,-0.57422 1.53157,-0.80155 0.42501,-0.22734 1.10656,-0.59994 1.53156,-0.83694 0.425,-0.237 1.10656,-0.62488 1.53157,-0.87125 0.42499,-0.24635 1.10657,-0.64897 1.53154,-0.90437 0.42499,-0.25542 1.10655,-0.67231 1.53155,-0.93643 0.42501,-0.26413 1.10657,-0.69478 1.53158,-0.96733 0.425,-0.27255 1.10655,-0.7165 1.53155,-0.99717 0.425,-0.28067 1.10657,-0.7373 1.53157,-1.02578 0.425,-0.28847 1.10657,-0.75737 1.53156,-1.05333 0.42498,-0.29595 1.10655,-0.77664 1.53155,-1.07977 0.425,-0.30314 1.10657,-0.79506 1.53157,-1.10506 0.42501,-0.30998 1.10655,-0.81265 1.53156,-1.1292 0.425,-0.31654 1.10656,-0.82951 1.53157,-1.1523 0.42499,-0.32278 1.10657,-0.84546 1.53154,-1.17416 0.42499,-0.32872 1.10655,-0.86067 1.53155,-1.19501 0.425,-0.33432 1.10657,-0.87503 1.53157,-1.21466 0.42501,-0.33963 1.10656,-0.88856 1.53156,-1.23318 0.425,-0.34463 1.10657,-0.90133 1.53157,-1.25063 0.425,-0.34929 1.10655,-0.91327 1.53155,-1.26694 0.42501,-0.35368 1.10657,-0.9244 1.53157,-1.28212 0.42501,-0.35772 1.10657,-0.9347 1.53156,-1.29617 0.42499,-0.36148 1.10655,-0.9442 1.53155,-1.3091 0.42501,-0.36491 1.10657,-0.95289 1.53157,-1.32092 0.42501,-0.36803 1.10656,-0.96075 1.53156,-1.33159 0.42499,-0.37083 1.10657,-0.96782 1.53156,-1.34114 0.425,-0.37334 1.10656,-0.97409 1.53155,-1.34961 0.42499,-0.37551 1.10655,-0.97949 1.53156,-1.35687 0.425,-0.3774 1.10657,-0.98414 1.53157,-1.3631 0.425,-0.37894 1.10655,-0.98793 1.53155,-1.36813 0.425,-0.38019 1.10657,-0.99098 1.53157,-1.37212 0.42501,-0.38112 1.10657,-0.99312 1.53156,-1.37488 0.42499,-0.38174 1.10655,-0.99449 1.53155,-1.37657 0.42501,-0.38206 1.10657,-0.99511 1.53157,-1.37718 0.425,-0.38208 1.10656,-0.99481 1.53156,-1.37657 0.42499,-0.38178 1.10657,-0.99381 1.53155,-1.37494 0.42501,-0.38115 1.10657,-0.99191 1.53156,-1.3721 0.42499,-0.3802 1.10655,-0.98927 1.53155,-1.36823 0.42501,-0.37896 1.10657,-0.98572 1.53158,-1.36312 0.425,-0.3774 1.10655,-0.98142 1.53155,-1.35695 0.425,-0.37554 1.10657,-0.97635 1.53157,-1.3497 0.425,-0.37334 1.10655,-0.97037 1.53155,-1.34122 0.42501,-0.37085 1.10657,-0.96364 1.53158,-1.3317 0.425,-0.36805 1.10656,-0.9561 1.53155,-1.32103 0.42499,-0.36494 1.10655,-0.9477 1.53156,-1.30922 0.42498,-0.36149 1.10656,-0.93853 1.53155,-1.29629 0.425,-0.35777 1.10655,-0.92856 1.53156,-1.28226 0.425,-0.35371 1.10656,-0.91775 1.53157,-1.26709 0.425,-0.34934 1.10656,-0.90613 1.53155,-1.25081 0.42499,-0.34466 1.10655,-0.89372 1.53156,-1.23341 0.425,-0.33968 1.10656,-0.88045 1.53157,-1.21483 0.425,-0.33438 1.10655,-0.86642 1.53155,-1.19519 0.42501,-0.32878 1.10657,-0.85155 1.53157,-1.17439 0.42501,-0.32285 1.10657,-0.83591 1.53156,-1.15251 0.42499,-0.31662 1.10655,-0.81939 1.53155,-1.12944 0.42501,-0.31006 1.10657,-0.80208 1.53157,-1.10529 0.42499,-0.30321 1.10654,-0.78401 1.53154,-1.08005 0.42501,-0.29602 1.10657,-0.76502 1.53157,-1.05359 0.42501,-0.28854 1.10657,-0.74533 1.53156,-1.02607 0.42499,-0.28075 1.10655,-0.72478 1.53155,-0.99742 0.42501,-0.27265 1.10657,-0.70344 1.53157,-0.96766 0.42501,-0.26422 1.10656,-0.68127 1.53156,-0.93676 0.425,-0.25548 1.10657,-0.65825 1.53157,-0.9047 0.425,-0.24644 1.10656,-0.63447 1.53156,-0.87156 0.425,-0.23708 1.10656,-0.60985 1.53157,-0.83728 0.425,-0.22745 1.10656,-0.58448 1.53155,-0.80193 0.42498,-0.21745 1.10655,-0.5582 1.53154,-0.76537 0.425,-0.20715 1.10657,-0.53118 1.53157,-0.72773 0.425,-0.19657 1.10655,-0.5033 1.53156,-0.68895 0.425,-0.18564 1.10656,-0.47464 1.53157,-0.64908 0.425,-0.17442 1.10656,-0.44521 1.53155,-0.60808 0.42499,-0.16287 1.10655,-0.41484 1.53156,-0.56587 0.425,-0.15103 1.10656,-0.38379 1.53157,-0.52266 0.425,-0.13887 1.10655,-0.35185 1.53156,-0.47824 0.425,-0.12639 1.10656,-0.31914 1.53156,-0.43274 0.42501,-0.1136 1.10657,-0.28561 1.53156,-0.38613 0.42497,-0.10052 1.10655,-0.25125 1.53154,-0.33834 0.425,-0.08708 1.10657,-0.21608 1.53157,-0.28946 0.425,-0.07338 1.10655,-0.1801 1.53155,-0.23944 0.42501,-0.05936 1.10657,-0.14333 1.53157,-0.18833 0.42501,-0.045 1.10657,-0.10573 1.53156,-0.13607 0.42499,-0.03034 1.10655,-0.06731 1.53155,-0.08268 C 150.51787,0.0128 151.62444,0 151.62444,0"
       style="fill:none;stroke:#c3312f;stroke-width:0.79701;stroke-linecap:butt;stroke-linejoin:miter;stroke-miterlimit:10;stroke-dasharray:none;stroke-opacity:1"
       transform="matrix(1.3333333,0,0,-1.3333333,69.717333,172.24133)"
       clip-path="url(#clipPath15)" />
    <path
       id="path16"
       d="m 0,90.90479 c 0,0 1.10655,-0.0042 1.53154,-0.0092 0.42499,-0.005 1.10655,-0.01721 1.53156,-0.02714 0.425,-0.01 1.10656,-0.02989 1.53157,-0.04459 0.425,-0.01471 1.10655,-0.04214 1.53155,-0.06145 0.425,-0.01931 1.10657,-0.054 1.53157,-0.07774 0.42501,-0.02374 1.10657,-0.06546 1.53157,-0.09349 0.425,-0.02803 1.10655,-0.07649 1.53156,-0.10866 0.425,-0.03216 1.10656,-0.08711 1.53157,-0.12327 0.425,-0.03615 1.10655,-0.09735 1.53155,-0.13732 0.42501,-0.03996 1.10657,-0.10717 1.53157,-0.1508 0.42499,-0.04362 1.10657,-0.11659 1.53154,-0.16374 0.42499,-0.04714 1.10655,-0.1256 1.53156,-0.1761 0.425,-0.05049 1.10657,-0.1342 1.53157,-0.1879 0.425,-0.05369 1.10655,-0.14241 1.53155,-0.19914 0.42501,-0.05674 1.10657,-0.15021 1.53157,-0.20984 0.425,-0.05962 1.10657,-0.1576 1.53156,-0.21994 0.42499,-0.06233 1.10655,-0.16455 1.53155,-0.22949 0.42501,-0.06493 1.10657,-0.17115 1.53157,-0.23848 0.42501,-0.06735 1.10656,-0.17732 1.53156,-0.24694 0.425,-0.06961 1.10656,-0.18309 1.53157,-0.25479 0.42499,-0.07171 1.10657,-0.18843 1.53154,-0.26208 0.42499,-0.07366 1.10655,-0.19339 1.53155,-0.26883 0.42501,-0.07545 1.10657,-0.19795 1.53158,-0.27504 0.425,-0.07709 1.10655,-0.20206 1.53155,-0.28064 0.425,-0.07858 1.10657,-0.20581 1.53157,-0.28571 0.425,-0.07991 1.10657,-0.20913 1.53156,-0.2902 0.42498,-0.08107 1.10655,-0.21207 1.53155,-0.29415 0.425,-0.08207 1.10657,-0.21455 1.53157,-0.2975 0.42501,-0.08294 1.10655,-0.21669 1.53156,-0.30034 0.425,-0.08363 1.10656,-0.21838 1.53157,-0.30257 0.42499,-0.08419 1.10657,-0.21967 1.53154,-0.30425 0.42499,-0.08458 1.10655,-0.22058 1.53155,-0.30539 0.425,-0.08481 1.10657,-0.22107 1.53157,-0.30596 0.42501,-0.08488 1.10656,-0.22114 1.53156,-0.30595 0.425,-0.08482 1.10657,-0.22079 1.53157,-0.30539 0.425,-0.08458 1.10655,-0.22009 1.53155,-0.30428 0.42501,-0.08418 1.10657,-0.21893 1.53157,-0.30258 0.42501,-0.08363 1.10657,-0.2174 1.53156,-0.30034 0.42499,-0.08294 1.10655,-0.21545 1.53155,-0.29753 0.42501,-0.08209 1.10657,-0.21309 1.53157,-0.29416 0.42501,-0.08108 1.10656,-0.21032 1.53156,-0.29023 0.42499,-0.07993 1.10657,-0.20719 1.53156,-0.28575 0.425,-0.07859 1.10656,-0.20359 1.53155,-0.28069 0.42499,-0.0771 1.10655,-0.1996 1.53156,-0.27505 0.425,-0.07547 1.10657,-0.19521 1.53157,-0.26888 0.425,-0.07367 1.10655,-0.19043 1.53155,-0.26215 0.425,-0.07172 1.10657,-0.18522 1.53157,-0.25485 0.42501,-0.06962 1.10657,-0.17961 1.53156,-0.24696 0.42499,-0.06737 1.10655,-0.17361 1.53155,-0.23856 0.42501,-0.06494 1.10657,-0.16719 1.53157,-0.22957 0.425,-0.06236 1.10656,-0.16035 1.53156,-0.22 0.42499,-0.05963 1.10657,-0.15313 1.53155,-0.20988 0.42501,-0.05675 1.10657,-0.14551 1.53156,-0.19922 0.42499,-0.0537 1.10655,-0.13747 1.53155,-0.18799 0.42501,-0.05051 1.10657,-0.12899 1.53158,-0.17616 0.425,-0.04718 1.10655,-0.12016 1.53155,-0.16382 0.425,-0.04367 1.10657,-0.1109 1.53157,-0.15089 0.425,-0.04002 1.10655,-0.10125 1.53155,-0.13742 0.42501,-0.03618 1.10657,-0.09116 1.53158,-0.12336 0.425,-0.03221 1.10656,-0.08072 1.53155,-0.10878 0.42499,-0.02806 1.10655,-0.06979 1.53156,-0.09356 0.42498,-0.02378 1.10656,-0.05854 1.53155,-0.07787 0.425,-0.01933 1.10655,-0.04681 1.53156,-0.06155 0.425,-0.01473 1.10656,-0.03472 1.53157,-0.0447 0.425,-0.01 1.10656,-0.02221 1.53155,-0.02728 0.42499,-0.0051 1.10655,-0.0093 1.53156,-0.0093 0.425,0 1.10656,0.004 1.53157,0.0093 0.425,0.0052 1.10655,0.01776 1.53155,0.02833 0.42501,0.01058 1.10657,0.03188 1.53157,0.04801 0.42501,0.01612 1.10657,0.04643 1.53156,0.06823 0.42499,0.02182 1.10655,0.06137 1.53155,0.08905 0.42501,0.02767 1.10657,0.07672 1.53157,0.11038 0.42499,0.03365 1.10654,0.09246 1.53154,0.13228 0.42501,0.03983 1.10657,0.10866 1.53157,0.15479 0.42501,0.04614 1.10657,0.12521 1.53156,0.17782 0.42499,0.05262 1.10655,0.14215 1.53155,0.20139 0.42501,0.05925 1.10657,0.15956 1.53157,0.22559 0.42501,0.06602 1.10656,0.17735 1.53156,0.2503 0.425,0.07295 1.10657,0.19553 1.53157,0.27557 0.425,0.08007 1.10656,0.21415 1.53156,0.30146 0.425,0.08729 1.10656,0.23312 1.53157,0.32783 0.425,0.09471 1.10656,0.25252 1.53155,0.3548 0.42498,0.10228 1.10655,0.27238 1.53154,0.38237 0.425,0.10998 1.10657,0.29257 1.53157,0.41043 0.425,0.11786 1.10655,0.31322 1.53156,0.43912 0.425,0.1259 1.10656,0.33423 1.53157,0.46831 0.425,0.13408 1.10656,0.35569 1.53155,0.49812 0.42499,0.14242 1.10655,0.37753 1.53156,0.52846 0.425,0.15092 1.10656,0.39976 1.53157,0.55934 0.425,0.15957 1.10655,0.42244 1.53156,0.59083 0.425,0.1684 1.10656,0.4455 1.53156,0.62283 0.42501,0.17736 1.10657,0.46895 1.53156,0.65545 0.42497,0.18648 1.10655,0.49284 1.53154,0.6886 0.425,0.19575 1.10657,0.51713 1.53157,0.7223 0.425,0.20519 1.10655,0.54184 1.53155,0.75661 0.42501,0.21477 1.10657,0.56689 1.53157,0.79141 0.42501,0.22452 1.10657,0.59241 1.53156,0.82684 0.42499,0.23443 1.10655,0.61831 1.53155,0.86278 0.42501,0.24448 1.53158,0.89931 1.53158,0.89931"
       style="fill:none;stroke:#eb7246;stroke-width:0.79701;stroke-linecap:butt;stroke-linejoin:miter;stroke-miterlimit:10;stroke-dasharray:none;stroke-opacity:1"
       transform="matrix(1.3333333,0,0,-1.3333333,69.717333,172.24133)"
       clip-path="url(#clipPath17)" />
    <path
       id="path18"
       d="m 3.3290547,-3.0122188 c 0.058594,-0.2578125 0.2929687,-1.171875 0.984375,-1.171875 0.046875,0 0.2929687,0 0.5039062,0.1289063 -0.28125,0.046875 -0.4804687,0.3046875 -0.4804687,0.5390625 0,0.1640625 0.1054687,0.3515625 0.375,0.3515625 0.2226562,0 0.5390625,-0.1875 0.5390625,-0.5859375 0,-0.515625 -0.5859375,-0.65625 -0.9257813,-0.65625 -0.5742187,0 -0.9257812,0.5273437 -1.0429687,0.7617187 -0.2578125,-0.65625 -0.7851563,-0.7617187 -1.078125,-0.7617187 -1.0429688,0 -1.60546876,1.2890625 -1.60546876,1.5351562 0,0.1054688 0.10546875,0.1054688 0.1171875,0.1054688 0.0820313,0 0.1171875,-0.023437 0.12890625,-0.1171875 C 1.1845234,-3.938 1.8407734,-4.1840938 2.1806172,-4.1840938 c 0.1875,0 0.5390625,0.09375 0.5390625,0.6679688 0,0.3046875 -0.1640625,0.9726562 -0.5390625,2.3671875 -0.1523438,0.62109375 -0.5039063,1.04296875 -0.9492188,1.04296875 -0.058594,0 -0.28124996,0 -0.49218746,-0.12890625 0.24609375,-0.0585938 0.46874996,-0.26953125 0.46874996,-0.5390625 0,-0.2695313 -0.22265621,-0.3515625 -0.37499996,-0.3515625 -0.29296875,0 -0.5390625,0.2578125 -0.5390625,0.57421875 0,0.45703125 0.4921875,0.65625 0.93749996,0.65625 0.65625,0 1.0078125,-0.69140625 1.0429688,-0.75 0.1171875,0.36328125 0.4804687,0.75 1.078125,0.75 1.0195312,0 1.59375,-1.27734375 1.59375,-1.53515625 0,-0.09375 -0.09375,-0.09375 -0.1289063,-0.09375 -0.082031,0 -0.1054687,0.035156 -0.1289062,0.1054687 -0.328125,1.0664063 -0.9960938,1.31250005 -1.3242188,1.31250005 -0.3867187,0 -0.5390625,-0.328125 -0.5390625,-0.65625 0,-0.22265625 0.058594,-0.44531255 0.1640625,-0.87890625 z m 0,0"
       style="fill:#000000;fill-opacity:1;fill-rule:nonzero;stroke:none"
       aria-label="x"
       transform="matrix(1.3333333,0,0,1.3333333,167.00267,214.25067)" />
    <path
       id="path19"
       d="M 1.3229922,-0.83280469 C 1.8620547,-1.4070234 2.1550234,-1.6531172 2.5065859,-1.9578047 c 0,-0.011719 0.6210938,-0.5390625 0.984375,-0.9023437 0.9375,-0.9257813 1.1601563,-1.40625 1.1601563,-1.4414063 0,-0.1054687 -0.09375,-0.1054687 -0.1054688,-0.1054687 -0.070312,0 -0.1054687,0.023437 -0.1523437,0.1171875 -0.3046875,0.46875 -0.5039063,0.6328125 -0.75,0.6328125 -0.234375,0 -0.3515625,-0.1523438 -0.5039063,-0.3164063 -0.1875,-0.234375 -0.3632812,-0.4335937 -0.6914062,-0.4335937 -0.75,0 -1.2070313,0.9257812 -1.2070313,1.1367187 0,0.046875 0.035156,0.1171875 0.1171875,0.1171875 0.09375,0 0.1171875,-0.058594 0.140625,-0.1171875 0.1875,-0.4570312 0.7617188,-0.46875 0.84375,-0.46875 0.2109375,0 0.3984375,0.070312 0.6210938,0.1523438 0.3984375,0.1523437 0.515625,0.1523437 0.7734375,0.1523437 -0.3632813,0.421875 -1.1953125,1.1367188 -1.3828125,1.3007813 l -0.9023438,0.8320312 c -0.67968746,0.66796876 -1.01953121,1.24218751 -1.01953121,1.31250001 0,0.09375 0.09375,0.09375 0.1171875,0.09375 0.0820313,0 0.09375,-0.01171875 0.15234375,-0.12890625 0.234375,-0.33984375 0.52734376,-0.609375 0.85546876,-0.609375 0.2226562,0 0.328125,0.0820313 0.5742187,0.375 0.1640625,0.2109375 0.3515625,0.36328125 0.6328125,0.36328125 0.984375,0 1.5703125,-1.26562501 1.5703125,-1.53515621 0,-0.046875 -0.046875,-0.09375 -0.1171875,-0.09375 -0.09375,0 -0.1171875,0.058594 -0.140625,0.1289062 -0.234375,0.64453126 -0.8671875,0.83203126 -1.1953125,0.83203126 -0.1992187,0 -0.3867187,-0.0585938 -0.5859375,-0.12890625 -0.3398437,-0.12890625 -0.4921875,-0.1640625 -0.703125,-0.1640625 -0.023437,0 -0.1757812,0 -0.2695312,0.0234375 z m 0,0"
       style="fill:#000000;fill-opacity:1;fill-rule:nonzero;stroke:none"
       aria-label="z"
       transform="matrix(0,-1.3333333,1.3333333,0,29.044,106.04133)" />
    <path
       id="path20"
       d="M 111.48483,27.7122 H 148.3923 V 70.77319 H 111.48483 Z"
       style="fill:#ffffff;fill-opacity:1;fill-rule:nonzero;stroke:#000000;stroke-width:0.3985;stroke-linecap:butt;stroke-linejoin:miter;stroke-miterlimit:10;stroke-dasharray:none;stroke-opacity:1"
       transform="matrix(1.3333333,0,0,-1.3333333,69.717333,172.24133)" />
    <path
       id="path21"
       d="m 0,0 c 0,0 6.14426,0 8.50412,0 2.35986,0 8.50414,0 8.50414,0"
       style="fill:none;stroke:#017188;stroke-width:0.79701;stroke-linecap:butt;stroke-linejoin:miter;stroke-miterlimit:10;stroke-dasharray:none;stroke-opacity:1"
       transform="matrix(1.3333333,0,0,-1.3333333,222.87733,87.046667)" />
    <g
       id="g21"
       aria-label="s&#10;1"
       transform="matrix(1.3333333,0,0,1.3333333,248.744,88.910667)">
      <path
         id="path22"
         d="m 3.8892656,-3.7269453 c -0.2695312,0.011719 -0.46875,0.234375 -0.46875,0.4453125 0,0.140625 0.082031,0.2929687 0.3046875,0.2929687 0.2226563,0 0.4570313,-0.1640625 0.4570313,-0.5625 0,-0.4453125 -0.4335938,-0.8554687 -1.1835938,-0.8554687 -1.3125,0 -1.6875,1.0195312 -1.6875,1.453125 0,0.7851562 0.7382813,0.9257812 1.03125,0.9960937 0.515625,0.09375 1.03125,0.1992188 1.03125,0.75 0,0.25781254 -0.2226562,1.10156254 -1.4179687,1.10156254 -0.140625,0 -0.9140625,0 -1.13671877,-0.52734375 0.37499997,0.046875 0.62109377,-0.2578125 0.62109377,-0.52734379 0,-0.234375 -0.1523438,-0.3515625 -0.3632813,-0.3515625 -0.25781247,0 -0.56249997,0.2109375 -0.56249997,0.65625004 0,0.5625 0.57421877,0.9609375 1.42968747,0.9609375 1.6054688,0 2.0039063,-1.20703124 2.0039063,-1.65234374 0,-0.3515625 -0.1992188,-0.609375 -0.3164063,-0.7265625 -0.2695312,-0.28125 -0.5507812,-0.328125 -0.9960937,-0.421875 -0.3515625,-0.070312 -0.75,-0.140625 -0.75,-0.5976563 0,-0.28125 0.234375,-0.890625 1.1132812,-0.890625 0.2460938,0 0.75,0.070312 0.890625,0.4570313 z m 0,0"
         style="fill:#000000;fill-opacity:1;fill-rule:nonzero;stroke:none" />
      <path
         id="path23"
         d="m 7.0005938,-2.9359297 c 0,-0.1875 -0.011719,-0.1992187 -0.2109375,-0.1992187 -0.4453125,0.4335937 -1.078125,0.4453125 -1.359375,0.4453125 v 0.2460937 c 0.1640625,0 0.6210937,0 1.0078125,-0.1875 v 3.55078126 c 0,0.23437504 0,0.32812504 -0.6914063,0.32812504 H 5.4771563 v 0.2460937 c 0.1289062,-0.011719 0.984375,-0.023437 1.2421875,-0.023437 0.2109375,0 1.0898437,0.011719 1.2421875,0.023437 V 1.2476641 H 7.7037188 c -0.703125,0 -0.703125,-0.09375 -0.703125,-0.32812504 z m 0,0"
         style="fill:#000000;fill-opacity:1;fill-rule:nonzero;stroke:none" />
    </g>
    <path
       id="path24"
       d="m 0,0 c 0,0 6.14426,0 8.50412,0 2.35986,0 8.50414,0 8.50414,0"
       style="fill:none;stroke:#00a390;stroke-width:0.79701;stroke-linecap:butt;stroke-linejoin:miter;stroke-miterlimit:10;stroke-dasharray:none;stroke-opacity:1"
       transform="matrix(1.3333333,0,0,-1.3333333,222.87733,100.072)" />
    <g
       id="g24"
       aria-label="s&#10;2"
       transform="matrix(1.3333333,0,0,1.3333333,248.74267,101.936)">
      <path
         id="path25"
         d="m 3.8902656,-3.7254375 c -0.2695312,0.011719 -0.46875,0.234375 -0.46875,0.4453125 0,0.140625 0.082031,0.2929687 0.3046875,0.2929687 0.2226563,0 0.4570313,-0.1640625 0.4570313,-0.5625 0,-0.4453125 -0.4335938,-0.8554687 -1.1835938,-0.8554687 -1.3125,0 -1.6875,1.0195312 -1.6875,1.453125 0,0.7851562 0.7382813,0.9257812 1.03125,0.9960937 0.515625,0.09375 1.03125,0.1992188 1.03125,0.75 0,0.25781255 -0.2226562,1.10156255 -1.4179687,1.10156255 -0.140625,0 -0.9140625,0 -1.13671877,-0.52734375 0.37499997,0.046875 0.62109377,-0.2578125 0.62109377,-0.5273438 0,-0.234375 -0.1523438,-0.3515625 -0.3632813,-0.3515625 -0.25781247,0 -0.56249997,0.2109375 -0.56249997,0.65625005 0,0.5625 0.57421877,0.9609375 1.42968747,0.9609375 1.6054688,0 2.0039063,-1.20703125 2.0039063,-1.65234375 0,-0.3515625 -0.1992188,-0.609375 -0.3164063,-0.7265625 -0.2695312,-0.28125 -0.5507812,-0.328125 -0.9960937,-0.421875 -0.3515625,-0.070312 -0.75,-0.140625 -0.75,-0.5976563 0,-0.28125 0.234375,-0.890625 1.1132812,-0.890625 0.2460938,0 0.75,0.070312 0.890625,0.4570313 z m 0,0"
         style="fill:#000000;fill-opacity:1;fill-rule:nonzero;stroke:none" />
      <path
         id="path26"
         d="m 8.1851875,0.22964062 h -0.234375 c -0.023437,0.15234375 -0.082031,0.5625 -0.1757812,0.6328125 -0.058594,0.0351563 -0.5976563,0.0351563 -0.6914063,0.0351563 H 5.7945625 c 0.7382813,-0.64453125 0.984375,-0.84375 1.3945313,-1.171875 0.515625,-0.41015625 0.9960937,-0.84374992 0.9960937,-1.49999992 0,-0.8437501 -0.7382812,-1.3593751 -1.6289062,-1.3593751 -0.8671875,0 -1.453125,0.609375 -1.453125,1.2421876 0,0.3632812 0.3046875,0.3984375 0.375,0.3984375 0.1640625,0 0.375,-0.1171875 0.375,-0.375 0,-0.1289063 -0.058594,-0.3632814 -0.421875,-0.3632814 0.2226562,-0.5039062 0.6914062,-0.65625 1.0195312,-0.65625 0.703125,0 1.0664063,0.5507813 1.0664063,1.1132813 0,0.609375 -0.4335938,1.08984377 -0.65625,1.33593752 l -1.6875,1.66406248 c -0.070312,0.058594 -0.070312,0.070312 -0.070312,0.2695312 h 2.8828125 z m 0,0"
         style="fill:#000000;fill-opacity:1;fill-rule:nonzero;stroke:none" />
    </g>
    <path
       id="path27"
       d="m 0,0 c 0,0 6.14426,0 8.50412,0 2.35986,0 8.50414,0 8.50414,0"
       style="fill:none;stroke:#c3312f;stroke-width:0.79701;stroke-linecap:butt;stroke-linejoin:miter;stroke-miterlimit:10;stroke-dasharray:none;stroke-opacity:1"
       transform="matrix(1.3333333,0,0,-1.3333333,222.87733,113.09733)" />
    <g
       id="g27"
       aria-label="s&#10;3"
       transform="matrix(1.3333333,0,0,1.3333333,248.74267,114.96133)">
      <path
         id="path28"
         d="m 3.8902656,-3.7268594 c -0.2695312,0.011719 -0.46875,0.234375 -0.46875,0.4453125 0,0.140625 0.082031,0.2929688 0.3046875,0.2929688 0.2226563,0 0.4570313,-0.1640625 0.4570313,-0.5625 0,-0.4453125 -0.4335938,-0.8554688 -1.1835938,-0.8554688 -1.3125,0 -1.6875,1.0195313 -1.6875,1.453125 0,0.7851563 0.7382813,0.9257813 1.03125,0.9960938 0.515625,0.09375 1.03125,0.1992187 1.03125,0.75 0,0.25781247 -0.2226562,1.10156247 -1.4179687,1.10156247 -0.140625,0 -0.9140625,0 -1.13671877,-0.52734375 0.37499997,0.046875 0.62109377,-0.2578125 0.62109377,-0.52734372 0,-0.234375 -0.1523438,-0.3515625 -0.3632813,-0.3515625 -0.25781247,0 -0.56249997,0.2109375 -0.56249997,0.65624997 0,0.5625 0.57421877,0.9609375 1.42968747,0.9609375 1.6054688,0 2.0039063,-1.20703127 2.0039063,-1.65234377 0,-0.3515625 -0.1992188,-0.609375 -0.3164063,-0.7265625 -0.2695312,-0.28125 -0.5507812,-0.328125 -0.9960937,-0.421875 -0.3515625,-0.070312 -0.75,-0.140625 -0.75,-0.5976562 0,-0.28125 0.234375,-0.890625 1.1132812,-0.890625 0.2460938,0 0.75,0.070312 0.890625,0.4570312 z m 0,0"
         style="fill:#000000;fill-opacity:1;fill-rule:nonzero;stroke:none" />
      <path
         id="path29"
         d="m 6.568,-0.8381875 c 0.5507813,0 0.9375,0.375 0.9375,1.125 0,0.8671875 -0.5039062,1.125 -0.9023437,1.125 -0.28125,0 -0.890625,-0.082031 -1.1835938,-0.4921875 C 5.7476875,0.90790625 5.818,0.67353125 5.818,0.53290625 5.818,0.31025 5.6539375,0.1461875 5.4312813,0.1461875 c -0.1875,0 -0.3867188,0.1171875 -0.3867188,0.41015625 0,0.65624995 0.7265625,1.07812495 1.5703125,1.07812495 0.9726563,0 1.640625,-0.6445312 1.640625,-1.3476562 0,-0.5390625 -0.4453125,-1.08984375 -1.21875,-1.2421875 0.7382813,-0.2695313 0.9960938,-0.796875 0.9960938,-1.21875 0,-0.5507813 -0.6328125,-0.9609375 -1.40625,-0.9609375 -0.7734375,0 -1.359375,0.375 -1.359375,0.9375 0,0.234375 0.1523437,0.3632812 0.3632812,0.3632812 0.2109375,0 0.3515625,-0.1640625 0.3515625,-0.3515625 0,-0.1992187 -0.140625,-0.3515625 -0.3515625,-0.3632812 0.234375,-0.3046875 0.7148438,-0.3867188 0.9726563,-0.3867188 0.3164062,0 0.7617187,0.1523438 0.7617187,0.7617188 0,0.2929687 -0.1054687,0.609375 -0.28125,0.8320312 -0.234375,0.2578125 -0.421875,0.28125 -0.7734375,0.2929688 -0.1757812,0.023437 -0.1875,0.023437 -0.2226562,0.023437 -0.011719,0 -0.070312,0.011719 -0.070312,0.09375 0,0.09375 0.058594,0.09375 0.1757812,0.09375 z m 0,0"
         style="fill:#000000;fill-opacity:1;fill-rule:nonzero;stroke:none" />
    </g>
    <path
       id="path30"
       d="m 0,0 c 0,0 6.14426,0 8.50412,0 2.35986,0 8.50414,0 8.50414,0"
       style="fill:none;stroke:#eb7246;stroke-width:0.79701;stroke-linecap:butt;stroke-linejoin:miter;stroke-miterlimit:10;stroke-dasharray:none;stroke-opacity:1"
       transform="matrix(1.3333333,0,0,-1.3333333,222.87733,126.12267)" />
    <g
       id="g30"
       aria-label="s&#10;4"
       transform="matrix(1.3333333,0,0,1.3333333,248.74267,127.98533)">
      <path
         id="path31"
         d="m 3.8902656,-3.7272813 c -0.2695312,0.011719 -0.46875,0.234375 -0.46875,0.4453125 0,0.140625 0.082031,0.2929688 0.3046875,0.2929688 0.2226563,0 0.4570313,-0.1640625 0.4570313,-0.5625 0,-0.4453125 -0.4335938,-0.8554688 -1.1835938,-0.8554688 -1.3125,0 -1.6875,1.0195313 -1.6875,1.453125 0,0.7851563 0.7382813,0.9257813 1.03125,0.9960938 0.515625,0.09375 1.03125,0.1992187 1.03125,0.75 0,0.2578125 -0.2226562,1.1015625 -1.4179687,1.1015625 -0.140625,0 -0.9140625,0 -1.13671877,-0.52734375 0.37499997,0.046875 0.62109377,-0.2578125 0.62109377,-0.52734375 0,-0.234375 -0.1523438,-0.3515625 -0.3632813,-0.3515625 -0.25781247,0 -0.56249997,0.2109375 -0.56249997,0.65625 0,0.5625 0.57421877,0.9609375 1.42968747,0.9609375 1.6054688,0 2.0039063,-1.2070313 2.0039063,-1.6523438 0,-0.3515625 -0.1992188,-0.609375 -0.3164063,-0.7265625 -0.2695312,-0.28125 -0.5507812,-0.328125 -0.9960937,-0.421875 -0.3515625,-0.070312 -0.75,-0.140625 -0.75,-0.5976562 0,-0.28125 0.234375,-0.890625 1.1132812,-0.890625 0.2460938,0 0.75,0.070312 0.890625,0.4570312 z m 0,0"
         style="fill:#000000;fill-opacity:1;fill-rule:nonzero;stroke:none" />
      <path
         id="path32"
         d="M 8.3609688,0.34791406 V 0.10182031 H 7.5875313 V -3.0036484 c 0,-0.1523438 0,-0.1992188 -0.1523438,-0.1992188 -0.09375,0 -0.1171875,0 -0.1875,0.09375 L 4.9390938,0.10182031 V 0.34791406 H 6.989875 v 0.57421875 c 0,0.23437499 0,0.32812499 -0.5625,0.32812499 h -0.1875 v 0.2460938 c 0.3515625,-0.011719 0.796875,-0.023437 1.0429688,-0.023437 0.2578125,0 0.703125,0.011719 1.0546875,0.023437 V 1.2502578 h -0.1875 c -0.5625,0 -0.5625,-0.09375 -0.5625,-0.32812499 V 0.34791406 Z M 7.03675,-2.4528672 V 0.10182031 H 5.1969063 Z m 0,0"
         style="fill:#000000;fill-opacity:1;fill-rule:nonzero;stroke:none" />
    </g>
  </g>
</svg>
