<?xml version="1.0" encoding="UTF-8" standalone="no"?>
<!-- Created with Inkscape (http://www.inkscape.org/) -->

<svg
   version="1.1"
   id="svg1"
   width="478.19308"
   height="220.09308"
   viewBox="0 0 478.19308 220.09308"
   sodipodi:docname="torsionframe.svg"
   inkscape:version="1.3.2 (091e20e, 2023-11-25, custom)"
   xmlns:inkscape="http://www.inkscape.org/namespaces/inkscape"
   xmlns:sodipodi="http://sodipodi.sourceforge.net/DTD/sodipodi-0.dtd"
   xmlns="http://www.w3.org/2000/svg"
   xmlns:svg="http://www.w3.org/2000/svg">
  <defs
     id="defs1" />
  <sodipodi:namedview
     id="namedview1"
     pagecolor="#ffffff"
     bordercolor="#000000"
     borderopacity="0.25"
     inkscape:showpageshadow="2"
     inkscape:pageopacity="0.0"
     inkscape:pagecheckerboard="0"
     inkscape:deskcolor="#d1d1d1"
     inkscape:zoom="2.5742739"
     inkscape:cx="239.09654"
     inkscape:cy="110.12814"
     inkscape:window-width="1920"
     inkscape:window-height="1017"
     inkscape:window-x="1912"
     inkscape:window-y="-8"
     inkscape:window-maximized="1"
     inkscape:current-layer="g1">
    <inkscape:page
       x="0"
       y="0"
       inkscape:label="1"
       id="page1"
       width="478.19308"
       height="220.09308"
       margin="0"
       bleed="0" />
  </sodipodi:namedview>
  <g
     id="g1"
     inkscape:groupmode="layer"
     inkscape:label="1">
    <path
       id="path1"
       d="m 317.422,30.375 c 0.594,-0.266 30.887,-17.836 30.887,-17.836"
       style="fill:none;stroke:#000000;stroke-width:0.425197;stroke-linecap:butt;stroke-linejoin:round;stroke-miterlimit:4;stroke-dasharray:none;stroke-opacity:0.977636"
       transform="scale(1.3333333)" />
    <path
       id="path2"
       d="M 317.422,26.133 C 318.016,25.867 348.309,8.297 348.309,8.297"
       style="fill:none;stroke:#000000;stroke-width:0.425197;stroke-linecap:butt;stroke-linejoin:round;stroke-miterlimit:4;stroke-dasharray:none;stroke-opacity:0.977636"
       transform="scale(1.3333333)" />
    <path
       id="path3"
       d="M 317.422,20.828 C 318.016,20.562 348.309,2.996 348.309,2.996"
       style="fill:none;stroke:#000000;stroke-width:0.425197;stroke-linecap:butt;stroke-linejoin:round;stroke-miterlimit:4;stroke-dasharray:none;stroke-opacity:0.977636"
       transform="scale(1.3333333)" />
    <path
       id="path4"
       d="M 317.422,16.52 C 318.016,16.254 345.453,0.281 345.453,0.281"
       style="fill:none;stroke:#000000;stroke-width:0.425197;stroke-linecap:butt;stroke-linejoin:round;stroke-miterlimit:4;stroke-dasharray:none;stroke-opacity:0.977636"
       transform="scale(1.3333333)" />
    <path
       id="path5"
       d="m -11.816,328.859 h -7.77 v 7.773 h 7.77 z"
       style="fill:#ffffff;fill-opacity:1;fill-rule:nonzero;stroke:#000000;stroke-width:0.790702;stroke-linecap:butt;stroke-linejoin:miter;stroke-miterlimit:4;stroke-dasharray:none;stroke-opacity:1"
       transform="matrix(0,-1.3333333,1.3333333,0,0,0)" />
    <path
       id="path6"
       d="m 325.438,31.094 c 0.593,-0.266 22.871,-13.383 22.871,-13.383"
       style="fill:none;stroke:#000000;stroke-width:0.425197;stroke-linecap:butt;stroke-linejoin:round;stroke-miterlimit:4;stroke-dasharray:none;stroke-opacity:0.977636"
       transform="scale(1.3333333)" />
    <path
       id="path7"
       d="m 332.281,31.125 c 0.594,-0.266 16.028,-9.305 16.028,-9.305"
       style="fill:none;stroke:#000000;stroke-width:0.425197;stroke-linecap:butt;stroke-linejoin:round;stroke-miterlimit:4;stroke-dasharray:none;stroke-opacity:0.977636"
       transform="scale(1.3333333)" />
    <path
       id="path8"
       d="m 338.891,31.191 c 0.593,-0.265 9.418,-5.457 9.418,-5.457"
       style="fill:none;stroke:#000000;stroke-width:0.425197;stroke-linecap:butt;stroke-linejoin:round;stroke-miterlimit:4;stroke-dasharray:none;stroke-opacity:0.977636"
       transform="scale(1.3333333)" />
    <path
       id="path9"
       d="m 317.355,0.312 h 30.781 v 30.781 h -30.781 z"
       style="fill:none;stroke:#000000;stroke-width:0.141732;stroke-linecap:butt;stroke-linejoin:round;stroke-miterlimit:4;stroke-dasharray:none;stroke-opacity:0.977636"
       transform="scale(1.3333333)" />
    <path
       id="path10"
       d="M 332.746,15.703 215.215,83.559"
       style="fill:none;stroke:#000000;stroke-width:2.83465;stroke-linecap:butt;stroke-linejoin:miter;stroke-miterlimit:4;stroke-dasharray:none;stroke-opacity:0.977636"
       transform="scale(1.3333333)" />
    <path
       id="path11"
       d="m -218.401,164.492 c -3.832,-1.385 -6.209,-5.219 -5.747,-9.264 0.46,-4.047 3.639,-7.249 7.683,-7.733"
       style="fill:none;stroke:#820000;stroke-width:1.24056;stroke-linecap:butt;stroke-linejoin:miter;stroke-miterlimit:4;stroke-dasharray:none;stroke-opacity:0.964706"
       transform="matrix(-1.3333333,0.7698,0.7698,1.3333333,0,0)" />
    <path
       id="path12"
       d="m 299.711,23.473 3.824,1.914 c -1.91,-5.739 0,0 -1.91,-5.739 z"
       style="fill:#820000;fill-opacity:0.964706;fill-rule:nonzero;stroke:none"
       transform="scale(1.3333333)" />
    <path
       id="path13"
       d="m -209.158,164.589 c -3.829,-1.382 -6.207,-5.217 -5.745,-9.261 0.46,-4.047 3.639,-7.249 7.682,-7.736"
       style="fill:none;stroke:#820000;stroke-width:1.24056;stroke-linecap:butt;stroke-linejoin:miter;stroke-miterlimit:4;stroke-dasharray:none;stroke-opacity:0.964706"
       transform="matrix(-1.3333333,0.7698,0.7698,1.3333333,0,0)" />
    <path
       id="path14"
       d="m -199.549,164.67 c -3.831,-1.385 -6.209,-5.22 -5.747,-9.264 0.461,-4.047 3.639,-7.249 7.682,-7.736"
       style="fill:none;stroke:#820000;stroke-width:1.24056;stroke-linecap:butt;stroke-linejoin:miter;stroke-miterlimit:4;stroke-dasharray:none;stroke-opacity:0.964706"
       transform="matrix(-1.3333333,0.7698,0.7698,1.3333333,0,0)" />
    <path
       id="path15"
       d="m -189.135,164.846 c -3.831,-1.386 -6.209,-5.22 -5.747,-9.264 0.46,-4.047 3.639,-7.25 7.682,-7.736"
       style="fill:none;stroke:#820000;stroke-width:1.24056;stroke-linecap:butt;stroke-linejoin:miter;stroke-miterlimit:4;stroke-dasharray:none;stroke-opacity:0.964706"
       transform="matrix(-1.3333333,0.7698,0.7698,1.3333333,0,0)" />
    <path
       id="path16"
       d="m -179.307,164.98 c -3.83,-1.383 -6.208,-5.217 -5.746,-9.261 0.461,-4.047 3.639,-7.249 7.682,-7.736"
       style="fill:none;stroke:#820000;stroke-width:1.24056;stroke-linecap:butt;stroke-linejoin:miter;stroke-miterlimit:4;stroke-dasharray:none;stroke-opacity:0.964706"
       transform="matrix(-1.3333333,0.7698,0.7698,1.3333333,0,0)" />
    <path
       id="path17"
       d="m -169.801,164.558 c -3.831,-1.386 -6.209,-5.22 -5.747,-9.264 0.46,-4.047 3.639,-7.249 7.684,-7.733"
       style="fill:none;stroke:#820000;stroke-width:1.24056;stroke-linecap:butt;stroke-linejoin:miter;stroke-miterlimit:4;stroke-dasharray:none;stroke-opacity:0.964706"
       transform="matrix(-1.3333333,0.7698,0.7698,1.3333333,0,0)" />
    <path
       id="path18"
       d="m -160.821,163.874 c -3.831,-1.386 -6.209,-5.22 -5.747,-9.264 0.46,-4.047 3.639,-7.25 7.682,-7.736"
       style="fill:none;stroke:#820000;stroke-width:1.24056;stroke-linecap:butt;stroke-linejoin:miter;stroke-miterlimit:4;stroke-dasharray:none;stroke-opacity:0.964706"
       transform="matrix(-1.3333333,0.7698,0.7698,1.3333333,0,0)" />
    <path
       id="path19"
       d="m -151.378,163.667 c -3.829,-1.382 -6.207,-5.217 -5.745,-9.261 0.46,-4.047 3.639,-7.249 7.682,-7.736"
       style="fill:none;stroke:#820000;stroke-width:1.24056;stroke-linecap:butt;stroke-linejoin:miter;stroke-miterlimit:4;stroke-dasharray:none;stroke-opacity:0.964706"
       transform="matrix(-1.3333333,0.7698,0.7698,1.3333333,0,0)" />
    <path
       id="path20"
       d="m 290.523,28.91 3.825,1.914 c -1.91,-5.738 0,0 -1.91,-5.738 z"
       style="fill:#820000;fill-opacity:0.964706;fill-rule:nonzero;stroke:none"
       transform="scale(1.3333333)" />
    <path
       id="path21"
       d="m 280.961,34.535 3.824,1.914 c -1.91,-5.738 0,0 -1.91,-5.738 z"
       style="fill:#820000;fill-opacity:0.964706;fill-rule:nonzero;stroke:none"
       transform="scale(1.3333333)" />
    <path
       id="path22"
       d="m 270.648,40.723 3.825,1.914 c -1.911,-5.739 0,0 -1.911,-5.739 z"
       style="fill:#820000;fill-opacity:0.964706;fill-rule:nonzero;stroke:none"
       transform="scale(1.3333333)" />
    <path
       id="path23"
       d="m 260.898,46.535 3.825,1.914 c -1.911,-5.738 0,0 -1.911,-5.738 z"
       style="fill:#820000;fill-opacity:0.964706;fill-rule:nonzero;stroke:none"
       transform="scale(1.3333333)" />
    <path
       id="path24"
       d="m 251.148,51.598 3.825,1.914 c -1.911,-5.739 0,0 -1.911,-5.739 z"
       style="fill:#820000;fill-opacity:0.964706;fill-rule:nonzero;stroke:none"
       transform="scale(1.3333333)" />
    <path
       id="path25"
       d="m 241.773,56.098 3.825,1.914 c -1.91,-5.739 0,0 -1.91,-5.739 z"
       style="fill:#820000;fill-opacity:0.964706;fill-rule:nonzero;stroke:none"
       transform="scale(1.3333333)" />
    <path
       id="path26"
       d="m 232.211,61.348 3.824,1.914 c -1.91,-5.739 0,0 -1.91,-5.739 z"
       style="fill:#820000;fill-opacity:0.964706;fill-rule:nonzero;stroke:none"
       transform="scale(1.3333333)" />
    <path
       id="path27"
       d="m -140.984,163.483 c -3.831,-1.386 -6.209,-5.22 -5.747,-9.264 0.46,-4.047 3.639,-7.249 7.684,-7.733"
       style="fill:none;stroke:#820000;stroke-width:1.24056;stroke-linecap:butt;stroke-linejoin:miter;stroke-miterlimit:4;stroke-dasharray:none;stroke-opacity:0.964706"
       transform="matrix(-1.3333333,0.7698,0.7698,1.3333333,0,0)" />
    <path
       id="path28"
       d="m 221.711,67.16 3.824,1.914 c -1.91,-5.738 0,0 -1.91,-5.738 z"
       style="fill:#820000;fill-opacity:0.964706;fill-rule:nonzero;stroke:none"
       transform="scale(1.3333333)" />
    <path
       id="path29"
       d="m -228.415,163.711 c -3.831,-1.385 -6.209,-5.22 -5.747,-9.264 0.46,-4.047 3.639,-7.249 7.684,-7.733"
       style="fill:none;stroke:#820000;stroke-width:1.24056;stroke-linecap:butt;stroke-linejoin:miter;stroke-miterlimit:4;stroke-dasharray:none;stroke-opacity:0.964706"
       transform="matrix(-1.3333333,0.7698,0.7698,1.3333333,0,0)" />
    <path
       id="path30"
       d="m 309.273,16.91 3.825,1.914 c -1.91,-5.738 0,0 -1.91,-5.738 z"
       style="fill:#820000;fill-opacity:0.964706;fill-rule:nonzero;stroke:none"
       transform="scale(1.3333333)" />
    <path
       id="path31"
       d="m 317.422,6.91 c 0.594,-0.265 11.527,-6.726 11.527,-6.726"
       style="fill:none;stroke:#000000;stroke-width:0.425197;stroke-linecap:butt;stroke-linejoin:round;stroke-miterlimit:4;stroke-dasharray:none;stroke-opacity:0.977636"
       transform="scale(1.3333333)" />
    <path
       id="path32"
       d="M 317.422,12.012 C 318.016,11.746 337.668,0.273 337.668,0.273"
       style="fill:none;stroke:#000000;stroke-width:0.425197;stroke-linecap:butt;stroke-linejoin:round;stroke-miterlimit:4;stroke-dasharray:none;stroke-opacity:0.977636"
       transform="scale(1.3333333)" />
    <path
       id="path33"
       d="M 118.602,83.559 H 21.984"
       style="fill:none;stroke:#000000;stroke-width:2.83465;stroke-linecap:butt;stroke-linejoin:round;stroke-miterlimit:4;stroke-dasharray:none;stroke-opacity:0.977636"
       transform="scale(1.3333333)" />
    <path
       id="path34"
       d="m -106.527,-21.984 h 43.144"
       style="fill:none;stroke:#000000;stroke-width:0.521531;stroke-linecap:butt;stroke-linejoin:miter;stroke-miterlimit:4;stroke-dasharray:none;stroke-opacity:1"
       transform="matrix(0,-1.3333333,-1.3333333,0,0,0)" />
    <path
       id="path35"
       d="m -103.645,-12.805 5.301,-9.179 -8.328,14.422"
       style="fill:none;stroke:#000000;stroke-width:0.52071;stroke-linecap:butt;stroke-linejoin:miter;stroke-miterlimit:4;stroke-dasharray:none;stroke-opacity:1"
       transform="matrix(0,-1.3333333,-1.3333333,0,0,0)" />
    <path
       id="path36"
       d="m -93.414,-21.984 -12.598,21.812"
       style="fill:none;stroke:#000000;stroke-width:0.52071;stroke-linecap:butt;stroke-linejoin:miter;stroke-miterlimit:4;stroke-dasharray:none;stroke-opacity:1"
       transform="matrix(0,-1.3333333,-1.3333333,0,0,0)" />
    <path
       id="path37"
       d="m -88.488,-21.984 -12.5,21.652"
       style="fill:none;stroke:#000000;stroke-width:0.52071;stroke-linecap:butt;stroke-linejoin:miter;stroke-miterlimit:4;stroke-dasharray:none;stroke-opacity:1"
       transform="matrix(0,-1.3333333,-1.3333333,0,0,0)" />
    <path
       id="path38"
       d="M -83.559,-21.984 -96.18,-0.129"
       style="fill:none;stroke:#000000;stroke-width:0.52071;stroke-linecap:butt;stroke-linejoin:miter;stroke-miterlimit:4;stroke-dasharray:none;stroke-opacity:1"
       transform="matrix(0,-1.3333333,-1.3333333,0,0,0)" />
    <path
       id="path39"
       d="M -78.633,-21.984 -91.25,-0.129"
       style="fill:none;stroke:#000000;stroke-width:0.52071;stroke-linecap:butt;stroke-linejoin:miter;stroke-miterlimit:4;stroke-dasharray:none;stroke-opacity:1"
       transform="matrix(0,-1.3333333,-1.3333333,0,0,0)" />
    <path
       id="path40"
       d="M -73.238,-21.984 -85.855,-0.129"
       style="fill:none;stroke:#000000;stroke-width:0.52071;stroke-linecap:butt;stroke-linejoin:miter;stroke-miterlimit:4;stroke-dasharray:none;stroke-opacity:1"
       transform="matrix(0,-1.3333333,-1.3333333,0,0,0)" />
    <path
       id="path41"
       d="M -68.309,-21.984 -80.93,-0.129"
       style="fill:none;stroke:#000000;stroke-width:0.52071;stroke-linecap:butt;stroke-linejoin:miter;stroke-miterlimit:4;stroke-dasharray:none;stroke-opacity:1"
       transform="matrix(0,-1.3333333,-1.3333333,0,0,0)" />
    <path
       id="path42"
       d="M -63.383,-21.984 -76,-0.129"
       style="fill:none;stroke:#000000;stroke-width:0.52071;stroke-linecap:butt;stroke-linejoin:miter;stroke-miterlimit:4;stroke-dasharray:none;stroke-opacity:1"
       transform="matrix(0,-1.3333333,-1.3333333,0,0,0)" />
    <path
       id="path43"
       d="m -71.258,-0.129 7.988,-13.836"
       style="fill:none;stroke:#000000;stroke-width:0.52071;stroke-linecap:butt;stroke-linejoin:miter;stroke-miterlimit:4;stroke-dasharray:none;stroke-opacity:1"
       transform="matrix(0,-1.3333333,-1.3333333,0,0,0)" />
    <path
       id="path44"
       d="m -66.793,-0.129 3.527,-6.117"
       style="fill:none;stroke:#000000;stroke-width:0.52071;stroke-linecap:butt;stroke-linejoin:miter;stroke-miterlimit:4;stroke-dasharray:none;stroke-opacity:1"
       transform="matrix(0,-1.3333333,-1.3333333,0,0,0)" />
    <path
       id="path45"
       d="m -103.34,-21.984 -3.351,5.804"
       style="fill:none;stroke:#000000;stroke-width:0.52071;stroke-linecap:butt;stroke-linejoin:miter;stroke-miterlimit:4;stroke-dasharray:none;stroke-opacity:1"
       transform="matrix(0,-1.3333333,-1.3333333,0,0,0)" />
    <path
       id="path46"
       d="m -79.492,-17.516 h -9.668 v -9.668 h 9.668 z"
       style="fill:#ffffff;fill-opacity:1;fill-rule:nonzero;stroke:#000000;stroke-width:0.98402;stroke-linecap:butt;stroke-linejoin:miter;stroke-miterlimit:4;stroke-dasharray:none;stroke-opacity:1"
       transform="matrix(0,-1.3333333,-1.3333333,0,0,0)" />
    <path
       id="path47"
       d="m 220.805,30.375 c 0.597,-0.266 30.89,-17.836 30.89,-17.836"
       style="fill:none;stroke:#000000;stroke-width:0.425197;stroke-linecap:butt;stroke-linejoin:round;stroke-miterlimit:4;stroke-dasharray:none;stroke-opacity:0.977636"
       transform="scale(1.3333333)" />
    <path
       id="path48"
       d="m 220.805,26.133 c 0.597,-0.266 30.89,-17.836 30.89,-17.836"
       style="fill:none;stroke:#000000;stroke-width:0.425197;stroke-linecap:butt;stroke-linejoin:round;stroke-miterlimit:4;stroke-dasharray:none;stroke-opacity:0.977636"
       transform="scale(1.3333333)" />
    <path
       id="path49"
       d="m 220.805,20.828 c 0.597,-0.266 30.89,-17.832 30.89,-17.832"
       style="fill:none;stroke:#000000;stroke-width:0.425197;stroke-linecap:butt;stroke-linejoin:round;stroke-miterlimit:4;stroke-dasharray:none;stroke-opacity:0.977636"
       transform="scale(1.3333333)" />
    <path
       id="path50"
       d="M 220.805,16.52 C 221.402,16.254 248.836,0.281 248.836,0.281"
       style="fill:none;stroke:#000000;stroke-width:0.425197;stroke-linecap:butt;stroke-linejoin:round;stroke-miterlimit:4;stroke-dasharray:none;stroke-opacity:0.977636"
       transform="scale(1.3333333)" />
    <path
       id="path51"
       d="m -11.816,232.246 h -7.77 v 7.77 h 7.77 z"
       style="fill:#ffffff;fill-opacity:1;fill-rule:nonzero;stroke:#000000;stroke-width:0.790702;stroke-linecap:butt;stroke-linejoin:miter;stroke-miterlimit:4;stroke-dasharray:none;stroke-opacity:1"
       transform="matrix(0,-1.3333333,1.3333333,0,0,0)" />
    <path
       id="path52"
       d="m 228.82,31.094 c 0.598,-0.266 22.875,-13.383 22.875,-13.383"
       style="fill:none;stroke:#000000;stroke-width:0.425197;stroke-linecap:butt;stroke-linejoin:round;stroke-miterlimit:4;stroke-dasharray:none;stroke-opacity:0.977636"
       transform="scale(1.3333333)" />
    <path
       id="path53"
       d="m 235.664,31.125 c 0.598,-0.266 16.031,-9.305 16.031,-9.305"
       style="fill:none;stroke:#000000;stroke-width:0.425197;stroke-linecap:butt;stroke-linejoin:round;stroke-miterlimit:4;stroke-dasharray:none;stroke-opacity:0.977636"
       transform="scale(1.3333333)" />
    <path
       id="path54"
       d="m 242.273,31.191 c 0.598,-0.265 9.422,-5.457 9.422,-5.457"
       style="fill:none;stroke:#000000;stroke-width:0.425197;stroke-linecap:butt;stroke-linejoin:round;stroke-miterlimit:4;stroke-dasharray:none;stroke-opacity:0.977636"
       transform="scale(1.3333333)" />
    <path
       id="path55"
       d="m 220.742,0.312 h 30.781 v 30.781 h -30.781 z"
       style="fill:none;stroke:#000000;stroke-width:0.141732;stroke-linecap:butt;stroke-linejoin:round;stroke-miterlimit:4;stroke-dasharray:none;stroke-opacity:0.977636"
       transform="scale(1.3333333)" />
    <path
       id="path56"
       d="M 236.133,15.703 118.602,83.559"
       style="fill:none;stroke:#000000;stroke-width:2.83465;stroke-linecap:butt;stroke-linejoin:miter;stroke-miterlimit:4;stroke-dasharray:none;stroke-opacity:0.977636"
       transform="scale(1.3333333)" />
    <path
       id="path57"
       d="m 220.805,6.91 c 0.597,-0.265 11.531,-6.726 11.531,-6.726"
       style="fill:none;stroke:#000000;stroke-width:0.425197;stroke-linecap:butt;stroke-linejoin:round;stroke-miterlimit:4;stroke-dasharray:none;stroke-opacity:0.977636"
       transform="scale(1.3333333)" />
    <path
       id="path58"
       d="m 220.805,12.012 c 0.597,-0.266 20.25,-11.739 20.25,-11.739"
       style="fill:none;stroke:#000000;stroke-width:0.425197;stroke-linecap:butt;stroke-linejoin:round;stroke-miterlimit:4;stroke-dasharray:none;stroke-opacity:0.977636"
       transform="scale(1.3333333)" />
    <path
       id="path59"
       d="M 215.215,83.559 H 118.602"
       style="fill:none;stroke:#000000;stroke-width:2.83465;stroke-linecap:butt;stroke-linejoin:round;stroke-miterlimit:4;stroke-dasharray:none;stroke-opacity:0.977636"
       transform="scale(1.3333333)" />
    <path
       id="path60"
       d="m 206.941,104.367 8.954,-15.504"
       style="fill:none;stroke:#000000;stroke-width:1.41732;stroke-linecap:butt;stroke-linejoin:miter;stroke-miterlimit:4;stroke-dasharray:none;stroke-opacity:1"
       transform="scale(1.3333333)" />
    <path
       id="path61"
       d="m 215.895,88.863 8.953,15.504"
       style="fill:none;stroke:#000000;stroke-width:1.41732;stroke-linecap:butt;stroke-linejoin:miter;stroke-miterlimit:4;stroke-dasharray:none;stroke-opacity:1"
       transform="scale(1.3333333)" />
    <path
       id="path62"
       d="m 202.281,104.367 h 27.211"
       style="fill:none;stroke:#000000;stroke-width:1.41732;stroke-linecap:butt;stroke-linejoin:miter;stroke-miterlimit:4;stroke-dasharray:none;stroke-opacity:1"
       transform="scale(1.3333333)" />
    <path
       id="path63"
       d="m 207.766,103.836 c 0.074,-0.207 8.082,-14.024 8.129,-14.024 0.043,0 8.05,13.813 8.128,14.024 0.02,0.051 -3.339,0.086 -8.128,0.086 -5.012,0 -8.149,-0.031 -8.129,-0.086 z"
       style="fill:#00ce99;fill-opacity:1;fill-rule:nonzero;stroke:none"
       transform="scale(1.3333333)" />
    <path
       id="path64"
       d="m 210.867,78.508 h 10.098 V 88.61 h -10.098 z"
       style="fill:#ffffff;fill-opacity:1;fill-rule:nonzero;stroke:#000000;stroke-width:1.02769;stroke-linecap:butt;stroke-linejoin:miter;stroke-miterlimit:4;stroke-dasharray:none;stroke-opacity:1"
       transform="scale(1.3333333)" />
    <path
       id="path65"
       d="m 20.746,125.965 v 22.746"
       style="fill:none;stroke:#000000;stroke-width:0.749999;stroke-linecap:butt;stroke-linejoin:miter;stroke-miterlimit:4;stroke-dasharray:none;stroke-opacity:1"
       transform="scale(1.3333333)" />
    <path
       id="path66"
       d="m 22.645,137.34 h 94.078"
       style="fill:none;stroke:#000000;stroke-width:0.749999;stroke-linecap:butt;stroke-linejoin:miter;stroke-miterlimit:4;stroke-dasharray:none;stroke-opacity:1"
       transform="scale(1.3333333)" />
    <path
       id="path67"
       d="m 30.66,140.664 -9.012,-3.312 9.012,-3.317 c -1.437,1.957 -1.43,4.637 0,6.629 z"
       style="fill:#000000;fill-opacity:0.964706;fill-rule:evenodd;stroke:#000000;stroke-width:0.515624;stroke-linecap:butt;stroke-linejoin:round;stroke-miterlimit:4;stroke-dasharray:none;stroke-opacity:0.964706"
       transform="scale(1.3333333)" />
    <path
       id="path68"
       d="m -108.707,-134.012 -9.012,-3.312 9.012,-3.317 c -1.438,1.957 -1.43,4.637 0,6.629 z"
       style="fill:#000000;fill-opacity:1;fill-rule:evenodd;stroke:#000000;stroke-width:0.515624;stroke-linecap:butt;stroke-linejoin:round;stroke-miterlimit:4;stroke-dasharray:none;stroke-opacity:1"
       transform="scale(-1.3333333)" />
    <path
       id="path69"
       d="M 118.602,126.25 V 149"
       style="fill:none;stroke:#000000;stroke-width:0.749999;stroke-linecap:butt;stroke-linejoin:miter;stroke-miterlimit:4;stroke-dasharray:none;stroke-opacity:1"
       transform="scale(1.3333333)" />
    <path
       id="path70"
       d="m 71.914,145.172 v -0.027 l -0.004,-0.012 v -0.024 l -0.004,-0.011 v -0.012 l -0.008,-0.012 -0.003,-0.012 v -0.015 l -0.012,-0.012 -0.008,-0.019 -0.004,-0.008 -0.012,-0.02 -0.023,-0.023 -0.012,-0.016 -0.008,-0.008 -0.011,-0.003 -0.004,-0.008 -0.004,-0.004 -0.012,-0.008 -0.008,-0.004 -0.011,-0.008 -0.024,-0.008 -0.004,-0.007 h -0.011 l -0.012,-0.004 -0.012,-0.008 h -0.015 l -0.012,-0.004 -0.012,-0.008 h -0.031 l -0.012,-0.004 h -0.035 l -0.016,-0.008 h -0.035 c -0.656,0 -2.75,0.239 -3.496,0.29 -0.227,0.027 -0.535,0.058 -0.535,0.605 0,0.316 0.273,0.316 0.707,0.316 1.375,0 1.41,0.258 1.41,0.481 l -0.086,0.578 -3.613,14.332 c -0.082,0.309 -0.145,0.516 -0.145,0.977 0,1.628 1.266,2.636 2.606,2.636 0.949,0 1.664,-0.574 2.156,-1.601 0.512,-1.098 0.852,-2.762 0.852,-2.813 0,-0.289 -0.246,-0.289 -0.34,-0.289 -0.285,0 -0.317,0.117 -0.403,0.52 -0.488,1.863 -1.027,3.551 -2.179,3.551 -0.864,0 -0.864,-0.915 -0.864,-1.317 0,-0.687 0.04,-0.832 0.172,-1.379 z"
       style="fill:#000000;fill-opacity:1;fill-rule:evenodd;stroke:none"
       transform="scale(1.3333333)" />
    <path
       id="path71"
       d="m 118.551,125.965 v 22.746"
       style="fill:none;stroke:#000000;stroke-width:0.749999;stroke-linecap:butt;stroke-linejoin:miter;stroke-miterlimit:4;stroke-dasharray:none;stroke-opacity:1"
       transform="scale(1.3333333)" />
    <path
       id="path72"
       d="m 120.449,137.34 h 94.082"
       style="fill:none;stroke:#000000;stroke-width:0.749999;stroke-linecap:butt;stroke-linejoin:miter;stroke-miterlimit:4;stroke-dasharray:none;stroke-opacity:1"
       transform="scale(1.3333333)" />
    <path
       id="path73"
       d="m 128.469,140.664 -9.016,-3.312 9.016,-3.317 c -1.442,1.957 -1.434,4.637 0,6.629 z"
       style="fill:#000000;fill-opacity:1;fill-rule:evenodd;stroke:#000000;stroke-width:0.515624;stroke-linecap:butt;stroke-linejoin:round;stroke-miterlimit:4;stroke-dasharray:none;stroke-opacity:1"
       transform="scale(1.3333333)" />
    <path
       id="path74"
       d="m -206.512,-134.012 -9.015,-3.312 9.015,-3.317 c -1.441,1.957 -1.433,4.637 0,6.629 z"
       style="fill:#000000;fill-opacity:1;fill-rule:evenodd;stroke:#000000;stroke-width:0.515624;stroke-linecap:butt;stroke-linejoin:round;stroke-miterlimit:4;stroke-dasharray:none;stroke-opacity:1"
       transform="scale(-1.3333333)" />
    <path
       id="path75"
       d="M 216.406,126.25 V 149"
       style="fill:none;stroke:#000000;stroke-width:0.749999;stroke-linecap:butt;stroke-linejoin:miter;stroke-miterlimit:4;stroke-dasharray:none;stroke-opacity:1"
       transform="scale(1.3333333)" />
    <path
       id="path76"
       d="m 169.723,145.172 v -0.027 l -0.008,-0.012 v -0.024 l -0.004,-0.011 v -0.012 l -0.008,-0.012 -0.004,-0.012 v -0.015 l -0.011,-0.012 -0.004,-0.019 -0.008,-0.008 -0.012,-0.02 -0.023,-0.023 -0.012,-0.016 -0.004,-0.008 -0.012,-0.003 -0.011,-0.012 -0.012,-0.008 -0.008,-0.004 -0.008,-0.008 -0.023,-0.008 -0.008,-0.007 h -0.012 l -0.011,-0.004 -0.012,-0.008 h -0.016 l -0.012,-0.004 -0.011,-0.008 h -0.028 l -0.011,-0.004 h -0.035 l -0.02,-0.008 h -0.031 c -0.656,0 -2.75,0.239 -3.5,0.29 -0.223,0.027 -0.535,0.058 -0.535,0.605 0,0.316 0.277,0.316 0.707,0.316 1.375,0 1.41,0.258 1.41,0.481 l -0.086,0.578 -3.613,14.332 c -0.082,0.309 -0.145,0.516 -0.145,0.977 0,1.628 1.266,2.636 2.606,2.636 0.949,0 1.664,-0.574 2.16,-1.601 0.511,-1.098 0.851,-2.762 0.851,-2.813 0,-0.289 -0.25,-0.289 -0.34,-0.289 -0.289,0 -0.316,0.117 -0.402,0.52 -0.488,1.863 -1.031,3.551 -2.184,3.551 -0.859,0 -0.859,-0.915 -0.859,-1.317 0,-0.687 0.039,-0.832 0.172,-1.379 z"
       style="fill:#000000;fill-opacity:1;fill-rule:evenodd;stroke:none"
       transform="scale(1.3333333)" />
    <path
       id="path77"
       d="M 332.746,49.113 V 71.859"
       style="fill:none;stroke:#000000;stroke-width:0.749999;stroke-linecap:butt;stroke-linejoin:miter;stroke-miterlimit:4;stroke-dasharray:none;stroke-opacity:1"
       transform="scale(1.3333333)" />
    <path
       id="path78"
       d="M 218.562,137.438 331.129,61.402"
       style="fill:none;stroke:#000000;stroke-width:0.749999;stroke-linecap:butt;stroke-linejoin:miter;stroke-miterlimit:4;stroke-dasharray:none;stroke-opacity:1"
       transform="scale(1.3333333)" />
    <path
       id="path79"
       d="m 92.979,198.512 -7.468,-2.747 7.467,-2.745 c -1.192,1.62 -1.187,3.839 0.001,5.492 z"
       style="fill:#000000;fill-opacity:1;fill-rule:evenodd;stroke:#000000;stroke-width:0.427279;stroke-linecap:butt;stroke-linejoin:round;stroke-miterlimit:4;stroke-dasharray:none;stroke-opacity:1"
       transform="matrix(1.3333333,-0.90064133,0.90064133,1.3333333,0,0)" />
    <path
       id="path80"
       d="m -192.255,-192.997 -7.47,-2.745 7.469,-2.748 c -1.194,1.623 -1.187,3.839 0.001,5.493 z"
       style="fill:#000000;fill-opacity:1;fill-rule:evenodd;stroke:#000000;stroke-width:0.427279;stroke-linecap:butt;stroke-linejoin:round;stroke-miterlimit:4;stroke-dasharray:none;stroke-opacity:1"
       transform="matrix(-1.3333333,0.90064133,-0.90064133,-1.3333333,0,0)" />
    <path
       id="path81"
       d="m 292.227,104.336 v -0.027 l -0.004,-0.012 v -0.024 l -0.008,-0.011 v -0.012 l -0.008,-0.023 v -0.016 l -0.012,-0.012 -0.007,-0.015 -0.004,-0.012 -0.012,-0.02 -0.024,-0.023 -0.011,-0.016 -0.008,-0.008 -0.012,-0.003 -0.012,-0.012 -0.007,-0.004 -0.008,-0.008 -0.012,-0.004 -0.012,-0.008 -0.011,-0.004 -0.004,-0.007 h -0.012 l -0.012,-0.004 -0.011,-0.008 h -0.02 l -0.008,-0.004 -0.011,-0.008 h -0.032 l -0.011,-0.004 h -0.036 l -0.015,-0.007 h -0.035 c -0.657,0 -2.75,0.238 -3.496,0.289 -0.227,0.027 -0.536,0.058 -0.536,0.605 0,0.316 0.274,0.316 0.707,0.316 1.375,0 1.411,0.258 1.411,0.481 l -0.086,0.578 -3.614,14.332 c -0.082,0.309 -0.144,0.52 -0.144,0.977 0,1.629 1.265,2.636 2.605,2.636 0.95,0 1.664,-0.574 2.157,-1.597 0.511,-1.102 0.851,-2.766 0.851,-2.817 0,-0.285 -0.246,-0.285 -0.34,-0.285 -0.285,0 -0.316,0.113 -0.402,0.516 -0.488,1.863 -1.027,3.551 -2.18,3.551 -0.863,0 -0.863,-0.914 -0.863,-1.317 0,-0.687 0.039,-0.828 0.172,-1.375 z"
       style="fill:#000000;fill-opacity:1;fill-rule:evenodd;stroke:none"
       transform="scale(1.3333333)" />
    <path
       id="path82"
       d="m 30.037,-115.037 c -1.879,-9.56 3.149,-19.139 12.082,-23.023 8.934,-3.884 19.37,-1.031 25.082,6.859"
       style="fill:none;stroke:#820000;stroke-width:2.928;stroke-linecap:butt;stroke-linejoin:miter;stroke-miterlimit:4;stroke-dasharray:none;stroke-opacity:0.964706"
       transform="matrix(1.3333333,-0.7698,-0.7698,-1.3333333,0,0)" />
    <path
       id="path83"
       d="m 144.156,88.281 -8.242,5.824 c 14.066,2.418 0,0 14.066,2.418 z"
       style="fill:#820000;fill-opacity:0.964706;fill-rule:nonzero;stroke:none"
       transform="scale(1.3333333)" />
    <path
       id="path84"
       d="m 109.625,104.367 8.953,-15.504"
       style="fill:none;stroke:#000000;stroke-width:1.41732;stroke-linecap:butt;stroke-linejoin:miter;stroke-miterlimit:4;stroke-dasharray:none;stroke-opacity:1"
       transform="scale(1.3333333)" />
    <path
       id="path85"
       d="m 118.578,88.863 8.953,15.504"
       style="fill:none;stroke:#000000;stroke-width:1.41732;stroke-linecap:butt;stroke-linejoin:miter;stroke-miterlimit:4;stroke-dasharray:none;stroke-opacity:1"
       transform="scale(1.3333333)" />
    <path
       id="path86"
       d="m 104.965,104.367 h 27.211"
       style="fill:none;stroke:#000000;stroke-width:1.41732;stroke-linecap:butt;stroke-linejoin:miter;stroke-miterlimit:4;stroke-dasharray:none;stroke-opacity:1"
       transform="scale(1.3333333)" />
    <path
       id="path87"
       d="m 110.453,103.836 c 0.07,-0.207 8.082,-14.024 8.125,-14.024 0.047,0 8.051,13.813 8.129,14.024 0.023,0.051 -3.34,0.086 -8.125,0.086 -5.016,0 -8.148,-0.031 -8.129,-0.086 z"
       style="fill:#00ce99;fill-opacity:1;fill-rule:nonzero;stroke:none"
       transform="scale(1.3333333)" />
    <path
       id="path88"
       d="m 113.551,78.508 h 10.098 V 88.61 h -10.098 z"
       style="fill:#ffffff;fill-opacity:1;fill-rule:nonzero;stroke:#000000;stroke-width:1.02769;stroke-linecap:butt;stroke-linejoin:miter;stroke-miterlimit:4;stroke-dasharray:none;stroke-opacity:1"
       transform="scale(1.3333333)" />
    <path
       id="path89"
       d="m 98.125,118.953 0.008,-0.027 0.004,-0.024 0.008,-0.043 0.023,-0.086 0.012,-0.039 0.023,-0.07 0.008,-0.035 0.012,-0.027 0.011,-0.032 0.012,-0.023 0.012,-0.027 0.012,-0.024 0.007,-0.019 0.012,-0.024 0.012,-0.019 0.047,-0.063 0.015,-0.012 0.012,-0.011 0.016,-0.012 0.011,-0.012 0.016,-0.008 0.02,-0.011 0.015,-0.004 0.016,-0.008 0.015,-0.004 0.02,-0.008 0.023,-0.004 0.016,-0.007 c 0.168,-0.04 0.773,-0.04 1.16,-0.04 1.852,0 2.68,0.075 2.68,1.508 0,0.27 -0.071,0.989 -0.145,1.469 -0.019,0.07 -0.058,0.297 -0.058,0.348 0,0.109 0.058,0.242 0.215,0.242 0.21,0 0.246,-0.152 0.277,-0.426 l 0.496,-3.195 c 0.023,-0.071 0.043,-0.258 0.043,-0.317 0,-0.199 -0.184,-0.199 -0.5,-0.199 H 92.523 c -0.449,0 -0.461,0.024 -0.589,0.371 l -1.102,3.227 c -0.02,0.043 -0.109,0.297 -0.109,0.336 0,0.109 0.089,0.203 0.222,0.203 0.184,0 0.2,-0.094 0.309,-0.387 0.992,-2.848 1.465,-3.18 4.187,-3.18 h 0.715 c 0.516,0 0.516,0.075 0.516,0.219 0,0.113 -0.055,0.332 -0.074,0.383 l -2.457,9.809 c -0.168,0.683 -0.227,0.882 -2.192,0.882 -0.664,0 -0.769,0 -0.769,0.352 0,0.219 0.199,0.219 0.308,0.219 0.504,0 1.016,-0.035 1.508,-0.035 0.516,0 1.051,-0.024 1.563,-0.024 0.511,0 1.027,0.024 1.527,0.024 0.531,0 1.082,0.035 1.598,0.035 0.183,0 0.398,0 0.398,-0.367 0,-0.204 -0.141,-0.204 -0.621,-0.204 -0.461,0 -0.695,0 -1.172,-0.035 -0.539,-0.058 -0.684,-0.109 -0.684,-0.402 0,-0.024 0,-0.117 0.071,-0.387 z"
       style="fill:#000000;fill-opacity:1;fill-rule:evenodd;stroke:none"
       transform="scale(1.3333333)" />
    <path
       id="path90"
       d="m 117.539,52.34 h 99.098"
       style="fill:none;stroke:#810000;stroke-width:1.41732;stroke-linecap:butt;stroke-linejoin:miter;stroke-miterlimit:4;stroke-dasharray:none;stroke-opacity:1"
       transform="scale(1.3333333)" />
    <path
       id="path91"
       d="m 215.914,52.469 v 20.59"
       style="fill:none;stroke:#810000;stroke-width:1.41732;stroke-linecap:butt;stroke-linejoin:miter;stroke-miterlimit:4;stroke-dasharray:none;stroke-opacity:1"
       transform="scale(1.3333333)" />
    <path
       id="path92"
       d="m -67.391,215.914 2.836,-2.832 -9.922,2.832 9.922,2.836 z"
       style="fill:#810000;fill-opacity:1;fill-rule:evenodd;stroke:#810000;stroke-width:0.755906;stroke-linecap:butt;stroke-linejoin:miter;stroke-miterlimit:4;stroke-dasharray:none;stroke-opacity:1"
       transform="matrix(0,-1.3333333,1.3333333,0,0,0)" />
    <path
       id="path93"
       d="M 152.434,52.148 V 72.551"
       style="fill:none;stroke:#810000;stroke-width:1.41732;stroke-linecap:butt;stroke-linejoin:miter;stroke-miterlimit:4;stroke-dasharray:none;stroke-opacity:1"
       transform="scale(1.3333333)" />
    <path
       id="path94"
       d="m -66.883,152.434 2.836,-2.836 -9.922,2.836 9.922,2.832 z"
       style="fill:#810000;fill-opacity:1;fill-rule:evenodd;stroke:#810000;stroke-width:0.755906;stroke-linecap:butt;stroke-linejoin:miter;stroke-miterlimit:4;stroke-dasharray:none;stroke-opacity:1"
       transform="matrix(1.8526133e-6,-1.3333333,1.3333333,1.8526133e-6,0,0)" />
    <path
       id="path95"
       d="M 186.473,51.961 V 73.309"
       style="fill:none;stroke:#810000;stroke-width:1.41732;stroke-linecap:butt;stroke-linejoin:miter;stroke-miterlimit:4;stroke-dasharray:none;stroke-opacity:1"
       transform="scale(1.3333333)" />
    <path
       id="path96"
       d="m -67.64,186.473 2.836,-2.836 -9.922,2.836 9.922,2.832 z"
       style="fill:#810000;fill-opacity:1;fill-rule:evenodd;stroke:#810000;stroke-width:0.755906;stroke-linecap:butt;stroke-linejoin:miter;stroke-miterlimit:4;stroke-dasharray:none;stroke-opacity:1"
       transform="matrix(1.7704267e-6,-1.3333333,1.3333333,1.7704267e-6,0,0)" />
    <path
       id="path97"
       d="M 118.234,52.34 V 73.309"
       style="fill:none;stroke:#810000;stroke-width:1.41732;stroke-linecap:butt;stroke-linejoin:miter;stroke-miterlimit:4;stroke-dasharray:none;stroke-opacity:1"
       transform="scale(1.3333333)" />
    <path
       id="path98"
       d="m -67.64,118.235 2.836,-2.836 -9.922,2.836 9.922,2.832 z"
       style="fill:#810000;fill-opacity:1;fill-rule:evenodd;stroke:#810000;stroke-width:0.755906;stroke-linecap:butt;stroke-linejoin:miter;stroke-miterlimit:4;stroke-dasharray:none;stroke-opacity:1"
       transform="matrix(5.4072133e-6,-1.3333333,1.3333333,5.4072133e-6,0,0)" />
    <path
       id="path99"
       d="m 129.648,34.5 -0.003,-0.008 v -0.023 l -0.004,-0.008 v -0.008 l -0.004,-0.008 v -0.007 l -0.004,-0.008 -0.004,-0.012 -0.004,-0.008 -0.004,-0.012 -0.008,-0.015 -0.019,-0.02 -0.004,-0.008 -0.008,-0.007 -0.008,-0.004 -0.008,-0.008 -0.007,-0.004 -0.008,-0.008 -0.012,-0.004 -0.008,-0.004 -0.015,-0.004 -0.008,-0.003 h -0.012 l -0.012,-0.004 h -0.011 l -0.012,-0.004 h -0.012 c -0.219,0 -1.015,0.797 -1.351,1.375 -0.446,-1.074 -1.223,-1.391 -1.86,-1.391 v 0.434 c 1.293,0 1.578,1.613 1.578,1.75 0,0.129 -1.097,4.492 -1.156,4.574 -0.301,0.559 -1.414,1.828 -2.535,1.828 -1.195,0 -1.273,-1.535 -1.273,-1.871 0,-0.957 0.574,-3.129 0.918,-3.965 0.613,-1.48 1.648,-2.316 2.468,-2.316 v -0.434 c -2.351,0 -4.8,2.949 -4.8,5.84 0,1.945 1.175,3.187 2.624,3.187 0.864,0 1.641,-0.476 2.356,-1.195 -0.18,0.695 -0.836,3.391 -0.898,3.574 -0.157,0.555 -0.317,0.637 -1.434,0.657 -0.258,0 -0.461,0 -0.461,0.398 0,0.016 0,0.219 0.262,0.219 0.64,0 1.332,-0.063 1.996,-0.063 0.676,0 1.394,0.063 2.051,0.063 0.097,0 0.355,0 0.355,-0.403 0,-0.214 -0.191,-0.214 -0.512,-0.214 -0.961,0 -0.961,-0.145 -0.961,-0.321 0,-0.144 0.043,-0.265 0.079,-0.437 z"
       style="fill:#000000;fill-opacity:1;fill-rule:evenodd;stroke:none"
       transform="scale(1.3333333)" />
    <path
       id="path100"
       d="m 281.145,17.828 -0.008,0.027 -0.004,0.032 -0.008,0.027 -0.004,0.031 -0.016,0.067 -0.015,0.062 -0.012,0.063 -0.016,0.066 -0.015,0.063 -0.02,0.066 -0.004,0.031 -0.015,0.055 -0.004,0.027 -0.008,0.032 -0.004,0.027 -0.012,0.07 -0.007,0.039 -0.004,0.016 -0.004,0.019 v 0.036 c 0,0.355 0.281,0.539 0.574,0.539 0.242,0 0.598,-0.157 0.738,-0.555 0.024,-0.047 0.262,-0.977 0.379,-1.477 l 0.442,-1.793 c 0.117,-0.441 0.238,-0.878 0.336,-1.343 0.082,-0.336 0.246,-0.91 0.265,-0.993 0.301,-0.617 1.356,-2.433 3.242,-2.433 0.899,0 1.082,0.738 1.082,1.394 0,0.5 -0.14,1.055 -0.296,1.657 l -0.559,2.316 -0.398,1.516 c -0.086,0.398 -0.266,1.07 -0.266,1.172 0,0.355 0.281,0.539 0.582,0.539 0.617,0 0.738,-0.5 0.894,-1.141 0.282,-1.113 1.02,-4.027 1.204,-4.801 0.054,-0.261 1.109,-2.652 3.289,-2.652 0.855,0 1.07,0.68 1.07,1.394 0,1.141 -0.836,3.411 -1.234,4.465 -0.18,0.481 -0.258,0.703 -0.258,1.102 0,0.933 0.691,1.633 1.633,1.633 1.878,0 2.613,-2.911 2.613,-3.071 0,-0.199 -0.18,-0.199 -0.235,-0.199 -0.199,0 -0.199,0.059 -0.3,0.359 -0.301,1.059 -0.942,2.469 -2.035,2.469 -0.344,0 -0.485,-0.199 -0.485,-0.656 0,-0.5 0.188,-0.98 0.363,-1.414 0.379,-1.035 1.215,-3.246 1.215,-4.387 0,-1.293 -0.8,-2.129 -2.293,-2.129 -1.496,0 -2.507,0.871 -3.246,1.93 -0.023,-0.262 -0.078,-0.937 -0.644,-1.414 -0.496,-0.418 -1.133,-0.516 -1.633,-0.516 -1.793,0 -2.77,1.274 -3.106,1.727 -0.101,-1.137 -0.941,-1.727 -1.839,-1.727 -0.914,0 -1.293,0.77 -1.477,1.129 -0.355,0.699 -0.617,1.875 -0.617,1.942 0,0.199 0.199,0.199 0.242,0.199 0.203,0 0.219,-0.027 0.336,-0.465 0.34,-1.414 0.738,-2.371 1.457,-2.371 0.32,0 0.621,0.156 0.621,0.914 0,0.422 -0.062,0.645 -0.32,1.676 z"
       style="fill:#000000;fill-opacity:1;fill-rule:evenodd;stroke:none"
       transform="scale(1.3333333)" />
    <path
       id="path101"
       d="m 69.969,72.793 0.004,-0.008 v -0.008 l 0.015,-0.031 0.004,-0.016 0.008,-0.019 0.004,-0.016 0.008,-0.015 0.004,-0.016 0.007,-0.016 v -0.003 l 0.004,-0.012 v -0.004 l 0.008,-0.016 v -0.004 l 0.004,-0.007 v -0.028 l 0.004,-0.004 c 0,-0.015 0,-0.172 -0.188,-0.172 -0.144,0 -0.175,0.094 -0.203,0.192 -1.027,2.332 -1.605,3.383 -4.304,3.383 h -2.297 c -0.223,0 -0.254,0 -0.348,-0.012 -0.156,-0.016 -0.207,-0.031 -0.207,-0.16 0,-0.043 0,-0.078 0.082,-0.36 l 1.07,-4.304 h 1.559 c 1.344,0 1.344,0.328 1.344,0.726 0,0.11 0,0.301 -0.117,0.77 -0.028,0.078 -0.043,0.129 -0.043,0.176 0,0.078 0.058,0.171 0.203,0.171 0.129,0 0.172,-0.078 0.238,-0.312 l 0.898,-3.691 c 0,-0.094 -0.082,-0.172 -0.195,-0.172 -0.137,0 -0.172,0.093 -0.215,0.285 -0.332,1.199 -0.621,1.558 -2.066,1.558 h -1.481 l 0.95,-3.796 c 0.132,-0.551 0.156,-0.614 0.847,-0.614 h 2.219 c 1.922,0 2.399,0.457 2.399,1.75 0,0.375 0,0.407 -0.067,0.836 0,0.094 -0.016,0.203 -0.016,0.285 0,0.079 0.051,0.184 0.188,0.184 0.176,0 0.195,-0.094 0.227,-0.395 l 0.316,-2.722 c 0.043,-0.422 -0.035,-0.422 -0.43,-0.422 h -7.953 c -0.316,0 -0.473,0 -0.473,0.316 0,0.168 0.141,0.168 0.438,0.168 0.582,0 1.023,0 1.023,0.282 0,0.066 0,0.097 -0.082,0.382 l -2.074,8.332 c -0.156,0.618 -0.191,0.739 -1.437,0.739 -0.266,0 -0.442,0 -0.442,0.304 0,0.188 0.145,0.188 0.442,0.188 h 8.179 c 0.368,0 0.379,-0.016 0.489,-0.266 z"
       style="fill:#000000;fill-opacity:1;fill-rule:evenodd;stroke:none"
       transform="scale(1.3333333)" />
    <path
       id="path102"
       d="m 77.23,66.914 0.012,-0.047 0.024,-0.101 0.015,-0.043 0.024,-0.086 0.047,-0.106 0.019,-0.035 0.02,-0.027 0.023,-0.031 0.024,-0.028 0.027,-0.027 0.031,-0.02 0.035,-0.023 0.035,-0.02 0.039,-0.019 0.043,-0.016 0.047,-0.015 0.051,-0.012 0.031,-0.008 0.028,-0.004 0.031,-0.008 0.027,-0.004 0.035,-0.004 0.032,-0.007 0.035,-0.004 h 0.039 l 0.035,-0.008 0.078,-0.008 h 0.086 l 0.043,-0.004 0.047,-0.004 h 0.098 l 0.05,-0.004 h 0.219 c 0.379,0 0.504,0 0.504,-0.304 0,-0.184 -0.172,-0.184 -0.238,-0.184 -0.457,0 -1.625,0.051 -2.078,0.051 -0.477,0 -1.621,-0.051 -2.094,-0.051 -0.109,0 -0.316,0 -0.316,0.317 0,0.171 0.14,0.171 0.437,0.171 0.66,0 1.09,0 1.09,0.301 0,0.078 0,0.11 -0.031,0.254 l -2.125,8.488 c -0.145,0.582 -0.192,0.739 -1.438,0.739 -0.359,0 -0.504,0 -0.504,0.316 0,0.176 0.192,0.176 0.235,0.176 0.46,0 1.609,-0.051 2.07,-0.051 0.473,0 1.637,0.051 2.109,0.051 0.125,0 0.317,0 0.317,-0.301 0,-0.191 -0.133,-0.191 -0.477,-0.191 -0.281,0 -0.359,0 -0.676,-0.028 -0.332,-0.035 -0.39,-0.093 -0.39,-0.265 0,-0.129 0.031,-0.254 0.058,-0.368 z"
       style="fill:#000000;fill-opacity:1;fill-rule:evenodd;stroke:none"
       transform="scale(1.3333333)" />
    <path
       id="path103"
       d="m 237.602,38.383 v -0.016 l -0.004,-0.008 v -0.011 l -0.004,-0.008 v -0.004 l -0.004,-0.008 -0.004,-0.004 -0.004,-0.008 v -0.007 l -0.004,-0.004 -0.008,-0.016 -0.004,-0.004 -0.004,-0.008 -0.007,-0.004 -0.004,-0.007 -0.008,-0.008 h -0.008 l -0.004,-0.008 -0.011,-0.004 -0.004,-0.008 h -0.012 L 237.5,38.234 h -0.004 l -0.004,-0.004 h -0.008 l -0.004,-0.003 h -0.011 l -0.004,-0.004 h -0.039 c -0.043,0 -0.063,0.015 -0.238,0.187 l -1.098,1.215 c -0.141,-0.223 -0.867,-1.402 -2.617,-1.402 -3.512,0 -7.063,3.484 -7.063,7.136 0,2.504 1.754,4.317 4.305,4.317 0.691,0 1.402,-0.141 1.969,-0.375 0.789,-0.313 1.086,-0.645 1.375,-0.961 0.14,0.394 0.546,0.976 0.703,0.976 0.082,0 0.113,-0.046 0.113,-0.062 0.031,-0.031 0.187,-0.629 0.266,-0.961 l 0.3,-1.215 c 0.063,-0.266 0.141,-0.531 0.207,-0.805 0.172,-0.707 0.188,-0.738 1.086,-0.757 0.078,0 0.25,-0.016 0.25,-0.313 0,-0.113 -0.078,-0.168 -0.199,-0.168 -0.367,0 -1.293,0.043 -1.656,0.043 -0.488,0 -1.719,-0.043 -2.211,-0.043 -0.137,0 -0.328,0 -0.328,0.309 0,0.172 0.129,0.172 0.476,0.172 0.012,0 0.473,0 0.832,0.035 0.411,0.047 0.489,0.094 0.489,0.297 0,0.144 -0.172,0.855 -0.328,1.433 -0.442,1.735 -2.493,1.907 -3.047,1.907 -1.512,0 -3.16,-0.895 -3.16,-3.305 0,-0.488 0.152,-3.09 1.808,-5.141 0.848,-1.074 2.379,-2.031 3.938,-2.031 1.609,0 2.539,1.211 2.539,3.039 0,0.633 -0.047,0.648 -0.047,0.809 0,0.156 0.168,0.156 0.234,0.156 0.203,0 0.203,-0.035 0.281,-0.317 z"
       style="fill:#000000;fill-opacity:1;fill-rule:evenodd;stroke:none"
       transform="scale(1.3333333)" />
    <path
       id="path104"
       d="m 243.895,39.785 0.023,-0.101 0.012,-0.047 0.015,-0.047 0.024,-0.086 0.047,-0.106 0.019,-0.035 0.02,-0.027 0.023,-0.031 0.024,-0.028 0.027,-0.023 0.031,-0.024 0.035,-0.023 0.035,-0.019 0.04,-0.016 0.042,-0.02 0.047,-0.015 0.051,-0.012 0.031,-0.004 0.028,-0.008 0.031,-0.008 0.027,-0.003 0.035,-0.004 0.032,-0.008 0.035,-0.004 h 0.039 l 0.035,-0.008 0.078,-0.008 h 0.086 l 0.043,-0.004 0.047,-0.004 h 0.098 l 0.05,-0.003 h 0.219 c 0.379,0 0.504,0 0.504,-0.305 0,-0.184 -0.172,-0.184 -0.238,-0.184 -0.457,0 -1.625,0.051 -2.078,0.051 -0.477,0 -1.621,-0.051 -2.094,-0.051 -0.109,0 -0.316,0 -0.316,0.317 0,0.172 0.14,0.172 0.437,0.172 0.664,0 1.09,0 1.09,0.3 0,0.079 0,0.11 -0.031,0.254 l -2.125,8.489 c -0.145,0.582 -0.192,0.738 -1.438,0.738 -0.359,0 -0.504,0 -0.504,0.316 0,0.176 0.192,0.176 0.235,0.176 0.461,0 1.609,-0.051 2.07,-0.051 0.473,0 1.637,0.051 2.109,0.051 0.125,0 0.317,0 0.317,-0.301 0,-0.191 -0.129,-0.191 -0.477,-0.191 -0.281,0 -0.359,0 -0.676,-0.028 -0.332,-0.035 -0.39,-0.093 -0.39,-0.265 0,-0.129 0.031,-0.254 0.058,-0.367 z"
       style="fill:#000000;fill-opacity:1;fill-rule:evenodd;stroke:none"
       transform="scale(1.3333333)" />
    <path
       id="path105"
       d="m 247.117,47.328 h 1.723 v -0.394 h -1.723 V 44.91 h -0.375 c -0.008,0.988 -0.457,2.078 -1.515,2.113 v 0.305 h 1.023 v 2.977 c 0,1.238 0.922,1.488 1.539,1.488 0.742,0 1.246,-0.629 1.246,-1.496 v -0.609 h -0.375 v 0.597 c 0,0.746 -0.348,1.156 -0.777,1.156 -0.766,0 -0.766,-0.925 -0.766,-1.125 z"
       style="fill:#000000;fill-opacity:1;fill-rule:evenodd;stroke:none"
       transform="scale(1.3333333)" />
    <path
       id="path106"
       d="m 33.582,65.824 v -0.23 l -0.004,-0.012 -0.004,-0.023 v -0.02 L 33.566,65.523 33.562,65.504 33.555,65.488 33.551,65.473 33.535,65.449 33.516,65.43 33.5,65.418 33.488,65.41 33.473,65.406 33.457,65.398 H 33.445 L 33.441,65.395 33.43,65.391 H 33.418 L 33.41,65.387 h -0.012 l -0.011,-0.004 h -0.11 l -0.015,-0.004 h -0.067 c -1.058,1.09 -2.558,1.09 -3.101,1.09 V 67 c 0.34,0 1.344,0 2.226,-0.445 v 8.836 c 0,0.617 -0.047,0.82 -1.582,0.82 h -0.547 v 0.531 c 0.598,-0.054 2.082,-0.054 2.762,-0.054 0.684,0 2.164,0 2.762,0.054 v -0.531 h -0.543 c -1.535,0 -1.59,-0.188 -1.59,-0.82 z"
       style="fill:#000000;fill-opacity:1;fill-rule:evenodd;stroke:none"
       transform="scale(1.3333333)" />
    <path
       id="path107"
       d="m 105.688,74.676 1.808,-1.758 c 2.656,-2.352 3.684,-3.27 3.684,-4.977 0,-1.949 -1.535,-3.312 -3.618,-3.312 -1.929,0 -3.191,1.574 -3.191,3.09 0,0.957 0.856,0.957 0.902,0.957 0.293,0 0.891,-0.207 0.891,-0.906 0,-0.446 -0.305,-0.891 -0.906,-0.891 -0.133,0 -0.168,0 -0.219,0.019 0.391,-1.109 1.313,-1.742 2.301,-1.742 1.551,0 2.289,1.387 2.289,2.785 0,1.364 -0.856,2.711 -1.793,3.77 l -3.27,3.648 c -0.195,0.188 -0.195,0.219 -0.195,0.633 h 6.328 l 0.481,-2.969 h -0.43 c -0.086,0.512 -0.199,1.262 -0.371,1.52 -0.125,0.133 -1.246,0.133 -1.621,0.133 z"
       style="fill:#000000;fill-opacity:1;fill-rule:evenodd;stroke:none"
       transform="scale(1.3333333)" />
    <path
       id="path108"
       d="m 205.59,69.949 0.133,-0.047 0.125,-0.05 0.129,-0.051 0.117,-0.059 0.121,-0.058 0.117,-0.067 0.113,-0.07 0.11,-0.074 0.105,-0.075 0.106,-0.078 0.097,-0.082 0.098,-0.086 0.094,-0.09 0.086,-0.093 0.086,-0.09 0.082,-0.102 0.078,-0.097 0.07,-0.106 0.07,-0.101 0.125,-0.219 0.055,-0.109 0.047,-0.114 0.051,-0.117 0.035,-0.117 0.039,-0.113 0.031,-0.122 0.024,-0.124 0.019,-0.122 0.016,-0.125 0.004,-0.121 0.004,-0.129 c 0,-1.394 -1.5,-2.355 -3.137,-2.355 -1.723,0 -3.02,1.027 -3.02,2.324 0,0.563 0.375,0.887 0.871,0.887 0.528,0 0.871,-0.375 0.871,-0.871 0,-0.848 -0.804,-0.848 -1.054,-0.848 0.523,-0.836 1.652,-1.062 2.265,-1.062 0.696,0 1.637,0.375 1.637,1.91 0,0.207 -0.039,1.195 -0.48,1.949 -0.508,0.816 -1.09,0.863 -1.512,0.887 -0.141,0.015 -0.547,0.047 -0.672,0.047 -0.133,0.015 -0.258,0.035 -0.258,0.207 0,0.183 0.125,0.183 0.414,0.183 h 0.746 c 1.407,0 2.036,1.16 2.036,2.836 0,2.317 -1.176,2.813 -1.93,2.813 -0.734,0 -2.016,-0.289 -2.606,-1.293 0.59,0.082 1.122,-0.297 1.122,-0.942 0,-0.613 -0.458,-0.953 -0.958,-0.953 -0.406,0 -0.953,0.238 -0.953,0.988 0,1.551 1.586,2.676 3.45,2.676 2.078,0 3.632,-1.551 3.632,-3.289 0,-1.402 -1.078,-2.726 -2.851,-3.086 z"
       style="fill:#000000;fill-opacity:1;fill-rule:evenodd;stroke:none"
       transform="scale(1.3333333)" />
    <path
       id="path109"
       d="m 259.945,17.84 v 1.484 c 0,0.617 -0.031,0.801 -1.293,0.801 h -0.359 v 0.531 c 0.699,-0.054 1.586,-0.054 2.305,-0.054 0.718,0 1.621,0 2.316,0.054 v -0.531 h -0.355 c -1.266,0 -1.297,-0.184 -1.297,-0.801 V 17.84 h 1.707 v -0.528 h -1.707 V 9.551 c 0,-0.344 0,-0.446 -0.274,-0.446 -0.156,0 -0.203,0 -0.34,0.211 l -5.238,7.996 h 0.481 l 4.16,-6.359 v 6.359 h -4.641 v 0.528 z"
       style="fill:#000000;fill-opacity:1;fill-rule:evenodd;stroke:none"
       transform="scale(1.3333333)" />
    <path
       id="path110"
       d="m 358.645,17.141 -0.004,-0.192 -0.008,-0.183 -0.024,-0.184 -0.027,-0.184 -0.031,-0.179 -0.047,-0.176 -0.047,-0.172 -0.059,-0.168 -0.062,-0.168 -0.07,-0.16 -0.075,-0.156 -0.086,-0.153 -0.085,-0.144 -0.098,-0.141 -0.098,-0.136 -0.105,-0.133 -0.114,-0.121 -0.117,-0.121 -0.125,-0.11 -0.125,-0.105 -0.129,-0.098 -0.14,-0.09 -0.137,-0.086 -0.144,-0.074 -0.149,-0.07 -0.148,-0.059 -0.161,-0.051 -0.156,-0.043 -0.164,-0.031 -0.164,-0.023 -0.168,-0.02 -0.172,-0.004 c -0.82,0 -1.554,0.274 -2.168,0.867 v -3.32 c 0.344,0.098 0.907,0.219 1.45,0.219 2.097,0 3.289,-1.551 3.289,-1.777 0,-0.102 -0.047,-0.188 -0.172,-0.188 -0.016,0 -0.047,0 -0.133,0.055 -0.34,0.152 -1.176,0.492 -2.32,0.492 -0.68,0 -1.465,-0.121 -2.27,-0.477 -0.133,-0.047 -0.172,-0.047 -0.203,-0.047 -0.172,0 -0.172,0.133 -0.172,0.403 v 5.051 c 0,0.304 0,0.445 0.242,0.445 0.117,0 0.149,-0.055 0.219,-0.152 0.187,-0.274 0.82,-1.196 2.199,-1.196 0.887,0 1.317,0.785 1.449,1.09 0.278,0.633 0.313,1.297 0.313,2.152 0,0.594 0,1.622 -0.414,2.336 -0.406,0.664 -1.039,1.11 -1.824,1.11 -1.246,0 -2.215,-0.907 -2.508,-1.91 0.051,0.015 0.105,0.031 0.293,0.031 0.562,0 0.851,-0.426 0.851,-0.836 0,-0.41 -0.289,-0.832 -0.851,-0.832 -0.242,0 -0.84,0.117 -0.84,0.906 0,1.465 1.176,3.113 3.094,3.113 1.972,0 3.715,-1.636 3.715,-3.8 z"
       style="fill:#000000;fill-opacity:1;fill-rule:evenodd;stroke:none"
       transform="scale(1.3333333)" />
    <path
       id="path111"
       d="m 62.941,105.934 v -0.032 l -0.003,-0.007 v -0.004 l -0.004,-0.004 -0.008,-0.016 v -0.008 l -0.008,-0.011 -0.004,-0.004 -0.016,-0.024 -0.011,-0.012 -0.004,-0.007 -0.012,-0.016 -0.008,-0.008 -0.004,-0.008 -0.007,-0.007 -0.008,-0.004 -0.004,-0.008 -0.008,-0.012 -0.031,-0.031 -0.008,-0.012 -0.012,-0.011 -0.011,-0.008 -0.016,-0.024 -0.012,-0.011 -0.012,-0.008 -0.011,-0.012 -0.012,-0.016 -0.012,-0.011 -0.015,-0.012 -0.008,-0.012 -0.016,-0.015 -0.015,-0.012 c -2.223,-2.246 -2.789,-5.609 -2.789,-8.332 0,-3.098 0.675,-6.203 2.863,-8.422 0.226,-0.219 0.226,-0.254 0.226,-0.305 0,-0.125 -0.062,-0.176 -0.171,-0.176 -0.18,0 -1.778,1.208 -2.829,3.465 -0.914,1.965 -1.125,3.942 -1.125,5.438 0,1.39 0.196,3.539 1.172,5.555 1.067,2.191 2.602,3.343 2.782,3.343 0.109,0 0.171,-0.051 0.171,-0.179 z"
       style="fill:#000000;fill-opacity:1;fill-rule:evenodd;stroke:none"
       transform="scale(1.3333333)" />
    <path
       id="path112"
       d="M 69.188,90.266 V 90.043 L 69.184,90.027 V 90.016 L 69.176,89.969 69.172,89.953 69.168,89.934 69.152,89.902 69.148,89.887 69.137,89.879 69.129,89.867 69.113,89.855 69.105,89.844 69.09,89.836 69.07,89.832 69.062,89.828 69.059,89.824 H 69.047 L 69.035,89.82 69.027,89.816 H 69.02 L 69.004,89.812 H 68.992 L 68.98,89.809 h -0.023 l -0.016,-0.004 h -0.074 l -0.015,-0.004 h -0.071 c -1.105,1.14 -2.668,1.14 -3.242,1.14 v 0.555 c 0.359,0 1.41,0 2.332,-0.465 v 9.227 c 0,0.64 -0.051,0.851 -1.656,0.851 h -0.567 v 0.555 c 0.625,-0.059 2.172,-0.059 2.879,-0.059 0.715,0 2.262,0 2.891,0.059 v -0.555 h -0.57 c -1.606,0 -1.66,-0.191 -1.66,-0.851 z"
       style="fill:#000000;fill-opacity:1;fill-rule:evenodd;stroke:none"
       transform="scale(1.3333333)" />
    <path
       id="path113"
       d="m 78.016,97.215 v -0.41 l -0.004,-0.149 -0.016,-0.301 -0.023,-0.312 -0.032,-0.328 -0.035,-0.34 -0.051,-0.348 -0.054,-0.359 -0.074,-0.367 -0.082,-0.367 -0.094,-0.375 -0.11,-0.379 -0.125,-0.383 -0.14,-0.383 -0.078,-0.187 -0.078,-0.192 -0.086,-0.187 -0.09,-0.192 c -1.063,-2.187 -2.594,-3.344 -2.774,-3.344 -0.105,0 -0.175,0.067 -0.175,0.176 0,0.051 0,0.086 0.332,0.41 1.746,1.758 2.765,4.594 2.765,8.317 0,3.043 -0.66,6.176 -2.871,8.422 -0.226,0.211 -0.226,0.25 -0.226,0.297 0,0.109 0.07,0.179 0.175,0.179 0.18,0 1.778,-1.211 2.832,-3.468 0.903,-1.957 1.114,-3.934 1.114,-5.43 z"
       style="fill:#000000;fill-opacity:1;fill-rule:evenodd;stroke:none"
       transform="scale(1.3333333)" />
    <path
       id="path114"
       d="m 165.691,105.809 v -0.032 l -0.003,-0.007 v -0.004 l -0.004,-0.008 v -0.008 l -0.004,-0.008 -0.004,-0.004 -0.008,-0.011 -0.004,-0.008 -0.008,-0.012 -0.008,-0.008 -0.015,-0.023 -0.012,-0.016 -0.008,-0.004 -0.004,-0.008 -0.007,-0.007 -0.004,-0.008 -0.032,-0.031 -0.007,-0.012 -0.039,-0.039 -0.004,-0.012 -0.012,-0.008 -0.024,-0.023 -0.007,-0.012 -0.016,-0.012 -0.066,-0.066 c -2.223,-2.242 -2.789,-5.606 -2.789,-8.332 0,-3.098 0.675,-6.199 2.863,-8.418 0.226,-0.219 0.226,-0.254 0.226,-0.309 0,-0.125 -0.062,-0.175 -0.171,-0.175 -0.176,0 -1.778,1.211 -2.829,3.468 -0.914,1.961 -1.125,3.938 -1.125,5.434 0,1.391 0.196,3.539 1.176,5.555 1.063,2.191 2.602,3.347 2.778,3.347 0.109,0 0.171,-0.05 0.171,-0.179 z"
       style="fill:#000000;fill-opacity:1;fill-rule:evenodd;stroke:none"
       transform="scale(1.3333333)" />
    <path
       id="path115"
       d="m 168.965,100.164 1.89,-1.832 c 2.774,-2.457 3.848,-3.418 3.848,-5.195 0,-2.035 -1.601,-3.461 -3.773,-3.461 -2.016,0 -3.336,1.644 -3.336,3.226 0,0.996 0.894,0.996 0.945,0.996 0.305,0 0.926,-0.214 0.926,-0.941 0,-0.465 -0.32,-0.93 -0.945,-0.93 -0.141,0 -0.18,0 -0.231,0.016 0.41,-1.156 1.371,-1.813 2.402,-1.813 1.621,0 2.391,1.446 2.391,2.907 0,1.422 -0.891,2.828 -1.867,3.933 l -3.422,3.809 c -0.199,0.195 -0.199,0.23 -0.199,0.66 h 6.605 l 0.504,-3.101 h -0.445 c -0.09,0.539 -0.211,1.32 -0.391,1.589 -0.129,0.137 -1.301,0.137 -1.695,0.137 z"
       style="fill:#000000;fill-opacity:1;fill-rule:evenodd;stroke:none"
       transform="scale(1.3333333)" />
    <path
       id="path116"
       d="m 180.77,97.086 v -0.27 l -0.004,-0.14 -0.004,-0.145 -0.016,-0.301 -0.019,-0.316 -0.036,-0.328 -0.035,-0.34 -0.051,-0.344 -0.054,-0.363 -0.074,-0.363 -0.082,-0.367 -0.09,-0.379 -0.114,-0.379 -0.125,-0.379 -0.136,-0.383 -0.082,-0.191 -0.078,-0.188 -0.086,-0.191 -0.09,-0.188 c -1.063,-2.187 -2.594,-3.347 -2.774,-3.347 -0.105,0 -0.175,0.07 -0.175,0.175 0,0.055 0,0.09 0.332,0.411 1.746,1.761 2.765,4.593 2.765,8.316 0,3.043 -0.66,6.18 -2.871,8.422 -0.226,0.211 -0.226,0.25 -0.226,0.301 0,0.105 0.07,0.179 0.175,0.179 0.18,0 1.778,-1.211 2.832,-3.472 0.907,-1.954 1.118,-3.93 1.118,-5.43 z"
       style="fill:#000000;fill-opacity:1;fill-rule:evenodd;stroke:none"
       transform="scale(1.3333333)" />
    <path
       id="path117"
       d="m 161.168,47.129 v -0.031 l -0.004,-0.008 v -0.004 l -0.004,-0.004 -0.012,-0.023 -0.007,-0.012 -0.004,-0.008 -0.008,-0.008 -0.004,-0.011 -0.012,-0.012 -0.008,-0.012 -0.019,-0.019 -0.008,-0.016 -0.008,-0.008 -0.008,-0.004 -0.007,-0.011 -0.008,-0.008 -0.004,-0.008 -0.008,-0.008 -0.012,-0.008 -0.007,-0.011 -0.012,-0.012 -0.008,-0.012 -0.031,-0.031 -0.008,-0.012 -0.012,-0.008 -0.078,-0.078 c -2.222,-2.246 -2.793,-5.609 -2.793,-8.332 0,-3.098 0.676,-6.203 2.864,-8.422 0.23,-0.218 0.23,-0.254 0.23,-0.308 0,-0.125 -0.066,-0.172 -0.172,-0.172 -0.18,0 -1.781,1.207 -2.832,3.465 -0.91,1.961 -1.121,3.937 -1.121,5.437 0,1.391 0.191,3.539 1.172,5.555 1.062,2.191 2.601,3.344 2.781,3.344 0.106,0 0.172,-0.051 0.172,-0.18 z"
       style="fill:#000000;fill-opacity:1;fill-rule:evenodd;stroke:none"
       transform="scale(1.3333333)" />
    <path
       id="path118"
       d="m 167.344,36.594 0.136,-0.047 0.133,-0.055 0.129,-0.051 0.129,-0.062 0.125,-0.063 0.121,-0.07 0.117,-0.07 0.118,-0.078 0.109,-0.078 0.105,-0.082 0.106,-0.086 0.101,-0.09 0.098,-0.094 0.094,-0.098 0.09,-0.093 0.082,-0.106 0.082,-0.101 0.074,-0.11 0.07,-0.105 0.071,-0.117 0.117,-0.227 0.054,-0.117 0.047,-0.121 0.043,-0.125 0.035,-0.121 0.032,-0.125 0.027,-0.129 0.02,-0.129 0.015,-0.129 0.008,-0.125 0.004,-0.133 c 0,-1.461 -1.566,-2.461 -3.277,-2.461 -1.801,0 -3.153,1.074 -3.153,2.426 0,0.59 0.395,0.926 0.914,0.926 0.547,0 0.903,-0.391 0.903,-0.91 0,-0.887 -0.836,-0.887 -1.102,-0.887 0.547,-0.871 1.727,-1.106 2.371,-1.106 0.727,0 1.707,0.391 1.707,1.993 0,0.218 -0.039,1.246 -0.504,2.035 -0.527,0.851 -1.136,0.902 -1.578,0.925 -0.144,0.016 -0.57,0.051 -0.699,0.051 -0.137,0.016 -0.266,0.035 -0.266,0.211 0,0.195 0.129,0.195 0.43,0.195 h 0.781 c 1.461,0 2.121,1.211 2.121,2.961 0,2.418 -1.226,2.934 -2.015,2.934 -0.762,0 -2.102,-0.297 -2.719,-1.348 0.617,0.086 1.172,-0.308 1.172,-0.984 0,-0.641 -0.481,-0.992 -1,-0.992 -0.426,0 -0.992,0.246 -0.992,1.031 0,1.621 1.648,2.793 3.593,2.793 2.172,0 3.793,-1.621 3.793,-3.434 0,-1.464 -1.121,-2.847 -2.972,-3.222 z"
       style="fill:#000000;fill-opacity:1;fill-rule:evenodd;stroke:none"
       transform="scale(1.3333333)" />
    <path
       id="path119"
       d="M 176.242,38.41 V 38.137 L 176.238,38 l -0.004,-0.148 -0.015,-0.301 -0.02,-0.313 -0.031,-0.328 -0.039,-0.34 -0.047,-0.347 -0.059,-0.364 -0.07,-0.363 -0.082,-0.367 -0.094,-0.375 -0.109,-0.379 -0.129,-0.383 -0.137,-0.383 -0.078,-0.187 -0.078,-0.192 -0.086,-0.187 -0.09,-0.191 c -1.066,-2.188 -2.597,-3.344 -2.773,-3.344 -0.109,0 -0.18,0.066 -0.18,0.172 0,0.054 0,0.09 0.332,0.414 1.746,1.758 2.766,4.59 2.766,8.316 0,3.039 -0.66,6.176 -2.867,8.418 -0.231,0.211 -0.231,0.254 -0.231,0.301 0,0.109 0.071,0.18 0.18,0.18 0.176,0 1.773,-1.211 2.828,-3.469 0.906,-1.957 1.117,-3.934 1.117,-5.43 z"
       style="fill:#000000;fill-opacity:1;fill-rule:evenodd;stroke:none"
       transform="scale(1.3333333)" />
    <path
       id="path120"
       d="m 278.746,81.152 v -0.031 l -0.004,-0.008 v -0.004 l -0.004,-0.007 -0.004,-0.004 -0.007,-0.016 -0.004,-0.012 -0.004,-0.008 -0.008,-0.007 -0.008,-0.012 -0.012,-0.012 -0.015,-0.023 -0.008,-0.008 -0.004,-0.008 -0.016,-0.015 -0.007,-0.004 -0.004,-0.012 -0.016,-0.016 -0.008,-0.011 -0.011,-0.004 -0.004,-0.012 -0.032,-0.031 -0.007,-0.012 -0.024,-0.023 -0.012,-0.008 -0.011,-0.016 -0.012,-0.012 -0.016,-0.011 -0.011,-0.012 -0.012,-0.016 -0.016,-0.011 c -2.222,-2.246 -2.789,-5.61 -2.789,-8.332 0,-3.102 0.676,-6.204 2.86,-8.422 0.23,-0.219 0.23,-0.254 0.23,-0.309 0,-0.125 -0.062,-0.172 -0.172,-0.172 -0.179,0 -1.781,1.207 -2.832,3.465 -0.91,1.961 -1.121,3.938 -1.121,5.438 0,1.39 0.195,3.539 1.172,5.554 1.066,2.188 2.602,3.344 2.781,3.344 0.11,0 0.172,-0.051 0.172,-0.18 z"
       style="fill:#000000;fill-opacity:1;fill-rule:evenodd;stroke:none"
       transform="scale(1.3333333)" />
    <path
       id="path121"
       d="m 284.992,73.945 v 1.547 c 0,0.645 -0.035,0.836 -1.347,0.836 h -0.379 v 0.555 c 0.734,-0.059 1.66,-0.059 2.406,-0.059 0.75,0 1.695,0 2.422,0.059 v -0.555 h -0.375 c -1.321,0 -1.352,-0.191 -1.352,-0.836 v -1.547 h 1.778 v -0.55 h -1.778 v -8.106 c 0,-0.359 0,-0.461 -0.285,-0.461 -0.164,0 -0.211,0 -0.359,0.219 l -5.465,8.348 h 0.5 l 4.347,-6.641 v 6.641 h -4.847 v 0.55 z"
       style="fill:#000000;fill-opacity:1;fill-rule:evenodd;stroke:none"
       transform="scale(1.3333333)" />
    <path
       id="path122"
       d="M 293.82,72.434 V 72.16 l -0.004,-0.137 -0.004,-0.148 -0.011,-0.301 -0.024,-0.312 -0.031,-0.332 -0.035,-0.336 -0.051,-0.348 -0.055,-0.363 -0.074,-0.363 -0.082,-0.368 -0.094,-0.375 -0.109,-0.379 -0.125,-0.382 -0.141,-0.383 -0.078,-0.192 -0.078,-0.187 -0.086,-0.192 -0.09,-0.187 c -1.062,-2.187 -2.593,-3.344 -2.773,-3.344 -0.105,0 -0.18,0.067 -0.18,0.172 0,0.055 0,0.09 0.336,0.414 1.746,1.758 2.766,4.59 2.766,8.317 0,3.039 -0.664,6.175 -2.871,8.418 -0.231,0.21 -0.231,0.25 -0.231,0.3 0,0.11 0.075,0.18 0.18,0.18 0.18,0 1.777,-1.211 2.832,-3.469 0.902,-1.957 1.113,-3.933 1.113,-5.429 z"
       style="fill:#000000;fill-opacity:1;fill-rule:evenodd;stroke:none"
       transform="scale(1.3333333)" />
    <path
       id="path123"
       d="m 200.469,10.902 v -0.035 l -0.004,-0.004 v -0.008 l -0.004,-0.003 -0.008,-0.016 v -0.004 l -0.008,-0.016 -0.004,-0.004 -0.003,-0.007 -0.024,-0.024 -0.008,-0.004 -0.004,-0.007 h -0.011 l -0.004,-0.008 -0.012,-0.004 -0.004,-0.004 h -0.004 l -0.004,-0.004 h -0.023 l -0.004,-0.004 h -0.039 c -0.043,0 -0.063,0.012 -0.238,0.188 l -1.102,1.211 c -0.137,-0.219 -0.863,-1.399 -2.613,-1.399 -3.516,0 -7.063,3.481 -7.063,7.133 0,2.508 1.754,4.316 4.305,4.316 0.691,0 1.402,-0.14 1.965,-0.371 0.793,-0.316 1.09,-0.648 1.379,-0.965 0.14,0.395 0.547,0.977 0.703,0.977 0.078,0 0.113,-0.047 0.113,-0.063 0.031,-0.027 0.188,-0.625 0.266,-0.957 l 0.297,-1.214 c 0.066,-0.27 0.144,-0.536 0.211,-0.809 0.171,-0.707 0.187,-0.734 1.085,-0.754 0.079,0 0.25,-0.016 0.25,-0.312 0,-0.118 -0.078,-0.172 -0.199,-0.172 -0.367,0 -1.297,0.043 -1.656,0.043 -0.488,0 -1.719,-0.043 -2.211,-0.043 -0.137,0 -0.328,0 -0.328,0.308 0,0.176 0.125,0.176 0.473,0.176 0.015,0 0.476,0 0.836,0.035 0.41,0.043 0.488,0.09 0.488,0.297 0,0.141 -0.172,0.852 -0.328,1.434 -0.442,1.73 -2.492,1.906 -3.047,1.906 -1.512,0 -3.164,-0.895 -3.164,-3.309 0,-0.488 0.156,-3.086 1.812,-5.14 0.848,-1.071 2.379,-2.028 3.934,-2.028 1.613,0 2.543,1.211 2.543,3.039 0,0.629 -0.051,0.649 -0.051,0.805 0,0.156 0.172,0.156 0.238,0.156 0.203,0 0.203,-0.031 0.282,-0.312 z"
       style="fill:#000000;fill-opacity:1;fill-rule:evenodd;stroke:none"
       transform="scale(1.3333333)" />
    <path
       id="path124"
       d="m 206.766,12.305 0.023,-0.102 0.012,-0.047 0.015,-0.043 0.012,-0.047 0.012,-0.039 0.015,-0.039 0.032,-0.07 0.019,-0.035 0.02,-0.028 0.023,-0.027 0.024,-0.031 0.027,-0.024 0.031,-0.023 0.031,-0.02 0.079,-0.039 0.043,-0.015 0.046,-0.016 0.051,-0.012 0.031,-0.007 0.028,-0.008 0.031,-0.004 0.027,-0.008 0.036,-0.004 0.031,-0.004 0.035,-0.004 0.039,-0.004 0.035,-0.007 h 0.039 l 0.039,-0.004 h 0.043 l 0.086,-0.008 0.047,-0.004 h 0.367 c 0.379,0 0.504,0 0.504,-0.305 0,-0.187 -0.176,-0.187 -0.238,-0.187 -0.457,0 -1.625,0.051 -2.078,0.051 -0.477,0 -1.621,-0.051 -2.094,-0.051 -0.109,0 -0.316,0 -0.316,0.316 0,0.176 0.14,0.176 0.437,0.176 0.66,0 1.09,0 1.09,0.297 0,0.082 0,0.109 -0.031,0.254 l -2.125,8.488 c -0.145,0.582 -0.192,0.742 -1.438,0.742 -0.359,0 -0.508,0 -0.508,0.317 0,0.172 0.196,0.172 0.239,0.172 0.461,0 1.605,-0.051 2.07,-0.051 0.473,0 1.637,0.051 2.109,0.051 0.125,0 0.317,0 0.317,-0.301 0,-0.188 -0.133,-0.188 -0.477,-0.188 -0.281,0 -0.359,0 -0.676,-0.031 -0.332,-0.035 -0.39,-0.094 -0.39,-0.266 0,-0.128 0.031,-0.25 0.058,-0.367 z"
       style="fill:#000000;fill-opacity:1;fill-rule:evenodd;stroke:none"
       transform="scale(1.3333333)" />
    <path
       id="path125"
       d="m 209.988,19.852 h 1.723 v -0.399 h -1.723 V 17.43 h -0.375 c -0.008,0.988 -0.457,2.078 -1.515,2.113 v 0.309 h 1.023 v 2.976 c 0,1.234 0.922,1.484 1.539,1.484 0.742,0 1.246,-0.624 1.246,-1.496 v -0.605 h -0.375 v 0.598 c 0,0.746 -0.347,1.152 -0.781,1.152 -0.762,0 -0.762,-0.922 -0.762,-1.125 z"
       style="fill:#000000;fill-opacity:1;fill-rule:evenodd;stroke:none"
       transform="scale(1.3333333)" />
    <path
       id="path126"
       d="m 171.234,74.293 0.008,-0.016 0.004,-0.015 0.008,-0.016 0.004,-0.016 0.008,-0.019 0.007,-0.016 0.008,-0.031 0.008,-0.016 0.004,-0.003 v -0.016 l 0.008,-0.016 v -0.004 l 0.004,-0.007 v -0.004 l 0.004,-0.004 V 74.07 c 0,-0.015 0,-0.172 -0.188,-0.172 -0.144,0 -0.176,0.094 -0.203,0.192 -1.027,2.332 -1.606,3.383 -4.305,3.383 h -2.297 c -0.222,0 -0.25,0 -0.347,-0.012 -0.157,-0.016 -0.203,-0.031 -0.203,-0.16 0,-0.043 0,-0.078 0.078,-0.36 l 1.07,-4.304 h 1.563 c 1.339,0 1.339,0.328 1.339,0.726 0,0.11 0,0.301 -0.113,0.77 -0.031,0.078 -0.047,0.129 -0.047,0.176 0,0.078 0.063,0.171 0.203,0.171 0.129,0 0.176,-0.078 0.239,-0.312 l 0.898,-3.691 c 0,-0.094 -0.078,-0.172 -0.195,-0.172 -0.133,0 -0.168,0.093 -0.215,0.285 -0.332,1.199 -0.617,1.558 -2.066,1.558 h -1.481 l 0.949,-3.796 c 0.137,-0.551 0.157,-0.614 0.848,-0.614 h 2.219 c 1.922,0 2.398,0.457 2.398,1.75 0,0.375 0,0.407 -0.062,0.836 0,0.094 -0.016,0.203 -0.016,0.285 0,0.079 0.047,0.184 0.184,0.184 0.179,0 0.195,-0.094 0.226,-0.395 l 0.317,-2.722 c 0.043,-0.422 -0.032,-0.422 -0.43,-0.422 h -7.953 c -0.317,0 -0.473,0 -0.473,0.316 0,0.168 0.141,0.168 0.438,0.168 0.582,0 1.023,0 1.023,0.282 0,0.066 0,0.097 -0.078,0.382 l -2.074,8.332 c -0.16,0.618 -0.196,0.739 -1.442,0.739 -0.265,0 -0.437,0 -0.437,0.304 0,0.188 0.14,0.188 0.437,0.188 h 8.18 c 0.367,0 0.379,-0.016 0.488,-0.266 z"
       style="fill:#000000;fill-opacity:1;fill-rule:evenodd;stroke:none"
       transform="scale(1.3333333)" />
    <path
       id="path127"
       d="m 178.496,68.414 0.012,-0.047 0.012,-0.051 0.015,-0.05 0.035,-0.129 0.047,-0.106 0.02,-0.035 0.019,-0.027 0.028,-0.031 0.019,-0.028 0.031,-0.027 0.032,-0.02 0.031,-0.023 0.035,-0.02 0.039,-0.019 0.043,-0.016 0.051,-0.015 0.051,-0.012 0.027,-0.008 0.027,-0.004 0.032,-0.008 0.062,-0.008 0.035,-0.007 0.031,-0.004 h 0.04 l 0.035,-0.008 0.043,-0.004 0.035,-0.004 h 0.086 l 0.093,-0.008 h 0.094 l 0.051,-0.004 h 0.223 c 0.375,0 0.5,0 0.5,-0.304 0,-0.184 -0.168,-0.184 -0.235,-0.184 -0.461,0 -1.629,0.051 -2.082,0.051 -0.476,0 -1.621,-0.051 -2.093,-0.051 -0.11,0 -0.317,0 -0.317,0.317 0,0.171 0.141,0.171 0.438,0.171 0.664,0 1.089,0 1.089,0.301 0,0.078 0,0.11 -0.031,0.254 l -2.121,8.488 c -0.148,0.582 -0.195,0.739 -1.441,0.739 -0.36,0 -0.504,0 -0.504,0.316 0,0.176 0.191,0.176 0.234,0.176 0.465,0 1.61,-0.051 2.071,-0.051 0.472,0 1.636,0.051 2.109,0.051 0.125,0 0.316,0 0.316,-0.301 0,-0.191 -0.129,-0.191 -0.476,-0.191 -0.282,0 -0.36,0 -0.676,-0.028 -0.332,-0.035 -0.391,-0.093 -0.391,-0.265 0,-0.129 0.032,-0.254 0.059,-0.368 z"
       style="fill:#000000;fill-opacity:1;fill-rule:evenodd;stroke:none"
       transform="scale(1.3333333)" />
    <path
       id="path128"
       d="m 61.992,20.332 h 26.32"
       style="fill:none;stroke:#000000;stroke-width:0.351882;stroke-linecap:butt;stroke-linejoin:miter;stroke-miterlimit:4;stroke-dasharray:none;stroke-opacity:1"
       transform="scale(1.3333333)" />
    <path
       id="path129"
       d="m -84.793,-20.332 1.41,-1.41 -4.929,1.41 4.929,1.406 z"
       style="fill:#000000;fill-opacity:1;fill-rule:evenodd;stroke:#000000;stroke-width:0.37534;stroke-linecap:butt;stroke-linejoin:miter;stroke-miterlimit:4;stroke-dasharray:none;stroke-opacity:1"
       transform="scale(-1.3333333)" />
    <path
       id="path130"
       d="M 61.992,20.332 V 45.941"
       style="fill:none;stroke:#000000;stroke-width:0.351882;stroke-linecap:butt;stroke-linejoin:miter;stroke-miterlimit:4;stroke-dasharray:none;stroke-opacity:1"
       transform="scale(1.3333333)" />
    <path
       id="path131"
       d="m -42.422,61.992 1.406,-1.41 -4.925,1.41 4.925,1.406 z"
       style="fill:#000000;fill-opacity:1;fill-rule:evenodd;stroke:#000000;stroke-width:0.37534;stroke-linecap:butt;stroke-linejoin:miter;stroke-miterlimit:4;stroke-dasharray:none;stroke-opacity:1"
       transform="matrix(0,-1.3333333,1.3333333,0,0,0)" />
    <path
       id="path132"
       d="M 61.992,20.332 38.945,33.203"
       style="fill:none;stroke:#000000;stroke-width:0.425197;stroke-linecap:butt;stroke-linejoin:round;stroke-miterlimit:4;stroke-dasharray:none;stroke-opacity:0.977636"
       transform="scale(1.3333333)" />
    <path
       id="path133"
       d="m 42.656,31.129 0.656,-2.313 -4.367,4.387 6.028,-1.418 z"
       style="fill:#000000;fill-opacity:0.977636;fill-rule:evenodd;stroke:none"
       transform="scale(1.3333333)" />
    <path
       id="path134"
       d="m 19.265,41.887 1.485,-1.483 -5.197,1.485 5.198,1.484 z"
       style="fill:none;stroke:#000000;stroke-width:0.395983;stroke-linecap:butt;stroke-linejoin:miter;stroke-miterlimit:4;stroke-dasharray:none;stroke-opacity:0.977636"
       transform="matrix(1.3333333,-0.74457867,0.74457867,1.3333333,0,0)" />
    <path
       id="path135"
       d="m 88.469,24.656 0.004,-0.027 0.007,-0.027 0.016,-0.063 0.012,-0.035 0.012,-0.043 0.011,-0.039 0.012,-0.043 0.016,-0.043 0.015,-0.047 0.02,-0.047 0.019,-0.043 0.02,-0.047 0.023,-0.05 0.024,-0.047 0.027,-0.047 0.027,-0.043 0.032,-0.047 0.031,-0.043 0.035,-0.043 0.031,-0.039 0.039,-0.039 0.039,-0.035 0.043,-0.035 0.043,-0.032 0.047,-0.023 0.024,-0.016 0.023,-0.011 0.027,-0.008 0.024,-0.008 0.027,-0.012 0.028,-0.008 0.027,-0.004 0.027,-0.007 0.028,-0.004 0.031,-0.004 h 0.062 c 0.047,0 0.27,0 0.465,0.121 -0.262,0.047 -0.449,0.281 -0.449,0.508 0,0.148 0.102,0.328 0.355,0.328 0.207,0 0.508,-0.168 0.508,-0.543 0,-0.492 -0.554,-0.621 -0.875,-0.621 -0.543,0 -0.875,0.5 -0.984,0.715 -0.238,-0.621 -0.746,-0.715 -1.016,-0.715 -0.98,0 -1.519,1.215 -1.519,1.449 0,0.094 0.093,0.094 0.117,0.094 0.074,0 0.101,-0.02 0.121,-0.102 0.316,-1 0.941,-1.234 1.262,-1.234 0.179,0 0.504,0.082 0.504,0.629 0,0.289 -0.157,0.922 -0.504,2.238 -0.153,0.586 -0.481,0.981 -0.899,0.981 -0.054,0 -0.269,0 -0.465,-0.125 0.235,-0.043 0.442,-0.243 0.442,-0.508 0,-0.254 -0.207,-0.324 -0.348,-0.324 -0.285,0 -0.519,0.242 -0.519,0.542 0,0.434 0.472,0.622 0.882,0.622 0.625,0 0.961,-0.661 0.989,-0.715 0.113,0.347 0.453,0.715 1.015,0.715 0.973,0 1.508,-1.211 1.508,-1.45 0,-0.093 -0.082,-0.093 -0.113,-0.093 -0.082,0 -0.106,0.039 -0.121,0.101 -0.309,1.008 -0.949,1.235 -1.254,1.235 -0.367,0 -0.52,-0.301 -0.52,-0.622 0,-0.207 0.059,-0.414 0.164,-0.828 z"
       style="fill:#000000;fill-opacity:1;fill-rule:evenodd;stroke:none"
       transform="scale(1.3333333)" />
    <path
       id="path136"
       d="m 42.93,18.039 v -0.008 l 0.004,-0.004 v -0.011 l 0.004,-0.008 0.003,-0.012 v -0.012 l 0.008,-0.015 v -0.008 l 0.004,-0.008 v -0.015 l 0.004,-0.008 v -0.012 l 0.004,-0.004 v -0.016 l 0.004,-0.011 v -0.063 c 0,-0.172 -0.129,-0.254 -0.27,-0.254 -0.097,0 -0.246,0.055 -0.332,0.2 -0.019,0.046 -0.093,0.335 -0.129,0.507 -0.07,0.243 -0.132,0.496 -0.191,0.75 l -0.426,1.696 c -0.035,0.14 -0.437,0.797 -1.058,0.797 -0.481,0 -0.586,-0.411 -0.586,-0.758 0,-0.434 0.16,-1.02 0.48,-1.844 0.152,-0.387 0.188,-0.492 0.188,-0.68 0,-0.422 -0.297,-0.769 -0.77,-0.769 -0.898,0 -1.242,1.359 -1.242,1.449 0,0.094 0.094,0.094 0.113,0.094 0.094,0 0.102,-0.02 0.149,-0.172 0.254,-0.887 0.629,-1.164 0.949,-1.164 0.078,0 0.238,0 0.238,0.297 0,0.238 -0.094,0.48 -0.16,0.66 -0.375,0.996 -0.547,1.535 -0.547,1.976 0,0.836 0.594,1.121 1.149,1.121 0.367,0 0.687,-0.16 0.949,-0.425 -0.121,0.488 -0.235,0.953 -0.61,1.453 -0.246,0.316 -0.605,0.594 -1.035,0.594 -0.133,0 -0.558,-0.032 -0.719,-0.399 0.153,0 0.278,0 0.407,-0.117 0.093,-0.078 0.187,-0.203 0.187,-0.383 0,-0.293 -0.254,-0.328 -0.347,-0.328 -0.215,0 -0.528,0.148 -0.528,0.609 0,0.473 0.418,0.821 1,0.821 0.969,0 1.938,-0.86 2.203,-1.922 z"
       style="fill:#000000;fill-opacity:1;fill-rule:evenodd;stroke:none"
       transform="scale(1.3333333)" />
    <path
       id="path137"
       d="m 66.492,46.785 0.047,-0.051 0.043,-0.046 0.047,-0.047 0.043,-0.047 0.043,-0.043 0.039,-0.043 0.258,-0.258 0.039,-0.035 0.066,-0.063 0.125,-0.117 0.063,-0.055 0.058,-0.054 0.125,-0.106 0.063,-0.054 0.062,-0.051 c 0,-0.012 0.582,-0.508 0.922,-0.848 0.891,-0.879 1.102,-1.328 1.102,-1.363 0,-0.094 -0.09,-0.094 -0.106,-0.094 -0.066,0 -0.093,0.016 -0.14,0.102 -0.282,0.453 -0.481,0.601 -0.707,0.601 -0.227,0 -0.34,-0.14 -0.481,-0.301 -0.176,-0.218 -0.336,-0.402 -0.648,-0.402 -0.707,0 -1.137,0.871 -1.137,1.07 0,0.047 0.023,0.102 0.113,0.102 0.082,0 0.102,-0.047 0.121,-0.102 0.18,-0.433 0.723,-0.445 0.797,-0.445 0.199,0 0.379,0.07 0.594,0.145 0.379,0.14 0.48,0.14 0.727,0.14 -0.34,0.403 -1.129,1.082 -1.305,1.235 l -0.852,0.789 c -0.636,0.629 -0.968,1.168 -0.968,1.23 0,0.098 0.093,0.098 0.109,0.098 0.078,0 0.098,-0.02 0.152,-0.121 0.219,-0.332 0.5,-0.586 0.801,-0.586 0.219,0 0.313,0.086 0.547,0.355 0.16,0.2 0.332,0.352 0.601,0.352 0.934,0 1.477,-1.195 1.477,-1.449 0,-0.047 -0.035,-0.094 -0.109,-0.094 -0.09,0 -0.106,0.055 -0.137,0.121 -0.215,0.613 -0.813,0.789 -1.129,0.789 -0.184,0 -0.355,-0.055 -0.555,-0.121 -0.316,-0.121 -0.457,-0.16 -0.656,-0.16 -0.019,0 -0.168,0 -0.254,0.027 z"
       style="fill:#000000;fill-opacity:1;fill-rule:evenodd;stroke:none"
       transform="scale(1.3333333)" />
  </g>
</svg>
