<?xml version="1.0" encoding="UTF-8" standalone="no"?>
<!-- Created with Inkscape (http://www.inkscape.org/) -->

<svg
   version="1.1"
   id="svg1"
   width="477.37622"
   height="189.5246"
   viewBox="0 0 477.37622 189.5246"
   sodipodi:docname="twobarqdiri.svg"
   inkscape:version="1.3.2 (091e20e, 2023-11-25, custom)"
   xmlns:inkscape="http://www.inkscape.org/namespaces/inkscape"
   xmlns:sodipodi="http://sodipodi.sourceforge.net/DTD/sodipodi-0.dtd"
   xmlns="http://www.w3.org/2000/svg"
   xmlns:svg="http://www.w3.org/2000/svg">
  <defs
     id="defs1" />
  <sodipodi:namedview
     id="namedview1"
     pagecolor="#ffffff"
     bordercolor="#000000"
     borderopacity="0.25"
     inkscape:showpageshadow="2"
     inkscape:pageopacity="0.0"
     inkscape:pagecheckerboard="0"
     inkscape:deskcolor="#d1d1d1"
     inkscape:zoom="2.5786789"
     inkscape:cx="238.68811"
     inkscape:cy="94.815992"
     inkscape:window-width="1920"
     inkscape:window-height="1017"
     inkscape:window-x="1912"
     inkscape:window-y="-8"
     inkscape:window-maximized="1"
     inkscape:current-layer="g1">
    <inkscape:page
       x="0"
       y="0"
       inkscape:label="1"
       id="page1"
       width="477.37622"
       height="189.5246"
       margin="0"
       bleed="0" />
  </sodipodi:namedview>
  <g
     id="g1"
     inkscape:groupmode="layer"
     inkscape:label="1">
    <path
       id="path1"
       d="M 20.566,75.137 H 156.281"
       style="fill:none;stroke:#017188;stroke-width:2.83465;stroke-linecap:butt;stroke-linejoin:miter;stroke-miterlimit:4;stroke-dasharray:none;stroke-opacity:1"
       transform="scale(1.3333333)" />
    <path
       id="path2"
       d="M 54.598,-20.566 H 94.949"
       style="fill:none;stroke:#000000;stroke-width:0.487788;stroke-linecap:butt;stroke-linejoin:miter;stroke-miterlimit:4;stroke-dasharray:none;stroke-opacity:1"
       transform="matrix(0,1.3333333,-1.3333333,0,0,0)" />
    <path
       id="path3"
       d="m 57.293,-11.98 4.957,-8.586 -7.789,13.492"
       style="fill:none;stroke:#000000;stroke-width:0.48702;stroke-linecap:butt;stroke-linejoin:miter;stroke-miterlimit:4;stroke-dasharray:none;stroke-opacity:1"
       transform="matrix(0,1.3333333,-1.3333333,0,0,0)" />
    <path
       id="path4"
       d="M 66.859,-20.566 55.078,-0.16"
       style="fill:none;stroke:#000000;stroke-width:0.48702;stroke-linecap:butt;stroke-linejoin:miter;stroke-miterlimit:4;stroke-dasharray:none;stroke-opacity:1"
       transform="matrix(0,1.3333333,-1.3333333,0,0,0)" />
    <path
       id="path5"
       d="M 71.469,-20.566 59.773,-0.312"
       style="fill:none;stroke:#000000;stroke-width:0.48702;stroke-linecap:butt;stroke-linejoin:miter;stroke-miterlimit:4;stroke-dasharray:none;stroke-opacity:1"
       transform="matrix(0,1.3333333,-1.3333333,0,0,0)" />
    <path
       id="path6"
       d="M 76.078,-20.566 64.273,-0.125"
       style="fill:none;stroke:#000000;stroke-width:0.48702;stroke-linecap:butt;stroke-linejoin:miter;stroke-miterlimit:4;stroke-dasharray:none;stroke-opacity:1"
       transform="matrix(0,1.3333333,-1.3333333,0,0,0)" />
    <path
       id="path7"
       d="M 80.688,-20.566 68.883,-0.125"
       style="fill:none;stroke:#000000;stroke-width:0.48702;stroke-linecap:butt;stroke-linejoin:miter;stroke-miterlimit:4;stroke-dasharray:none;stroke-opacity:1"
       transform="matrix(0,1.3333333,-1.3333333,0,0,0)" />
    <path
       id="path8"
       d="M 85.73,-20.566 73.93,-0.125"
       style="fill:none;stroke:#000000;stroke-width:0.48702;stroke-linecap:butt;stroke-linejoin:miter;stroke-miterlimit:4;stroke-dasharray:none;stroke-opacity:1"
       transform="matrix(0,1.3333333,-1.3333333,0,0,0)" />
    <path
       id="path9"
       d="M 90.34,-20.566 78.539,-0.125"
       style="fill:none;stroke:#000000;stroke-width:0.48702;stroke-linecap:butt;stroke-linejoin:miter;stroke-miterlimit:4;stroke-dasharray:none;stroke-opacity:1"
       transform="matrix(0,1.3333333,-1.3333333,0,0,0)" />
    <path
       id="path10"
       d="M 94.949,-20.566 83.148,-0.125"
       style="fill:none;stroke:#000000;stroke-width:0.48702;stroke-linecap:butt;stroke-linejoin:miter;stroke-miterlimit:4;stroke-dasharray:none;stroke-opacity:1"
       transform="matrix(0,1.3333333,-1.3333333,0,0,0)" />
    <path
       id="path11"
       d="m 87.582,-0.125 7.473,-12.937"
       style="fill:none;stroke:#000000;stroke-width:0.48702;stroke-linecap:butt;stroke-linejoin:miter;stroke-miterlimit:4;stroke-dasharray:none;stroke-opacity:1"
       transform="matrix(0,1.3333333,-1.3333333,0,0,0)" />
    <path
       id="path12"
       d="M 91.758,-0.125 95.059,-5.84"
       style="fill:none;stroke:#000000;stroke-width:0.48702;stroke-linecap:butt;stroke-linejoin:miter;stroke-miterlimit:4;stroke-dasharray:none;stroke-opacity:1"
       transform="matrix(0,1.3333333,-1.3333333,0,0,0)" />
    <path
       id="path13"
       d="m 57.574,-20.566 -3.133,5.429"
       style="fill:none;stroke:#000000;stroke-width:0.48702;stroke-linecap:butt;stroke-linejoin:miter;stroke-miterlimit:4;stroke-dasharray:none;stroke-opacity:1"
       transform="matrix(0,1.3333333,-1.3333333,0,0,0)" />
    <path
       id="path14"
       d="m 70.836,-16.383 h 9.047 v -9.047 h -9.047 z"
       style="fill:#ffffff;fill-opacity:1;fill-rule:nonzero;stroke:#000000;stroke-width:0.920355;stroke-linecap:butt;stroke-linejoin:miter;stroke-miterlimit:4;stroke-dasharray:none;stroke-opacity:1"
       transform="matrix(0,1.3333333,-1.3333333,0,0,0)" />
    <path
       id="path15"
       d="m 155.906,103.539 v 22.75"
       style="fill:none;stroke:#000000;stroke-width:0.749999;stroke-linecap:butt;stroke-linejoin:miter;stroke-miterlimit:4;stroke-dasharray:none;stroke-opacity:1"
       transform="scale(1.3333333)" />
    <path
       id="path16"
       d="m 20.668,103.539 v 22.75"
       style="fill:none;stroke:#000000;stroke-width:0.749999;stroke-linecap:butt;stroke-linejoin:miter;stroke-miterlimit:4;stroke-dasharray:none;stroke-opacity:1"
       transform="scale(1.3333333)" />
    <path
       id="path17"
       d="M 154.301,114.914 H 22.254"
       style="fill:none;stroke:#000000;stroke-width:0.749999;stroke-linecap:butt;stroke-linejoin:miter;stroke-miterlimit:4;stroke-dasharray:none;stroke-opacity:1"
       transform="scale(1.3333333)" />
    <path
       id="path18"
       d="m -146.281,-111.586 -9.016,-3.316 9.016,-3.313 c -1.442,1.957 -1.434,4.633 0,6.629 z"
       style="fill:#000000;fill-opacity:1;fill-rule:evenodd;stroke:#000000;stroke-width:0.515624;stroke-linecap:butt;stroke-linejoin:round;stroke-miterlimit:4;stroke-dasharray:none;stroke-opacity:1"
       transform="scale(-1.3333333)" />
    <path
       id="path19"
       d="m 30.273,118.242 -9.015,-3.316 9.015,-3.313 c -1.441,1.957 -1.433,4.633 0,6.629 z"
       style="fill:#000000;fill-opacity:1;fill-rule:evenodd;stroke:#000000;stroke-width:0.515624;stroke-linecap:butt;stroke-linejoin:round;stroke-miterlimit:4;stroke-dasharray:none;stroke-opacity:1"
       transform="scale(1.3333333)" />
    <path
       id="path20"
       d="m 91.066,123.07 c 0,-1.144 -0.878,-1.836 -1.976,-1.836 -3.672,0 -4.625,6.368 -5.317,8.774 l -2.644,1.812 0.238,0.407 2.192,-1.457 c -0.383,1.312 -1.098,2.91 -1.098,4.316 0,1.453 0.859,2.551 2.387,2.551 1.976,0 3.429,-1.93 4.242,-3.528 l -0.43,-0.168 c -0.598,1.121 -1.738,2.813 -3.172,2.813 -0.929,0 -1.406,-0.715 -1.406,-1.574 0,-1.36 1.242,-4.742 1.621,-6.032 1.813,-1.214 5.363,-3.621 5.363,-6.078 z m -0.664,0.145 c 0,1.976 -3.027,4.172 -4.461,5.219 l 1.028,-3.504 c 0.308,-1.047 0.953,-2.813 2.289,-2.813 0.668,0 1.144,0.406 1.144,1.098 z"
       style="fill:#017188;fill-opacity:1;fill-rule:nonzero;stroke:none"
       transform="scale(1.3333333)" />
    <path
       id="path21"
       d="m 94.262,132.953 c 0.324,0 0.465,0.235 0.465,0.727 v 7.019 c 0,1.008 -0.372,1.18 -1.473,1.211 v 0.231 h 4.277 v -0.231 c -1.222,-0.015 -1.472,-0.172 -1.472,-0.914 v -9.297 l -0.125,-0.031 -2.789,1.41 v 0.215 c 0.605,-0.246 0.882,-0.34 1.117,-0.34 z"
       style="fill:#017188;fill-opacity:1;fill-rule:nonzero;stroke:none"
       transform="scale(1.3333333)" />
    <path
       id="path22"
       d="M 156.281,75.137 H 291.996"
       style="fill:none;stroke:#c3312f;stroke-width:2.83465;stroke-linecap:butt;stroke-linejoin:miter;stroke-miterlimit:4;stroke-dasharray:none;stroke-opacity:1"
       transform="scale(1.3333333)" />
    <path
       id="path23"
       d="m 70.613,-151.758 h 9.043 v -9.043 h -9.043 z"
       style="fill:#ffffff;fill-opacity:1;fill-rule:nonzero;stroke:#000000;stroke-width:0.920356;stroke-linecap:butt;stroke-linejoin:miter;stroke-miterlimit:4;stroke-dasharray:none;stroke-opacity:1"
       transform="matrix(0,1.3333333,-1.3333333,0,0,0)" />
    <path
       id="path24"
       d="m 291.145,103.539 v 22.75"
       style="fill:none;stroke:#000000;stroke-width:0.749999;stroke-linecap:butt;stroke-linejoin:miter;stroke-miterlimit:4;stroke-dasharray:none;stroke-opacity:1"
       transform="scale(1.3333333)" />
    <path
       id="path25"
       d="m 155.906,103.539 v 22.75"
       style="fill:none;stroke:#000000;stroke-width:0.749999;stroke-linecap:butt;stroke-linejoin:miter;stroke-miterlimit:4;stroke-dasharray:none;stroke-opacity:1"
       transform="scale(1.3333333)" />
    <path
       id="path26"
       d="M 289.539,114.914 H 157.492"
       style="fill:none;stroke:#000000;stroke-width:0.749999;stroke-linecap:butt;stroke-linejoin:miter;stroke-miterlimit:4;stroke-dasharray:none;stroke-opacity:1"
       transform="scale(1.3333333)" />
    <path
       id="path27"
       d="m -281.52,-111.586 -9.015,-3.316 9.015,-3.313 c -1.441,1.957 -1.433,4.633 0,6.629 z"
       style="fill:#000000;fill-opacity:1;fill-rule:evenodd;stroke:#000000;stroke-width:0.515624;stroke-linecap:butt;stroke-linejoin:round;stroke-miterlimit:4;stroke-dasharray:none;stroke-opacity:1"
       transform="scale(-1.3333333)" />
    <path
       id="path28"
       d="m 165.512,118.242 -9.016,-3.316 9.016,-3.313 c -1.442,1.957 -1.434,4.633 0,6.629 z"
       style="fill:#000000;fill-opacity:1;fill-rule:evenodd;stroke:#000000;stroke-width:0.515624;stroke-linecap:butt;stroke-linejoin:round;stroke-miterlimit:4;stroke-dasharray:none;stroke-opacity:1"
       transform="scale(1.3333333)" />
    <path
       id="path29"
       d="m 226.309,123.07 c 0,-1.144 -0.883,-1.836 -1.981,-1.836 -3.672,0 -4.625,6.368 -5.316,8.774 l -2.645,1.812 0.238,0.407 2.192,-1.457 c -0.383,1.312 -1.098,2.91 -1.098,4.316 0,1.453 0.86,2.551 2.387,2.551 1.976,0 3.43,-1.93 4.242,-3.528 l -0.43,-0.168 c -0.593,1.121 -1.738,2.813 -3.171,2.813 -0.93,0 -1.407,-0.715 -1.407,-1.574 0,-1.36 1.242,-4.742 1.621,-6.032 1.813,-1.214 5.368,-3.621 5.368,-6.078 z m -0.668,0.145 c 0,1.976 -3.028,4.172 -4.461,5.219 l 1.027,-3.504 c 0.309,-1.047 0.953,-2.813 2.289,-2.813 0.668,0 1.145,0.406 1.145,1.098 z"
       style="fill:#c3312f;fill-opacity:1;fill-rule:nonzero;stroke:none"
       transform="scale(1.3333333)" />
    <path
       id="path30"
       d="m 227.145,134.75 0.324,0.078 c 0.621,-1.519 1.179,-2.016 2.25,-2.016 1.301,0 2.183,0.883 2.183,2.188 0,1.207 -0.714,2.648 -2.015,4.027 l -2.758,2.93 v 0.184 h 6.043 l 0.851,-2.121 -0.199,-0.079 c -0.574,0.883 -0.777,1.024 -1.472,1.024 h -3.704 l 2.602,-2.727 c 1.379,-1.441 1.984,-2.621 1.984,-3.828 0,-1.551 -1.254,-2.742 -2.867,-2.742 -2.496,0 -3.051,2.355 -3.222,3.082 z"
       style="fill:#c3312f;fill-opacity:1;fill-rule:nonzero;stroke:none"
       transform="scale(1.3333333)" />
    <path
       id="path31"
       d="m 70.613,-287.473 h 9.043 v -9.043 h -9.043 z"
       style="fill:#ffffff;fill-opacity:1;fill-rule:nonzero;stroke:#000000;stroke-width:0.920356;stroke-linecap:butt;stroke-linejoin:miter;stroke-miterlimit:4;stroke-dasharray:none;stroke-opacity:1"
       transform="matrix(0,1.3333333,-1.3333333,0,0,0)" />
    <path
       id="path32"
       d="m 218.305,99.102 0.238,-0.321 c -2.063,-1.625 -3.406,-3.23 -3.406,-8.34 0,-4.91 1.343,-6.457 3.406,-8.117 L 218.363,82 c -1.644,1.062 -4.949,3.41 -4.949,8.5 0,4.832 3.406,7.699 4.891,8.602 z m 1.441,-13.11 0.422,0.098 c 0.801,-1.965 1.523,-2.606 2.906,-2.606 1.684,0 2.828,1.145 2.828,2.828 0,1.563 -0.922,3.426 -2.605,5.211 l -3.57,3.789 v 0.243 h 7.816 l 1.105,-2.75 -0.261,-0.098 c -0.742,1.141 -1.004,1.32 -1.903,1.32 h -4.793 l 3.368,-3.527 c 1.785,-1.863 2.566,-3.387 2.566,-4.949 0,-2.004 -1.625,-3.551 -3.707,-3.551 -3.23,0 -3.949,3.047 -4.172,3.992 z M 229.969,82 229.73,82.324 c 2.063,1.621 3.407,3.227 3.407,8.336 0,4.914 -1.344,6.457 -3.407,8.121 l 0.18,0.321 c 1.645,-1.063 4.953,-3.411 4.953,-8.5 0,-4.832 -3.41,-7.7 -4.894,-8.602 z"
       style="fill:#c3312f;fill-opacity:1;fill-rule:nonzero;stroke:none"
       transform="scale(1.3333333)" />
    <path
       id="path33"
       d="m 82.59,99.102 0.238,-0.321 c -2.062,-1.625 -3.406,-3.23 -3.406,-8.34 0,-4.91 1.344,-6.457 3.406,-8.117 L 82.648,82 c -1.644,1.062 -4.949,3.41 -4.949,8.5 0,4.832 3.406,7.699 4.891,8.602 z m 4.488,-15.438 c 0.422,0 0.602,0.301 0.602,0.945 v 9.079 c 0,1.304 -0.481,1.523 -1.903,1.562 v 0.301 h 5.532 V 95.25 C 89.727,95.23 89.406,95.031 89.406,94.07 V 82.043 L 89.246,82 85.637,83.824 v 0.281 c 0.781,-0.32 1.14,-0.441 1.441,-0.441 z M 94.254,82 94.016,82.324 c 2.062,1.621 3.406,3.227 3.406,8.336 0,4.914 -1.344,6.457 -3.406,8.121 l 0.179,0.321 c 1.645,-1.063 4.953,-3.411 4.953,-8.5 0,-4.832 -3.41,-7.7 -4.894,-8.602 z"
       style="fill:#017188;fill-opacity:1;fill-rule:nonzero;stroke:none"
       transform="scale(1.3333333)" />
    <path
       id="path34"
       d="M 21.277,-13.349 V -41.807"
       style="fill:none;stroke:#00ce99;stroke-width:5.73558;stroke-linecap:butt;stroke-linejoin:miter;stroke-miterlimit:4;stroke-dasharray:none;stroke-opacity:1"
       transform="matrix(0,1.3333333,-1.03826,0,0,0)" />
    <path
       id="path35"
       d="m -34.924,-21.277 5.739,-5.735 -20.076,5.735 20.076,5.738 z"
       style="fill:#00ce99;fill-opacity:1;fill-rule:evenodd;stroke:#00ce99;stroke-width:1.52949;stroke-linecap:butt;stroke-linejoin:miter;stroke-miterlimit:4;stroke-dasharray:none;stroke-opacity:1"
       transform="scale(-1.03826,-1.3333333)" />
    <path
       id="path36"
       d="m 28.324,-26.752 -7.187,-25.198 -6.992,24.912 4.312,-4.024 v 17.533 h 5.746 v -17.247 z"
       style="fill:#ffffff;fill-opacity:1;fill-rule:nonzero;stroke:#000000;stroke-width:0.758769;stroke-linecap:butt;stroke-linejoin:miter;stroke-miterlimit:4;stroke-dasharray:none;stroke-opacity:1"
       transform="matrix(0,1.3333333,-1.03826,0,0,0)" />
    <path
       id="path37"
       d="m 25.68,5.992 c 0,-0.199 -0.16,-0.199 -0.301,-0.199 -0.238,0 -0.258,0.019 -0.379,0.461 -0.281,1.125 -0.664,2.387 -1.344,2.387 -0.523,0 -0.523,-0.543 -0.523,-0.825 0,-0.14 0,-0.461 0.14,-1.019 l 1.446,-5.774 c 0.039,-0.121 0.058,-0.222 0.058,-0.281 0,-0.222 -0.16,-0.523 -0.558,-0.523 -0.602,0 -0.742,0.582 -0.785,0.742 l -1.461,5.855 c -0.102,0.36 -0.102,0.399 -0.282,0.661 -0.382,0.562 -0.961,1.164 -1.843,1.164 -0.903,0 -1.082,-0.883 -1.082,-1.543 0,-1.223 0.66,-3.028 1.16,-4.391 0.16,-0.422 0.262,-0.703 0.262,-1.082 C 20.188,0.621 19.527,0 18.664,0 c -1.863,0 -2.566,2.969 -2.566,3.086 0,0.203 0.199,0.203 0.3,0.203 0.262,0 0.282,-0.043 0.364,-0.32 0.16,-0.625 0.699,-2.528 1.863,-2.528 0.219,0 0.441,0.059 0.441,0.582 0,0.481 -0.203,1.02 -0.48,1.805 -0.524,1.402 -1.043,2.887 -1.043,3.926 0,1.746 1.16,2.328 2.242,2.328 1.063,0 1.746,-0.602 2.227,-1.203 0.359,1.082 1.222,1.203 1.605,1.203 0.738,0 1.16,-0.504 1.461,-1.125 0.363,-0.762 0.602,-1.965 0.602,-1.965 z"
       style="fill:#000000;fill-opacity:1;fill-rule:nonzero;stroke:none"
       transform="scale(1.3333333)" />
    <path
       id="path38"
       d="m 25.836,12.871 h 3.637 v -0.195 h -0.207 c -0.641,0 -0.914,-0.133 -0.914,-0.418 0,-0.223 0.21,-0.809 0.234,-0.965 l 1.863,-6.762 c 0.055,-0.195 0.078,-0.312 0.078,-0.379 0,-0.05 -0.023,-0.09 -0.062,-0.09 l -2.242,0.442 c -0.028,0 -0.133,0.027 -0.274,0.051 V 4.75 l 0.742,-0.023 c 0.016,0 0.024,0 0.024,0 0.289,0 0.473,0.168 0.473,0.402 0,0.078 -0.028,0.211 -0.094,0.445 l -1.797,6.41 c -0.133,0.481 -0.43,0.614 -1.461,0.704 z"
       style="fill:#000000;fill-opacity:1;fill-rule:nonzero;stroke:none"
       transform="scale(1.3333333)" />
    <path
       id="path39"
       d="m 21.277,-180.801 v -28.453"
       style="fill:none;stroke:#00ce99;stroke-width:5.73558;stroke-linecap:butt;stroke-linejoin:miter;stroke-miterlimit:4;stroke-dasharray:none;stroke-opacity:1"
       transform="matrix(0,1.3333333,-1.03826,0,0,0)" />
    <path
       id="path40"
       d="m -202.372,-21.277 5.739,-5.735 -20.076,5.735 20.076,5.738 z"
       style="fill:#00ce99;fill-opacity:1;fill-rule:evenodd;stroke:#00ce99;stroke-width:1.52949;stroke-linecap:butt;stroke-linejoin:miter;stroke-miterlimit:4;stroke-dasharray:none;stroke-opacity:1"
       transform="scale(-1.03826,-1.3333333)" />
    <path
       id="path41"
       d="m 28.324,-194.2 -7.187,-25.197 -6.992,24.911 4.312,-4.023 v 17.532 h 5.746 v -17.246 z"
       style="fill:#ffffff;fill-opacity:1;fill-rule:nonzero;stroke:#000000;stroke-width:0.758769;stroke-linecap:butt;stroke-linejoin:miter;stroke-miterlimit:4;stroke-dasharray:none;stroke-opacity:1"
       transform="matrix(0,1.3333333,-1.03826,0,0,0)" />
    <path
       id="path42"
       d="m 156.07,5.992 c 0,-0.199 -0.16,-0.199 -0.3,-0.199 -0.239,0 -0.258,0.019 -0.379,0.461 -0.282,1.125 -0.661,2.387 -1.344,2.387 -0.52,0 -0.52,-0.543 -0.52,-0.825 0,-0.14 0,-0.461 0.141,-1.019 l 1.441,-5.774 c 0.039,-0.121 0.059,-0.222 0.059,-0.281 0,-0.222 -0.16,-0.523 -0.559,-0.523 -0.601,0 -0.742,0.582 -0.781,0.742 l -1.465,5.855 c -0.101,0.36 -0.101,0.399 -0.281,0.661 -0.379,0.562 -0.961,1.164 -1.844,1.164 -0.902,0 -1.082,-0.883 -1.082,-1.543 0,-1.223 0.66,-3.028 1.164,-4.391 0.16,-0.422 0.258,-0.703 0.258,-1.082 0,-1.004 -0.66,-1.625 -1.523,-1.625 -1.864,0 -2.567,2.969 -2.567,3.086 0,0.203 0.203,0.203 0.301,0.203 0.262,0 0.281,-0.043 0.363,-0.32 0.16,-0.625 0.7,-2.528 1.864,-2.528 0.218,0 0.441,0.059 0.441,0.582 0,0.481 -0.199,1.02 -0.48,1.805 -0.524,1.402 -1.043,2.887 -1.043,3.926 0,1.746 1.164,2.328 2.246,2.328 1.062,0 1.742,-0.602 2.222,-1.203 0.364,1.082 1.223,1.203 1.606,1.203 0.742,0 1.16,-0.504 1.461,-1.125 0.363,-0.762 0.601,-1.965 0.601,-1.965 z"
       style="fill:#000000;fill-opacity:1;fill-rule:nonzero;stroke:none"
       transform="scale(1.3333333)" />
    <path
       id="path43"
       d="m 156.633,6.145 0.273,0.093 c 0.485,-0.847 1.043,-1.226 1.824,-1.226 0.926,0 1.629,0.679 1.629,1.59 0,0.625 -0.339,1.5 -1.875,3.128 l -2.738,2.918 v 0.223 h 4.625 l 0.652,-1.723 -0.218,-0.089 c -0.317,0.652 -0.59,0.82 -1.293,0.82 h -2.473 v -0.067 l 2.5,-2.5 c 1.523,-1.523 1.941,-2.175 1.941,-3.035 0,-1.254 -0.925,-2.215 -2.109,-2.215 -1.031,0 -2.086,0.469 -2.738,2.083 z"
       style="fill:#000000;fill-opacity:1;fill-rule:nonzero;stroke:none"
       transform="scale(1.3333333)" />
    <path
       id="path44"
       d="m 21.277,-355.086 v -28.453"
       style="fill:none;stroke:#00ce99;stroke-width:5.73558;stroke-linecap:butt;stroke-linejoin:miter;stroke-miterlimit:4;stroke-dasharray:none;stroke-opacity:1"
       transform="matrix(0,1.3333333,-1.03826,0,0,0)" />
    <path
       id="path45"
       d="m -376.657,-21.277 5.739,-5.735 -20.076,5.735 20.076,5.738 z"
       style="fill:#00ce99;fill-opacity:1;fill-rule:evenodd;stroke:#00ce99;stroke-width:1.52949;stroke-linecap:butt;stroke-linejoin:miter;stroke-miterlimit:4;stroke-dasharray:none;stroke-opacity:1"
       transform="scale(-1.03826,-1.3333333)" />
    <path
       id="path46"
       d="m 28.324,-368.485 -7.187,-25.197 -6.992,24.911 4.312,-4.023 v 17.532 h 5.746 v -17.246 z"
       style="fill:#ffffff;fill-opacity:1;fill-rule:nonzero;stroke:#000000;stroke-width:0.758769;stroke-linecap:butt;stroke-linejoin:miter;stroke-miterlimit:4;stroke-dasharray:none;stroke-opacity:1"
       transform="matrix(0,1.3333333,-1.03826,0,0,0)" />
    <path
       id="path47"
       d="m 291.785,5.992 c 0,-0.199 -0.16,-0.199 -0.301,-0.199 -0.238,0 -0.257,0.019 -0.379,0.461 -0.281,1.125 -0.66,2.387 -1.343,2.387 -0.52,0 -0.52,-0.543 -0.52,-0.825 0,-0.14 0,-0.461 0.141,-1.019 l 1.441,-5.774 c 0.039,-0.121 0.059,-0.222 0.059,-0.281 0,-0.222 -0.16,-0.523 -0.559,-0.523 -0.601,0 -0.742,0.582 -0.781,0.742 l -1.465,5.855 c -0.101,0.36 -0.101,0.399 -0.281,0.661 -0.379,0.562 -0.961,1.164 -1.844,1.164 -0.902,0 -1.082,-0.883 -1.082,-1.543 0,-1.223 0.66,-3.028 1.164,-4.391 0.16,-0.422 0.258,-0.703 0.258,-1.082 0,-1.004 -0.66,-1.625 -1.523,-1.625 -1.864,0 -2.567,2.969 -2.567,3.086 0,0.203 0.203,0.203 0.301,0.203 0.262,0 0.281,-0.043 0.363,-0.32 0.16,-0.625 0.699,-2.528 1.863,-2.528 0.219,0 0.442,0.059 0.442,0.582 0,0.481 -0.199,1.02 -0.481,1.805 -0.523,1.402 -1.043,2.887 -1.043,3.926 0,1.746 1.161,2.328 2.247,2.328 1.062,0 1.742,-0.602 2.222,-1.203 0.363,1.082 1.223,1.203 1.606,1.203 0.742,0 1.16,-0.504 1.461,-1.125 0.363,-0.762 0.601,-1.965 0.601,-1.965 z"
       style="fill:#000000;fill-opacity:1;fill-rule:nonzero;stroke:none"
       transform="scale(1.3333333)" />
    <path
       id="path48"
       d="m 293.129,7.957 v 0.207 c 1.461,0 2.426,0.418 2.426,2.164 0,1.317 -0.809,2.137 -1.707,2.137 -0.703,0 -1.11,-0.781 -1.774,-0.781 -0.363,0 -0.574,0.183 -0.574,0.507 0,0.497 0.535,0.77 1.461,0.77 2.254,0 3.633,-1.617 3.633,-3.336 0,-0.937 -0.375,-1.539 -1.25,-1.941 V 7.645 c 1.578,-0.614 2.035,-1.043 2.035,-1.93 0,-0.949 -0.785,-1.653 -1.824,-1.653 -0.903,0 -1.707,0.52 -2.137,1.356 l 0.207,0.062 c 0.457,-0.597 0.91,-0.871 1.461,-0.871 0.687,0 1.156,0.481 1.156,1.184 0,1.629 -2.304,2.035 -3.113,2.164 z"
       style="fill:#000000;fill-opacity:1;fill-rule:nonzero;stroke:none"
       transform="scale(1.3333333)" />
    <path
       id="path49"
       d="M 0,16.875 H 336.668 V 142.141 L 0,142.141 Z"
       style="fill:none;stroke:#ffffff;stroke-width:0.00283465;stroke-linecap:butt;stroke-linejoin:bevel;stroke-miterlimit:3.9;stroke-dasharray:none;stroke-opacity:1"
       transform="scale(1.3333333)" />
    <path
       id="path50"
       d="m 287.391,70.453 9.207,9.203"
       style="fill:none;stroke:#000000;stroke-width:0.749999;stroke-linecap:butt;stroke-linejoin:miter;stroke-miterlimit:4;stroke-dasharray:none;stroke-opacity:1"
       transform="scale(1.3333333)" />
    <path
       id="path51"
       d="m 287.391,79.656 9.207,-9.203"
       style="fill:none;stroke:#000000;stroke-width:0.749999;stroke-linecap:butt;stroke-linejoin:miter;stroke-miterlimit:4;stroke-dasharray:none;stroke-opacity:1"
       transform="scale(1.3333333)" />
    <path
       id="path52"
       d="m -96.188,292.34 h 41.071"
       style="fill:none;stroke:#000000;stroke-width:0.496484;stroke-linecap:butt;stroke-linejoin:miter;stroke-miterlimit:4;stroke-dasharray:none;stroke-opacity:1"
       transform="matrix(0,-1.3333333,1.3333333,0,0,0)" />
    <path
       id="path53"
       d="m -93.445,301.082 5.047,-8.742 -7.93,13.734"
       style="fill:none;stroke:#000000;stroke-width:0.495702;stroke-linecap:butt;stroke-linejoin:miter;stroke-miterlimit:4;stroke-dasharray:none;stroke-opacity:1"
       transform="matrix(0,-1.3333333,1.3333333,0,0,0)" />
    <path
       id="path54"
       d="m -83.707,292.34 -11.992,20.769"
       style="fill:none;stroke:#000000;stroke-width:0.495702;stroke-linecap:butt;stroke-linejoin:miter;stroke-miterlimit:4;stroke-dasharray:none;stroke-opacity:1"
       transform="matrix(0,-1.3333333,1.3333333,0,0,0)" />
    <path
       id="path55"
       d="m -79.016,292.34 -11.902,20.617"
       style="fill:none;stroke:#000000;stroke-width:0.495702;stroke-linecap:butt;stroke-linejoin:miter;stroke-miterlimit:4;stroke-dasharray:none;stroke-opacity:1"
       transform="matrix(0,-1.3333333,1.3333333,0,0,0)" />
    <path
       id="path56"
       d="m -74.324,292.34 -12.012,20.808"
       style="fill:none;stroke:#000000;stroke-width:0.495702;stroke-linecap:butt;stroke-linejoin:miter;stroke-miterlimit:4;stroke-dasharray:none;stroke-opacity:1"
       transform="matrix(0,-1.3333333,1.3333333,0,0,0)" />
    <path
       id="path57"
       d="m -69.633,292.34 -12.012,20.808"
       style="fill:none;stroke:#000000;stroke-width:0.495702;stroke-linecap:butt;stroke-linejoin:miter;stroke-miterlimit:4;stroke-dasharray:none;stroke-opacity:1"
       transform="matrix(0,-1.3333333,1.3333333,0,0,0)" />
    <path
       id="path58"
       d="m -64.5,292.34 -12.012,20.808"
       style="fill:none;stroke:#000000;stroke-width:0.495702;stroke-linecap:butt;stroke-linejoin:miter;stroke-miterlimit:4;stroke-dasharray:none;stroke-opacity:1"
       transform="matrix(0,-1.3333333,1.3333333,0,0,0)" />
    <path
       id="path59"
       d="M -59.809,292.34 -71.82,313.148"
       style="fill:none;stroke:#000000;stroke-width:0.495702;stroke-linecap:butt;stroke-linejoin:miter;stroke-miterlimit:4;stroke-dasharray:none;stroke-opacity:1"
       transform="matrix(0,-1.3333333,1.3333333,0,0,0)" />
    <path
       id="path60"
       d="m -55.117,292.34 -12.012,20.808"
       style="fill:none;stroke:#000000;stroke-width:0.495702;stroke-linecap:butt;stroke-linejoin:miter;stroke-miterlimit:4;stroke-dasharray:none;stroke-opacity:1"
       transform="matrix(0,-1.3333333,1.3333333,0,0,0)" />
    <path
       id="path61"
       d="m -62.613,313.148 7.601,-13.171"
       style="fill:none;stroke:#000000;stroke-width:0.495702;stroke-linecap:butt;stroke-linejoin:miter;stroke-miterlimit:4;stroke-dasharray:none;stroke-opacity:1"
       transform="matrix(0,-1.3333333,1.3333333,0,0,0)" />
    <path
       id="path62"
       d="m -58.363,313.148 3.359,-5.82"
       style="fill:none;stroke:#000000;stroke-width:0.495702;stroke-linecap:butt;stroke-linejoin:miter;stroke-miterlimit:4;stroke-dasharray:none;stroke-opacity:1"
       transform="matrix(0,-1.3333333,1.3333333,0,0,0)" />
    <path
       id="path63"
       d="m -93.156,292.34 -3.192,5.527"
       style="fill:none;stroke:#000000;stroke-width:0.495702;stroke-linecap:butt;stroke-linejoin:miter;stroke-miterlimit:4;stroke-dasharray:none;stroke-opacity:1"
       transform="matrix(0,-1.3333333,1.3333333,0,0,0)" />
    <path
       id="path64"
       d="m -70.453,287.391 h -9.203 v 9.207 h 9.203 z"
       style="fill:#ffffff;fill-opacity:1;fill-rule:nonzero;stroke:#000000;stroke-width:0.936762;stroke-linecap:butt;stroke-linejoin:miter;stroke-miterlimit:4;stroke-dasharray:none;stroke-opacity:1"
       transform="matrix(0,-1.3333333,1.3333333,0,0,0)" />
    <path
       id="path65"
       d="m 75.668,-318.504 v -28.125"
       style="fill:none;stroke:#00ce99;stroke-width:5.66929;stroke-linecap:butt;stroke-linejoin:miter;stroke-miterlimit:4;stroke-dasharray:none;stroke-opacity:1"
       transform="matrix(0,1.3333333,-1.3333333,0,0,0)" />
    <path
       id="path66"
       d="m -339.824,-75.668 5.668,-5.668 -19.844,5.668 19.844,5.668 z"
       style="fill:#00ce99;fill-opacity:1;fill-rule:evenodd;stroke:#00ce99;stroke-width:1.51181;stroke-linecap:butt;stroke-linejoin:miter;stroke-miterlimit:4;stroke-dasharray:none;stroke-opacity:1"
       transform="scale(-1.3333333)" />
    <path
       id="path67"
       d="m 82.633,-331.75 -7.102,-24.906 -6.914,24.625 4.262,-3.981 v 17.332 h 5.683 v -17.047 z"
       style="fill:none;stroke:#000000;stroke-width:0.749999;stroke-linecap:butt;stroke-linejoin:miter;stroke-miterlimit:4;stroke-dasharray:none;stroke-opacity:1"
       transform="matrix(0,1.3333333,-1.3333333,0,0,0)" />
    <path
       id="path68"
       d="m 332.156,49.426 h 8.922 v 0.738 h -8.922 z"
       style="fill:#000000;fill-opacity:1;fill-rule:nonzero;stroke:none"
       transform="scale(1.3333333)" />
    <path
       id="path69"
       d="m 337.516,62.617 c 0.273,1.008 1.164,1.668 2.211,1.668 0.855,0 1.437,-0.582 1.824,-1.359 0.429,-0.891 0.738,-2.406 0.738,-2.446 0,-0.269 -0.195,-0.269 -0.273,-0.269 -0.27,0 -0.27,0.117 -0.348,0.465 -0.348,1.398 -0.816,3.066 -1.863,3.066 -0.504,0 -0.774,-0.312 -0.774,-1.125 0,-0.543 0.309,-1.707 0.504,-2.601 l 0.699,-2.676 c 0.075,-0.348 0.309,-1.281 0.426,-1.668 0.117,-0.582 0.348,-1.512 0.348,-1.668 0,-0.426 -0.348,-0.66 -0.699,-0.66 -0.114,0 -0.774,0.039 -0.969,0.855 -0.465,1.821 -1.551,6.168 -1.863,7.446 -0.036,0.117 -1.008,2.097 -2.832,2.097 -1.278,0 -1.512,-1.125 -1.512,-2.019 0,-1.395 0.699,-3.336 1.32,-5.043 0.309,-0.774 0.426,-1.125 0.426,-1.59 0,-1.086 -0.777,-2.016 -2.016,-2.016 -2.367,0 -3.261,3.606 -3.261,3.801 0,0.27 0.234,0.27 0.273,0.27 0.27,0 0.27,-0.075 0.387,-0.465 0.621,-2.133 1.59,-3.063 2.523,-3.063 0.231,0 0.621,0.039 0.621,0.813 0,0.582 -0.273,1.32 -0.429,1.668 -0.93,2.484 -1.434,3.996 -1.434,5.199 0,2.367 1.707,2.988 3.027,2.988 1.629,0 2.52,-1.125 2.946,-1.668 z"
       style="fill:#000000;fill-opacity:1;fill-rule:nonzero;stroke:none"
       transform="scale(1.3333333)" />
    <path
       id="path70"
       d="M 28.477,57.785 H 62.68"
       style="fill:none;stroke:#810000;stroke-width:1.41732;stroke-linecap:butt;stroke-linejoin:miter;stroke-miterlimit:4;stroke-dasharray:none;stroke-opacity:1"
       transform="scale(1.3333333)" />
    <path
       id="path71"
       d="m -57.012,-57.785 2.836,-2.836 -9.922,2.836 9.922,2.832 z"
       style="fill:#810000;fill-opacity:1;fill-rule:evenodd;stroke:#810000;stroke-width:0.755906;stroke-linecap:butt;stroke-linejoin:miter;stroke-miterlimit:4;stroke-dasharray:none;stroke-opacity:1"
       transform="scale(-1.3333333)" />
    <path
       id="path72"
       d="m 158.391,49.164 c 0,-0.242 -0.203,-0.242 -0.485,-0.242 -1.019,0 -1.019,-0.121 -1.019,-0.32 0,-0.141 0.039,-0.243 0.058,-0.364 l 2.746,-10.945 c 0.02,-0.059 0.063,-0.258 0.063,-0.258 0,-0.18 -0.164,-0.223 -0.223,-0.223 -0.219,0 -0.941,0.704 -1.261,1.266 -0.243,-0.582 -0.762,-1.285 -1.727,-1.285 -2.223,0 -4.59,3.047 -4.59,5.973 0,1.707 0.922,3.109 2.426,3.109 0.824,0 1.562,-0.523 2.125,-1.063 -0.399,1.563 -0.379,1.563 -0.781,3.149 -0.219,0.859 -0.243,0.941 -1.524,0.961 -0.261,0 -0.48,0 -0.48,0.379 0,0.183 0.121,0.242 0.261,0.242 0.641,0 1.34,-0.059 2.004,-0.059 0.661,0 1.383,0.059 2.024,0.059 0.121,0 0.383,0 0.383,-0.379 z m -1.485,-5.957 c -0.16,0.621 -1.383,2.227 -2.484,2.227 -0.945,0 -1.106,-1.184 -1.106,-1.786 0,-1 0.622,-3.347 0.985,-4.187 0.5,-1.223 1.422,-2.227 2.242,-2.227 0.164,0 0.625,0.02 0.984,0.582 0.2,0.321 0.403,0.903 0.403,1.282 0,0.062 -0.024,0.14 -0.063,0.261 z"
       style="fill:#000000;fill-opacity:1;fill-rule:nonzero;stroke:none"
       transform="scale(1.3333333)" />
    <path
       id="path73"
       d="m 71.645,57.785 h 34.203"
       style="fill:none;stroke:#810000;stroke-width:1.41732;stroke-linecap:butt;stroke-linejoin:miter;stroke-miterlimit:4;stroke-dasharray:none;stroke-opacity:1"
       transform="scale(1.3333333)" />
    <path
       id="path74"
       d="m -100.176,-57.785 2.832,-2.836 -9.922,2.836 9.922,2.832 z"
       style="fill:#810000;fill-opacity:1;fill-rule:evenodd;stroke:#810000;stroke-width:0.755906;stroke-linecap:butt;stroke-linejoin:miter;stroke-miterlimit:4;stroke-dasharray:none;stroke-opacity:1"
       transform="scale(-1.3333333)" />
    <path
       id="path75"
       d="m 114.809,57.785 h 34.203"
       style="fill:none;stroke:#810000;stroke-width:1.41732;stroke-linecap:butt;stroke-linejoin:miter;stroke-miterlimit:4;stroke-dasharray:none;stroke-opacity:1"
       transform="scale(1.3333333)" />
    <path
       id="path76"
       d="m -143.344,-57.785 2.836,-2.836 -9.922,2.836 9.922,2.832 z"
       style="fill:#810000;fill-opacity:1;fill-rule:evenodd;stroke:#810000;stroke-width:0.755906;stroke-linecap:butt;stroke-linejoin:miter;stroke-miterlimit:4;stroke-dasharray:none;stroke-opacity:1"
       transform="scale(-1.3333333)" />
    <path
       id="path77"
       d="m 157.973,57.785 h 34.203"
       style="fill:none;stroke:#810000;stroke-width:1.41732;stroke-linecap:butt;stroke-linejoin:miter;stroke-miterlimit:4;stroke-dasharray:none;stroke-opacity:1"
       transform="scale(1.3333333)" />
    <path
       id="path78"
       d="m -186.508,-57.785 2.836,-2.836 -9.922,2.836 9.922,2.832 z"
       style="fill:#810000;fill-opacity:1;fill-rule:evenodd;stroke:#810000;stroke-width:0.755906;stroke-linecap:butt;stroke-linejoin:miter;stroke-miterlimit:4;stroke-dasharray:none;stroke-opacity:1"
       transform="scale(-1.3333333)" />
    <path
       id="path79"
       d="m 201.141,57.785 h 34.203"
       style="fill:none;stroke:#810000;stroke-width:1.41732;stroke-linecap:butt;stroke-linejoin:miter;stroke-miterlimit:4;stroke-dasharray:none;stroke-opacity:1"
       transform="scale(1.3333333)" />
    <path
       id="path80"
       d="m -229.672,-57.785 2.832,-2.836 -9.922,2.836 9.922,2.832 z"
       style="fill:#810000;fill-opacity:1;fill-rule:evenodd;stroke:#810000;stroke-width:0.755906;stroke-linecap:butt;stroke-linejoin:miter;stroke-miterlimit:4;stroke-dasharray:none;stroke-opacity:1"
       transform="scale(-1.3333333)" />
    <path
       id="path81"
       d="m 244.305,57.785 h 34.203"
       style="fill:none;stroke:#810000;stroke-width:1.41732;stroke-linecap:butt;stroke-linejoin:miter;stroke-miterlimit:4;stroke-dasharray:none;stroke-opacity:1"
       transform="scale(1.3333333)" />
    <path
       id="path82"
       d="m -272.84,-57.785 2.836,-2.836 -9.922,2.836 9.922,2.832 z"
       style="fill:#810000;fill-opacity:1;fill-rule:evenodd;stroke:#810000;stroke-width:0.755906;stroke-linecap:butt;stroke-linejoin:miter;stroke-miterlimit:4;stroke-dasharray:none;stroke-opacity:1"
       transform="scale(-1.3333333)" />
  </g>
</svg>
