<?xml version="1.0" encoding="UTF-8" standalone="no"?>
<!-- Created with Inkscape (http://www.inkscape.org/) -->

<svg
   version="1.1"
   id="svg1"
   width="435.23795"
   height="167.02666"
   viewBox="0 0 435.23794 167.02665"
   sodipodi:docname="assembly4.svg"
   inkscape:version="1.3.2 (091e20e, 2023-11-25, custom)"
   xmlns:inkscape="http://www.inkscape.org/namespaces/inkscape"
   xmlns:sodipodi="http://sodipodi.sourceforge.net/DTD/sodipodi-0.dtd"
   xmlns="http://www.w3.org/2000/svg"
   xmlns:svg="http://www.w3.org/2000/svg">
  <defs
     id="defs1" />
  <sodipodi:namedview
     id="namedview1"
     pagecolor="#ffffff"
     bordercolor="#000000"
     borderopacity="0.25"
     inkscape:showpageshadow="2"
     inkscape:pageopacity="0.0"
     inkscape:pagecheckerboard="0"
     inkscape:deskcolor="#d1d1d1"
     inkscape:zoom="1.3655877"
     inkscape:cx="76.889974"
     inkscape:cy="77.256117"
     inkscape:window-width="1920"
     inkscape:window-height="1001"
     inkscape:window-x="-9"
     inkscape:window-y="-9"
     inkscape:window-maximized="1"
     inkscape:current-layer="g1">
    <inkscape:page
       x="0"
       y="0"
       inkscape:label="1"
       id="page1"
       width="435.23795"
       height="167.02666"
       margin="0"
       bleed="0" />
  </sodipodi:namedview>
  <g
     id="g1"
     inkscape:groupmode="layer"
     inkscape:label="1"
     transform="translate(-13.652719)">
    <path
       id="path1"
       d="M 20.566,58.262 H 156.281"
       style="fill:none;stroke:#017188;stroke-width:2.83465;stroke-linecap:butt;stroke-linejoin:miter;stroke-miterlimit:4;stroke-dasharray:none;stroke-opacity:1"
       transform="scale(1.3333333)" />
    <path
       id="path2"
       d="m 89.754,75.066 c 0,-0.218 -0.238,-0.218 -0.301,-0.218 -0.219,0 -0.238,0.019 -0.418,0.48 -1.164,2.766 -1.867,4.07 -5.055,4.07 h -2.445 c -0.621,0 -0.621,-0.058 -0.621,-0.199 0,-0.121 0.063,-0.32 0.082,-0.441 l 1.383,-5.516 h 1.742 c 1.363,0 1.504,0.324 1.504,0.863 0,0.141 -0.02,0.442 -0.18,1.024 0,0 -0.039,0.16 -0.039,0.219 0,0.242 0.199,0.242 0.321,0.242 0.218,0 0.281,-0.039 0.359,-0.402 l 1.105,-4.411 c 0.02,-0.058 0.059,-0.257 0.059,-0.257 0,-0.243 -0.242,-0.243 -0.32,-0.243 -0.262,0 -0.262,0.059 -0.383,0.481 -0.379,1.426 -0.762,1.863 -2.383,1.863 h -1.625 l 1.223,-4.93 c 0.16,-0.66 0.3,-0.679 0.961,-0.679 h 2.507 c 2.165,0 2.665,0.597 2.665,2.023 0,0.539 -0.04,0.801 -0.098,1.281 -0.02,0.102 -0.043,0.282 -0.043,0.344 0,0.238 0.223,0.238 0.301,0.238 0.281,0 0.3,-0.078 0.343,-0.441 l 0.461,-3.547 c 0.059,-0.523 -0.062,-0.523 -0.48,-0.523 h -9.363 c -0.34,0 -0.543,0 -0.543,0.363 0,0.262 0.14,0.262 0.543,0.262 1.164,0 1.164,0.16 1.164,0.34 0,0 0,0.16 -0.082,0.46 L 79.41,78.555 c -0.16,0.683 -0.277,0.843 -1.64,0.843 -0.321,0 -0.543,0 -0.543,0.379 0,0.243 0.179,0.243 0.5,0.243 h 9.605 c 0.398,0 0.418,-0.02 0.559,-0.321 l 1.785,-4.39 c 0.019,-0.039 0.078,-0.239 0.078,-0.239 z"
       style="fill:#017188;fill-opacity:1;fill-rule:nonzero;stroke:none"
       transform="scale(1.3333333)" />
    <path
       id="path3"
       d="m 103.445,79.66 c 0,-0.262 -0.16,-0.262 -0.48,-0.262 -1.043,0 -1.102,-0.16 -1.141,-0.683 l -0.863,-12.547 c -0.02,-0.441 -0.039,-0.5 -0.359,-0.5 -0.321,0 -0.403,0.141 -0.524,0.359 l -6.652,11.727 c -0.864,1.523 -1.727,1.605 -2.426,1.644 -0.223,0.02 -0.242,0.379 -0.242,0.379 0,0.063 0.019,0.243 0.242,0.243 0.5,0 1.082,-0.059 1.602,-0.059 0.621,0 1.261,0.059 1.863,0.059 0.101,0 0.363,0 0.363,-0.379 0,-0.223 -0.16,-0.223 -0.32,-0.243 -0.121,-0.019 -0.844,-0.058 -0.844,-0.683 0,-0.18 0.102,-0.418 0.281,-0.762 l 1.442,-2.523 h 4.57 l 0.223,3.328 c 0,0.398 -0.481,0.64 -1.344,0.64 -0.219,0 -0.461,0 -0.461,0.379 0,0.243 0.242,0.243 0.301,0.243 0.742,0 1.543,-0.059 2.304,-0.059 0.704,0 1.426,0.059 2.106,0.059 0.121,0 0.359,0 0.359,-0.36 z M 99.918,74.809 H 95.73 l 3.727,-6.555 z"
       style="fill:#017188;fill-opacity:1;fill-rule:nonzero;stroke:none"
       transform="scale(1.3333333)" />
    <path
       id="path4"
       d="m 105.109,84.027 h 3.633 v -0.195 h -0.207 c -0.64,0 -0.914,-0.129 -0.914,-0.414 0,-0.223 0.211,-0.809 0.234,-0.965 l 1.864,-6.762 c 0.054,-0.199 0.078,-0.316 0.078,-0.379 0,-0.054 -0.024,-0.093 -0.063,-0.093 l -2.242,0.445 c -0.027,0 -0.129,0.024 -0.273,0.051 v 0.195 l 0.742,-0.023 c 0.016,0 0.027,0 0.027,0 0.285,0 0.469,0.168 0.469,0.402 0,0.078 -0.027,0.211 -0.094,0.445 l -1.797,6.411 c -0.128,0.48 -0.429,0.609 -1.461,0.703 z"
       style="fill:#017188;fill-opacity:1;fill-rule:nonzero;stroke:none"
       transform="scale(1.3333333)" />
    <path
       id="path5"
       d="m 155.906,86.668 v 22.746"
       style="fill:none;stroke:#000000;stroke-width:0.749999;stroke-linecap:butt;stroke-linejoin:miter;stroke-miterlimit:4;stroke-dasharray:none;stroke-opacity:1"
       transform="scale(1.3333333)" />
    <path
       id="path6"
       d="m 20.668,86.668 v 22.746"
       style="fill:none;stroke:#000000;stroke-width:0.749999;stroke-linecap:butt;stroke-linejoin:miter;stroke-miterlimit:4;stroke-dasharray:none;stroke-opacity:1"
       transform="scale(1.3333333)" />
    <path
       id="path7"
       d="M 154.301,98.043 H 22.254"
       style="fill:none;stroke:#000000;stroke-width:0.749999;stroke-linecap:butt;stroke-linejoin:miter;stroke-miterlimit:4;stroke-dasharray:none;stroke-opacity:1"
       transform="scale(1.3333333)" />
    <path
       id="path8"
       d="m -146.281,-94.715 -9.016,-3.312 9.016,-3.317 c -1.442,1.957 -1.43,4.637 0,6.629 z"
       style="fill:#000000;fill-opacity:1;fill-rule:evenodd;stroke:#000000;stroke-width:0.515624;stroke-linecap:butt;stroke-linejoin:round;stroke-miterlimit:4;stroke-dasharray:none;stroke-opacity:1"
       transform="scale(-1.3333333)" />
    <path
       id="path9"
       d="m 30.273,101.371 -9.015,-3.316 9.015,-3.317 c -1.441,1.957 -1.433,4.637 0,6.633 z"
       style="fill:#000000;fill-opacity:1;fill-rule:evenodd;stroke:#000000;stroke-width:0.515624;stroke-linecap:butt;stroke-linejoin:round;stroke-miterlimit:4;stroke-dasharray:none;stroke-opacity:1"
       transform="scale(1.3333333)" />
    <path
       id="path10"
       d="m 91.066,106.199 c 0,-1.144 -0.878,-1.836 -1.976,-1.836 -3.672,0 -4.625,6.364 -5.317,8.774 l -2.644,1.808 0.238,0.407 2.192,-1.454 c -0.383,1.313 -1.098,2.907 -1.098,4.317 0,1.453 0.859,2.551 2.387,2.551 1.976,0 3.429,-1.934 4.242,-3.532 l -0.43,-0.164 c -0.598,1.118 -1.738,2.813 -3.172,2.813 -0.929,0 -1.406,-0.715 -1.406,-1.574 0,-1.36 1.242,-4.747 1.621,-6.032 1.813,-1.215 5.363,-3.625 5.363,-6.078 z m -0.664,0.141 c 0,1.98 -3.027,4.172 -4.461,5.222 l 1.028,-3.503 c 0.308,-1.051 0.953,-2.813 2.289,-2.813 0.668,0 1.144,0.402 1.144,1.094 z"
       style="fill:#017188;fill-opacity:1;fill-rule:nonzero;stroke:none"
       transform="scale(1.3333333)" />
    <path
       id="path11"
       d="m 94.262,116.082 c 0.324,0 0.465,0.23 0.465,0.727 v 7.019 c 0,1.008 -0.372,1.18 -1.473,1.207 v 0.235 h 4.277 v -0.235 c -1.222,-0.012 -1.472,-0.168 -1.472,-0.914 v -9.297 l -0.125,-0.031 -2.789,1.41 v 0.219 c 0.605,-0.25 0.882,-0.34 1.117,-0.34 z"
       style="fill:#017188;fill-opacity:1;fill-rule:nonzero;stroke:none"
       transform="scale(1.3333333)" />
    <path
       id="path12"
       d="M 156.281,58.262 H 291.996"
       style="fill:none;stroke:#c3312f;stroke-width:2.83465;stroke-linecap:butt;stroke-linejoin:miter;stroke-miterlimit:4;stroke-dasharray:none;stroke-opacity:1"
       transform="scale(1.3333333)" />
    <path
       id="path13"
       d="m 53.742,-151.758 h 9.043 v -9.043 h -9.043 z"
       style="fill:#ffffff;fill-opacity:1;fill-rule:nonzero;stroke:#000000;stroke-width:0.920356;stroke-linecap:butt;stroke-linejoin:miter;stroke-miterlimit:4;stroke-dasharray:none;stroke-opacity:1"
       transform="matrix(0,1.3333333,-1.3333333,0,0,0)" />
    <path
       id="path14"
       d="m 298.047,58.402 h 22.676"
       style="fill:none;stroke:#000000;stroke-width:2.55118;stroke-linecap:butt;stroke-linejoin:miter;stroke-miterlimit:3.9;stroke-dasharray:none;stroke-opacity:1"
       transform="scale(1.3333333)" />
    <path
       id="path15"
       d="m 320.723,58.402 -6.379,6.375 22.324,-6.375 -22.324,-6.379 z"
       style="fill:#000000;fill-opacity:1;fill-rule:evenodd;stroke:none"
       transform="scale(1.3333333)" />
    <path
       id="path16"
       d="m 224.992,75.066 c 0,-0.218 -0.238,-0.218 -0.301,-0.218 -0.218,0 -0.238,0.019 -0.418,0.48 -1.164,2.766 -1.867,4.07 -5.05,4.07 h -2.45 c -0.621,0 -0.621,-0.058 -0.621,-0.199 0,-0.121 0.063,-0.32 0.082,-0.441 l 1.383,-5.516 h 1.742 c 1.364,0 1.504,0.324 1.504,0.863 0,0.141 -0.019,0.442 -0.179,1.024 0,0 -0.039,0.16 -0.039,0.219 0,0.242 0.199,0.242 0.32,0.242 0.223,0 0.281,-0.039 0.359,-0.402 l 1.106,-4.411 c 0.019,-0.058 0.058,-0.257 0.058,-0.257 0,-0.243 -0.242,-0.243 -0.32,-0.243 -0.262,0 -0.262,0.059 -0.383,0.481 -0.379,1.426 -0.762,1.863 -2.383,1.863 h -1.625 L 219,67.691 c 0.16,-0.66 0.301,-0.679 0.961,-0.679 h 2.508 c 2.164,0 2.664,0.597 2.664,2.023 0,0.539 -0.039,0.801 -0.098,1.281 -0.019,0.102 -0.039,0.282 -0.039,0.344 0,0.238 0.219,0.238 0.301,0.238 0.277,0 0.297,-0.078 0.34,-0.441 l 0.461,-3.547 c 0.058,-0.523 -0.063,-0.523 -0.481,-0.523 h -9.363 c -0.34,0 -0.539,0 -0.539,0.363 0,0.262 0.137,0.262 0.539,0.262 1.164,0 1.164,0.16 1.164,0.34 0,0 0,0.16 -0.082,0.46 l -2.684,10.743 c -0.164,0.683 -0.281,0.843 -1.644,0.843 -0.32,0 -0.543,0 -0.543,0.379 0,0.243 0.18,0.243 0.5,0.243 h 9.605 c 0.399,0 0.418,-0.02 0.559,-0.321 l 1.785,-4.39 c 0.02,-0.039 0.082,-0.239 0.082,-0.239 z"
       style="fill:#c3312f;fill-opacity:1;fill-rule:nonzero;stroke:none"
       transform="scale(1.3333333)" />
    <path
       id="path17"
       d="m 238.684,79.66 c 0,-0.262 -0.161,-0.262 -0.481,-0.262 -1.043,0 -1.101,-0.16 -1.141,-0.683 l -0.863,-12.547 c -0.019,-0.441 -0.039,-0.5 -0.359,-0.5 -0.32,0 -0.402,0.141 -0.524,0.359 l -6.652,11.727 c -0.863,1.523 -1.726,1.605 -2.426,1.644 -0.222,0.02 -0.242,0.379 -0.242,0.379 0,0.063 0.02,0.243 0.242,0.243 0.5,0 1.082,-0.059 1.602,-0.059 0.621,0 1.262,0.059 1.863,0.059 0.102,0 0.363,0 0.363,-0.379 0,-0.223 -0.16,-0.223 -0.32,-0.243 -0.121,-0.019 -0.844,-0.058 -0.844,-0.683 0,-0.18 0.102,-0.418 0.282,-0.762 l 1.441,-2.523 h 4.574 l 0.219,3.328 c 0,0.398 -0.48,0.64 -1.344,0.64 -0.219,0 -0.461,0 -0.461,0.379 0,0.243 0.242,0.243 0.301,0.243 0.742,0 1.543,-0.059 2.305,-0.059 0.703,0 1.426,0.059 2.105,0.059 0.121,0 0.36,0 0.36,-0.36 z m -3.528,-4.851 h -4.187 l 3.726,-6.555 z"
       style="fill:#c3312f;fill-opacity:1;fill-rule:nonzero;stroke:none"
       transform="scale(1.3333333)" />
    <path
       id="path18"
       d="m 240.75,77.305 0.273,0.093 c 0.481,-0.847 1.043,-1.226 1.825,-1.226 0.925,0 1.629,0.676 1.629,1.59 0,0.625 -0.34,1.5 -1.875,3.125 l -2.739,2.922 v 0.218 h 4.625 l 0.653,-1.718 -0.223,-0.09 c -0.313,0.648 -0.586,0.82 -1.289,0.82 h -2.477 v -0.066 l 2.504,-2.5 c 1.524,-1.528 1.942,-2.176 1.942,-3.039 0,-1.25 -0.926,-2.215 -2.11,-2.215 -1.031,0 -2.086,0.472 -2.738,2.086 z"
       style="fill:#c3312f;fill-opacity:1;fill-rule:nonzero;stroke:none"
       transform="scale(1.3333333)" />
    <path
       id="path19"
       d="m 291.145,86.668 v 22.746"
       style="fill:none;stroke:#000000;stroke-width:0.749999;stroke-linecap:butt;stroke-linejoin:miter;stroke-miterlimit:4;stroke-dasharray:none;stroke-opacity:1"
       transform="scale(1.3333333)" />
    <path
       id="path20"
       d="m 155.906,86.668 v 22.746"
       style="fill:none;stroke:#000000;stroke-width:0.749999;stroke-linecap:butt;stroke-linejoin:miter;stroke-miterlimit:4;stroke-dasharray:none;stroke-opacity:1"
       transform="scale(1.3333333)" />
    <path
       id="path21"
       d="M 289.539,98.043 H 157.492"
       style="fill:none;stroke:#000000;stroke-width:0.749999;stroke-linecap:butt;stroke-linejoin:miter;stroke-miterlimit:4;stroke-dasharray:none;stroke-opacity:1"
       transform="scale(1.3333333)" />
    <path
       id="path22"
       d="m -281.52,-94.715 -9.015,-3.312 9.015,-3.317 c -1.441,1.957 -1.433,4.637 0,6.629 z"
       style="fill:#000000;fill-opacity:1;fill-rule:evenodd;stroke:#000000;stroke-width:0.515624;stroke-linecap:butt;stroke-linejoin:round;stroke-miterlimit:4;stroke-dasharray:none;stroke-opacity:1"
       transform="scale(-1.3333333)" />
    <path
       id="path23"
       d="m 165.512,101.371 -9.016,-3.316 9.016,-3.317 c -1.442,1.957 -1.434,4.637 0,6.633 z"
       style="fill:#000000;fill-opacity:1;fill-rule:evenodd;stroke:#000000;stroke-width:0.515624;stroke-linecap:butt;stroke-linejoin:round;stroke-miterlimit:4;stroke-dasharray:none;stroke-opacity:1"
       transform="scale(1.3333333)" />
    <path
       id="path24"
       d="m 226.309,106.199 c 0,-1.144 -0.883,-1.836 -1.981,-1.836 -3.672,0 -4.625,6.364 -5.316,8.774 l -2.645,1.808 0.238,0.407 2.192,-1.454 c -0.383,1.313 -1.098,2.907 -1.098,4.317 0,1.453 0.86,2.551 2.387,2.551 1.976,0 3.43,-1.934 4.242,-3.532 l -0.43,-0.164 c -0.593,1.118 -1.738,2.813 -3.171,2.813 -0.93,0 -1.407,-0.715 -1.407,-1.574 0,-1.36 1.242,-4.747 1.621,-6.032 1.813,-1.215 5.368,-3.625 5.368,-6.078 z m -0.668,0.141 c 0,1.98 -3.028,4.172 -4.461,5.222 l 1.027,-3.503 c 0.309,-1.051 0.953,-2.813 2.289,-2.813 0.668,0 1.145,0.402 1.145,1.094 z"
       style="fill:#c3312f;fill-opacity:1;fill-rule:nonzero;stroke:none"
       transform="scale(1.3333333)" />
    <path
       id="path25"
       d="m 227.145,117.879 0.324,0.078 c 0.621,-1.519 1.179,-2.016 2.25,-2.016 1.301,0 2.183,0.883 2.183,2.184 0,1.211 -0.714,2.652 -2.015,4.031 l -2.758,2.926 v 0.188 h 6.043 l 0.851,-2.125 -0.199,-0.075 c -0.574,0.883 -0.777,1.024 -1.472,1.024 h -3.704 l 2.602,-2.731 c 1.379,-1.441 1.984,-2.617 1.984,-3.824 0,-1.551 -1.254,-2.746 -2.867,-2.746 -2.496,0 -3.051,2.355 -3.222,3.086 z"
       style="fill:#c3312f;fill-opacity:1;fill-rule:nonzero;stroke:none"
       transform="scale(1.3333333)" />
    <path
       id="path26"
       d="m 316.879,41.426 0.461,-3.547 c 0.062,-0.52 -0.059,-0.52 -0.481,-0.52 h -9.121 c -0.34,0 -0.539,0 -0.539,0.36 0,0.261 0.141,0.261 0.539,0.261 1.164,0 1.164,0.161 1.164,0.34 0,0 0,0.16 -0.082,0.461 l -2.683,10.746 c -0.16,0.68 -0.282,0.84 -1.645,0.84 -0.32,0 -0.543,0 -0.543,0.383 0,0.238 0.223,0.238 0.281,0.238 0.805,0 1.645,-0.058 2.446,-0.058 0.922,0 1.867,0.058 2.769,0.058 0.18,0 0.418,0 0.418,-0.379 0,-0.242 -0.179,-0.242 -0.5,-0.242 h -0.199 c -1.465,0 -1.465,-0.16 -1.465,-0.422 0,-0.078 0,-0.117 0.082,-0.418 l 1.262,-5.054 h 1.664 c 1.301,0 1.484,0.3 1.484,0.843 0,0.34 -0.082,0.661 -0.16,0.981 -0.043,0.141 -0.062,0.223 -0.062,0.281 0,0.242 0.222,0.242 0.301,0.242 0.222,0 0.281,-0.019 0.382,-0.402 l 1.102,-4.41 c 0.019,-0.078 0.039,-0.18 0.039,-0.281 0,-0.219 -0.238,-0.219 -0.301,-0.219 -0.262,0 -0.281,0.058 -0.379,0.422 -0.363,1.422 -0.683,1.922 -2.347,1.922 h -1.563 l 1.281,-5.192 c 0.161,-0.66 0.301,-0.68 0.965,-0.68 h 2.344 c 2.145,0 2.586,0.622 2.586,2.004 0,0.481 -0.059,0.864 -0.121,1.325 l -0.02,0.32 c 0,0.238 0.223,0.238 0.301,0.238 0.281,0 0.301,-0.078 0.344,-0.441 z"
       style="fill:#000000;fill-opacity:1;fill-rule:nonzero;stroke:none"
       transform="scale(1.3333333)" />
    <path
       id="path27"
       d="m 53.742,-287.473 h 9.043 v -9.043 h -9.043 z"
       style="fill:#ffffff;fill-opacity:1;fill-rule:nonzero;stroke:#000000;stroke-width:0.920356;stroke-linecap:butt;stroke-linejoin:miter;stroke-miterlimit:4;stroke-dasharray:none;stroke-opacity:1"
       transform="matrix(0,1.3333333,-1.3333333,0,0,0)" />
    <path
       id="path28"
       d="m 218.305,50.859 0.238,-0.32 c -2.063,-1.625 -3.406,-3.227 -3.406,-8.34 0,-4.91 1.343,-6.457 3.406,-8.117 l -0.18,-0.324 c -1.644,1.062 -4.949,3.41 -4.949,8.5 0,4.832 3.406,7.699 4.891,8.601 z"
       style="fill:#c3312f;fill-opacity:1;fill-rule:nonzero;stroke:none"
       transform="scale(1.3333333)" />
    <path
       id="path29"
       d="m 219.746,37.75 0.422,0.098 c 0.801,-1.965 1.523,-2.606 2.906,-2.606 1.684,0 2.828,1.145 2.828,2.828 0,1.563 -0.922,3.426 -2.605,5.211 l -3.57,3.789 v 0.242 h 7.816 l 1.105,-2.746 -0.261,-0.101 c -0.742,1.14 -1.004,1.324 -1.903,1.324 h -4.793 l 3.368,-3.531 c 1.785,-1.863 2.566,-3.387 2.566,-4.949 0,-2.004 -1.625,-3.551 -3.707,-3.551 -3.23,0 -3.949,3.051 -4.172,3.992 z"
       style="fill:#c3312f;fill-opacity:1;fill-rule:nonzero;stroke:none"
       transform="scale(1.3333333)" />
    <path
       id="path30"
       d="m 229.969,33.758 -0.239,0.324 c 2.063,1.621 3.407,3.227 3.407,8.336 0,4.914 -1.344,6.457 -3.407,8.121 l 0.18,0.32 c 1.645,-1.062 4.953,-3.41 4.953,-8.5 0,-4.832 -3.41,-7.699 -4.894,-8.601 z"
       style="fill:#c3312f;fill-opacity:1;fill-rule:nonzero;stroke:none"
       transform="scale(1.3333333)" />
    <path
       id="path31"
       d="m 82.59,51.242 0.238,-0.32 c -2.062,-1.625 -3.406,-3.231 -3.406,-8.34 0,-4.914 1.344,-6.457 3.406,-8.121 l -0.18,-0.32 c -1.644,1.062 -4.949,3.41 -4.949,8.5 0,4.832 3.406,7.699 4.891,8.601 z"
       style="fill:#017188;fill-opacity:1;fill-rule:nonzero;stroke:none"
       transform="scale(1.3333333)" />
    <path
       id="path32"
       d="m 87.078,35.805 c 0.422,0 0.602,0.3 0.602,0.941 v 9.082 c 0,1.305 -0.481,1.524 -1.903,1.563 v 0.3 h 5.532 v -0.3 c -1.582,-0.02 -1.903,-0.219 -1.903,-1.18 V 34.184 l -0.16,-0.043 -3.609,1.824 v 0.281 c 0.781,-0.32 1.14,-0.441 1.441,-0.441 z"
       style="fill:#017188;fill-opacity:1;fill-rule:nonzero;stroke:none"
       transform="scale(1.3333333)" />
    <path
       id="path33"
       d="m 94.254,34.141 -0.238,0.32 c 2.062,1.625 3.406,3.23 3.406,8.34 0,4.91 -1.344,6.457 -3.406,8.121 l 0.179,0.32 c 1.645,-1.062 4.953,-3.41 4.953,-8.5 0,-4.832 -3.41,-7.699 -4.894,-8.601 z"
       style="fill:#017188;fill-opacity:1;fill-rule:nonzero;stroke:none"
       transform="scale(1.3333333)" />
    <path
       id="path34"
       d="M 21.277,-13.349 V -41.807"
       style="fill:none;stroke:#00ce99;stroke-width:5.73558;stroke-linecap:butt;stroke-linejoin:miter;stroke-miterlimit:4;stroke-dasharray:none;stroke-opacity:1"
       transform="matrix(0,1.3333333,-1.03826,0,0,0)" />
    <path
       id="path35"
       d="m -34.924,-21.277 5.739,-5.735 -20.076,5.735 20.076,5.734 z"
       style="fill:#00ce99;fill-opacity:1;fill-rule:evenodd;stroke:#00ce99;stroke-width:1.52949;stroke-linecap:butt;stroke-linejoin:miter;stroke-miterlimit:4;stroke-dasharray:none;stroke-opacity:1"
       transform="scale(-1.03826,-1.3333333)" />
    <path
       id="path36"
       d="m 28.324,-26.752 -7.183,-25.198 -6.996,24.912 4.312,-4.024 v 17.533 h 5.75 v -17.247 z"
       style="fill:#ffffff;fill-opacity:1;fill-rule:nonzero;stroke:#000000;stroke-width:0.758769;stroke-linecap:butt;stroke-linejoin:miter;stroke-miterlimit:4;stroke-dasharray:none;stroke-opacity:1"
       transform="matrix(0,1.3333333,-1.03826,0,0,0)" />
    <path
       id="path37"
       d="m 25.68,5.996 c 0,-0.203 -0.16,-0.203 -0.301,-0.203 -0.238,0 -0.258,0.023 -0.379,0.461 -0.281,1.125 -0.664,2.387 -1.344,2.387 -0.523,0 -0.523,-0.539 -0.523,-0.821 0,-0.14 0,-0.461 0.14,-1.023 l 1.446,-5.774 c 0.039,-0.121 0.058,-0.218 0.058,-0.281 0,-0.219 -0.16,-0.519 -0.558,-0.519 -0.602,0 -0.742,0.582 -0.785,0.742 L 21.973,6.816 C 21.871,7.18 21.871,7.219 21.691,7.48 21.309,8.039 20.73,8.641 19.848,8.641 c -0.903,0 -1.082,-0.883 -1.082,-1.543 0,-1.223 0.66,-3.028 1.16,-4.391 0.16,-0.422 0.262,-0.699 0.262,-1.082 C 20.188,0.621 19.527,0 18.664,0 c -1.863,0 -2.566,2.969 -2.566,3.09 0,0.199 0.199,0.199 0.3,0.199 0.262,0 0.282,-0.039 0.364,-0.32 0.16,-0.621 0.699,-2.528 1.863,-2.528 0.219,0 0.441,0.063 0.441,0.582 0,0.481 -0.203,1.024 -0.48,1.805 -0.524,1.402 -1.043,2.887 -1.043,3.93 0,1.742 1.16,2.324 2.242,2.324 1.063,0 1.746,-0.602 2.227,-1.203 0.359,1.082 1.222,1.203 1.605,1.203 0.738,0 1.16,-0.5 1.461,-1.121 0.363,-0.762 0.602,-1.965 0.602,-1.965 z"
       style="fill:#000000;fill-opacity:1;fill-rule:nonzero;stroke:none"
       transform="scale(1.3333333)" />
    <path
       id="path38"
       d="m 25.836,12.871 h 3.637 v -0.195 h -0.207 c -0.641,0 -0.914,-0.129 -0.914,-0.418 0,-0.223 0.21,-0.809 0.234,-0.965 l 1.863,-6.762 c 0.055,-0.195 0.078,-0.312 0.078,-0.379 0,-0.05 -0.023,-0.09 -0.062,-0.09 l -2.242,0.442 c -0.028,0 -0.133,0.027 -0.274,0.055 v 0.195 l 0.742,-0.027 c 0.016,0 0.024,0 0.024,0 0.289,0 0.473,0.171 0.473,0.406 0,0.078 -0.028,0.207 -0.094,0.441 l -1.797,6.41 c -0.129,0.485 -0.43,0.614 -1.461,0.704 z"
       style="fill:#000000;fill-opacity:1;fill-rule:nonzero;stroke:none"
       transform="scale(1.3333333)" />
    <path
       id="path39"
       d="m 21.277,-180.801 v -28.453"
       style="fill:none;stroke:#00ce99;stroke-width:5.73558;stroke-linecap:butt;stroke-linejoin:miter;stroke-miterlimit:4;stroke-dasharray:none;stroke-opacity:1"
       transform="matrix(0,1.3333333,-1.03826,0,0,0)" />
    <path
       id="path40"
       d="m -202.372,-21.277 5.739,-5.735 -20.076,5.735 20.076,5.734 z"
       style="fill:#00ce99;fill-opacity:1;fill-rule:evenodd;stroke:#00ce99;stroke-width:1.52949;stroke-linecap:butt;stroke-linejoin:miter;stroke-miterlimit:4;stroke-dasharray:none;stroke-opacity:1"
       transform="scale(-1.03826,-1.3333333)" />
    <path
       id="path41"
       d="m 28.324,-194.2 -7.183,-25.197 -6.996,24.911 4.312,-4.023 v 17.532 h 5.75 v -17.246 z"
       style="fill:#ffffff;fill-opacity:1;fill-rule:nonzero;stroke:#000000;stroke-width:0.758769;stroke-linecap:butt;stroke-linejoin:miter;stroke-miterlimit:4;stroke-dasharray:none;stroke-opacity:1"
       transform="matrix(0,1.3333333,-1.03826,0,0,0)" />
    <path
       id="path42"
       d="m 156.07,5.996 c 0,-0.203 -0.16,-0.203 -0.3,-0.203 -0.239,0 -0.258,0.023 -0.379,0.461 -0.282,1.125 -0.661,2.387 -1.344,2.387 -0.52,0 -0.52,-0.539 -0.52,-0.821 0,-0.14 0,-0.461 0.141,-1.023 l 1.441,-5.774 c 0.039,-0.121 0.059,-0.218 0.059,-0.281 0,-0.219 -0.16,-0.519 -0.559,-0.519 -0.601,0 -0.742,0.582 -0.781,0.742 l -1.465,5.851 c -0.101,0.364 -0.101,0.403 -0.281,0.664 -0.379,0.559 -0.961,1.161 -1.844,1.161 -0.902,0 -1.082,-0.883 -1.082,-1.543 0,-1.223 0.66,-3.028 1.164,-4.391 0.16,-0.422 0.258,-0.699 0.258,-1.082 0,-1.004 -0.66,-1.625 -1.523,-1.625 -1.864,0 -2.567,2.969 -2.567,3.09 0,0.199 0.203,0.199 0.301,0.199 0.262,0 0.281,-0.039 0.363,-0.32 0.16,-0.621 0.7,-2.528 1.864,-2.528 0.218,0 0.441,0.063 0.441,0.582 0,0.481 -0.199,1.024 -0.48,1.805 -0.524,1.402 -1.043,2.887 -1.043,3.93 0,1.742 1.164,2.324 2.246,2.324 1.062,0 1.742,-0.602 2.222,-1.203 0.364,1.082 1.223,1.203 1.606,1.203 0.742,0 1.16,-0.5 1.461,-1.121 0.363,-0.762 0.601,-1.965 0.601,-1.965 z"
       style="fill:#000000;fill-opacity:1;fill-rule:nonzero;stroke:none"
       transform="scale(1.3333333)" />
    <path
       id="path43"
       d="m 156.633,6.148 0.273,0.09 c 0.485,-0.847 1.043,-1.222 1.824,-1.222 0.926,0 1.629,0.675 1.629,1.589 0,0.625 -0.339,1.497 -1.875,3.125 l -2.738,2.918 v 0.223 h 4.625 l 0.652,-1.719 -0.218,-0.093 c -0.317,0.652 -0.59,0.82 -1.293,0.82 h -2.473 v -0.063 l 2.5,-2.504 c 1.523,-1.523 1.941,-2.175 1.941,-3.035 0,-1.25 -0.925,-2.215 -2.109,-2.215 -1.031,0 -2.086,0.469 -2.738,2.086 z"
       style="fill:#000000;fill-opacity:1;fill-rule:nonzero;stroke:none"
       transform="scale(1.3333333)" />
    <path
       id="path44"
       d="m 21.277,-355.086 v -28.453"
       style="fill:none;stroke:#00ce99;stroke-width:5.73558;stroke-linecap:butt;stroke-linejoin:miter;stroke-miterlimit:4;stroke-dasharray:none;stroke-opacity:1"
       transform="matrix(0,1.3333333,-1.03826,0,0,0)" />
    <path
       id="path45"
       d="m -376.657,-21.277 5.739,-5.735 -20.076,5.735 20.076,5.734 z"
       style="fill:#00ce99;fill-opacity:1;fill-rule:evenodd;stroke:#00ce99;stroke-width:1.52949;stroke-linecap:butt;stroke-linejoin:miter;stroke-miterlimit:4;stroke-dasharray:none;stroke-opacity:1"
       transform="scale(-1.03826,-1.3333333)" />
    <path
       id="path46"
       d="m 28.324,-368.485 -7.183,-25.197 -6.996,24.911 4.312,-4.023 v 17.532 h 5.75 v -17.246 z"
       style="fill:#ffffff;fill-opacity:1;fill-rule:nonzero;stroke:#000000;stroke-width:0.758769;stroke-linecap:butt;stroke-linejoin:miter;stroke-miterlimit:4;stroke-dasharray:none;stroke-opacity:1"
       transform="matrix(0,1.3333333,-1.03826,0,0,0)" />
    <path
       id="path47"
       d="m 291.785,5.996 c 0,-0.203 -0.16,-0.203 -0.301,-0.203 -0.238,0 -0.257,0.023 -0.379,0.461 -0.281,1.125 -0.66,2.387 -1.343,2.387 -0.52,0 -0.52,-0.539 -0.52,-0.821 0,-0.14 0,-0.461 0.141,-1.023 l 1.441,-5.774 c 0.039,-0.121 0.059,-0.218 0.059,-0.281 0,-0.219 -0.16,-0.519 -0.559,-0.519 -0.601,0 -0.742,0.582 -0.781,0.742 l -1.465,5.851 c -0.101,0.364 -0.101,0.403 -0.281,0.664 -0.379,0.559 -0.961,1.161 -1.844,1.161 -0.902,0 -1.082,-0.883 -1.082,-1.543 0,-1.223 0.66,-3.028 1.164,-4.391 0.16,-0.422 0.258,-0.699 0.258,-1.082 0,-1.004 -0.66,-1.625 -1.523,-1.625 -1.864,0 -2.567,2.969 -2.567,3.09 0,0.199 0.203,0.199 0.301,0.199 0.262,0 0.281,-0.039 0.363,-0.32 0.16,-0.621 0.699,-2.528 1.863,-2.528 0.219,0 0.442,0.063 0.442,0.582 0,0.481 -0.199,1.024 -0.481,1.805 -0.523,1.402 -1.043,2.887 -1.043,3.93 0,1.742 1.161,2.324 2.247,2.324 1.062,0 1.742,-0.602 2.222,-1.203 0.363,1.082 1.223,1.203 1.606,1.203 0.742,0 1.16,-0.5 1.461,-1.121 0.363,-0.762 0.601,-1.965 0.601,-1.965 z"
       style="fill:#000000;fill-opacity:1;fill-rule:nonzero;stroke:none"
       transform="scale(1.3333333)" />
    <path
       id="path48"
       d="m 293.129,7.957 v 0.211 c 1.461,0 2.426,0.418 2.426,2.16 0,1.317 -0.809,2.141 -1.707,2.141 -0.703,0 -1.11,-0.785 -1.774,-0.785 -0.363,0 -0.574,0.183 -0.574,0.507 0,0.497 0.535,0.77 1.461,0.77 2.254,0 3.633,-1.613 3.633,-3.336 0,-0.937 -0.375,-1.535 -1.25,-1.941 V 7.645 c 1.578,-0.61 2.035,-1.043 2.035,-1.926 0,-0.953 -0.785,-1.657 -1.824,-1.657 -0.903,0 -1.707,0.52 -2.137,1.356 l 0.207,0.066 c 0.457,-0.601 0.91,-0.875 1.461,-0.875 0.687,0 1.156,0.485 1.156,1.188 0,1.629 -2.304,2.031 -3.113,2.16 z"
       style="fill:#000000;fill-opacity:1;fill-rule:nonzero;stroke:none"
       transform="scale(1.3333333)" />
    <path
       id="path49"
       d="M 0,0 H 336.668 V 125.27 H 0 Z"
       style="fill:none;stroke:#ffffff;stroke-width:0.00283465;stroke-linecap:butt;stroke-linejoin:bevel;stroke-miterlimit:3.9;stroke-dasharray:none;stroke-opacity:1"
       transform="scale(1.3333333)" />
    <path
       id="path50"
       d="m 53.742,-16.559 h 9.043 v -9.043 h -9.043 z"
       style="fill:#ffffff;fill-opacity:1;fill-rule:nonzero;stroke:#000000;stroke-width:0.920356;stroke-linecap:butt;stroke-linejoin:miter;stroke-miterlimit:4;stroke-dasharray:none;stroke-opacity:1"
       transform="matrix(0,1.3333333,-1.3333333,0,0,0)" />
  </g>
</svg>
