<?xml version="1.0" encoding="UTF-8" standalone="no"?>
<!-- Created with Inkscape (http://www.inkscape.org/) -->

<svg
   version="1.1"
   id="svg1"
   width="396.5383"
   height="84.326904"
   viewBox="0 0 396.5383 84.326904"
   sodipodi:docname="assembly1.svg"
   inkscape:version="1.3.2 (091e20e, 2023-11-25, custom)"
   xmlns:inkscape="http://www.inkscape.org/namespaces/inkscape"
   xmlns:sodipodi="http://sodipodi.sourceforge.net/DTD/sodipodi-0.dtd"
   xmlns="http://www.w3.org/2000/svg"
   xmlns:svg="http://www.w3.org/2000/svg">
  <defs
     id="defs1" />
  <sodipodi:namedview
     id="namedview1"
     pagecolor="#ffffff"
     bordercolor="#000000"
     borderopacity="0.25"
     inkscape:showpageshadow="2"
     inkscape:pageopacity="0.0"
     inkscape:pagecheckerboard="0"
     inkscape:deskcolor="#d1d1d1"
     inkscape:zoom="1.3655877"
     inkscape:cx="5.8582837"
     inkscape:cy="171.72094"
     inkscape:window-width="1920"
     inkscape:window-height="1001"
     inkscape:window-x="-9"
     inkscape:window-y="-9"
     inkscape:window-maximized="1"
     inkscape:current-layer="g1">
    <inkscape:page
       x="0"
       y="0"
       inkscape:label="1"
       id="page1"
       width="396.5383"
       height="84.326904"
       margin="0"
       bleed="0" />
  </sodipodi:namedview>
  <g
     id="g1"
     inkscape:groupmode="layer"
     inkscape:label="1"
     transform="translate(-13.65272)">
    <path
       id="path1"
       d="m 53.742,-151.758 h 9.043 v -9.043 h -9.043 z"
       style="fill:#ffffff;fill-opacity:1;fill-rule:nonzero;stroke:#000000;stroke-width:0.920356;stroke-linecap:butt;stroke-linejoin:miter;stroke-miterlimit:4;stroke-dasharray:none;stroke-opacity:1"
       transform="matrix(0,1.3333333,-1.3333333,0,0,0)" />
    <path
       id="path2"
       d="m 53.742,-287.473 h 9.043 v -9.043 h -9.043 z"
       style="fill:#ffffff;fill-opacity:1;fill-rule:nonzero;stroke:#000000;stroke-width:0.920356;stroke-linecap:butt;stroke-linejoin:miter;stroke-miterlimit:4;stroke-dasharray:none;stroke-opacity:1"
       transform="matrix(0,1.3333333,-1.3333333,0,0,0)" />
    <path
       id="path3"
       d="M 21.277,-13.349 V -41.807"
       style="fill:none;stroke:#00ce99;stroke-width:5.73558;stroke-linecap:butt;stroke-linejoin:miter;stroke-miterlimit:4;stroke-dasharray:none;stroke-opacity:1"
       transform="matrix(0,1.3333333,-1.03826,0,0,0)" />
    <path
       id="path4"
       d="m -34.924,-21.277 5.739,-5.735 -20.076,5.735 20.076,5.734 z"
       style="fill:#00ce99;fill-opacity:1;fill-rule:evenodd;stroke:#00ce99;stroke-width:1.52949;stroke-linecap:butt;stroke-linejoin:miter;stroke-miterlimit:4;stroke-dasharray:none;stroke-opacity:1"
       transform="scale(-1.03826,-1.3333333)" />
    <path
       id="path5"
       d="m 28.324,-26.752 -7.183,-25.198 -6.996,24.912 4.312,-4.024 v 17.533 h 5.75 v -17.247 z"
       style="fill:#ffffff;fill-opacity:1;fill-rule:nonzero;stroke:#000000;stroke-width:0.758769;stroke-linecap:butt;stroke-linejoin:miter;stroke-miterlimit:4;stroke-dasharray:none;stroke-opacity:1"
       transform="matrix(0,1.3333333,-1.03826,0,0,0)" />
    <path
       id="path6"
       d="m 25.68,5.996 c 0,-0.203 -0.16,-0.203 -0.301,-0.203 -0.238,0 -0.258,0.023 -0.379,0.461 -0.281,1.125 -0.664,2.387 -1.344,2.387 -0.523,0 -0.523,-0.539 -0.523,-0.821 0,-0.14 0,-0.461 0.14,-1.023 l 1.446,-5.774 c 0.039,-0.121 0.058,-0.218 0.058,-0.281 0,-0.219 -0.16,-0.519 -0.558,-0.519 -0.602,0 -0.742,0.582 -0.785,0.742 L 21.973,6.816 C 21.871,7.18 21.871,7.219 21.691,7.48 21.309,8.039 20.73,8.641 19.848,8.641 c -0.903,0 -1.082,-0.883 -1.082,-1.543 0,-1.223 0.66,-3.028 1.16,-4.391 0.16,-0.422 0.262,-0.699 0.262,-1.082 C 20.188,0.621 19.527,0 18.664,0 c -1.863,0 -2.566,2.969 -2.566,3.09 0,0.199 0.199,0.199 0.3,0.199 0.262,0 0.282,-0.039 0.364,-0.32 0.16,-0.621 0.699,-2.528 1.863,-2.528 0.219,0 0.441,0.063 0.441,0.582 0,0.481 -0.203,1.024 -0.48,1.805 -0.524,1.402 -1.043,2.887 -1.043,3.93 0,1.742 1.16,2.324 2.242,2.324 1.063,0 1.746,-0.602 2.227,-1.203 0.359,1.082 1.222,1.203 1.605,1.203 0.738,0 1.16,-0.5 1.461,-1.121 0.363,-0.762 0.602,-1.965 0.602,-1.965 z"
       style="fill:#000000;fill-opacity:1;fill-rule:nonzero;stroke:none"
       transform="scale(1.3333333)" />
    <path
       id="path7"
       d="m 25.836,12.871 h 3.637 v -0.195 h -0.207 c -0.641,0 -0.914,-0.129 -0.914,-0.418 0,-0.223 0.21,-0.809 0.234,-0.965 l 1.863,-6.762 c 0.055,-0.195 0.078,-0.312 0.078,-0.379 0,-0.05 -0.023,-0.09 -0.062,-0.09 l -2.242,0.442 c -0.028,0 -0.133,0.027 -0.274,0.055 v 0.195 l 0.742,-0.027 c 0.016,0 0.024,0 0.024,0 0.289,0 0.473,0.171 0.473,0.406 0,0.078 -0.028,0.207 -0.094,0.441 l -1.797,6.41 c -0.129,0.485 -0.43,0.614 -1.461,0.704 z"
       style="fill:#000000;fill-opacity:1;fill-rule:nonzero;stroke:none"
       transform="scale(1.3333333)" />
    <path
       id="path8"
       d="m 21.277,-180.801 v -28.453"
       style="fill:none;stroke:#00ce99;stroke-width:5.73558;stroke-linecap:butt;stroke-linejoin:miter;stroke-miterlimit:4;stroke-dasharray:none;stroke-opacity:1"
       transform="matrix(0,1.3333333,-1.03826,0,0,0)" />
    <path
       id="path9"
       d="m -202.372,-21.277 5.739,-5.735 -20.076,5.735 20.076,5.734 z"
       style="fill:#00ce99;fill-opacity:1;fill-rule:evenodd;stroke:#00ce99;stroke-width:1.52949;stroke-linecap:butt;stroke-linejoin:miter;stroke-miterlimit:4;stroke-dasharray:none;stroke-opacity:1"
       transform="scale(-1.03826,-1.3333333)" />
    <path
       id="path10"
       d="m 28.324,-194.2 -7.183,-25.197 -6.996,24.911 4.312,-4.023 v 17.532 h 5.75 v -17.246 z"
       style="fill:#ffffff;fill-opacity:1;fill-rule:nonzero;stroke:#000000;stroke-width:0.758769;stroke-linecap:butt;stroke-linejoin:miter;stroke-miterlimit:4;stroke-dasharray:none;stroke-opacity:1"
       transform="matrix(0,1.3333333,-1.03826,0,0,0)" />
    <path
       id="path11"
       d="m 156.07,5.996 c 0,-0.203 -0.16,-0.203 -0.3,-0.203 -0.239,0 -0.258,0.023 -0.379,0.461 -0.282,1.125 -0.661,2.387 -1.344,2.387 -0.52,0 -0.52,-0.539 -0.52,-0.821 0,-0.14 0,-0.461 0.141,-1.023 l 1.441,-5.774 c 0.039,-0.121 0.059,-0.218 0.059,-0.281 0,-0.219 -0.16,-0.519 -0.559,-0.519 -0.601,0 -0.742,0.582 -0.781,0.742 l -1.465,5.851 c -0.101,0.364 -0.101,0.403 -0.281,0.664 -0.379,0.559 -0.961,1.161 -1.844,1.161 -0.902,0 -1.082,-0.883 -1.082,-1.543 0,-1.223 0.66,-3.028 1.164,-4.391 0.16,-0.422 0.258,-0.699 0.258,-1.082 0,-1.004 -0.66,-1.625 -1.523,-1.625 -1.864,0 -2.567,2.969 -2.567,3.09 0,0.199 0.203,0.199 0.301,0.199 0.262,0 0.281,-0.039 0.363,-0.32 0.16,-0.621 0.7,-2.528 1.864,-2.528 0.218,0 0.441,0.063 0.441,0.582 0,0.481 -0.199,1.024 -0.48,1.805 -0.524,1.402 -1.043,2.887 -1.043,3.93 0,1.742 1.164,2.324 2.246,2.324 1.062,0 1.742,-0.602 2.222,-1.203 0.364,1.082 1.223,1.203 1.606,1.203 0.742,0 1.16,-0.5 1.461,-1.121 0.363,-0.762 0.601,-1.965 0.601,-1.965 z"
       style="fill:#000000;fill-opacity:1;fill-rule:nonzero;stroke:none"
       transform="scale(1.3333333)" />
    <path
       id="path12"
       d="m 156.633,6.148 0.273,0.09 c 0.485,-0.847 1.043,-1.222 1.824,-1.222 0.926,0 1.629,0.675 1.629,1.589 0,0.625 -0.339,1.497 -1.875,3.125 l -2.738,2.918 v 0.223 h 4.625 l 0.652,-1.719 -0.218,-0.093 c -0.317,0.652 -0.59,0.82 -1.293,0.82 h -2.473 v -0.063 l 2.5,-2.504 c 1.523,-1.523 1.941,-2.175 1.941,-3.035 0,-1.25 -0.925,-2.215 -2.109,-2.215 -1.031,0 -2.086,0.469 -2.738,2.086 z"
       style="fill:#000000;fill-opacity:1;fill-rule:nonzero;stroke:none"
       transform="scale(1.3333333)" />
    <path
       id="path13"
       d="m 21.277,-355.086 v -28.453"
       style="fill:none;stroke:#00ce99;stroke-width:5.73558;stroke-linecap:butt;stroke-linejoin:miter;stroke-miterlimit:4;stroke-dasharray:none;stroke-opacity:1"
       transform="matrix(0,1.3333333,-1.03826,0,0,0)" />
    <path
       id="path14"
       d="m -376.657,-21.277 5.739,-5.735 -20.076,5.735 20.076,5.734 z"
       style="fill:#00ce99;fill-opacity:1;fill-rule:evenodd;stroke:#00ce99;stroke-width:1.52949;stroke-linecap:butt;stroke-linejoin:miter;stroke-miterlimit:4;stroke-dasharray:none;stroke-opacity:1"
       transform="scale(-1.03826,-1.3333333)" />
    <path
       id="path15"
       d="m 28.324,-368.485 -7.183,-25.197 -6.996,24.911 4.312,-4.023 v 17.532 h 5.75 v -17.246 z"
       style="fill:#ffffff;fill-opacity:1;fill-rule:nonzero;stroke:#000000;stroke-width:0.758769;stroke-linecap:butt;stroke-linejoin:miter;stroke-miterlimit:4;stroke-dasharray:none;stroke-opacity:1"
       transform="matrix(0,1.3333333,-1.03826,0,0,0)" />
    <path
       id="path16"
       d="m 291.785,5.996 c 0,-0.203 -0.16,-0.203 -0.301,-0.203 -0.238,0 -0.257,0.023 -0.379,0.461 -0.281,1.125 -0.66,2.387 -1.343,2.387 -0.52,0 -0.52,-0.539 -0.52,-0.821 0,-0.14 0,-0.461 0.141,-1.023 l 1.441,-5.774 c 0.039,-0.121 0.059,-0.218 0.059,-0.281 0,-0.219 -0.16,-0.519 -0.559,-0.519 -0.601,0 -0.742,0.582 -0.781,0.742 l -1.465,5.851 c -0.101,0.364 -0.101,0.403 -0.281,0.664 -0.379,0.559 -0.961,1.161 -1.844,1.161 -0.902,0 -1.082,-0.883 -1.082,-1.543 0,-1.223 0.66,-3.028 1.164,-4.391 0.16,-0.422 0.258,-0.699 0.258,-1.082 0,-1.004 -0.66,-1.625 -1.523,-1.625 -1.864,0 -2.567,2.969 -2.567,3.09 0,0.199 0.203,0.199 0.301,0.199 0.262,0 0.281,-0.039 0.363,-0.32 0.16,-0.621 0.699,-2.528 1.863,-2.528 0.219,0 0.442,0.063 0.442,0.582 0,0.481 -0.199,1.024 -0.481,1.805 -0.523,1.402 -1.043,2.887 -1.043,3.93 0,1.742 1.161,2.324 2.247,2.324 1.062,0 1.742,-0.602 2.222,-1.203 0.363,1.082 1.223,1.203 1.606,1.203 0.742,0 1.16,-0.5 1.461,-1.121 0.363,-0.762 0.601,-1.965 0.601,-1.965 z"
       style="fill:#000000;fill-opacity:1;fill-rule:nonzero;stroke:none"
       transform="scale(1.3333333)" />
    <path
       id="path17"
       d="m 293.129,7.957 v 0.211 c 1.461,0 2.426,0.418 2.426,2.16 0,1.317 -0.809,2.141 -1.707,2.141 -0.703,0 -1.11,-0.785 -1.774,-0.785 -0.363,0 -0.574,0.183 -0.574,0.507 0,0.497 0.535,0.77 1.461,0.77 2.254,0 3.633,-1.613 3.633,-3.336 0,-0.937 -0.375,-1.535 -1.25,-1.941 V 7.645 c 1.578,-0.61 2.035,-1.043 2.035,-1.926 0,-0.953 -0.785,-1.657 -1.824,-1.657 -0.903,0 -1.707,0.52 -2.137,1.356 l 0.207,0.066 c 0.457,-0.601 0.91,-0.875 1.461,-0.875 0.687,0 1.156,0.485 1.156,1.188 0,1.629 -2.304,2.031 -3.113,2.16 z"
       style="fill:#000000;fill-opacity:1;fill-rule:nonzero;stroke:none"
       transform="scale(1.3333333)" />
    <path
       id="path18"
       d="M 0,0 H 336.668 V 125.27 H 0 Z"
       style="fill:none;stroke:#ffffff;stroke-width:0.00283465;stroke-linecap:butt;stroke-linejoin:bevel;stroke-miterlimit:3.9;stroke-dasharray:none;stroke-opacity:1"
       transform="scale(1.3333333)" />
    <path
       id="path19"
       d="m 53.742,-16.043 h 9.043 v -9.043 h -9.043 z"
       style="fill:#ffffff;fill-opacity:1;fill-rule:nonzero;stroke:#000000;stroke-width:0.920356;stroke-linecap:butt;stroke-linejoin:miter;stroke-miterlimit:4;stroke-dasharray:none;stroke-opacity:1"
       transform="matrix(0,1.3333333,-1.3333333,0,0,0)" />
  </g>
</svg>
