<?xml version="1.0" encoding="UTF-8" standalone="no"?>
<!-- Created with Inkscape (http://www.inkscape.org/) -->

<svg
   version="1.1"
   id="svg1"
   width="215.01437"
   height="159.81612"
   viewBox="0 0 215.01437 159.81612"
   sodipodi:docname="bending1field.svg"
   inkscape:version="1.3.2 (091e20e, 2023-11-25, custom)"
   xmlns:inkscape="http://www.inkscape.org/namespaces/inkscape"
   xmlns:sodipodi="http://sodipodi.sourceforge.net/DTD/sodipodi-0.dtd"
   xmlns="http://www.w3.org/2000/svg"
   xmlns:svg="http://www.w3.org/2000/svg"
   xmlns:rdf="http://www.w3.org/1999/02/22-rdf-syntax-ns#"
   xmlns:cc="http://creativecommons.org/ns#"
   xmlns:dc="http://purl.org/dc/elements/1.1/">
  <title
     id="title41">Cantilever beam with distributed load</title>
  <defs
     id="defs1" />
  <sodipodi:namedview
     id="namedview1"
     pagecolor="#ffffff"
     bordercolor="#000000"
     borderopacity="0.25"
     inkscape:showpageshadow="2"
     inkscape:pageopacity="0.0"
     inkscape:pagecheckerboard="0"
     inkscape:deskcolor="#d1d1d1"
     inkscape:zoom="4.9244096"
     inkscape:cx="107.42405"
     inkscape:cy="79.908056"
     inkscape:window-width="1920"
     inkscape:window-height="1001"
     inkscape:window-x="-9"
     inkscape:window-y="-9"
     inkscape:window-maximized="1"
     inkscape:current-layer="g1">
    <inkscape:page
       x="0"
       y="0"
       inkscape:label="1"
       id="page1"
       width="215.01437"
       height="159.81612"
       margin="0"
       bleed="0" />
  </sodipodi:namedview>
  <g
     id="g1"
     inkscape:groupmode="layer"
     inkscape:label="1">
    <path
       id="path1"
       d="M 20.562,57.359 H 156.277"
       style="fill:none;stroke:#000000;stroke-width:2.83465;stroke-linecap:butt;stroke-linejoin:miter;stroke-miterlimit:4;stroke-dasharray:none;stroke-opacity:1"
       transform="scale(1.3333333)" />
    <path
       id="path2"
       d="M 36.82,-20.562 H 77.176"
       style="fill:none;stroke:#000000;stroke-width:0.487788;stroke-linecap:butt;stroke-linejoin:miter;stroke-miterlimit:4;stroke-dasharray:none;stroke-opacity:1"
       transform="matrix(0,1.3333333,-1.3333333,0,0,0)" />
    <path
       id="path3"
       d="m 39.52,-11.977 4.957,-8.585 -7.789,13.492"
       style="fill:none;stroke:#000000;stroke-width:0.48702;stroke-linecap:butt;stroke-linejoin:miter;stroke-miterlimit:4;stroke-dasharray:none;stroke-opacity:1"
       transform="matrix(0,1.3333333,-1.3333333,0,0,0)" />
    <path
       id="path4"
       d="M 49.086,-20.562 37.305,-0.16"
       style="fill:none;stroke:#000000;stroke-width:0.48702;stroke-linecap:butt;stroke-linejoin:miter;stroke-miterlimit:4;stroke-dasharray:none;stroke-opacity:1"
       transform="matrix(0,1.3333333,-1.3333333,0,0,0)" />
    <path
       id="path5"
       d="M 53.695,-20.562 42,-0.309"
       style="fill:none;stroke:#000000;stroke-width:0.48702;stroke-linecap:butt;stroke-linejoin:miter;stroke-miterlimit:4;stroke-dasharray:none;stroke-opacity:1"
       transform="matrix(0,1.3333333,-1.3333333,0,0,0)" />
    <path
       id="path6"
       d="M 58.305,-20.562 46.5,-0.121"
       style="fill:none;stroke:#000000;stroke-width:0.48702;stroke-linecap:butt;stroke-linejoin:miter;stroke-miterlimit:4;stroke-dasharray:none;stroke-opacity:1"
       transform="matrix(0,1.3333333,-1.3333333,0,0,0)" />
    <path
       id="path7"
       d="M 62.914,-20.562 51.109,-0.121"
       style="fill:none;stroke:#000000;stroke-width:0.48702;stroke-linecap:butt;stroke-linejoin:miter;stroke-miterlimit:4;stroke-dasharray:none;stroke-opacity:1"
       transform="matrix(0,1.3333333,-1.3333333,0,0,0)" />
    <path
       id="path8"
       d="M 67.957,-20.562 56.156,-0.121"
       style="fill:none;stroke:#000000;stroke-width:0.48702;stroke-linecap:butt;stroke-linejoin:miter;stroke-miterlimit:4;stroke-dasharray:none;stroke-opacity:1"
       transform="matrix(0,1.3333333,-1.3333333,0,0,0)" />
    <path
       id="path9"
       d="m 72.566,-20.562 -11.8,20.441"
       style="fill:none;stroke:#000000;stroke-width:0.48702;stroke-linecap:butt;stroke-linejoin:miter;stroke-miterlimit:4;stroke-dasharray:none;stroke-opacity:1"
       transform="matrix(0,1.3333333,-1.3333333,0,0,0)" />
    <path
       id="path10"
       d="M 77.176,-20.562 65.375,-0.121"
       style="fill:none;stroke:#000000;stroke-width:0.48702;stroke-linecap:butt;stroke-linejoin:miter;stroke-miterlimit:4;stroke-dasharray:none;stroke-opacity:1"
       transform="matrix(0,1.3333333,-1.3333333,0,0,0)" />
    <path
       id="path11"
       d="m 69.809,-0.121 7.468,-12.941"
       style="fill:none;stroke:#000000;stroke-width:0.48702;stroke-linecap:butt;stroke-linejoin:miter;stroke-miterlimit:4;stroke-dasharray:none;stroke-opacity:1"
       transform="matrix(0,1.3333333,-1.3333333,0,0,0)" />
    <path
       id="path12"
       d="M 73.984,-0.121 77.285,-5.84"
       style="fill:none;stroke:#000000;stroke-width:0.48702;stroke-linecap:butt;stroke-linejoin:miter;stroke-miterlimit:4;stroke-dasharray:none;stroke-opacity:1"
       transform="matrix(0,1.3333333,-1.3333333,0,0,0)" />
    <path
       id="path13"
       d="m 39.801,-20.562 -3.133,5.429"
       style="fill:none;stroke:#000000;stroke-width:0.48702;stroke-linecap:butt;stroke-linejoin:miter;stroke-miterlimit:4;stroke-dasharray:none;stroke-opacity:1"
       transform="matrix(0,1.3333333,-1.3333333,0,0,0)" />
    <path
       id="path14"
       d="m 53.062,-16.383 h 9.047 v -9.043 h -9.047 z"
       style="fill:#ffffff;fill-opacity:1;fill-rule:nonzero;stroke:#000000;stroke-width:0.920355;stroke-linecap:butt;stroke-linejoin:miter;stroke-miterlimit:4;stroke-dasharray:none;stroke-opacity:1"
       transform="matrix(0,1.3333333,-1.3333333,0,0,0)" />
    <path
       id="path15"
       d="M 29.199,20.176 H 152.934"
       style="fill:none;stroke:#810000;stroke-width:0.957954;stroke-linecap:butt;stroke-linejoin:miter;stroke-miterlimit:4;stroke-dasharray:none;stroke-opacity:1"
       transform="scale(1.3333333)" />
    <path
       id="path16"
       d="m 152.934,20.176 v 27.23"
       style="fill:none;stroke:#810000;stroke-width:0.957954;stroke-linecap:butt;stroke-linejoin:miter;stroke-miterlimit:4;stroke-dasharray:none;stroke-opacity:1"
       transform="scale(1.3333333)" />
    <path
       id="path17"
       d="m -43.574,152.934 1.914,-1.914 -6.707,1.914 6.707,1.918 z"
       style="fill:#810000;fill-opacity:1;fill-rule:evenodd;stroke:#810000;stroke-width:0.510909;stroke-linecap:butt;stroke-linejoin:miter;stroke-miterlimit:4;stroke-dasharray:none;stroke-opacity:1"
       transform="matrix(0,-1.3333333,1.3333333,0,0,0)" />
    <path
       id="path18"
       d="m 29.199,20.176 v 27.23"
       style="fill:none;stroke:#810000;stroke-width:0.957954;stroke-linecap:butt;stroke-linejoin:miter;stroke-miterlimit:4;stroke-dasharray:none;stroke-opacity:1"
       transform="scale(1.3333333)" />
    <path
       id="path19"
       d="m -43.574,29.199 1.914,-1.918 -6.707,1.918 6.707,1.914 z"
       style="fill:#810000;fill-opacity:1;fill-rule:evenodd;stroke:#810000;stroke-width:0.510909;stroke-linecap:butt;stroke-linejoin:miter;stroke-miterlimit:4;stroke-dasharray:none;stroke-opacity:1"
       transform="matrix(0,-1.3333333,1.3333333,0,0,0)" />
    <path
       id="path20"
       d="m 135.27,20.434 v 27.23"
       style="fill:none;stroke:#810000;stroke-width:0.957954;stroke-linecap:butt;stroke-linejoin:miter;stroke-miterlimit:4;stroke-dasharray:none;stroke-opacity:1"
       transform="scale(1.3333333)" />
    <path
       id="path21"
       d="m -43.832,135.27 1.918,-1.918 -6.707,1.918 6.707,1.914 z"
       style="fill:#810000;fill-opacity:1;fill-rule:evenodd;stroke:#810000;stroke-width:0.510909;stroke-linecap:butt;stroke-linejoin:miter;stroke-miterlimit:4;stroke-dasharray:none;stroke-opacity:1"
       transform="matrix(0,-1.3333333,1.3333333,0,0,0)" />
    <path
       id="path22"
       d="M 117.348,19.664 V 46.895"
       style="fill:none;stroke:#810000;stroke-width:0.957954;stroke-linecap:butt;stroke-linejoin:miter;stroke-miterlimit:4;stroke-dasharray:none;stroke-opacity:1"
       transform="scale(1.3333333)" />
    <path
       id="path23"
       d="m -43.062,117.348 1.914,-1.918 -6.704,1.918 6.704,1.914 z"
       style="fill:#810000;fill-opacity:1;fill-rule:evenodd;stroke:#810000;stroke-width:0.510909;stroke-linecap:butt;stroke-linejoin:miter;stroke-miterlimit:4;stroke-dasharray:none;stroke-opacity:1"
       transform="matrix(0,-1.3333333,1.3333333,0,0,0)" />
    <path
       id="path24"
       d="m 97.121,20.176 v 27.23"
       style="fill:none;stroke:#810000;stroke-width:0.957954;stroke-linecap:butt;stroke-linejoin:miter;stroke-miterlimit:4;stroke-dasharray:none;stroke-opacity:1"
       transform="scale(1.3333333)" />
    <path
       id="path25"
       d="m -43.574,97.121 1.914,-1.918 -6.707,1.918 6.707,1.914 z"
       style="fill:#810000;fill-opacity:1;fill-rule:evenodd;stroke:#810000;stroke-width:0.510909;stroke-linecap:butt;stroke-linejoin:miter;stroke-miterlimit:4;stroke-dasharray:none;stroke-opacity:1"
       transform="matrix(0,-1.3333333,1.3333333,0,0,0)" />
    <path
       id="path26"
       d="m 79.453,20.434 v 27.23"
       style="fill:none;stroke:#810000;stroke-width:0.957954;stroke-linecap:butt;stroke-linejoin:miter;stroke-miterlimit:4;stroke-dasharray:none;stroke-opacity:1"
       transform="scale(1.3333333)" />
    <path
       id="path27"
       d="m -43.832,79.453 1.918,-1.914 -6.707,1.914 6.707,1.918 z"
       style="fill:#810000;fill-opacity:1;fill-rule:evenodd;stroke:#810000;stroke-width:0.510909;stroke-linecap:butt;stroke-linejoin:miter;stroke-miterlimit:4;stroke-dasharray:none;stroke-opacity:1"
       transform="matrix(0,-1.3333333,1.3333333,0,0,0)" />
    <path
       id="path28"
       d="M 61.531,19.664 V 46.895"
       style="fill:none;stroke:#810000;stroke-width:0.957954;stroke-linecap:butt;stroke-linejoin:miter;stroke-miterlimit:4;stroke-dasharray:none;stroke-opacity:1"
       transform="scale(1.3333333)" />
    <path
       id="path29"
       d="m -43.062,61.531 1.914,-1.918 -6.704,1.918 6.704,1.914 z"
       style="fill:#810000;fill-opacity:1;fill-rule:evenodd;stroke:#810000;stroke-width:0.510909;stroke-linecap:butt;stroke-linejoin:miter;stroke-miterlimit:4;stroke-dasharray:none;stroke-opacity:1"
       transform="matrix(0,-1.3333333,1.3333333,0,0,0)" />
    <path
       id="path30"
       d="m 43.863,20.688 v 27.23"
       style="fill:none;stroke:#810000;stroke-width:0.957954;stroke-linecap:butt;stroke-linejoin:miter;stroke-miterlimit:4;stroke-dasharray:none;stroke-opacity:1"
       transform="scale(1.3333333)" />
    <path
       id="path31"
       d="m -44.086,43.863 1.914,-1.914 -6.707,1.914 6.707,1.918 z"
       style="fill:#810000;fill-opacity:1;fill-rule:evenodd;stroke:#810000;stroke-width:0.510909;stroke-linecap:butt;stroke-linejoin:miter;stroke-miterlimit:4;stroke-dasharray:none;stroke-opacity:1"
       transform="matrix(0,-1.3333333,1.3333333,0,0,0)" />
    <path
       id="path32"
       d="m 93.816,12.367 c 0,-0.238 -0.203,-0.238 -0.48,-0.238 -1.024,0 -1.024,-0.121 -1.024,-0.32 0,-0.141 0.04,-0.243 0.059,-0.364 L 95.117,0.5 C 95.137,0.441 95.18,0.242 95.18,0.242 95.18,0.059 95.02,0.02 94.957,0.02 94.738,0.02 94.016,0.723 93.695,1.281 93.453,0.703 92.934,0 91.973,0 c -2.227,0 -4.594,3.047 -4.594,5.973 0,1.703 0.926,3.109 2.426,3.109 0.824,0 1.566,-0.523 2.125,-1.062 -0.399,1.562 -0.379,1.562 -0.782,3.144 -0.218,0.863 -0.238,0.945 -1.523,0.965 -0.258,0 -0.48,0 -0.48,0.379 0,0.18 0.121,0.242 0.261,0.242 0.641,0 1.344,-0.062 2.004,-0.062 0.66,0 1.383,0.062 2.024,0.062 0.121,0 0.382,0 0.382,-0.383 z M 92.332,6.414 c -0.16,0.621 -1.383,2.227 -2.484,2.227 -0.946,0 -1.106,-1.184 -1.106,-1.786 0,-1.003 0.625,-3.347 0.985,-4.187 0.5,-1.227 1.421,-2.227 2.246,-2.227 0.16,0 0.621,0.02 0.98,0.582 0.199,0.321 0.402,0.903 0.402,1.282 0,0.062 -0.019,0.14 -0.062,0.261 z"
       style="fill:#000000;fill-opacity:1;fill-rule:nonzero;stroke:none"
       transform="scale(1.3333333)" />
    <path
       id="path33"
       d="m 89.754,74.168 c 0,-0.223 -0.242,-0.223 -0.301,-0.223 -0.219,0 -0.242,0.02 -0.422,0.481 -1.16,2.769 -1.863,4.07 -5.051,4.07 h -2.445 c -0.621,0 -0.621,-0.058 -0.621,-0.199 0,-0.121 0.059,-0.32 0.078,-0.442 l 1.387,-5.511 h 1.742 c 1.363,0 1.504,0.32 1.504,0.859 0,0.141 -0.02,0.442 -0.18,1.024 0,0 -0.043,0.16 -0.043,0.218 0,0.243 0.203,0.243 0.325,0.243 0.218,0 0.277,-0.04 0.359,-0.403 l 1.102,-4.41 c 0.019,-0.059 0.062,-0.258 0.062,-0.258 0,-0.242 -0.242,-0.242 -0.324,-0.242 -0.258,0 -0.258,0.063 -0.379,0.48 -0.383,1.426 -0.762,1.868 -2.387,1.868 h -1.621 l 1.223,-4.934 c 0.16,-0.66 0.3,-0.68 0.961,-0.68 h 2.504 c 2.168,0 2.668,0.602 2.668,2.024 0,0.543 -0.04,0.801 -0.102,1.281 -0.02,0.102 -0.039,0.281 -0.039,0.344 0,0.238 0.219,0.238 0.301,0.238 0.281,0 0.3,-0.078 0.34,-0.441 l 0.46,-3.547 c 0.063,-0.52 -0.058,-0.52 -0.48,-0.52 h -9.359 c -0.344,0 -0.543,0 -0.543,0.36 0,0.261 0.14,0.261 0.543,0.261 1.16,0 1.16,0.161 1.16,0.34 0,0 0,0.16 -0.078,0.461 L 79.41,77.656 c -0.16,0.68 -0.281,0.84 -1.644,0.84 -0.321,0 -0.539,0 -0.539,0.383 0,0.238 0.179,0.238 0.5,0.238 h 9.601 c 0.402,0 0.422,-0.019 0.563,-0.32 l 1.785,-4.391 c 0.019,-0.039 0.078,-0.238 0.078,-0.238 z"
       style="fill:#000000;fill-opacity:1;fill-rule:nonzero;stroke:none"
       transform="scale(1.3333333)" />
    <path
       id="path34"
       d="m 96.348,78.738 c 0,-0.242 -0.16,-0.242 -0.559,-0.242 -1.242,0 -1.242,-0.141 -1.242,-0.359 0,0 0,-0.141 0.078,-0.442 l 2.707,-10.824 c 0.16,-0.644 0.281,-0.824 1.664,-0.824 0.422,0 0.621,0 0.621,-0.379 0,-0.242 -0.199,-0.242 -0.281,-0.242 -0.801,0 -1.645,0.062 -2.465,0.062 -0.824,0 -1.683,-0.062 -2.508,-0.062 -0.14,0 -0.379,0 -0.379,0.363 0,0.258 0.141,0.258 0.539,0.258 0.684,0 1.266,0 1.266,0.34 0,0.062 -0.043,0.324 -0.062,0.383 L 93,77.676 c -0.16,0.66 -0.34,0.82 -1.684,0.82 -0.418,0 -0.601,0 -0.601,0.359 0,0.223 0.14,0.262 0.281,0.262 0.801,0 1.645,-0.058 2.465,-0.058 0.824,0 1.684,0.058 2.488,0.058 0.141,0 0.399,0 0.399,-0.379 z"
       style="fill:#000000;fill-opacity:1;fill-rule:nonzero;stroke:none"
       transform="scale(1.3333333)" />
    <path
       id="path35"
       d="m 155.902,85.766 v 22.746"
       style="fill:none;stroke:#000000;stroke-width:0.749999;stroke-linecap:butt;stroke-linejoin:miter;stroke-miterlimit:4;stroke-dasharray:none;stroke-opacity:1"
       transform="scale(1.3333333)" />
    <path
       id="path36"
       d="m 20.664,85.766 v 22.746"
       style="fill:none;stroke:#000000;stroke-width:0.749999;stroke-linecap:butt;stroke-linejoin:miter;stroke-miterlimit:4;stroke-dasharray:none;stroke-opacity:1"
       transform="scale(1.3333333)" />
    <path
       id="path37"
       d="M 154.297,97.141 H 22.254"
       style="fill:none;stroke:#000000;stroke-width:0.749999;stroke-linecap:butt;stroke-linejoin:miter;stroke-miterlimit:4;stroke-dasharray:none;stroke-opacity:1"
       transform="scale(1.3333333)" />
    <path
       id="path38"
       d="m -146.281,-93.812 -9.012,-3.313 9.012,-3.316 c -1.438,1.957 -1.43,4.632 0,6.629 z"
       style="fill:#000000;fill-opacity:1;fill-rule:evenodd;stroke:#000000;stroke-width:0.515624;stroke-linecap:butt;stroke-linejoin:round;stroke-miterlimit:4;stroke-dasharray:none;stroke-opacity:1"
       transform="scale(-1.3333333)" />
    <path
       id="path39"
       d="M 30.27,100.469 21.258,97.152 30.27,93.84 c -1.438,1.957 -1.43,4.633 0,6.629 z"
       style="fill:#000000;fill-opacity:1;fill-rule:evenodd;stroke:#000000;stroke-width:0.515624;stroke-linecap:butt;stroke-linejoin:round;stroke-miterlimit:4;stroke-dasharray:none;stroke-opacity:1"
       transform="scale(1.3333333)" />
    <path
       id="path40"
       d="m 91.066,105.297 c 0,-1.145 -0.882,-1.836 -1.976,-1.836 -3.672,0 -4.625,6.363 -5.317,8.773 l -2.648,1.813 0.238,0.402 2.196,-1.453 c -0.383,1.313 -1.098,2.91 -1.098,4.316 0,1.454 0.859,2.551 2.383,2.551 1.98,0 3.433,-1.933 4.246,-3.531 l -0.43,-0.164 c -0.598,1.121 -1.742,2.812 -3.172,2.812 -0.929,0 -1.406,-0.714 -1.406,-1.574 0,-1.359 1.238,-4.742 1.621,-6.031 1.813,-1.215 5.363,-3.625 5.363,-6.078 z m -0.668,0.141 c 0,1.98 -3.027,4.171 -4.457,5.222 l 1.024,-3.504 c 0.312,-1.051 0.957,-2.812 2.289,-2.812 0.668,0 1.144,0.402 1.144,1.094 z"
       style="fill:#000000;fill-opacity:1;fill-rule:nonzero;stroke:none"
       transform="scale(1.3333333)" />
    <path
       id="path41"
       d="m 52.84,-151.758 h 9.043 v -9.043 H 52.84 Z"
       style="fill:#ffffff;fill-opacity:1;fill-rule:nonzero;stroke:#000000;stroke-width:0.920356;stroke-linecap:butt;stroke-linejoin:miter;stroke-miterlimit:4;stroke-dasharray:none;stroke-opacity:1"
       transform="matrix(0,1.3333333,-1.3333333,0,0,0)" />
  </g>
  <metadata
     id="metadata41">
    <rdf:RDF>
      <cc:Work
         rdf:about="">
        <dc:title>Cantilever beam with distributed load</dc:title>
      </cc:Work>
    </rdf:RDF>
  </metadata>
</svg>
