<?xml version="1.0" encoding="UTF-8" standalone="no"?>
<!-- Created with Inkscape (http://www.inkscape.org/) -->

<svg
   version="1.1"
   id="svg1"
   width="418.6442"
   height="334.81622"
   viewBox="0 0 418.6442 334.81622"
   sodipodi:docname="bigframe.svg"
   inkscape:version="1.3.2 (091e20e, 2023-11-25, custom)"
   xmlns:inkscape="http://www.inkscape.org/namespaces/inkscape"
   xmlns:sodipodi="http://sodipodi.sourceforge.net/DTD/sodipodi-0.dtd"
   xmlns="http://www.w3.org/2000/svg"
   xmlns:svg="http://www.w3.org/2000/svg"
   xmlns:rdf="http://www.w3.org/1999/02/22-rdf-syntax-ns#"
   xmlns:cc="http://creativecommons.org/ns#"
   xmlns:dc="http://purl.org/dc/elements/1.1/">
  <title
     id="title119">Big frame</title>
  <defs
     id="defs1" />
  <sodipodi:namedview
     id="namedview1"
     pagecolor="#ffffff"
     bordercolor="#000000"
     borderopacity="0.25"
     inkscape:showpageshadow="2"
     inkscape:pageopacity="0.0"
     inkscape:pagecheckerboard="0"
     inkscape:deskcolor="#d1d1d1"
     inkscape:zoom="2.3505432"
     inkscape:cx="209.31332"
     inkscape:cy="167.40811"
     inkscape:window-width="1920"
     inkscape:window-height="1001"
     inkscape:window-x="-9"
     inkscape:window-y="-9"
     inkscape:window-maximized="1"
     inkscape:current-layer="g1">
    <inkscape:page
       x="0"
       y="0"
       inkscape:label="1"
       id="page1"
       width="418.6442"
       height="334.81622"
       margin="0"
       bleed="0" />
  </sodipodi:namedview>
  <g
     id="g1"
     inkscape:groupmode="layer"
     inkscape:label="1">
    <path
       id="path1"
       d="M 21.277,125.555 H 156.992"
       style="fill:none;stroke:#000000;stroke-width:2.83465;stroke-linecap:butt;stroke-linejoin:miter;stroke-miterlimit:4;stroke-dasharray:none;stroke-opacity:1"
       transform="scale(1.3333333)" />
    <path
       id="path2"
       d="m 61.027,29.59 95.965,95.965"
       style="fill:none;stroke:#000000;stroke-width:2.83465;stroke-linecap:butt;stroke-linejoin:miter;stroke-miterlimit:4;stroke-dasharray:none;stroke-opacity:1"
       transform="scale(1.3333333)" />
    <path
       id="path3"
       d="M 156.992,125.555 H 292.707"
       style="fill:none;stroke:#000000;stroke-width:2.83465;stroke-linecap:butt;stroke-linejoin:miter;stroke-miterlimit:4;stroke-dasharray:none;stroke-opacity:1"
       transform="scale(1.3333333)" />
    <path
       id="path4"
       d="m 156.992,125.555 95.965,95.965"
       style="fill:none;stroke:#000000;stroke-width:2.83465;stroke-linecap:butt;stroke-linejoin:miter;stroke-miterlimit:4;stroke-dasharray:none;stroke-opacity:1"
       transform="scale(1.3333333)" />
    <path
       id="path5"
       d="m 252.957,29.59 -95.965,95.965"
       style="fill:none;stroke:#000000;stroke-width:2.83465;stroke-linecap:butt;stroke-linejoin:miter;stroke-miterlimit:4;stroke-dasharray:none;stroke-opacity:1"
       transform="scale(1.3333333)" />
    <path
       id="path6"
       d="M 156.992,125.555 61.027,221.52"
       style="fill:none;stroke:#000000;stroke-width:2.83465;stroke-linecap:butt;stroke-linejoin:miter;stroke-miterlimit:4;stroke-dasharray:none;stroke-opacity:1"
       transform="scale(1.3333333)" />
    <path
       id="path7"
       d="m 150.027,118.594 h 13.93 v 13.926 h -13.93 z"
       style="fill:#ffffff;fill-opacity:1;fill-rule:nonzero;stroke:#000000;stroke-width:1.41732;stroke-linecap:butt;stroke-linejoin:miter;stroke-miterlimit:4;stroke-dasharray:none;stroke-opacity:1"
       transform="scale(1.3333333)" />
    <path
       id="path8"
       d="m 252.957,215.012 v 13.019"
       style="fill:none;stroke:#000000;stroke-width:0.749999;stroke-linecap:butt;stroke-linejoin:miter;stroke-miterlimit:4;stroke-dasharray:none;stroke-opacity:1"
       transform="scale(1.3333333)" />
    <path
       id="path9"
       d="m 246.445,221.52 h 13.02"
       style="fill:none;stroke:#000000;stroke-width:0.749999;stroke-linecap:butt;stroke-linejoin:miter;stroke-miterlimit:4;stroke-dasharray:none;stroke-opacity:1"
       transform="scale(1.3333333)" />
    <path
       id="path10"
       d="M 0.773,237.484 H 29.816"
       style="fill:none;stroke:#000000;stroke-width:0.351067;stroke-linecap:butt;stroke-linejoin:miter;stroke-miterlimit:4;stroke-dasharray:none;stroke-opacity:1"
       transform="matrix(1.3333333,-1.3333333,1.3333333,1.3333333,0,0)" />
    <path
       id="path11"
       d="m 2.715,243.664 3.566,-6.18 -5.605,9.711"
       style="fill:none;stroke:#000000;stroke-width:0.350515;stroke-linecap:butt;stroke-linejoin:miter;stroke-miterlimit:4;stroke-dasharray:none;stroke-opacity:1"
       transform="matrix(1.3333333,-1.3333333,1.3333333,1.3333333,0,0)" />
    <path
       id="path12"
       d="M 9.6,237.482 1.121,252.168"
       style="fill:none;stroke:#000000;stroke-width:0.350515;stroke-linecap:butt;stroke-linejoin:miter;stroke-miterlimit:4;stroke-dasharray:none;stroke-opacity:1"
       transform="matrix(1.3333333,-1.3333333,1.3333333,1.3333333,0,0)" />
    <path
       id="path13"
       d="M 12.918,237.484 4.502,252.061"
       style="fill:none;stroke:#000000;stroke-width:0.350515;stroke-linecap:butt;stroke-linejoin:miter;stroke-miterlimit:4;stroke-dasharray:none;stroke-opacity:1"
       transform="matrix(1.3333333,-1.3333333,1.3333333,1.3333333,0,0)" />
    <path
       id="path14"
       d="M 16.234,237.484 7.74,252.197"
       style="fill:none;stroke:#000000;stroke-width:0.350515;stroke-linecap:butt;stroke-linejoin:miter;stroke-miterlimit:4;stroke-dasharray:none;stroke-opacity:1"
       transform="matrix(1.3333333,-1.3333333,1.3333333,1.3333333,0,0)" />
    <path
       id="path15"
       d="m 19.551,237.484 -8.492,14.711"
       style="fill:none;stroke:#000000;stroke-width:0.350515;stroke-linecap:butt;stroke-linejoin:miter;stroke-miterlimit:4;stroke-dasharray:none;stroke-opacity:1"
       transform="matrix(1.3333333,-1.3333333,1.3333333,1.3333333,0,0)" />
    <path
       id="path16"
       d="m 23.182,237.482 -8.494,14.713"
       style="fill:none;stroke:#000000;stroke-width:0.350515;stroke-linecap:butt;stroke-linejoin:miter;stroke-miterlimit:4;stroke-dasharray:none;stroke-opacity:1"
       transform="matrix(1.3333333,-1.3333333,1.3333333,1.3333333,0,0)" />
    <path
       id="path17"
       d="m 26.5,237.484 -8.496,14.711"
       style="fill:none;stroke:#000000;stroke-width:0.350515;stroke-linecap:butt;stroke-linejoin:miter;stroke-miterlimit:4;stroke-dasharray:none;stroke-opacity:1"
       transform="matrix(1.3333333,-1.3333333,1.3333333,1.3333333,0,0)" />
    <path
       id="path18"
       d="m 29.816,237.484 -8.494,14.713"
       style="fill:none;stroke:#000000;stroke-width:0.350515;stroke-linecap:butt;stroke-linejoin:miter;stroke-miterlimit:4;stroke-dasharray:none;stroke-opacity:1"
       transform="matrix(1.3333333,-1.3333333,1.3333333,1.3333333,0,0)" />
    <path
       id="path19"
       d="m 24.516,252.195 5.375,-9.312"
       style="fill:none;stroke:#000000;stroke-width:0.350515;stroke-linecap:butt;stroke-linejoin:miter;stroke-miterlimit:4;stroke-dasharray:none;stroke-opacity:1"
       transform="matrix(1.3333333,-1.3333333,1.3333333,1.3333333,0,0)" />
    <path
       id="path20"
       d="m 27.52,252.195 2.376,-4.115"
       style="fill:none;stroke:#000000;stroke-width:0.350515;stroke-linecap:butt;stroke-linejoin:miter;stroke-miterlimit:4;stroke-dasharray:none;stroke-opacity:1"
       transform="matrix(1.3333333,-1.3333333,1.3333333,1.3333333,0,0)" />
    <path
       id="path21"
       d="m 2.918,237.484 -2.256,3.909"
       style="fill:none;stroke:#000000;stroke-width:0.350515;stroke-linecap:butt;stroke-linejoin:miter;stroke-miterlimit:4;stroke-dasharray:none;stroke-opacity:1"
       transform="matrix(1.3333333,-1.3333333,1.3333333,1.3333333,0,0)" />
    <path
       id="path22"
       d="m 12.463,233.982 6.51,0.002 v 6.508 l -6.51,0.002 z"
       style="fill:#ffffff;fill-opacity:1;fill-rule:nonzero;stroke:#000000;stroke-width:0.662391;stroke-linecap:butt;stroke-linejoin:miter;stroke-miterlimit:4;stroke-dasharray:none;stroke-opacity:1"
       transform="matrix(1.3333333,-1.3333333,1.3333333,1.3333333,0,0)" />
    <path
       id="path23"
       d="m 288.102,120.953 9.207,9.207"
       style="fill:none;stroke:#000000;stroke-width:0.749999;stroke-linecap:butt;stroke-linejoin:miter;stroke-miterlimit:4;stroke-dasharray:none;stroke-opacity:1"
       transform="scale(1.3333333)" />
    <path
       id="path24"
       d="m 288.102,130.16 9.207,-9.207"
       style="fill:none;stroke:#000000;stroke-width:0.749999;stroke-linecap:butt;stroke-linejoin:miter;stroke-miterlimit:4;stroke-dasharray:none;stroke-opacity:1"
       transform="scale(1.3333333)" />
    <path
       id="path25"
       d="m -146.691,293.055 h 41.074"
       style="fill:none;stroke:#000000;stroke-width:0.496484;stroke-linecap:butt;stroke-linejoin:miter;stroke-miterlimit:4;stroke-dasharray:none;stroke-opacity:1"
       transform="matrix(0,-1.3333333,1.3333333,0,0,0)" />
    <path
       id="path26"
       d="m -143.945,301.793 5.047,-8.738 -7.93,13.73"
       style="fill:none;stroke:#000000;stroke-width:0.495702;stroke-linecap:butt;stroke-linejoin:miter;stroke-miterlimit:4;stroke-dasharray:none;stroke-opacity:1"
       transform="matrix(0,-1.3333333,1.3333333,0,0,0)" />
    <path
       id="path27"
       d="m -134.207,293.055 -11.992,20.765"
       style="fill:none;stroke:#000000;stroke-width:0.495702;stroke-linecap:butt;stroke-linejoin:miter;stroke-miterlimit:4;stroke-dasharray:none;stroke-opacity:1"
       transform="matrix(0,-1.3333333,1.3333333,0,0,0)" />
    <path
       id="path28"
       d="m -129.516,293.055 -11.902,20.613"
       style="fill:none;stroke:#000000;stroke-width:0.495702;stroke-linecap:butt;stroke-linejoin:miter;stroke-miterlimit:4;stroke-dasharray:none;stroke-opacity:1"
       transform="matrix(0,-1.3333333,1.3333333,0,0,0)" />
    <path
       id="path29"
       d="m -124.824,293.055 -12.016,20.804"
       style="fill:none;stroke:#000000;stroke-width:0.495702;stroke-linecap:butt;stroke-linejoin:miter;stroke-miterlimit:4;stroke-dasharray:none;stroke-opacity:1"
       transform="matrix(0,-1.3333333,1.3333333,0,0,0)" />
    <path
       id="path30"
       d="m -120.133,293.055 -12.015,20.804"
       style="fill:none;stroke:#000000;stroke-width:0.495702;stroke-linecap:butt;stroke-linejoin:miter;stroke-miterlimit:4;stroke-dasharray:none;stroke-opacity:1"
       transform="matrix(0,-1.3333333,1.3333333,0,0,0)" />
    <path
       id="path31"
       d="m -115,293.055 -12.012,20.804"
       style="fill:none;stroke:#000000;stroke-width:0.495702;stroke-linecap:butt;stroke-linejoin:miter;stroke-miterlimit:4;stroke-dasharray:none;stroke-opacity:1"
       transform="matrix(0,-1.3333333,1.3333333,0,0,0)" />
    <path
       id="path32"
       d="m -110.309,293.055 -12.011,20.804"
       style="fill:none;stroke:#000000;stroke-width:0.495702;stroke-linecap:butt;stroke-linejoin:miter;stroke-miterlimit:4;stroke-dasharray:none;stroke-opacity:1"
       transform="matrix(0,-1.3333333,1.3333333,0,0,0)" />
    <path
       id="path33"
       d="m -105.617,293.055 -12.012,20.804"
       style="fill:none;stroke:#000000;stroke-width:0.495702;stroke-linecap:butt;stroke-linejoin:miter;stroke-miterlimit:4;stroke-dasharray:none;stroke-opacity:1"
       transform="matrix(0,-1.3333333,1.3333333,0,0,0)" />
    <path
       id="path34"
       d="m -113.117,313.859 7.605,-13.171"
       style="fill:none;stroke:#000000;stroke-width:0.495702;stroke-linecap:butt;stroke-linejoin:miter;stroke-miterlimit:4;stroke-dasharray:none;stroke-opacity:1"
       transform="matrix(0,-1.3333333,1.3333333,0,0,0)" />
    <path
       id="path35"
       d="m -108.867,313.859 3.359,-5.82"
       style="fill:none;stroke:#000000;stroke-width:0.495702;stroke-linecap:butt;stroke-linejoin:miter;stroke-miterlimit:4;stroke-dasharray:none;stroke-opacity:1"
       transform="matrix(0,-1.3333333,1.3333333,0,0,0)" />
    <path
       id="path36"
       d="m -143.656,293.055 -3.192,5.523"
       style="fill:none;stroke:#000000;stroke-width:0.495702;stroke-linecap:butt;stroke-linejoin:miter;stroke-miterlimit:4;stroke-dasharray:none;stroke-opacity:1"
       transform="matrix(0,-1.3333333,1.3333333,0,0,0)" />
    <path
       id="path37"
       d="m -120.953,288.102 h -9.207 v 9.207 h 9.207 z"
       style="fill:#ffffff;fill-opacity:1;fill-rule:nonzero;stroke:#000000;stroke-width:0.936762;stroke-linecap:butt;stroke-linejoin:miter;stroke-miterlimit:4;stroke-dasharray:none;stroke-opacity:1"
       transform="matrix(0,-1.3333333,1.3333333,0,0,0)" />
    <path
       id="path38"
       d="m 246.445,29.59 h 13.02"
       style="fill:none;stroke:#000000;stroke-width:0.749999;stroke-linecap:butt;stroke-linejoin:miter;stroke-miterlimit:4;stroke-dasharray:none;stroke-opacity:1"
       transform="scale(1.3333333)" />
    <path
       id="path39"
       d="M 252.957,36.102 V 23.082"
       style="fill:none;stroke:#000000;stroke-width:0.749999;stroke-linecap:butt;stroke-linejoin:miter;stroke-miterlimit:4;stroke-dasharray:none;stroke-opacity:1"
       transform="scale(1.3333333)" />
    <path
       id="path40"
       d="m -156.217,111.928 h 29.043"
       style="fill:none;stroke:#000000;stroke-width:0.351067;stroke-linecap:butt;stroke-linejoin:miter;stroke-miterlimit:4;stroke-dasharray:none;stroke-opacity:1"
       transform="matrix(-1.3333333,-1.3333333,1.3333333,-1.3333333,0,0)" />
    <path
       id="path41"
       d="m -154.279,118.107 3.57,-6.179 -5.607,9.709"
       style="fill:none;stroke:#000000;stroke-width:0.350515;stroke-linecap:butt;stroke-linejoin:miter;stroke-miterlimit:4;stroke-dasharray:none;stroke-opacity:1"
       transform="matrix(-1.3333333,-1.3333333,1.3333333,-1.3333333,0,0)" />
    <path
       id="path42"
       d="m -147.393,111.928 -8.478,14.685"
       style="fill:none;stroke:#000000;stroke-width:0.350515;stroke-linecap:butt;stroke-linejoin:miter;stroke-miterlimit:4;stroke-dasharray:none;stroke-opacity:1"
       transform="matrix(-1.3333333,-1.3333333,1.3333333,-1.3333333,0,0)" />
    <path
       id="path43"
       d="m -144.076,111.928 -8.414,14.578"
       style="fill:none;stroke:#000000;stroke-width:0.350515;stroke-linecap:butt;stroke-linejoin:miter;stroke-miterlimit:4;stroke-dasharray:none;stroke-opacity:1"
       transform="matrix(-1.3333333,-1.3333333,1.3333333,-1.3333333,0,0)" />
    <path
       id="path44"
       d="m -140.756,111.928 -8.496,14.711"
       style="fill:none;stroke:#000000;stroke-width:0.350515;stroke-linecap:butt;stroke-linejoin:miter;stroke-miterlimit:4;stroke-dasharray:none;stroke-opacity:1"
       transform="matrix(-1.3333333,-1.3333333,1.3333333,-1.3333333,0,0)" />
    <path
       id="path45"
       d="m -137.439,111.928 -8.495,14.713"
       style="fill:none;stroke:#000000;stroke-width:0.350515;stroke-linecap:butt;stroke-linejoin:miter;stroke-miterlimit:4;stroke-dasharray:none;stroke-opacity:1"
       transform="matrix(-1.3333333,-1.3333333,1.3333333,-1.3333333,0,0)" />
    <path
       id="path46"
       d="m -133.811,111.928 -8.494,14.713"
       style="fill:none;stroke:#000000;stroke-width:0.350515;stroke-linecap:butt;stroke-linejoin:miter;stroke-miterlimit:4;stroke-dasharray:none;stroke-opacity:1"
       transform="matrix(-1.3333333,-1.3333333,1.3333333,-1.3333333,0,0)" />
    <path
       id="path47"
       d="m -130.494,111.928 -8.492,14.711"
       style="fill:none;stroke:#000000;stroke-width:0.350515;stroke-linecap:butt;stroke-linejoin:miter;stroke-miterlimit:4;stroke-dasharray:none;stroke-opacity:1"
       transform="matrix(-1.3333333,-1.3333333,1.3333333,-1.3333333,0,0)" />
    <path
       id="path48"
       d="m -127.174,111.928 -8.494,14.713"
       style="fill:none;stroke:#000000;stroke-width:0.350515;stroke-linecap:butt;stroke-linejoin:miter;stroke-miterlimit:4;stroke-dasharray:none;stroke-opacity:1"
       transform="matrix(-1.3333333,-1.3333333,1.3333333,-1.3333333,0,0)" />
    <path
       id="path49"
       d="m -132.477,126.641 5.377,-9.315"
       style="fill:none;stroke:#000000;stroke-width:0.350515;stroke-linecap:butt;stroke-linejoin:miter;stroke-miterlimit:4;stroke-dasharray:none;stroke-opacity:1"
       transform="matrix(-1.3333333,-1.3333333,1.3333333,-1.3333333,0,0)" />
    <path
       id="path50"
       d="m -129.473,126.641 2.377,-4.116"
       style="fill:none;stroke:#000000;stroke-width:0.350515;stroke-linecap:butt;stroke-linejoin:miter;stroke-miterlimit:4;stroke-dasharray:none;stroke-opacity:1"
       transform="matrix(-1.3333333,-1.3333333,1.3333333,-1.3333333,0,0)" />
    <path
       id="path51"
       d="m -154.072,111.928 -2.256,3.908"
       style="fill:none;stroke:#000000;stroke-width:0.350515;stroke-linecap:butt;stroke-linejoin:miter;stroke-miterlimit:4;stroke-dasharray:none;stroke-opacity:1"
       transform="matrix(-1.3333333,-1.3333333,1.3333333,-1.3333333,0,0)" />
    <path
       id="path52"
       d="m -144.529,108.428 h 6.511 l -0.002,6.51 h -6.507 z"
       style="fill:#ffffff;fill-opacity:1;fill-rule:nonzero;stroke:#000000;stroke-width:0.662391;stroke-linecap:butt;stroke-linejoin:miter;stroke-miterlimit:4;stroke-dasharray:none;stroke-opacity:1"
       transform="matrix(-1.3333333,-1.3333333,1.3333333,-1.3333333,0,0)" />
    <path
       id="path53"
       d="M 61.027,36.102 V 23.082"
       style="fill:none;stroke:#000000;stroke-width:0.749999;stroke-linecap:butt;stroke-linejoin:miter;stroke-miterlimit:4;stroke-dasharray:none;stroke-opacity:1"
       transform="scale(1.3333333)" />
    <path
       id="path54"
       d="M 67.535,29.59 H 54.516"
       style="fill:none;stroke:#000000;stroke-width:0.749999;stroke-linecap:butt;stroke-linejoin:miter;stroke-miterlimit:4;stroke-dasharray:none;stroke-opacity:1"
       transform="scale(1.3333333)" />
    <path
       id="path55"
       d="M -30.662,-45.064 H -1.619"
       style="fill:none;stroke:#000000;stroke-width:0.351067;stroke-linecap:butt;stroke-linejoin:miter;stroke-miterlimit:4;stroke-dasharray:none;stroke-opacity:1"
       transform="matrix(-1.3333333,1.3333333,-1.3333333,-1.3333333,0,0)" />
    <path
       id="path56"
       d="m -28.721,-38.885 3.567,-6.179 -5.606,9.71"
       style="fill:none;stroke:#000000;stroke-width:0.350515;stroke-linecap:butt;stroke-linejoin:miter;stroke-miterlimit:4;stroke-dasharray:none;stroke-opacity:1"
       transform="matrix(-1.3333333,1.3333333,-1.3333333,-1.3333333,0,0)" />
    <path
       id="path57"
       d="m -21.836,-45.062 -8.478,14.685"
       style="fill:none;stroke:#000000;stroke-width:0.350515;stroke-linecap:butt;stroke-linejoin:miter;stroke-miterlimit:4;stroke-dasharray:none;stroke-opacity:1"
       transform="matrix(-1.3333333,1.3333333,-1.3333333,-1.3333333,0,0)" />
    <path
       id="path58"
       d="m -18.518,-45.064 -8.418,14.578"
       style="fill:none;stroke:#000000;stroke-width:0.350515;stroke-linecap:butt;stroke-linejoin:miter;stroke-miterlimit:4;stroke-dasharray:none;stroke-opacity:1"
       transform="matrix(-1.3333333,1.3333333,-1.3333333,-1.3333333,0,0)" />
    <path
       id="path59"
       d="m -15.201,-45.064 -8.494,14.712"
       style="fill:none;stroke:#000000;stroke-width:0.350515;stroke-linecap:butt;stroke-linejoin:miter;stroke-miterlimit:4;stroke-dasharray:none;stroke-opacity:1"
       transform="matrix(-1.3333333,1.3333333,-1.3333333,-1.3333333,0,0)" />
    <path
       id="path60"
       d="m -11.885,-45.064 -8.494,14.712"
       style="fill:none;stroke:#000000;stroke-width:0.350515;stroke-linecap:butt;stroke-linejoin:miter;stroke-miterlimit:4;stroke-dasharray:none;stroke-opacity:1"
       transform="matrix(-1.3333333,1.3333333,-1.3333333,-1.3333333,0,0)" />
    <path
       id="path61"
       d="m -8.254,-45.062 -8.492,14.71"
       style="fill:none;stroke:#000000;stroke-width:0.350515;stroke-linecap:butt;stroke-linejoin:miter;stroke-miterlimit:4;stroke-dasharray:none;stroke-opacity:1"
       transform="matrix(-1.3333333,1.3333333,-1.3333333,-1.3333333,0,0)" />
    <path
       id="path62"
       d="m -4.936,-45.064 -8.494,14.712"
       style="fill:none;stroke:#000000;stroke-width:0.350515;stroke-linecap:butt;stroke-linejoin:miter;stroke-miterlimit:4;stroke-dasharray:none;stroke-opacity:1"
       transform="matrix(-1.3333333,1.3333333,-1.3333333,-1.3333333,0,0)" />
    <path
       id="path63"
       d="m -1.619,-45.064 -8.494,14.712"
       style="fill:none;stroke:#000000;stroke-width:0.350515;stroke-linecap:butt;stroke-linejoin:miter;stroke-miterlimit:4;stroke-dasharray:none;stroke-opacity:1"
       transform="matrix(-1.3333333,1.3333333,-1.3333333,-1.3333333,0,0)" />
    <path
       id="path64"
       d="m -6.922,-30.352 5.379,-9.312"
       style="fill:none;stroke:#000000;stroke-width:0.350515;stroke-linecap:butt;stroke-linejoin:miter;stroke-miterlimit:4;stroke-dasharray:none;stroke-opacity:1"
       transform="matrix(-1.3333333,1.3333333,-1.3333333,-1.3333333,0,0)" />
    <path
       id="path65"
       d="m -3.918,-30.352 2.377,-4.115"
       style="fill:none;stroke:#000000;stroke-width:0.350515;stroke-linecap:butt;stroke-linejoin:miter;stroke-miterlimit:4;stroke-dasharray:none;stroke-opacity:1"
       transform="matrix(-1.3333333,1.3333333,-1.3333333,-1.3333333,0,0)" />
    <path
       id="path66"
       d="m -28.518,-45.064 -2.255,3.908"
       style="fill:none;stroke:#000000;stroke-width:0.350515;stroke-linecap:butt;stroke-linejoin:miter;stroke-miterlimit:4;stroke-dasharray:none;stroke-opacity:1"
       transform="matrix(-1.3333333,1.3333333,-1.3333333,-1.3333333,0,0)" />
    <path
       id="path67"
       d="m -18.973,-48.562 6.51,-0.002 v 6.511 l -6.51,-0.002 z"
       style="fill:#ffffff;fill-opacity:1;fill-rule:nonzero;stroke:#000000;stroke-width:0.662391;stroke-linecap:butt;stroke-linejoin:miter;stroke-miterlimit:4;stroke-dasharray:none;stroke-opacity:1"
       transform="matrix(-1.3333333,1.3333333,-1.3333333,-1.3333333,0,0)" />
    <path
       id="path68"
       d="m 25.879,130.16 -9.203,-9.207"
       style="fill:none;stroke:#000000;stroke-width:0.749999;stroke-linecap:butt;stroke-linejoin:miter;stroke-miterlimit:4;stroke-dasharray:none;stroke-opacity:1"
       transform="scale(1.3333333)" />
    <path
       id="path69"
       d="m 25.879,120.953 -9.203,9.207"
       style="fill:none;stroke:#000000;stroke-width:0.749999;stroke-linecap:butt;stroke-linejoin:miter;stroke-miterlimit:4;stroke-dasharray:none;stroke-opacity:1"
       transform="scale(1.3333333)" />
    <path
       id="path70"
       d="M 67.535,221.52 H 54.516"
       style="fill:none;stroke:#000000;stroke-width:0.749999;stroke-linecap:butt;stroke-linejoin:miter;stroke-miterlimit:4;stroke-dasharray:none;stroke-opacity:1"
       transform="scale(1.3333333)" />
    <path
       id="path71"
       d="m 61.027,215.012 v 13.019"
       style="fill:none;stroke:#000000;stroke-width:0.749999;stroke-linecap:butt;stroke-linejoin:miter;stroke-miterlimit:4;stroke-dasharray:none;stroke-opacity:1"
       transform="scale(1.3333333)" />
    <path
       id="path72"
       d="m 126.33,80.49 29.041,0.002"
       style="fill:none;stroke:#000000;stroke-width:0.351067;stroke-linecap:butt;stroke-linejoin:miter;stroke-miterlimit:4;stroke-dasharray:none;stroke-opacity:1"
       transform="matrix(1.3333333,1.3333333,-1.3333333,1.3333333,0,0)" />
    <path
       id="path73"
       d="m 128.27,86.672 3.57,-6.18 -5.608,9.709"
       style="fill:none;stroke:#000000;stroke-width:0.350515;stroke-linecap:butt;stroke-linejoin:miter;stroke-miterlimit:4;stroke-dasharray:none;stroke-opacity:1"
       transform="matrix(1.3333333,1.3333333,-1.3333333,1.3333333,0,0)" />
    <path
       id="path74"
       d="m 135.156,80.492 -8.478,14.686"
       style="fill:none;stroke:#000000;stroke-width:0.350515;stroke-linecap:butt;stroke-linejoin:miter;stroke-miterlimit:4;stroke-dasharray:none;stroke-opacity:1"
       transform="matrix(1.3333333,1.3333333,-1.3333333,1.3333333,0,0)" />
    <path
       id="path75"
       d="m 138.473,80.492 -8.416,14.576"
       style="fill:none;stroke:#000000;stroke-width:0.350515;stroke-linecap:butt;stroke-linejoin:miter;stroke-miterlimit:4;stroke-dasharray:none;stroke-opacity:1"
       transform="matrix(1.3333333,1.3333333,-1.3333333,1.3333333,0,0)" />
    <path
       id="path76"
       d="m 141.789,80.492 -8.494,14.713"
       style="fill:none;stroke:#000000;stroke-width:0.350515;stroke-linecap:butt;stroke-linejoin:miter;stroke-miterlimit:4;stroke-dasharray:none;stroke-opacity:1"
       transform="matrix(1.3333333,1.3333333,-1.3333333,1.3333333,0,0)" />
    <path
       id="path77"
       d="m 145.109,80.492 -8.496,14.711"
       style="fill:none;stroke:#000000;stroke-width:0.350515;stroke-linecap:butt;stroke-linejoin:miter;stroke-miterlimit:4;stroke-dasharray:none;stroke-opacity:1"
       transform="matrix(1.3333333,1.3333333,-1.3333333,1.3333333,0,0)" />
    <path
       id="path78"
       d="m 148.738,80.492 -8.494,14.713"
       style="fill:none;stroke:#000000;stroke-width:0.350515;stroke-linecap:butt;stroke-linejoin:miter;stroke-miterlimit:4;stroke-dasharray:none;stroke-opacity:1"
       transform="matrix(1.3333333,1.3333333,-1.3333333,1.3333333,0,0)" />
    <path
       id="path79"
       d="m 152.055,80.492 -8.494,14.713"
       style="fill:none;stroke:#000000;stroke-width:0.350515;stroke-linecap:butt;stroke-linejoin:miter;stroke-miterlimit:4;stroke-dasharray:none;stroke-opacity:1"
       transform="matrix(1.3333333,1.3333333,-1.3333333,1.3333333,0,0)" />
    <path
       id="path80"
       d="m 155.371,80.492 -8.492,14.711"
       style="fill:none;stroke:#000000;stroke-width:0.350515;stroke-linecap:butt;stroke-linejoin:miter;stroke-miterlimit:4;stroke-dasharray:none;stroke-opacity:1"
       transform="matrix(1.3333333,1.3333333,-1.3333333,1.3333333,0,0)" />
    <path
       id="path81"
       d="m 150.07,95.203 5.377,-9.31"
       style="fill:none;stroke:#000000;stroke-width:0.350515;stroke-linecap:butt;stroke-linejoin:miter;stroke-miterlimit:4;stroke-dasharray:none;stroke-opacity:1"
       transform="matrix(1.3333333,1.3333333,-1.3333333,1.3333333,0,0)" />
    <path
       id="path82"
       d="m 153.076,95.205 2.375,-4.117"
       style="fill:none;stroke:#000000;stroke-width:0.350515;stroke-linecap:butt;stroke-linejoin:miter;stroke-miterlimit:4;stroke-dasharray:none;stroke-opacity:1"
       transform="matrix(1.3333333,1.3333333,-1.3333333,1.3333333,0,0)" />
    <path
       id="path83"
       d="m 128.473,80.492 -2.254,3.906"
       style="fill:none;stroke:#000000;stroke-width:0.350515;stroke-linecap:butt;stroke-linejoin:miter;stroke-miterlimit:4;stroke-dasharray:none;stroke-opacity:1"
       transform="matrix(1.3333333,1.3333333,-1.3333333,1.3333333,0,0)" />
    <path
       id="path84"
       d="m 138.02,76.992 h 6.507 l 0.002,6.51 h -6.511 z"
       style="fill:#ffffff;fill-opacity:1;fill-rule:nonzero;stroke:#000000;stroke-width:0.662391;stroke-linecap:butt;stroke-linejoin:miter;stroke-miterlimit:4;stroke-dasharray:none;stroke-opacity:1"
       transform="matrix(1.3333333,1.3333333,-1.3333333,1.3333333,0,0)" />
    <path
       id="path85"
       d="M 33.141,117.574 V 89.449"
       style="fill:none;stroke:#00ce99;stroke-width:5.66929;stroke-linecap:butt;stroke-linejoin:miter;stroke-miterlimit:4;stroke-dasharray:none;stroke-opacity:1"
       transform="scale(1.3333333)" />
    <path
       id="path86"
       d="m 96.254,-33.141 5.668,-5.668 -19.84,5.668 19.84,5.672 z"
       style="fill:#00ce99;fill-opacity:1;fill-rule:evenodd;stroke:#00ce99;stroke-width:1.51181;stroke-linecap:butt;stroke-linejoin:miter;stroke-miterlimit:4;stroke-dasharray:none;stroke-opacity:1"
       transform="matrix(0,1.3333333,-1.3333333,0,0,0)" />
    <path
       id="path87"
       d="m 40.105,104.332 -7.101,-24.906 -6.914,24.621 4.262,-3.977 v 17.328 h 5.679 v -17.043 z"
       style="fill:none;stroke:#000000;stroke-width:0.749999;stroke-linecap:butt;stroke-linejoin:miter;stroke-miterlimit:4;stroke-dasharray:none;stroke-opacity:1"
       transform="scale(1.3333333)" />
    <path
       id="path88"
       d="M 20.367,125.168 H 72.57"
       style="fill:none;stroke:#000000;stroke-width:0.708661;stroke-linecap:butt;stroke-linejoin:miter;stroke-miterlimit:4;stroke-dasharray:none;stroke-opacity:1"
       transform="scale(1.3333333)" />
    <path
       id="path89"
       d="m -65.484,-125.168 2.836,-2.836 -9.922,2.836 9.922,2.836 z"
       style="fill:#000000;fill-opacity:1;fill-rule:evenodd;stroke:#000000;stroke-width:0.755906;stroke-linecap:butt;stroke-linejoin:miter;stroke-miterlimit:4;stroke-dasharray:none;stroke-opacity:1"
       transform="scale(-1.3333333)" />
    <path
       id="path90"
       d="m 21.277,125.555 v 47.168"
       style="fill:none;stroke:#000000;stroke-width:0.708661;stroke-linecap:butt;stroke-linejoin:miter;stroke-miterlimit:4;stroke-dasharray:none;stroke-opacity:1"
       transform="scale(1.3333333)" />
    <path
       id="path91"
       d="m -165.637,21.277 2.836,-2.836 -9.922,2.836 9.922,2.836 z"
       style="fill:#000000;fill-opacity:1;fill-rule:evenodd;stroke:#000000;stroke-width:0.755906;stroke-linecap:butt;stroke-linejoin:miter;stroke-miterlimit:4;stroke-dasharray:none;stroke-opacity:1"
       transform="matrix(0,-1.3333333,1.3333333,0,0,0)" />
    <path
       id="path92"
       d="m 104.422,-20.93 h 41.074"
       style="fill:none;stroke:#000000;stroke-width:0.496484;stroke-linecap:butt;stroke-linejoin:miter;stroke-miterlimit:4;stroke-dasharray:none;stroke-opacity:1"
       transform="matrix(0,1.3333333,-1.3333333,0,0,0)" />
    <path
       id="path93"
       d="m 107.168,-12.191 5.043,-8.739 -7.926,13.731"
       style="fill:none;stroke:#000000;stroke-width:0.495702;stroke-linecap:butt;stroke-linejoin:miter;stroke-miterlimit:4;stroke-dasharray:none;stroke-opacity:1"
       transform="matrix(0,1.3333333,-1.3333333,0,0,0)" />
    <path
       id="path94"
       d="M 116.902,-20.93 104.914,-0.164"
       style="fill:none;stroke:#000000;stroke-width:0.495702;stroke-linecap:butt;stroke-linejoin:miter;stroke-miterlimit:4;stroke-dasharray:none;stroke-opacity:1"
       transform="matrix(0,1.3333333,-1.3333333,0,0,0)" />
    <path
       id="path95"
       d="M 121.594,-20.93 109.691,-0.316"
       style="fill:none;stroke:#000000;stroke-width:0.495702;stroke-linecap:butt;stroke-linejoin:miter;stroke-miterlimit:4;stroke-dasharray:none;stroke-opacity:1"
       transform="matrix(0,1.3333333,-1.3333333,0,0,0)" />
    <path
       id="path96"
       d="M 126.285,-20.93 114.273,-0.125"
       style="fill:none;stroke:#000000;stroke-width:0.495702;stroke-linecap:butt;stroke-linejoin:miter;stroke-miterlimit:4;stroke-dasharray:none;stroke-opacity:1"
       transform="matrix(0,1.3333333,-1.3333333,0,0,0)" />
    <path
       id="path97"
       d="M 130.977,-20.93 118.965,-0.125"
       style="fill:none;stroke:#000000;stroke-width:0.495702;stroke-linecap:butt;stroke-linejoin:miter;stroke-miterlimit:4;stroke-dasharray:none;stroke-opacity:1"
       transform="matrix(0,1.3333333,-1.3333333,0,0,0)" />
    <path
       id="path98"
       d="M 136.113,-20.93 124.098,-0.125"
       style="fill:none;stroke:#000000;stroke-width:0.495702;stroke-linecap:butt;stroke-linejoin:miter;stroke-miterlimit:4;stroke-dasharray:none;stroke-opacity:1"
       transform="matrix(0,1.3333333,-1.3333333,0,0,0)" />
    <path
       id="path99"
       d="M 140.805,-20.93 128.789,-0.125"
       style="fill:none;stroke:#000000;stroke-width:0.495702;stroke-linecap:butt;stroke-linejoin:miter;stroke-miterlimit:4;stroke-dasharray:none;stroke-opacity:1"
       transform="matrix(0,1.3333333,-1.3333333,0,0,0)" />
    <path
       id="path100"
       d="M 145.496,-20.93 133.48,-0.125"
       style="fill:none;stroke:#000000;stroke-width:0.495702;stroke-linecap:butt;stroke-linejoin:miter;stroke-miterlimit:4;stroke-dasharray:none;stroke-opacity:1"
       transform="matrix(0,1.3333333,-1.3333333,0,0,0)" />
    <path
       id="path101"
       d="m 137.996,-0.125 7.606,-13.168"
       style="fill:none;stroke:#000000;stroke-width:0.495702;stroke-linecap:butt;stroke-linejoin:miter;stroke-miterlimit:4;stroke-dasharray:none;stroke-opacity:1"
       transform="matrix(0,1.3333333,-1.3333333,0,0,0)" />
    <path
       id="path102"
       d="m 142.246,-0.125 3.359,-5.82"
       style="fill:none;stroke:#000000;stroke-width:0.495702;stroke-linecap:butt;stroke-linejoin:miter;stroke-miterlimit:4;stroke-dasharray:none;stroke-opacity:1"
       transform="matrix(0,1.3333333,-1.3333333,0,0,0)" />
    <path
       id="path103"
       d="m 107.453,-20.93 -3.187,5.528"
       style="fill:none;stroke:#000000;stroke-width:0.495702;stroke-linecap:butt;stroke-linejoin:miter;stroke-miterlimit:4;stroke-dasharray:none;stroke-opacity:1"
       transform="matrix(0,1.3333333,-1.3333333,0,0,0)" />
    <path
       id="path104"
       d="m 120.953,-16.676 h 9.207 v -9.203 h -9.207 z"
       style="fill:#ffffff;fill-opacity:1;fill-rule:nonzero;stroke:#000000;stroke-width:0.936762;stroke-linecap:butt;stroke-linejoin:miter;stroke-miterlimit:4;stroke-dasharray:none;stroke-opacity:1"
       transform="matrix(0,1.3333333,-1.3333333,0,0,0)" />
    <path
       id="path105"
       d="m 59.293,138.406 c -0.297,0 -0.481,-0.258 -0.617,-0.82 -0.203,-0.781 -0.801,-3.18 -0.801,-3.578 0.879,-1.543 1.598,-2.422 1.961,-2.422 0.359,0 0.617,0.34 1.019,0.34 0.418,0 0.7,-0.301 0.7,-0.719 0,-0.422 -0.34,-0.742 -0.821,-0.742 -0.879,0 -1.64,0.723 -3.019,2.863 l -0.219,-1.101 c -0.281,-1.36 -0.5,-1.762 -1.043,-1.762 -0.437,0 -1.117,0.18 -2.34,0.582 l -0.218,0.078 0.078,0.301 c 0.761,-0.18 0.941,-0.219 1.121,-0.219 0.5,0 0.621,0.18 0.902,1.379 l 0.578,2.461 -1.64,2.34 c -0.418,0.601 -0.801,0.961 -1.02,0.961 -0.359,0 -0.699,-0.383 -1.16,-0.383 -0.379,0 -0.68,0.301 -0.68,0.703 0,0.52 0.399,0.84 1,0.84 0.719,0 1.16,-0.281 3.66,-3.742 l 0.602,2.402 c 0.258,1.02 0.519,1.34 1.16,1.34 0.758,0 1.277,-0.481 2.438,-2.281 l -0.282,-0.161 c -0.976,1.102 -1,1.34 -1.359,1.34 z"
       style="fill:#000000;fill-opacity:1;fill-rule:nonzero;stroke:none"
       transform="scale(1.3333333)" />
    <path
       id="path106"
       d="m 11.707,169.73 c 1,0 1.883,-0.718 1.883,-1.519 0,-0.422 -0.281,-0.723 -0.699,-0.723 -0.403,0 -0.684,0.262 -0.684,0.621 0,0.403 0.281,0.7 0.281,0.903 0,0.179 -0.218,0.297 -0.539,0.297 -1.48,0 -1.14,-2.059 -3.82,-2.661 l 5.801,-6.878 v -0.219 H 8.25 l -0.621,2.301 0.32,0.078 c 0.418,-1 0.68,-1.18 1.621,-1.18 h 2.918 l -6.199,7.441 0.18,0.18 c 0.32,-0.262 0.582,-0.359 0.922,-0.359 1.379,0 2.797,1.718 4.32,1.718 z"
       style="fill:#000000;fill-opacity:1;fill-rule:nonzero;stroke:none"
       transform="scale(1.3333333)" />
    <path
       id="path107"
       d="m 112.355,63.645 c -0.203,0 -0.3,-0.141 -0.3,-0.364 0,-0.199 0.199,-0.937 0.218,-0.98 l 3.02,-11.578 -0.098,-0.102 c -1.179,0.262 -1.941,0.402 -3.121,0.543 v 0.32 c 0.961,0 1.36,0.137 1.36,0.457 0,0.063 -0.02,0.18 -0.079,0.36 l -2.742,10.562 c -0.058,0.219 -0.097,0.418 -0.097,0.52 0,0.719 0.339,1.121 0.976,1.121 1.043,0 1.742,-0.582 3.043,-2.5 l -0.262,-0.18 c -1.281,1.578 -1.461,1.817 -1.918,1.817 z"
       style="fill:#000000;fill-opacity:1;fill-rule:nonzero;stroke:none"
       transform="scale(1.3333333)" />
    <path
       id="path108"
       d="m 201.375,64.777 c -0.199,0 -0.301,-0.136 -0.301,-0.359 0,-0.199 0.199,-0.938 0.219,-0.98 l 3.019,-11.579 -0.097,-0.101 c -1.18,0.262 -1.942,0.402 -3.121,0.543 v 0.316 c 0.961,0 1.359,0.141 1.359,0.461 0,0.063 -0.019,0.18 -0.078,0.36 L 199.633,64 c -0.059,0.219 -0.098,0.418 -0.098,0.52 0,0.718 0.34,1.121 0.981,1.121 1.039,0 1.738,-0.582 3.039,-2.5 l -0.262,-0.184 c -1.277,1.582 -1.461,1.82 -1.918,1.82 z"
       style="fill:#000000;fill-opacity:1;fill-rule:nonzero;stroke:none"
       transform="scale(1.3333333)" />
    <path
       id="path109"
       d="m 213.875,167.816 c -0.199,0 -0.301,-0.14 -0.301,-0.363 0,-0.199 0.199,-0.937 0.219,-0.98 l 3.019,-11.578 -0.097,-0.102 c -1.18,0.262 -1.942,0.402 -3.121,0.543 v 0.32 c 0.961,0 1.359,0.137 1.359,0.457 0,0.063 -0.019,0.18 -0.078,0.36 l -2.742,10.562 c -0.059,0.219 -0.098,0.418 -0.098,0.52 0,0.718 0.34,1.121 0.981,1.121 1.039,0 1.738,-0.582 3.039,-2.5 l -0.262,-0.18 c -1.277,1.578 -1.457,1.82 -1.918,1.82 z"
       style="fill:#000000;fill-opacity:1;fill-rule:nonzero;stroke:none"
       transform="scale(1.3333333)" />
    <path
       id="path110"
       d="m 98.719,167.816 c -0.203,0 -0.301,-0.14 -0.301,-0.363 0,-0.199 0.199,-0.937 0.219,-0.98 l 3.019,-11.578 -0.097,-0.102 c -1.184,0.262 -1.942,0.402 -3.121,0.543 v 0.32 c 0.96,0 1.359,0.137 1.359,0.457 0,0.063 -0.02,0.18 -0.078,0.36 l -2.742,10.562 c -0.059,0.219 -0.102,0.418 -0.102,0.52 0,0.718 0.344,1.121 0.98,1.121 1.043,0 1.743,-0.582 3.043,-2.5 l -0.261,-0.18 c -1.282,1.578 -1.461,1.82 -1.918,1.82 z"
       style="fill:#000000;fill-opacity:1;fill-rule:nonzero;stroke:none"
       transform="scale(1.3333333)" />
    <path
       id="path111"
       d="m 81.293,117.812 c -0.199,0 -0.301,-0.14 -0.301,-0.359 0,-0.203 0.199,-0.941 0.219,-0.98 l 3.019,-11.582 -0.097,-0.098 c -1.18,0.258 -1.942,0.398 -3.121,0.539 v 0.32 c 0.961,0 1.359,0.141 1.359,0.461 0,0.059 -0.019,0.18 -0.078,0.36 l -2.742,10.558 c -0.059,0.219 -0.098,0.422 -0.098,0.52 0,0.722 0.34,1.121 0.981,1.121 1.039,0 1.738,-0.578 3.039,-2.5 l -0.262,-0.18 c -1.277,1.578 -1.461,1.82 -1.918,1.82 z"
       style="fill:#000000;fill-opacity:1;fill-rule:nonzero;stroke:none"
       transform="scale(1.3333333)" />
    <path
       id="path112"
       d="m 230.164,119.707 c -0.199,0 -0.301,-0.141 -0.301,-0.359 0,-0.203 0.199,-0.942 0.219,-0.981 l 3.02,-11.582 -0.098,-0.097 c -1.18,0.257 -1.942,0.398 -3.121,0.539 v 0.32 c 0.961,0 1.359,0.141 1.359,0.461 0,0.058 -0.019,0.18 -0.078,0.359 l -2.742,10.559 c -0.059,0.219 -0.098,0.422 -0.098,0.519 0,0.719 0.34,1.121 0.981,1.121 1.039,0 1.738,-0.582 3.039,-2.5 l -0.262,-0.179 c -1.277,1.578 -1.457,1.82 -1.918,1.82 z"
       style="fill:#000000;fill-opacity:1;fill-rule:nonzero;stroke:none"
       transform="scale(1.3333333)" />
    <path
       id="path113"
       d="m -280.91,-131.844 v -28.125"
       style="fill:none;stroke:#00ce99;stroke-width:5.66929;stroke-linecap:butt;stroke-linejoin:miter;stroke-miterlimit:4;stroke-dasharray:none;stroke-opacity:1"
       transform="scale(-1.3333333)" />
    <path
       id="path114"
       d="m -153.164,280.91 5.668,-5.668 -19.844,5.668 19.844,5.668 z"
       style="fill:#00ce99;fill-opacity:1;fill-rule:evenodd;stroke:#00ce99;stroke-width:1.51181;stroke-linecap:butt;stroke-linejoin:miter;stroke-miterlimit:4;stroke-dasharray:none;stroke-opacity:1"
       transform="matrix(0,-1.3333333,1.3333333,0,0,0)" />
    <path
       id="path115"
       d="m -273.945,-145.086 -7.102,-24.91 -6.914,24.625 4.262,-3.977 v 17.328 h 5.683 v -17.046 z"
       style="fill:none;stroke:#000000;stroke-width:0.749999;stroke-linecap:butt;stroke-linejoin:miter;stroke-miterlimit:4;stroke-dasharray:none;stroke-opacity:1"
       transform="scale(-1.3333333)" />
    <path
       id="path116"
       d="m 46.438,85.73 c 0.48,0 0.66,0.219 0.781,0.918 0.242,1.141 0.48,3.262 0.539,4.84 l 0.082,1.762 c 0.039,0.781 0.078,0.941 0.258,0.941 0.441,0 1.043,-1.5 2.382,-3.863 l 1.778,-3.117 0.582,6.379 c 0.039,0.539 0.078,0.601 0.219,0.601 0.461,0 5.32,-6.023 5.32,-8.14 0,-0.602 -0.441,-1.043 -1.039,-1.043 -0.481,0 -0.781,0.262 -0.781,0.683 0,0.637 0.859,0.84 0.859,1.457 0,0.86 -0.68,1.942 -3.301,5.2 L 53.48,85.309 c -0.019,-0.219 -0.042,-0.278 -0.16,-0.278 -0.101,0 -0.16,0.039 -0.261,0.199 l -3.84,6.079 c -0.039,-1.098 -0.442,-6.301 -1,-6.301 -0.34,0 -0.379,0.16 -1.961,0.402 -0.078,0 -0.278,0.039 -0.52,0.078 v 0.262 h 0.403 c 0.14,0 0.117,-0.02 0.297,-0.02 z"
       style="fill:#000000;fill-opacity:1;fill-rule:nonzero;stroke:none"
       transform="scale(1.3333333)" />
    <path
       id="path117"
       d="M 44.957,82.621 H 58.316"
       style="fill:none;stroke:#000000;stroke-width:0.749999;stroke-linecap:butt;stroke-linejoin:miter;stroke-miterlimit:4;stroke-dasharray:none;stroke-opacity:1"
       transform="scale(1.3333333)" />
    <path
       id="path118"
       d="m 258.852,161.531 c 0.476,0 0.66,0.223 0.777,0.922 0.242,1.141 0.48,3.262 0.543,4.84 l 0.078,1.762 c 0.039,0.777 0.078,0.937 0.262,0.937 0.437,0 1.039,-1.5 2.379,-3.859 l 1.777,-3.121 0.582,6.383 c 0.039,0.539 0.078,0.597 0.219,0.597 0.461,0 5.32,-6.019 5.32,-8.14 0,-0.598 -0.437,-1.04 -1.039,-1.04 -0.48,0 -0.781,0.262 -0.781,0.68 0,0.641 0.859,0.84 0.859,1.461 0,0.859 -0.68,1.942 -3.297,5.199 l -0.64,-7.039 c -0.02,-0.218 -0.039,-0.281 -0.161,-0.281 -0.101,0 -0.16,0.039 -0.261,0.199 l -3.84,6.082 c -0.039,-1.101 -0.438,-6.301 -1,-6.301 -0.34,0 -0.379,0.161 -1.957,0.403 -0.082,0 -0.281,0.039 -0.524,0.078 v 0.262 h 0.403 c 0.14,0 0.117,-0.024 0.301,-0.024 z"
       style="fill:#000000;fill-opacity:1;fill-rule:nonzero;stroke:none"
       transform="scale(1.3333333)" />
    <path
       id="path119"
       d="m 257.367,158.426 h 13.36"
       style="fill:none;stroke:#000000;stroke-width:0.749999;stroke-linecap:butt;stroke-linejoin:miter;stroke-miterlimit:4;stroke-dasharray:none;stroke-opacity:1"
       transform="scale(1.3333333)" />
  </g>
  <metadata
     id="metadata119">
    <rdf:RDF>
      <cc:Work
         rdf:about="">
        <dc:title>Big frame</dc:title>
      </cc:Work>
    </rdf:RDF>
  </metadata>
</svg>
