<?xml version="1.0" encoding="UTF-8" standalone="no"?>
<svg
   xmlns:dc="http://purl.org/dc/elements/1.1/"
   xmlns:cc="http://creativecommons.org/ns#"
   xmlns:rdf="http://www.w3.org/1999/02/22-rdf-syntax-ns#"
   xmlns:svg="http://www.w3.org/2000/svg"
   xmlns="http://www.w3.org/2000/svg"
   viewBox="0 0 190.38667 148.23734"
   height="148.23734"
   width="190.38667"
   xml:space="preserve"
   id="svg2"
   version="1.1"><metadata
     id="metadata8"><rdf:RDF><cc:Work
         rdf:about=""><dc:format>image/svg+xml</dc:format><dc:type
           rdf:resource="http://purl.org/dc/dcmitype/StillImage" /></cc:Work></rdf:RDF></metadata><defs
     id="defs6"><clipPath
       id="clipPath14"
       clipPathUnits="userSpaceOnUse"><path
         id="path12"
         d="M 0,0 H 612 V 792 H 0 Z" /></clipPath></defs><g
     clip-path="url(#clipPath14)"
     transform="matrix(1.3333333,0,0,-1.3333333,-191.06933,963.328)"
     id="g10"><g
       transform="translate(155.37399,630.47598)"
       id="g16"><path
         id="path18"
         style="fill:none;stroke:#c3312f;stroke-width:1.19599998;stroke-linecap:butt;stroke-linejoin:miter;stroke-miterlimit:10;stroke-dasharray:none;stroke-opacity:1"
         d="M 0,0 56.694,56.694" /></g><g
       transform="translate(155.37399,630.47598)"
       id="g20"><g
         transform="translate(56.6936,56.6936)"
         id="g22"><path
           id="path24"
           style="fill:none;stroke:#c3312f;stroke-width:1.19599998;stroke-linecap:butt;stroke-linejoin:miter;stroke-miterlimit:10;stroke-dasharray:none;stroke-opacity:1"
           d="M 0,0 H 56.694" /></g></g><g
       transform="translate(155.37399,630.47598)"
       id="g26"><g
         transform="translate(113.3872,56.6936)"
         id="g28"><path
           id="path30"
           style="fill:none;stroke:#c3312f;stroke-width:1.19599998;stroke-linecap:butt;stroke-linejoin:miter;stroke-miterlimit:10;stroke-dasharray:none;stroke-opacity:1"
           d="M 0,0 V -56.694" /></g></g><g
       transform="translate(155.37401,630.47598)"
       id="g32"><g
         transform="translate(2.8348)"
         id="g34"><path
           id="path36"
           style="fill:#017188;fill-opacity:1;fill-rule:nonzero;stroke:#000000;stroke-width:0.398;stroke-linecap:butt;stroke-linejoin:miter;stroke-miterlimit:10;stroke-dasharray:none;stroke-opacity:1"
           d="M 0,0 C 0,1.566 -1.269,2.835 -2.835,2.835 -4.4,2.835 -5.67,1.566 -5.67,0 c 0,-1.566 1.27,-2.835 2.835,-2.835 C -1.269,-2.835 0,-1.566 0,0 Z" /></g></g><g
       transform="translate(155.37399,630.47598)"
       id="g38"><g
         transform="translate(59.5285,56.6936)"
         id="g40"><path
           id="path42"
           style="fill:#017188;fill-opacity:1;fill-rule:nonzero;stroke:#000000;stroke-width:0.398;stroke-linecap:butt;stroke-linejoin:miter;stroke-miterlimit:10;stroke-dasharray:none;stroke-opacity:1"
           d="M 0,0 C 0,1.566 -1.269,2.835 -2.835,2.835 -4.401,2.835 -5.67,1.566 -5.67,0 c 0,-1.566 1.269,-2.835 2.835,-2.835 C -1.269,-2.835 0,-1.566 0,0 Z" /></g></g><g
       transform="translate(155.37399,630.47598)"
       id="g44"><g
         transform="translate(116.2221,56.6936)"
         id="g46"><path
           id="path48"
           style="fill:#017188;fill-opacity:1;fill-rule:nonzero;stroke:#000000;stroke-width:0.398;stroke-linecap:butt;stroke-linejoin:miter;stroke-miterlimit:10;stroke-dasharray:none;stroke-opacity:1"
           d="M 0,0 C 0,1.566 -1.269,2.835 -2.835,2.835 -4.4,2.835 -5.67,1.566 -5.67,0 c 0,-1.566 1.27,-2.835 2.835,-2.835 C -1.269,-2.835 0,-1.566 0,0 Z" /></g></g><g
       transform="translate(155.37399,630.47598)"
       id="g50"><g
         transform="translate(116.2221)"
         id="g52"><path
           id="path54"
           style="fill:#017188;fill-opacity:1;fill-rule:nonzero;stroke:#000000;stroke-width:0.398;stroke-linecap:butt;stroke-linejoin:miter;stroke-miterlimit:10;stroke-dasharray:none;stroke-opacity:1"
           d="M 0,0 C 0,1.566 -1.269,2.835 -2.835,2.835 -4.4,2.835 -5.67,1.566 -5.67,0 c 0,-1.566 1.27,-2.835 2.835,-2.835 C -1.269,-2.835 0,-1.566 0,0 Z" /></g></g><g
       transform="translate(155.37399,630.47598)"
       id="g56"><g
         transform="translate(56.6936,85.0404)"
         id="g58"><path
           id="path60"
           style="fill:none;stroke:#00b7d3;stroke-width:1.19599998;stroke-linecap:butt;stroke-linejoin:miter;stroke-miterlimit:10;stroke-dasharray:none;stroke-opacity:1"
           d="M 0,0 V -12.687" /></g></g><g
       transform="rotate(-90,457.44866,245.38103)"
       id="g62"><g
         transform="translate(5.7385)"
         id="g64"><path
           id="path66"
           style="fill:#00b7d3;fill-opacity:1;fill-rule:nonzero;stroke:none"
           d="M 0,0 C -1.7,0.319 -4.463,1.275 -6.376,2.391 V -2.391 C -4.463,-1.275 -1.7,-0.319 0,0" /></g></g><g
       transform="translate(155.37399,630.47598)"
       id="g68"><g
         transform="translate(90.7097,56.6936)"
         id="g70"><path
           id="path72"
           style="fill:none;stroke:#00b7d3;stroke-width:1.19599998;stroke-linecap:butt;stroke-linejoin:miter;stroke-miterlimit:10;stroke-dasharray:none;stroke-opacity:1"
           d="M 0,0 H 11.27" /></g></g><g
       transform="translate(257.35339,687.16962)"
       id="g74"><g
         transform="translate(5.7385)"
         id="g76"><path
           id="path78"
           style="fill:#00b7d3;fill-opacity:1;fill-rule:nonzero;stroke:none"
           d="M 0,0 C -1.7,0.319 -4.463,1.275 -6.376,2.391 V -2.391 C -4.463,-1.275 -1.7,-0.319 0,0" /></g></g><g
       transform="translate(155.37399,630.47598)"
       id="g80"><g
         transform="translate(5.6693,-8.5041)"
         id="g82"><path
           id="path84"
           style="fill:none;stroke:#0066a2;stroke-width:0.79699999;stroke-linecap:butt;stroke-linejoin:miter;stroke-miterlimit:10;stroke-dasharray:none;stroke-opacity:1"
           d="m 0,0 c 4.197,3.522 4.745,9.78 1.223,13.978 -1.885,2.246 -4.668,3.544 -6.893,3.544" /></g></g><g
       transform="rotate(180,77.686577,319.74685)"
       id="g86"><g
         transform="translate(-1.5541,2.0722)"
         id="g88"><path
           id="path90"
           style="fill:none;stroke:#0066a2;stroke-width:0.63800001;stroke-linecap:round;stroke-linejoin:round;stroke-miterlimit:10;stroke-dasharray:none;stroke-opacity:1"
           d="M 0,0 C 0.13,-0.777 1.554,-1.943 1.943,-2.072 1.554,-2.202 0.13,-3.367 0,-4.144" /></g></g><g
       transform="translate(155.37399,630.47598)"
       id="g92"><g
         transform="translate(56.6936,56.6936)"
         id="g94"><path
           id="path96"
           style="fill:none;stroke:#0066a2;stroke-width:0.79699999;stroke-linecap:butt;stroke-linejoin:miter;stroke-miterlimit:10;stroke-dasharray:none;stroke-opacity:1"
           d="M 0,0 H 12.346" /></g></g><g
       transform="translate(224.41338,687.16962)"
       id="g98"><g
         transform="translate(4.6625)"
         id="g100"><path
           id="path102"
           style="fill:#0066a2;fill-opacity:1;fill-rule:nonzero;stroke:none"
           d="M 0,0 C -1.381,0.259 -3.626,1.036 -5.181,1.943 V -1.943 C -3.626,-1.036 -1.381,-0.259 0,0" /></g></g><g
       transform="translate(155.37399,630.47598)"
       id="g104"><g
         transform="translate(56.6936,56.6936)"
         id="g106"><path
           id="path108"
           style="fill:none;stroke:#0066a2;stroke-width:0.79699999;stroke-linecap:butt;stroke-linejoin:miter;stroke-miterlimit:10;stroke-dasharray:none;stroke-opacity:1"
           d="M 0,0 V -12.346" /></g></g><g
       transform="rotate(-90,443.44572,231.37809)"
       id="g110"><g
         transform="translate(4.6625)"
         id="g112"><path
           id="path114"
           style="fill:#0066a2;fill-opacity:1;fill-rule:nonzero;stroke:none"
           d="M 0,0 C -1.381,0.259 -3.626,1.036 -5.181,1.943 V -1.943 C -3.626,-1.036 -1.381,-0.259 0,0" /></g></g><g
       transform="translate(155.37399,630.47598)"
       id="g116"><g
         transform="translate(62.3629,48.1895)"
         id="g118"><path
           id="path120"
           style="fill:none;stroke:#0066a2;stroke-width:0.79699999;stroke-linecap:butt;stroke-linejoin:miter;stroke-miterlimit:10;stroke-dasharray:none;stroke-opacity:1"
           d="m 0,0 c 4.197,3.522 4.745,9.78 1.223,13.978 -1.885,2.246 -4.668,3.544 -6.893,3.544" /></g></g><g
       transform="rotate(180,106.03338,348.09364)"
       id="g122"><g
         transform="translate(-1.5541,2.0722)"
         id="g124"><path
           id="path126"
           style="fill:none;stroke:#0066a2;stroke-width:0.63800001;stroke-linecap:round;stroke-linejoin:round;stroke-miterlimit:10;stroke-dasharray:none;stroke-opacity:1"
           d="M 0,0 C 0.13,-0.777 1.554,-1.943 1.943,-2.072 1.554,-2.202 0.13,-3.367 0,-4.144" /></g></g><g
       transform="translate(155.37399,630.47598)"
       id="g128"><g
         transform="translate(113.3872,56.6936)"
         id="g130"><path
           id="path132"
           style="fill:none;stroke:#0066a2;stroke-width:0.79699999;stroke-linecap:butt;stroke-linejoin:miter;stroke-miterlimit:10;stroke-dasharray:none;stroke-opacity:1"
           d="M 0,0 H 12.346" /></g></g><g
       transform="translate(281.10699,687.16962)"
       id="g134"><g
         transform="translate(4.6625)"
         id="g136"><path
           id="path138"
           style="fill:#0066a2;fill-opacity:1;fill-rule:nonzero;stroke:none"
           d="M 0,0 C -1.381,0.259 -3.626,1.036 -5.181,1.943 V -1.943 C -3.626,-1.036 -1.381,-0.259 0,0" /></g></g><g
       transform="translate(155.37399,630.47598)"
       id="g140"><g
         transform="translate(113.3872,56.6936)"
         id="g142"><path
           id="path144"
           style="fill:none;stroke:#0066a2;stroke-width:0.79699999;stroke-linecap:butt;stroke-linejoin:miter;stroke-miterlimit:10;stroke-dasharray:none;stroke-opacity:1"
           d="M 0,0 V -12.346" /></g></g><g
       transform="rotate(-90,471.79253,203.03128)"
       id="g146"><g
         transform="translate(4.6625)"
         id="g148"><path
           id="path150"
           style="fill:#0066a2;fill-opacity:1;fill-rule:nonzero;stroke:none"
           d="M 0,0 C -1.381,0.259 -3.626,1.036 -5.181,1.943 V -1.943 C -3.626,-1.036 -1.381,-0.259 0,0" /></g></g><g
       transform="translate(155.37399,630.47598)"
       id="g152"><g
         transform="translate(119.0565,48.1895)"
         id="g154"><path
           id="path156"
           style="fill:none;stroke:#0066a2;stroke-width:0.79699999;stroke-linecap:butt;stroke-linejoin:miter;stroke-miterlimit:10;stroke-dasharray:none;stroke-opacity:1"
           d="m 0,0 c 4.197,3.522 4.745,9.78 1.223,13.978 -1.885,2.246 -4.668,3.544 -6.893,3.544" /></g></g><g
       transform="rotate(180,134.38019,348.09364)"
       id="g158"><g
         transform="translate(-1.5541,2.0722)"
         id="g160"><path
           id="path162"
           style="fill:none;stroke:#0066a2;stroke-width:0.63800001;stroke-linecap:round;stroke-linejoin:round;stroke-miterlimit:10;stroke-dasharray:none;stroke-opacity:1"
           d="M 0,0 C 0.13,-0.777 1.554,-1.943 1.943,-2.072 1.554,-2.202 0.13,-3.367 0,-4.144" /></g></g><g
       transform="translate(155.37399,630.47598)"
       id="g164"><g
         transform="translate(113.3872)"
         id="g166"><path
           id="path168"
           style="fill:none;stroke:#0066a2;stroke-width:0.79699999;stroke-linecap:butt;stroke-linejoin:miter;stroke-miterlimit:10;stroke-dasharray:none;stroke-opacity:1"
           d="M 0,0 H 12.346" /></g></g><g
       transform="translate(281.10699,630.476)"
       id="g170"><g
         transform="translate(4.6625)"
         id="g172"><path
           id="path174"
           style="fill:#0066a2;fill-opacity:1;fill-rule:nonzero;stroke:none"
           d="M 0,0 C -1.381,0.259 -3.626,1.036 -5.181,1.943 V -1.943 C -3.626,-1.036 -1.381,-0.259 0,0" /></g></g><g
       transform="translate(155.37399,630.47598)"
       id="g176"><g
         transform="translate(119.0565,-8.5041)"
         id="g178"><path
           id="path180"
           style="fill:none;stroke:#0066a2;stroke-width:0.79699999;stroke-linecap:butt;stroke-linejoin:miter;stroke-miterlimit:10;stroke-dasharray:none;stroke-opacity:1"
           d="m 0,0 c 4.197,3.522 4.745,9.78 1.223,13.978 -1.885,2.246 -4.668,3.544 -6.893,3.544" /></g></g><g
       transform="rotate(180,134.38019,319.74685)"
       id="g182"><g
         transform="translate(-1.5541,2.0722)"
         id="g184"><path
           id="path186"
           style="fill:none;stroke:#0066a2;stroke-width:0.63800001;stroke-linecap:round;stroke-linejoin:round;stroke-miterlimit:10;stroke-dasharray:none;stroke-opacity:1"
           d="M 0,0 C 0.13,-0.777 1.554,-1.943 1.943,-2.072 1.554,-2.202 0.13,-3.367 0,-4.144" /></g></g><g
       transform="translate(155.37401,630.47598)"
       id="g188"><g
         transform="translate(0,-3.2336)"
         id="g190"><path
           id="path192"
           style="fill:#61a4b4;fill-opacity:1;fill-rule:nonzero;stroke:#000000;stroke-width:0.398;stroke-linecap:butt;stroke-linejoin:miter;stroke-miterlimit:10;stroke-dasharray:none;stroke-opacity:1"
           d="M 0,0 -4.91,-8.504 H 4.91 Z" /></g></g><g
       transform="translate(155.37399,630.47598)"
       id="g194"><g
         transform="translate(113.3872,-3.2336)"
         id="g196"><path
           id="path198"
           style="fill:#61a4b4;fill-opacity:1;fill-rule:nonzero;stroke:#000000;stroke-width:0.398;stroke-linecap:butt;stroke-linejoin:miter;stroke-miterlimit:10;stroke-dasharray:none;stroke-opacity:1"
           d="M 0,0 -4.91,-8.504 H 4.91 Z" /></g></g><g
       transform="translate(155.37399,630.47598)"
       id="g200"><g
         transform="translate(107.7179,-14.1734)"
         id="g202"><path
           id="path204"
           style="fill:none;stroke:#000000;stroke-width:0.79699999;stroke-linecap:butt;stroke-linejoin:miter;stroke-miterlimit:10;stroke-dasharray:none;stroke-opacity:1"
           d="M 0,0 H 11.339" /></g></g><g
       transform="translate(155.37399,630.47598)"
       id="g206"><g
         transform="translate(-4.2518,-11.6223)"
         id="g208"><path
           id="path210"
           style="fill:none;stroke:#000000;stroke-width:0.79699999;stroke-linecap:butt;stroke-linejoin:miter;stroke-miterlimit:10;stroke-dasharray:none;stroke-opacity:1"
           d="M 0,0 -2.835,-2.551" /></g></g><g
       transform="translate(155.37401,630.47598)"
       id="g212"><g
         transform="translate(-1.4174,-11.6223)"
         id="g214"><path
           id="path216"
           style="fill:none;stroke:#000000;stroke-width:0.79699999;stroke-linecap:butt;stroke-linejoin:miter;stroke-miterlimit:10;stroke-dasharray:none;stroke-opacity:1"
           d="M 0,0 -2.834,-2.551" /></g></g><g
       transform="translate(155.37401,630.47598)"
       id="g218"><g
         transform="translate(1.4174,-11.6223)"
         id="g220"><path
           id="path222"
           style="fill:none;stroke:#000000;stroke-width:0.79699999;stroke-linecap:butt;stroke-linejoin:miter;stroke-miterlimit:10;stroke-dasharray:none;stroke-opacity:1"
           d="M 0,0 -2.835,-2.551" /></g></g><g
       transform="translate(155.37399,630.47598)"
       id="g224"><g
         transform="translate(4.2518,-11.6223)"
         id="g226"><path
           id="path228"
           style="fill:none;stroke:#000000;stroke-width:0.79699999;stroke-linecap:butt;stroke-linejoin:miter;stroke-miterlimit:10;stroke-dasharray:none;stroke-opacity:1"
           d="M 0,0 -2.834,-2.551" /></g></g></g></svg>