<?xml version="1.0" encoding="UTF-8" standalone="no"?>
<!-- Created with Inkscape (http://www.inkscape.org/) -->

<svg
   version="1.1"
   id="svg1"
   width="443.68668"
   height="123.36"
   viewBox="0 0 443.68666 123.36"
   sodipodi:docname="elemtypes.svg"
   inkscape:version="1.3.2 (091e20e, 2023-11-25, custom)"
   xmlns:inkscape="http://www.inkscape.org/namespaces/inkscape"
   xmlns:sodipodi="http://sodipodi.sourceforge.net/DTD/sodipodi-0.dtd"
   xmlns="http://www.w3.org/2000/svg"
   xmlns:svg="http://www.w3.org/2000/svg">
  <defs
     id="defs1" />
  <sodipodi:namedview
     id="namedview1"
     pagecolor="#ffffff"
     bordercolor="#000000"
     borderopacity="0.25"
     inkscape:showpageshadow="2"
     inkscape:pageopacity="0.0"
     inkscape:pagecheckerboard="0"
     inkscape:deskcolor="#d1d1d1"
     inkscape:zoom="0.97691415"
     inkscape:cx="479.05949"
     inkscape:cy="79.331433"
     inkscape:window-width="1920"
     inkscape:window-height="1001"
     inkscape:window-x="-9"
     inkscape:window-y="-9"
     inkscape:window-maximized="1"
     inkscape:current-layer="g1">
    <inkscape:page
       x="0"
       y="0"
       inkscape:label="1"
       id="page1"
       width="443.68665"
       height="123.36"
       margin="0"
       bleed="0" />
  </sodipodi:namedview>
  <g
     id="g1"
     inkscape:groupmode="layer"
     inkscape:label="1"
     transform="translate(-811.28665)">
    <path
       id="path26"
       d="M 696.988,36.961 H 832.703"
       style="fill:none;stroke:#000000;stroke-width:2.83465;stroke-linecap:butt;stroke-linejoin:miter;stroke-miterlimit:4;stroke-dasharray:none;stroke-opacity:1"
       transform="scale(1.3333333)" />
    <path
       id="path27"
       d="m 737.59,25.77 c 0,-0.219 -0.242,-0.219 -0.301,-0.219 -0.223,0 -0.242,0.019 -0.422,0.48 -1.164,2.766 -1.863,4.071 -5.051,4.071 h -2.445 c -0.621,0 -0.621,-0.063 -0.621,-0.204 0,-0.121 0.059,-0.32 0.078,-0.441 l 1.383,-5.512 h 1.746 c 1.363,0 1.504,0.321 1.504,0.864 0,0.14 -0.023,0.441 -0.184,1.023 0,0 -0.039,0.16 -0.039,0.219 0,0.242 0.2,0.242 0.321,0.242 0.222,0 0.281,-0.043 0.363,-0.402 l 1.101,-4.411 c 0.02,-0.058 0.059,-0.261 0.059,-0.261 0,-0.239 -0.238,-0.239 -0.32,-0.239 -0.262,0 -0.262,0.059 -0.379,0.481 -0.383,1.422 -0.762,1.863 -2.387,1.863 h -1.625 l 1.223,-4.929 c 0.16,-0.665 0.301,-0.684 0.965,-0.684 h 2.503 c 2.165,0 2.668,0.601 2.668,2.023 0,0.543 -0.042,0.805 -0.101,1.286 -0.02,0.101 -0.039,0.281 -0.039,0.339 0,0.243 0.219,0.243 0.301,0.243 0.277,0 0.3,-0.082 0.339,-0.442 l 0.461,-3.547 c 0.059,-0.523 -0.062,-0.523 -0.48,-0.523 h -9.363 c -0.34,0 -0.539,0 -0.539,0.359 0,0.262 0.14,0.262 0.539,0.262 1.164,0 1.164,0.16 1.164,0.34 0,0 0,0.16 -0.082,0.461 l -2.684,10.746 c -0.16,0.683 -0.281,0.844 -1.644,0.844 -0.321,0 -0.543,0 -0.543,0.378 0,0.243 0.179,0.243 0.503,0.243 h 9.602 c 0.398,0 0.418,-0.02 0.559,-0.321 l 1.785,-4.39 c 0.019,-0.043 0.082,-0.242 0.082,-0.242 z"
       style="fill:#000000;fill-opacity:1;fill-rule:nonzero;stroke:none"
       transform="scale(1.3333333)" />
    <path
       id="path28"
       d="m 751.281,30.359 c 0,-0.257 -0.16,-0.257 -0.484,-0.257 -1.039,0 -1.102,-0.161 -1.141,-0.684 l -0.863,-12.547 c -0.02,-0.441 -0.039,-0.504 -0.359,-0.504 -0.321,0 -0.403,0.141 -0.524,0.363 l -6.652,11.727 c -0.863,1.523 -1.727,1.602 -2.426,1.645 -0.223,0.019 -0.242,0.378 -0.242,0.378 0,0.059 0.019,0.243 0.242,0.243 0.5,0 1.082,-0.063 1.602,-0.063 0.621,0 1.265,0.063 1.867,0.063 0.097,0 0.359,0 0.359,-0.383 0,-0.219 -0.16,-0.219 -0.32,-0.238 -0.121,-0.024 -0.844,-0.063 -0.844,-0.684 0,-0.18 0.102,-0.422 0.281,-0.762 l 1.446,-2.523 h 4.57 l 0.219,3.324 c 0,0.402 -0.481,0.645 -1.344,0.645 -0.219,0 -0.461,0 -0.461,0.378 0,0.243 0.242,0.243 0.301,0.243 0.742,0 1.543,-0.063 2.304,-0.063 0.704,0 1.426,0.063 2.106,0.063 0.121,0 0.363,0 0.363,-0.364 z m -3.531,-4.851 h -4.188 l 3.727,-6.555 z"
       style="fill:#000000;fill-opacity:1;fill-rule:nonzero;stroke:none"
       transform="scale(1.3333333)" />
    <path
       id="path29"
       d="m 756.793,29.777 c 0,-0.66 -0.281,-1.179 -0.922,-1.179 -0.801,0 -1.305,0.699 -1.305,1.281 0,0.641 0.461,0.844 0.883,0.844 0.403,0 0.723,-0.223 0.821,-0.301 -0.301,1.543 -1.301,2.824 -2.243,3.629 -0.242,0.238 -0.261,0.258 -0.261,0.34 0,0.058 0.058,0.199 0.199,0.199 0.363,0 2.828,-2.426 2.828,-4.813 z"
       style="fill:#000000;fill-opacity:1;fill-rule:nonzero;stroke:none"
       transform="scale(1.3333333)" />
    <path
       id="path30"
       d="m 779.402,25.77 c 0,-0.219 -0.238,-0.219 -0.297,-0.219 -0.222,0 -0.242,0.019 -0.421,0.48 -1.164,2.766 -1.868,4.071 -5.051,4.071 h -2.449 c -0.622,0 -0.622,-0.063 -0.622,-0.204 0,-0.121 0.063,-0.32 0.083,-0.441 l 1.382,-5.512 h 1.743 c 1.363,0 1.503,0.321 1.503,0.864 0,0.14 -0.019,0.441 -0.179,1.023 0,0 -0.039,0.16 -0.039,0.219 0,0.242 0.199,0.242 0.32,0.242 0.219,0 0.281,-0.043 0.359,-0.402 l 1.106,-4.411 c 0.019,-0.058 0.058,-0.261 0.058,-0.261 0,-0.239 -0.242,-0.239 -0.32,-0.239 -0.262,0 -0.262,0.059 -0.383,0.481 -0.379,1.422 -0.761,1.863 -2.383,1.863 h -1.624 l 1.222,-4.929 c 0.16,-0.665 0.301,-0.684 0.961,-0.684 h 2.508 c 2.164,0 2.664,0.601 2.664,2.023 0,0.543 -0.039,0.805 -0.098,1.286 -0.019,0.101 -0.039,0.281 -0.039,0.339 0,0.243 0.219,0.243 0.301,0.243 0.277,0 0.301,-0.082 0.34,-0.442 l 0.461,-3.547 c 0.058,-0.523 -0.063,-0.523 -0.481,-0.523 h -9.363 c -0.34,0 -0.539,0 -0.539,0.359 0,0.262 0.137,0.262 0.539,0.262 1.164,0 1.164,0.16 1.164,0.34 0,0 0,0.16 -0.082,0.461 l -2.684,10.746 c -0.164,0.683 -0.281,0.844 -1.644,0.844 -0.32,0 -0.543,0 -0.543,0.378 0,0.243 0.18,0.243 0.504,0.243 h 9.601 c 0.399,0 0.418,-0.02 0.559,-0.321 l 1.785,-4.39 c 0.02,-0.043 0.082,-0.242 0.082,-0.242 z"
       style="fill:#000000;fill-opacity:1;fill-rule:nonzero;stroke:none"
       transform="scale(1.3333333)" />
    <path
       id="path31"
       d="m 786,30.34 c 0,-0.238 -0.16,-0.238 -0.562,-0.238 -1.243,0 -1.243,-0.141 -1.243,-0.364 0,0 0,-0.14 0.082,-0.441 l 2.703,-10.824 c 0.161,-0.641 0.282,-0.821 1.665,-0.821 0.421,0 0.621,0 0.621,-0.382 0,-0.239 -0.2,-0.239 -0.282,-0.239 -0.8,0 -1.64,0.059 -2.464,0.059 -0.821,0 -1.684,-0.059 -2.504,-0.059 -0.141,0 -0.383,0 -0.383,0.36 0,0.261 0.14,0.261 0.543,0.261 0.679,0 1.262,0 1.262,0.34 0,0.059 -0.04,0.32 -0.059,0.383 l -2.727,10.902 c -0.16,0.664 -0.34,0.825 -1.683,0.825 -0.422,0 -0.602,0 -0.602,0.359 0,0.219 0.141,0.262 0.281,0.262 0.801,0 1.641,-0.063 2.465,-0.063 0.821,0 1.684,0.063 2.485,0.063 0.14,0 0.402,0 0.402,-0.383 z"
       style="fill:#000000;fill-opacity:1;fill-rule:nonzero;stroke:none"
       transform="scale(1.3333333)" />
    <path
       id="path32"
       d="m 791.453,29.777 c 0,-0.66 -0.281,-1.179 -0.922,-1.179 -0.804,0 -1.304,0.699 -1.304,1.281 0,0.641 0.461,0.844 0.882,0.844 0.399,0 0.723,-0.223 0.821,-0.301 -0.301,1.543 -1.301,2.824 -2.246,3.629 -0.239,0.238 -0.258,0.258 -0.258,0.34 0,0.058 0.058,0.199 0.199,0.199 0.359,0 2.828,-2.426 2.828,-4.813 z"
       style="fill:#000000;fill-opacity:1;fill-rule:nonzero;stroke:none"
       transform="scale(1.3333333)" />
    <path
       id="path33"
       d="m 808.953,18.695 c 0,-0.965 -0.742,-1.547 -1.664,-1.547 -3.09,0 -3.891,5.356 -4.473,7.379 l -2.222,1.524 0.199,0.34 1.844,-1.223 c -0.321,1.102 -0.922,2.445 -0.922,3.629 0,1.223 0.723,2.144 2.004,2.144 1.664,0 2.886,-1.625 3.57,-2.964 l -0.363,-0.141 c -0.5,0.941 -1.461,2.363 -2.664,2.363 -0.782,0 -1.184,-0.601 -1.184,-1.32 0,-1.145 1.043,-3.992 1.363,-5.074 1.524,-1.02 4.512,-3.047 4.512,-5.11 z m -0.562,0.117 c 0,1.665 -2.547,3.508 -3.75,4.391 l 0.863,-2.945 c 0.262,-0.883 0.801,-2.367 1.926,-2.367 0.558,0 0.961,0.343 0.961,0.921 z"
       style="fill:#000000;fill-opacity:1;fill-rule:nonzero;stroke:none"
       transform="scale(1.3333333)" />
    <path
       id="path34"
       d="m 32.438,-828.18 h 9.043 v -9.047 h -9.043 z"
       style="fill:#ffffff;fill-opacity:1;fill-rule:nonzero;stroke:#000000;stroke-width:0.920356;stroke-linecap:butt;stroke-linejoin:miter;stroke-miterlimit:4;stroke-dasharray:none;stroke-opacity:1"
       transform="matrix(0,1.3333333,-1.3333333,0,0,0)" />
    <path
       id="path35"
       d="m 32.438,-692.465 h 9.043 v -9.047 h -9.043 z"
       style="fill:#ffffff;fill-opacity:1;fill-rule:nonzero;stroke:#000000;stroke-width:0.920356;stroke-linecap:butt;stroke-linejoin:miter;stroke-miterlimit:4;stroke-dasharray:none;stroke-opacity:1"
       transform="matrix(0,1.3333333,-1.3333333,0,0,0)" />
    <path
       id="path36"
       d="m 649.473,36.961 h 22.675"
       style="fill:none;stroke:#000000;stroke-width:2.55118;stroke-linecap:butt;stroke-linejoin:miter;stroke-miterlimit:3.9;stroke-dasharray:none;stroke-opacity:1"
       transform="scale(1.3333333)" />
    <path
       id="path37"
       d="m 672.148,36.961 -6.378,6.375 22.324,-6.375 -22.324,-6.379 z"
       style="fill:#000000;fill-opacity:1;fill-rule:evenodd;stroke:none"
       transform="scale(1.3333333)" />
    <path
       id="path38"
       d="m 680.566,49.797 0.461,-3.547 c 0.059,-0.523 -0.062,-0.523 -0.48,-0.523 h -9.121 c -0.34,0 -0.543,0 -0.543,0.363 0,0.258 0.14,0.258 0.543,0.258 1.16,0 1.16,0.16 1.16,0.343 0,0 0,0.161 -0.078,0.461 l -2.688,10.743 c -0.16,0.683 -0.281,0.843 -1.644,0.843 -0.321,0 -0.539,0 -0.539,0.379 0,0.242 0.218,0.242 0.281,0.242 0.801,0 1.644,-0.062 2.445,-0.062 0.922,0 1.864,0.062 2.766,0.062 0.18,0 0.422,0 0.422,-0.382 0,-0.239 -0.18,-0.239 -0.504,-0.239 h -0.199 c -1.461,0 -1.461,-0.16 -1.461,-0.422 0,-0.082 0,-0.121 0.078,-0.421 l 1.262,-5.051 h 1.664 c 1.304,0 1.484,0.301 1.484,0.844 0,0.339 -0.082,0.66 -0.16,0.98 -0.039,0.141 -0.059,0.219 -0.059,0.281 0,0.239 0.219,0.239 0.301,0.239 0.219,0 0.277,-0.02 0.379,-0.399 l 1.102,-4.41 c 0.019,-0.082 0.042,-0.18 0.042,-0.281 0,-0.223 -0.242,-0.223 -0.3,-0.223 -0.262,0 -0.282,0.063 -0.383,0.422 -0.359,1.426 -0.68,1.926 -2.344,1.926 h -1.566 l 1.285,-5.192 c 0.16,-0.664 0.301,-0.683 0.961,-0.683 h 2.347 c 2.145,0 2.586,0.621 2.586,2.004 0,0.484 -0.062,0.863 -0.121,1.324 l -0.019,0.32 c 0,0.242 0.219,0.242 0.301,0.242 0.277,0 0.3,-0.082 0.339,-0.441 z"
       style="fill:#000000;fill-opacity:1;fill-rule:nonzero;stroke:none"
       transform="scale(1.3333333)" />
    <path
       id="path39"
       d="m 688.109,49.477 c 0,-0.129 -0.105,-0.129 -0.195,-0.129 -0.156,0 -0.168,0.011 -0.234,0.218 -0.352,1.122 -1.004,1.629 -1.551,1.629 -0.262,0 -0.613,-0.156 -0.613,-0.832 0,-0.312 0.144,-0.875 0.25,-1.316 l 0.441,-1.785 c 0.184,-0.676 0.535,-1.395 1.148,-1.395 0.04,0 0.364,0 0.571,0.184 -0.52,0.129 -0.52,0.625 -0.52,0.625 0,0.168 0.117,0.418 0.457,0.418 0.235,0 0.637,-0.184 0.637,-0.692 0,-0.664 -0.754,-0.82 -1.133,-0.82 -0.715,0 -1.148,0.637 -1.277,0.887 -0.285,-0.785 -0.926,-0.887 -1.25,-0.887 -1.305,0 -2.008,1.707 -2.008,2.004 0,0.133 0.133,0.133 0.195,0.133 0.172,0 0.172,-0.016 0.235,-0.223 0.351,-1.121 1.031,-1.629 1.55,-1.629 0.379,0 0.626,0.301 0.626,0.821 0,0.312 -0.157,0.953 -0.274,1.433 l -0.301,1.188 c -0.207,0.847 -0.48,1.886 -1.261,1.886 -0.04,0 -0.352,0 -0.575,-0.179 0.391,-0.106 0.508,-0.43 0.508,-0.625 0,-0.34 -0.273,-0.418 -0.441,-0.418 -0.328,0 -0.653,0.273 -0.653,0.703 0,0.508 0.547,0.808 1.149,0.808 0.625,0 1.055,-0.496 1.273,-0.886 0.262,0.742 0.903,0.886 1.239,0.886 1.343,0 2.007,-1.746 2.007,-2.007 z"
       style="fill:#000000;fill-opacity:1;fill-rule:nonzero;stroke:none"
       transform="scale(1.3333333)" />
    <path
       id="path40"
       d="m 680.727,63.367 h 3.632 v -0.195 h -0.207 c -0.64,0 -0.914,-0.129 -0.914,-0.418 0,-0.219 0.211,-0.805 0.235,-0.961 l 1.863,-6.766 c 0.055,-0.195 0.078,-0.312 0.078,-0.375 0,-0.054 -0.023,-0.093 -0.062,-0.093 l -2.243,0.445 c -0.023,0 -0.129,0.023 -0.273,0.051 v 0.195 l 0.742,-0.027 c 0.016,0 0.027,0 0.027,0 0.286,0 0.469,0.172 0.469,0.406 0,0.078 -0.027,0.207 -0.094,0.441 l -1.796,6.41 c -0.129,0.485 -0.43,0.614 -1.457,0.704 z"
       style="fill:#000000;fill-opacity:1;fill-rule:nonzero;stroke:none"
       transform="scale(1.3333333)" />
    <path
       id="path41"
       d="M -696.957,-59.379 V -87.832"
       style="fill:none;stroke:#00ce99;stroke-width:5.73558;stroke-linecap:butt;stroke-linejoin:miter;stroke-miterlimit:4;stroke-dasharray:none;stroke-opacity:1"
       transform="scale(-1.3333333,-1.03826)" />
    <path
       id="path42"
       d="m -80.95,696.957 5.734,-5.734 -20.076,5.734 20.076,5.738 z"
       style="fill:#00ce99;fill-opacity:1;fill-rule:evenodd;stroke:#00ce99;stroke-width:1.52949;stroke-linecap:butt;stroke-linejoin:miter;stroke-miterlimit:4;stroke-dasharray:none;stroke-opacity:1"
       transform="matrix(0,-1.03826,1.3333333,0,0,0)" />
    <path
       id="path43"
       d="m -689.91,-72.778 -7.188,-25.197 -6.992,24.911 4.313,-4.028 v 17.537 h 5.746 v -17.246 z"
       style="fill:#00b7d3;fill-opacity:1;fill-rule:nonzero;stroke:#000000;stroke-width:0.758769;stroke-linecap:butt;stroke-linejoin:miter;stroke-miterlimit:4;stroke-dasharray:none;stroke-opacity:1"
       transform="scale(-1.3333333,-1.03826)" />
    <path
       id="path44"
       d="m 723.297,61.941 c 0,-0.199 -0.16,-0.199 -0.301,-0.199 -0.242,0 -0.262,0.02 -0.383,0.461 -0.281,1.121 -0.66,2.387 -1.343,2.387 -0.52,0 -0.52,-0.543 -0.52,-0.824 0,-0.141 0,-0.461 0.141,-1.02 l 1.441,-5.773 c 0.043,-0.121 0.063,-0.223 0.063,-0.282 0,-0.222 -0.161,-0.523 -0.563,-0.523 -0.602,0 -0.742,0.582 -0.781,0.742 l -1.465,5.856 c -0.098,0.359 -0.098,0.398 -0.281,0.66 -0.379,0.562 -0.961,1.164 -1.844,1.164 -0.902,0 -1.082,-0.883 -1.082,-1.543 0,-1.223 0.664,-3.027 1.164,-4.391 0.16,-0.422 0.258,-0.703 0.258,-1.082 0,-1.004 -0.66,-1.625 -1.524,-1.625 -1.863,0 -2.562,2.965 -2.562,3.086 0,0.203 0.199,0.203 0.301,0.203 0.257,0 0.277,-0.043 0.359,-0.324 0.16,-0.621 0.703,-2.523 1.863,-2.523 0.223,0 0.442,0.058 0.442,0.582 0,0.48 -0.2,1.019 -0.481,1.804 -0.519,1.403 -1.043,2.887 -1.043,3.926 0,1.746 1.164,2.328 2.246,2.328 1.063,0 1.743,-0.601 2.223,-1.203 0.363,1.082 1.227,1.203 1.605,1.203 0.743,0 1.165,-0.504 1.465,-1.125 0.36,-0.761 0.602,-1.965 0.602,-1.965 z"
       style="fill:#000000;fill-opacity:1;fill-rule:nonzero;stroke:none"
       transform="scale(1.3333333)" />
    <path
       id="path45"
       d="m 723.453,68.82 h 3.637 v -0.195 h -0.211 c -0.637,0 -0.91,-0.133 -0.91,-0.418 0,-0.223 0.207,-0.809 0.234,-0.965 l 1.863,-6.762 c 0.051,-0.195 0.079,-0.312 0.079,-0.378 0,-0.051 -0.028,-0.09 -0.067,-0.09 l -2.242,0.441 c -0.024,0 -0.129,0.027 -0.274,0.051 v 0.195 l 0.743,-0.023 c 0.015,0 0.027,0 0.027,0 0.285,0 0.469,0.168 0.469,0.402 0,0.078 -0.024,0.211 -0.09,0.445 l -1.801,6.411 c -0.129,0.48 -0.43,0.613 -1.457,0.703 z"
       style="fill:#000000;fill-opacity:1;fill-rule:nonzero;stroke:none"
       transform="scale(1.3333333)" />
    <path
       id="path46"
       d="m 845.754,40.586 -3.754,-3 c 0,0 0.633,-0.871 0.711,-1.027 0.082,-0.161 0.711,-1.266 0.711,-1.266 l 0.555,-1.422 0.316,-1.976 -0.078,-1.7 -0.199,-1.972 -0.434,-1.188 -0.555,-1.105 -0.789,-1.223 -1.343,-1.465 -1.54,-1.066 -1.265,-0.828 -1.461,-0.477 -2.133,-0.273 -1.738,0.039 -2.176,0.433 -1.816,0.789 -1.7,1.188 -1.222,1.301 -0.399,0.355 3.782,2.504 -10.375,2.559 -2.559,-10.375 5.086,3.023 0.828,-1.266 1.344,-1.304 0.988,-0.828 1.422,-1.067 1.777,-0.871 0.989,-0.433 c 0,0 1.105,-0.395 1.421,-0.434 0.317,-0.039 1.661,-0.316 1.661,-0.316 l 1.304,-0.161 1.34,0.121 h 0.711 l 1.188,0.157 0.867,0.082 1.066,0.355 1.11,0.356 1.105,0.511 1.066,0.594 1.422,0.906 0.989,0.832 c 0,0 0.632,0.868 0.828,0.868 0.199,0 0.871,0.949 0.871,0.949 l 0.828,1.144 0.832,1.227 0.59,1.578 0.554,1.109 0.434,1.856 0.16,1.621 0.039,1.895 -0.16,1.066 -0.195,1.027 -0.121,0.633 -0.278,0.828 -0.117,0.793 -0.551,1.145 -0.593,1.144 -0.594,1.067 z"
       style="fill:#00b7d3;fill-opacity:1;fill-rule:nonzero;stroke:#000000;stroke-width:0.587724;stroke-linecap:butt;stroke-linejoin:round;stroke-miterlimit:4;stroke-dasharray:none;stroke-opacity:0.964706"
       transform="scale(1.3333333)" />
    <path
       id="path47"
       d="m 710.039,40.586 -3.754,-3 c 0,0 0.633,-0.871 0.711,-1.027 0.082,-0.161 0.711,-1.266 0.711,-1.266 l 0.555,-1.422 0.316,-1.976 -0.078,-1.7 -0.199,-1.972 -0.434,-1.188 -0.555,-1.105 -0.789,-1.223 -1.343,-1.465 -1.539,-1.066 -1.266,-0.828 -1.461,-0.477 -2.133,-0.273 -1.738,0.039 -2.176,0.433 -1.816,0.789 -1.699,1.188 -1.223,1.301 -0.399,0.355 3.782,2.504 -10.375,2.559 -2.559,-10.375 5.086,3.023 0.828,-1.266 1.344,-1.304 0.988,-0.828 1.422,-1.067 1.777,-0.871 0.989,-0.433 c 0,0 1.105,-0.395 1.422,-0.434 0.316,-0.039 1.66,-0.316 1.66,-0.316 l 1.304,-0.161 1.34,0.121 h 0.715 l 1.184,0.157 0.867,0.082 1.07,0.355 1.106,0.356 1.105,0.511 1.067,0.594 1.421,0.906 0.989,0.832 c 0,0 0.633,0.868 0.828,0.868 0.199,0 0.871,0.949 0.871,0.949 l 0.828,1.144 0.832,1.227 0.59,1.578 0.555,1.109 0.433,1.856 0.16,1.621 0.039,1.895 -0.16,1.066 -0.195,1.027 -0.121,0.633 -0.274,0.828 -0.121,0.793 -0.55,1.145 -0.594,1.144 -0.594,1.067 z"
       style="fill:#00b7d3;fill-opacity:1;fill-rule:nonzero;stroke:#000000;stroke-width:0.587724;stroke-linecap:butt;stroke-linejoin:round;stroke-miterlimit:4;stroke-dasharray:none;stroke-opacity:0.964706"
       transform="scale(1.3333333)" />
    <path
       id="path48"
       d="m 47.191,-891.275 v -28.453"
       style="fill:none;stroke:#00ce99;stroke-width:5.73558;stroke-linecap:butt;stroke-linejoin:miter;stroke-miterlimit:4;stroke-dasharray:none;stroke-opacity:1"
       transform="matrix(0,1.3333333,-1.03826,0,0,0)" />
    <path
       id="path49"
       d="m -912.845,-47.191 5.739,-5.739 -20.076,5.739 20.076,5.734 z"
       style="fill:#00ce99;fill-opacity:1;fill-rule:evenodd;stroke:#00ce99;stroke-width:1.52949;stroke-linecap:butt;stroke-linejoin:miter;stroke-miterlimit:4;stroke-dasharray:none;stroke-opacity:1"
       transform="scale(-1.03826,-1.3333333)" />
    <path
       id="path50"
       d="m 54.242,-904.673 -7.187,-25.198 -6.993,24.912 4.309,-4.023 v 17.532 h 5.75 v -17.246 z"
       style="fill:#00b7d3;fill-opacity:1;fill-rule:nonzero;stroke:#000000;stroke-width:0.758769;stroke-linecap:butt;stroke-linejoin:miter;stroke-miterlimit:4;stroke-dasharray:none;stroke-opacity:1"
       transform="matrix(0,1.3333333,-1.03826,0,0,0)" />
    <path
       id="path51"
       d="M -832.672,-59.379 V -87.832"
       style="fill:none;stroke:#00ce99;stroke-width:5.73558;stroke-linecap:butt;stroke-linejoin:miter;stroke-miterlimit:4;stroke-dasharray:none;stroke-opacity:1"
       transform="scale(-1.3333333,-1.03826)" />
    <path
       id="path52"
       d="m -80.95,832.672 5.734,-5.734 -20.076,5.734 20.076,5.738 z"
       style="fill:#00ce99;fill-opacity:1;fill-rule:evenodd;stroke:#00ce99;stroke-width:1.52949;stroke-linecap:butt;stroke-linejoin:miter;stroke-miterlimit:4;stroke-dasharray:none;stroke-opacity:1"
       transform="matrix(0,-1.03826,1.3333333,0,0,0)" />
    <path
       id="path53"
       d="m -825.625,-72.778 -7.187,-25.197 -6.993,24.911 4.313,-4.028 v 17.537 h 5.746 v -17.246 z"
       style="fill:#00b7d3;fill-opacity:1;fill-rule:nonzero;stroke:#000000;stroke-width:0.758769;stroke-linecap:butt;stroke-linejoin:miter;stroke-miterlimit:4;stroke-dasharray:none;stroke-opacity:1"
       transform="scale(-1.3333333,-1.03826)" />
    <path
       id="path54"
       d="m 47.191,-1065.559 v -28.453"
       style="fill:none;stroke:#00ce99;stroke-width:5.73558;stroke-linecap:butt;stroke-linejoin:miter;stroke-miterlimit:4;stroke-dasharray:none;stroke-opacity:1"
       transform="matrix(0,1.3333333,-1.03826,0,0,0)" />
    <path
       id="path55"
       d="m -1087.13,-47.191 5.739,-5.739 -20.076,5.739 20.076,5.734 z"
       style="fill:#00ce99;fill-opacity:1;fill-rule:evenodd;stroke:#00ce99;stroke-width:1.52949;stroke-linecap:butt;stroke-linejoin:miter;stroke-miterlimit:4;stroke-dasharray:none;stroke-opacity:1"
       transform="scale(-1.03826,-1.3333333)" />
    <path
       id="path56"
       d="m 54.242,-1078.958 -7.187,-25.198 -6.993,24.912 4.309,-4.023 v 17.532 h 5.75 v -17.246 z"
       style="fill:#00b7d3;fill-opacity:1;fill-rule:nonzero;stroke:#000000;stroke-width:0.758769;stroke-linecap:butt;stroke-linejoin:miter;stroke-miterlimit:4;stroke-dasharray:none;stroke-opacity:1"
       transform="matrix(0,1.3333333,-1.03826,0,0,0)" />
    <path
       id="path57"
       d="m -143.527,620.554 c -2.092,-10.662 3.516,-21.343 13.482,-25.677 9.962,-4.334 21.601,-1.149 27.973,7.652"
       style="fill:none;stroke:#000000;stroke-width:3.26576;stroke-linecap:butt;stroke-linejoin:miter;stroke-miterlimit:4;stroke-dasharray:none;stroke-opacity:0.964706"
       transform="matrix(-0.35726533,1.3333333,1.3333333,0.35726533,0,0)" />
    <path
       id="path58"
       d="m 631.938,63.145 1.71,-9.95 c -11.656,8.239 0,0 -11.656,8.239 z"
       style="fill:#000001;fill-opacity:0.964706;fill-rule:nonzero;stroke:none"
       transform="scale(1.3333333)" />
    <path
       id="path59"
       d="M 649.473,35.688 V 58.363"
       style="fill:none;stroke:#000000;stroke-width:2.55118;stroke-linecap:butt;stroke-linejoin:miter;stroke-miterlimit:3.9;stroke-dasharray:none;stroke-opacity:1"
       transform="scale(1.3333333)" />
    <path
       id="path60"
       d="m 649.473,58.363 -6.379,-6.379 6.379,22.325 6.375,-22.325 z"
       style="fill:#000000;fill-opacity:1;fill-rule:evenodd;stroke:none"
       transform="scale(1.3333333)" />
    <path
       id="path61"
       d="m 662.402,78.945 0.461,-3.547 c 0.059,-0.519 -0.062,-0.519 -0.484,-0.519 h -9.117 c -0.344,0 -0.543,0 -0.543,0.359 0,0.262 0.14,0.262 0.543,0.262 1.16,0 1.16,0.16 1.16,0.34 0,0 0,0.16 -0.078,0.461 l -2.688,10.746 c -0.16,0.68 -0.281,0.84 -1.644,0.84 -0.321,0 -0.539,0 -0.539,0.383 0,0.238 0.218,0.238 0.277,0.238 0.805,0 1.645,-0.059 2.449,-0.059 0.922,0 1.863,0.059 2.766,0.059 0.18,0 0.418,0 0.418,-0.379 0,-0.242 -0.18,-0.242 -0.5,-0.242 h -0.199 c -1.465,0 -1.465,-0.16 -1.465,-0.422 0,-0.078 0,-0.117 0.082,-0.418 l 1.261,-5.055 h 1.665 c 1.304,0 1.484,0.301 1.484,0.844 0,0.34 -0.082,0.66 -0.16,0.98 -0.043,0.141 -0.063,0.223 -0.063,0.282 0,0.242 0.223,0.242 0.301,0.242 0.223,0 0.281,-0.02 0.383,-0.402 l 1.101,-4.411 c 0.02,-0.078 0.039,-0.179 0.039,-0.281 0,-0.219 -0.238,-0.219 -0.3,-0.219 -0.258,0 -0.282,0.059 -0.379,0.422 -0.363,1.422 -0.684,1.922 -2.348,1.922 h -1.562 l 1.285,-5.191 c 0.16,-0.66 0.301,-0.68 0.961,-0.68 h 2.343 c 2.145,0 2.586,0.621 2.586,2.004 0,0.48 -0.058,0.863 -0.117,1.324 l -0.023,0.32 c 0,0.239 0.222,0.239 0.301,0.239 0.281,0 0.3,-0.078 0.343,-0.438 z"
       style="fill:#000000;fill-opacity:1;fill-rule:nonzero;stroke:none"
       transform="scale(1.3333333)" />
    <path
       id="path62"
       d="m 668.039,78.629 c 0,-0.133 -0.156,-0.133 -0.195,-0.133 -0.156,0 -0.172,0.039 -0.223,0.211 -0.234,0.648 -0.859,1.094 -1.422,1.094 -0.258,0 -0.469,-0.094 -0.726,-0.211 -0.395,-0.168 -0.551,-0.219 -0.809,-0.219 -0.066,0 -0.172,0 -0.234,0.012 0.09,-0.102 0.363,-0.43 0.73,-0.793 l 1.887,-1.863 c 0.769,-0.758 1.394,-1.747 1.394,-1.864 0,-0.129 -0.105,-0.129 -0.183,-0.129 -0.156,0 -0.168,0.012 -0.246,0.168 -0.43,0.743 -0.598,0.809 -0.809,0.809 -0.234,0 -0.363,-0.133 -0.613,-0.469 -0.156,-0.211 -0.375,-0.508 -0.793,-0.508 -0.965,0 -1.524,1.223 -1.524,1.485 0,0.117 0.09,0.144 0.196,0.144 0.156,0 0.168,-0.027 0.234,-0.183 0.102,-0.289 0.481,-0.614 0.965,-0.614 0.258,0 0.492,0.106 0.781,0.235 0.43,0.195 0.574,0.195 0.77,0.195 -0.196,0.223 -0.317,0.367 -0.524,0.574 l -2.136,2.125 c -0.731,0.715 -1.356,1.68 -1.356,1.809 0,0.133 0.117,0.133 0.195,0.133 0.145,0 0.157,-0.028 0.207,-0.117 0.184,-0.274 0.536,-0.864 1.032,-0.864 0.285,0 0.39,0.145 0.625,0.473 0.207,0.258 0.406,0.508 0.808,0.508 1.262,0 1.969,-1.696 1.969,-2.008 z"
       style="fill:#000000;fill-opacity:1;fill-rule:nonzero;stroke:none"
       transform="scale(1.3333333)" />
    <path
       id="path63"
       d="m 660.652,92.52 h 3.637 v -0.196 h -0.211 c -0.637,0 -0.91,-0.133 -0.91,-0.418 0,-0.222 0.207,-0.808 0.234,-0.965 l 1.864,-6.761 c 0.05,-0.196 0.078,-0.313 0.078,-0.379 0,-0.051 -0.028,-0.09 -0.067,-0.09 l -2.238,0.441 c -0.027,0 -0.133,0.028 -0.273,0.051 v 0.199 l 0.742,-0.027 c 0.012,0 0.023,0 0.023,0 0.289,0 0.469,0.168 0.469,0.402 0,0.078 -0.023,0.211 -0.09,0.446 l -1.797,6.41 c -0.133,0.48 -0.429,0.613 -1.461,0.703 z"
       style="fill:#000000;fill-opacity:1;fill-rule:nonzero;stroke:none"
       transform="scale(1.3333333)" />
    <path
       id="path64"
       d="m 620.492,15.914 0.602,-3.59 c 0.019,-0.078 0.019,-0.179 0.019,-0.258 0,-0.242 -0.179,-0.242 -0.5,-0.242 h -10.285 c -0.398,0 -0.461,0 -0.582,0.364 l -1.18,3.585 c -0.101,0.262 -0.101,0.34 -0.101,0.34 0,0.223 0.242,0.223 0.301,0.223 0.078,0 0.16,0 0.218,-0.063 0.043,-0.039 0.063,-0.058 0.262,-0.578 0.942,-2.828 1.504,-3.25 4.09,-3.25 h 0.68 c 0.461,0 0.461,0.082 0.461,0.223 0,0.141 -0.039,0.32 -0.079,0.441 l -2.687,10.762 c -0.18,0.703 -0.359,0.902 -2.125,0.902 h -0.32 c -0.34,0 -0.559,0 -0.559,0.383 0,0.239 0.238,0.239 0.34,0.239 1.019,0 2.082,-0.059 3.105,-0.059 1.043,0 2.125,0.059 3.149,0.059 0.179,0 0.422,0 0.422,-0.399 0,-0.223 -0.203,-0.223 -0.504,-0.223 h -0.301 c -0.32,0 -0.941,-0.039 -1,-0.039 -0.563,-0.058 -0.664,-0.14 -0.664,-0.422 0,-0.058 0,-0.097 0.082,-0.378 l 2.687,-10.786 c 0.141,-0.601 0.301,-0.64 0.461,-0.66 0.161,-0.043 0.7,-0.043 1.039,-0.043 2.086,0 2.547,0.282 2.547,1.524 0,0.242 0,0.621 -0.199,1.804 -0.039,0.223 -0.039,0.301 -0.039,0.301 0,0.262 0.199,0.262 0.301,0.262 0.258,0 0.301,-0.063 0.359,-0.422 z"
       style="fill:#000000;fill-opacity:1;fill-rule:nonzero;stroke:none"
       transform="scale(1.3333333)" />
    <path
       id="path65"
       d="m 626.504,17.418 1.277,-5.137 c 0.012,-0.078 0.039,-0.14 0.039,-0.179 0,-0.145 -0.105,-0.34 -0.367,-0.34 -0.391,0 -0.48,0.379 -0.508,0.48 l -0.949,3.832 c -0.094,0.379 -0.613,1.16 -1.383,1.16 -0.586,0 -0.703,-0.574 -0.703,-1.004 0,-0.792 0.43,-1.968 0.754,-2.851 0.106,-0.274 0.172,-0.457 0.172,-0.703 0,-0.653 -0.43,-1.059 -0.992,-1.059 -1.211,0 -1.668,1.93 -1.668,2.008 0,0.129 0.133,0.129 0.195,0.129 0.172,0 0.184,-0.024 0.234,-0.207 0.106,-0.402 0.457,-1.641 1.215,-1.641 0.141,0 0.285,0.039 0.285,0.375 0,0.313 -0.128,0.668 -0.312,1.176 -0.34,0.91 -0.68,1.875 -0.68,2.551 0,1.137 0.758,1.512 1.461,1.512 0.602,0 1.004,-0.313 1.172,-0.481 -0.492,2.149 -1.457,2.723 -2.109,2.723 -0.625,0 -0.809,-0.496 -0.809,-0.559 0,0 0.016,-0.027 0.106,-0.039 0.402,-0.066 0.558,-0.418 0.558,-0.625 0,-0.277 -0.207,-0.418 -0.441,-0.418 -0.156,0 -0.664,0.078 -0.664,0.809 0,0.675 0.531,1.117 1.25,1.117 1.355,0 2.539,-1.34 2.867,-2.629 z"
       style="fill:#000000;fill-opacity:1;fill-rule:nonzero;stroke:none"
       transform="scale(1.3333333)" />
    <path
       id="path66"
       d="m 620.355,29.406 h 3.637 v -0.195 h -0.207 c -0.64,0 -0.914,-0.133 -0.914,-0.418 0,-0.223 0.207,-0.809 0.234,-0.965 l 1.864,-6.762 c 0.051,-0.195 0.078,-0.312 0.078,-0.378 0,-0.051 -0.024,-0.09 -0.067,-0.09 l -2.238,0.441 c -0.027,0 -0.133,0.027 -0.273,0.055 v 0.195 l 0.742,-0.027 c 0.012,0 0.023,0 0.023,0 0.289,0 0.469,0.168 0.469,0.402 0,0.078 -0.023,0.211 -0.09,0.445 l -1.797,6.411 c -0.132,0.48 -0.429,0.613 -1.461,0.703 z"
       style="fill:#000000;fill-opacity:1;fill-rule:nonzero;stroke:none"
       transform="scale(1.3333333)" />
    <path
       id="path67"
       d="m 866.492,36.961 h 22.676"
       style="fill:none;stroke:#000000;stroke-width:2.55118;stroke-linecap:butt;stroke-linejoin:miter;stroke-miterlimit:3.9;stroke-dasharray:none;stroke-opacity:1"
       transform="scale(1.3333333)" />
    <path
       id="path68"
       d="m 889.168,36.961 -6.375,6.375 22.32,-6.375 -22.32,-6.379 z"
       style="fill:#000000;fill-opacity:1;fill-rule:evenodd;stroke:none"
       transform="scale(1.3333333)" />
    <path
       id="path69"
       d="m 897.59,49.797 0.461,-3.547 c 0.058,-0.523 -0.063,-0.523 -0.485,-0.523 h -9.121 c -0.34,0 -0.539,0 -0.539,0.363 0,0.258 0.141,0.258 0.539,0.258 1.164,0 1.164,0.16 1.164,0.343 0,0 0,0.161 -0.078,0.461 l -2.687,10.743 c -0.16,0.683 -0.282,0.843 -1.645,0.843 -0.32,0 -0.539,0 -0.539,0.379 0,0.242 0.219,0.242 0.278,0.242 0.804,0 1.644,-0.062 2.449,-0.062 0.922,0 1.863,0.062 2.765,0.062 0.18,0 0.418,0 0.418,-0.382 0,-0.239 -0.179,-0.239 -0.5,-0.239 h -0.199 c -1.465,0 -1.465,-0.16 -1.465,-0.422 0,-0.082 0,-0.121 0.082,-0.421 l 1.262,-5.051 h 1.664 c 1.305,0 1.484,0.301 1.484,0.844 0,0.339 -0.082,0.66 -0.16,0.98 -0.043,0.141 -0.062,0.219 -0.062,0.281 0,0.239 0.222,0.239 0.301,0.239 0.222,0 0.281,-0.02 0.382,-0.399 l 1.102,-4.41 c 0.019,-0.082 0.039,-0.18 0.039,-0.281 0,-0.223 -0.238,-0.223 -0.301,-0.223 -0.258,0 -0.281,0.063 -0.379,0.422 -0.363,1.426 -0.683,1.926 -2.347,1.926 h -1.563 l 1.285,-5.192 c 0.16,-0.664 0.301,-0.683 0.961,-0.683 h 2.344 c 2.145,0 2.586,0.621 2.586,2.004 0,0.484 -0.059,0.863 -0.117,1.324 l -0.024,0.32 c 0,0.242 0.223,0.242 0.301,0.242 0.281,0 0.301,-0.082 0.344,-0.441 z"
       style="fill:#000000;fill-opacity:1;fill-rule:nonzero;stroke:none"
       transform="scale(1.3333333)" />
    <path
       id="path70"
       d="m 905.133,49.477 c 0,-0.129 -0.106,-0.129 -0.195,-0.129 -0.157,0 -0.172,0.011 -0.235,0.218 -0.351,1.122 -1.004,1.629 -1.551,1.629 -0.261,0 -0.613,-0.156 -0.613,-0.832 0,-0.312 0.145,-0.875 0.246,-1.316 l 0.445,-1.785 c 0.18,-0.676 0.536,-1.395 1.145,-1.395 0.039,0 0.367,0 0.574,0.184 -0.519,0.129 -0.519,0.625 -0.519,0.625 0,0.168 0.117,0.418 0.453,0.418 0.234,0 0.64,-0.184 0.64,-0.692 0,-0.664 -0.757,-0.82 -1.132,-0.82 -0.719,0 -1.149,0.637 -1.278,0.887 -0.289,-0.785 -0.925,-0.887 -1.25,-0.887 -1.304,0 -2.008,1.707 -2.008,2.004 0,0.133 0.129,0.133 0.196,0.133 0.168,0 0.168,-0.016 0.234,-0.223 0.352,-1.121 1.027,-1.629 1.551,-1.629 0.379,0 0.625,0.301 0.625,0.821 0,0.312 -0.156,0.953 -0.273,1.433 l -0.301,1.188 c -0.207,0.847 -0.481,1.886 -1.262,1.886 -0.039,0 -0.352,0 -0.574,-0.179 0.39,-0.106 0.508,-0.43 0.508,-0.625 0,-0.34 -0.274,-0.418 -0.442,-0.418 -0.328,0 -0.652,0.273 -0.652,0.703 0,0.508 0.547,0.808 1.144,0.808 0.625,0 1.059,-0.496 1.278,-0.886 0.261,0.742 0.898,0.886 1.238,0.886 1.344,0 2.008,-1.746 2.008,-2.007 z"
       style="fill:#000000;fill-opacity:1;fill-rule:nonzero;stroke:none"
       transform="scale(1.3333333)" />
    <path
       id="path71"
       d="m 899.711,56.645 0.273,0.089 c 0.481,-0.847 1.043,-1.222 1.825,-1.222 0.925,0 1.629,0.676 1.629,1.59 0,0.625 -0.34,1.496 -1.876,3.125 l -2.738,2.918 v 0.222 h 4.625 l 0.653,-1.719 -0.223,-0.093 c -0.313,0.652 -0.586,0.824 -1.289,0.824 h -2.477 v -0.067 l 2.504,-2.5 c 1.524,-1.527 1.942,-2.179 1.942,-3.039 0,-1.25 -0.926,-2.214 -2.114,-2.214 -1.027,0 -2.082,0.468 -2.734,2.086 z"
       style="fill:#000000;fill-opacity:1;fill-rule:nonzero;stroke:none"
       transform="scale(1.3333333)" />
    <path
       id="path72"
       d="m -485.773,-423.813 c -1.534,-7.806 2.572,-15.626 9.867,-18.8 7.295,-3.17 15.814,-0.842 20.478,5.603"
       style="fill:none;stroke:#000000;stroke-width:2.39071;stroke-linecap:butt;stroke-linejoin:miter;stroke-miterlimit:4;stroke-dasharray:none;stroke-opacity:0.964706"
       transform="matrix(-1.3333333,-1.3333333,-1.3333333,1.3333333,0,0)" />
    <path
       id="path73"
       d="m 888.145,18.316 7.757,6.454 c -1.304,-14.211 0,0 -1.304,-14.211 z"
       style="fill:#000001;fill-opacity:0.964706;fill-rule:nonzero;stroke:none"
       transform="scale(1.3333333)" />
    <path
       id="path74"
       d="M 866.492,35.688 V 58.363"
       style="fill:none;stroke:#000000;stroke-width:2.55118;stroke-linecap:butt;stroke-linejoin:miter;stroke-miterlimit:3.9;stroke-dasharray:none;stroke-opacity:1"
       transform="scale(1.3333333)" />
    <path
       id="path75"
       d="m 866.492,58.363 -6.375,-6.379 6.375,22.325 6.379,-22.325 z"
       style="fill:#000000;fill-opacity:1;fill-rule:evenodd;stroke:none"
       transform="scale(1.3333333)" />
    <path
       id="path76"
       d="m 879.422,78.945 0.461,-3.547 c 0.062,-0.519 -0.059,-0.519 -0.481,-0.519 h -9.121 c -0.34,0 -0.539,0 -0.539,0.359 0,0.262 0.141,0.262 0.539,0.262 1.164,0 1.164,0.16 1.164,0.34 0,0 0,0.16 -0.082,0.461 l -2.683,10.746 c -0.16,0.68 -0.282,0.84 -1.645,0.84 -0.32,0 -0.543,0 -0.543,0.383 0,0.238 0.223,0.238 0.281,0.238 0.801,0 1.645,-0.059 2.446,-0.059 0.922,0 1.867,0.059 2.765,0.059 0.184,0 0.422,0 0.422,-0.379 0,-0.242 -0.179,-0.242 -0.5,-0.242 h -0.199 c -1.465,0 -1.465,-0.16 -1.465,-0.422 0,-0.078 0,-0.117 0.082,-0.418 l 1.262,-5.055 h 1.664 c 1.301,0 1.484,0.301 1.484,0.844 0,0.34 -0.082,0.66 -0.164,0.98 -0.039,0.141 -0.058,0.223 -0.058,0.282 0,0.242 0.222,0.242 0.3,0.242 0.219,0 0.282,-0.02 0.383,-0.402 l 1.102,-4.411 c 0.019,-0.078 0.039,-0.179 0.039,-0.281 0,-0.219 -0.242,-0.219 -0.301,-0.219 -0.262,0 -0.281,0.059 -0.379,0.422 -0.363,1.422 -0.683,1.922 -2.347,1.922 h -1.563 l 1.281,-5.191 c 0.161,-0.66 0.301,-0.68 0.965,-0.68 h 2.344 c 2.144,0 2.586,0.621 2.586,2.004 0,0.48 -0.059,0.863 -0.121,1.324 l -0.02,0.32 c 0,0.239 0.223,0.239 0.301,0.239 0.281,0 0.301,-0.078 0.34,-0.438 z"
       style="fill:#000000;fill-opacity:1;fill-rule:nonzero;stroke:none"
       transform="scale(1.3333333)" />
    <path
       id="path77"
       d="m 885.059,78.629 c 0,-0.133 -0.157,-0.133 -0.196,-0.133 -0.156,0 -0.168,0.039 -0.218,0.211 -0.235,0.648 -0.864,1.094 -1.422,1.094 -0.262,0 -0.469,-0.094 -0.731,-0.211 -0.39,-0.168 -0.547,-0.219 -0.808,-0.219 -0.063,0 -0.168,0 -0.235,0.012 0.094,-0.102 0.367,-0.43 0.731,-0.793 l 1.89,-1.863 c 0.77,-0.758 1.395,-1.747 1.395,-1.864 0,-0.129 -0.106,-0.129 -0.184,-0.129 -0.156,0 -0.168,0.012 -0.246,0.168 -0.43,0.743 -0.601,0.809 -0.808,0.809 -0.235,0 -0.368,-0.133 -0.614,-0.469 -0.156,-0.211 -0.379,-0.508 -0.793,-0.508 -0.965,0 -1.527,1.223 -1.527,1.485 0,0.117 0.094,0.144 0.195,0.144 0.157,0 0.172,-0.027 0.235,-0.183 0.105,-0.289 0.484,-0.614 0.965,-0.614 0.261,0 0.496,0.106 0.781,0.235 0.429,0.195 0.574,0.195 0.769,0.195 -0.195,0.223 -0.312,0.367 -0.519,0.574 l -2.137,2.125 c -0.73,0.715 -1.355,1.68 -1.355,1.809 0,0.133 0.117,0.133 0.195,0.133 0.14,0 0.156,-0.028 0.207,-0.117 0.183,-0.274 0.535,-0.864 1.031,-0.864 0.285,0 0.391,0.145 0.625,0.473 0.207,0.258 0.403,0.508 0.809,0.508 1.261,0 1.965,-1.696 1.965,-2.008 z"
       style="fill:#000000;fill-opacity:1;fill-rule:nonzero;stroke:none"
       transform="scale(1.3333333)" />
    <path
       id="path78"
       d="m 880.262,85.793 0.273,0.094 c 0.485,-0.848 1.043,-1.227 1.824,-1.227 0.926,0 1.629,0.68 1.629,1.59 0,0.625 -0.34,1.5 -1.875,3.129 l -2.738,2.918 V 92.52 H 884 l 0.652,-1.723 -0.222,-0.09 c -0.313,0.652 -0.586,0.82 -1.289,0.82 h -2.477 v -0.066 l 2.504,-2.5 c 1.523,-1.523 1.941,-2.176 1.941,-3.035 0,-1.25 -0.925,-2.215 -2.109,-2.215 -1.031,0 -2.086,0.469 -2.738,2.082 z"
       style="fill:#000000;fill-opacity:1;fill-rule:nonzero;stroke:none"
       transform="scale(1.3333333)" />
    <path
       id="path79"
       d="m 933.902,15.914 0.602,-3.59 c 0.019,-0.078 0.019,-0.179 0.019,-0.258 0,-0.242 -0.179,-0.242 -0.5,-0.242 h -10.285 c -0.398,0 -0.461,0 -0.582,0.364 l -1.179,3.585 c -0.102,0.262 -0.102,0.34 -0.102,0.34 0,0.223 0.242,0.223 0.301,0.223 0.078,0 0.16,0 0.219,-0.063 0.043,-0.039 0.062,-0.058 0.261,-0.578 0.942,-2.828 1.504,-3.25 4.09,-3.25 h 0.68 c 0.461,0 0.461,0.082 0.461,0.223 0,0.141 -0.039,0.32 -0.078,0.441 l -2.688,10.762 c -0.18,0.703 -0.359,0.902 -2.125,0.902 h -0.32 c -0.34,0 -0.563,0 -0.563,0.383 0,0.239 0.242,0.239 0.344,0.239 1.02,0 2.082,-0.059 3.105,-0.059 1.043,0 2.126,0.059 3.149,0.059 0.18,0 0.422,0 0.422,-0.399 0,-0.223 -0.203,-0.223 -0.504,-0.223 h -0.301 c -0.32,0 -0.941,-0.039 -1,-0.039 -0.562,-0.058 -0.664,-0.14 -0.664,-0.422 0,-0.058 0,-0.097 0.082,-0.378 l 2.688,-10.786 c 0.14,-0.601 0.3,-0.64 0.461,-0.66 0.16,-0.043 0.699,-0.043 1.039,-0.043 2.086,0 2.546,0.282 2.546,1.524 0,0.242 0,0.621 -0.199,1.804 -0.039,0.223 -0.039,0.301 -0.039,0.301 0,0.262 0.199,0.262 0.301,0.262 0.258,0 0.301,-0.063 0.359,-0.422 z"
       style="fill:#000000;fill-opacity:1;fill-rule:nonzero;stroke:none"
       transform="scale(1.3333333)" />
    <path
       id="path80"
       d="m 939.914,17.418 1.277,-5.137 c 0.012,-0.078 0.039,-0.14 0.039,-0.179 0,-0.145 -0.105,-0.34 -0.367,-0.34 -0.39,0 -0.48,0.379 -0.508,0.48 l -0.949,3.832 c -0.094,0.379 -0.613,1.16 -1.383,1.16 -0.585,0 -0.703,-0.574 -0.703,-1.004 0,-0.792 0.43,-1.968 0.754,-2.851 0.106,-0.274 0.172,-0.457 0.172,-0.703 0,-0.653 -0.43,-1.059 -0.992,-1.059 -1.211,0 -1.668,1.93 -1.668,2.008 0,0.129 0.133,0.129 0.195,0.129 0.172,0 0.184,-0.024 0.235,-0.207 0.105,-0.402 0.457,-1.641 1.214,-1.641 0.141,0 0.286,0.039 0.286,0.375 0,0.313 -0.129,0.668 -0.313,1.176 -0.34,0.91 -0.68,1.875 -0.68,2.551 0,1.137 0.758,1.512 1.461,1.512 0.598,0 1.004,-0.313 1.172,-0.481 -0.496,2.149 -1.457,2.723 -2.109,2.723 -0.625,0 -0.809,-0.496 -0.809,-0.559 0,0 0.016,-0.027 0.106,-0.039 0.402,-0.066 0.558,-0.418 0.558,-0.625 0,-0.277 -0.207,-0.418 -0.441,-0.418 -0.156,0 -0.664,0.078 -0.664,0.809 0,0.675 0.531,1.117 1.25,1.117 1.355,0 2.539,-1.34 2.867,-2.629 z"
       style="fill:#000000;fill-opacity:1;fill-rule:nonzero;stroke:none"
       transform="scale(1.3333333)" />
    <path
       id="path81"
       d="m 934.879,22.684 0.273,0.089 c 0.481,-0.847 1.043,-1.226 1.825,-1.226 0.925,0 1.628,0.68 1.628,1.59 0,0.625 -0.339,1.5 -1.875,3.129 l -2.738,2.918 v 0.222 h 4.625 l 0.653,-1.722 -0.223,-0.09 c -0.313,0.652 -0.586,0.82 -1.289,0.82 h -2.477 v -0.062 l 2.504,-2.504 c 1.524,-1.524 1.942,-2.176 1.942,-3.036 0,-1.25 -0.926,-2.214 -2.11,-2.214 -1.031,0 -2.086,0.468 -2.738,2.086 z"
       style="fill:#000000;fill-opacity:1;fill-rule:nonzero;stroke:none"
       transform="scale(1.3333333)" />
    <path
       id="path82"
       d="m 700.809,79.652 c 0,-0.699 -0.243,-1.32 -0.825,-1.32 -0.461,0 -0.961,0.461 -0.961,0.922 0,0.262 0.141,0.398 0.262,0.539 0.481,0.523 0.539,1.164 0.539,1.586 0,0.801 -0.64,2.906 -0.98,3.726 -0.442,1.043 -1.082,1.868 -2.004,1.868 -1.004,0 -1.324,-0.825 -1.324,-1.664 0,-0.184 0.019,-0.664 0.242,-1.547 l 0.84,-3.367 c 0.121,-0.442 0.32,-1.243 0.32,-1.321 0,-0.222 -0.16,-0.523 -0.559,-0.523 -0.582,0 -0.722,0.543 -0.761,0.703 l -1.145,4.57 c -0.141,0.563 -0.16,0.981 -0.16,1.262 0,0.223 -0.621,1.887 -1.684,1.887 -1.402,0 -1.402,-1.485 -1.402,-1.746 0,-1.082 0.52,-2.567 1.141,-4.211 0.14,-0.379 0.242,-0.68 0.242,-1.063 0,-1 -0.66,-1.621 -1.524,-1.621 -1.863,0 -2.566,2.965 -2.566,3.086 0,0.199 0.199,0.199 0.301,0.199 0.261,0 0.281,-0.039 0.359,-0.32 0.16,-0.621 0.703,-2.524 1.867,-2.524 0.219,0 0.438,0.059 0.438,0.579 0,0.484 -0.199,1.023 -0.481,1.804 -1,2.727 -1,3.25 -1,3.789 0,0.684 0.161,1.364 0.68,1.844 0.641,0.563 1.543,0.621 1.887,0.621 0.64,0 1.34,-0.258 1.941,-1.281 0.301,0.742 1.106,1.281 2.285,1.281 1.203,0 2.047,-0.82 2.649,-2.242 0.601,-1.363 1.383,-4.453 1.383,-5.516 z"
       style="fill:#000000;fill-opacity:1;fill-rule:nonzero;stroke:none"
       transform="scale(1.3333333)" />
    <path
       id="path83"
       d="m 700.785,91.199 h 3.637 v -0.195 h -0.211 c -0.637,0 -0.91,-0.129 -0.91,-0.414 0,-0.223 0.207,-0.809 0.234,-0.965 l 1.863,-6.762 c 0.051,-0.195 0.079,-0.312 0.079,-0.379 0,-0.05 -0.028,-0.093 -0.067,-0.093 l -2.242,0.445 c -0.023,0 -0.129,0.023 -0.273,0.051 v 0.195 l 0.742,-0.023 c 0.015,0 0.027,0 0.027,0 0.285,0 0.469,0.168 0.469,0.402 0,0.078 -0.024,0.211 -0.09,0.445 l -1.801,6.41 c -0.129,0.481 -0.43,0.614 -1.457,0.704 z"
       style="fill:#000000;fill-opacity:1;fill-rule:nonzero;stroke:none"
       transform="scale(1.3333333)" />
    <path
       id="path84"
       d="m 697.398,9.062 c 3.247,0 5.993,-3.128 5.993,-6.656 0,-1.586 -0.84,-2.406 -2.286,-2.406 -2.265,0 -3.468,2.586 -4.187,5.23 0,0 -0.664,2.489 -0.922,3.372 -1.223,0 -2.308,-0.743 -2.308,-2.407 0,-1.484 0.664,-5.734 3.089,-5.734 0.5,0 0.762,0.242 1.043,0.863 l 0.34,-0.32 C 698.02,0.441 697.699,0 696.656,0 c -2.726,0 -4.652,3.188 -4.652,5.391 0,2.449 2.105,3.671 3.871,3.671 l -1.043,3.887 h 1.504 z m 5.411,-6.617 c 0,3.348 -2.664,6.157 -5.27,6.157 l 1.441,-5.336 c 0.321,-1.282 0.723,-2.805 2.266,-2.805 1.082,0 1.563,0.922 1.563,1.984 z"
       style="fill:#000000;fill-opacity:1;fill-rule:nonzero;stroke:none"
       transform="scale(1.3333333)" />
    <path
       id="path85"
       d="m 704.773,12.848 h 3.633 v -0.196 h -0.207 c -0.64,0 -0.914,-0.129 -0.914,-0.414 0,-0.222 0.211,-0.808 0.235,-0.965 l 1.863,-6.761 c 0.055,-0.196 0.078,-0.313 0.078,-0.379 0,-0.051 -0.023,-0.09 -0.063,-0.09 l -2.242,0.441 c -0.027,0 -0.129,0.028 -0.273,0.051 V 4.73 l 0.742,-0.023 c 0.016,0 0.027,0 0.027,0 0.286,0 0.469,0.168 0.469,0.402 0,0.079 -0.027,0.207 -0.094,0.442 l -1.797,6.414 c -0.128,0.48 -0.429,0.609 -1.46,0.703 z"
       style="fill:#000000;fill-opacity:1;fill-rule:nonzero;stroke:none"
       transform="scale(1.3333333)" />
    <path
       id="path86"
       d="m 854.707,61.941 c 0,-0.199 -0.16,-0.199 -0.301,-0.199 -0.242,0 -0.261,0.02 -0.379,0.461 -0.281,1.121 -0.664,2.387 -1.343,2.387 -0.524,0 -0.524,-0.543 -0.524,-0.824 0,-0.141 0,-0.461 0.141,-1.02 l 1.445,-5.773 c 0.039,-0.121 0.059,-0.223 0.059,-0.282 0,-0.222 -0.16,-0.523 -0.563,-0.523 -0.601,0 -0.738,0.582 -0.781,0.742 L 851,62.766 c -0.102,0.359 -0.102,0.398 -0.281,0.66 -0.383,0.562 -0.961,1.164 -1.844,1.164 -0.902,0 -1.082,-0.883 -1.082,-1.543 0,-1.223 0.66,-3.027 1.16,-4.391 0.16,-0.422 0.262,-0.703 0.262,-1.082 0,-1.004 -0.66,-1.625 -1.524,-1.625 -1.863,0 -2.566,2.965 -2.566,3.086 0,0.203 0.199,0.203 0.301,0.203 0.262,0 0.281,-0.043 0.359,-0.324 0.16,-0.621 0.703,-2.523 1.867,-2.523 0.219,0 0.442,0.058 0.442,0.582 0,0.48 -0.203,1.019 -0.485,1.804 -0.519,1.403 -1.039,2.887 -1.039,3.926 0,1.746 1.16,2.328 2.242,2.328 1.063,0 1.747,-0.601 2.227,-1.203 0.359,1.082 1.223,1.203 1.602,1.203 0.742,0 1.164,-0.504 1.464,-1.125 0.36,-0.761 0.602,-1.965 0.602,-1.965 z"
       style="fill:#000000;fill-opacity:1;fill-rule:nonzero;stroke:none"
       transform="scale(1.3333333)" />
    <path
       id="path87"
       d="m 855.27,62.094 0.273,0.094 c 0.48,-0.848 1.043,-1.227 1.824,-1.227 0.926,0 1.629,0.68 1.629,1.59 0,0.625 -0.34,1.5 -1.879,3.129 l -2.734,2.918 v 0.222 h 4.625 l 0.652,-1.722 -0.222,-0.09 c -0.313,0.652 -0.586,0.82 -1.29,0.82 h -2.476 v -0.066 l 2.504,-2.5 c 1.523,-1.524 1.941,-2.176 1.941,-3.035 0,-1.254 -0.926,-2.215 -2.113,-2.215 -1.027,0 -2.086,0.468 -2.734,2.082 z"
       style="fill:#000000;fill-opacity:1;fill-rule:nonzero;stroke:none"
       transform="scale(1.3333333)" />
    <path
       id="path88"
       d="m 836.809,79.652 c 0,-0.699 -0.243,-1.32 -0.821,-1.32 -0.465,0 -0.965,0.461 -0.965,0.922 0,0.262 0.141,0.398 0.262,0.539 0.481,0.523 0.539,1.164 0.539,1.586 0,0.801 -0.64,2.906 -0.98,3.726 -0.442,1.043 -1.082,1.868 -2.004,1.868 -1.004,0 -1.324,-0.825 -1.324,-1.664 0,-0.184 0.019,-0.664 0.242,-1.547 l 0.84,-3.367 c 0.121,-0.442 0.32,-1.243 0.32,-1.321 0,-0.222 -0.16,-0.523 -0.559,-0.523 -0.582,0 -0.722,0.543 -0.761,0.703 l -1.145,4.57 c -0.141,0.563 -0.16,0.981 -0.16,1.262 0,0.223 -0.621,1.887 -1.684,1.887 -1.402,0 -1.402,-1.485 -1.402,-1.746 0,-1.082 0.52,-2.567 1.141,-4.211 0.14,-0.379 0.242,-0.68 0.242,-1.063 0,-1 -0.66,-1.621 -1.524,-1.621 -1.863,0 -2.566,2.965 -2.566,3.086 0,0.199 0.199,0.199 0.301,0.199 0.261,0 0.281,-0.039 0.359,-0.32 0.16,-0.621 0.703,-2.524 1.867,-2.524 0.219,0 0.442,0.059 0.442,0.579 0,0.484 -0.203,1.023 -0.485,1.804 -1,2.727 -1,3.25 -1,3.789 0,0.684 0.161,1.364 0.68,1.844 0.641,0.563 1.543,0.621 1.887,0.621 0.64,0 1.34,-0.258 1.941,-1.281 0.301,0.742 1.106,1.281 2.285,1.281 1.203,0 2.047,-0.82 2.649,-2.242 0.601,-1.363 1.383,-4.453 1.383,-5.516 z"
       style="fill:#000000;fill-opacity:1;fill-rule:nonzero;stroke:none"
       transform="scale(1.3333333)" />
    <path
       id="path89"
       d="m 837.188,84.477 0.273,0.093 c 0.484,-0.847 1.043,-1.226 1.824,-1.226 0.926,0 1.629,0.676 1.629,1.59 0,0.625 -0.336,1.5 -1.875,3.125 l -2.734,2.921 v 0.219 h 4.625 l 0.652,-1.719 -0.223,-0.089 c -0.312,0.648 -0.586,0.82 -1.289,0.82 h -2.476 v -0.066 l 2.5,-2.5 c 1.527,-1.528 1.941,-2.176 1.941,-3.04 0,-1.25 -0.926,-2.214 -2.109,-2.214 -1.031,0 -2.086,0.472 -2.738,2.086 z"
       style="fill:#000000;fill-opacity:1;fill-rule:nonzero;stroke:none"
       transform="scale(1.3333333)" />
    <path
       id="path90"
       d="m 834.07,9.062 c 3.246,0 5.992,-3.128 5.992,-6.656 0,-1.586 -0.843,-2.406 -2.285,-2.406 -2.265,0 -3.468,2.586 -4.191,5.23 0,0 -0.66,2.489 -0.922,3.372 -1.223,0 -2.305,-0.743 -2.305,-2.407 0,-1.484 0.664,-5.734 3.086,-5.734 0.504,0 0.762,0.242 1.043,0.863 l 0.344,-0.32 C 834.691,0.441 834.371,0 833.328,0 c -2.726,0 -4.652,3.188 -4.652,5.391 0,2.449 2.105,3.671 3.871,3.671 l -1.043,3.887 h 1.504 z m 5.41,-6.617 c 0,3.348 -2.664,6.157 -5.273,6.157 l 1.445,-5.336 c 0.321,-1.282 0.723,-2.805 2.266,-2.805 1.082,0 1.562,0.922 1.562,1.984 z"
       style="fill:#000000;fill-opacity:1;fill-rule:nonzero;stroke:none"
       transform="scale(1.3333333)" />
    <path
       id="path91"
       d="m 841.848,6.125 0.273,0.094 c 0.481,-0.848 1.043,-1.227 1.824,-1.227 0.926,0 1.629,0.68 1.629,1.59 0,0.625 -0.34,1.5 -1.879,3.129 l -2.734,2.918 v 0.219 h 4.625 l 0.652,-1.719 -0.222,-0.09 c -0.313,0.652 -0.586,0.82 -1.289,0.82 h -2.477 v -0.066 l 2.5,-2.5 c 1.527,-1.523 1.941,-2.176 1.941,-3.035 0,-1.254 -0.921,-2.215 -2.109,-2.215 -1.027,0 -2.086,0.469 -2.734,2.082 z"
       style="fill:#000000;fill-opacity:1;fill-rule:nonzero;stroke:none"
       transform="scale(1.3333333)" />
  </g>
</svg>
