<?xml version="1.0" encoding="UTF-8" standalone="no"?>
<svg
   xmlns:dc="http://purl.org/dc/elements/1.1/"
   xmlns:cc="http://creativecommons.org/ns#"
   xmlns:rdf="http://www.w3.org/1999/02/22-rdf-syntax-ns#"
   xmlns:svg="http://www.w3.org/2000/svg"
   xmlns="http://www.w3.org/2000/svg"
   viewBox="0 0 183.59734 145.80133"
   height="145.80133"
   width="183.59734"
   xml:space="preserve"
   id="svg2"
   version="1.1"><metadata
     id="metadata8"><rdf:RDF><cc:Work
         rdf:about=""><dc:format>image/svg+xml</dc:format><dc:type
           rdf:resource="http://purl.org/dc/dcmitype/StillImage" /></cc:Work></rdf:RDF></metadata><defs
     id="defs6"><clipPath
       id="clipPath14"
       clipPathUnits="userSpaceOnUse"><path
         id="path12"
         d="M 0,0 H 612 V 792 H 0 Z" /></clipPath></defs><g
     clip-path="url(#clipPath14)"
     transform="matrix(1.3333333,0,0,-1.3333333,-199.49733,963.328)"
     id="g10"><g
       transform="translate(156.603,630.476)"
       id="g16"><path
         id="path18"
         style="fill:none;stroke:#c3312f;stroke-width:1.19599998;stroke-linecap:butt;stroke-linejoin:miter;stroke-miterlimit:10;stroke-dasharray:none;stroke-opacity:1"
         d="M 0,0 56.694,56.694" /></g><g
       transform="translate(156.603,630.476)"
       id="g20"><g
         transform="translate(56.6936,56.6936)"
         id="g22"><path
           id="path24"
           style="fill:none;stroke:#c3312f;stroke-width:1.19599998;stroke-linecap:butt;stroke-linejoin:miter;stroke-miterlimit:10;stroke-dasharray:none;stroke-opacity:1"
           d="M 0,0 H 56.694" /></g></g><g
       transform="translate(156.603,630.476)"
       id="g26"><g
         transform="translate(113.3872,56.6936)"
         id="g28"><path
           id="path30"
           style="fill:none;stroke:#c3312f;stroke-width:1.19599998;stroke-linecap:butt;stroke-linejoin:miter;stroke-miterlimit:10;stroke-dasharray:none;stroke-opacity:1"
           d="M 0,0 V -56.694" /></g></g><g
       transform="translate(156.603,630.476)"
       id="g32"><g
         transform="translate(2.8348)"
         id="g34"><path
           id="path36"
           style="fill:#017188;fill-opacity:1;fill-rule:nonzero;stroke:#000000;stroke-width:0.398;stroke-linecap:butt;stroke-linejoin:miter;stroke-miterlimit:10;stroke-dasharray:none;stroke-opacity:1"
           d="M 0,0 C 0,1.566 -1.269,2.835 -2.835,2.835 -4.4,2.835 -5.67,1.566 -5.67,0 c 0,-1.566 1.27,-2.835 2.835,-2.835 C -1.269,-2.835 0,-1.566 0,0 Z" /></g></g><g
       transform="translate(156.603,630.476)"
       id="g38"><g
         transform="translate(59.5285,56.6936)"
         id="g40"><path
           id="path42"
           style="fill:#017188;fill-opacity:1;fill-rule:nonzero;stroke:#000000;stroke-width:0.398;stroke-linecap:butt;stroke-linejoin:miter;stroke-miterlimit:10;stroke-dasharray:none;stroke-opacity:1"
           d="M 0,0 C 0,1.566 -1.269,2.835 -2.835,2.835 -4.401,2.835 -5.67,1.566 -5.67,0 c 0,-1.566 1.269,-2.835 2.835,-2.835 C -1.269,-2.835 0,-1.566 0,0 Z" /></g></g><g
       transform="translate(156.603,630.476)"
       id="g44"><g
         transform="translate(116.2221,56.6936)"
         id="g46"><path
           id="path48"
           style="fill:#017188;fill-opacity:1;fill-rule:nonzero;stroke:#000000;stroke-width:0.398;stroke-linecap:butt;stroke-linejoin:miter;stroke-miterlimit:10;stroke-dasharray:none;stroke-opacity:1"
           d="M 0,0 C 0,1.566 -1.269,2.835 -2.835,2.835 -4.4,2.835 -5.67,1.566 -5.67,0 c 0,-1.566 1.27,-2.835 2.835,-2.835 C -1.269,-2.835 0,-1.566 0,0 Z" /></g></g><g
       transform="translate(156.603,630.476)"
       id="g50"><g
         transform="translate(116.2221)"
         id="g52"><path
           id="path54"
           style="fill:#017188;fill-opacity:1;fill-rule:nonzero;stroke:#000000;stroke-width:0.398;stroke-linecap:butt;stroke-linejoin:miter;stroke-miterlimit:10;stroke-dasharray:none;stroke-opacity:1"
           d="M 0,0 C 0,1.566 -1.269,2.835 -2.835,2.835 -4.4,2.835 -5.67,1.566 -5.67,0 c 0,-1.566 1.27,-2.835 2.835,-2.835 C -1.269,-2.835 0,-1.566 0,0 Z" /></g></g><g
       transform="translate(156.603,630.476)"
       id="g56"><g
         transform="translate(56.6936,85.0404)"
         id="g58"><path
           id="path60"
           style="fill:none;stroke:#00b7d3;stroke-width:1.19599998;stroke-linecap:butt;stroke-linejoin:miter;stroke-miterlimit:10;stroke-dasharray:none;stroke-opacity:1"
           d="M 0,0 V -12.687" /></g></g><g
       transform="rotate(-90,458.06316,244.76655)"
       id="g62"><g
         transform="translate(5.7385)"
         id="g64"><path
           id="path66"
           style="fill:#00b7d3;fill-opacity:1;fill-rule:nonzero;stroke:none"
           d="M 0,0 C -1.7,0.319 -4.463,1.275 -6.376,2.391 V -2.391 C -4.463,-1.275 -1.7,-0.319 0,0" /></g></g><g
       transform="translate(156.603,630.476)"
       id="g68"><g
         transform="translate(90.7097,56.6936)"
         id="g70"><path
           id="path72"
           style="fill:none;stroke:#00b7d3;stroke-width:1.19599998;stroke-linecap:butt;stroke-linejoin:miter;stroke-miterlimit:10;stroke-dasharray:none;stroke-opacity:1"
           d="M 0,0 H 11.27" /></g></g><g
       transform="translate(258.5824,687.16963)"
       id="g74"><g
         transform="translate(5.7385)"
         id="g76"><path
           id="path78"
           style="fill:#00b7d3;fill-opacity:1;fill-rule:nonzero;stroke:none"
           d="M 0,0 C -1.7,0.319 -4.463,1.275 -6.376,2.391 V -2.391 C -4.463,-1.275 -1.7,-0.319 0,0" /></g></g><g
       transform="translate(156.603,630.476)"
       id="g80"><path
         id="path82"
         style="fill:none;stroke:#0066a2;stroke-width:0.79699999;stroke-linecap:butt;stroke-linejoin:miter;stroke-miterlimit:10;stroke-dasharray:none;stroke-opacity:1"
         d="M 0,0 H 12.346" /></g><g
       transform="translate(168.94876,630.47601)"
       id="g84"><g
         transform="translate(4.6625)"
         id="g86"><path
           id="path88"
           style="fill:#0066a2;fill-opacity:1;fill-rule:nonzero;stroke:none"
           d="M 0,0 C -1.381,0.259 -3.626,1.036 -5.181,1.943 V -1.943 C -3.626,-1.036 -1.381,-0.259 0,0" /></g></g><g
       transform="translate(156.603,630.47601)"
       id="g90"><path
         id="path92"
         style="fill:none;stroke:#0066a2;stroke-width:0.79699999;stroke-linecap:butt;stroke-linejoin:miter;stroke-miterlimit:10;stroke-dasharray:none;stroke-opacity:1"
         d="M 0,0 V -12.346" /></g><g
       transform="rotate(-90,387.36662,230.76362)"
       id="g94"><g
         transform="translate(4.6625)"
         id="g96"><path
           id="path98"
           style="fill:#0066a2;fill-opacity:1;fill-rule:nonzero;stroke:none"
           d="M 0,0 C -1.381,0.259 -3.626,1.036 -5.181,1.943 V -1.943 C -3.626,-1.036 -1.381,-0.259 0,0" /></g></g><g
       transform="translate(156.603,630.476)"
       id="g100"><g
         transform="translate(5.6693,-8.5041)"
         id="g102"><path
           id="path104"
           style="fill:none;stroke:#0066a2;stroke-width:0.79699999;stroke-linecap:butt;stroke-linejoin:miter;stroke-miterlimit:10;stroke-dasharray:none;stroke-opacity:1"
           d="m 0,0 c 4.197,3.522 4.745,9.78 1.223,13.978 -1.885,2.246 -4.668,3.544 -6.893,3.544" /></g></g><g
       transform="rotate(180,78.301079,319.74686)"
       id="g106"><g
         transform="translate(-1.5541,2.0722)"
         id="g108"><path
           id="path110"
           style="fill:none;stroke:#0066a2;stroke-width:0.63800001;stroke-linecap:round;stroke-linejoin:round;stroke-miterlimit:10;stroke-dasharray:none;stroke-opacity:1"
           d="M 0,0 C 0.13,-0.777 1.554,-1.943 1.943,-2.072 1.554,-2.202 0.13,-3.367 0,-4.144" /></g></g><g
       transform="translate(156.603,630.476)"
       id="g112"><g
         transform="translate(56.6936,56.6936)"
         id="g114"><path
           id="path116"
           style="fill:none;stroke:#0066a2;stroke-width:0.79699999;stroke-linecap:butt;stroke-linejoin:miter;stroke-miterlimit:10;stroke-dasharray:none;stroke-opacity:1"
           d="M 0,0 H 12.346" /></g></g><g
       transform="translate(225.64238,687.16963)"
       id="g118"><g
         transform="translate(4.6625)"
         id="g120"><path
           id="path122"
           style="fill:#0066a2;fill-opacity:1;fill-rule:nonzero;stroke:none"
           d="M 0,0 C -1.381,0.259 -3.626,1.036 -5.181,1.943 V -1.943 C -3.626,-1.036 -1.381,-0.259 0,0" /></g></g><g
       transform="translate(156.603,630.476)"
       id="g124"><g
         transform="translate(56.6936,56.6936)"
         id="g126"><path
           id="path128"
           style="fill:none;stroke:#0066a2;stroke-width:0.79699999;stroke-linecap:butt;stroke-linejoin:miter;stroke-miterlimit:10;stroke-dasharray:none;stroke-opacity:1"
           d="M 0,0 V -12.346" /></g></g><g
       transform="rotate(-90,444.06022,230.7636)"
       id="g130"><g
         transform="translate(4.6625)"
         id="g132"><path
           id="path134"
           style="fill:#0066a2;fill-opacity:1;fill-rule:nonzero;stroke:none"
           d="M 0,0 C -1.381,0.259 -3.626,1.036 -5.181,1.943 V -1.943 C -3.626,-1.036 -1.381,-0.259 0,0" /></g></g><g
       transform="translate(156.603,630.476)"
       id="g136"><g
         transform="translate(62.3629,48.1895)"
         id="g138"><path
           id="path140"
           style="fill:none;stroke:#0066a2;stroke-width:0.79699999;stroke-linecap:butt;stroke-linejoin:miter;stroke-miterlimit:10;stroke-dasharray:none;stroke-opacity:1"
           d="m 0,0 c 4.197,3.522 4.745,9.78 1.223,13.978 -1.885,2.246 -4.668,3.544 -6.893,3.544" /></g></g><g
       transform="rotate(180,106.64788,348.09365)"
       id="g142"><g
         transform="translate(-1.5541,2.0722)"
         id="g144"><path
           id="path146"
           style="fill:none;stroke:#0066a2;stroke-width:0.63800001;stroke-linecap:round;stroke-linejoin:round;stroke-miterlimit:10;stroke-dasharray:none;stroke-opacity:1"
           d="M 0,0 C 0.13,-0.777 1.554,-1.943 1.943,-2.072 1.554,-2.202 0.13,-3.367 0,-4.144" /></g></g><g
       transform="translate(156.603,630.476)"
       id="g148"><g
         transform="translate(113.3872,56.6936)"
         id="g150"><path
           id="path152"
           style="fill:none;stroke:#0066a2;stroke-width:0.79699999;stroke-linecap:butt;stroke-linejoin:miter;stroke-miterlimit:10;stroke-dasharray:none;stroke-opacity:1"
           d="M 0,0 H 12.346" /></g></g><g
       transform="translate(282.336,687.16963)"
       id="g154"><g
         transform="translate(4.6625)"
         id="g156"><path
           id="path158"
           style="fill:#0066a2;fill-opacity:1;fill-rule:nonzero;stroke:none"
           d="M 0,0 C -1.381,0.259 -3.626,1.036 -5.181,1.943 V -1.943 C -3.626,-1.036 -1.381,-0.259 0,0" /></g></g><g
       transform="translate(156.603,630.476)"
       id="g160"><g
         transform="translate(113.3872,56.6936)"
         id="g162"><path
           id="path164"
           style="fill:none;stroke:#0066a2;stroke-width:0.79699999;stroke-linecap:butt;stroke-linejoin:miter;stroke-miterlimit:10;stroke-dasharray:none;stroke-opacity:1"
           d="M 0,0 V -12.346" /></g></g><g
       transform="rotate(-90,472.40704,202.41679)"
       id="g166"><g
         transform="translate(4.6625)"
         id="g168"><path
           id="path170"
           style="fill:#0066a2;fill-opacity:1;fill-rule:nonzero;stroke:none"
           d="M 0,0 C -1.381,0.259 -3.626,1.036 -5.181,1.943 V -1.943 C -3.626,-1.036 -1.381,-0.259 0,0" /></g></g><g
       transform="translate(156.603,630.476)"
       id="g172"><g
         transform="translate(119.0565,48.1895)"
         id="g174"><path
           id="path176"
           style="fill:none;stroke:#0066a2;stroke-width:0.79699999;stroke-linecap:butt;stroke-linejoin:miter;stroke-miterlimit:10;stroke-dasharray:none;stroke-opacity:1"
           d="m 0,0 c 4.197,3.522 4.745,9.78 1.223,13.978 -1.885,2.246 -4.668,3.544 -6.893,3.544" /></g></g><g
       transform="rotate(180,134.99469,348.09365)"
       id="g178"><g
         transform="translate(-1.5541,2.0722)"
         id="g180"><path
           id="path182"
           style="fill:none;stroke:#0066a2;stroke-width:0.63800001;stroke-linecap:round;stroke-linejoin:round;stroke-miterlimit:10;stroke-dasharray:none;stroke-opacity:1"
           d="M 0,0 C 0.13,-0.777 1.554,-1.943 1.943,-2.072 1.554,-2.202 0.13,-3.367 0,-4.144" /></g></g><g
       transform="translate(156.603,630.476)"
       id="g184"><g
         transform="translate(113.3872)"
         id="g186"><path
           id="path188"
           style="fill:none;stroke:#0066a2;stroke-width:0.79699999;stroke-linecap:butt;stroke-linejoin:miter;stroke-miterlimit:10;stroke-dasharray:none;stroke-opacity:1"
           d="M 0,0 H 12.346" /></g></g><g
       transform="translate(282.336,630.47601)"
       id="g190"><g
         transform="translate(4.6625)"
         id="g192"><path
           id="path194"
           style="fill:#0066a2;fill-opacity:1;fill-rule:nonzero;stroke:none"
           d="M 0,0 C -1.381,0.259 -3.626,1.036 -5.181,1.943 V -1.943 C -3.626,-1.036 -1.381,-0.259 0,0" /></g></g><g
       transform="translate(156.603,630.47601)"
       id="g196"><g
         transform="translate(113.3872)"
         id="g198"><path
           id="path200"
           style="fill:none;stroke:#0066a2;stroke-width:0.79699999;stroke-linecap:butt;stroke-linejoin:miter;stroke-miterlimit:10;stroke-dasharray:none;stroke-opacity:1"
           d="M 0,0 V -12.346" /></g></g><g
       transform="rotate(-90,444.06024,174.06999)"
       id="g202"><g
         transform="translate(4.6625)"
         id="g204"><path
           id="path206"
           style="fill:#0066a2;fill-opacity:1;fill-rule:nonzero;stroke:none"
           d="M 0,0 C -1.381,0.259 -3.626,1.036 -5.181,1.943 V -1.943 C -3.626,-1.036 -1.381,-0.259 0,0" /></g></g><g
       transform="translate(156.603,630.476)"
       id="g208"><g
         transform="translate(119.0565,-8.5041)"
         id="g210"><path
           id="path212"
           style="fill:none;stroke:#0066a2;stroke-width:0.79699999;stroke-linecap:butt;stroke-linejoin:miter;stroke-miterlimit:10;stroke-dasharray:none;stroke-opacity:1"
           d="m 0,0 c 4.197,3.522 4.745,9.78 1.223,13.978 -1.885,2.246 -4.668,3.544 -6.893,3.544" /></g></g><g
       transform="rotate(180,134.99469,319.74686)"
       id="g214"><g
         transform="translate(-1.5541,2.0722)"
         id="g216"><path
           id="path218"
           style="fill:none;stroke:#0066a2;stroke-width:0.63800001;stroke-linecap:round;stroke-linejoin:round;stroke-miterlimit:10;stroke-dasharray:none;stroke-opacity:1"
           d="M 0,0 C 0.13,-0.777 1.554,-1.943 1.943,-2.072 1.554,-2.202 0.13,-3.367 0,-4.144" /></g></g></g></svg>