<?xml version="1.0" encoding="UTF-8" standalone="no"?>
<!-- Created with Inkscape (http://www.inkscape.org/) -->

<svg
   version="1.1"
   id="svg1"
   width="679.47467"
   height="185.29863"
   viewBox="0 0 679.47467 185.29863"
   sodipodi:docname="eqwork3.svg"
   inkscape:version="1.3.2 (091e20e, 2023-11-25, custom)"
   xmlns:inkscape="http://www.inkscape.org/namespaces/inkscape"
   xmlns:sodipodi="http://sodipodi.sourceforge.net/DTD/sodipodi-0.dtd"
   xmlns="http://www.w3.org/2000/svg"
   xmlns:svg="http://www.w3.org/2000/svg">
  <defs
     id="defs1" />
  <sodipodi:namedview
     id="namedview1"
     pagecolor="#ffffff"
     bordercolor="#000000"
     borderopacity="0.25"
     inkscape:showpageshadow="2"
     inkscape:pageopacity="0.0"
     inkscape:pagecheckerboard="0"
     inkscape:deskcolor="#d1d1d1"
     inkscape:zoom="1.8043351"
     inkscape:cx="339.73734"
     inkscape:cy="92.83198"
     inkscape:window-width="1920"
     inkscape:window-height="1001"
     inkscape:window-x="-9"
     inkscape:window-y="-9"
     inkscape:window-maximized="1"
     inkscape:current-layer="g1">
    <inkscape:page
       x="0"
       y="0"
       inkscape:label="1"
       id="page1"
       width="679.47467"
       height="185.29863"
       margin="0"
       bleed="0" />
  </sodipodi:namedview>
  <g
     id="g1"
     inkscape:groupmode="layer"
     inkscape:label="1">
    <path
       id="path1"
       d="M 291.801,83.414 H 427.516"
       style="fill:none;stroke:#000000;stroke-width:2.83465;stroke-linecap:butt;stroke-linejoin:miter;stroke-miterlimit:4;stroke-dasharray:none;stroke-opacity:1"
       transform="scale(1.3333333)" />
    <path
       id="path2"
       d="m 351.152,98.938 c 0,-0.219 -0.242,-0.219 -0.3,-0.219 -0.223,0 -0.243,0.019 -0.422,0.48 -1.164,2.766 -1.864,4.071 -5.051,4.071 h -2.449 c -0.621,0 -0.621,-0.063 -0.621,-0.2 0,-0.121 0.062,-0.324 0.082,-0.441 l 1.382,-5.516 h 1.743 c 1.363,0 1.504,0.325 1.504,0.864 0,0.14 -0.02,0.441 -0.18,1.023 0,0 -0.039,0.16 -0.039,0.219 0,0.242 0.199,0.242 0.32,0.242 0.219,0 0.281,-0.039 0.359,-0.402 l 1.106,-4.411 c 0.019,-0.058 0.059,-0.257 0.059,-0.257 0,-0.243 -0.243,-0.243 -0.321,-0.243 -0.262,0 -0.262,0.059 -0.383,0.481 -0.379,1.422 -0.761,1.863 -2.382,1.863 h -1.625 l 1.222,-4.93 c 0.16,-0.66 0.301,-0.683 0.961,-0.683 h 2.508 c 2.164,0 2.664,0.601 2.664,2.027 0,0.539 -0.039,0.801 -0.098,1.282 -0.019,0.101 -0.043,0.281 -0.043,0.339 0,0.243 0.223,0.243 0.301,0.243 0.281,0 0.301,-0.079 0.344,-0.442 l 0.461,-3.547 c 0.058,-0.523 -0.063,-0.523 -0.481,-0.523 h -9.363 c -0.34,0 -0.543,0 -0.543,0.363 0,0.258 0.141,0.258 0.543,0.258 1.164,0 1.164,0.164 1.164,0.344 0,0 0,0.16 -0.082,0.461 l -2.687,10.742 c -0.16,0.683 -0.278,0.844 -1.641,0.844 -0.32,0 -0.543,0 -0.543,0.378 0,0.243 0.18,0.243 0.5,0.243 h 9.602 c 0.402,0 0.422,-0.02 0.562,-0.321 l 1.785,-4.39 c 0.02,-0.039 0.078,-0.242 0.078,-0.242 z"
       style="fill:#000000;fill-opacity:1;fill-rule:nonzero;stroke:none"
       transform="scale(1.3333333)" />
    <path
       id="path3"
       d="m 357.746,103.508 c 0,-0.238 -0.16,-0.238 -0.562,-0.238 -1.243,0 -1.243,-0.141 -1.243,-0.364 0,0 0,-0.136 0.082,-0.437 l 2.704,-10.828 c 0.16,-0.641 0.281,-0.821 1.664,-0.821 0.421,0 0.621,0 0.621,-0.379 0,-0.242 -0.2,-0.242 -0.282,-0.242 -0.8,0 -1.64,0.059 -2.464,0.059 -0.821,0 -1.684,-0.059 -2.504,-0.059 -0.141,0 -0.383,0 -0.383,0.36 0,0.261 0.141,0.261 0.543,0.261 0.68,0 1.262,0 1.262,0.34 0,0.063 -0.039,0.32 -0.059,0.383 l -2.727,10.902 c -0.16,0.664 -0.339,0.825 -1.683,0.825 -0.422,0 -0.602,0 -0.602,0.359 0,0.223 0.141,0.262 0.282,0.262 0.8,0 1.64,-0.063 2.464,-0.063 0.821,0 1.684,0.063 2.485,0.063 0.14,0 0.402,0 0.402,-0.383 z"
       style="fill:#000000;fill-opacity:1;fill-rule:nonzero;stroke:none"
       transform="scale(1.3333333)" />
    <path
       id="path4"
       d="m 363.199,102.949 c 0,-0.664 -0.281,-1.183 -0.922,-1.183 -0.804,0 -1.304,0.703 -1.304,1.281 0,0.644 0.461,0.844 0.882,0.844 0.399,0 0.723,-0.223 0.821,-0.301 -0.301,1.543 -1.301,2.828 -2.242,3.629 -0.243,0.238 -0.262,0.261 -0.262,0.34 0,0.058 0.058,0.199 0.199,0.199 0.359,0 2.828,-2.426 2.828,-4.809 z"
       style="fill:#000000;fill-opacity:1;fill-rule:nonzero;stroke:none"
       transform="scale(1.3333333)" />
    <path
       id="path5"
       d="m 380.699,91.863 c 0,-0.961 -0.742,-1.543 -1.664,-1.543 -3.09,0 -3.89,5.352 -4.473,7.375 l -2.222,1.524 0.199,0.34 1.844,-1.223 c -0.321,1.105 -0.922,2.449 -0.922,3.629 0,1.223 0.723,2.144 2.004,2.144 1.664,0 2.887,-1.621 3.57,-2.964 l -0.363,-0.141 c -0.5,0.941 -1.461,2.367 -2.664,2.367 -0.781,0 -1.184,-0.601 -1.184,-1.324 0,-1.145 1.043,-3.988 1.364,-5.07 1.523,-1.024 4.511,-3.051 4.511,-5.114 z m -0.562,0.121 c 0,1.664 -2.547,3.508 -3.75,4.391 l 0.863,-2.949 c 0.262,-0.883 0.801,-2.364 1.926,-2.364 0.558,0 0.961,0.34 0.961,0.922 z"
       style="fill:#000000;fill-opacity:1;fill-rule:nonzero;stroke:none"
       transform="scale(1.3333333)" />
    <path
       id="path6"
       d="m 78.895,-422.996 h 9.043 v -9.043 h -9.043 z"
       style="fill:#ffffff;fill-opacity:1;fill-rule:nonzero;stroke:#000000;stroke-width:0.920356;stroke-linecap:butt;stroke-linejoin:miter;stroke-miterlimit:4;stroke-dasharray:none;stroke-opacity:1"
       transform="matrix(0,1.3333333,-1.3333333,0,0,0)" />
    <path
       id="path7"
       d="m 78.895,-287.281 h 9.043 v -9.043 h -9.043 z"
       style="fill:#ffffff;fill-opacity:1;fill-rule:nonzero;stroke:#000000;stroke-width:0.920356;stroke-linecap:butt;stroke-linejoin:miter;stroke-miterlimit:4;stroke-dasharray:none;stroke-opacity:1"
       transform="matrix(0,1.3333333,-1.3333333,0,0,0)" />
    <path
       id="path8"
       d="m -291.773,-119.039 v -28.453"
       style="fill:none;stroke:#00ce99;stroke-width:5.73558;stroke-linecap:butt;stroke-linejoin:miter;stroke-miterlimit:4;stroke-dasharray:none;stroke-opacity:1"
       transform="scale(-1.3333333,-1.03826)" />
    <path
       id="path9"
       d="m -140.61,291.773 5.739,-5.734 -20.076,5.734 20.076,5.735 z"
       style="fill:#00ce99;fill-opacity:1;fill-rule:evenodd;stroke:#00ce99;stroke-width:1.52949;stroke-linecap:butt;stroke-linejoin:miter;stroke-miterlimit:4;stroke-dasharray:none;stroke-opacity:1"
       transform="matrix(0,-1.03826,1.3333333,0,0,0)" />
    <path
       id="path10"
       d="m -284.727,-132.438 -7.183,-25.197 -6.996,24.911 4.312,-4.023 v 17.532 h 5.75 v -17.246 z"
       style="fill:#017188;fill-opacity:1;fill-rule:nonzero;stroke:#000000;stroke-width:0.758769;stroke-linecap:butt;stroke-linejoin:miter;stroke-miterlimit:4;stroke-dasharray:none;stroke-opacity:1"
       transform="scale(-1.3333333,-1.03826)" />
    <path
       id="path11"
       d="m 440.57,87.043 -3.754,-3.004 c 0,0 0.633,-0.867 0.711,-1.027 0.078,-0.157 0.711,-1.262 0.711,-1.262 l 0.555,-1.426 0.312,-1.972 -0.078,-1.7 -0.195,-1.976 -0.437,-1.184 -0.551,-1.105 -0.793,-1.227 -1.34,-1.461 -1.543,-1.066 -1.266,-0.832 -1.461,-0.473 -2.132,-0.277 -1.739,0.039 -2.172,0.433 -1.816,0.793 -1.699,1.184 -1.227,1.305 -0.394,0.355 3.777,2.5 -10.371,2.559 -2.559,-10.375 5.082,3.023 0.832,-1.262 1.344,-1.304 0.985,-0.832 1.425,-1.067 1.778,-0.867 0.984,-0.433 c 0,0 1.109,-0.399 1.426,-0.438 0.316,-0.039 1.656,-0.316 1.656,-0.316 l 1.305,-0.157 1.344,0.118 h 0.71 l 1.184,0.16 0.871,0.078 1.067,0.355 1.105,0.356 1.105,0.515 1.071,0.59 1.422,0.91 0.984,0.829 c 0,0 0.633,0.871 0.832,0.871 0.195,0 0.867,0.949 0.867,0.949 l 0.832,1.144 0.828,1.223 0.594,1.582 0.551,1.106 0.437,1.855 0.157,1.621 0.039,1.899 -0.156,1.066 -0.2,1.027 -0.117,0.629 -0.277,0.832 -0.117,0.789 -0.555,1.145 -0.594,1.148 -0.59,1.067 z"
       style="fill:#eb9046;fill-opacity:1;fill-rule:nonzero;stroke:#000000;stroke-width:0.587724;stroke-linecap:butt;stroke-linejoin:round;stroke-miterlimit:4;stroke-dasharray:none;stroke-opacity:0.964706"
       transform="scale(1.3333333)" />
    <path
       id="path12"
       d="m 304.855,87.043 -3.753,-3.004 c 0,0 0.632,-0.867 0.71,-1.027 0.079,-0.157 0.711,-1.262 0.711,-1.262 l 0.555,-1.426 0.313,-1.972 -0.079,-1.7 -0.195,-1.976 -0.437,-1.184 -0.551,-1.105 -0.789,-1.227 -1.344,-1.461 -1.543,-1.066 -1.262,-0.832 -1.464,-0.473 -2.133,-0.277 -1.739,0.039 -2.171,0.433 -1.817,0.793 -1.699,1.184 -1.227,1.305 -0.394,0.355 3.777,2.5 -10.371,2.559 -2.558,-10.375 5.082,3.023 0.832,-1.262 1.343,-1.304 0.985,-0.832 1.425,-1.067 1.778,-0.867 0.988,-0.433 c 0,0 1.106,-0.399 1.422,-0.438 0.316,-0.039 1.656,-0.316 1.656,-0.316 l 1.305,-0.157 1.344,0.118 h 0.711 l 1.187,0.16 0.867,0.078 1.067,0.355 1.105,0.356 1.11,0.515 1.066,0.59 1.422,0.91 0.988,0.829 c 0,0 0.629,0.871 0.828,0.871 0.199,0 0.867,0.949 0.867,0.949 l 0.832,1.144 0.829,1.223 0.593,1.582 0.555,1.106 0.434,1.855 0.156,1.621 0.039,1.899 -0.156,1.066 -0.2,1.027 -0.117,0.629 -0.277,0.832 -0.117,0.789 -0.555,1.145 -0.594,1.148 -0.59,1.067 z"
       style="fill:#00a390;fill-opacity:1;fill-rule:nonzero;stroke:#000000;stroke-width:0.587724;stroke-linecap:butt;stroke-linejoin:round;stroke-miterlimit:4;stroke-dasharray:none;stroke-opacity:0.964706"
       transform="scale(1.3333333)" />
    <path
       id="path13"
       d="m -427.488,-119.039 v -28.453"
       style="fill:none;stroke:#00ce99;stroke-width:5.73558;stroke-linecap:butt;stroke-linejoin:miter;stroke-miterlimit:4;stroke-dasharray:none;stroke-opacity:1"
       transform="scale(-1.3333333,-1.03826)" />
    <path
       id="path14"
       d="m -140.61,427.488 5.739,-5.734 -20.076,5.734 20.076,5.735 z"
       style="fill:#00ce99;fill-opacity:1;fill-rule:evenodd;stroke:#00ce99;stroke-width:1.52949;stroke-linecap:butt;stroke-linejoin:miter;stroke-miterlimit:4;stroke-dasharray:none;stroke-opacity:1"
       transform="matrix(0,-1.03826,1.3333333,0,0,0)" />
    <path
       id="path15"
       d="m -420.441,-132.438 -7.184,-25.197 -6.996,24.911 4.312,-4.023 v 17.532 h 5.75 v -17.246 z"
       style="fill:#c3312f;fill-opacity:1;fill-rule:nonzero;stroke:#000000;stroke-width:0.758769;stroke-linecap:butt;stroke-linejoin:miter;stroke-miterlimit:4;stroke-dasharray:none;stroke-opacity:1"
       transform="scale(-1.3333333,-1.03826)" />
    <path
       id="path16"
       d="m -1.851,265.176 c -2.092,-10.662 3.516,-21.343 13.478,-25.678 9.966,-4.333 21.606,-1.152 27.977,7.653"
       style="fill:none;stroke:#00a390;stroke-width:3.26576;stroke-linecap:butt;stroke-linejoin:miter;stroke-miterlimit:4;stroke-dasharray:none;stroke-opacity:1"
       transform="matrix(-0.35726533,1.3333333,1.3333333,0.35726533,0,0)" />
    <path
       id="path17"
       d="m 238.594,109.598 1.711,-9.946 c -11.657,8.235 0,0 -11.657,8.235 z"
       style="fill:#00a390;fill-opacity:1;fill-rule:nonzero;stroke:none"
       transform="scale(1.3333333)" />
    <path
       id="path18"
       d="m 256.129,82.141 v 22.675"
       style="fill:none;stroke:#017188;stroke-width:2.55118;stroke-linecap:butt;stroke-linejoin:miter;stroke-miterlimit:3.9;stroke-dasharray:none;stroke-opacity:1"
       transform="scale(1.3333333)" />
    <path
       id="path19"
       d="m 256.129,104.816 -6.379,-6.375 6.379,22.321 6.379,-22.321 z"
       style="fill:#017188;fill-opacity:1;fill-rule:evenodd;stroke:none"
       transform="scale(1.3333333)" />
    <path
       id="path20"
       d="m 269.059,125.402 0.461,-3.547 c 0.058,-0.523 -0.059,-0.523 -0.481,-0.523 h -9.121 c -0.34,0 -0.543,0 -0.543,0.363 0,0.258 0.141,0.258 0.543,0.258 1.164,0 1.164,0.164 1.164,0.344 0,0 0,0.16 -0.082,0.461 l -2.688,10.742 c -0.16,0.684 -0.277,0.844 -1.64,0.844 -0.32,0 -0.543,0 -0.543,0.379 0,0.242 0.223,0.242 0.281,0.242 0.801,0 1.645,-0.059 2.445,-0.059 0.922,0 1.864,0.059 2.766,0.059 0.18,0 0.422,0 0.422,-0.383 0,-0.238 -0.18,-0.238 -0.5,-0.238 h -0.203 c -1.461,0 -1.461,-0.16 -1.461,-0.422 0,-0.078 0,-0.121 0.078,-0.422 l 1.266,-5.051 h 1.66 c 1.305,0 1.484,0.301 1.484,0.844 0,0.34 -0.078,0.66 -0.16,0.98 -0.039,0.141 -0.059,0.223 -0.059,0.282 0,0.242 0.219,0.242 0.301,0.242 0.219,0 0.281,-0.02 0.379,-0.402 l 1.106,-4.411 c 0.019,-0.082 0.039,-0.179 0.039,-0.281 0,-0.219 -0.243,-0.219 -0.301,-0.219 -0.262,0 -0.281,0.059 -0.383,0.418 -0.359,1.426 -0.68,1.926 -2.344,1.926 h -1.562 l 1.281,-5.191 c 0.16,-0.66 0.301,-0.684 0.961,-0.684 h 2.348 c 2.144,0 2.586,0.625 2.586,2.008 0,0.48 -0.063,0.859 -0.121,1.32 l -0.02,0.321 c 0,0.242 0.219,0.242 0.301,0.242 0.281,0 0.301,-0.078 0.34,-0.442 z"
       style="fill:#000000;fill-opacity:1;fill-rule:nonzero;stroke:none"
       transform="scale(1.3333333)" />
    <path
       id="path21"
       d="m 274.074,125.59 c 0,-0.063 -0.105,-0.207 -0.207,-0.207 -0.055,0 -0.066,0.015 -0.172,0.144 -0.965,1.223 -2.121,1.278 -2.343,1.278 -0.848,0 -0.993,-0.926 -0.993,-1.434 0,-0.496 0.133,-1.082 0.223,-1.433 h 0.508 c 0.39,0 1.265,-0.04 1.89,-0.29 1.028,-0.414 1.028,-1.261 1.028,-1.351 0,-0.602 -0.481,-1.109 -1.317,-1.109 -1.367,0 -3.23,1.316 -3.23,3.621 0,1.175 0.625,2.281 1.863,2.281 1.668,0 2.75,-1.305 2.75,-1.5 z m -0.558,-3.32 c 0,1.378 -2.153,1.378 -2.582,1.378 h -0.274 c 0.563,-2.136 1.902,-2.175 2.031,-2.175 0.524,0 0.825,0.351 0.825,0.797 z"
       style="fill:#000000;fill-opacity:1;fill-rule:nonzero;stroke:none"
       transform="scale(1.3333333)" />
    <path
       id="path22"
       d="m 278.895,129.227 c 0,-0.157 -0.129,-0.157 -0.313,-0.157 -0.664,0 -0.664,-0.078 -0.664,-0.207 0,-0.093 0.027,-0.156 0.039,-0.234 l 1.785,-7.117 c 0.016,-0.039 0.039,-0.168 0.039,-0.168 0,-0.117 -0.105,-0.145 -0.144,-0.145 -0.141,0 -0.61,0.457 -0.821,0.821 -0.156,-0.375 -0.496,-0.832 -1.121,-0.832 -1.445,0 -2.984,1.98 -2.984,3.882 0,1.106 0.601,2.02 1.578,2.02 0.535,0 1.016,-0.34 1.383,-0.692 -0.262,1.016 -0.25,1.016 -0.508,2.047 -0.144,0.559 -0.16,0.614 -0.992,0.625 -0.168,0 -0.313,0 -0.313,0.246 0,0.118 0.079,0.157 0.168,0.157 0.418,0 0.875,-0.039 1.305,-0.039 0.43,0 0.898,0.039 1.316,0.039 0.079,0 0.247,0 0.247,-0.246 z m -0.965,-3.872 c -0.102,0.407 -0.899,1.45 -1.614,1.45 -0.613,0 -0.718,-0.77 -0.718,-1.16 0,-0.653 0.406,-2.176 0.64,-2.723 0.324,-0.797 0.926,-1.449 1.457,-1.449 0.106,0 0.407,0.015 0.641,0.379 0.129,0.207 0.258,0.586 0.258,0.836 0,0.039 -0.012,0.089 -0.039,0.167 z"
       style="fill:#000000;fill-opacity:1;fill-rule:nonzero;stroke:none"
       transform="scale(1.3333333)" />
    <path
       id="path23"
       d="m 272.227,138.973 h 3.636 v -0.196 h -0.211 c -0.636,0 -0.91,-0.129 -0.91,-0.414 0,-0.222 0.207,-0.808 0.235,-0.965 l 1.863,-6.761 c 0.051,-0.199 0.078,-0.313 0.078,-0.379 0,-0.055 -0.027,-0.094 -0.066,-0.094 l -2.239,0.445 c -0.027,0 -0.133,0.024 -0.273,0.051 v 0.195 l 0.742,-0.023 c 0.012,0 0.023,0 0.023,0 0.29,0 0.469,0.168 0.469,0.402 0,0.078 -0.023,0.211 -0.09,0.446 l -1.796,6.41 c -0.133,0.48 -0.43,0.609 -1.461,0.703 z"
       style="fill:#000000;fill-opacity:1;fill-rule:nonzero;stroke:none"
       transform="scale(1.3333333)" />
    <path
       id="path24"
       d="m 227.152,62.371 0.598,-3.59 c 0.023,-0.078 0.023,-0.179 0.023,-0.261 0,-0.239 -0.183,-0.239 -0.503,-0.239 h -10.282 c -0.402,0 -0.461,0 -0.582,0.36 l -1.183,3.589 c -0.102,0.258 -0.102,0.34 -0.102,0.34 0,0.219 0.242,0.219 0.301,0.219 0.082,0 0.16,0 0.223,-0.059 0.039,-0.039 0.058,-0.058 0.261,-0.582 0.942,-2.824 1.5,-3.246 4.086,-3.246 h 0.684 c 0.461,0 0.461,0.078 0.461,0.219 0,0.141 -0.039,0.32 -0.082,0.441 l -2.684,10.766 c -0.18,0.703 -0.363,0.902 -2.125,0.902 h -0.32 c -0.344,0 -0.563,0 -0.563,0.379 0,0.243 0.242,0.243 0.34,0.243 1.024,0 2.086,-0.059 3.109,-0.059 1.04,0 2.126,0.059 3.145,0.059 0.18,0 0.422,0 0.422,-0.403 0,-0.219 -0.199,-0.219 -0.5,-0.219 h -0.301 c -0.32,0 -0.941,-0.039 -1.004,-0.039 -0.558,-0.062 -0.66,-0.14 -0.66,-0.421 0,-0.059 0,-0.102 0.078,-0.383 l 2.688,-10.782 c 0.14,-0.601 0.3,-0.644 0.461,-0.664 0.16,-0.039 0.703,-0.039 1.043,-0.039 2.086,0 2.546,0.282 2.546,1.524 0,0.242 0,0.621 -0.203,1.804 -0.039,0.219 -0.039,0.301 -0.039,0.301 0,0.262 0.2,0.262 0.301,0.262 0.262,0 0.301,-0.063 0.359,-0.422 z"
       style="fill:#000000;fill-opacity:1;fill-rule:nonzero;stroke:none"
       transform="scale(1.3333333)" />
    <path
       id="path25"
       d="m 232.066,62.477 c 0,-0.063 -0.105,-0.207 -0.207,-0.207 -0.054,0 -0.066,0.015 -0.171,0.144 -0.965,1.223 -2.126,1.277 -2.344,1.277 -0.848,0 -0.992,-0.925 -0.992,-1.433 0,-0.496 0.132,-1.082 0.222,-1.434 h 0.508 c 0.391,0 1.266,-0.039 1.891,-0.289 C 232,60.121 232,59.273 232,59.184 c 0,-0.602 -0.48,-1.11 -1.316,-1.11 -1.368,0 -3.231,1.317 -3.231,3.621 0,1.176 0.625,2.282 1.863,2.282 1.668,0 2.75,-1.305 2.75,-1.5 z m -0.562,-3.321 c 0,1.379 -2.149,1.379 -2.578,1.379 h -0.274 c 0.559,-2.137 1.903,-2.176 2.032,-2.176 0.523,0 0.82,0.352 0.82,0.797 z"
       style="fill:#000000;fill-opacity:1;fill-rule:nonzero;stroke:none"
       transform="scale(1.3333333)" />
    <path
       id="path26"
       d="m 236.887,66.113 c 0,-0.156 -0.129,-0.156 -0.313,-0.156 -0.664,0 -0.664,-0.078 -0.664,-0.207 0,-0.094 0.024,-0.156 0.039,-0.234 l 1.785,-7.118 c 0.012,-0.039 0.039,-0.168 0.039,-0.168 0,-0.117 -0.105,-0.144 -0.144,-0.144 -0.145,0 -0.613,0.457 -0.82,0.82 -0.157,-0.375 -0.497,-0.832 -1.121,-0.832 -1.446,0 -2.985,1.981 -2.985,3.883 0,1.105 0.602,2.02 1.578,2.02 0.535,0 1.016,-0.34 1.379,-0.692 -0.258,1.016 -0.246,1.016 -0.508,2.047 -0.14,0.559 -0.156,0.613 -0.988,0.625 -0.172,0 -0.312,0 -0.312,0.246 0,0.117 0.078,0.156 0.168,0.156 0.418,0 0.875,-0.039 1.304,-0.039 0.43,0 0.899,0.039 1.317,0.039 0.078,0 0.246,0 0.246,-0.246 z m -0.965,-3.871 c -0.106,0.406 -0.899,1.449 -1.613,1.449 -0.614,0 -0.719,-0.769 -0.719,-1.16 0,-0.652 0.406,-2.176 0.64,-2.722 0.325,-0.797 0.922,-1.45 1.458,-1.45 0.105,0 0.406,0.016 0.64,0.379 0.129,0.207 0.258,0.586 0.258,0.836 0,0.039 -0.012,0.09 -0.039,0.168 z"
       style="fill:#000000;fill-opacity:1;fill-rule:nonzero;stroke:none"
       transform="scale(1.3333333)" />
    <path
       id="path27"
       d="m 230.219,75.859 h 3.636 v -0.195 h -0.21 c -0.637,0 -0.911,-0.129 -0.911,-0.414 0,-0.223 0.207,-0.809 0.235,-0.965 l 1.863,-6.762 c 0.051,-0.195 0.078,-0.312 0.078,-0.378 0,-0.055 -0.027,-0.094 -0.066,-0.094 l -2.242,0.445 c -0.024,0 -0.129,0.024 -0.274,0.051 v 0.195 l 0.746,-0.023 c 0.012,0 0.024,0 0.024,0 0.285,0 0.468,0.168 0.468,0.402 0,0.078 -0.023,0.211 -0.089,0.445 l -1.801,6.411 c -0.129,0.48 -0.43,0.609 -1.457,0.703 z"
       style="fill:#000000;fill-opacity:1;fill-rule:nonzero;stroke:none"
       transform="scale(1.3333333)" />
    <path
       id="path28"
       d="m -291.543,-183.129 c -1.531,-7.805 2.572,-15.623 9.867,-18.797 7.293,-3.172 15.815,-0.842 20.477,5.602"
       style="fill:none;stroke:#eb9046;stroke-width:2.39071;stroke-linecap:butt;stroke-linejoin:miter;stroke-miterlimit:4;stroke-dasharray:none;stroke-opacity:1"
       transform="matrix(-1.3333333,-1.3333333,-1.3333333,1.3333333,0,0)" />
    <path
       id="path29"
       d="m 453.227,64.77 7.757,6.453 c -1.304,-14.211 0,0 -1.304,-14.211 z"
       style="fill:#eb9046;fill-opacity:1;fill-rule:nonzero;stroke:none"
       transform="scale(1.3333333)" />
    <path
       id="path30"
       d="m 461.309,82.141 v 22.675"
       style="fill:none;stroke:#c3312f;stroke-width:2.55118;stroke-linecap:butt;stroke-linejoin:miter;stroke-miterlimit:3.9;stroke-dasharray:none;stroke-opacity:1"
       transform="scale(1.3333333)" />
    <path
       id="path31"
       d="m 461.309,104.816 -6.379,-6.375 6.379,22.321 6.379,-22.321 z"
       style="fill:#c3312f;fill-opacity:1;fill-rule:evenodd;stroke:none"
       transform="scale(1.3333333)" />
    <path
       id="path32"
       d="m 474.238,125.402 0.461,-3.547 c 0.059,-0.523 -0.058,-0.523 -0.48,-0.523 h -9.121 c -0.34,0 -0.543,0 -0.543,0.363 0,0.258 0.14,0.258 0.543,0.258 1.16,0 1.16,0.164 1.16,0.344 0,0 0,0.16 -0.078,0.461 l -2.688,10.742 c -0.16,0.684 -0.281,0.844 -1.644,0.844 -0.321,0 -0.539,0 -0.539,0.379 0,0.242 0.218,0.242 0.281,0.242 0.801,0 1.644,-0.059 2.445,-0.059 0.922,0 1.863,0.059 2.766,0.059 0.179,0 0.422,0 0.422,-0.383 0,-0.238 -0.18,-0.238 -0.504,-0.238 h -0.199 c -1.461,0 -1.461,-0.16 -1.461,-0.422 0,-0.078 0,-0.121 0.078,-0.422 l 1.261,-5.051 h 1.664 c 1.305,0 1.485,0.301 1.485,0.844 0,0.34 -0.078,0.66 -0.16,0.98 -0.039,0.141 -0.059,0.223 -0.059,0.282 0,0.242 0.219,0.242 0.301,0.242 0.219,0 0.277,-0.02 0.379,-0.402 l 1.101,-4.411 c 0.02,-0.082 0.043,-0.179 0.043,-0.281 0,-0.219 -0.242,-0.219 -0.3,-0.219 -0.262,0 -0.282,0.059 -0.383,0.418 -0.36,1.426 -0.68,1.926 -2.344,1.926 h -1.566 l 1.285,-5.191 c 0.16,-0.66 0.301,-0.684 0.961,-0.684 h 2.347 c 2.145,0 2.586,0.625 2.586,2.008 0,0.48 -0.062,0.859 -0.121,1.32 l -0.019,0.321 c 0,0.242 0.218,0.242 0.3,0.242 0.282,0 0.301,-0.078 0.34,-0.442 z"
       style="fill:#000000;fill-opacity:1;fill-rule:nonzero;stroke:none"
       transform="scale(1.3333333)" />
    <path
       id="path33"
       d="m 479.254,125.59 c 0,-0.063 -0.106,-0.207 -0.211,-0.207 -0.051,0 -0.063,0.015 -0.168,0.144 -0.965,1.223 -2.125,1.278 -2.344,1.278 -0.847,0 -0.992,-0.926 -0.992,-1.434 0,-0.496 0.133,-1.082 0.223,-1.433 h 0.508 c 0.39,0 1.261,-0.04 1.89,-0.29 1.028,-0.414 1.028,-1.261 1.028,-1.351 0,-0.602 -0.481,-1.109 -1.317,-1.109 -1.367,0 -3.23,1.316 -3.23,3.621 0,1.175 0.625,2.281 1.863,2.281 1.668,0 2.75,-1.305 2.75,-1.5 z m -0.563,-3.32 c 0,1.378 -2.148,1.378 -2.578,1.378 h -0.273 c 0.558,-2.136 1.902,-2.175 2.031,-2.175 0.524,0 0.82,0.351 0.82,0.797 z"
       style="fill:#000000;fill-opacity:1;fill-rule:nonzero;stroke:none"
       transform="scale(1.3333333)" />
    <path
       id="path34"
       d="m 484.074,129.227 c 0,-0.157 -0.129,-0.157 -0.312,-0.157 -0.664,0 -0.664,-0.078 -0.664,-0.207 0,-0.093 0.023,-0.156 0.039,-0.234 l 1.785,-7.117 c 0.016,-0.039 0.039,-0.168 0.039,-0.168 0,-0.117 -0.106,-0.145 -0.145,-0.145 -0.144,0 -0.613,0.457 -0.82,0.821 -0.156,-0.375 -0.496,-0.832 -1.121,-0.832 -1.445,0 -2.984,1.98 -2.984,3.882 0,1.106 0.601,2.02 1.578,2.02 0.535,0 1.015,-0.34 1.379,-0.692 -0.258,1.016 -0.246,1.016 -0.508,2.047 -0.141,0.559 -0.156,0.614 -0.988,0.625 -0.168,0 -0.313,0 -0.313,0.246 0,0.118 0.078,0.157 0.168,0.157 0.418,0 0.875,-0.039 1.305,-0.039 0.429,0 0.898,0.039 1.316,0.039 0.078,0 0.246,0 0.246,-0.246 z m -0.965,-3.872 c -0.101,0.407 -0.898,1.45 -1.613,1.45 -0.613,0 -0.719,-0.77 -0.719,-1.16 0,-0.653 0.407,-2.176 0.641,-2.723 0.324,-0.797 0.922,-1.449 1.457,-1.449 0.105,0 0.406,0.015 0.641,0.379 0.129,0.207 0.257,0.586 0.257,0.836 0,0.039 -0.011,0.089 -0.039,0.167 z"
       style="fill:#000000;fill-opacity:1;fill-rule:nonzero;stroke:none"
       transform="scale(1.3333333)" />
    <path
       id="path35"
       d="m 479.992,132.25 0.274,0.094 c 0.484,-0.848 1.043,-1.227 1.824,-1.227 0.926,0 1.629,0.676 1.629,1.59 0,0.625 -0.336,1.5 -1.875,3.125 l -2.739,2.922 v 0.219 h 4.629 l 0.649,-1.719 -0.219,-0.09 c -0.312,0.648 -0.586,0.82 -1.293,0.82 h -2.473 v -0.066 l 2.5,-2.5 c 1.524,-1.527 1.942,-2.176 1.942,-3.039 0,-1.25 -0.926,-2.215 -2.11,-2.215 -1.031,0 -2.085,0.469 -2.738,2.086 z"
       style="fill:#000000;fill-opacity:1;fill-rule:nonzero;stroke:none"
       transform="scale(1.3333333)" />
    <path
       id="path36"
       d="m 498.984,62.371 0.602,-3.59 c 0.019,-0.078 0.019,-0.179 0.019,-0.261 0,-0.239 -0.179,-0.239 -0.5,-0.239 H 488.82 c -0.402,0 -0.461,0 -0.582,0.36 l -1.183,3.589 c -0.098,0.258 -0.098,0.34 -0.098,0.34 0,0.219 0.238,0.219 0.301,0.219 0.078,0 0.16,0 0.219,-0.059 0.039,-0.039 0.062,-0.058 0.261,-0.582 0.942,-2.824 1.504,-3.246 4.09,-3.246 h 0.68 c 0.461,0 0.461,0.078 0.461,0.219 0,0.141 -0.039,0.32 -0.078,0.441 l -2.688,10.766 c -0.18,0.703 -0.359,0.902 -2.125,0.902 h -0.32 c -0.34,0 -0.563,0 -0.563,0.379 0,0.243 0.243,0.243 0.34,0.243 1.024,0 2.086,-0.059 3.11,-0.059 1.043,0 2.125,0.059 3.148,0.059 0.18,0 0.418,0 0.418,-0.403 0,-0.219 -0.199,-0.219 -0.5,-0.219 h -0.301 c -0.32,0 -0.941,-0.039 -1.004,-0.039 -0.558,-0.062 -0.66,-0.14 -0.66,-0.421 0,-0.059 0,-0.102 0.082,-0.383 l 2.684,-10.782 c 0.14,-0.601 0.3,-0.644 0.461,-0.664 0.16,-0.039 0.703,-0.039 1.043,-0.039 2.086,0 2.546,0.282 2.546,1.524 0,0.242 0,0.621 -0.199,1.804 -0.043,0.219 -0.043,0.301 -0.043,0.301 0,0.262 0.203,0.262 0.301,0.262 0.262,0 0.301,-0.063 0.363,-0.422 z"
       style="fill:#000000;fill-opacity:1;fill-rule:nonzero;stroke:none"
       transform="scale(1.3333333)" />
    <path
       id="path37"
       d="m 503.898,62.477 c 0,-0.063 -0.105,-0.207 -0.207,-0.207 -0.054,0 -0.066,0.015 -0.171,0.144 -0.965,1.223 -2.122,1.277 -2.344,1.277 -0.848,0 -0.992,-0.925 -0.992,-1.433 0,-0.496 0.132,-1.082 0.222,-1.434 h 0.508 c 0.391,0 1.266,-0.039 1.891,-0.289 1.027,-0.414 1.027,-1.262 1.027,-1.351 0,-0.602 -0.48,-1.11 -1.316,-1.11 -1.368,0 -3.231,1.317 -3.231,3.621 0,1.176 0.625,2.282 1.863,2.282 1.668,0 2.75,-1.305 2.75,-1.5 z m -0.558,-3.321 c 0,1.379 -2.152,1.379 -2.582,1.379 h -0.274 c 0.563,-2.137 1.903,-2.176 2.036,-2.176 0.519,0 0.82,0.352 0.82,0.797 z"
       style="fill:#000000;fill-opacity:1;fill-rule:nonzero;stroke:none"
       transform="scale(1.3333333)" />
    <path
       id="path38"
       d="m 508.719,66.113 c 0,-0.156 -0.129,-0.156 -0.313,-0.156 -0.664,0 -0.664,-0.078 -0.664,-0.207 0,-0.094 0.028,-0.156 0.039,-0.234 l 1.785,-7.118 c 0.016,-0.039 0.039,-0.168 0.039,-0.168 0,-0.117 -0.105,-0.144 -0.144,-0.144 -0.141,0 -0.609,0.457 -0.82,0.82 -0.157,-0.375 -0.493,-0.832 -1.121,-0.832 -1.446,0 -2.981,1.981 -2.981,3.883 0,1.105 0.598,2.02 1.574,2.02 0.535,0 1.016,-0.34 1.383,-0.692 -0.262,1.016 -0.25,1.016 -0.508,2.047 -0.144,0.559 -0.156,0.613 -0.992,0.625 -0.168,0 -0.312,0 -0.312,0.246 0,0.117 0.078,0.156 0.168,0.156 0.418,0 0.875,-0.039 1.304,-0.039 0.43,0 0.899,0.039 1.317,0.039 0.078,0 0.246,0 0.246,-0.246 z m -0.965,-3.871 c -0.102,0.406 -0.899,1.449 -1.613,1.449 -0.614,0 -0.719,-0.769 -0.719,-1.16 0,-0.652 0.406,-2.176 0.64,-2.722 0.325,-0.797 0.926,-1.45 1.458,-1.45 0.105,0 0.406,0.016 0.64,0.379 0.129,0.207 0.262,0.586 0.262,0.836 0,0.039 -0.016,0.09 -0.039,0.168 z"
       style="fill:#000000;fill-opacity:1;fill-rule:nonzero;stroke:none"
       transform="scale(1.3333333)" />
    <path
       id="path39"
       d="m 503.164,69.137 0.274,0.093 c 0.484,-0.847 1.042,-1.226 1.824,-1.226 0.926,0 1.629,0.676 1.629,1.59 0,0.625 -0.34,1.5 -1.875,3.125 l -2.739,2.922 v 0.218 h 4.625 l 0.653,-1.718 -0.219,-0.09 c -0.313,0.648 -0.59,0.82 -1.293,0.82 h -2.473 v -0.066 l 2.5,-2.5 c 1.524,-1.528 1.942,-2.176 1.942,-3.039 0,-1.25 -0.926,-2.215 -2.11,-2.215 -1.031,0 -2.086,0.469 -2.738,2.086 z"
       style="fill:#000000;fill-opacity:1;fill-rule:nonzero;stroke:none"
       transform="scale(1.3333333)" />
    <path
       id="path40"
       d="m 295.621,126.109 c 0,-0.699 -0.238,-1.324 -0.82,-1.324 -0.461,0 -0.961,0.461 -0.961,0.922 0,0.262 0.14,0.402 0.258,0.543 0.484,0.52 0.543,1.164 0.543,1.582 0,0.805 -0.641,2.91 -0.981,3.73 -0.441,1.043 -1.086,1.864 -2.008,1.864 -1,0 -1.32,-0.821 -1.32,-1.664 0,-0.18 0.02,-0.66 0.238,-1.543 l 0.844,-3.367 c 0.121,-0.442 0.32,-1.243 0.32,-1.325 0,-0.218 -0.16,-0.519 -0.562,-0.519 -0.582,0 -0.723,0.539 -0.762,0.699 l -1.14,4.574 c -0.141,0.559 -0.161,0.981 -0.161,1.262 0,0.219 -0.621,1.883 -1.683,1.883 -1.406,0 -1.406,-1.485 -1.406,-1.742 0,-1.082 0.523,-2.567 1.144,-4.211 0.141,-0.379 0.238,-0.68 0.238,-1.063 0,-1 -0.66,-1.625 -1.523,-1.625 -1.863,0 -2.563,2.969 -2.563,3.09 0,0.199 0.2,0.199 0.301,0.199 0.258,0 0.278,-0.039 0.36,-0.32 0.16,-0.621 0.703,-2.527 1.863,-2.527 0.222,0 0.441,0.062 0.441,0.582 0,0.48 -0.199,1.023 -0.48,1.804 -1.004,2.727 -1.004,3.246 -1.004,3.789 0,0.68 0.16,1.364 0.683,1.844 0.641,0.563 1.543,0.621 1.883,0.621 0.641,0 1.344,-0.262 1.946,-1.281 0.3,0.742 1.101,1.281 2.285,1.281 1.203,0 2.043,-0.82 2.644,-2.246 0.602,-1.363 1.383,-4.449 1.383,-5.512 z"
       style="fill:#000000;fill-opacity:1;fill-rule:nonzero;stroke:none"
       transform="scale(1.3333333)" />
    <path
       id="path41"
       d="m 295.602,137.656 h 3.632 v -0.195 h -0.207 c -0.64,0 -0.914,-0.129 -0.914,-0.418 0,-0.219 0.211,-0.809 0.235,-0.965 l 1.863,-6.762 c 0.055,-0.195 0.078,-0.312 0.078,-0.375 0,-0.054 -0.023,-0.093 -0.062,-0.093 l -2.243,0.445 c -0.027,0 -0.129,0.023 -0.273,0.051 v 0.195 l 0.742,-0.027 c 0.016,0 0.027,0 0.027,0 0.286,0 0.469,0.172 0.469,0.406 0,0.078 -0.027,0.207 -0.094,0.441 l -1.796,6.411 c -0.129,0.484 -0.43,0.613 -1.461,0.703 z"
       style="fill:#000000;fill-opacity:1;fill-rule:nonzero;stroke:none"
       transform="scale(1.3333333)" />
    <path
       id="path42"
       d="m 292.211,55.516 c 3.25,0 5.996,-3.125 5.996,-6.657 0,-1.582 -0.844,-2.402 -2.285,-2.402 -2.266,0 -3.469,2.586 -4.192,5.231 0,0 -0.66,2.484 -0.921,3.367 -1.223,0 -2.305,-0.743 -2.305,-2.407 0,-1.48 0.66,-5.73 3.086,-5.73 0.504,0 0.762,0.238 1.043,0.859 l 0.34,-0.32 c -0.141,-0.559 -0.461,-1 -1.5,-1 -2.727,0 -4.653,3.188 -4.653,5.391 0,2.445 2.106,3.668 3.868,3.668 l -1.04,3.89 h 1.5 z m 5.414,-6.614 c 0,3.348 -2.668,6.153 -5.273,6.153 l 1.445,-5.332 c 0.32,-1.282 0.723,-2.805 2.265,-2.805 1.083,0 1.563,0.922 1.563,1.984 z"
       style="fill:#000000;fill-opacity:1;fill-rule:nonzero;stroke:none"
       transform="scale(1.3333333)" />
    <path
       id="path43"
       d="m 299.586,59.305 h 3.637 v -0.196 h -0.211 c -0.637,0 -0.91,-0.129 -0.91,-0.418 0,-0.218 0.207,-0.804 0.234,-0.964 l 1.863,-6.762 c 0.051,-0.195 0.078,-0.313 0.078,-0.375 0,-0.055 -0.027,-0.094 -0.066,-0.094 l -2.242,0.445 c -0.024,0 -0.129,0.024 -0.274,0.051 v 0.196 l 0.746,-0.028 c 0.012,0 0.024,0 0.024,0 0.285,0 0.469,0.172 0.469,0.406 0,0.079 -0.024,0.207 -0.09,0.442 l -1.801,6.41 c -0.129,0.484 -0.43,0.613 -1.457,0.707 z"
       style="fill:#000000;fill-opacity:1;fill-rule:nonzero;stroke:none"
       transform="scale(1.3333333)" />
    <path
       id="path44"
       d="m 431.625,126.109 c 0,-0.699 -0.242,-1.324 -0.824,-1.324 -0.461,0 -0.961,0.461 -0.961,0.922 0,0.262 0.14,0.402 0.258,0.543 0.484,0.52 0.543,1.164 0.543,1.582 0,0.805 -0.641,2.91 -0.981,3.73 -0.441,1.043 -1.086,1.864 -2.008,1.864 -1,0 -1.32,-0.821 -1.32,-1.664 0,-0.18 0.02,-0.66 0.238,-1.543 l 0.844,-3.367 c 0.121,-0.442 0.32,-1.243 0.32,-1.325 0,-0.218 -0.16,-0.519 -0.562,-0.519 -0.582,0 -0.719,0.539 -0.762,0.699 l -1.14,4.574 c -0.141,0.559 -0.161,0.981 -0.161,1.262 0,0.219 -0.621,1.883 -1.683,1.883 -1.406,0 -1.406,-1.485 -1.406,-1.742 0,-1.082 0.523,-2.567 1.144,-4.211 0.141,-0.379 0.238,-0.68 0.238,-1.063 0,-1 -0.66,-1.625 -1.523,-1.625 -1.863,0 -2.563,2.969 -2.563,3.09 0,0.199 0.2,0.199 0.301,0.199 0.258,0 0.278,-0.039 0.36,-0.32 0.16,-0.621 0.703,-2.527 1.863,-2.527 0.222,0 0.441,0.062 0.441,0.582 0,0.48 -0.199,1.023 -0.48,1.804 -1.004,2.727 -1.004,3.246 -1.004,3.789 0,0.68 0.16,1.364 0.683,1.844 0.641,0.563 1.543,0.621 1.883,0.621 0.641,0 1.344,-0.262 1.946,-1.281 0.3,0.742 1.101,1.281 2.285,1.281 1.203,0 2.043,-0.82 2.644,-2.246 0.602,-1.363 1.387,-4.449 1.387,-5.512 z"
       style="fill:#000000;fill-opacity:1;fill-rule:nonzero;stroke:none"
       transform="scale(1.3333333)" />
    <path
       id="path45"
       d="m 432.004,130.934 0.273,0.089 c 0.481,-0.847 1.043,-1.222 1.825,-1.222 0.925,0 1.628,0.676 1.628,1.59 0,0.625 -0.339,1.496 -1.875,3.125 l -2.738,2.918 v 0.222 h 4.625 l 0.653,-1.718 -0.223,-0.094 c -0.313,0.652 -0.586,0.82 -1.289,0.82 h -2.477 v -0.062 l 2.504,-2.504 c 1.524,-1.524 1.942,-2.176 1.942,-3.036 0,-1.25 -0.926,-2.214 -2.114,-2.214 -1.027,0 -2.082,0.468 -2.734,2.086 z"
       style="fill:#000000;fill-opacity:1;fill-rule:nonzero;stroke:none"
       transform="scale(1.3333333)" />
    <path
       id="path46"
       d="m 428.883,55.516 c 3.246,0 5.996,-3.125 5.996,-6.657 0,-1.582 -0.844,-2.402 -2.285,-2.402 -2.266,0 -3.469,2.586 -4.192,5.231 0,0 -0.66,2.484 -0.922,3.367 -1.222,0 -2.304,-0.743 -2.304,-2.407 0,-1.48 0.66,-5.73 3.086,-5.73 0.5,0 0.761,0.238 1.043,0.859 l 0.34,-0.32 c -0.141,-0.559 -0.461,-1 -1.504,-1 -2.727,0 -4.649,3.188 -4.649,5.391 0,2.445 2.106,3.668 3.867,3.668 l -1.043,3.89 h 1.504 z m 5.414,-6.614 c 0,3.348 -2.668,6.153 -5.274,6.153 l 1.446,-5.332 c 0.32,-1.282 0.719,-2.805 2.261,-2.805 1.086,0 1.567,0.922 1.567,1.984 z"
       style="fill:#000000;fill-opacity:1;fill-rule:nonzero;stroke:none"
       transform="scale(1.3333333)" />
    <path
       id="path47"
       d="m 436.66,52.582 0.274,0.09 c 0.484,-0.848 1.043,-1.223 1.824,-1.223 0.926,0 1.629,0.676 1.629,1.59 0,0.625 -0.336,1.496 -1.875,3.125 l -2.739,2.918 v 0.223 h 4.629 l 0.649,-1.719 -0.219,-0.094 c -0.312,0.653 -0.586,0.824 -1.293,0.824 h -2.473 V 58.25 l 2.5,-2.504 c 1.524,-1.523 1.942,-2.176 1.942,-3.035 0,-1.25 -0.926,-2.215 -2.11,-2.215 -1.031,0 -2.086,0.469 -2.738,2.086 z"
       style="fill:#000000;fill-opacity:1;fill-rule:nonzero;stroke:none"
       transform="scale(1.3333333)" />
    <path
       id="path48"
       d="M 16.703,83.414 H 152.418"
       style="fill:none;stroke:#000000;stroke-width:2.83465;stroke-linecap:butt;stroke-linejoin:miter;stroke-miterlimit:4;stroke-dasharray:none;stroke-opacity:1"
       transform="scale(1.3333333)" />
    <path
       id="path49"
       d="m 76.051,98.938 c 0,-0.219 -0.242,-0.219 -0.301,-0.219 -0.219,0 -0.242,0.019 -0.422,0.48 -1.16,2.766 -1.863,4.071 -5.051,4.071 h -2.445 c -0.621,0 -0.621,-0.063 -0.621,-0.204 0,-0.117 0.059,-0.32 0.078,-0.437 l 1.387,-5.516 h 1.742 c 1.363,0 1.504,0.321 1.504,0.864 0,0.14 -0.02,0.441 -0.18,1.023 0,0 -0.043,0.16 -0.043,0.219 0,0.242 0.203,0.242 0.324,0.242 0.219,0 0.278,-0.039 0.36,-0.402 l 1.101,-4.411 c 0.02,-0.058 0.063,-0.261 0.063,-0.261 0,-0.239 -0.242,-0.239 -0.324,-0.239 -0.258,0 -0.258,0.059 -0.379,0.481 -0.383,1.422 -0.762,1.863 -2.387,1.863 h -1.621 l 1.223,-4.93 c 0.16,-0.664 0.3,-0.683 0.961,-0.683 h 2.503 c 2.168,0 2.668,0.601 2.668,2.027 0,0.539 -0.039,0.801 -0.101,1.282 -0.02,0.101 -0.039,0.281 -0.039,0.339 0,0.243 0.219,0.243 0.301,0.243 0.281,0 0.3,-0.082 0.339,-0.442 l 0.461,-3.547 c 0.063,-0.523 -0.058,-0.523 -0.48,-0.523 h -9.36 c -0.343,0 -0.542,0 -0.542,0.363 0,0.258 0.14,0.258 0.542,0.258 1.161,0 1.161,0.16 1.161,0.344 0,0 0,0.16 -0.078,0.461 l -2.688,10.742 c -0.16,0.683 -0.281,0.844 -1.645,0.844 -0.32,0 -0.539,0 -0.539,0.378 0,0.243 0.18,0.243 0.5,0.243 h 9.602 c 0.402,0 0.422,-0.02 0.563,-0.321 l 1.781,-4.39 c 0.023,-0.039 0.082,-0.242 0.082,-0.242 z"
       style="fill:#000000;fill-opacity:1;fill-rule:nonzero;stroke:none"
       transform="scale(1.3333333)" />
    <path
       id="path50"
       d="m 82.645,103.508 c 0,-0.238 -0.161,-0.238 -0.559,-0.238 -1.242,0 -1.242,-0.141 -1.242,-0.364 0,0 0,-0.14 0.078,-0.441 L 83.629,91.641 C 83.789,91 83.91,90.82 85.293,90.82 c 0.422,0 0.621,0 0.621,-0.382 0,-0.239 -0.199,-0.239 -0.281,-0.239 -0.801,0 -1.645,0.059 -2.465,0.059 -0.824,0 -1.684,-0.059 -2.508,-0.059 -0.14,0 -0.379,0 -0.379,0.36 0,0.261 0.141,0.261 0.539,0.261 0.684,0 1.266,0 1.266,0.34 0,0.059 -0.043,0.32 -0.063,0.383 l -2.726,10.902 c -0.16,0.664 -0.34,0.825 -1.684,0.825 -0.418,0 -0.601,0 -0.601,0.359 0,0.219 0.14,0.262 0.281,0.262 0.805,0 1.645,-0.063 2.465,-0.063 0.824,0 1.687,0.063 2.488,0.063 0.141,0 0.399,0 0.399,-0.383 z"
       style="fill:#000000;fill-opacity:1;fill-rule:nonzero;stroke:none"
       transform="scale(1.3333333)" />
    <path
       id="path51"
       d="m 88.098,102.949 c 0,-0.664 -0.282,-1.183 -0.922,-1.183 -0.801,0 -1.301,0.699 -1.301,1.281 0,0.644 0.461,0.844 0.879,0.844 0.402,0 0.723,-0.223 0.824,-0.301 -0.301,1.543 -1.305,2.824 -2.246,3.629 -0.242,0.238 -0.262,0.258 -0.262,0.34 0,0.058 0.063,0.199 0.203,0.199 0.36,0 2.825,-2.426 2.825,-4.809 z"
       style="fill:#000000;fill-opacity:1;fill-rule:nonzero;stroke:none"
       transform="scale(1.3333333)" />
    <path
       id="path52"
       d="m 105.598,91.863 c 0,-0.965 -0.743,-1.543 -1.664,-1.543 -3.086,0 -3.887,5.352 -4.469,7.375 l -2.227,1.524 0.203,0.34 1.844,-1.223 c -0.32,1.105 -0.922,2.445 -0.922,3.629 0,1.223 0.719,2.144 2.004,2.144 1.664,0 2.887,-1.621 3.567,-2.964 l -0.36,-0.141 c -0.5,0.941 -1.465,2.363 -2.668,2.363 -0.781,0 -1.179,-0.601 -1.179,-1.32 0,-1.145 1.039,-3.992 1.363,-5.074 1.523,-1.02 4.508,-3.047 4.508,-5.11 z m -0.559,0.121 c 0,1.661 -2.547,3.508 -3.75,4.387 l 0.863,-2.945 c 0.258,-0.883 0.801,-2.367 1.922,-2.367 0.563,0 0.965,0.343 0.965,0.925 z"
       style="fill:#000000;fill-opacity:1;fill-rule:nonzero;stroke:none"
       transform="scale(1.3333333)" />
    <path
       id="path53"
       d="m 78.891,-147.895 h 9.047 v -9.047 h -9.047 z"
       style="fill:#ffffff;fill-opacity:1;fill-rule:nonzero;stroke:#000000;stroke-width:0.920356;stroke-linecap:butt;stroke-linejoin:miter;stroke-miterlimit:4;stroke-dasharray:none;stroke-opacity:1"
       transform="matrix(0,1.3333333,-1.3333333,0,0,0)" />
    <path
       id="path54"
       d="m 78.891,-12.18 h 9.047 v -9.047 h -9.047 z"
       style="fill:#ffffff;fill-opacity:1;fill-rule:nonzero;stroke:#000000;stroke-width:0.920356;stroke-linecap:butt;stroke-linejoin:miter;stroke-miterlimit:4;stroke-dasharray:none;stroke-opacity:1"
       transform="matrix(0,1.3333333,-1.3333333,0,0,0)" />
    <path
       id="path55"
       d="m -16.672,-119.039 v -28.453"
       style="fill:none;stroke:#00ce99;stroke-width:5.73558;stroke-linecap:butt;stroke-linejoin:miter;stroke-miterlimit:4;stroke-dasharray:none;stroke-opacity:1"
       transform="scale(-1.3333333,-1.03826)" />
    <path
       id="path56"
       d="m -140.61,16.672 5.739,-5.734 -20.076,5.734 20.076,5.738 z"
       style="fill:#00ce99;fill-opacity:1;fill-rule:evenodd;stroke:#00ce99;stroke-width:1.52949;stroke-linecap:butt;stroke-linejoin:miter;stroke-miterlimit:4;stroke-dasharray:none;stroke-opacity:1"
       transform="matrix(0,-1.03826,1.3333333,0,0,0)" />
    <path
       id="path57"
       d="m -9.625,-132.438 -7.187,-25.197 -6.993,24.911 4.309,-4.023 v 17.532 h 5.75 v -17.246 z"
       style="fill:#017188;fill-opacity:1;fill-rule:nonzero;stroke:#000000;stroke-width:0.758769;stroke-linecap:butt;stroke-linejoin:miter;stroke-miterlimit:4;stroke-dasharray:none;stroke-opacity:1"
       transform="scale(-1.3333333,-1.03826)" />
    <path
       id="path58"
       d="m 165.469,87.043 -3.754,-3.004 c 0,0 0.633,-0.867 0.711,-1.027 0.082,-0.157 0.711,-1.262 0.711,-1.262 l 0.554,-1.426 0.317,-1.972 -0.078,-1.7 -0.2,-1.976 -0.433,-1.184 -0.555,-1.105 -0.789,-1.227 -1.344,-1.461 -1.539,-1.066 -1.265,-0.832 -1.461,-0.473 -2.133,-0.277 -1.738,0.039 -2.176,0.433 -1.817,0.793 -1.699,1.184 -1.222,1.305 -0.395,0.355 3.777,2.5 -10.375,2.559 -2.558,-10.375 5.086,3.023 0.828,-1.262 1.344,-1.304 0.988,-0.832 1.422,-1.067 1.777,-0.867 0.988,-0.433 c 0,0 1.106,-0.399 1.422,-0.438 0.317,-0.039 1.66,-0.316 1.66,-0.316 l 1.305,-0.157 1.344,0.118 h 0.711 l 1.183,0.16 0.872,0.078 1.066,0.355 1.105,0.356 1.106,0.515 1.066,0.59 1.422,0.91 0.988,0.829 c 0,0 0.633,0.871 0.829,0.871 0.199,0 0.871,0.949 0.871,0.949 l 0.828,1.144 0.832,1.223 0.59,1.582 0.554,1.106 0.434,1.855 0.16,1.621 0.039,1.899 -0.16,1.066 -0.195,1.027 -0.121,0.629 -0.274,0.832 -0.121,0.789 -0.551,1.145 -0.594,1.148 -0.593,1.067 z"
       style="fill:#eb9046;fill-opacity:1;fill-rule:nonzero;stroke:#000000;stroke-width:0.587724;stroke-linecap:butt;stroke-linejoin:round;stroke-miterlimit:4;stroke-dasharray:none;stroke-opacity:0.964706"
       transform="scale(1.3333333)" />
    <path
       id="path59"
       d="M 29.754,87.043 26,84.039 c 0,0 0.633,-0.867 0.711,-1.027 0.082,-0.157 0.715,-1.262 0.715,-1.262 l 0.551,-1.426 0.316,-1.972 -0.078,-1.7 -0.199,-1.976 -0.434,-1.184 -0.555,-1.105 -0.789,-1.227 -1.343,-1.461 -1.54,-1.066 -1.265,-0.832 -1.461,-0.473 -2.133,-0.277 -1.738,0.039 -2.176,0.433 -1.816,0.793 -1.7,1.184 -1.222,1.305 -0.395,0.355 3.778,2.5 -10.375,2.559 -2.559,-10.375 5.086,3.023 0.828,-1.262 1.344,-1.304 0.988,-0.832 1.422,-1.067 1.777,-0.867 0.989,-0.433 c 0,0 1.105,-0.399 1.421,-0.438 0.317,-0.039 1.661,-0.316 1.661,-0.316 l 1.304,-0.157 1.344,0.118 h 0.711 l 1.184,0.16 0.871,0.078 1.066,0.355 1.106,0.356 1.105,0.515 1.066,0.59 1.422,0.91 0.989,0.829 c 0,0 0.632,0.871 0.828,0.871 0.199,0 0.871,0.949 0.871,0.949 l 0.828,1.144 0.832,1.223 0.59,1.582 0.554,1.106 0.434,1.855 0.16,1.621 0.039,1.899 -0.16,1.066 -0.195,1.027 -0.121,0.629 -0.274,0.832 -0.121,0.789 -0.551,1.145 -0.593,1.148 -0.594,1.067 z"
       style="fill:#00a390;fill-opacity:1;fill-rule:nonzero;stroke:#000000;stroke-width:0.587724;stroke-linecap:butt;stroke-linejoin:round;stroke-miterlimit:4;stroke-dasharray:none;stroke-opacity:0.964706"
       transform="scale(1.3333333)" />
    <path
       id="path60"
       d="m -152.387,-119.039 v -28.453"
       style="fill:none;stroke:#00ce99;stroke-width:5.73558;stroke-linecap:butt;stroke-linejoin:miter;stroke-miterlimit:4;stroke-dasharray:none;stroke-opacity:1"
       transform="scale(-1.3333333,-1.03826)" />
    <path
       id="path61"
       d="m -140.61,152.387 5.739,-5.735 -20.076,5.735 20.076,5.738 z"
       style="fill:#00ce99;fill-opacity:1;fill-rule:evenodd;stroke:#00ce99;stroke-width:1.52949;stroke-linecap:butt;stroke-linejoin:miter;stroke-miterlimit:4;stroke-dasharray:none;stroke-opacity:1"
       transform="matrix(0,-1.03826,1.3333333,0,0,0)" />
    <path
       id="path62"
       d="m -145.34,-132.438 -7.187,-25.197 -6.993,24.911 4.313,-4.023 v 17.532 h 5.746 v -17.246 z"
       style="fill:#c3312f;fill-opacity:1;fill-rule:nonzero;stroke:#000000;stroke-width:0.758769;stroke-linecap:butt;stroke-linejoin:miter;stroke-miterlimit:4;stroke-dasharray:none;stroke-opacity:1"
       transform="scale(-1.3333333,-1.03826)" />
    <path
       id="path63"
       d="m 20.523,126.109 c 0,-0.703 -0.242,-1.324 -0.82,-1.324 -0.461,0 -0.965,0.461 -0.965,0.922 0,0.262 0.141,0.402 0.262,0.543 0.48,0.52 0.543,1.164 0.543,1.582 0,0.805 -0.645,2.906 -0.984,3.73 -0.442,1.043 -1.082,1.864 -2.004,1.864 -1.004,0 -1.325,-0.821 -1.325,-1.664 0,-0.18 0.02,-0.66 0.243,-1.543 l 0.839,-3.367 c 0.122,-0.442 0.321,-1.243 0.321,-1.325 0,-0.218 -0.16,-0.519 -0.559,-0.519 -0.582,0 -0.722,0.539 -0.762,0.699 l -1.144,4.57 c -0.141,0.563 -0.16,0.985 -0.16,1.266 0,0.219 -0.621,1.883 -1.684,1.883 -1.402,0 -1.402,-1.485 -1.402,-1.742 0,-1.082 0.519,-2.567 1.14,-4.211 0.141,-0.383 0.243,-0.684 0.243,-1.063 0,-1.004 -0.66,-1.625 -1.524,-1.625 -1.863,0 -2.566,2.969 -2.566,3.09 0,0.199 0.199,0.199 0.301,0.199 0.261,0 0.281,-0.039 0.359,-0.32 0.164,-0.621 0.703,-2.527 1.867,-2.527 0.219,0 0.442,0.062 0.442,0.582 0,0.48 -0.204,1.023 -0.485,1.804 -1,2.727 -1,3.246 -1,3.789 0,0.68 0.16,1.364 0.68,1.844 0.644,0.563 1.543,0.621 1.887,0.621 0.64,0 1.343,-0.262 1.945,-1.281 0.297,0.738 1.101,1.281 2.285,1.281 1.199,0 2.043,-0.82 2.645,-2.246 0.601,-1.363 1.382,-4.449 1.382,-5.512 z"
       style="fill:#000000;fill-opacity:1;fill-rule:nonzero;stroke:none"
       transform="scale(1.3333333)" />
    <path
       id="path64"
       d="m 20.5,137.656 h 3.637 v -0.195 h -0.211 c -0.637,0 -0.91,-0.129 -0.91,-0.418 0,-0.223 0.207,-0.809 0.234,-0.965 l 1.863,-6.762 c 0.051,-0.195 0.078,-0.312 0.078,-0.378 0,-0.051 -0.027,-0.09 -0.066,-0.09 l -2.242,0.441 c -0.024,0 -0.129,0.027 -0.274,0.055 v 0.195 l 0.746,-0.027 c 0.012,0 0.024,0 0.024,0 0.285,0 0.469,0.172 0.469,0.406 0,0.078 -0.024,0.207 -0.09,0.441 l -1.801,6.411 c -0.129,0.484 -0.43,0.613 -1.457,0.703 z"
       style="fill:#000000;fill-opacity:1;fill-rule:nonzero;stroke:none"
       transform="scale(1.3333333)" />
    <path
       id="path65"
       d="m 17.113,55.516 c 3.246,0 5.992,-3.129 5.992,-6.657 0,-1.582 -0.839,-2.406 -2.285,-2.406 -2.265,0 -3.465,2.586 -4.187,5.235 0,0 -0.664,2.484 -0.922,3.367 -1.223,0 -2.305,-0.743 -2.305,-2.407 0,-1.484 0.66,-5.73 3.086,-5.73 0.5,0 0.762,0.238 1.043,0.859 l 0.34,-0.32 c -0.141,-0.562 -0.461,-1.004 -1.504,-1.004 -2.726,0 -4.652,3.188 -4.652,5.395 0,2.445 2.105,3.668 3.871,3.668 l -1.043,3.89 h 1.504 z m 5.414,-6.614 c 0,3.348 -2.668,6.153 -5.273,6.153 l 1.441,-5.332 c 0.321,-1.282 0.723,-2.805 2.266,-2.805 1.082,0 1.566,0.922 1.566,1.984 z"
       style="fill:#000000;fill-opacity:1;fill-rule:nonzero;stroke:none"
       transform="scale(1.3333333)" />
    <path
       id="path66"
       d="m 24.488,59.305 h 3.633 V 59.109 H 27.914 C 27.277,59.109 27,58.98 27,58.691 c 0,-0.218 0.211,-0.808 0.234,-0.964 l 1.864,-6.762 c 0.054,-0.195 0.082,-0.313 0.082,-0.379 0,-0.051 -0.028,-0.09 -0.067,-0.09 l -2.242,0.442 c -0.023,0 -0.129,0.027 -0.273,0.054 v 0.196 L 27.34,51.16 c 0.015,0 0.027,0 0.027,0 0.285,0 0.469,0.172 0.469,0.406 0,0.079 -0.027,0.207 -0.094,0.442 l -1.797,6.41 c -0.129,0.484 -0.429,0.613 -1.457,0.703 z"
       style="fill:#000000;fill-opacity:1;fill-rule:nonzero;stroke:none"
       transform="scale(1.3333333)" />
    <path
       id="path67"
       d="m 156.523,126.109 c 0,-0.703 -0.242,-1.324 -0.82,-1.324 -0.461,0 -0.965,0.461 -0.965,0.922 0,0.262 0.141,0.402 0.262,0.543 0.48,0.52 0.543,1.164 0.543,1.582 0,0.805 -0.645,2.906 -0.984,3.73 -0.442,1.043 -1.082,1.864 -2.004,1.864 -1.004,0 -1.325,-0.821 -1.325,-1.664 0,-0.18 0.02,-0.66 0.243,-1.543 l 0.839,-3.367 c 0.122,-0.442 0.321,-1.243 0.321,-1.325 0,-0.218 -0.16,-0.519 -0.559,-0.519 -0.582,0 -0.722,0.539 -0.762,0.699 l -1.144,4.57 c -0.141,0.563 -0.16,0.985 -0.16,1.266 0,0.219 -0.621,1.883 -1.684,1.883 -1.402,0 -1.402,-1.485 -1.402,-1.742 0,-1.082 0.519,-2.567 1.14,-4.211 0.141,-0.383 0.243,-0.684 0.243,-1.063 0,-1.004 -0.66,-1.625 -1.524,-1.625 -1.863,0 -2.566,2.969 -2.566,3.09 0,0.199 0.199,0.199 0.301,0.199 0.261,0 0.281,-0.039 0.363,-0.32 0.16,-0.621 0.699,-2.527 1.863,-2.527 0.219,0 0.442,0.062 0.442,0.582 0,0.48 -0.204,1.023 -0.485,1.804 -1,2.727 -1,3.246 -1,3.789 0,0.68 0.16,1.364 0.68,1.844 0.644,0.563 1.547,0.621 1.887,0.621 0.64,0 1.343,-0.262 1.945,-1.281 0.301,0.738 1.101,1.281 2.285,1.281 1.199,0 2.043,-0.82 2.645,-2.246 0.601,-1.363 1.382,-4.449 1.382,-5.512 z"
       style="fill:#000000;fill-opacity:1;fill-rule:nonzero;stroke:none"
       transform="scale(1.3333333)" />
    <path
       id="path68"
       d="m 156.906,130.934 0.274,0.089 c 0.48,-0.847 1.039,-1.222 1.824,-1.222 0.922,0 1.629,0.676 1.629,1.586 0,0.629 -0.34,1.5 -1.879,3.129 l -2.734,2.918 v 0.222 h 4.625 l 0.652,-1.718 -0.223,-0.094 c -0.312,0.652 -0.586,0.82 -1.289,0.82 h -2.476 v -0.062 l 2.5,-2.504 c 1.527,-1.524 1.941,-2.176 1.941,-3.036 0,-1.25 -0.922,-2.214 -2.109,-2.214 -1.028,0 -2.086,0.468 -2.735,2.086 z"
       style="fill:#000000;fill-opacity:1;fill-rule:nonzero;stroke:none"
       transform="scale(1.3333333)" />
    <path
       id="path69"
       d="m 153.785,55.516 c 3.246,0 5.992,-3.129 5.992,-6.657 0,-1.582 -0.839,-2.406 -2.285,-2.406 -2.265,0 -3.469,2.586 -4.187,5.235 0,0 -0.664,2.484 -0.926,3.367 -1.223,0 -2.305,-0.743 -2.305,-2.407 0,-1.484 0.664,-5.73 3.09,-5.73 0.5,0 0.762,0.238 1.039,0.859 l 0.344,-0.32 c -0.141,-0.562 -0.461,-1.004 -1.504,-1.004 -2.727,0 -4.652,3.188 -4.652,5.395 0,2.445 2.105,3.668 3.871,3.668 l -1.043,3.89 h 1.504 z m 5.41,-6.614 c 0,3.348 -2.664,6.153 -5.269,6.153 l 1.441,-5.332 c 0.321,-1.282 0.723,-2.805 2.266,-2.805 1.082,0 1.562,0.922 1.562,1.984 z"
       style="fill:#000000;fill-opacity:1;fill-rule:nonzero;stroke:none"
       transform="scale(1.3333333)" />
    <path
       id="path70"
       d="m 161.562,52.582 0.274,0.09 c 0.48,-0.848 1.043,-1.223 1.824,-1.223 0.926,0 1.629,0.676 1.629,1.586 0,0.629 -0.34,1.5 -1.879,3.129 l -2.734,2.918 v 0.223 h 4.625 l 0.652,-1.719 -0.223,-0.094 c -0.312,0.653 -0.585,0.82 -1.289,0.82 h -2.476 V 58.25 l 2.504,-2.504 c 1.523,-1.523 1.941,-2.176 1.941,-3.035 0,-1.25 -0.926,-2.215 -2.113,-2.215 -1.027,0 -2.082,0.469 -2.735,2.086 z"
       style="fill:#000000;fill-opacity:1;fill-rule:nonzero;stroke:none"
       transform="scale(1.3333333)" />
    <path
       id="path71"
       d="m 78.465,65.57 c 0,-0.703 -0.238,-1.324 -0.82,-1.324 -0.461,0 -0.961,0.461 -0.961,0.922 0,0.262 0.14,0.402 0.257,0.543 0.485,0.519 0.543,1.164 0.543,1.582 0,0.805 -0.64,2.91 -0.984,3.73 -0.438,1.043 -1.082,1.864 -2.004,1.864 -1,0 -1.32,-0.821 -1.32,-1.664 0,-0.18 0.019,-0.661 0.238,-1.543 l 0.844,-3.368 c 0.121,-0.441 0.32,-1.242 0.32,-1.324 0,-0.218 -0.16,-0.519 -0.562,-0.519 -0.582,0 -0.723,0.539 -0.762,0.699 l -1.141,4.574 c -0.14,0.559 -0.16,0.981 -0.16,1.262 0,0.219 -0.621,1.883 -1.683,1.883 -1.407,0 -1.407,-1.485 -1.407,-1.742 0,-1.083 0.524,-2.567 1.145,-4.211 0.14,-0.379 0.238,-0.68 0.238,-1.063 0,-1.004 -0.66,-1.625 -1.523,-1.625 -1.864,0 -2.563,2.969 -2.563,3.09 0,0.199 0.199,0.199 0.301,0.199 0.258,0 0.277,-0.039 0.359,-0.32 0.16,-0.621 0.703,-2.527 1.864,-2.527 0.222,0 0.441,0.062 0.441,0.582 0,0.48 -0.199,1.023 -0.48,1.804 -1.004,2.727 -1.004,3.246 -1.004,3.789 0,0.68 0.16,1.364 0.683,1.844 0.641,0.563 1.543,0.621 1.883,0.621 0.641,0 1.344,-0.262 1.945,-1.281 0.301,0.742 1.102,1.281 2.286,1.281 1.203,0 2.042,-0.82 2.644,-2.246 0.602,-1.363 1.383,-4.449 1.383,-5.512 z"
       style="fill:#000000;fill-opacity:1;fill-rule:nonzero;stroke:none"
       transform="scale(1.3333333)" />
    <path
       id="path72"
       d="m 83.238,77.918 c 0,0 0,-0.078 -0.14,-0.281 -1.082,-1.641 -1.243,-3.348 -1.243,-4.75 0,-2.727 1.18,-10.164 5.993,-14.25 0.281,-0.282 0.3,-0.301 0.3,-0.364 0,-0.14 -0.078,-0.199 -0.199,-0.199 -0.222,0 -2.527,1.625 -4.269,4.469 -2.207,3.629 -2.828,7.477 -2.828,9.621 0,1.184 0.179,2.449 0.543,3.449 0.5,1.344 1.363,2.508 1.64,2.508 0.121,0 0.203,-0.082 0.203,-0.203 z"
       style="fill:#000000;fill-opacity:1;fill-rule:nonzero;stroke:none"
       transform="scale(1.3333333)" />
    <path
       id="path73"
       d="m 95.785,70.242 c 0,-0.203 -0.16,-0.203 -0.301,-0.203 -0.238,0 -0.257,0.023 -0.359,0.344 -0.543,1.722 -1.543,2.504 -2.387,2.504 -0.398,0 -0.941,-0.239 -0.941,-1.282 0,-0.48 0.223,-1.343 0.383,-2.027 l 0.679,-2.746 c 0.282,-1.039 0.821,-2.144 1.766,-2.144 0.059,0 0.559,0 0.879,0.281 -0.801,0.199 -0.801,0.961 -0.801,0.961 0,0.261 0.18,0.644 0.703,0.644 0.36,0 0.981,-0.281 0.981,-1.062 0,-1.024 -1.16,-1.266 -1.742,-1.266 -1.102,0 -1.766,0.984 -1.965,1.363 -0.442,-1.203 -1.426,-1.363 -1.926,-1.363 -2.004,0 -3.086,2.629 -3.086,3.09 0,0.199 0.199,0.199 0.301,0.199 0.261,0 0.261,-0.019 0.359,-0.34 0.543,-1.726 1.586,-2.507 2.387,-2.507 0.582,0 0.961,0.46 0.961,1.265 0,0.481 -0.238,1.461 -0.422,2.203 l -0.461,1.824 c -0.32,1.305 -0.738,2.907 -1.941,2.907 -0.063,0 -0.543,0 -0.883,-0.282 0.601,-0.16 0.781,-0.66 0.781,-0.96 0,-0.52 -0.422,-0.641 -0.68,-0.641 -0.504,0 -1.004,0.422 -1.004,1.082 0,0.781 0.84,1.242 1.766,1.242 0.961,0 1.621,-0.762 1.961,-1.363 0.402,1.144 1.387,1.363 1.906,1.363 2.067,0 3.086,-2.687 3.086,-3.086 z"
       style="fill:#000000;fill-opacity:1;fill-rule:nonzero;stroke:none"
       transform="scale(1.3333333)" />
    <path
       id="path74"
       d="m 102.961,64.027 c 0,-1.183 -0.18,-2.445 -0.539,-3.449 -0.5,-1.344 -1.363,-2.504 -1.645,-2.504 -0.121,0 -0.199,0.078 -0.199,0.199 0,0 0,0.082 0.141,0.282 1.082,1.644 1.242,3.347 1.242,4.75 0,2.726 -1.184,10.164 -5.996,14.254 -0.277,0.281 -0.301,0.3 -0.301,0.359 0,0.141 0.082,0.203 0.203,0.203 0.219,0 2.524,-1.625 4.27,-4.473 2.203,-3.628 2.824,-7.476 2.824,-9.621 z"
       style="fill:#000000;fill-opacity:1;fill-rule:nonzero;stroke:none"
       transform="scale(1.3333333)" />
    <path
       id="path75"
       d="m 78.465,65.57 c 0,-0.703 -0.238,-1.324 -0.82,-1.324 -0.461,0 -0.961,0.461 -0.961,0.922 0,0.262 0.14,0.402 0.257,0.543 0.485,0.519 0.543,1.164 0.543,1.582 0,0.805 -0.64,2.91 -0.984,3.73 -0.438,1.043 -1.082,1.864 -2.004,1.864 -1,0 -1.32,-0.821 -1.32,-1.664 0,-0.18 0.019,-0.661 0.238,-1.543 l 0.844,-3.368 c 0.121,-0.441 0.32,-1.242 0.32,-1.324 0,-0.218 -0.16,-0.519 -0.562,-0.519 -0.582,0 -0.723,0.539 -0.762,0.699 l -1.141,4.574 c -0.14,0.559 -0.16,0.981 -0.16,1.262 0,0.219 -0.621,1.883 -1.683,1.883 -1.407,0 -1.407,-1.485 -1.407,-1.742 0,-1.083 0.524,-2.567 1.145,-4.211 0.14,-0.379 0.238,-0.68 0.238,-1.063 0,-1.004 -0.66,-1.625 -1.523,-1.625 -1.864,0 -2.563,2.969 -2.563,3.09 0,0.199 0.199,0.199 0.301,0.199 0.258,0 0.277,-0.039 0.359,-0.32 0.16,-0.621 0.703,-2.527 1.864,-2.527 0.222,0 0.441,0.062 0.441,0.582 0,0.48 -0.199,1.023 -0.48,1.804 -1.004,2.727 -1.004,3.246 -1.004,3.789 0,0.68 0.16,1.364 0.683,1.844 0.641,0.563 1.543,0.621 1.883,0.621 0.641,0 1.344,-0.262 1.945,-1.281 0.301,0.742 1.102,1.281 2.286,1.281 1.203,0 2.042,-0.82 2.644,-2.246 0.602,-1.363 1.383,-4.449 1.383,-5.512 z"
       style="fill:#000000;fill-opacity:1;fill-rule:nonzero;stroke:none"
       transform="scale(1.3333333)" />
    <path
       id="path76"
       d="m 83.238,77.918 c 0,0 0,-0.078 -0.14,-0.281 -1.082,-1.641 -1.243,-3.348 -1.243,-4.75 0,-2.727 1.18,-10.164 5.993,-14.25 0.281,-0.282 0.3,-0.301 0.3,-0.364 0,-0.14 -0.078,-0.199 -0.199,-0.199 -0.222,0 -2.527,1.625 -4.269,4.469 -2.207,3.629 -2.828,7.477 -2.828,9.621 0,1.184 0.179,2.449 0.543,3.449 0.5,1.344 1.363,2.508 1.64,2.508 0.121,0 0.203,-0.082 0.203,-0.203 z"
       style="fill:#000000;fill-opacity:1;fill-rule:nonzero;stroke:none"
       transform="scale(1.3333333)" />
    <path
       id="path77"
       d="m 95.785,70.242 c 0,-0.203 -0.16,-0.203 -0.301,-0.203 -0.238,0 -0.257,0.023 -0.359,0.344 -0.543,1.722 -1.543,2.504 -2.387,2.504 -0.398,0 -0.941,-0.239 -0.941,-1.282 0,-0.48 0.223,-1.343 0.383,-2.027 l 0.679,-2.746 c 0.282,-1.039 0.821,-2.144 1.766,-2.144 0.059,0 0.559,0 0.879,0.281 -0.801,0.199 -0.801,0.961 -0.801,0.961 0,0.261 0.18,0.644 0.703,0.644 0.36,0 0.981,-0.281 0.981,-1.062 0,-1.024 -1.16,-1.266 -1.742,-1.266 -1.102,0 -1.766,0.984 -1.965,1.363 -0.442,-1.203 -1.426,-1.363 -1.926,-1.363 -2.004,0 -3.086,2.629 -3.086,3.09 0,0.199 0.199,0.199 0.301,0.199 0.261,0 0.261,-0.019 0.359,-0.34 0.543,-1.726 1.586,-2.507 2.387,-2.507 0.582,0 0.961,0.46 0.961,1.265 0,0.481 -0.238,1.461 -0.422,2.203 l -0.461,1.824 c -0.32,1.305 -0.738,2.907 -1.941,2.907 -0.063,0 -0.543,0 -0.883,-0.282 0.601,-0.16 0.781,-0.66 0.781,-0.96 0,-0.52 -0.422,-0.641 -0.68,-0.641 -0.504,0 -1.004,0.422 -1.004,1.082 0,0.781 0.84,1.242 1.766,1.242 0.961,0 1.621,-0.762 1.961,-1.363 0.402,1.144 1.387,1.363 1.906,1.363 2.067,0 3.086,-2.687 3.086,-3.086 z"
       style="fill:#000000;fill-opacity:1;fill-rule:nonzero;stroke:none"
       transform="scale(1.3333333)" />
    <path
       id="path78"
       d="m 102.961,64.027 c 0,-1.183 -0.18,-2.445 -0.539,-3.449 -0.5,-1.344 -1.363,-2.504 -1.645,-2.504 -0.121,0 -0.199,0.078 -0.199,0.199 0,0 0,0.082 0.141,0.282 1.082,1.644 1.242,3.347 1.242,4.75 0,2.726 -1.184,10.164 -5.996,14.254 -0.277,0.281 -0.301,0.3 -0.301,0.359 0,0.141 0.082,0.203 0.203,0.203 0.219,0 2.524,-1.625 4.27,-4.473 2.203,-3.628 2.824,-7.476 2.824,-9.621 z"
       style="fill:#000000;fill-opacity:1;fill-rule:nonzero;stroke:none"
       transform="scale(1.3333333)" />
    <path
       id="path79"
       d="M 90.293,0.008 89.828,52.344"
       style="fill:none;stroke:#810000;stroke-width:2.12598;stroke-linecap:butt;stroke-linejoin:miter;stroke-miterlimit:4;stroke-dasharray:none;stroke-opacity:1"
       transform="scale(1.3333333)" />
    <path
       id="path80"
       d="m -43.041,90.283 4.252,-4.252 -14.881,4.253 14.882,4.251 z"
       style="fill:#810000;fill-opacity:1;fill-rule:evenodd;stroke:#810000;stroke-width:1.13381;stroke-linecap:butt;stroke-linejoin:miter;stroke-miterlimit:4;stroke-dasharray:none;stroke-opacity:1"
       transform="matrix(0.01179912,-1.3333333,1.3333333,0.01179912,0,0)" />
    <path
       id="path81"
       d="m 114.012,15.184 c 0,-2.016 -1.633,-3.555 -4.246,-3.555 h -7.2 c -0.386,0 -0.648,0 -0.648,0.457 0,0.289 0.191,0.289 0.648,0.289 0.743,0 1.391,0 1.391,0.406 0,0.074 0,0.121 -0.098,0.457 l -3.238,13.032 c -0.191,0.816 -0.336,1.007 -1.969,1.007 -0.382,0 -0.648,0 -0.648,0.457 0,0.289 0.266,0.289 0.336,0.289 0.914,0 1.898,-0.074 2.832,-0.074 0.961,0 1.945,0.074 2.879,0.074 0.168,0 0.457,0 0.457,-0.433 0,-0.313 -0.168,-0.313 -0.649,-0.313 -1.39,0 -1.39,-0.191 -1.39,-0.406 0,-0.098 0,-0.144 0.097,-0.48 l 1.461,-5.953 h 3.723 c 3.023,0 6.262,-2.446 6.262,-5.254 z m -2.11,-0.649 c 0,0.481 -0.363,2.832 -1.273,3.887 -0.84,0.937 -2.039,1.394 -3.481,1.394 h -3.023 l 1.633,-6.578 c 0.215,-0.863 0.383,-0.863 1.176,-0.863 h 2.062 c 1.68,0 2.906,0.625 2.906,2.16 z"
       style="fill:#000000;fill-opacity:1;fill-rule:nonzero;stroke:none"
       transform="scale(1.3333333)" />
    <path
       id="path82"
       d="M 17.488,13.34 V 36.09"
       style="fill:none;stroke:#000000;stroke-width:0.749999;stroke-linecap:butt;stroke-linejoin:miter;stroke-miterlimit:4;stroke-dasharray:none;stroke-opacity:1"
       transform="scale(1.3333333)" />
    <path
       id="path83"
       d="M 19.141,24.715 H 87.707"
       style="fill:none;stroke:#000000;stroke-width:0.749999;stroke-linecap:butt;stroke-linejoin:miter;stroke-miterlimit:4;stroke-dasharray:none;stroke-opacity:1"
       transform="scale(1.3333333)" />
    <path
       id="path84"
       d="m 27.16,28.043 -9.015,-3.316 9.015,-3.313 c -1.441,1.957 -1.433,4.633 0,6.629 z"
       style="fill:#000000;fill-opacity:1;fill-rule:evenodd;stroke:#000000;stroke-width:0.515624;stroke-linecap:butt;stroke-linejoin:round;stroke-miterlimit:4;stroke-dasharray:none;stroke-opacity:1"
       transform="scale(1.3333333)" />
    <path
       id="path85"
       d="m -79.691,-21.387 -9.012,-3.316 9.012,-3.313 c -1.438,1.957 -1.43,4.633 0,6.629 z"
       style="fill:#000000;fill-opacity:1;fill-rule:evenodd;stroke:#000000;stroke-width:0.515624;stroke-linecap:butt;stroke-linejoin:round;stroke-miterlimit:4;stroke-dasharray:none;stroke-opacity:1"
       transform="scale(-1.3333333)" />
    <path
       id="path86"
       d="m 51.992,29.66 c 0,-0.965 -0.742,-1.547 -1.664,-1.547 -3.086,0 -3.887,5.356 -4.469,7.379 l -2.226,1.524 0.203,0.339 1.844,-1.222 c -0.321,1.101 -0.922,2.445 -0.922,3.629 0,1.222 0.719,2.144 2.004,2.144 1.664,0 2.886,-1.625 3.566,-2.965 l -0.359,-0.14 c -0.5,0.941 -1.465,2.363 -2.668,2.363 -0.781,0 -1.18,-0.602 -1.18,-1.32 0,-1.145 1.039,-3.992 1.359,-5.074 1.528,-1.024 4.512,-3.047 4.512,-5.11 z m -0.562,0.117 c 0,1.664 -2.543,3.508 -3.746,4.391 l 0.859,-2.945 c 0.262,-0.883 0.805,-2.368 1.926,-2.368 0.562,0 0.961,0.344 0.961,0.922 z"
       style="fill:#000000;fill-opacity:1;fill-rule:nonzero;stroke:none"
       transform="scale(1.3333333)" />
    <path
       id="path87"
       d="M 48.125,48.605 55.859,35.207"
       style="fill:none;stroke:#000000;stroke-width:0.749999;stroke-linecap:butt;stroke-linejoin:miter;stroke-miterlimit:4;stroke-dasharray:none;stroke-opacity:1"
       transform="scale(1.3333333)" />
    <path
       id="path88"
       d="m 62.465,51.457 h -0.488 c -0.094,0.582 -0.231,1.438 -0.426,1.731 -0.137,0.152 -1.418,0.152 -1.844,0.152 h -3.496 l 2.059,-1.996 c 3.027,-2.68 4.195,-3.731 4.195,-5.672 0,-2.211 -1.75,-3.766 -4.117,-3.766 -2.196,0 -3.629,1.785 -3.629,3.516 0,1.086 0.969,1.086 1.027,1.086 0.332,0 1.012,-0.235 1.012,-1.028 0,-0.507 -0.352,-1.011 -1.031,-1.011 -0.157,0 -0.196,0 -0.25,0.019 0.445,-1.261 1.492,-1.98 2.617,-1.98 1.769,0 2.601,1.574 2.601,3.164 0,1.555 -0.968,3.09 -2.035,4.293 l -3.73,4.152 c -0.211,0.215 -0.211,0.254 -0.211,0.719 h 7.203 z"
       style="fill:#000000;fill-opacity:1;fill-rule:nonzero;stroke:none"
       transform="scale(1.3333333)" />
  </g>
</svg>
