<?xml version="1.0" encoding="UTF-8" standalone="no"?>
<!-- Created with Inkscape (http://www.inkscape.org/) -->

<svg
   width="144.38112mm"
   height="47.483219mm"
   viewBox="0 0 144.38112 47.483219"
   version="1.1"
   id="svg1"
   inkscape:version="1.3.2 (091e20e, 2023-11-25, custom)"
   sodipodi:docname="extension2fieldsdispdet.svg"
   xmlns:inkscape="http://www.inkscape.org/namespaces/inkscape"
   xmlns:sodipodi="http://sodipodi.sourceforge.net/DTD/sodipodi-0.dtd"
   xmlns="http://www.w3.org/2000/svg"
   xmlns:svg="http://www.w3.org/2000/svg"
   xmlns:rdf="http://www.w3.org/1999/02/22-rdf-syntax-ns#"
   xmlns:cc="http://creativecommons.org/ns#"
   xmlns:dc="http://purl.org/dc/elements/1.1/">
  <title
     id="title1">Extension 2 field displacement method statically determinate</title>
  <sodipodi:namedview
     id="namedview1"
     pagecolor="#ffffff"
     bordercolor="#000000"
     borderopacity="0.25"
     inkscape:showpageshadow="2"
     inkscape:pageopacity="0.0"
     inkscape:pagecheckerboard="0"
     inkscape:deskcolor="#d1d1d1"
     inkscape:document-units="mm"
     inkscape:zoom="2.8284271"
     inkscape:cx="232.28458"
     inkscape:cy="59.9273"
     inkscape:window-width="1920"
     inkscape:window-height="1001"
     inkscape:window-x="-9"
     inkscape:window-y="-9"
     inkscape:window-maximized="1"
     inkscape:current-layer="layer1" />
  <defs
     id="defs1">
    <rect
       x="301.9346"
       y="41.365747"
       width="43.487067"
       height="29.698485"
       id="rect2" />
    <rect
       x="228.39549"
       y="40.65864"
       width="36.062446"
       height="46.315495"
       id="rect1" />
    <rect
       x="228.39549"
       y="40.658642"
       width="36.062447"
       height="46.315495"
       id="rect1-2" />
  </defs>
  <g
     inkscape:label="Laag 1"
     inkscape:groupmode="layer"
     id="layer1"
     transform="translate(-42.8625,-80.433329)">
    <path
       id="path1"
       d="m 50.116604,104.27902 h 47.87723"
       style="fill:none;stroke:#000000;stroke-width:1;stroke-linecap:butt;stroke-linejoin:miter;stroke-miterlimit:4;stroke-dasharray:none;stroke-opacity:1" />
    <path
       id="path2"
       d="M 50.116604,97.033323 V 111.26826"
       style="fill:none;stroke:#000000;stroke-width:0.172081;stroke-linecap:butt;stroke-linejoin:miter;stroke-miterlimit:4;stroke-dasharray:none;stroke-opacity:1" />
    <path
       id="path3"
       d="m 47.087654,97.984063 3.02895,1.74872 -4.75968,-2.74779"
       style="fill:none;stroke:#000000;stroke-width:0.17181;stroke-linecap:butt;stroke-linejoin:miter;stroke-miterlimit:4;stroke-dasharray:none;stroke-opacity:1" />
    <path
       id="path4"
       d="M 50.116604,101.35873 42.917816,97.202653"
       style="fill:none;stroke:#000000;stroke-width:0.17181;stroke-linecap:butt;stroke-linejoin:miter;stroke-miterlimit:4;stroke-dasharray:none;stroke-opacity:1" />
    <path
       id="path5"
       d="M 50.116604,102.98503 42.971439,98.858953"
       style="fill:none;stroke:#000000;stroke-width:0.17181;stroke-linecap:butt;stroke-linejoin:miter;stroke-miterlimit:4;stroke-dasharray:none;stroke-opacity:1" />
    <path
       id="path6"
       d="m 50.116604,104.61099 -7.211135,-4.16455"
       style="fill:none;stroke:#000000;stroke-width:0.17181;stroke-linecap:butt;stroke-linejoin:miter;stroke-miterlimit:4;stroke-dasharray:none;stroke-opacity:1" />
    <path
       id="path7"
       d="m 50.116604,106.23729 -7.211135,-4.16454"
       style="fill:none;stroke:#000000;stroke-width:0.17181;stroke-linecap:butt;stroke-linejoin:miter;stroke-miterlimit:4;stroke-dasharray:none;stroke-opacity:1" />
    <path
       id="path8"
       d="m 50.116604,108.016 -7.211135,-4.16278"
       style="fill:none;stroke:#000000;stroke-width:0.17181;stroke-linecap:butt;stroke-linejoin:miter;stroke-miterlimit:4;stroke-dasharray:none;stroke-opacity:1" />
    <path
       id="path9"
       d="m 50.116604,109.6423 -7.211135,-4.16313"
       style="fill:none;stroke:#000000;stroke-width:0.17181;stroke-linecap:butt;stroke-linejoin:miter;stroke-miterlimit:4;stroke-dasharray:none;stroke-opacity:1" />
    <path
       id="path10"
       d="m 50.116604,111.26826 -7.211135,-4.16313"
       style="fill:none;stroke:#000000;stroke-width:0.17181;stroke-linecap:butt;stroke-linejoin:miter;stroke-miterlimit:4;stroke-dasharray:none;stroke-opacity:1" />
    <path
       id="path11"
       d="m 42.905469,108.66934 4.563885,2.63631"
       style="fill:none;stroke:#000000;stroke-width:0.17181;stroke-linecap:butt;stroke-linejoin:miter;stroke-miterlimit:4;stroke-dasharray:none;stroke-opacity:1" />
    <path
       id="path12"
       d="m 42.905469,110.14254 2.016125,1.16452"
       style="fill:none;stroke:#000000;stroke-width:0.17181;stroke-linecap:butt;stroke-linejoin:miter;stroke-miterlimit:4;stroke-dasharray:none;stroke-opacity:1" />
    <path
       id="path13"
       d="m 50.116604,98.083193 -1.91524,-1.10526"
       style="fill:none;stroke:#000000;stroke-width:0.17181;stroke-linecap:butt;stroke-linejoin:miter;stroke-miterlimit:4;stroke-dasharray:none;stroke-opacity:1" />
    <path
       id="path14"
       d="m 48.640934,102.76173 v 3.19158 h 3.19158 v -3.19158 z"
       style="fill:#ffffff;fill-opacity:1;fill-rule:nonzero;stroke:#000000;stroke-width:0.324681;stroke-linecap:butt;stroke-linejoin:miter;stroke-miterlimit:4;stroke-dasharray:none;stroke-opacity:1" />
    <path
       id="path15"
       d="m 131.72841,114.29862 v 8.02569"
       style="fill:none;stroke:#000000;stroke-width:0.264583;stroke-linecap:butt;stroke-linejoin:miter;stroke-miterlimit:4;stroke-dasharray:none;stroke-opacity:1" />
    <path
       id="path16"
       d="m 50.152584,114.29862 v 8.02569"
       style="fill:none;stroke:#000000;stroke-width:0.264583;stroke-linecap:butt;stroke-linejoin:miter;stroke-miterlimit:4;stroke-dasharray:none;stroke-opacity:1" />
    <path
       id="path17"
       d="M 97.295334,118.31146 H 50.712084"
       style="fill:none;stroke:#000000;stroke-width:0.264583;stroke-linecap:butt;stroke-linejoin:miter;stroke-miterlimit:4;stroke-dasharray:none;stroke-opacity:1" />
    <path
       id="path18"
       d="m 94.466054,117.13742 3.18065,1.16981 -3.18065,1.16875 c 0.50871,-0.69038 0.50588,-1.63442 0,-2.33856 z"
       style="fill:#000000;fill-opacity:1;fill-rule:evenodd;stroke:#000000;stroke-width:0.181901;stroke-linecap:butt;stroke-linejoin:round;stroke-miterlimit:4;stroke-dasharray:none;stroke-opacity:1" />
    <path
       id="path19"
       d="m 53.541014,119.48551 -3.18029,-1.16981 3.18029,-1.16876 c -0.50835,0.69039 -0.50553,1.63442 0,2.33857 z"
       style="fill:#000000;fill-opacity:1;fill-rule:evenodd;stroke:#000000;stroke-width:0.181901;stroke-linecap:butt;stroke-linejoin:round;stroke-miterlimit:4;stroke-dasharray:none;stroke-opacity:1" />
    <path
       id="path20"
       d="m 74.987434,121.18872 c 0,-0.40358 -0.30974,-0.6477 -0.69709,-0.6477 -1.2954,0 -1.6316,2.24649 -1.87572,3.09527 l -0.93275,0.63923 0.084,0.14358 0.77328,-0.51399 c -0.13511,0.46284 -0.38735,1.02658 -0.38735,1.52259 0,0.51258 0.30304,0.89993 0.84209,0.89993 0.69708,0 1.20967,-0.68086 1.49648,-1.2446 l -0.1517,-0.0593 c -0.21096,0.39546 -0.61312,0.99236 -1.11901,0.99236 -0.32773,0 -0.496,-0.25224 -0.496,-0.55527 0,-0.47978 0.43815,-1.67287 0.57185,-2.12796 0.63959,-0.42827 1.89195,-1.27741 1.89195,-2.14418 z m -0.23425,0.0511 c 0,0.69709 -1.06786,1.47179 -1.57374,1.84115 l 0.36266,-1.23613 c 0.10865,-0.36936 0.33619,-0.99237 0.80751,-0.99237 0.23565,0 0.40357,0.14323 0.40357,0.38735 z"
       style="fill:#000000;fill-opacity:1;fill-rule:nonzero;stroke:none;stroke-width:0.352778" />
    <path
       id="path21"
       d="m 76.114914,124.67522 c 0.1143,0 0.16404,0.0829 0.16404,0.25647 v 2.47615 c 0,0.3556 -0.13124,0.41628 -0.51964,0.42721 v 0.0815 h 1.50883 v -0.0815 c -0.4311,-0.005 -0.51929,-0.0607 -0.51929,-0.32244 v -3.27977 l -0.0441,-0.0109 -0.9839,0.49742 v 0.0759 c 0.21343,-0.0868 0.31115,-0.11995 0.39406,-0.11995 z"
       style="fill:#000000;fill-opacity:1;fill-rule:nonzero;stroke:none;stroke-width:0.352778" />
    <path
       id="path22"
       d="m 131.8607,104.27902 h 47.87724"
       style="fill:none;stroke:#000000;stroke-width:1;stroke-linecap:butt;stroke-linejoin:miter;stroke-miterlimit:4;stroke-dasharray:none;stroke-opacity:1" />
    <path
       id="path23"
       d="m 96.398224,102.68306 v 3.19017 h 3.19016 v -3.19017 z"
       style="fill:#ffffff;fill-opacity:1;fill-rule:nonzero;stroke:#000000;stroke-width:0.324681;stroke-linecap:butt;stroke-linejoin:miter;stroke-miterlimit:4;stroke-dasharray:none;stroke-opacity:1" />
    <path
       id="path23-2"
       d="m 130.07294,102.55607 v 3.19017 h 3.19016 v -3.19017 z"
       style="fill:#ffffff;fill-opacity:1;fill-rule:nonzero;stroke:#000000;stroke-width:0.324681;stroke-linecap:butt;stroke-linejoin:miter;stroke-miterlimit:4;stroke-dasharray:none;stroke-opacity:1" />
    <path
       id="path24"
       d="m 179.43773,114.29862 v 8.02569"
       style="fill:none;stroke:#000000;stroke-width:0.264583;stroke-linecap:butt;stroke-linejoin:miter;stroke-miterlimit:4;stroke-dasharray:none;stroke-opacity:1" />
    <path
       id="path25"
       d="m 131.72841,114.29862 v 8.02569"
       style="fill:none;stroke:#000000;stroke-width:0.264583;stroke-linecap:butt;stroke-linejoin:miter;stroke-miterlimit:4;stroke-dasharray:none;stroke-opacity:1" />
    <path
       id="path15-8"
       d="m 97.763395,114.29996 v 8.02569"
       style="fill:none;stroke:#000000;stroke-width:0.264583;stroke-linecap:butt;stroke-linejoin:miter;stroke-miterlimit:4;stroke-dasharray:none;stroke-opacity:1" />
    <path
       id="path25-7"
       d="m 97.763395,114.29996 v 8.02569"
       style="fill:none;stroke:#000000;stroke-width:0.264583;stroke-linecap:butt;stroke-linejoin:miter;stroke-miterlimit:4;stroke-dasharray:none;stroke-opacity:1" />
    <path
       id="path26"
       d="M 178.87117,118.31146 H 132.28791"
       style="fill:none;stroke:#000000;stroke-width:0.264583;stroke-linecap:butt;stroke-linejoin:miter;stroke-miterlimit:4;stroke-dasharray:none;stroke-opacity:1" />
    <path
       id="path27"
       d="m 176.04224,117.13742 3.18029,1.16981 -3.18029,1.16875 c 0.50836,-0.69038 0.50553,-1.63442 0,-2.33856 z"
       style="fill:#000000;fill-opacity:1;fill-rule:evenodd;stroke:#000000;stroke-width:0.181901;stroke-linecap:butt;stroke-linejoin:round;stroke-miterlimit:4;stroke-dasharray:none;stroke-opacity:1" />
    <path
       id="path28"
       d="m 135.1172,119.48551 -3.18065,-1.16981 3.18065,-1.16876 c -0.5087,0.69039 -0.50588,1.63442 0,2.33857 z"
       style="fill:#000000;fill-opacity:1;fill-rule:evenodd;stroke:#000000;stroke-width:0.181901;stroke-linecap:butt;stroke-linejoin:round;stroke-miterlimit:4;stroke-dasharray:none;stroke-opacity:1" />
    <path
       id="path29"
       d="m 156.56503,121.18872 c 0,-0.40358 -0.3115,-0.6477 -0.69885,-0.6477 -1.2954,0 -1.6316,2.24649 -1.87537,3.09527 l -0.9331,0.63923 0.084,0.14358 0.77329,-0.51399 c -0.13511,0.46284 -0.38735,1.02658 -0.38735,1.52259 0,0.51258 0.30339,0.89993 0.84208,0.89993 0.69709,0 1.21003,-0.68086 1.49649,-1.2446 l -0.1517,-0.0593 c -0.20919,0.39546 -0.61312,0.99236 -1.11866,0.99236 -0.32808,0 -0.49635,-0.25224 -0.49635,-0.55527 0,-0.47978 0.43815,-1.67287 0.57185,-2.12796 0.63959,-0.42827 1.89371,-1.27741 1.89371,-2.14418 z m -0.23566,0.0511 c 0,0.69709 -1.06821,1.47179 -1.57374,1.84115 l 0.36231,-1.23613 c 0.109,-0.36936 0.33619,-0.99237 0.8075,-0.99237 0.23566,0 0.40393,0.14323 0.40393,0.38735 z"
       style="fill:#000000;fill-opacity:1;fill-rule:nonzero;stroke:none;stroke-width:0.352778" />
    <path
       id="path30"
       d="m 156.85995,125.30916 0.1143,0.0275 c 0.21908,-0.53587 0.41593,-0.7112 0.79375,-0.7112 0.45897,0 0.77012,0.3115 0.77012,0.77188 0,0.4258 -0.25189,0.93415 -0.71085,1.42063 l -0.97296,1.03364 v 0.0649 h 2.13183 l 0.30022,-0.74824 -0.0702,-0.0279 c -0.20249,0.31151 -0.2741,0.36125 -0.51928,0.36125 h -1.30669 l 0.91793,-0.96203 c 0.48648,-0.50835 0.69991,-0.92463 0.69991,-1.35043 0,-0.54716 -0.44239,-0.96732 -1.01142,-0.96732 -0.88053,0 -1.07632,0.83079 -1.13665,1.08726 z"
       style="fill:#000000;fill-opacity:1;fill-rule:nonzero;stroke:none;stroke-width:0.352778" />
    <path
       id="path31"
       d="m 178.14233,102.68306 v 3.19017 h 3.19017 v -3.19017 z"
       style="fill:#ffffff;fill-opacity:1;fill-rule:nonzero;stroke:#000000;stroke-width:0.324681;stroke-linecap:butt;stroke-linejoin:miter;stroke-miterlimit:4;stroke-dasharray:none;stroke-opacity:1" />
    <path
       id="path50"
       d="m 178.1134,102.62661 3.24803,3.24662"
       style="fill:none;stroke:#000000;stroke-width:0.264583;stroke-linecap:butt;stroke-linejoin:miter;stroke-miterlimit:4;stroke-dasharray:none;stroke-opacity:1" />
    <path
       id="path51"
       d="m 178.1134,105.87323 3.24803,-3.24662"
       style="fill:none;stroke:#000000;stroke-width:0.264583;stroke-linecap:butt;stroke-linejoin:miter;stroke-miterlimit:4;stroke-dasharray:none;stroke-opacity:1" />
    <path
       id="path52"
       d="M 179.8593,111.70535 V 97.216413"
       style="fill:none;stroke:#000000;stroke-width:0.175149;stroke-linecap:butt;stroke-linejoin:miter;stroke-miterlimit:4;stroke-dasharray:none;stroke-opacity:1" />
    <path
       id="path53"
       d="m 182.94328,110.73768 -3.08398,-1.78047 4.84505,2.79753"
       style="fill:none;stroke:#000000;stroke-width:0.174873;stroke-linecap:butt;stroke-linejoin:miter;stroke-miterlimit:4;stroke-dasharray:none;stroke-opacity:1" />
    <path
       id="path54"
       d="m 179.8593,107.30233 7.32684,4.23051"
       style="fill:none;stroke:#000000;stroke-width:0.174873;stroke-linecap:butt;stroke-linejoin:miter;stroke-miterlimit:4;stroke-dasharray:none;stroke-opacity:1" />
    <path
       id="path55"
       d="m 179.8593,105.64745 7.27322,4.19876"
       style="fill:none;stroke:#000000;stroke-width:0.174873;stroke-linecap:butt;stroke-linejoin:miter;stroke-miterlimit:4;stroke-dasharray:none;stroke-opacity:1" />
    <path
       id="path56"
       d="m 179.8593,103.99221 7.3406,4.23757"
       style="fill:none;stroke:#000000;stroke-width:0.174873;stroke-linecap:butt;stroke-linejoin:miter;stroke-miterlimit:4;stroke-dasharray:none;stroke-opacity:1" />
    <path
       id="path57"
       d="m 179.8593,102.33733 7.3406,4.23757"
       style="fill:none;stroke:#000000;stroke-width:0.174873;stroke-linecap:butt;stroke-linejoin:miter;stroke-miterlimit:4;stroke-dasharray:none;stroke-opacity:1" />
    <path
       id="path58"
       d="m 179.8593,100.52653 7.3406,4.23756"
       style="fill:none;stroke:#000000;stroke-width:0.174873;stroke-linecap:butt;stroke-linejoin:miter;stroke-miterlimit:4;stroke-dasharray:none;stroke-opacity:1" />
    <path
       id="path59"
       d="m 179.8593,98.871653 7.3406,4.237207"
       style="fill:none;stroke:#000000;stroke-width:0.174873;stroke-linecap:butt;stroke-linejoin:miter;stroke-miterlimit:4;stroke-dasharray:none;stroke-opacity:1" />
    <path
       id="path60"
       d="m 179.8593,97.216413 7.3406,4.237567"
       style="fill:none;stroke:#000000;stroke-width:0.174873;stroke-linecap:butt;stroke-linejoin:miter;stroke-miterlimit:4;stroke-dasharray:none;stroke-opacity:1" />
    <path
       id="path61"
       d="m 187.1999,99.860833 -4.64644,-2.68146"
       style="fill:none;stroke:#000000;stroke-width:0.174873;stroke-linecap:butt;stroke-linejoin:miter;stroke-miterlimit:4;stroke-dasharray:none;stroke-opacity:1" />
    <path
       id="path62"
       d="m 187.1999,98.361533 -2.05317,-1.18498"
       style="fill:none;stroke:#000000;stroke-width:0.174873;stroke-linecap:butt;stroke-linejoin:miter;stroke-miterlimit:4;stroke-dasharray:none;stroke-opacity:1" />
    <path
       id="path63"
       d="m 179.8593,110.63573 1.9498,1.12606"
       style="fill:none;stroke:#000000;stroke-width:0.174873;stroke-linecap:butt;stroke-linejoin:miter;stroke-miterlimit:4;stroke-dasharray:none;stroke-opacity:1" />
    <path
       id="path64"
       d="m 178.1134,102.62661 v 3.24662 h 3.24803 v -3.24662 z"
       style="fill:#ffffff;fill-opacity:1;fill-rule:nonzero;stroke:#000000;stroke-width:0.330469;stroke-linecap:butt;stroke-linejoin:miter;stroke-miterlimit:4;stroke-dasharray:none;stroke-opacity:1" />
    <path
       id="path70"
       d="m 52.907424,98.157623 h 12.06606"
       style="fill:none;stroke:#810000;stroke-width:0.499999;stroke-linecap:butt;stroke-linejoin:miter;stroke-miterlimit:4;stroke-dasharray:none;stroke-opacity:1" />
    <path
       id="path71"
       d="m 62.973934,98.157623 -1.00047,1.00048 3.50026,-1.00048 -3.50026,-0.99906 z"
       style="fill:#810000;fill-opacity:1;fill-rule:evenodd;stroke:#810000;stroke-width:0.266667;stroke-linecap:butt;stroke-linejoin:miter;stroke-miterlimit:4;stroke-dasharray:none;stroke-opacity:1" />
    <path
       id="path72"
       d="m 74.925679,95.116333 c 0,-0.0854 -0.0716,-0.0854 -0.1711,-0.0854 -0.35948,0 -0.35948,-0.0427 -0.35948,-0.11289 0,-0.0497 0.0138,-0.0857 0.0205,-0.12841 l 0.96873,-3.86115 c 0.007,-0.0208 0.0222,-0.091 0.0222,-0.091 0,-0.0635 -0.0579,-0.0787 -0.0787,-0.0787 -0.0773,0 -0.33197,0.24836 -0.44486,0.44662 -0.0857,-0.20532 -0.26881,-0.45332 -0.60924,-0.45332 -0.78423,0 -1.61925,1.07492 -1.61925,2.10714 0,0.6022 0.32526,1.09679 0.85584,1.09679 0.29068,0 0.55103,-0.1845 0.74965,-0.375 -0.14076,0.55139 -0.1337,0.55139 -0.27552,1.11089 -0.0773,0.30304 -0.0857,0.33197 -0.53763,0.33902 -0.0921,0 -0.16934,0 -0.16934,0.13371 0,0.0645 0.0427,0.0854 0.0921,0.0854 0.22613,0 0.47272,-0.0208 0.70696,-0.0208 0.23319,0 0.4879,0.0208 0.71403,0.0208 0.0427,0 0.13511,0 0.13511,-0.1337 z m -0.52387,-2.1015 c -0.0565,0.21907 -0.4879,0.78563 -0.8763,0.78563 -0.33338,0 -0.39018,-0.41768 -0.39018,-0.63006 0,-0.35277 0.21943,-1.18074 0.34749,-1.47708 0.17639,-0.43144 0.50165,-0.78563 0.79093,-0.78563 0.0579,0 0.22048,0.007 0.34713,0.20531 0.0706,0.11325 0.14217,0.31856 0.14217,0.45226 0,0.0219 -0.008,0.0494 -0.0222,0.0921 z"
       style="fill:#000000;fill-opacity:1;fill-rule:nonzero;stroke:none;stroke-width:0.352778" />
    <path
       id="path72-8"
       d="m 153.87776,95.380916 c 0,-0.0854 -0.0716,-0.0854 -0.1711,-0.0854 -0.35948,0 -0.35948,-0.0427 -0.35948,-0.11289 0,-0.0497 0.0138,-0.0857 0.0205,-0.12841 l 0.96873,-3.86115 c 0.007,-0.0208 0.0222,-0.091 0.0222,-0.091 0,-0.0635 -0.0579,-0.0787 -0.0787,-0.0787 -0.0773,0 -0.33197,0.24836 -0.44486,0.44662 -0.0857,-0.20532 -0.26881,-0.45332 -0.60924,-0.45332 -0.78423,0 -1.61925,1.07492 -1.61925,2.10714 0,0.6022 0.32526,1.09679 0.85584,1.09679 0.29068,0 0.55103,-0.1845 0.74965,-0.375 -0.14076,0.55139 -0.1337,0.55139 -0.27552,1.11089 -0.0773,0.30304 -0.0857,0.33197 -0.53763,0.33902 -0.0921,0 -0.16934,0 -0.16934,0.13371 0,0.0645 0.0427,0.0854 0.0921,0.0854 0.22613,0 0.47272,-0.0208 0.70696,-0.0208 0.23319,0 0.4879,0.0208 0.71403,0.0208 0.0427,0 0.13511,0 0.13511,-0.1337 z m -0.52387,-2.1015 c -0.0565,0.21907 -0.4879,0.78563 -0.8763,0.78563 -0.33338,0 -0.39018,-0.41768 -0.39018,-0.63006 0,-0.35277 0.21943,-1.18074 0.34749,-1.47708 0.17639,-0.43144 0.50165,-0.78563 0.79093,-0.78563 0.0579,0 0.22048,0.007 0.34713,0.20531 0.0706,0.11325 0.14217,0.31856 0.14217,0.45226 0,0.0219 -0.008,0.0494 -0.0222,0.0921 z"
       style="fill:#000000;fill-opacity:1;fill-rule:nonzero;stroke:none;stroke-width:0.352778" />
    <path
       id="path73"
       d="m 68.136134,98.157623 h 12.06606"
       style="fill:none;stroke:#810000;stroke-width:0.499999;stroke-linecap:butt;stroke-linejoin:miter;stroke-miterlimit:4;stroke-dasharray:none;stroke-opacity:1" />
    <path
       id="path74"
       d="m 78.201234,98.157623 -0.99906,1.00048 3.50026,-1.00048 -3.50026,-0.99906 z"
       style="fill:#810000;fill-opacity:1;fill-rule:evenodd;stroke:#810000;stroke-width:0.266667;stroke-linecap:butt;stroke-linejoin:miter;stroke-miterlimit:4;stroke-dasharray:none;stroke-opacity:1" />
    <path
       id="path75"
       d="m 83.363434,98.157623 h 12.06606"
       style="fill:none;stroke:#810000;stroke-width:0.499999;stroke-linecap:butt;stroke-linejoin:miter;stroke-miterlimit:4;stroke-dasharray:none;stroke-opacity:1" />
    <path
       id="path76"
       d="m 93.429944,98.157623 -1.00047,1.00048 3.50026,-1.00048 -3.50026,-0.99906 z"
       style="fill:#810000;fill-opacity:1;fill-rule:evenodd;stroke:#810000;stroke-width:0.266667;stroke-linecap:butt;stroke-linejoin:miter;stroke-miterlimit:4;stroke-dasharray:none;stroke-opacity:1" />
    <path
       id="path77"
       d="m 132.4576,98.157623 h 12.06607"
       style="fill:none;stroke:#810000;stroke-width:0.499999;stroke-linecap:butt;stroke-linejoin:miter;stroke-miterlimit:4;stroke-dasharray:none;stroke-opacity:1" />
    <path
       id="path78"
       d="m 142.52412,98.157623 -1.00048,1.00048 3.50027,-1.00048 -3.50027,-0.99906 z"
       style="fill:#810000;fill-opacity:1;fill-rule:evenodd;stroke:#810000;stroke-width:0.266667;stroke-linecap:butt;stroke-linejoin:miter;stroke-miterlimit:4;stroke-dasharray:none;stroke-opacity:1" />
    <path
       id="path79"
       d="m 147.68632,98.157623 h 12.06606"
       style="fill:none;stroke:#810000;stroke-width:0.499999;stroke-linecap:butt;stroke-linejoin:miter;stroke-miterlimit:4;stroke-dasharray:none;stroke-opacity:1" />
    <path
       id="path80"
       d="m 157.75142,98.157623 -0.99906,1.00048 3.50026,-1.00048 -3.50026,-0.99906 z"
       style="fill:#810000;fill-opacity:1;fill-rule:evenodd;stroke:#810000;stroke-width:0.266667;stroke-linecap:butt;stroke-linejoin:miter;stroke-miterlimit:4;stroke-dasharray:none;stroke-opacity:1" />
    <path
       id="path81"
       d="m 162.91362,98.157623 h 12.06606"
       style="fill:none;stroke:#810000;stroke-width:0.499999;stroke-linecap:butt;stroke-linejoin:miter;stroke-miterlimit:4;stroke-dasharray:none;stroke-opacity:1" />
    <path
       id="path82"
       d="m 172.98013,98.157623 -1.00048,1.00048 3.50027,-1.00048 -3.50027,-0.99906 z"
       style="fill:#810000;fill-opacity:1;fill-rule:evenodd;stroke:#810000;stroke-width:0.266667;stroke-linecap:butt;stroke-linejoin:miter;stroke-miterlimit:4;stroke-dasharray:none;stroke-opacity:1" />
    <path
       id="path15-4"
       d="m 73.210914,110.19335 c 0,-0.0787 -0.0854,-0.0787 -0.10618,-0.0787 -0.0773,0 -0.0854,0.008 -0.14888,0.1711 -0.40922,0.97543 -0.65722,1.43439 -1.78188,1.43439 h -0.86254 c -0.21907,0 -0.21907,-0.0208 -0.21907,-0.0702 0,-0.0427 0.0208,-0.11289 0.0275,-0.15593 l 0.48931,-1.94415 h 0.61453 c 0.48084,0 0.53058,0.11288 0.53058,0.30444 0,0.0483 -0.007,0.15452 -0.0635,0.35984 0,0 -0.0152,0.0564 -0.0152,0.0783 0,0.084 0.0716,0.084 0.11466,0.084 0.0769,0 0.0977,-0.0137 0.12664,-0.1404 l 0.38876,-1.55575 c 0.007,-0.0222 0.0219,-0.0924 0.0219,-0.0924 0,-0.0854 -0.0854,-0.0854 -0.1143,-0.0854 -0.091,0 -0.091,0.0219 -0.13371,0.17074 -0.13511,0.50165 -0.26881,0.65758 -0.84208,0.65758 h -0.57185 l 0.43145,-1.7406 c 0.0564,-0.23284 0.10583,-0.23989 0.33902,-0.23989 h 0.88335 c 0.76482,0 0.94121,0.21237 0.94121,0.71402 0,0.19156 -0.0141,0.28257 -0.036,0.45332 -0.007,0.0346 -0.0138,0.0977 -0.0138,0.11994 0,0.084 0.0773,0.084 0.10619,0.084 0.0991,0 0.10583,-0.0275 0.11994,-0.15416 l 0.16228,-1.25271 c 0.0222,-0.18345 -0.0205,-0.18345 -0.16933,-0.18345 h -3.30165 c -0.12136,0 -0.19156,0 -0.19156,0.127 0,0.0921 0.0494,0.0921 0.19156,0.0921 0.40922,0 0.40922,0.0564 0.40922,0.11994 0,0 0,0.0565 -0.0275,0.16263 l -0.94827,3.79095 c -0.0564,0.23989 -0.0991,0.29633 -0.57997,0.29633 -0.11324,0 -0.19014,0 -0.19014,0.13512 0,0.084 0.0631,0.084 0.17638,0.084 h 3.38702 c 0.14182,0 0.14888,-0.007 0.19862,-0.11289 l 0.62829,-1.54905 c 0.008,-0.0138 0.0289,-0.084 0.0289,-0.084 z"
       style="fill:#000000;fill-opacity:1;fill-rule:nonzero;stroke:none;stroke-width:0.352778"
       sodipodi:nodetypes="cscsssccsscsscccscsccssscssccsssscccsssscccc" />
    <path
       id="path16-0"
       d="m 78.040794,111.8126 c 0,-0.0924 -0.0564,-0.0924 -0.16933,-0.0924 -0.36795,0 -0.38876,-0.0564 -0.40393,-0.23988 l -0.30304,-4.42737 c -0.007,-0.15592 -0.0152,-0.17638 -0.12806,-0.17638 -0.11324,0 -0.14075,0.0494 -0.18344,0.12664 l -2.34809,4.13809 c -0.30445,0.53763 -0.60784,0.56515 -0.85584,0.5789 -0.0773,0.007 -0.084,0.13512 -0.084,0.13512 0,0.0205 0.007,0.084 0.084,0.084 0.17639,0 0.38171,-0.0205 0.56656,-0.0205 0.21908,0 0.44486,0.0205 0.65723,0.0205 0.0356,0 0.12665,0 0.12665,-0.1337 0,-0.0783 -0.0564,-0.0783 -0.11289,-0.0854 -0.0427,-0.007 -0.29634,-0.0208 -0.29634,-0.23988 0,-0.0631 0.0346,-0.14852 0.0991,-0.26847 l 0.50871,-0.89182 h 1.61219 l 0.0787,1.17404 c 0,0.14217 -0.17109,0.22613 -0.47413,0.22613 -0.0787,0 -0.16263,0 -0.16263,0.13512 0,0.084 0.084,0.084 0.10619,0.084 0.26176,0 0.54433,-0.0205 0.8128,-0.0205 0.24694,0 0.50165,0.0205 0.74295,0.0205 0.0413,0 0.12664,0 0.12664,-0.12665 z m -1.24424,-1.71168 h -1.4785 l 1.31586,-2.3121 z"
       style="fill:#000000;fill-opacity:1;fill-rule:nonzero;stroke:none;stroke-width:0.352778"
       sodipodi:nodetypes="ssccsccccsssscsccccssssssscccc" />
    <path
       id="path17-7"
       d="m 78.626404,113.35459 h 1.28306 v -0.0688 h -0.0744 c -0.22437,0 -0.32103,-0.0469 -0.32103,-0.14746 0,-0.0787 0.073,-0.2854 0.0825,-0.34043 l 0.65758,-2.38548 c 0.018,-0.0688 0.0275,-0.11007 0.0275,-0.13371 0,-0.018 -0.01,-0.0318 -0.0236,-0.0318 l -0.78952,0.15593 c -0.01,0 -0.0469,0.01 -0.0963,0.019 v 0.0692 l 0.26176,-0.01 h 0.008 c 0.10195,0 0.16545,0.0593 0.16545,0.14217 0,0.0275 -0.008,0.0744 -0.0318,0.15698 l -0.63394,2.26131 c -0.0466,0.16969 -0.15134,0.21625 -0.51541,0.248 z"
       style="fill:#000000;fill-opacity:1;fill-rule:nonzero;stroke:none;stroke-width:0.352778"
       sodipodi:nodetypes="cccssccscccccsscccc" />
    <path
       id="path29-3"
       d="m 154.78675,110.19335 c 0,-0.0787 -0.084,-0.0787 -0.10619,-0.0787 -0.0769,0 -0.084,0.008 -0.14851,0.1711 -0.40958,0.97543 -0.65758,1.43439 -1.78189,1.43439 h -0.86289 c -0.21907,0 -0.21907,-0.0208 -0.21907,-0.0702 0,-0.0427 0.0208,-0.11289 0.0289,-0.15593 l 0.48789,-1.94415 h 0.61454 c 0.48119,0 0.53058,0.11288 0.53058,0.30444 0,0.0483 -0.007,0.15452 -0.0632,0.35984 0,0 -0.0137,0.0564 -0.0137,0.0783 0,0.084 0.0702,0.084 0.11288,0.084 0.0773,0 0.0977,-0.0137 0.12665,-0.1404 l 0.38876,-1.55575 c 0.007,-0.0222 0.0219,-0.0924 0.0219,-0.0924 0,-0.0854 -0.0854,-0.0854 -0.11289,-0.0854 -0.0924,0 -0.0924,0.0219 -0.13512,0.17074 -0.1337,0.50165 -0.26881,0.65758 -0.84208,0.65758 h -0.57185 l 0.43145,-1.7406 c 0.0564,-0.23284 0.10618,-0.23989 0.33902,-0.23989 h 0.88335 c 0.76482,0 0.94121,0.21237 0.94121,0.71402 0,0.19156 -0.0138,0.28257 -0.036,0.45332 -0.007,0.0346 -0.0138,0.0977 -0.0138,0.11994 0,0.084 0.0787,0.084 0.10619,0.084 0.0991,0 0.10618,-0.0275 0.11994,-0.15416 l 0.16263,-1.25271 c 0.0219,-0.18345 -0.0208,-0.18345 -0.16968,-0.18345 h -3.30165 c -0.12136,0 -0.19156,0 -0.19156,0.127 0,0.0921 0.0497,0.0921 0.19156,0.0921 0.40922,0 0.40922,0.0564 0.40922,0.11994 0,0 0,0.0565 -0.0275,0.16263 l -0.94826,3.79095 c -0.0565,0.23989 -0.0991,0.29633 -0.57997,0.29633 -0.11289,0 -0.19015,0 -0.19015,0.13512 0,0.084 0.0635,0.084 0.17639,0.084 h 3.38702 c 0.14217,0 0.14887,-0.007 0.19862,-0.11289 l 0.6297,-1.54905 c 0.007,-0.0138 0.0275,-0.084 0.0275,-0.084 z"
       style="fill:#000000;fill-opacity:1;fill-rule:nonzero;stroke:none;stroke-width:0.352778"
       sodipodi:nodetypes="cscsssccsscsscccscsccssscssccsssscccsssscccc" />
    <path
       id="path30-6"
       d="m 159.61698,111.8126 c -0.0375,-0.0844 -0.0568,-0.0924 -0.16968,-0.0924 -0.36795,0 -0.38841,-0.0564 -0.40358,-0.23988 l -0.30339,-4.42737 c -0.007,-0.15592 -0.0138,-0.17638 -0.12806,-0.17638 -0.11289,0 -0.1404,0.0494 -0.18344,0.12664 l -2.34809,4.13809 c -0.30304,0.53763 -0.60748,0.56515 -0.85584,0.5789 -0.0769,0.007 -0.084,0.13512 -0.084,0.13512 0,0.0205 0.007,0.084 0.084,0.084 0.1778,0 0.38171,-0.0205 0.56656,-0.0205 0.21908,0 0.44521,0.0205 0.65723,0.0205 0.036,0 0.12664,0 0.12664,-0.1337 0,-0.0783 -0.0564,-0.0783 -0.11288,-0.0854 -0.0413,-0.007 -0.29634,-0.0208 -0.29634,-0.23988 0,-0.0631 0.0346,-0.14852 0.0995,-0.26847 l 0.50835,-0.89182 h 1.61219 l 0.0787,1.17404 c 0,0.14217 -0.17074,0.22613 -0.47413,0.22613 -0.0783,0 -0.16263,0 -0.16263,0.13512 0,0.084 0.0843,0.084 0.10618,0.084 0.26177,0 0.54434,-0.0205 0.81316,-0.0205 0.248,0 0.50165,0.0205 0.74259,0.0205 0.0427,0 0.17843,-0.0109 0.127,-0.12665 z m -1.2446,-1.71168 h -1.47849 l 1.31586,-2.3121 z"
       style="fill:#000000;fill-opacity:1;fill-rule:nonzero;stroke:none;stroke-width:0.352778"
       sodipodi:nodetypes="ssccsccccsssscsccccssssssscccc" />
    <path
       id="path31-4"
       d="m 160.34582,110.98287 0.0963,0.0317 c 0.16969,-0.29916 0.36795,-0.43286 0.64382,-0.43286 0.32632,0 0.57468,0.23989 0.57468,0.56092 0,0.22048 -0.11995,0.52916 -0.66287,1.10384 l -0.96485,1.0294 v 0.0787 h 1.6316 l 0.23036,-0.60783 -0.0787,-0.0317 c -0.11042,0.23036 -0.20673,0.28963 -0.45473,0.28963 h -0.87383 v -0.0222 l 0.88335,-0.88335 c 0.53764,-0.53728 0.6851,-0.76729 0.6851,-1.07068 0,-0.44098 -0.32667,-0.78141 -0.74577,-0.78141 -0.36231,0 -0.7359,0.16546 -0.9645,0.7359 z"
       style="fill:#000000;fill-opacity:1;fill-rule:nonzero;stroke:none;stroke-width:0.352778"
       sodipodi:nodetypes="ccssccccccscccsscc" />
    <path
       id="path27-7"
       d="m 99.747893,104.26104 h 7.999587"
       style="fill:none;stroke:#000000;stroke-width:0.899999;stroke-linecap:butt;stroke-linejoin:miter;stroke-miterlimit:3.9;stroke-dasharray:none;stroke-opacity:1" />
    <path
       id="path28-3"
       d="m 107.74748,104.26104 -2.24896,2.25038 7.874,-2.25038 -7.874,-2.25039 z"
       style="fill:#000000;fill-opacity:1;fill-rule:evenodd;stroke:none;stroke-width:0.352777" />
    <path
       id="path27-7-7"
       d="m 130.16838,104.37954 h -7.862"
       style="fill:none;stroke:#000000;stroke-width:0.892225;stroke-linecap:butt;stroke-linejoin:miter;stroke-miterlimit:3.9;stroke-dasharray:none;stroke-opacity:1" />
    <path
       id="path28-3-3"
       d="m 122.30638,104.37954 2.24896,2.25038 -7.874,-2.25038 7.874,-2.25039 z"
       style="fill:#000000;fill-opacity:1;fill-rule:evenodd;stroke:none;stroke-width:0.352777" />
    <path
       id="path39"
       d="m 104.60024,98.131797 0.16263,-1.252361 c 0.0219,-0.183445 -0.0208,-0.183445 -0.16968,-0.183445 h -3.21769 c -0.11994,0 -0.19156,0 -0.19156,0.126648 0,0.09243 0.0497,0.09243 0.19156,0.09243 0.41063,0 0.41063,0.05644 0.41063,0.119945 0,0 0,0.05644 -0.0289,0.16263 l -0.94792,3.790956 c -0.0564,0.23989 -0.0981,0.29774 -0.57891,0.29774 -0.11288,0 -0.19156,0 -0.19156,0.1337 0,0.0854 0.0787,0.0854 0.0991,0.0854 0.28257,0 0.58031,-0.0222 0.86289,-0.0222 0.32526,0 0.65722,0.0222 0.97543,0.0222 0.0635,0 0.14887,0 0.14887,-0.13511 0,-0.084 -0.0631,-0.084 -0.17639,-0.084 h -0.0716 c -0.51541,0 -0.51541,-0.0579 -0.51541,-0.14887 0,-0.0289 0,-0.0427 0.0275,-0.14888 l 0.44661,-1.78188 h 0.58703 c 0.45896,0 0.52246,0.106186 0.52246,0.296333 0,0.121356 -0.0279,0.234244 -0.0568,0.347133 -0.0138,0.04974 -0.0204,0.07726 -0.0204,0.09948 0,0.084 0.0773,0.084 0.10619,0.084 0.0769,0 0.0991,-0.007 0.13335,-0.140764 l 0.39017,-1.555737 c 0.007,-0.02893 0.0138,-0.06456 0.0138,-0.09913 0,-0.07867 -0.0854,-0.07867 -0.10619,-0.07867 -0.0924,0 -0.0991,0.02223 -0.13511,0.148873 -0.12665,0.50165 -0.23954,0.67945 -0.82656,0.67945 h -0.55139 l 0.4519,-1.83127 c 0.0568,-0.234244 0.10618,-0.2413 0.33902,-0.2413 h 0.82832 c 0.75671,0 0.91228,0.219075 0.91228,0.706967 0,0.169333 -0.0222,0.304447 -0.0427,0.467078 l -0.007,0.113241 c 0,0.08537 0.0773,0.08537 0.10619,0.08537 0.0991,0 0.10618,-0.02893 0.11994,-0.155928 z"
       style="fill:#000000;fill-opacity:1;fill-rule:nonzero;stroke:none;stroke-width:0.352777" />
    <path
       id="path39-0"
       d="m 92.660035,87.939387 h 7.816195"
       style="fill:none;stroke:#00ce99;stroke-width:1.78551;stroke-linecap:butt;stroke-linejoin:miter;stroke-miterlimit:4;stroke-dasharray:none;stroke-opacity:1" />
    <path
       id="path40"
       d="m 98.585709,87.939387 -1.576531,2.023181 5.514982,-2.023181 -5.514982,-2.024238 z"
       style="fill:#00ce99;fill-opacity:1;fill-rule:evenodd;stroke:#00ce99;stroke-width:0.476137;stroke-linecap:butt;stroke-linejoin:miter;stroke-miterlimit:4;stroke-dasharray:none;stroke-opacity:1" />
    <path
       id="path41"
       d="m 96.340821,90.425412 6.921749,-2.535413 -6.843189,-2.466623 1.105144,1.521178 h -4.816142 v 2.027061 h 4.737572 z"
       style="fill:#ffffff;fill-opacity:1;fill-rule:nonzero;stroke:#000000;stroke-width:0.236208;stroke-linecap:butt;stroke-linejoin:miter;stroke-miterlimit:4;stroke-dasharray:none;stroke-opacity:1" />
    <path
       id="path42"
       d="m 98.050872,82.547179 c 0,-0.0702 -0.0564,-0.0702 -0.10583,-0.0702 -0.0843,0 -0.091,0.0067 -0.133707,0.16263 -0.0995,0.396875 -0.23318,0.842081 -0.474127,0.842081 -0.18344,0 -0.18344,-0.191559 -0.18344,-0.291042 0,-0.04939 0,-0.162631 0.0497,-0.359481 l 0.508347,-2.036938 c 0.0138,-0.04269 0.0208,-0.07832 0.0208,-0.09913 0,-0.07832 -0.0564,-0.184503 -0.19721,-0.184503 -0.212017,0 -0.261757,0.205317 -0.275517,0.261761 l -0.516817,2.065514 c -0.0356,0.127 -0.0356,0.140759 -0.0991,0.233186 -0.1337,0.198261 -0.33902,0.410634 -0.650517,0.410634 -0.318197,0 -0.381697,-0.311503 -0.381697,-0.544336 0,-0.431448 0.232827,-1.068212 0.410627,-1.549048 0.0564,-0.148872 0.091,-0.248002 0.091,-0.381705 0,-0.354189 -0.23284,-0.573264 -0.537277,-0.573264 -0.657583,0 -0.905585,1.047397 -0.905585,1.088672 0,0.07161 0.07161,0.07161 0.106186,0.07161 0.09243,0 0.09913,-0.01517 0.128058,-0.112889 0.05644,-0.220486 0.246944,-0.891822 0.657581,-0.891822 0.0769,0 0.15557,0.02081 0.15557,0.205317 0,0.169686 -0.0702,0.359833 -0.16933,0.636764 -0.18486,0.494594 -0.367949,1.018469 -0.367949,1.385005 0,0.61595 0.410629,0.821267 0.792336,0.821267 0.374647,0 0.614537,-0.212373 0.783867,-0.424392 0.128407,0.381706 0.431447,0.424392 0.566557,0.424392 0.261757,0 0.409227,-0.1778 0.515407,-0.396875 0.128057,-0.268817 0.212017,-0.693209 0.212017,-0.693209 z"
       style="fill:#000000;fill-opacity:1;fill-rule:nonzero;stroke:none;stroke-width:0.352778" />
    <path
       id="path43"
       d="m 98.249482,82.601154 0.0963,0.03281 c 0.171097,-0.298803 0.367947,-0.432506 0.643464,-0.432506 0.32667,0 0.574667,0.239536 0.574667,0.560917 0,0.220486 -0.119587,0.529166 -0.661444,1.103489 l -0.965907,1.029405 v 0.07867 h 1.631591 l 0.23001,-0.607837 -0.0769,-0.0314 c -0.11183,0.230011 -0.20814,0.289278 -0.456137,0.289278 h -0.872414 v -0.02364 l 0.881944,-0.881944 c 0.537277,-0.537281 0.684737,-0.767292 0.684737,-1.070681 0,-0.442383 -0.32632,-0.781403 -0.744007,-0.781403 -0.363707,0 -0.735887,0.165453 -0.965904,0.734836 z"
       style="fill:#000000;fill-opacity:1;fill-rule:nonzero;stroke:none;stroke-width:0.352778" />
    <path
       id="path39-0-6"
       d="m 126.54072,87.939378 h 7.8162"
       style="fill:none;stroke:#00ce99;stroke-width:1.78551;stroke-linecap:butt;stroke-linejoin:miter;stroke-miterlimit:4;stroke-dasharray:none;stroke-opacity:1" />
    <path
       id="path40-7"
       d="m 132.4664,87.939378 -1.57653,2.023181 5.51498,-2.023181 -5.51498,-2.024238 z"
       style="fill:#00ce99;fill-opacity:1;fill-rule:evenodd;stroke:#00ce99;stroke-width:0.476137;stroke-linecap:butt;stroke-linejoin:miter;stroke-miterlimit:4;stroke-dasharray:none;stroke-opacity:1" />
    <path
       id="path41-0"
       d="m 130.22151,90.425403 6.92175,-2.535413 -6.84319,-2.466623 1.10514,1.521178 h -4.81614 v 2.027061 h 4.73757 z"
       style="fill:#ffffff;fill-opacity:1;fill-rule:nonzero;stroke:#000000;stroke-width:0.236208;stroke-linecap:butt;stroke-linejoin:miter;stroke-miterlimit:4;stroke-dasharray:none;stroke-opacity:1" />
    <path
       id="path42-9"
       d="m 131.93156,82.54717 c 0,-0.0702 -0.0564,-0.0702 -0.10583,-0.0702 -0.0843,0 -0.091,0.0067 -0.13371,0.16263 -0.0995,0.396875 -0.23318,0.842081 -0.47412,0.842081 -0.18344,0 -0.18344,-0.191559 -0.18344,-0.291042 0,-0.04939 0,-0.162631 0.0497,-0.359481 l 0.50834,-2.036938 c 0.0138,-0.04269 0.0208,-0.07832 0.0208,-0.09913 0,-0.07832 -0.0564,-0.184503 -0.19721,-0.184503 -0.21201,0 -0.26175,0.205317 -0.27551,0.261761 l -0.51682,2.065514 c -0.0356,0.127 -0.0356,0.140759 -0.0991,0.233186 -0.1337,0.198261 -0.33902,0.410634 -0.65052,0.410634 -0.31819,0 -0.3817,-0.311503 -0.3817,-0.544336 0,-0.431448 0.23283,-1.068212 0.41063,-1.549048 0.0564,-0.148872 0.091,-0.248002 0.091,-0.381705 0,-0.354189 -0.23284,-0.573264 -0.53728,-0.573264 -0.65758,0 -0.90558,1.047397 -0.90558,1.088672 0,0.07161 0.0716,0.07161 0.10619,0.07161 0.0924,0 0.0991,-0.01517 0.12805,-0.112889 0.0564,-0.220486 0.24695,-0.891822 0.65758,-0.891822 0.0769,0 0.15557,0.02081 0.15557,0.205317 0,0.169686 -0.0702,0.359833 -0.16933,0.636764 -0.18486,0.494594 -0.36794,1.018469 -0.36794,1.385005 0,0.61595 0.41062,0.821267 0.79233,0.821267 0.37465,0 0.61454,-0.212373 0.78387,-0.424392 0.12841,0.381706 0.43145,0.424392 0.56656,0.424392 0.26175,0 0.40922,-0.1778 0.5154,-0.396875 0.12806,-0.268817 0.21202,-0.693209 0.21202,-0.693209 z"
       style="fill:#000000;fill-opacity:1;fill-rule:nonzero;stroke:none;stroke-width:0.352778" />
    <path
       id="path43-8"
       d="m 132.13017,82.601145 0.0963,0.03281 c 0.1711,-0.298803 0.36795,-0.432506 0.64346,-0.432506 0.32667,0 0.57467,0.239536 0.57467,0.560917 0,0.220486 -0.11959,0.529166 -0.66144,1.103489 l -0.96591,1.029405 v 0.07867 h 1.63159 l 0.23001,-0.607837 -0.0769,-0.0314 c -0.11183,0.230011 -0.20814,0.289278 -0.45614,0.289278 h -0.87241 v -0.02364 l 0.88194,-0.881944 c 0.53728,-0.537281 0.68474,-0.767292 0.68474,-1.070681 0,-0.442383 -0.32632,-0.781403 -0.74401,-0.781403 -0.3637,0 -0.73588,0.165453 -0.9659,0.734836 z"
       style="fill:#000000;fill-opacity:1;fill-rule:nonzero;stroke:none;stroke-width:0.352778" />
    <path
       id="path39-5"
       d="m 126.79888,98.008717 0.16263,-1.252361 c 0.0219,-0.183445 -0.0208,-0.183445 -0.16968,-0.183445 h -3.21769 c -0.11994,0 -0.19156,0 -0.19156,0.126648 0,0.09243 0.0497,0.09243 0.19156,0.09243 0.41063,0 0.41063,0.05644 0.41063,0.119945 0,0 0,0.05644 -0.0289,0.16263 l -0.94792,3.790956 c -0.0564,0.23989 -0.0981,0.29774 -0.5789,0.29774 -0.11289,0 -0.19156,0 -0.19156,0.1337 0,0.0854 0.0787,0.0854 0.0991,0.0854 0.28257,0 0.58031,-0.0222 0.86289,-0.0222 0.32526,0 0.65722,0.0222 0.97543,0.0222 0.0635,0 0.14887,0 0.14887,-0.13511 0,-0.084 -0.0631,-0.084 -0.17639,-0.084 h -0.0716 c -0.51541,0 -0.51541,-0.0579 -0.51541,-0.14887 0,-0.0289 0,-0.0427 0.0275,-0.14888 l 0.44661,-1.78188 h 0.58703 c 0.45896,0 0.52246,0.106186 0.52246,0.296333 0,0.121356 -0.0279,0.234244 -0.0568,0.347133 -0.0138,0.04974 -0.0204,0.07726 -0.0204,0.09948 0,0.084 0.0773,0.084 0.10619,0.084 0.0769,0 0.0991,-0.007 0.13335,-0.140784 l 0.39017,-1.555737 c 0.007,-0.02893 0.0138,-0.06456 0.0138,-0.09913 0,-0.07867 -0.0854,-0.07867 -0.10619,-0.07867 -0.0924,0 -0.0991,0.02223 -0.13511,0.148873 -0.12665,0.50165 -0.23954,0.67945 -0.82656,0.67945 h -0.55139 l 0.4519,-1.83127 c 0.0568,-0.234244 0.10618,-0.2413 0.33902,-0.2413 h 0.82832 c 0.75671,0 0.91228,0.219075 0.91228,0.706967 0,0.169333 -0.0222,0.304447 -0.0427,0.467078 l -0.007,0.113241 c 0,0.08537 0.0773,0.08537 0.10619,0.08537 0.0991,0 0.10618,-0.02893 0.11994,-0.155928 z"
       style="fill:#000000;fill-opacity:1;fill-rule:nonzero;stroke:none;stroke-width:0.352777"
       sodipodi:nodetypes="ccsssscccsssssssssccsscssccsscsccsssccscc" />
    <text
       xml:space="preserve"
       transform="matrix(0.26458333,0,0,0.26458333,44.733387,83.894469)"
       id="text1"
       style="white-space:pre;shape-inside:url(#rect1);fill:#000000;stroke:#000000;stroke-width:0"
       inkscape:label="text1"><tspan
         x="228.39453"
         y="54.860137"
         id="tspan6"><tspan
           style="font-size:16px;font-family:'Times New Roman';-inkscape-font-specification:'Times New Roman, Normal'"
           id="tspan5">(1)</tspan></tspan></text>
    <text
       xml:space="preserve"
       transform="matrix(0.26458333,0,0,0.26458333,66.712939,83.158402)"
       id="text1-1"
       style="white-space:pre;shape-inside:url(#rect1-2);fill:#000000;stroke:#000000;stroke-width:0"
       inkscape:label="text1"><tspan
         x="228.39453"
         y="54.860137"
         id="tspan8"><tspan
           style="font-size:16px;font-family:'Times New Roman';-inkscape-font-specification:'Times New Roman, Normal'"
           id="tspan7">(2)</tspan></tspan></text>
    <text
       xml:space="preserve"
       transform="matrix(0.26458333,0,0,0.26458333,42.8625,80.433329)"
       id="text2"
       style="fill:#000000;stroke-width:0;stroke:#000000;-inkscape-font-specification:'Times New Roman, Normal';font-family:'Times New Roman';font-weight:normal;font-style:normal;font-stretch:normal;font-variant:normal;font-size:16px;font-variant-ligatures:normal;font-variant-caps:normal;font-variant-numeric:normal;font-variant-east-asian:normal;white-space:pre;shape-inside:url(#rect2)" />
  </g>
  <metadata
     id="metadata1">
    <rdf:RDF>
      <cc:Work
         rdf:about="">
        <dc:title>Extension 2 field displacement method statically determinate</dc:title>
      </cc:Work>
    </rdf:RDF>
  </metadata>
</svg>
