<?xml version="1.0" encoding="UTF-8" standalone="no"?>
<!-- Created with Inkscape (http://www.inkscape.org/) -->

<svg
   version="1.1"
   id="svg1"
   width="307.66367"
   height="91.985565"
   viewBox="0 0 307.66367 91.985565"
   sodipodi:docname="extensionelement.svg"
   inkscape:version="1.3.2 (091e20e, 2023-11-25, custom)"
   xmlns:inkscape="http://www.inkscape.org/namespaces/inkscape"
   xmlns:sodipodi="http://sodipodi.sourceforge.net/DTD/sodipodi-0.dtd"
   xmlns="http://www.w3.org/2000/svg"
   xmlns:svg="http://www.w3.org/2000/svg"
   xmlns:rdf="http://www.w3.org/1999/02/22-rdf-syntax-ns#"
   xmlns:cc="http://creativecommons.org/ns#"
   xmlns:dc="http://purl.org/dc/elements/1.1/">
  <title
     id="title25">Extension element</title>
  <defs
     id="defs1" />
  <sodipodi:namedview
     id="namedview1"
     pagecolor="#ffffff"
     bordercolor="#000000"
     borderopacity="0.25"
     inkscape:showpageshadow="2"
     inkscape:pageopacity="0.0"
     inkscape:pagecheckerboard="0"
     inkscape:deskcolor="#d1d1d1"
     inkscape:zoom="3.984871"
     inkscape:cx="153.83183"
     inkscape:cy="46.04917"
     inkscape:window-width="1920"
     inkscape:window-height="1001"
     inkscape:window-x="-9"
     inkscape:window-y="-9"
     inkscape:window-maximized="1"
     inkscape:current-layer="g1">
    <inkscape:page
       x="0"
       y="0"
       inkscape:label="1"
       id="page1"
       width="307.66367"
       height="91.985565"
       margin="0"
       bleed="0" />
  </sodipodi:namedview>
  <g
     id="g1"
     inkscape:groupmode="layer"
     inkscape:label="1">
    <path
       id="path1"
       d="M 47.516,25.52 H 183.23"
       style="fill:none;stroke:#000000;stroke-width:2.83465;stroke-linecap:butt;stroke-linejoin:miter;stroke-miterlimit:4;stroke-dasharray:none;stroke-opacity:1"
       transform="scale(1.3333333)" />
    <path
       id="path2"
       d="m 103.285,42.324 c 0,-0.222 -0.238,-0.222 -0.301,-0.222 -0.218,0 -0.238,0.023 -0.418,0.484 -1.164,2.766 -1.867,4.066 -5.054,4.066 h -2.446 c -0.621,0 -0.621,-0.058 -0.621,-0.199 0,-0.121 0.063,-0.32 0.082,-0.441 L 95.91,40.5 h 1.742 c 1.364,0 1.504,0.32 1.504,0.863 0,0.141 -0.019,0.438 -0.179,1.02 0,0 -0.039,0.16 -0.039,0.222 0,0.239 0.199,0.239 0.32,0.239 0.219,0 0.281,-0.039 0.359,-0.399 l 1.102,-4.41 c 0.019,-0.062 0.062,-0.262 0.062,-0.262 0,-0.242 -0.242,-0.242 -0.32,-0.242 -0.262,0 -0.262,0.063 -0.383,0.485 -0.379,1.422 -0.762,1.863 -2.387,1.863 H 96.07 l 1.223,-4.934 c 0.16,-0.66 0.301,-0.679 0.961,-0.679 h 2.508 c 2.164,0 2.664,0.601 2.664,2.023 0,0.543 -0.039,0.805 -0.102,1.285 -0.019,0.098 -0.039,0.281 -0.039,0.34 0,0.242 0.223,0.242 0.301,0.242 0.281,0 0.301,-0.082 0.34,-0.441 l 0.461,-3.551 c 0.062,-0.519 -0.059,-0.519 -0.481,-0.519 h -9.359 c -0.34,0 -0.543,0 -0.543,0.359 0,0.262 0.141,0.262 0.543,0.262 1.16,0 1.16,0.16 1.16,0.339 0,0 0,0.161 -0.078,0.461 l -2.688,10.746 c -0.16,0.68 -0.281,0.84 -1.644,0.84 -0.32,0 -0.539,0 -0.539,0.383 0,0.242 0.18,0.242 0.5,0.242 h 9.601 c 0.403,0 0.422,-0.023 0.563,-0.324 l 1.785,-4.387 c 0.02,-0.043 0.078,-0.242 0.078,-0.242 z"
       style="fill:#000000;fill-opacity:1;fill-rule:nonzero;stroke:none"
       transform="scale(1.3333333)" />
    <path
       id="path3"
       d="m 116.977,46.914 c 0,-0.262 -0.161,-0.262 -0.481,-0.262 -1.043,0 -1.101,-0.16 -1.141,-0.679 l -0.863,-12.551 c -0.019,-0.438 -0.039,-0.5 -0.359,-0.5 -0.324,0 -0.403,0.14 -0.524,0.363 l -6.656,11.727 c -0.859,1.523 -1.723,1.601 -2.426,1.64 -0.218,0.02 -0.238,0.383 -0.238,0.383 0,0.059 0.02,0.242 0.238,0.242 0.504,0 1.086,-0.062 1.606,-0.062 0.621,0 1.262,0.062 1.863,0.062 0.102,0 0.363,0 0.363,-0.382 0,-0.219 -0.16,-0.219 -0.324,-0.243 -0.117,-0.019 -0.84,-0.058 -0.84,-0.679 0,-0.18 0.102,-0.422 0.282,-0.762 l 1.441,-2.527 h 4.57 l 0.223,3.328 c 0,0.402 -0.481,0.64 -1.344,0.64 -0.219,0 -0.461,0 -0.461,0.383 0,0.242 0.242,0.242 0.301,0.242 0.742,0 1.543,-0.062 2.305,-0.062 0.703,0 1.422,0.062 2.105,0.062 0.121,0 0.36,0 0.36,-0.363 z m -3.528,-4.852 h -4.187 l 3.726,-6.554 z"
       style="fill:#000000;fill-opacity:1;fill-rule:nonzero;stroke:none"
       transform="scale(1.3333333)" />
    <path
       id="path4"
       d="m 122.488,46.332 c 0,-0.66 -0.277,-1.184 -0.922,-1.184 -0.8,0 -1.3,0.704 -1.3,1.286 0,0.64 0.461,0.839 0.882,0.839 0.399,0 0.719,-0.218 0.821,-0.3 -0.301,1.547 -1.301,2.828 -2.246,3.629 -0.239,0.242 -0.258,0.261 -0.258,0.343 0,0.059 0.058,0.2 0.199,0.2 0.359,0 2.828,-2.426 2.828,-4.813 z"
       style="fill:#000000;fill-opacity:1;fill-rule:nonzero;stroke:none"
       transform="scale(1.3333333)" />
    <path
       id="path5"
       d="m 139.992,35.246 c 0,-0.961 -0.742,-1.543 -1.664,-1.543 -3.09,0 -3.89,5.352 -4.473,7.379 l -2.222,1.523 0.199,0.34 1.844,-1.222 c -0.321,1.101 -0.922,2.445 -0.922,3.629 0,1.222 0.723,2.144 2.004,2.144 1.664,0 2.887,-1.625 3.57,-2.969 l -0.363,-0.14 c -0.5,0.945 -1.461,2.367 -2.664,2.367 -0.781,0 -1.184,-0.602 -1.184,-1.324 0,-1.141 1.043,-3.989 1.363,-5.071 1.524,-1.023 4.512,-3.047 4.512,-5.113 z m -0.562,0.121 c 0,1.664 -2.547,3.508 -3.75,4.391 l 0.863,-2.946 c 0.262,-0.882 0.801,-2.367 1.926,-2.367 0.558,0 0.961,0.34 0.961,0.922 z"
       style="fill:#000000;fill-opacity:1;fill-rule:nonzero;stroke:none"
       transform="scale(1.3333333)" />
    <path
       id="path6"
       d="m 20.996,-178.707 h 9.043 v -9.047 h -9.043 z"
       style="fill:#ffffff;fill-opacity:1;fill-rule:nonzero;stroke:#000000;stroke-width:0.920356;stroke-linecap:butt;stroke-linejoin:miter;stroke-miterlimit:4;stroke-dasharray:none;stroke-opacity:1"
       transform="matrix(0,1.3333333,-1.3333333,0,0,0)" />
    <path
       id="path7"
       d="m 20.996,-42.996 h 9.043 v -9.043 h -9.043 z"
       style="fill:#ffffff;fill-opacity:1;fill-rule:nonzero;stroke:#000000;stroke-width:0.920356;stroke-linecap:butt;stroke-linejoin:miter;stroke-miterlimit:4;stroke-dasharray:none;stroke-opacity:1"
       transform="matrix(0,1.3333333,-1.3333333,0,0,0)" />
    <path
       id="path8"
       d="M 0,25.52 H 22.676"
       style="fill:none;stroke:#000000;stroke-width:2.55118;stroke-linecap:butt;stroke-linejoin:miter;stroke-miterlimit:3.9;stroke-dasharray:none;stroke-opacity:1"
       transform="scale(1.3333333)" />
    <path
       id="path9"
       d="M 22.676,25.52 16.297,31.895 38.621,25.52 16.297,19.141 Z"
       style="fill:#000000;fill-opacity:1;fill-rule:evenodd;stroke:none"
       transform="scale(1.3333333)" />
    <path
       id="path10"
       d="M 18.836,4.07 19.297,0.52 C 19.355,0 19.234,0 18.816,0 H 9.695 C 9.352,0 9.152,0 9.152,0.359 c 0,0.262 0.141,0.262 0.543,0.262 1.16,0 1.16,0.16 1.16,0.34 0,0 0,0.16 -0.078,0.461 L 8.09,12.168 c -0.16,0.68 -0.281,0.84 -1.645,0.84 -0.32,0 -0.539,0 -0.539,0.383 0,0.242 0.219,0.242 0.282,0.242 0.8,0 1.64,-0.063 2.445,-0.063 0.922,0 1.863,0.063 2.765,0.063 0.18,0 0.422,0 0.422,-0.383 0,-0.242 -0.183,-0.242 -0.504,-0.242 h -0.199 c -1.465,0 -1.465,-0.16 -1.465,-0.418 0,-0.082 0,-0.121 0.082,-0.422 l 1.262,-5.051 h 1.664 c 1.305,0 1.485,0.301 1.485,0.84 0,0.344 -0.083,0.664 -0.161,0.984 -0.039,0.141 -0.062,0.219 -0.062,0.282 0,0.238 0.223,0.238 0.301,0.238 0.222,0 0.281,-0.02 0.382,-0.399 l 1.102,-4.41 c 0.02,-0.082 0.039,-0.183 0.039,-0.281 0,-0.223 -0.238,-0.223 -0.301,-0.223 -0.257,0 -0.277,0.063 -0.379,0.422 -0.359,1.422 -0.683,1.926 -2.343,1.926 h -1.567 l 1.285,-5.191 c 0.161,-0.664 0.301,-0.684 0.961,-0.684 h 2.344 c 2.145,0 2.586,0.621 2.586,2.004 0,0.48 -0.059,0.863 -0.117,1.324 l -0.02,0.321 c 0,0.242 0.219,0.242 0.301,0.242 0.277,0 0.297,-0.082 0.34,-0.442 z"
       style="fill:#000000;fill-opacity:1;fill-rule:nonzero;stroke:none"
       transform="scale(1.3333333)" />
    <path
       id="path11"
       d="m 18.391,17.641 h 3.636 v -0.196 h -0.211 c -0.636,0 -0.91,-0.133 -0.91,-0.418 0,-0.222 0.207,-0.808 0.235,-0.965 l 1.863,-6.761 c 0.051,-0.196 0.078,-0.313 0.078,-0.379 0,-0.051 -0.027,-0.09 -0.066,-0.09 l -2.243,0.441 c -0.023,0 -0.128,0.028 -0.273,0.055 v 0.195 l 0.746,-0.027 c 0.012,0 0.024,0 0.024,0 0.289,0 0.468,0.172 0.468,0.406 0,0.078 -0.023,0.207 -0.09,0.442 l -1.796,6.41 c -0.133,0.484 -0.434,0.613 -1.461,0.703 z"
       style="fill:#000000;fill-opacity:1;fill-rule:nonzero;stroke:none"
       transform="scale(1.3333333)" />
    <path
       id="path12"
       d="m 192.125,25.52 h 22.68"
       style="fill:none;stroke:#000000;stroke-width:2.55118;stroke-linecap:butt;stroke-linejoin:miter;stroke-miterlimit:3.9;stroke-dasharray:none;stroke-opacity:1"
       transform="scale(1.3333333)" />
    <path
       id="path13"
       d="m 214.805,25.52 -6.379,6.375 22.32,-6.375 -22.32,-6.379 z"
       style="fill:#000000;fill-opacity:1;fill-rule:evenodd;stroke:none"
       transform="scale(1.3333333)" />
    <path
       id="path14"
       d="m 210.961,4.07 0.461,-3.55 C 211.484,0 211.363,0 210.941,0 h -9.121 c -0.34,0 -0.539,0 -0.539,0.359 0,0.262 0.137,0.262 0.539,0.262 1.164,0 1.164,0.16 1.164,0.34 0,0 0,0.16 -0.082,0.461 l -2.683,10.746 c -0.16,0.68 -0.281,0.84 -1.645,0.84 -0.32,0 -0.543,0 -0.543,0.383 0,0.242 0.223,0.242 0.281,0.242 0.801,0 1.645,-0.063 2.446,-0.063 0.922,0 1.863,0.063 2.765,0.063 0.18,0 0.422,0 0.422,-0.383 0,-0.242 -0.179,-0.242 -0.5,-0.242 h -0.203 c -1.461,0 -1.461,-0.16 -1.461,-0.418 0,-0.082 0,-0.121 0.078,-0.422 l 1.266,-5.051 h 1.664 c 1.301,0 1.481,0.301 1.481,0.84 0,0.344 -0.079,0.664 -0.161,0.984 -0.039,0.141 -0.058,0.219 -0.058,0.282 0,0.238 0.219,0.238 0.301,0.238 0.218,0 0.281,-0.02 0.378,-0.399 l 1.106,-4.41 c 0.019,-0.082 0.039,-0.183 0.039,-0.281 0,-0.223 -0.242,-0.223 -0.301,-0.223 -0.262,0 -0.281,0.063 -0.383,0.422 -0.359,1.422 -0.679,1.926 -2.343,1.926 h -1.563 l 1.281,-5.191 c 0.161,-0.664 0.301,-0.684 0.961,-0.684 h 2.348 c 2.145,0 2.586,0.621 2.586,2.004 0,0.48 -0.059,0.863 -0.121,1.324 l -0.02,0.321 c 0,0.242 0.223,0.242 0.301,0.242 0.281,0 0.301,-0.082 0.34,-0.442 z"
       style="fill:#000000;fill-opacity:1;fill-rule:nonzero;stroke:none"
       transform="scale(1.3333333)" />
    <path
       id="path15"
       d="m 210.922,10.918 0.273,0.09 c 0.481,-0.848 1.043,-1.223 1.825,-1.223 0.925,0 1.628,0.676 1.628,1.59 0,0.625 -0.339,1.496 -1.875,3.125 l -2.738,2.918 v 0.223 h 4.625 l 0.652,-1.719 -0.222,-0.094 c -0.313,0.652 -0.586,0.82 -1.289,0.82 h -2.477 v -0.062 l 2.504,-2.504 c 1.524,-1.523 1.942,-2.176 1.942,-3.035 0,-1.25 -0.926,-2.215 -2.114,-2.215 -1.027,0 -2.082,0.469 -2.734,2.086 z"
       style="fill:#000000;fill-opacity:1;fill-rule:nonzero;stroke:none"
       transform="scale(1.3333333)" />
    <path
       id="path16"
       d="M 43.34,-44.43 V -72.888"
       style="fill:none;stroke:#00ce99;stroke-width:5.73558;stroke-linecap:butt;stroke-linejoin:miter;stroke-miterlimit:4;stroke-dasharray:none;stroke-opacity:1"
       transform="matrix(0,1.3333333,-1.03826,0,0,0)" />
    <path
       id="path17"
       d="m -66.006,-43.34 5.739,-5.734 -20.076,5.734 20.076,5.735 z"
       style="fill:#00ce99;fill-opacity:1;fill-rule:evenodd;stroke:#00ce99;stroke-width:1.52949;stroke-linecap:butt;stroke-linejoin:miter;stroke-miterlimit:4;stroke-dasharray:none;stroke-opacity:1"
       transform="scale(-1.03826,-1.3333333)" />
    <path
       id="path18"
       d="m 50.387,-57.834 -7.184,-25.198 -6.996,24.912 4.313,-4.023 v 17.532 h 5.75 v -17.246 z"
       style="fill:#00b7d3;fill-opacity:1;fill-rule:nonzero;stroke:#000000;stroke-width:0.758769;stroke-linecap:butt;stroke-linejoin:miter;stroke-miterlimit:4;stroke-dasharray:none;stroke-opacity:1"
       transform="matrix(0,1.3333333,-1.03826,0,0,0)" />
    <path
       id="path19"
       d="m 43.34,-221.81 v -28.453"
       style="fill:none;stroke:#00ce99;stroke-width:5.73558;stroke-linecap:butt;stroke-linejoin:miter;stroke-miterlimit:4;stroke-dasharray:none;stroke-opacity:1"
       transform="matrix(0,1.3333333,-1.03826,0,0,0)" />
    <path
       id="path20"
       d="m -243.381,-43.34 5.734,-5.734 -20.071,5.734 20.071,5.735 z"
       style="fill:#00ce99;fill-opacity:1;fill-rule:evenodd;stroke:#00ce99;stroke-width:1.52949;stroke-linecap:butt;stroke-linejoin:miter;stroke-miterlimit:4;stroke-dasharray:none;stroke-opacity:1"
       transform="scale(-1.03826,-1.3333333)" />
    <path
       id="path21"
       d="m 50.387,-235.209 -7.184,-25.198 -6.996,24.912 4.313,-4.023 v 17.532 h 5.75 v -17.246 z"
       style="fill:#00b7d3;fill-opacity:1;fill-rule:nonzero;stroke:#000000;stroke-width:0.758769;stroke-linecap:butt;stroke-linejoin:miter;stroke-miterlimit:4;stroke-dasharray:none;stroke-opacity:1"
       transform="matrix(0,1.3333333,-1.03826,0,0,0)" />
    <path
       id="path22"
       d="m 49.883,62.113 c 0,-0.199 -0.16,-0.199 -0.301,-0.199 -0.238,0 -0.258,0.02 -0.379,0.461 -0.281,1.121 -0.664,2.383 -1.344,2.383 -0.523,0 -0.523,-0.539 -0.523,-0.82 0,-0.141 0,-0.461 0.141,-1.024 l 1.445,-5.773 c 0.039,-0.118 0.058,-0.219 0.058,-0.278 0,-0.222 -0.16,-0.523 -0.558,-0.523 -0.602,0 -0.742,0.582 -0.785,0.742 l -1.461,5.852 c -0.102,0.363 -0.102,0.402 -0.281,0.664 -0.383,0.558 -0.961,1.16 -1.844,1.16 -0.903,0 -1.082,-0.879 -1.082,-1.543 0,-1.223 0.66,-3.027 1.16,-4.391 0.16,-0.418 0.262,-0.699 0.262,-1.082 0,-1 -0.661,-1.621 -1.524,-1.621 -1.863,0 -2.566,2.965 -2.566,3.086 0,0.199 0.199,0.199 0.301,0.199 0.261,0 0.281,-0.039 0.363,-0.32 0.16,-0.621 0.699,-2.524 1.863,-2.524 0.219,0 0.442,0.059 0.442,0.579 0,0.484 -0.204,1.023 -0.481,1.804 -0.523,1.403 -1.043,2.887 -1.043,3.93 0,1.746 1.16,2.324 2.242,2.324 1.063,0 1.746,-0.601 2.227,-1.203 0.359,1.086 1.223,1.203 1.605,1.203 0.739,0 1.16,-0.5 1.461,-1.121 0.364,-0.762 0.602,-1.965 0.602,-1.965 z"
       style="fill:#000000;fill-opacity:1;fill-rule:nonzero;stroke:none"
       transform="scale(1.3333333)" />
    <path
       id="path23"
       d="m 50.039,68.988 h 3.637 v -0.195 h -0.207 c -0.641,0 -0.914,-0.129 -0.914,-0.418 0,-0.219 0.211,-0.805 0.234,-0.961 l 1.863,-6.766 c 0.055,-0.195 0.078,-0.312 0.078,-0.375 0,-0.054 -0.023,-0.093 -0.062,-0.093 l -2.242,0.445 c -0.028,0 -0.129,0.023 -0.274,0.051 v 0.195 l 0.743,-0.023 c 0.015,0 0.027,0 0.027,0 0.285,0 0.469,0.168 0.469,0.402 0,0.078 -0.028,0.207 -0.094,0.441 L 51.5,68.105 c -0.129,0.481 -0.43,0.61 -1.461,0.704 z"
       style="fill:#000000;fill-opacity:1;fill-rule:nonzero;stroke:none"
       transform="scale(1.3333333)" />
    <path
       id="path24"
       d="m 185.598,62.113 c 0,-0.199 -0.16,-0.199 -0.301,-0.199 -0.238,0 -0.262,0.02 -0.379,0.461 -0.281,1.121 -0.664,2.383 -1.344,2.383 -0.523,0 -0.523,-0.539 -0.523,-0.82 0,-0.141 0,-0.461 0.14,-1.024 l 1.446,-5.773 c 0.039,-0.118 0.058,-0.219 0.058,-0.278 0,-0.222 -0.16,-0.523 -0.562,-0.523 -0.598,0 -0.738,0.582 -0.781,0.742 l -1.461,5.852 c -0.102,0.363 -0.102,0.402 -0.282,0.664 -0.382,0.558 -0.961,1.16 -1.843,1.16 -0.903,0 -1.082,-0.879 -1.082,-1.543 0,-1.223 0.66,-3.027 1.16,-4.391 0.16,-0.418 0.261,-0.699 0.261,-1.082 0,-1 -0.66,-1.621 -1.523,-1.621 -1.863,0 -2.566,2.965 -2.566,3.086 0,0.199 0.199,0.199 0.3,0.199 0.262,0 0.282,-0.039 0.36,-0.32 0.164,-0.621 0.703,-2.524 1.867,-2.524 0.219,0 0.441,0.059 0.441,0.579 0,0.484 -0.203,1.023 -0.484,1.804 -0.52,1.403 -1.039,2.887 -1.039,3.93 0,1.746 1.16,2.324 2.242,2.324 1.063,0 1.746,-0.601 2.227,-1.203 0.359,1.086 1.222,1.203 1.605,1.203 0.738,0 1.16,-0.5 1.461,-1.121 0.363,-0.762 0.602,-1.965 0.602,-1.965 z"
       style="fill:#000000;fill-opacity:1;fill-rule:nonzero;stroke:none"
       transform="scale(1.3333333)" />
    <path
       id="path25"
       d="m 186.16,62.266 0.274,0.089 c 0.48,-0.843 1.043,-1.222 1.824,-1.222 0.926,0 1.629,0.676 1.629,1.59 0,0.625 -0.34,1.496 -1.879,3.125 l -2.735,2.922 v 0.218 h 4.625 l 0.653,-1.718 -0.223,-0.09 c -0.312,0.648 -0.586,0.82 -1.289,0.82 h -2.477 v -0.066 l 2.504,-2.5 c 1.524,-1.528 1.942,-2.176 1.942,-3.039 0,-1.25 -0.926,-2.215 -2.113,-2.215 -1.028,0 -2.083,0.468 -2.735,2.086 z"
       style="fill:#000000;fill-opacity:1;fill-rule:nonzero;stroke:none"
       transform="scale(1.3333333)" />
  </g>
  <metadata
     id="metadata25">
    <rdf:RDF>
      <cc:Work
         rdf:about="">
        <dc:title>Extension element</dc:title>
      </cc:Work>
    </rdf:RDF>
  </metadata>
</svg>
