<?xml version="1.0" encoding="UTF-8" standalone="no"?>
<!-- Created with Inkscape (http://www.inkscape.org/) -->

<svg
   version="1.1"
   id="svg1"
   width="448.88718"
   height="117.21552"
   viewBox="0 0 448.88718 117.21552"
   sodipodi:docname="extension2fields.svg"
   inkscape:version="1.3.2 (091e20e, 2023-11-25, custom)"
   xmlns:inkscape="http://www.inkscape.org/namespaces/inkscape"
   xmlns:sodipodi="http://sodipodi.sourceforge.net/DTD/sodipodi-0.dtd"
   xmlns="http://www.w3.org/2000/svg"
   xmlns:svg="http://www.w3.org/2000/svg"
   xmlns:rdf="http://www.w3.org/1999/02/22-rdf-syntax-ns#"
   xmlns:cc="http://creativecommons.org/ns#"
   xmlns:dc="http://purl.org/dc/elements/1.1/">
  <title
     id="title40">Extension 2 fields</title>
  <defs
     id="defs1" />
  <sodipodi:namedview
     id="namedview1"
     pagecolor="#ffffff"
     bordercolor="#000000"
     borderopacity="0.25"
     inkscape:showpageshadow="2"
     inkscape:pageopacity="0.0"
     inkscape:pagecheckerboard="0"
     inkscape:deskcolor="#d1d1d1"
     inkscape:zoom="2.7311986"
     inkscape:cx="224.44359"
     inkscape:cy="58.765409"
     inkscape:window-width="1920"
     inkscape:window-height="1001"
     inkscape:window-x="-9"
     inkscape:window-y="-9"
     inkscape:window-maximized="1"
     inkscape:current-layer="g1">
    <inkscape:page
       x="0"
       y="0"
       inkscape:label="1"
       id="page1"
       width="448.88718"
       height="117.21552"
       margin="0"
       bleed="0" />
  </sodipodi:namedview>
  <g
     id="g1"
     inkscape:groupmode="layer"
     inkscape:label="1">
    <path
       id="path1"
       d="M 20.562,20.906 H 156.277"
       style="fill:none;stroke:#017188;stroke-width:2.83465;stroke-linecap:butt;stroke-linejoin:miter;stroke-miterlimit:4;stroke-dasharray:none;stroke-opacity:1"
       transform="scale(1.3333333)" />
    <path
       id="path2"
       d="M 0.367,-20.562 H 40.719"
       style="fill:none;stroke:#000000;stroke-width:0.487788;stroke-linecap:butt;stroke-linejoin:miter;stroke-miterlimit:4;stroke-dasharray:none;stroke-opacity:1"
       transform="matrix(0,1.3333333,-1.3333333,0,0,0)" />
    <path
       id="path3"
       d="M 3.062,-11.977 8.02,-20.562 0.23,-7.07"
       style="fill:none;stroke:#000000;stroke-width:0.48702;stroke-linecap:butt;stroke-linejoin:miter;stroke-miterlimit:4;stroke-dasharray:none;stroke-opacity:1"
       transform="matrix(0,1.3333333,-1.3333333,0,0,0)" />
    <path
       id="path4"
       d="M 12.629,-20.562 0.848,-0.16"
       style="fill:none;stroke:#000000;stroke-width:0.48702;stroke-linecap:butt;stroke-linejoin:miter;stroke-miterlimit:4;stroke-dasharray:none;stroke-opacity:1"
       transform="matrix(0,1.3333333,-1.3333333,0,0,0)" />
    <path
       id="path5"
       d="M 17.238,-20.562 5.543,-0.309"
       style="fill:none;stroke:#000000;stroke-width:0.48702;stroke-linecap:butt;stroke-linejoin:miter;stroke-miterlimit:4;stroke-dasharray:none;stroke-opacity:1"
       transform="matrix(0,1.3333333,-1.3333333,0,0,0)" />
    <path
       id="path6"
       d="M 21.848,-20.562 10.047,-0.121"
       style="fill:none;stroke:#000000;stroke-width:0.48702;stroke-linecap:butt;stroke-linejoin:miter;stroke-miterlimit:4;stroke-dasharray:none;stroke-opacity:1"
       transform="matrix(0,1.3333333,-1.3333333,0,0,0)" />
    <path
       id="path7"
       d="M 26.457,-20.562 14.652,-0.121"
       style="fill:none;stroke:#000000;stroke-width:0.48702;stroke-linecap:butt;stroke-linejoin:miter;stroke-miterlimit:4;stroke-dasharray:none;stroke-opacity:1"
       transform="matrix(0,1.3333333,-1.3333333,0,0,0)" />
    <path
       id="path8"
       d="M 31.5,-20.562 19.699,-0.121"
       style="fill:none;stroke:#000000;stroke-width:0.48702;stroke-linecap:butt;stroke-linejoin:miter;stroke-miterlimit:4;stroke-dasharray:none;stroke-opacity:1"
       transform="matrix(0,1.3333333,-1.3333333,0,0,0)" />
    <path
       id="path9"
       d="m 36.109,-20.562 -11.8,20.441"
       style="fill:none;stroke:#000000;stroke-width:0.48702;stroke-linecap:butt;stroke-linejoin:miter;stroke-miterlimit:4;stroke-dasharray:none;stroke-opacity:1"
       transform="matrix(0,1.3333333,-1.3333333,0,0,0)" />
    <path
       id="path10"
       d="M 40.719,-20.562 28.918,-0.121"
       style="fill:none;stroke:#000000;stroke-width:0.48702;stroke-linecap:butt;stroke-linejoin:miter;stroke-miterlimit:4;stroke-dasharray:none;stroke-opacity:1"
       transform="matrix(0,1.3333333,-1.3333333,0,0,0)" />
    <path
       id="path11"
       d="m 33.352,-0.121 7.472,-12.941"
       style="fill:none;stroke:#000000;stroke-width:0.48702;stroke-linecap:butt;stroke-linejoin:miter;stroke-miterlimit:4;stroke-dasharray:none;stroke-opacity:1"
       transform="matrix(0,1.3333333,-1.3333333,0,0,0)" />
    <path
       id="path12"
       d="M 37.527,-0.121 40.828,-5.84"
       style="fill:none;stroke:#000000;stroke-width:0.48702;stroke-linecap:butt;stroke-linejoin:miter;stroke-miterlimit:4;stroke-dasharray:none;stroke-opacity:1"
       transform="matrix(0,1.3333333,-1.3333333,0,0,0)" />
    <path
       id="path13"
       d="m 3.344,-20.562 -3.133,5.429"
       style="fill:none;stroke:#000000;stroke-width:0.48702;stroke-linecap:butt;stroke-linejoin:miter;stroke-miterlimit:4;stroke-dasharray:none;stroke-opacity:1"
       transform="matrix(0,1.3333333,-1.3333333,0,0,0)" />
    <path
       id="path14"
       d="m 16.605,-16.383 h 9.047 v -9.043 h -9.047 z"
       style="fill:#ffffff;fill-opacity:1;fill-rule:nonzero;stroke:#000000;stroke-width:0.920355;stroke-linecap:butt;stroke-linejoin:miter;stroke-miterlimit:4;stroke-dasharray:none;stroke-opacity:1"
       transform="matrix(0,1.3333333,-1.3333333,0,0,0)" />
    <path
       id="path15"
       d="m 89.754,37.711 c 0,-0.223 -0.242,-0.223 -0.301,-0.223 -0.219,0 -0.242,0.024 -0.422,0.485 -1.16,2.765 -1.863,4.066 -5.051,4.066 h -2.445 c -0.621,0 -0.621,-0.059 -0.621,-0.199 0,-0.121 0.059,-0.32 0.078,-0.442 l 1.387,-5.511 h 1.742 c 1.363,0 1.504,0.32 1.504,0.863 0,0.137 -0.02,0.438 -0.18,1.02 0,0 -0.043,0.16 -0.043,0.222 0,0.238 0.203,0.238 0.325,0.238 0.218,0 0.277,-0.039 0.359,-0.398 l 1.102,-4.41 c 0.019,-0.063 0.062,-0.262 0.062,-0.262 0,-0.242 -0.242,-0.242 -0.324,-0.242 -0.258,0 -0.258,0.062 -0.379,0.484 -0.383,1.422 -0.762,1.864 -2.387,1.864 h -1.621 l 1.223,-4.934 c 0.16,-0.66 0.3,-0.68 0.961,-0.68 h 2.504 c 2.168,0 2.668,0.602 2.668,2.024 0,0.543 -0.04,0.801 -0.102,1.285 -0.02,0.098 -0.039,0.277 -0.039,0.34 0,0.238 0.219,0.238 0.301,0.238 0.281,0 0.3,-0.078 0.34,-0.437 l 0.46,-3.551 c 0.063,-0.52 -0.058,-0.52 -0.48,-0.52 h -9.359 c -0.344,0 -0.543,0 -0.543,0.36 0,0.261 0.14,0.261 0.543,0.261 1.16,0 1.16,0.16 1.16,0.34 0,0 0,0.16 -0.078,0.461 L 79.41,41.199 c -0.16,0.68 -0.281,0.84 -1.644,0.84 -0.321,0 -0.539,0 -0.539,0.383 0,0.238 0.179,0.238 0.5,0.238 h 9.601 c 0.402,0 0.422,-0.019 0.563,-0.32 l 1.781,-4.391 c 0.023,-0.039 0.082,-0.238 0.082,-0.238 z"
       style="fill:#017188;fill-opacity:1;fill-rule:nonzero;stroke:none"
       transform="scale(1.3333333)" />
    <path
       id="path16"
       d="m 103.445,42.301 c 0,-0.262 -0.16,-0.262 -0.48,-0.262 -1.043,0 -1.102,-0.16 -1.145,-0.68 l -0.859,-12.55 c -0.02,-0.442 -0.043,-0.5 -0.363,-0.5 -0.321,0 -0.399,0.14 -0.52,0.359 l -6.656,11.73 c -0.863,1.524 -1.723,1.602 -2.426,1.641 -0.219,0.02 -0.238,0.383 -0.238,0.383 0,0.058 0.019,0.238 0.238,0.238 0.5,0 1.082,-0.058 1.606,-0.058 0.621,0 1.261,0.058 1.863,0.058 0.101,0 0.359,0 0.359,-0.379 0,-0.222 -0.16,-0.222 -0.32,-0.242 -0.121,-0.019 -0.84,-0.059 -0.84,-0.68 0,-0.179 0.098,-0.421 0.281,-0.761 l 1.442,-2.528 h 4.57 l 0.223,3.328 c 0,0.403 -0.485,0.641 -1.344,0.641 -0.223,0 -0.461,0 -0.461,0.383 0,0.238 0.238,0.238 0.301,0.238 0.742,0 1.543,-0.058 2.304,-0.058 0.7,0 1.422,0.058 2.106,0.058 0.117,0 0.359,0 0.359,-0.359 z m -3.527,-4.852 h -4.191 l 3.73,-6.554 z"
       style="fill:#017188;fill-opacity:1;fill-rule:nonzero;stroke:none"
       transform="scale(1.3333333)" />
    <path
       id="path17"
       d="m 105.105,46.672 h 3.637 v -0.195 h -0.211 c -0.636,0 -0.91,-0.133 -0.91,-0.418 0,-0.223 0.207,-0.809 0.234,-0.965 l 1.864,-6.762 c 0.051,-0.195 0.078,-0.312 0.078,-0.379 0,-0.051 -0.027,-0.09 -0.067,-0.09 l -2.238,0.442 c -0.027,0 -0.133,0.027 -0.273,0.054 v 0.196 l 0.742,-0.028 c 0.012,0 0.023,0 0.023,0 0.289,0 0.469,0.168 0.469,0.403 0,0.078 -0.023,0.211 -0.09,0.445 l -1.797,6.41 c -0.132,0.481 -0.429,0.613 -1.461,0.703 z"
       style="fill:#017188;fill-opacity:1;fill-rule:nonzero;stroke:none"
       transform="scale(1.3333333)" />
    <path
       id="path18"
       d="m 155.902,49.309 v 22.75"
       style="fill:none;stroke:#000000;stroke-width:0.749999;stroke-linecap:butt;stroke-linejoin:miter;stroke-miterlimit:4;stroke-dasharray:none;stroke-opacity:1"
       transform="scale(1.3333333)" />
    <path
       id="path19"
       d="m 20.664,49.309 v 22.75"
       style="fill:none;stroke:#000000;stroke-width:0.749999;stroke-linecap:butt;stroke-linejoin:miter;stroke-miterlimit:4;stroke-dasharray:none;stroke-opacity:1"
       transform="scale(1.3333333)" />
    <path
       id="path20"
       d="M 154.297,60.684 H 22.254"
       style="fill:none;stroke:#000000;stroke-width:0.749999;stroke-linecap:butt;stroke-linejoin:miter;stroke-miterlimit:4;stroke-dasharray:none;stroke-opacity:1"
       transform="scale(1.3333333)" />
    <path
       id="path21"
       d="m -146.281,-57.355 -9.012,-3.317 9.012,-3.312 c -1.438,1.957 -1.43,4.632 0,6.629 z"
       style="fill:#000000;fill-opacity:1;fill-rule:evenodd;stroke:#000000;stroke-width:0.515624;stroke-linecap:butt;stroke-linejoin:round;stroke-miterlimit:4;stroke-dasharray:none;stroke-opacity:1"
       transform="scale(-1.3333333)" />
    <path
       id="path22"
       d="m 30.27,64.012 -9.012,-3.317 9.012,-3.312 c -1.438,1.957 -1.43,4.633 0,6.629 z"
       style="fill:#000000;fill-opacity:1;fill-rule:evenodd;stroke:#000000;stroke-width:0.515624;stroke-linecap:butt;stroke-linejoin:round;stroke-miterlimit:4;stroke-dasharray:none;stroke-opacity:1"
       transform="scale(1.3333333)" />
    <path
       id="path23"
       d="m 91.066,68.84 c 0,-1.145 -0.882,-1.836 -1.976,-1.836 -3.672,0 -4.625,6.367 -5.317,8.773 l -2.648,1.813 0.238,0.406 2.196,-1.457 c -0.383,1.313 -1.098,2.91 -1.098,4.316 0,1.454 0.859,2.551 2.383,2.551 1.98,0 3.433,-1.929 4.246,-3.527 l -0.43,-0.168 c -0.598,1.121 -1.742,2.812 -3.172,2.812 -0.929,0 -1.406,-0.714 -1.406,-1.574 0,-1.359 1.238,-4.742 1.621,-6.031 1.813,-1.215 5.363,-3.621 5.363,-6.078 z m -0.668,0.144 c 0,1.977 -3.027,4.172 -4.457,5.219 l 1.024,-3.504 c 0.312,-1.047 0.957,-2.812 2.289,-2.812 0.668,0 1.144,0.406 1.144,1.097 z"
       style="fill:#017188;fill-opacity:1;fill-rule:nonzero;stroke:none"
       transform="scale(1.3333333)" />
    <path
       id="path24"
       d="m 94.262,78.723 c 0.324,0 0.465,0.234 0.465,0.726 v 7.02 c 0,1.008 -0.375,1.179 -1.473,1.211 v 0.23 h 4.277 v -0.23 c -1.226,-0.016 -1.472,-0.172 -1.472,-0.914 v -9.297 l -0.125,-0.031 -2.789,1.41 v 0.214 c 0.605,-0.246 0.882,-0.339 1.117,-0.339 z"
       style="fill:#017188;fill-opacity:1;fill-rule:nonzero;stroke:none"
       transform="scale(1.3333333)" />
    <path
       id="path25"
       d="M 156.277,20.906 H 291.992"
       style="fill:none;stroke:#c3312f;stroke-width:2.83465;stroke-linecap:butt;stroke-linejoin:miter;stroke-miterlimit:4;stroke-dasharray:none;stroke-opacity:1"
       transform="scale(1.3333333)" />
    <path
       id="path26"
       d="m 16.383,-151.758 h 9.043 v -9.043 h -9.043 z"
       style="fill:#ffffff;fill-opacity:1;fill-rule:nonzero;stroke:#000000;stroke-width:0.920356;stroke-linecap:butt;stroke-linejoin:miter;stroke-miterlimit:4;stroke-dasharray:none;stroke-opacity:1"
       transform="matrix(0,1.3333333,-1.3333333,0,0,0)" />
    <path
       id="path27"
       d="m 298.043,21.043 h 22.676"
       style="fill:none;stroke:#000000;stroke-width:2.55118;stroke-linecap:butt;stroke-linejoin:miter;stroke-miterlimit:3.9;stroke-dasharray:none;stroke-opacity:1"
       transform="scale(1.3333333)" />
    <path
       id="path28"
       d="m 320.719,21.043 -6.375,6.379 22.32,-6.379 -22.32,-6.379 z"
       style="fill:#000000;fill-opacity:1;fill-rule:evenodd;stroke:none"
       transform="scale(1.3333333)" />
    <path
       id="path29"
       d="m 224.992,37.711 c 0,-0.223 -0.238,-0.223 -0.301,-0.223 -0.218,0 -0.238,0.024 -0.421,0.485 -1.161,2.765 -1.864,4.066 -5.051,4.066 h -2.446 c -0.621,0 -0.621,-0.059 -0.621,-0.199 0,-0.121 0.059,-0.32 0.082,-0.442 l 1.383,-5.511 h 1.742 c 1.364,0 1.504,0.32 1.504,0.863 0,0.137 -0.019,0.438 -0.179,1.02 0,0 -0.039,0.16 -0.039,0.222 0,0.238 0.199,0.238 0.32,0.238 0.219,0 0.277,-0.039 0.359,-0.398 l 1.102,-4.41 c 0.019,-0.063 0.062,-0.262 0.062,-0.262 0,-0.242 -0.242,-0.242 -0.32,-0.242 -0.262,0 -0.262,0.062 -0.383,0.484 -0.379,1.422 -0.762,1.864 -2.387,1.864 h -1.621 L 219,30.332 c 0.16,-0.66 0.301,-0.68 0.961,-0.68 h 2.504 c 2.168,0 2.668,0.602 2.668,2.024 0,0.543 -0.039,0.801 -0.102,1.285 -0.019,0.098 -0.039,0.277 -0.039,0.34 0,0.238 0.223,0.238 0.301,0.238 0.281,0 0.301,-0.078 0.34,-0.437 l 0.461,-3.551 c 0.062,-0.52 -0.059,-0.52 -0.481,-0.52 h -9.359 c -0.344,0 -0.543,0 -0.543,0.36 0,0.261 0.141,0.261 0.543,0.261 1.16,0 1.16,0.16 1.16,0.34 0,0 0,0.16 -0.078,0.461 l -2.688,10.746 c -0.16,0.68 -0.281,0.84 -1.644,0.84 -0.32,0 -0.539,0 -0.539,0.383 0,0.238 0.18,0.238 0.5,0.238 h 9.601 c 0.403,0 0.422,-0.019 0.563,-0.32 l 1.785,-4.391 c 0.02,-0.039 0.078,-0.238 0.078,-0.238 z"
       style="fill:#c3312f;fill-opacity:1;fill-rule:nonzero;stroke:none"
       transform="scale(1.3333333)" />
    <path
       id="path30"
       d="m 238.684,42.301 c 0,-0.262 -0.161,-0.262 -0.481,-0.262 -1.043,0 -1.101,-0.16 -1.144,-0.68 l -0.86,-12.55 c -0.019,-0.442 -0.039,-0.5 -0.363,-0.5 -0.32,0 -0.398,0.14 -0.52,0.359 l -6.656,11.73 c -0.859,1.524 -1.722,1.602 -2.426,1.641 -0.218,0.02 -0.238,0.383 -0.238,0.383 0,0.058 0.02,0.238 0.238,0.238 0.504,0 1.082,-0.058 1.606,-0.058 0.621,0 1.262,0.058 1.863,0.058 0.102,0 0.359,0 0.359,-0.379 0,-0.222 -0.16,-0.222 -0.32,-0.242 -0.117,-0.019 -0.84,-0.059 -0.84,-0.68 0,-0.179 0.098,-0.421 0.282,-0.761 l 1.441,-2.528 h 4.57 l 0.223,3.328 c 0,0.403 -0.484,0.641 -1.344,0.641 -0.222,0 -0.461,0 -0.461,0.383 0,0.238 0.239,0.238 0.301,0.238 0.742,0 1.543,-0.058 2.305,-0.058 0.703,0 1.422,0.058 2.105,0.058 0.121,0 0.36,0 0.36,-0.359 z m -3.528,-4.852 h -4.191 l 3.73,-6.554 z"
       style="fill:#c3312f;fill-opacity:1;fill-rule:nonzero;stroke:none"
       transform="scale(1.3333333)" />
    <path
       id="path31"
       d="m 240.75,39.949 0.273,0.09 c 0.481,-0.848 1.043,-1.227 1.825,-1.227 0.925,0 1.629,0.68 1.629,1.59 0,0.625 -0.34,1.5 -1.879,3.129 l -2.735,2.918 v 0.223 h 4.625 l 0.653,-1.723 -0.223,-0.09 c -0.313,0.653 -0.586,0.821 -1.289,0.821 h -2.477 v -0.063 l 2.504,-2.504 c 1.524,-1.523 1.942,-2.175 1.942,-3.035 0,-1.25 -0.926,-2.215 -2.114,-2.215 -1.027,0 -2.086,0.469 -2.734,2.086 z"
       style="fill:#c3312f;fill-opacity:1;fill-rule:nonzero;stroke:none"
       transform="scale(1.3333333)" />
    <path
       id="path32"
       d="m 291.141,49.309 v 22.75"
       style="fill:none;stroke:#000000;stroke-width:0.749999;stroke-linecap:butt;stroke-linejoin:miter;stroke-miterlimit:4;stroke-dasharray:none;stroke-opacity:1"
       transform="scale(1.3333333)" />
    <path
       id="path33"
       d="m 155.902,49.309 v 22.75"
       style="fill:none;stroke:#000000;stroke-width:0.749999;stroke-linecap:butt;stroke-linejoin:miter;stroke-miterlimit:4;stroke-dasharray:none;stroke-opacity:1"
       transform="scale(1.3333333)" />
    <path
       id="path34"
       d="M 289.535,60.684 H 157.492"
       style="fill:none;stroke:#000000;stroke-width:0.749999;stroke-linecap:butt;stroke-linejoin:miter;stroke-miterlimit:4;stroke-dasharray:none;stroke-opacity:1"
       transform="scale(1.3333333)" />
    <path
       id="path35"
       d="m -281.52,-57.355 -9.011,-3.317 9.011,-3.312 c -1.437,1.957 -1.429,4.632 0,6.629 z"
       style="fill:#000000;fill-opacity:1;fill-rule:evenodd;stroke:#000000;stroke-width:0.515624;stroke-linecap:butt;stroke-linejoin:round;stroke-miterlimit:4;stroke-dasharray:none;stroke-opacity:1"
       transform="scale(-1.3333333)" />
    <path
       id="path36"
       d="m 165.512,64.012 -9.016,-3.317 9.016,-3.312 c -1.442,1.957 -1.434,4.633 0,6.629 z"
       style="fill:#000000;fill-opacity:1;fill-rule:evenodd;stroke:#000000;stroke-width:0.515624;stroke-linecap:butt;stroke-linejoin:round;stroke-miterlimit:4;stroke-dasharray:none;stroke-opacity:1"
       transform="scale(1.3333333)" />
    <path
       id="path37"
       d="m 226.305,68.84 c 0,-1.145 -0.883,-1.836 -1.977,-1.836 -3.672,0 -4.625,6.367 -5.316,8.773 l -2.649,1.813 0.239,0.406 2.195,-1.457 c -0.383,1.313 -1.098,2.91 -1.098,4.316 0,1.454 0.86,2.551 2.383,2.551 1.98,0 3.434,-1.929 4.246,-3.527 l -0.43,-0.168 c -0.597,1.121 -1.742,2.812 -3.171,2.812 -0.93,0 -1.407,-0.714 -1.407,-1.574 0,-1.359 1.239,-4.742 1.621,-6.031 1.813,-1.215 5.364,-3.621 5.364,-6.078 z m -0.668,0.144 c 0,1.977 -3.028,4.172 -4.457,5.219 l 1.023,-3.504 c 0.313,-1.047 0.957,-2.812 2.289,-2.812 0.668,0 1.145,0.406 1.145,1.097 z"
       style="fill:#c3312f;fill-opacity:1;fill-rule:nonzero;stroke:none"
       transform="scale(1.3333333)" />
    <path
       id="path38"
       d="m 227.145,80.52 0.324,0.078 c 0.621,-1.52 1.176,-2.016 2.246,-2.016 1.301,0 2.187,0.883 2.187,2.188 0,1.207 -0.714,2.648 -2.015,4.027 l -2.758,2.93 v 0.183 h 6.043 l 0.851,-2.121 -0.203,-0.078 c -0.57,0.883 -0.773,1.023 -1.468,1.023 h -3.707 l 2.605,-2.726 c 1.379,-1.442 1.984,-2.621 1.984,-3.828 0,-1.551 -1.257,-2.742 -2.867,-2.742 -2.496,0 -3.055,2.355 -3.222,3.082 z"
       style="fill:#c3312f;fill-opacity:1;fill-rule:nonzero;stroke:none"
       transform="scale(1.3333333)" />
    <path
       id="path39"
       d="M 316.879,4.07 317.34,0.52 C 317.402,0 317.281,0 316.859,0 h -9.121 c -0.34,0 -0.543,0 -0.543,0.359 0,0.262 0.141,0.262 0.543,0.262 1.164,0 1.164,0.16 1.164,0.34 0,0 0,0.16 -0.082,0.461 l -2.687,10.746 c -0.16,0.68 -0.278,0.844 -1.641,0.844 -0.32,0 -0.543,0 -0.543,0.379 0,0.242 0.223,0.242 0.281,0.242 0.801,0 1.645,-0.063 2.446,-0.063 0.922,0 1.863,0.063 2.765,0.063 0.18,0 0.422,0 0.422,-0.383 0,-0.238 -0.179,-0.238 -0.5,-0.238 h -0.203 c -1.461,0 -1.461,-0.164 -1.461,-0.422 0,-0.082 0,-0.121 0.078,-0.422 l 1.266,-5.051 h 1.664 c 1.301,0 1.481,0.301 1.481,0.84 0,0.344 -0.079,0.664 -0.161,0.984 -0.039,0.141 -0.058,0.219 -0.058,0.282 0,0.238 0.219,0.238 0.301,0.238 0.218,0 0.281,-0.02 0.378,-0.399 l 1.106,-4.41 c 0.019,-0.082 0.039,-0.183 0.039,-0.281 0,-0.223 -0.242,-0.223 -0.301,-0.223 -0.262,0 -0.281,0.063 -0.383,0.422 -0.359,1.422 -0.679,1.926 -2.343,1.926 h -1.563 l 1.281,-5.191 c 0.161,-0.664 0.301,-0.684 0.961,-0.684 h 2.348 c 2.145,0 2.586,0.621 2.586,2.004 0,0.48 -0.063,0.863 -0.121,1.324 l -0.02,0.321 c 0,0.242 0.219,0.242 0.301,0.242 0.281,0 0.301,-0.082 0.34,-0.442 z"
       style="fill:#000000;fill-opacity:1;fill-rule:nonzero;stroke:none"
       transform="scale(1.3333333)" />
    <path
       id="path40"
       d="m 16.383,-287.469 h 9.043 v -9.047 h -9.043 z"
       style="fill:#ffffff;fill-opacity:1;fill-rule:nonzero;stroke:#000000;stroke-width:0.920356;stroke-linecap:butt;stroke-linejoin:miter;stroke-miterlimit:4;stroke-dasharray:none;stroke-opacity:1"
       transform="matrix(0,1.3333333,-1.3333333,0,0,0)" />
  </g>
  <metadata
     id="metadata40">
    <rdf:RDF>
      <cc:Work
         rdf:about="">
        <dc:title>Extension 2 fields</dc:title>
      </cc:Work>
    </rdf:RDF>
  </metadata>
</svg>
