<?xml version="1.0" encoding="UTF-8" standalone="no"?>
<!-- Created with Inkscape (http://www.inkscape.org/) -->

<svg
   version="1.1"
   id="svg1"
   width="448.88638"
   height="173.26077"
   viewBox="0 0 448.88639 173.26076"
   sodipodi:docname="extension2fieldsq.svg"
   inkscape:version="1.3.2 (091e20e, 2023-11-25, custom)"
   xmlns:inkscape="http://www.inkscape.org/namespaces/inkscape"
   xmlns:sodipodi="http://sodipodi.sourceforge.net/DTD/sodipodi-0.dtd"
   xmlns="http://www.w3.org/2000/svg"
   xmlns:svg="http://www.w3.org/2000/svg"
   xmlns:rdf="http://www.w3.org/1999/02/22-rdf-syntax-ns#"
   xmlns:cc="http://creativecommons.org/ns#"
   xmlns:dc="http://purl.org/dc/elements/1.1/">
  <title
     id="title40">Extension 2 fields with q</title>
  <defs
     id="defs1" />
  <sodipodi:namedview
     id="namedview1"
     pagecolor="#ffffff"
     bordercolor="#000000"
     borderopacity="0.25"
     inkscape:showpageshadow="2"
     inkscape:pageopacity="0.0"
     inkscape:pagecheckerboard="0"
     inkscape:deskcolor="#d1d1d1"
     inkscape:zoom="0.96562453"
     inkscape:cx="132.5567"
     inkscape:cy="45.048566"
     inkscape:window-width="1920"
     inkscape:window-height="1001"
     inkscape:window-x="-9"
     inkscape:window-y="-9"
     inkscape:window-maximized="1"
     inkscape:current-layer="g1">
    <inkscape:page
       x="0"
       y="0"
       inkscape:label="1"
       id="page1"
       width="448.88638"
       height="173.26076"
       margin="0"
       bleed="0" />
  </sodipodi:namedview>
  <g
     id="g1"
     inkscape:groupmode="layer"
     inkscape:label="1"
     transform="translate(0.00104157,34.047435)">
    <path
       id="path1"
       d="M 27.415999,49.874666 H 208.36933"
       style="fill:none;stroke:#017188;stroke-width:3.77953;stroke-linecap:butt;stroke-linejoin:miter;stroke-miterlimit:4;stroke-dasharray:none;stroke-opacity:1" />
    <path
       id="path2"
       d="M 27.415999,22.489333 V 76.291999"
       style="fill:none;stroke:#000000;stroke-width:0.650384;stroke-linecap:butt;stroke-linejoin:miter;stroke-miterlimit:4;stroke-dasharray:none;stroke-opacity:1" />
    <path
       id="path3"
       d="M 15.969333,26.082667 27.415999,32.693333 9.4266664,22.306667"
       style="fill:none;stroke:#000000;stroke-width:0.64936;stroke-linecap:butt;stroke-linejoin:miter;stroke-miterlimit:4;stroke-dasharray:none;stroke-opacity:1" />
    <path
       id="path4"
       d="M 27.415999,38.838666 0.21333333,23.130667"
       style="fill:none;stroke:#000000;stroke-width:0.64936;stroke-linecap:butt;stroke-linejoin:miter;stroke-miterlimit:4;stroke-dasharray:none;stroke-opacity:1" />
    <path
       id="path5"
       d="M 27.415999,44.983999 0.41199999,29.390667"
       style="fill:none;stroke:#000000;stroke-width:0.64936;stroke-linecap:butt;stroke-linejoin:miter;stroke-miterlimit:4;stroke-dasharray:none;stroke-opacity:1" />
    <path
       id="path6"
       d="M 27.415999,51.130666 0.16133333,35.396"
       style="fill:none;stroke:#000000;stroke-width:0.64936;stroke-linecap:butt;stroke-linejoin:miter;stroke-miterlimit:4;stroke-dasharray:none;stroke-opacity:1" />
    <path
       id="path7"
       d="M 27.415999,57.275999 0.16133333,41.536"
       style="fill:none;stroke:#000000;stroke-width:0.64936;stroke-linecap:butt;stroke-linejoin:miter;stroke-miterlimit:4;stroke-dasharray:none;stroke-opacity:1" />
    <path
       id="path8"
       d="M 27.415999,63.999999 0.16133333,48.265333"
       style="fill:none;stroke:#000000;stroke-width:0.64936;stroke-linecap:butt;stroke-linejoin:miter;stroke-miterlimit:4;stroke-dasharray:none;stroke-opacity:1" />
    <path
       id="path9"
       d="M 27.415999,70.145332 0.16133333,54.411999"
       style="fill:none;stroke:#000000;stroke-width:0.64936;stroke-linecap:butt;stroke-linejoin:miter;stroke-miterlimit:4;stroke-dasharray:none;stroke-opacity:1" />
    <path
       id="path10"
       d="M 27.415999,76.291999 0.16133333,60.557332"
       style="fill:none;stroke:#000000;stroke-width:0.64936;stroke-linecap:butt;stroke-linejoin:miter;stroke-miterlimit:4;stroke-dasharray:none;stroke-opacity:1" />
    <path
       id="path11"
       d="M 0.16133333,66.469332 17.416,76.431999"
       style="fill:none;stroke:#000000;stroke-width:0.64936;stroke-linecap:butt;stroke-linejoin:miter;stroke-miterlimit:4;stroke-dasharray:none;stroke-opacity:1" />
    <path
       id="path12"
       d="M 0.16133333,72.035999 7.7866665,76.437332"
       style="fill:none;stroke:#000000;stroke-width:0.64936;stroke-linecap:butt;stroke-linejoin:miter;stroke-miterlimit:4;stroke-dasharray:none;stroke-opacity:1" />
    <path
       id="path13"
       d="M 27.415999,26.458667 20.177333,22.281333"
       style="fill:none;stroke:#000000;stroke-width:0.64936;stroke-linecap:butt;stroke-linejoin:miter;stroke-miterlimit:4;stroke-dasharray:none;stroke-opacity:1" />
    <path
       id="path14"
       d="M 21.843999,44.139999 V 56.202666 H 33.901332 V 44.139999 Z"
       style="fill:#ffffff;fill-opacity:1;fill-rule:nonzero;stroke:#000000;stroke-width:1.22714;stroke-linecap:butt;stroke-linejoin:miter;stroke-miterlimit:4;stroke-dasharray:none;stroke-opacity:1" />
    <path
       id="path15"
       d="m 119.672,72.281332 c 0,-0.297333 -0.32267,-0.297333 -0.40134,-0.297333 -0.292,0 -0.32266,0.032 -0.56266,0.646666 -1.54667,3.686667 -2.484,5.421334 -6.73467,5.421334 h -3.26 c -0.828,0 -0.828,-0.07867 -0.828,-0.265334 0,-0.161333 0.0787,-0.426666 0.104,-0.589333 l 1.84933,-7.348 h 2.32267 c 1.81733,0 2.00533,0.426667 2.00533,1.150667 0,0.182666 -0.0267,0.584 -0.24,1.36 0,0 -0.0573,0.213333 -0.0573,0.296 0,0.317333 0.27067,0.317333 0.43333,0.317333 0.29067,0 0.36934,-0.052 0.47867,-0.530667 l 1.46933,-5.879999 c 0.0253,-0.084 0.0827,-0.349334 0.0827,-0.349334 0,-0.322666 -0.32267,-0.322666 -0.432,-0.322666 -0.344,0 -0.344,0.08267 -0.50533,0.645333 -0.51067,1.896 -1.016,2.485333 -3.18267,2.485333 H 110.052 l 1.63066,-6.578666 c 0.21334,-0.88 0.4,-0.906667 1.28134,-0.906667 h 3.33866 c 2.89067,0 3.55734,0.802667 3.55734,2.698667 0,0.724 -0.0533,1.068 -0.136,1.713333 -0.0267,0.130667 -0.052,0.369333 -0.052,0.453333 0,0.317334 0.292,0.317334 0.40133,0.317334 0.37467,0 0.4,-0.104 0.45333,-0.582667 L 121.14,61.401332 c 0.084,-0.693333 -0.0773,-0.693333 -0.64,-0.693333 h -12.47867 c -0.45867,0 -0.724,0 -0.724,0.48 0,0.348 0.18667,0.348 0.724,0.348 1.54667,0 1.54667,0.213333 1.54667,0.453333 0,0 0,0.213334 -0.104,0.614667 l -3.584,14.328 c -0.21334,0.906666 -0.37467,1.12 -2.192,1.12 -0.428,0 -0.71867,0 -0.71867,0.510666 0,0.317334 0.23867,0.317334 0.66667,0.317334 h 12.80133 c 0.536,0 0.56267,-0.02533 0.75067,-0.426667 l 2.37466,-5.854667 c 0.0307,-0.052 0.10934,-0.317333 0.10934,-0.317333 z"
       style="fill:#017188;fill-opacity:1;fill-rule:nonzero;stroke:none;stroke-width:1.33333" />
    <path
       id="path16"
       d="m 137.92666,78.401332 c 0,-0.349333 -0.21333,-0.349333 -0.64,-0.349333 -1.39066,0 -1.46933,-0.213334 -1.52666,-0.906667 l -1.14534,-16.733333 c -0.0267,-0.589333 -0.0573,-0.666667 -0.484,-0.666667 -0.428,0 -0.532,0.186667 -0.69333,0.478667 l -8.87467,15.64 c -1.15066,2.032 -2.29733,2.136 -3.23466,2.188 -0.292,0.02667 -0.31734,0.510666 -0.31734,0.510666 0,0.07733 0.0253,0.317334 0.31734,0.317334 0.66666,0 1.44266,-0.07733 2.14133,-0.07733 0.828,0 1.68133,0.07733 2.484,0.07733 0.13467,0 0.47867,0 0.47867,-0.505334 0,-0.296 -0.21334,-0.296 -0.42667,-0.322666 -0.16133,-0.02533 -1.12,-0.07867 -1.12,-0.906667 0,-0.238667 0.13067,-0.561333 0.37467,-1.014667 l 1.92266,-3.370666 h 6.09334 l 0.29733,4.437333 c 0,0.537333 -0.64667,0.854667 -1.792,0.854667 -0.29733,0 -0.61467,0 -0.61467,0.510666 0,0.317334 0.31734,0.317334 0.40134,0.317334 0.98933,0 2.05733,-0.07733 3.072,-0.07733 0.93333,0 1.896,0.07733 2.808,0.07733 0.156,0 0.47866,0 0.47866,-0.478667 z M 133.224,71.931999 h -5.588 l 4.97333,-8.738667 z"
       style="fill:#017188;fill-opacity:1;fill-rule:nonzero;stroke:none;stroke-width:1.33333" />
    <path
       id="path17"
       d="m 140.14,84.229332 h 4.84933 v -0.26 H 144.708 c -0.848,0 -1.21334,-0.177334 -1.21334,-0.557334 0,-0.297333 0.276,-1.078666 0.312,-1.286666 l 2.48534,-9.016 c 0.068,-0.26 0.104,-0.416 0.104,-0.505333 0,-0.068 -0.036,-0.12 -0.0893,-0.12 l -2.984,0.589333 c -0.036,0 -0.17733,0.036 -0.364,0.072 v 0.261333 l 0.98934,-0.03733 c 0.016,0 0.0307,0 0.0307,0 0.38534,0 0.62534,0.224 0.62534,0.537333 0,0.104 -0.0307,0.281334 -0.12,0.593334 l -2.396,8.546666 c -0.176,0.641333 -0.572,0.817333 -1.948,0.937333 z"
       style="fill:#017188;fill-opacity:1;fill-rule:nonzero;stroke:none;stroke-width:1.33333" />
    <path
       id="path18"
       d="M 207.86933,87.745332 V 118.07866"
       style="fill:none;stroke:#000000;stroke-width:0.999999;stroke-linecap:butt;stroke-linejoin:miter;stroke-miterlimit:4;stroke-dasharray:none;stroke-opacity:1" />
    <path
       id="path19"
       d="M 27.551999,87.745332 V 118.07866"
       style="fill:none;stroke:#000000;stroke-width:0.999999;stroke-linecap:butt;stroke-linejoin:miter;stroke-miterlimit:4;stroke-dasharray:none;stroke-opacity:1" />
    <path
       id="path20"
       d="M 205.72933,102.912 H 29.671999"
       style="fill:none;stroke:#000000;stroke-width:0.999999;stroke-linecap:butt;stroke-linejoin:miter;stroke-miterlimit:4;stroke-dasharray:none;stroke-opacity:1" />
    <path
       id="path21"
       d="m 195.04133,98.473331 12.016,4.422669 -12.016,4.416 c 1.91733,-2.60933 1.90667,-6.176 0,-8.838669 z"
       style="fill:#000000;fill-opacity:1;fill-rule:evenodd;stroke:#000000;stroke-width:0.687499;stroke-linecap:butt;stroke-linejoin:round;stroke-miterlimit:4;stroke-dasharray:none;stroke-opacity:1" />
    <path
       id="path22"
       d="m 40.359999,107.34933 -12.016,-4.42266 12.016,-4.416005 c -1.917333,2.609335 -1.906667,6.177335 0,8.838665 z"
       style="fill:#000000;fill-opacity:1;fill-rule:evenodd;stroke:#000000;stroke-width:0.687499;stroke-linecap:butt;stroke-linejoin:round;stroke-miterlimit:4;stroke-dasharray:none;stroke-opacity:1" />
    <path
       id="path23"
       d="m 121.42133,113.78666 c 0,-1.52666 -1.176,-2.448 -2.63467,-2.448 -4.896,0 -6.16666,8.48934 -7.08933,11.69734 l -3.53067,2.41733 0.31734,0.54133 2.928,-1.94266 c -0.51067,1.75066 -1.464,3.88 -1.464,5.75466 0,1.93867 1.14533,3.40134 3.17733,3.40134 2.64,0 4.57733,-2.572 5.66133,-4.70267 l -0.57333,-0.224 c -0.79733,1.49467 -2.32267,3.74933 -4.22933,3.74933 -1.23867,0 -1.87467,-0.952 -1.87467,-2.09866 0,-1.812 1.65067,-6.32267 2.16133,-8.04134 2.41734,-1.62 7.15067,-4.828 7.15067,-8.104 z m -0.89067,0.192 c 0,2.636 -4.036,5.56267 -5.94266,6.95867 l 1.36533,-4.672 c 0.416,-1.396 1.276,-3.74933 3.052,-3.74933 0.89067,0 1.52533,0.54133 1.52533,1.46266 z"
       style="fill:#017188;fill-opacity:1;fill-rule:nonzero;stroke:none;stroke-width:1.33333" />
    <path
       id="path24"
       d="m 125.68266,126.964 c 0.432,0 0.62,0.312 0.62,0.968 v 9.36 c 0,1.344 -0.5,1.572 -1.964,1.61466 v 0.30667 h 5.70267 v -0.30667 c -1.63467,-0.0213 -1.96267,-0.22933 -1.96267,-1.21866 v -12.396 l -0.16666,-0.0413 -3.71867,1.88 v 0.28534 c 0.80667,-0.328 1.176,-0.452 1.48933,-0.452 z"
       style="fill:#017188;fill-opacity:1;fill-rule:nonzero;stroke:none;stroke-width:1.33333" />
    <path
       id="path25"
       d="M 208.36933,49.874666 H 389.32266"
       style="fill:none;stroke:#c3312f;stroke-width:3.77953;stroke-linecap:butt;stroke-linejoin:miter;stroke-miterlimit:4;stroke-dasharray:none;stroke-opacity:1" />
    <path
       id="path26"
       d="m 202.34399,43.843999 v 12.057333 h 12.05734 V 43.843999 Z"
       style="fill:#ffffff;fill-opacity:1;fill-rule:nonzero;stroke:#000000;stroke-width:1.22714;stroke-linecap:butt;stroke-linejoin:miter;stroke-miterlimit:4;stroke-dasharray:none;stroke-opacity:1" />
    <path
       id="path27"
       d="m 397.39066,50.057333 h 30.23466"
       style="fill:none;stroke:#000000;stroke-width:3.40157;stroke-linecap:butt;stroke-linejoin:miter;stroke-miterlimit:3.9;stroke-dasharray:none;stroke-opacity:1" />
    <path
       id="path28"
       d="m 427.62532,50.057333 -8.5,8.505333 29.76,-8.505333 -29.76,-8.505333 z"
       style="fill:#000000;fill-opacity:1;fill-rule:evenodd;stroke:none;stroke-width:1.33333" />
    <path
       id="path29"
       d="m 299.98933,72.281332 c 0,-0.297333 -0.31734,-0.297333 -0.40134,-0.297333 -0.29066,0 -0.31733,0.032 -0.56133,0.646666 -1.548,3.686667 -2.48533,5.421334 -6.73467,5.421334 h -3.26133 c -0.828,0 -0.828,-0.07867 -0.828,-0.265334 0,-0.161333 0.0787,-0.426666 0.10933,-0.589333 l 1.844,-7.348 h 2.32267 c 1.81867,0 2.00533,0.426667 2.00533,1.150667 0,0.182666 -0.0253,0.584 -0.23866,1.36 0,0 -0.052,0.213333 -0.052,0.296 0,0.317333 0.26533,0.317333 0.42666,0.317333 0.292,0 0.36934,-0.052 0.47867,-0.530667 l 1.46933,-5.879999 c 0.0253,-0.084 0.0827,-0.349334 0.0827,-0.349334 0,-0.322666 -0.32267,-0.322666 -0.42667,-0.322666 -0.34933,0 -0.34933,0.08267 -0.51066,0.645333 -0.50534,1.896 -1.016,2.485333 -3.18267,2.485333 h -2.16133 l 1.63066,-6.578666 c 0.21334,-0.88 0.40134,-0.906667 1.28134,-0.906667 h 3.33866 c 2.89067,0 3.55734,0.802667 3.55734,2.698667 0,0.724 -0.052,1.068 -0.136,1.713333 -0.0253,0.130667 -0.052,0.369333 -0.052,0.453333 0,0.317334 0.29733,0.317334 0.40133,0.317334 0.37467,0 0.40133,-0.104 0.45333,-0.582667 l 0.61467,-4.734667 c 0.0827,-0.693333 -0.0787,-0.693333 -0.64133,-0.693333 h -12.47867 c -0.45867,0 -0.724,0 -0.724,0.48 0,0.348 0.188,0.348 0.724,0.348 1.54667,0 1.54667,0.213333 1.54667,0.453333 0,0 0,0.213334 -0.104,0.614667 l -3.584,14.328 c -0.21334,0.906666 -0.37467,1.12 -2.192,1.12 -0.42667,0 -0.71867,0 -0.71867,0.510666 0,0.317334 0.24,0.317334 0.66667,0.317334 h 12.80133 c 0.53733,0 0.56267,-0.02533 0.75067,-0.426667 l 2.38,-5.854667 c 0.0267,-0.052 0.104,-0.317333 0.104,-0.317333 z"
       style="fill:#c3312f;fill-opacity:1;fill-rule:nonzero;stroke:none;stroke-width:1.33333" />
    <path
       id="path30"
       d="m 318.24533,78.401332 c 0,-0.349333 -0.21467,-0.349333 -0.64134,-0.349333 -1.39066,0 -1.468,-0.213334 -1.52533,-0.906667 l -1.14667,-16.733333 c -0.0253,-0.589333 -0.052,-0.666667 -0.484,-0.666667 -0.42666,0 -0.53066,0.186667 -0.69333,0.478667 l -8.87467,15.64 c -1.14533,2.032 -2.296,2.136 -3.23466,2.188 -0.29067,0.02667 -0.31734,0.510666 -0.31734,0.510666 0,0.07733 0.0267,0.317334 0.31734,0.317334 0.672,0 1.44266,-0.07733 2.14133,-0.07733 0.828,0 1.68267,0.07733 2.484,0.07733 0.136,0 0.47867,0 0.47867,-0.505334 0,-0.296 -0.21334,-0.296 -0.42667,-0.322666 -0.156,-0.02533 -1.12,-0.07867 -1.12,-0.906667 0,-0.238667 0.13067,-0.561333 0.376,-1.014667 l 1.92133,-3.370666 h 6.09334 l 0.29733,4.437333 c 0,0.537333 -0.64533,0.854667 -1.792,0.854667 -0.296,0 -0.61467,0 -0.61467,0.510666 0,0.317334 0.31867,0.317334 0.40134,0.317334 0.98933,0 2.05733,-0.07733 3.07333,-0.07733 0.93733,0 1.896,0.07733 2.80667,0.07733 0.16133,0 0.48,0 0.48,-0.478667 z m -4.704,-6.469333 h -5.588 l 4.97333,-8.738667 z"
       style="fill:#c3312f;fill-opacity:1;fill-rule:nonzero;stroke:none;stroke-width:1.33333" />
    <path
       id="path31"
       d="m 320.99999,75.265332 0.364,0.12 c 0.64134,-1.130667 1.39067,-1.636 2.43334,-1.636 1.23333,0 2.172,0.906667 2.172,2.12 0,0.833333 -0.45334,2 -2.50534,4.172 l -3.64666,3.890666 v 0.297334 h 6.16666 l 0.87067,-2.297333 -0.29733,-0.12 c -0.41734,0.870666 -0.78134,1.094666 -1.71867,1.094666 h -3.30267 v -0.084 l 3.33867,-3.338666 c 2.032,-2.030667 2.58933,-2.9 2.58933,-4.046667 0,-1.666667 -1.23466,-2.953333 -2.81866,-2.953333 -1.36934,0 -2.78134,0.625333 -3.64534,2.781333 z"
       style="fill:#c3312f;fill-opacity:1;fill-rule:nonzero;stroke:none;stroke-width:1.33333" />
    <path
       id="path32"
       d="M 388.18799,87.745332 V 118.07866"
       style="fill:none;stroke:#000000;stroke-width:0.999999;stroke-linecap:butt;stroke-linejoin:miter;stroke-miterlimit:4;stroke-dasharray:none;stroke-opacity:1" />
    <path
       id="path33"
       d="M 207.86933,87.745332 V 118.07866"
       style="fill:none;stroke:#000000;stroke-width:0.999999;stroke-linecap:butt;stroke-linejoin:miter;stroke-miterlimit:4;stroke-dasharray:none;stroke-opacity:1" />
    <path
       id="path34"
       d="M 386.04666,102.912 H 209.98933"
       style="fill:none;stroke:#000000;stroke-width:0.999999;stroke-linecap:butt;stroke-linejoin:miter;stroke-miterlimit:4;stroke-dasharray:none;stroke-opacity:1" />
    <path
       id="path35"
       d="m 375.35999,98.473331 12.01467,4.422669 -12.01467,4.416 c 1.916,-2.60933 1.90533,-6.176 0,-8.838669 z"
       style="fill:#000000;fill-opacity:1;fill-rule:evenodd;stroke:#000000;stroke-width:0.687499;stroke-linecap:butt;stroke-linejoin:round;stroke-miterlimit:4;stroke-dasharray:none;stroke-opacity:1" />
    <path
       id="path36"
       d="m 220.68266,107.34933 -12.02133,-4.42266 12.02133,-4.416005 c -1.92267,2.609335 -1.912,6.177335 0,8.838665 z"
       style="fill:#000000;fill-opacity:1;fill-rule:evenodd;stroke:#000000;stroke-width:0.687499;stroke-linecap:butt;stroke-linejoin:round;stroke-miterlimit:4;stroke-dasharray:none;stroke-opacity:1" />
    <path
       id="path37"
       d="m 301.73999,113.78666 c 0,-1.52666 -1.17733,-2.448 -2.636,-2.448 -4.896,0 -6.16666,8.48934 -7.088,11.69734 l -3.532,2.41733 0.31867,0.54133 2.92667,-1.94266 c -0.51067,1.75066 -1.464,3.88 -1.464,5.75466 0,1.93867 1.14666,3.40134 3.17733,3.40134 2.64,0 4.57867,-2.572 5.66133,-4.70267 l -0.57333,-0.224 c -0.796,1.49467 -2.32267,3.74933 -4.228,3.74933 -1.24,0 -1.876,-0.952 -1.876,-2.09866 0,-1.812 1.652,-6.32267 2.16133,-8.04134 2.41734,-1.62 7.152,-4.828 7.152,-8.104 z m -0.89066,0.192 c 0,2.636 -4.03734,5.56267 -5.94267,6.95867 l 1.364,-4.672 c 0.41733,-1.396 1.276,-3.74933 3.052,-3.74933 0.89067,0 1.52667,0.54133 1.52667,1.46266 z"
       style="fill:#c3312f;fill-opacity:1;fill-rule:nonzero;stroke:none;stroke-width:1.33333" />
    <path
       id="path38"
       d="m 302.85999,129.36 0.432,0.104 c 0.828,-2.02667 1.568,-2.688 2.99467,-2.688 1.73467,0 2.916,1.17733 2.916,2.91733 0,1.60933 -0.952,3.53067 -2.68667,5.36933 l -3.67733,3.90667 v 0.244 h 8.05733 l 1.13467,-2.828 -0.27067,-0.104 c -0.76,1.17733 -1.03066,1.364 -1.95733,1.364 h -4.94267 l 3.47334,-3.63467 c 1.83866,-1.92266 2.64533,-3.49466 2.64533,-5.104 0,-2.068 -1.676,-3.656 -3.82267,-3.656 -3.328,0 -4.07333,3.14 -4.296,4.10934 z"
       style="fill:#c3312f;fill-opacity:1;fill-rule:nonzero;stroke:none;stroke-width:1.33333" />
    <path
       id="path39"
       d="m 422.50532,27.426667 0.61467,-4.733334 C 423.20266,22 423.04132,22 422.47866,22 h -12.16134 c -0.45333,0 -0.724,0 -0.724,0.478667 0,0.349333 0.188,0.349333 0.724,0.349333 1.552,0 1.552,0.213333 1.552,0.453333 0,0 0,0.213334 -0.10933,0.614667 l -3.58267,14.328 c -0.21333,0.906666 -0.37066,1.125333 -2.188,1.125333 -0.42666,0 -0.724,0 -0.724,0.505333 0,0.322667 0.29734,0.322667 0.37467,0.322667 1.068,0 2.19333,-0.084 3.26133,-0.084 1.22934,0 2.484,0.084 3.68667,0.084 0.24,0 0.56267,0 0.56267,-0.510667 0,-0.317333 -0.23867,-0.317333 -0.66667,-0.317333 h -0.27067 c -1.948,0 -1.948,-0.218667 -1.948,-0.562667 0,-0.109333 0,-0.161333 0.104,-0.562666 l 1.688,-6.734667 h 2.21867 c 1.73467,0 1.97467,0.401333 1.97467,1.12 0,0.458667 -0.10534,0.885333 -0.21467,1.312 -0.052,0.188 -0.0773,0.292 -0.0773,0.376 0,0.317333 0.292,0.317333 0.40133,0.317333 0.29067,0 0.37467,-0.02667 0.504,-0.532 l 1.47467,-5.88 c 0.0253,-0.109333 0.052,-0.244 0.052,-0.374666 0,-0.297334 -0.32267,-0.297334 -0.40134,-0.297334 -0.34933,0 -0.37466,0.084 -0.51066,0.562667 -0.47867,1.896 -0.90534,2.568 -3.124,2.568 h -2.084 L 413.97866,23.74 c 0.21466,-0.885333 0.40133,-0.912 1.28133,-0.912 h 3.13067 c 2.86,0 3.448,0.828 3.448,2.672 0,0.64 -0.084,1.150667 -0.16134,1.765333 l -0.0267,0.428 c 0,0.322667 0.292,0.322667 0.40133,0.322667 0.37467,0 0.40133,-0.109333 0.45333,-0.589333 z"
       style="fill:#000000;fill-opacity:1;fill-rule:nonzero;stroke:none;stroke-width:1.33333" />
    <path
       id="path40"
       d="m 383.29199,43.843999 v 12.057333 h 12.06267 V 43.843999 Z"
       style="fill:#ffffff;fill-opacity:1;fill-rule:nonzero;stroke:#000000;stroke-width:1.22714;stroke-linecap:butt;stroke-linejoin:miter;stroke-miterlimit:4;stroke-dasharray:none;stroke-opacity:1" />
    <path
       id="path70"
       d="M 39.554802,34.941898 H 85.158801"
       style="fill:none;stroke:#810000;stroke-width:1.88976;stroke-linecap:butt;stroke-linejoin:miter;stroke-miterlimit:4;stroke-dasharray:none;stroke-opacity:1" />
    <path
       id="path71"
       d="m 77.601468,34.941898 -3.781333,3.781333 13.229333,-3.781333 -13.229333,-3.776 z"
       style="fill:#810000;fill-opacity:1;fill-rule:evenodd;stroke:#810000;stroke-width:1.00787;stroke-linecap:butt;stroke-linejoin:miter;stroke-miterlimit:4;stroke-dasharray:none;stroke-opacity:1" />
    <path
       id="path72"
       d="m 212.77346,23.447231 c 0,-0.322666 -0.27066,-0.322666 -0.64666,-0.322666 -1.35867,0 -1.35867,-0.161334 -1.35867,-0.426667 0,-0.188 0.052,-0.324 0.0773,-0.485333 l 3.66134,-14.593333 c 0.0267,-0.07867 0.084,-0.344 0.084,-0.344 0,-0.24 -0.21867,-0.297334 -0.29734,-0.297334 -0.292,0 -1.25466,0.938667 -1.68133,1.688 -0.324,-0.776 -1.016,-1.713333 -2.30267,-1.713333 -2.964,0 -6.12,4.062667 -6.12,7.964 0,2.276 1.22934,4.145333 3.23467,4.145333 1.09867,0 2.08267,-0.697333 2.83333,-1.417333 -0.532,2.084 -0.50533,2.084 -1.04133,4.198666 -0.292,1.145334 -0.324,1.254667 -2.032,1.281334 -0.348,0 -0.64,0 -0.64,0.505333 0,0.244 0.16133,0.322667 0.348,0.322667 0.85467,0 1.78667,-0.07867 2.672,-0.07867 0.88133,0 1.844,0.07867 2.69867,0.07867 0.16133,0 0.51066,0 0.51066,-0.505334 z m -1.98,-7.942666 c -0.21333,0.828 -1.844,2.969333 -3.312,2.969333 -1.26,0 -1.47466,-1.578666 -1.47466,-2.381333 0,-1.333333 0.82933,-4.462667 1.31333,-5.582667 0.66667,-1.630666 1.896,-2.969333 2.98933,-2.969333 0.21867,0 0.83334,0.02667 1.312,0.776 0.26667,0.428 0.53734,1.204 0.53734,1.709333 0,0.08267 -0.032,0.186667 -0.084,0.348 z"
       style="fill:#000000;fill-opacity:1;fill-rule:nonzero;stroke:none;stroke-width:1.33333" />
    <path
       id="path73"
       d="M 97.112134,34.941898 H 142.71613"
       style="fill:none;stroke:#810000;stroke-width:1.88976;stroke-linecap:butt;stroke-linejoin:miter;stroke-miterlimit:4;stroke-dasharray:none;stroke-opacity:1" />
    <path
       id="path74"
       d="m 135.15347,34.941898 -3.776,3.781333 13.22933,-3.781333 -13.22933,-3.776 z"
       style="fill:#810000;fill-opacity:1;fill-rule:evenodd;stroke:#810000;stroke-width:1.00787;stroke-linecap:butt;stroke-linejoin:miter;stroke-miterlimit:4;stroke-dasharray:none;stroke-opacity:1" />
    <path
       id="path75"
       d="m 154.66413,34.941898 h 45.604"
       style="fill:none;stroke:#810000;stroke-width:1.88976;stroke-linecap:butt;stroke-linejoin:miter;stroke-miterlimit:4;stroke-dasharray:none;stroke-opacity:1" />
    <path
       id="path76"
       d="m 192.7108,34.941898 -3.78134,3.781333 13.22934,-3.781333 -13.22934,-3.776 z"
       style="fill:#810000;fill-opacity:1;fill-rule:evenodd;stroke:#810000;stroke-width:1.00787;stroke-linecap:butt;stroke-linejoin:miter;stroke-miterlimit:4;stroke-dasharray:none;stroke-opacity:1" />
    <path
       id="path77"
       d="m 212.21613,34.941898 h 45.604"
       style="fill:none;stroke:#810000;stroke-width:1.88976;stroke-linecap:butt;stroke-linejoin:miter;stroke-miterlimit:4;stroke-dasharray:none;stroke-opacity:1" />
    <path
       id="path78"
       d="m 250.2628,34.941898 -3.78134,3.781333 13.22933,-3.781333 -13.22933,-3.776 z"
       style="fill:#810000;fill-opacity:1;fill-rule:evenodd;stroke:#810000;stroke-width:1.00787;stroke-linecap:butt;stroke-linejoin:miter;stroke-miterlimit:4;stroke-dasharray:none;stroke-opacity:1" />
    <path
       id="path79"
       d="m 269.77346,34.941898 h 45.604"
       style="fill:none;stroke:#810000;stroke-width:1.88976;stroke-linecap:butt;stroke-linejoin:miter;stroke-miterlimit:4;stroke-dasharray:none;stroke-opacity:1" />
    <path
       id="path80"
       d="m 307.81479,34.941898 -3.776,3.781333 13.22934,-3.781333 -13.22934,-3.776 z"
       style="fill:#810000;fill-opacity:1;fill-rule:evenodd;stroke:#810000;stroke-width:1.00787;stroke-linecap:butt;stroke-linejoin:miter;stroke-miterlimit:4;stroke-dasharray:none;stroke-opacity:1" />
    <path
       id="path81"
       d="m 327.32546,34.941898 h 45.604"
       style="fill:none;stroke:#810000;stroke-width:1.88976;stroke-linecap:butt;stroke-linejoin:miter;stroke-miterlimit:4;stroke-dasharray:none;stroke-opacity:1" />
    <path
       id="path82"
       d="m 365.37213,34.941898 -3.78134,3.781333 13.22934,-3.781333 -13.22934,-3.776 z"
       style="fill:#810000;fill-opacity:1;fill-rule:evenodd;stroke:#810000;stroke-width:1.00787;stroke-linecap:butt;stroke-linejoin:miter;stroke-miterlimit:4;stroke-dasharray:none;stroke-opacity:1" />
    <path
       id="path44"
       d="m 371.21013,-5.678102 h 29.54161"
       style="fill:none;stroke:#00ce99;stroke-width:6.74838;stroke-linecap:butt;stroke-linejoin:miter;stroke-miterlimit:4;stroke-dasharray:none;stroke-opacity:1" />
    <path
       id="path45"
       d="m 393.60644,-5.678102 -5.95858,7.646666 20.84411,-7.646666 -20.84411,-7.650667 z"
       style="fill:#00ce99;fill-opacity:1;fill-rule:evenodd;stroke:#00ce99;stroke-width:1.79957;stroke-linecap:butt;stroke-linejoin:miter;stroke-miterlimit:4;stroke-dasharray:none;stroke-opacity:1" />
    <path
       id="path46"
       d="m 385.12178,3.717897 26.16103,-9.582666 -25.86409,-9.322666 4.17692,5.749333 h -18.20278 v 7.661333 h 17.90584 z"
       style="fill:#ffffff;fill-opacity:1;fill-rule:nonzero;stroke:#000000;stroke-width:0.892754;stroke-linecap:butt;stroke-linejoin:miter;stroke-miterlimit:4;stroke-dasharray:none;stroke-opacity:1" />
    <path
       id="path47"
       d="m 391.5852,-26.058102 c 0,-0.265333 -0.21334,-0.265333 -0.40134,-0.265333 -0.31733,0 -0.34266,0.02533 -0.50533,0.614666 -0.37467,1.5 -0.88,3.182667 -1.79067,3.182667 -0.69333,0 -0.69333,-0.724 -0.69333,-1.1 0,-0.186667 0,-0.614667 0.188,-1.358667 l 1.92133,-7.698666 c 0.052,-0.161333 0.0787,-0.296 0.0787,-0.374667 0,-0.296 -0.21333,-0.697333 -0.74533,-0.697333 -0.80134,0 -0.98934,0.776 -1.04134,0.989333 l -1.95333,7.806667 c -0.13467,0.48 -0.13467,0.532 -0.37467,0.881333 -0.50533,0.749333 -1.28133,1.552 -2.45866,1.552 -1.20267,0 -1.44267,-1.177333 -1.44267,-2.057333 0,-1.630667 0.88,-4.037333 1.552,-5.854667 0.21333,-0.562666 0.344,-0.937333 0.344,-1.442666 0,-1.338667 -0.88,-2.166667 -2.03067,-2.166667 -2.48533,0 -3.42266,3.958667 -3.42266,4.114667 0,0.270666 0.27066,0.270666 0.40133,0.270666 0.34933,0 0.37467,-0.05733 0.484,-0.426666 0.21333,-0.833334 0.932,-3.370667 2.484,-3.370667 0.292,0 0.58933,0.07867 0.58933,0.776 0,0.641333 -0.26533,1.36 -0.64133,2.406667 -0.69733,1.869333 -1.39067,3.849333 -1.39067,5.234666 0,2.328 1.548,3.104 2.996,3.104 1.416,0 2.32267,-0.802667 2.96267,-1.604 0.484,1.442667 1.63067,1.604 2.14133,1.604 0.98934,0 1.54667,-0.672 1.948,-1.5 0.484,-1.016 0.80134,-2.62 0.80134,-2.62 z"
       style="fill:#000000;fill-opacity:1;fill-rule:nonzero;stroke:none;stroke-width:1.33333" />
    <path
       id="path48"
       d="m 393.3772,-23.438102 v 0.276 c 1.948,0 3.23466,0.557333 3.23466,2.885333 0,1.756 -1.07866,2.849334 -2.276,2.849334 -0.93733,0 -1.48,-1.041334 -2.36533,-1.041334 -0.484,0 -0.76533,0.244 -0.76533,0.676 0,0.662667 0.71333,1.026667 1.948,1.026667 3.00533,0 4.844,-2.156 4.844,-4.448 0,-1.249333 -0.5,-2.052 -1.66667,-2.588 v -0.052 c 2.104,-0.818667 2.71333,-1.390667 2.71333,-2.573333 0,-1.265333 -1.04666,-2.204 -2.432,-2.204 -1.204,0 -2.276,0.693333 -2.84933,1.808 l 0.276,0.08267 c 0.60933,-0.795999 1.21333,-1.161333 1.948,-1.161333 0.916,0 1.54133,0.641333 1.54133,1.578667 0,2.172 -3.072,2.713333 -4.15066,2.885333 z"
       style="fill:#000000;fill-opacity:1;fill-rule:nonzero;stroke:none;stroke-width:1.33333" />
  </g>
  <metadata
     id="metadata40">
    <rdf:RDF>
      <cc:Work
         rdf:about="">
        <dc:title>Extension 2 fields with q</dc:title>
      </cc:Work>
    </rdf:RDF>
  </metadata>
</svg>
