<?xml version="1.0" encoding="UTF-8" standalone="no"?>
<!-- Created with Inkscape (http://www.inkscape.org/) -->

<svg
   width="85.397659mm"
   height="11.496007mm"
   viewBox="0 0 85.39766 11.496007"
   version="1.1"
   id="svg1"
   inkscape:version="1.3.2 (091e20e, 2023-11-25, custom)"
   sodipodi:docname="nodalequilibrium.svg"
   xmlns:inkscape="http://www.inkscape.org/namespaces/inkscape"
   xmlns:sodipodi="http://sodipodi.sourceforge.net/DTD/sodipodi-0.dtd"
   xmlns="http://www.w3.org/2000/svg"
   xmlns:svg="http://www.w3.org/2000/svg">
  <sodipodi:namedview
     id="namedview1"
     pagecolor="#ffffff"
     bordercolor="#000000"
     borderopacity="0.25"
     inkscape:showpageshadow="2"
     inkscape:pageopacity="0.0"
     inkscape:pagecheckerboard="0"
     inkscape:deskcolor="#d1d1d1"
     inkscape:document-units="mm"
     inkscape:zoom="1.9830139"
     inkscape:cx="158.34483"
     inkscape:cy="-14.372063"
     inkscape:window-width="1920"
     inkscape:window-height="1001"
     inkscape:window-x="-9"
     inkscape:window-y="-9"
     inkscape:window-maximized="1"
     inkscape:current-layer="layer1" />
  <defs
     id="defs1">
    <rect
       x="661.11487"
       y="419.56339"
       width="76.146721"
       height="33.786953"
       id="rect2" />
    <rect
       x="455.35504"
       y="459.634"
       width="37.79768"
       height="37.797676"
       id="rect1" />
    <rect
       x="455.35504"
       y="459.634"
       width="37.79768"
       height="37.797676"
       id="rect1-0" />
  </defs>
  <g
     inkscape:label="Laag 1"
     inkscape:groupmode="layer"
     id="layer1"
     transform="translate(-98.954167,-122.07049)">
    <path
       id="path7"
       d="m 114.1222,129.64442 v 3.19017 h 3.19017 v -3.19017 z"
       style="fill:#ffffff;fill-opacity:1;fill-rule:nonzero;stroke:#000000;stroke-width:0.324681;stroke-linecap:butt;stroke-linejoin:miter;stroke-miterlimit:4;stroke-dasharray:none;stroke-opacity:1" />
    <path
       id="path8"
       d="m 98.954167,131.24039 h 7.999593"
       style="fill:none;stroke:#000000;stroke-width:0.899999;stroke-linecap:butt;stroke-linejoin:miter;stroke-miterlimit:3.9;stroke-dasharray:none;stroke-opacity:1" />
    <path
       id="path9"
       d="m 106.95376,131.24039 -2.25037,2.24896 7.87541,-2.24896 -7.87541,-2.25037 z"
       style="fill:#000000;fill-opacity:1;fill-rule:evenodd;stroke:none;stroke-width:0.352778" />
    <path
       id="path10"
       d="m 105.59909,123.67331 0.16263,-1.25237 c 0.0205,-0.18344 -0.0222,-0.18344 -0.16969,-0.18344 h -3.21768 c -0.12101,0 -0.19156,0 -0.19156,0.12665 0,0.0924 0.0497,0.0924 0.19156,0.0924 0.40922,0 0.40922,0.0564 0.40922,0.11995 0,0 0,0.0564 -0.0275,0.16263 l -0.94791,3.79095 c -0.0564,0.23989 -0.0991,0.29633 -0.58032,0.29633 -0.11289,0 -0.19015,0 -0.19015,0.13512 0,0.0854 0.0773,0.0854 0.0995,0.0854 0.28222,0 0.57855,-0.0222 0.86254,-0.0222 0.32526,0 0.65722,0.0222 0.97543,0.0222 0.0635,0 0.14887,0 0.14887,-0.13511 0,-0.0854 -0.0646,-0.0854 -0.1778,-0.0854 h -0.0702 c -0.51682,0 -0.51682,-0.0564 -0.51682,-0.14746 0,-0.0289 0,-0.0427 0.0289,-0.14887 l 0.4452,-1.78188 h 0.58702 c 0.46038,0 0.52388,0.10619 0.52388,0.29633 0,0.12136 -0.0293,0.23425 -0.0568,0.34714 -0.0138,0.0497 -0.0219,0.0773 -0.0219,0.0995 0,0.084 0.0787,0.084 0.10619,0.084 0.0783,0 0.0991,-0.007 0.13476,-0.14076 l 0.38876,-1.55575 c 0.007,-0.0289 0.0138,-0.0646 0.0138,-0.0991 0,-0.0787 -0.084,-0.0787 -0.10619,-0.0787 -0.0907,0 -0.0977,0.0222 -0.1337,0.14887 -0.12665,0.50165 -0.24095,0.67945 -0.82656,0.67945 h -0.5528 l 0.45332,-1.83127 c 0.0568,-0.23424 0.10618,-0.2413 0.33901,-0.2413 h 0.82692 c 0.7567,0 0.91228,0.21908 0.91228,0.70697 0,0.16933 -0.0208,0.30445 -0.0413,0.46708 l -0.007,0.11324 c 0,0.0854 0.0773,0.0854 0.10618,0.0854 0.0977,0 0.10478,-0.0289 0.11995,-0.15592 z"
       style="fill:#000000;fill-opacity:1;fill-rule:nonzero;stroke:none;stroke-width:0.352778" />
    <path
       id="path11"
       d="m 105.4421,128.46085 h 1.2827 v -0.0691 h -0.0744 c -0.22437,0 -0.32103,-0.0469 -0.32103,-0.14746 0,-0.0783 0.073,-0.28505 0.0829,-0.34043 l 0.65723,-2.38513 c 0.018,-0.0692 0.0275,-0.11042 0.0275,-0.13371 0,-0.018 -0.01,-0.0318 -0.0233,-0.0318 l -0.79128,0.15558 c -0.008,0 -0.0452,0.01 -0.0963,0.0194 v 0.0688 l 0.26317,-0.01 c 0.004,0 0.008,0 0.008,0 0.10195,0 0.1651,0.0607 0.1651,0.14323 0,0.0275 -0.008,0.073 -0.0318,0.15592 l -0.63359,2.26131 c -0.0469,0.17074 -0.1531,0.21625 -0.51541,0.248 z"
       style="fill:#000000;fill-opacity:1;fill-rule:nonzero;stroke:none;stroke-width:0.352778" />
    <path
       id="path8-8"
       d="m 118.53308,131.14629 h 7.99959"
       style="fill:none;stroke:#000000;stroke-width:0.899999;stroke-linecap:butt;stroke-linejoin:miter;stroke-miterlimit:3.9;stroke-dasharray:none;stroke-opacity:1" />
    <path
       id="path9-6"
       d="m 126.53267,131.14629 -2.25037,2.24896 7.87541,-2.24896 -7.87541,-2.25037 z"
       style="fill:#000000;fill-opacity:1;fill-rule:evenodd;stroke:none;stroke-width:0.352778" />
    <path
       id="path11-3"
       d="m 125.02101,128.36675 h 1.2827 v -0.0691 h -0.0744 c -0.22437,0 -0.32103,-0.0469 -0.32103,-0.14746 0,-0.0783 0.073,-0.28505 0.0829,-0.34043 l 0.65723,-2.38513 c 0.018,-0.0692 0.0275,-0.11042 0.0275,-0.13371 0,-0.018 -0.01,-0.0318 -0.0233,-0.0318 l -0.79128,0.15558 c -0.008,0 -0.0452,0.01 -0.0963,0.0194 v 0.0688 l 0.26317,-0.01 c 0.004,0 0.008,0 0.008,0 0.10195,0 0.1651,0.0607 0.1651,0.14323 0,0.0275 -0.008,0.073 -0.0318,0.15592 l -0.63359,2.26131 c -0.0469,0.17074 -0.1531,0.21625 -0.51541,0.248 z"
       style="fill:#000000;fill-opacity:1;fill-rule:nonzero;stroke:none;stroke-width:0.352778" />
    <text
       xml:space="preserve"
       transform="matrix(0.26458333,0,0,0.26458333,-0.13342485,-1.1341112)"
       id="text1"
       style="font-size:16px;font-family:'Times New Roman';-inkscape-font-specification:'Times New Roman, Normal';white-space:pre;shape-inside:url(#rect1);fill:#000000;stroke:#000000;stroke-width:0"><tspan
         x="455.35547"
         y="483.31148"
         id="tspan6"><tspan
           style="font-style:italic;font-size:26.6667px;-inkscape-font-specification:'Times New Roman, Italic'"
           id="tspan5">N</tspan></tspan></text>
    <path
       id="path7-0"
       d="m 166.34965,129.68225 v 3.19017 h 3.19017 v -3.19017 z"
       style="fill:#ffffff;fill-opacity:1;fill-rule:nonzero;stroke:#000000;stroke-width:0.324681;stroke-linecap:butt;stroke-linejoin:miter;stroke-miterlimit:4;stroke-dasharray:none;stroke-opacity:1" />
    <path
       id="path8-9-0"
       d="m 170.7272,131.21805 h 7.99959"
       style="fill:none;stroke:#000000;stroke-width:0.899999;stroke-linecap:butt;stroke-linejoin:miter;stroke-miterlimit:3.9;stroke-dasharray:none;stroke-opacity:1" />
    <path
       id="path9-67-1"
       d="m 178.72679,131.21805 -2.25037,2.24896 7.87541,-2.24896 -7.87541,-2.25037 z"
       style="fill:#000000;fill-opacity:1;fill-rule:evenodd;stroke:none;stroke-width:0.352778" />
    <path
       id="path8-8-8"
       d="m 165.17651,131.31754 h -7.99959"
       style="fill:none;stroke:#000000;stroke-width:0.899999;stroke-linecap:butt;stroke-linejoin:miter;stroke-miterlimit:3.9;stroke-dasharray:none;stroke-opacity:1" />
    <path
       id="path9-6-5"
       d="m 157.17692,131.31754 2.25037,2.24896 -7.87541,-2.24896 7.87541,-2.25037 z"
       style="fill:#000000;fill-opacity:1;fill-rule:evenodd;stroke:none;stroke-width:0.352778" />
    <text
       xml:space="preserve"
       transform="matrix(0.26458333,0,0,0.26458333,35.531222,-0.96285933)"
       id="text1-9"
       style="font-size:16px;font-family:'Times New Roman';-inkscape-font-specification:'Times New Roman, Normal';white-space:pre;shape-inside:url(#rect1-0);fill:#000000;stroke:#000000;stroke-width:0"><tspan
         x="455.35547"
         y="483.31148"
         id="tspan8"><tspan
           style="font-style:italic;font-size:26.6667px;-inkscape-font-specification:'Times New Roman, Italic'"
           id="tspan7">N</tspan></tspan></text>
    <g
       id="g1"
       transform="matrix(0.26458333,0,0,0.26458333,103.30366,122.23543)">
      <path
         id="path14"
         d="m 210.961,4.07 0.461,-3.55 C 211.484,0 211.363,0 210.941,0 h -9.121 c -0.34,0 -0.539,0 -0.539,0.359 0,0.262 0.137,0.262 0.539,0.262 1.164,0 1.164,0.16 1.164,0.34 0,0 0,0.16 -0.082,0.461 l -2.683,10.746 c -0.16,0.68 -0.281,0.84 -1.645,0.84 -0.32,0 -0.543,0 -0.543,0.383 0,0.242 0.223,0.242 0.281,0.242 0.801,0 1.645,-0.063 2.446,-0.063 0.922,0 1.863,0.063 2.765,0.063 0.18,0 0.422,0 0.422,-0.383 0,-0.242 -0.179,-0.242 -0.5,-0.242 h -0.203 c -1.461,0 -1.461,-0.16 -1.461,-0.418 0,-0.082 0,-0.121 0.078,-0.422 l 1.266,-5.051 h 1.664 c 1.301,0 1.481,0.301 1.481,0.84 0,0.344 -0.079,0.664 -0.161,0.984 -0.039,0.141 -0.058,0.219 -0.058,0.282 0,0.238 0.219,0.238 0.301,0.238 0.218,0 0.281,-0.02 0.378,-0.399 l 1.106,-4.41 c 0.019,-0.082 0.039,-0.183 0.039,-0.281 0,-0.223 -0.242,-0.223 -0.301,-0.223 -0.262,0 -0.281,0.063 -0.383,0.422 -0.359,1.422 -0.679,1.926 -2.343,1.926 h -1.563 l 1.281,-5.191 c 0.161,-0.664 0.301,-0.684 0.961,-0.684 h 2.348 c 2.145,0 2.586,0.621 2.586,2.004 0,0.48 -0.059,0.863 -0.121,1.324 l -0.02,0.321 c 0,0.242 0.223,0.242 0.301,0.242 0.281,0 0.301,-0.082 0.34,-0.442 z"
         style="fill:#000000;fill-opacity:1;fill-rule:nonzero;stroke:none"
         transform="scale(1.3333333)" />
      <path
         id="path15"
         d="m 210.922,10.918 0.273,0.09 c 0.481,-0.848 1.043,-1.223 1.825,-1.223 0.925,0 1.628,0.676 1.628,1.59 0,0.625 -0.339,1.496 -1.875,3.125 l -2.738,2.918 v 0.223 h 4.625 l 0.652,-1.719 -0.222,-0.094 c -0.313,0.652 -0.586,0.82 -1.289,0.82 h -2.477 v -0.062 l 2.504,-2.504 c 1.524,-1.523 1.942,-2.176 1.942,-3.035 0,-1.25 -0.926,-2.215 -2.114,-2.215 -1.027,0 -2.082,0.469 -2.734,2.086 z"
         style="fill:#000000;fill-opacity:1;fill-rule:nonzero;stroke:none"
         transform="scale(1.3333333)"
         sodipodi:nodetypes="ccssccccccscccssc" />
      <path
         id="path15-1"
         d="m 219.74363,13.789169 0.364,0.12 c 0.64134,-1.130666 1.39067,-1.630666 2.43334,-1.630666 1.23333,0 2.17066,0.901333 2.17066,2.12 0,0.833333 -0.452,1.994666 -2.5,4.166666 l -3.65066,3.890667 v 0.297333 h 6.16666 l 0.86934,-2.292 -0.296,-0.125333 c -0.41734,0.869333 -0.78134,1.093333 -1.71867,1.093333 h -3.30267 v -0.08267 l 3.33867,-3.338667 c 2.032,-2.030666 2.58933,-2.901333 2.58933,-4.046666 0,-1.666667 -1.23466,-2.953333 -2.81866,-2.953333 -1.36934,0 -2.776,0.625333 -3.64534,2.781333 z"
         style="fill:#000000;fill-opacity:1;fill-rule:nonzero;stroke:none;stroke-width:1.33333"
         sodipodi:nodetypes="ccssccccccscccsscc" />
    </g>
    <text
       xml:space="preserve"
       transform="scale(0.26458333)"
       id="text2"
       style="font-style:italic;font-variant:normal;font-weight:normal;font-stretch:normal;font-size:26.6667px;font-family:'Times New Roman';-inkscape-font-specification:'Times New Roman, Italic';font-variant-ligatures:normal;font-variant-caps:normal;font-variant-numeric:normal;font-variant-east-asian:normal;white-space:pre;shape-inside:url(#rect2);fill:#000000;stroke:#000000;stroke-width:0" />
  </g>
</svg>
