<?xml version="1.0" encoding="UTF-8" standalone="no"?>
<!-- Created with Inkscape (http://www.inkscape.org/) -->

<svg
   version="1.1"
   id="svg1"
   width="887.0799"
   height="74.887817"
   viewBox="0 0 887.0799 74.887817"
   sodipodi:docname="nodaleq2.svg"
   inkscape:version="1.3.2 (091e20e, 2023-11-25, custom)"
   xmlns:inkscape="http://www.inkscape.org/namespaces/inkscape"
   xmlns:sodipodi="http://sodipodi.sourceforge.net/DTD/sodipodi-0.dtd"
   xmlns="http://www.w3.org/2000/svg"
   xmlns:svg="http://www.w3.org/2000/svg">
  <defs
     id="defs1" />
  <sodipodi:namedview
     id="namedview1"
     pagecolor="#ffffff"
     bordercolor="#000000"
     borderopacity="0.25"
     inkscape:showpageshadow="2"
     inkscape:pageopacity="0.0"
     inkscape:pagecheckerboard="0"
     inkscape:deskcolor="#d1d1d1"
     inkscape:zoom="1.3820627"
     inkscape:cx="443.53995"
     inkscape:cy="37.263144"
     inkscape:window-width="1920"
     inkscape:window-height="1001"
     inkscape:window-x="-9"
     inkscape:window-y="-9"
     inkscape:window-maximized="1"
     inkscape:current-layer="g1">
    <inkscape:page
       x="0"
       y="0"
       inkscape:label="1"
       id="page1"
       width="887.0799"
       height="74.887817"
       margin="0"
       bleed="0" />
  </sodipodi:namedview>
  <g
     id="g1"
     inkscape:groupmode="layer"
     inkscape:label="1">
    <path
       id="path1"
       d="m 27.215,-326.027 h 9.047 v -9.043 h -9.047 z"
       style="fill:#ffffff;fill-opacity:1;fill-rule:nonzero;stroke:#000000;stroke-width:0.920356;stroke-linecap:butt;stroke-linejoin:miter;stroke-miterlimit:4;stroke-dasharray:none;stroke-opacity:1"
       transform="matrix(0,1.3333333,-1.3333333,0,0,0)" />
    <path
       id="path2"
       d="m 626.688,31.875 h 22.675"
       style="fill:none;stroke:#000000;stroke-width:2.55118;stroke-linecap:butt;stroke-linejoin:miter;stroke-miterlimit:3.9;stroke-dasharray:none;stroke-opacity:1"
       transform="scale(1.3333333)" />
    <path
       id="path3"
       d="m 649.363,31.875 -6.375,6.379 22.321,-6.379 -22.321,-6.379 z"
       style="fill:#000000;fill-opacity:1;fill-rule:evenodd;stroke:none"
       transform="scale(1.3333333)" />
    <path
       id="path4"
       d="m 645.523,7.402 0.461,-3.547 c 0.063,-0.523 -0.058,-0.523 -0.48,-0.523 h -9.121 c -0.34,0 -0.543,0 -0.543,0.363 0,0.258 0.14,0.258 0.543,0.258 1.164,0 1.164,0.16 1.164,0.344 0,0 0,0.16 -0.082,0.461 L 634.777,15.5 c -0.16,0.684 -0.277,0.844 -1.64,0.844 -0.321,0 -0.543,0 -0.543,0.379 0,0.242 0.222,0.242 0.281,0.242 0.801,0 1.645,-0.063 2.445,-0.063 0.922,0 1.864,0.063 2.766,0.063 0.18,0 0.422,0 0.422,-0.383 0,-0.238 -0.18,-0.238 -0.5,-0.238 h -0.203 c -1.461,0 -1.461,-0.16 -1.461,-0.422 0,-0.078 0,-0.121 0.078,-0.422 l 1.266,-5.051 h 1.664 c 1.3,0 1.48,0.301 1.48,0.844 0,0.34 -0.078,0.66 -0.16,0.98 -0.039,0.141 -0.059,0.223 -0.059,0.282 0,0.238 0.219,0.238 0.301,0.238 0.219,0 0.281,-0.02 0.379,-0.398 l 1.105,-4.411 c 0.02,-0.082 0.04,-0.179 0.04,-0.281 0,-0.219 -0.243,-0.219 -0.301,-0.219 -0.262,0 -0.282,0.059 -0.383,0.418 -0.359,1.426 -0.68,1.926 -2.344,1.926 h -1.562 l 1.281,-5.191 c 0.16,-0.66 0.301,-0.684 0.961,-0.684 h 2.348 c 2.144,0 2.585,0.621 2.585,2.008 0,0.48 -0.062,0.859 -0.121,1.32 l -0.019,0.321 c 0,0.242 0.219,0.242 0.301,0.242 0.281,0 0.3,-0.082 0.339,-0.442 z"
       style="fill:#000000;fill-opacity:1;fill-rule:nonzero;stroke:none"
       transform="scale(1.3333333)" />
    <path
       id="path5"
       d="m 27.215,-616.113 h 9.047 v -9.047 h -9.047 z"
       style="fill:#ffffff;fill-opacity:1;fill-rule:nonzero;stroke:#000000;stroke-width:0.920356;stroke-linecap:butt;stroke-linejoin:miter;stroke-miterlimit:4;stroke-dasharray:none;stroke-opacity:1"
       transform="matrix(0,1.3333333,-1.3333333,0,0,0)" />
    <path
       id="path6"
       d="m 27.078,-41.434 h 9.043 v -9.043 h -9.043 z"
       style="fill:#ffffff;fill-opacity:1;fill-rule:nonzero;stroke:#000000;stroke-width:0.920356;stroke-linecap:butt;stroke-linejoin:miter;stroke-miterlimit:4;stroke-dasharray:none;stroke-opacity:1"
       transform="matrix(0,1.3333333,-1.3333333,0,0,0)" />
    <path
       id="path7"
       d="M 610.434,31.875 H 587.758"
       style="fill:none;stroke:#c3312f;stroke-width:2.55118;stroke-linecap:butt;stroke-linejoin:miter;stroke-miterlimit:3.9;stroke-dasharray:none;stroke-opacity:1"
       transform="scale(1.3333333)" />
    <path
       id="path8"
       d="m 587.758,31.875 6.379,-6.379 -22.325,6.379 22.325,6.379 z"
       style="fill:#c3312f;fill-opacity:1;fill-rule:evenodd;stroke:none"
       transform="scale(1.3333333)" />
    <path
       id="path9"
       d="M 377.363,31.875 H 354.688"
       style="fill:none;stroke:#c3312f;stroke-width:2.55118;stroke-linecap:butt;stroke-linejoin:miter;stroke-miterlimit:3.9;stroke-dasharray:none;stroke-opacity:1"
       transform="scale(1.3333333)" />
    <path
       id="path10"
       d="m 354.688,31.875 6.374,-6.379 -22.32,6.379 22.32,6.379 z"
       style="fill:#c3312f;fill-opacity:1;fill-rule:evenodd;stroke:none"
       transform="scale(1.3333333)" />
    <path
       id="path11"
       d="M 322.355,31.875 H 299.68"
       style="fill:none;stroke:#017188;stroke-width:2.55118;stroke-linecap:butt;stroke-linejoin:miter;stroke-miterlimit:3.9;stroke-dasharray:none;stroke-opacity:1"
       transform="scale(1.3333333)" />
    <path
       id="path12"
       d="m 299.68,31.875 6.379,-6.379 -22.321,6.379 22.321,6.379 z"
       style="fill:#017188;fill-opacity:1;fill-rule:evenodd;stroke:none"
       transform="scale(1.3333333)" />
    <path
       id="path13"
       d="M 91.91,31.738 H 69.234"
       style="fill:none;stroke:#017188;stroke-width:2.55118;stroke-linecap:butt;stroke-linejoin:miter;stroke-miterlimit:3.9;stroke-dasharray:none;stroke-opacity:1"
       transform="scale(1.3333333)" />
    <path
       id="path14"
       d="m 69.234,31.738 6.375,-6.379 -22.32,6.379 22.32,6.379 z"
       style="fill:#017188;fill-opacity:1;fill-rule:evenodd;stroke:none"
       transform="scale(1.3333333)" />
    <path
       id="path15"
       d="M 0,31.738 H 22.676"
       style="fill:none;stroke:#000000;stroke-width:2.55118;stroke-linecap:butt;stroke-linejoin:miter;stroke-miterlimit:3.9;stroke-dasharray:none;stroke-opacity:1"
       transform="scale(1.3333333)" />
    <path
       id="path16"
       d="M 22.676,31.738 16.297,38.117 38.621,31.738 16.297,25.359 Z"
       style="fill:#000000;fill-opacity:1;fill-rule:evenodd;stroke:none"
       transform="scale(1.3333333)" />
    <path
       id="path17"
       d="m 44.285,43.184 c 0.422,0 0.602,0.3 0.602,0.941 v 9.082 c 0,1.301 -0.481,1.523 -1.903,1.563 v 0.3 h 5.532 v -0.3 C 46.934,54.75 46.613,54.547 46.613,53.586 V 41.559 l -0.16,-0.039 -3.609,1.824 v 0.281 c 0.781,-0.324 1.14,-0.441 1.441,-0.441 z"
       style="fill:#000000;fill-opacity:1;fill-rule:nonzero;stroke:none"
       transform="scale(1.3333333)" />
    <path
       id="path18"
       d="m 325.359,45.645 0.422,0.101 c 0.801,-1.965 1.524,-2.605 2.907,-2.605 1.683,0 2.824,1.14 2.824,2.824 0,1.566 -0.922,3.43 -2.606,5.215 l -3.566,3.785 v 0.242 h 7.816 L 334.258,52.461 334,52.359 c -0.742,1.145 -1.004,1.325 -1.906,1.325 h -4.789 l 3.367,-3.528 c 1.785,-1.863 2.566,-3.386 2.566,-4.953 0,-2.004 -1.625,-3.547 -3.711,-3.547 -3.226,0 -3.949,3.047 -4.168,3.989 z"
       style="fill:#000000;fill-opacity:1;fill-rule:nonzero;stroke:none"
       transform="scale(1.3333333)" />
    <path
       id="path19"
       d="m 617.336,53.645 c -0.461,0 -0.762,0.281 -0.762,0.699 0,0.703 0.864,1.144 2.266,1.144 3.105,0 5.531,-1.785 5.531,-4.672 0,-2.183 -1.223,-3.066 -2.562,-3.648 1.382,-0.941 1.882,-1.684 1.882,-2.766 0,-1.625 -1.281,-2.746 -3.129,-2.746 -2.445,0 -3.406,1.742 -3.949,3.246 l 0.301,0.082 c 0.824,-1.464 1.727,-2.125 2.988,-2.125 1.305,0 2.207,0.883 2.207,2.145 0,2.004 -1.824,2.805 -3.328,3.328 v 0.262 c 1.703,0 4.149,0.441 4.149,3.187 0,1.684 -1.145,2.985 -2.625,2.985 -1.285,0 -1.985,-1.121 -2.969,-1.121 z"
       style="fill:#000000;fill-opacity:1;fill-rule:nonzero;stroke:none"
       transform="scale(1.3333333)" />
    <path
       id="path20"
       d="m 16.043,16.465 c 0,-0.258 -0.141,-0.258 -0.543,-0.258 -1.16,0 -1.16,-0.164 -1.16,-0.344 0,0 0,-0.16 0.078,-0.461 L 17.125,4.559 c 0.16,-0.641 0.32,-0.801 1.586,-0.801 0.418,0 0.598,0 0.598,-0.363 0,-0.219 -0.137,-0.258 -0.278,-0.258 -0.761,0 -1.586,0.058 -2.367,0.058 -0.801,0 -1.625,-0.058 -2.406,-0.058 -0.117,0 -0.379,0 -0.379,0.379 0,0.242 0.16,0.242 0.539,0.242 0.621,0 1.164,0 1.164,0.34 0,0.058 0,0.101 -0.082,0.379 L 14.277,9.391 H 8.785 L 9.988,4.559 c 0.16,-0.641 0.321,-0.801 1.586,-0.801 0.418,0 0.602,0 0.602,-0.363 0,-0.219 -0.141,-0.258 -0.281,-0.258 -0.762,0 -1.586,0.058 -2.368,0.058 -0.8,0 -1.625,-0.058 -2.406,-0.058 -0.117,0 -0.379,0 -0.379,0.379 0,0.242 0.16,0.242 0.539,0.242 0.621,0 1.164,0 1.164,0.34 0,0.058 0,0.101 -0.078,0.379 L 5.66,15.363 c -0.16,0.68 -0.281,0.844 -1.644,0.844 -0.321,0 -0.543,0 -0.543,0.379 0,0.242 0.222,0.242 0.281,0.242 0.762,0 1.586,-0.062 2.367,-0.062 0.801,0 1.621,0.062 2.406,0.062 0.137,0 0.379,0 0.379,-0.363 0,-0.258 -0.14,-0.258 -0.539,-0.258 -1.164,0 -1.164,-0.164 -1.164,-0.344 0,-0.078 0,-0.117 0.078,-0.398 l 1.344,-5.453 h 5.492 l -1.32,5.351 c -0.16,0.68 -0.281,0.844 -1.645,0.844 -0.32,0 -0.543,0 -0.543,0.379 0,0.242 0.223,0.242 0.282,0.242 0.761,0 1.586,-0.062 2.367,-0.062 0.801,0 1.621,0.062 2.402,0.062 0.141,0 0.383,0 0.383,-0.363 z"
       style="fill:#000000;fill-opacity:1;fill-rule:nonzero;stroke:none"
       transform="scale(1.3333333)" />
    <path
       id="path21"
       d="m 79.703,7.266 0.461,-3.551 c 0.059,-0.52 -0.062,-0.52 -0.48,-0.52 h -9.122 c -0.343,0 -0.542,0 -0.542,0.36 0,0.261 0.14,0.261 0.542,0.261 1.161,0 1.161,0.161 1.161,0.34 0,0 0,0.16 -0.078,0.461 l -2.688,10.746 c -0.16,0.68 -0.281,0.844 -1.645,0.844 -0.32,0 -0.539,0 -0.539,0.379 0,0.242 0.219,0.242 0.282,0.242 0.8,0 1.64,-0.062 2.445,-0.062 0.922,0 1.863,0.062 2.766,0.062 0.179,0 0.422,0 0.422,-0.383 0,-0.238 -0.184,-0.238 -0.504,-0.238 h -0.2 c -1.464,0 -1.464,-0.164 -1.464,-0.422 0,-0.082 0,-0.121 0.082,-0.422 l 1.261,-5.051 h 1.664 c 1.305,0 1.485,0.301 1.485,0.84 0,0.344 -0.082,0.664 -0.16,0.985 -0.04,0.14 -0.063,0.218 -0.063,0.281 0,0.238 0.223,0.238 0.301,0.238 0.222,0 0.281,-0.019 0.383,-0.398 l 1.101,-4.41 c 0.02,-0.082 0.039,-0.184 0.039,-0.282 0,-0.222 -0.238,-0.222 -0.297,-0.222 -0.261,0 -0.281,0.062 -0.382,0.422 -0.36,1.422 -0.68,1.925 -2.344,1.925 H 72.023 L 73.309,4.5 c 0.16,-0.664 0.3,-0.684 0.961,-0.684 h 2.343 c 2.149,0 2.586,0.622 2.586,2.004 0,0.481 -0.058,0.864 -0.117,1.325 l -0.02,0.32 c 0,0.242 0.219,0.242 0.301,0.242 0.278,0 0.301,-0.082 0.34,-0.441 z"
       style="fill:#017188;fill-opacity:1;fill-rule:nonzero;stroke:none"
       transform="scale(1.3333333)" />
    <path
       id="path22"
       d="m 85.23,11.113 0.157,-0.207 c -1.34,-1.054 -2.215,-2.097 -2.215,-5.422 0,-3.191 0.875,-4.195 2.215,-5.277 L 85.27,0 c -1.067,0.691 -3.219,2.215 -3.219,5.523 0,3.141 2.215,5.004 3.179,5.59 z M 88.148,1.082 c 0.274,0 0.391,0.195 0.391,0.613 v 5.903 c 0,0.847 -0.312,0.988 -1.238,1.015 v 0.196 h 3.597 V 8.613 C 89.871,8.602 89.66,8.469 89.66,7.844 V 0.027 L 89.555,0 87.211,1.188 V 1.367 C 87.719,1.16 87.953,1.082 88.148,1.082 Z M 92.812,0 92.656,0.207 c 1.344,1.059 2.215,2.098 2.215,5.422 0,3.191 -0.871,4.195 -2.215,5.277 l 0.117,0.207 c 1.071,-0.687 3.219,-2.215 3.219,-5.523 0,-3.141 -2.215,-5.004 -3.18,-5.59 z"
       style="fill:#017188;fill-opacity:1;fill-rule:nonzero;stroke:none"
       transform="scale(1.3333333)" />
    <path
       id="path23"
       d="m 81.059,13.109 c 0.273,0 0.39,0.196 0.39,0.614 v 5.902 c 0,0.848 -0.312,0.988 -1.234,1.016 v 0.195 h 3.594 V 20.641 C 82.781,20.629 82.57,20.496 82.57,19.871 v -7.816 l -0.101,-0.028 -2.348,1.188 v 0.18 c 0.508,-0.207 0.742,-0.286 0.938,-0.286 z"
       style="fill:#017188;fill-opacity:1;fill-rule:nonzero;stroke:none"
       transform="scale(1.3333333)" />
    <path
       id="path24"
       d="m 179.332,56.164 0.242,-0.32 c -2.066,-1.621 -3.41,-3.227 -3.41,-8.336 0,-4.914 1.344,-6.457 3.41,-8.121 l -0.183,-0.321 c -1.641,1.063 -4.95,3.407 -4.95,8.5 0,4.832 3.407,7.7 4.891,8.598 z M 183.82,40.73 c 0.422,0 0.602,0.301 0.602,0.942 v 9.082 c 0,1.301 -0.481,1.523 -1.902,1.562 v 0.301 h 5.531 v -0.301 c -1.582,-0.019 -1.903,-0.218 -1.903,-1.183 V 39.105 l -0.16,-0.039 -3.609,1.825 v 0.281 c 0.781,-0.32 1.141,-0.442 1.441,-0.442 z m 7.18,-1.664 -0.242,0.321 c 2.066,1.625 3.406,3.226 3.406,8.34 0,4.91 -1.34,6.453 -3.406,8.117 l 0.18,0.32 c 1.644,-1.062 4.953,-3.406 4.953,-8.496 0,-4.832 -3.411,-7.699 -4.891,-8.602 z"
       style="fill:#017188;fill-opacity:1;fill-rule:nonzero;stroke:none"
       transform="scale(1.3333333)" />
    <path
       id="path25"
       d="m 472.059,56.164 0.238,-0.32 c -2.063,-1.621 -3.406,-3.227 -3.406,-8.336 0,-4.914 1.343,-6.457 3.406,-8.121 l -0.18,-0.321 c -1.644,1.063 -4.949,3.407 -4.949,8.5 0,4.832 3.406,7.7 4.891,8.598 z m 1.441,-13.109 0.422,0.101 c 0.801,-1.965 1.523,-2.605 2.906,-2.605 1.684,0 2.828,1.14 2.828,2.824 0,1.566 -0.922,3.43 -2.609,5.215 l -3.567,3.789 v 0.238 h 7.817 l 1.105,-2.746 -0.261,-0.101 c -0.743,1.144 -1.004,1.324 -1.907,1.324 h -4.789 l 3.367,-3.528 c 1.786,-1.863 2.567,-3.386 2.567,-4.953 0,-2.004 -1.625,-3.547 -3.707,-3.547 -3.231,0 -3.949,3.047 -4.172,3.989 z m 10.223,-3.989 -0.239,0.321 c 2.063,1.625 3.407,3.226 3.407,8.34 0,4.91 -1.344,6.453 -3.407,8.117 l 0.18,0.32 c 1.645,-1.062 4.949,-3.406 4.949,-8.496 0,-4.832 -3.406,-7.699 -4.89,-8.602 z"
       style="fill:#c3312f;fill-opacity:1;fill-rule:nonzero;stroke:none"
       transform="scale(1.3333333)" />
    <path
       id="path26"
       d="m 250.645,7.266 0.46,-3.551 c 0.059,-0.52 -0.062,-0.52 -0.484,-0.52 H 241.5 c -0.34,0 -0.539,0 -0.539,0.36 0,0.261 0.141,0.261 0.539,0.261 1.164,0 1.164,0.161 1.164,0.34 0,0 0,0.16 -0.078,0.461 l -2.688,10.746 c -0.16,0.68 -0.281,0.844 -1.644,0.844 -0.32,0 -0.539,0 -0.539,0.379 0,0.242 0.219,0.242 0.277,0.242 0.805,0 1.645,-0.062 2.446,-0.062 0.921,0 1.867,0.062 2.769,0.062 0.18,0 0.418,0 0.418,-0.383 0,-0.238 -0.18,-0.238 -0.5,-0.238 h -0.199 c -1.465,0 -1.465,-0.164 -1.465,-0.422 0,-0.082 0,-0.121 0.082,-0.422 l 1.262,-5.051 h 1.664 c 1.304,0 1.484,0.301 1.484,0.84 0,0.344 -0.082,0.664 -0.16,0.985 -0.043,0.14 -0.063,0.218 -0.063,0.281 0,0.238 0.223,0.238 0.301,0.238 0.223,0 0.281,-0.019 0.383,-0.398 l 1.102,-4.41 c 0.019,-0.082 0.039,-0.184 0.039,-0.282 0,-0.222 -0.239,-0.222 -0.301,-0.222 -0.258,0 -0.281,0.062 -0.379,0.422 -0.363,1.422 -0.684,1.925 -2.348,1.925 h -1.562 L 244.246,4.5 c 0.164,-0.664 0.301,-0.684 0.965,-0.684 h 2.344 c 2.144,0 2.586,0.622 2.586,2.004 0,0.481 -0.059,0.864 -0.121,1.325 L 250,7.465 c 0,0.242 0.223,0.242 0.301,0.242 0.281,0 0.301,-0.082 0.344,-0.441 z"
       style="fill:#017188;fill-opacity:1;fill-rule:nonzero;stroke:none"
       transform="scale(1.3333333)" />
    <path
       id="path27"
       d="m 256.172,11.113 0.156,-0.207 c -1.344,-1.054 -2.215,-2.097 -2.215,-5.422 0,-3.191 0.871,-4.195 2.215,-5.277 L 256.211,0 c -1.07,0.691 -3.219,2.215 -3.219,5.523 0,3.141 2.215,5.004 3.18,5.59 z M 259.09,1.082 c 0.273,0 0.39,0.195 0.39,0.613 v 5.903 c 0,0.847 -0.312,0.988 -1.238,1.015 v 0.196 h 3.598 V 8.613 C 260.809,8.602 260.602,8.469 260.602,7.844 V 0.027 L 260.496,0 258.152,1.188 V 1.367 C 258.66,1.16 258.895,1.082 259.09,1.082 Z M 263.754,0 263.598,0.207 c 1.343,1.059 2.214,2.098 2.214,5.422 0,3.191 -0.871,4.195 -2.214,5.277 l 0.117,0.207 c 1.07,-0.687 3.219,-2.215 3.219,-5.523 0,-3.141 -2.215,-5.004 -3.18,-5.59 z"
       style="fill:#017188;fill-opacity:1;fill-rule:nonzero;stroke:none"
       transform="scale(1.3333333)" />
    <path
       id="path28"
       d="m 250.957,14.621 0.273,0.067 c 0.52,-1.278 0.989,-1.696 1.887,-1.696 1.094,0 1.84,0.742 1.84,1.836 0,1.016 -0.602,2.231 -1.695,3.387 l -2.321,2.465 v 0.156 h 5.082 l 0.719,-1.785 -0.172,-0.067 c -0.48,0.743 -0.652,0.86 -1.238,0.86 h -3.113 l 2.191,-2.293 c 1.156,-1.211 1.664,-2.199 1.664,-3.219 0,-1.301 -1.054,-2.305 -2.41,-2.305 -2.098,0 -2.566,1.981 -2.707,2.594 z"
       style="fill:#017188;fill-opacity:1;fill-rule:nonzero;stroke:none"
       transform="scale(1.3333333)" />
    <path
       id="path29"
       d="m 356.371,7.402 0.461,-3.547 c 0.059,-0.523 -0.059,-0.523 -0.48,-0.523 h -9.122 c -0.339,0 -0.542,0 -0.542,0.363 0,0.258 0.14,0.258 0.542,0.258 1.165,0 1.165,0.16 1.165,0.344 0,0 0,0.16 -0.083,0.461 L 345.625,15.5 c -0.16,0.684 -0.281,0.844 -1.641,0.844 -0.324,0 -0.543,0 -0.543,0.379 0,0.242 0.219,0.242 0.282,0.242 0.8,0 1.644,-0.059 2.445,-0.059 0.922,0 1.863,0.059 2.766,0.059 0.179,0 0.421,0 0.421,-0.383 0,-0.238 -0.179,-0.238 -0.5,-0.238 h -0.203 c -1.461,0 -1.461,-0.16 -1.461,-0.422 0,-0.078 0,-0.121 0.079,-0.422 l 1.261,-5.051 h 1.664 c 1.305,0 1.485,0.301 1.485,0.844 0,0.34 -0.078,0.66 -0.16,0.98 -0.04,0.141 -0.059,0.223 -0.059,0.282 0,0.238 0.219,0.238 0.301,0.238 0.218,0 0.277,-0.02 0.379,-0.398 l 1.101,-4.411 c 0.02,-0.082 0.043,-0.179 0.043,-0.281 0,-0.219 -0.242,-0.219 -0.301,-0.219 -0.261,0 -0.281,0.059 -0.382,0.418 -0.36,1.426 -0.68,1.926 -2.344,1.926 h -1.563 l 1.282,-5.191 c 0.16,-0.66 0.3,-0.684 0.961,-0.684 h 2.347 c 2.145,0 2.586,0.621 2.586,2.008 0,0.48 -0.062,0.859 -0.121,1.32 l -0.02,0.321 c 0,0.242 0.219,0.242 0.301,0.242 0.281,0 0.301,-0.082 0.34,-0.442 z"
       style="fill:#c3312f;fill-opacity:1;fill-rule:nonzero;stroke:none"
       transform="scale(1.3333333)" />
    <path
       id="path30"
       d="m 361.898,11.254 0.157,-0.211 c -1.34,-1.055 -2.215,-2.098 -2.215,-5.418 0,-3.195 0.875,-4.195 2.215,-5.277 l -0.117,-0.211 c -1.067,0.691 -3.219,2.215 -3.219,5.527 0,3.141 2.215,5.004 3.179,5.59 z m 0.938,-8.524 0.273,0.067 c 0.524,-1.277 0.993,-1.695 1.891,-1.695 1.094,0 1.836,0.742 1.836,1.836 0,1.019 -0.598,2.23 -1.691,3.39 l -2.321,2.461 v 0.156 h 5.082 l 0.715,-1.785 -0.168,-0.062 c -0.48,0.742 -0.652,0.859 -1.238,0.859 h -3.113 l 2.187,-2.293 c 1.16,-1.215 1.668,-2.203 1.668,-3.219 0,-1.304 -1.055,-2.308 -2.41,-2.308 -2.098,0 -2.567,1.98 -2.711,2.593 z m 6.648,-2.593 -0.156,0.211 c 1.34,1.054 2.215,2.097 2.215,5.418 0,3.195 -0.875,4.195 -2.215,5.277 l 0.117,0.211 c 1.067,-0.692 3.215,-2.215 3.215,-5.527 0,-3.141 -2.215,-5.004 -3.176,-5.59 z"
       style="fill:#c3312f;fill-opacity:1;fill-rule:nonzero;stroke:none"
       transform="scale(1.3333333)" />
    <path
       id="path31"
       d="m 357.73,13.246 c 0.274,0 0.391,0.195 0.391,0.613 v 5.903 c 0,0.847 -0.312,0.992 -1.238,1.015 v 0.196 h 3.594 v -0.196 c -1.028,-0.011 -1.239,-0.14 -1.239,-0.769 v -7.817 l -0.101,-0.027 -2.348,1.188 v 0.183 c 0.508,-0.211 0.746,-0.289 0.941,-0.289 z"
       style="fill:#c3312f;fill-opacity:1;fill-rule:nonzero;stroke:none"
       transform="scale(1.3333333)" />
    <path
       id="path32"
       d="m 589.441,7.402 0.461,-3.547 c 0.063,-0.523 -0.058,-0.523 -0.48,-0.523 h -9.121 c -0.34,0 -0.539,0 -0.539,0.363 0,0.258 0.136,0.258 0.539,0.258 1.164,0 1.164,0.16 1.164,0.344 0,0 0,0.16 -0.082,0.461 L 578.699,15.5 c -0.164,0.684 -0.281,0.844 -1.644,0.844 -0.321,0 -0.543,0 -0.543,0.379 0,0.242 0.222,0.242 0.281,0.242 0.801,0 1.645,-0.063 2.445,-0.063 0.922,0 1.864,0.063 2.766,0.063 0.18,0 0.422,0 0.422,-0.383 0,-0.238 -0.18,-0.238 -0.5,-0.238 h -0.203 c -1.461,0 -1.461,-0.16 -1.461,-0.422 0,-0.078 0,-0.121 0.078,-0.422 l 1.265,-5.051 h 1.665 c 1.3,0 1.48,0.301 1.48,0.844 0,0.34 -0.078,0.66 -0.16,0.98 -0.039,0.141 -0.059,0.223 -0.059,0.282 0,0.238 0.219,0.238 0.301,0.238 0.219,0 0.281,-0.02 0.379,-0.398 l 1.105,-4.411 c 0.02,-0.082 0.039,-0.179 0.039,-0.281 0,-0.219 -0.242,-0.219 -0.3,-0.219 -0.262,0 -0.282,0.059 -0.383,0.418 -0.36,1.426 -0.68,1.926 -2.344,1.926 h -1.562 l 1.281,-5.191 c 0.16,-0.66 0.301,-0.684 0.961,-0.684 h 2.347 c 2.145,0 2.586,0.621 2.586,2.008 0,0.48 -0.062,0.859 -0.121,1.32 l -0.019,0.321 c 0,0.242 0.219,0.242 0.301,0.242 0.281,0 0.3,-0.082 0.339,-0.442 z"
       style="fill:#c3312f;fill-opacity:1;fill-rule:nonzero;stroke:none"
       transform="scale(1.3333333)" />
    <path
       id="path33"
       d="m 594.969,11.254 0.16,-0.211 c -1.344,-1.055 -2.219,-2.098 -2.219,-5.418 0,-3.195 0.875,-4.195 2.219,-5.277 l -0.121,-0.211 c -1.067,0.691 -3.215,2.215 -3.215,5.527 0,3.137 2.215,5 3.176,5.59 z m 0.941,-8.524 0.274,0.067 c 0.519,-1.277 0.988,-1.695 1.886,-1.695 1.098,0 1.84,0.742 1.84,1.836 0,1.019 -0.601,2.23 -1.695,3.39 l -2.32,2.461 v 0.156 h 5.082 l 0.718,-1.785 -0.172,-0.062 c -0.48,0.742 -0.652,0.859 -1.238,0.859 h -3.113 l 2.191,-2.293 c 1.157,-1.215 1.664,-2.203 1.664,-3.219 0,-1.304 -1.054,-2.308 -2.41,-2.308 -2.097,0 -2.566,1.98 -2.707,2.593 z m 6.645,-2.593 -0.157,0.211 c 1.34,1.054 2.215,2.097 2.215,5.418 0,3.195 -0.875,4.195 -2.215,5.277 l 0.118,0.211 c 1.066,-0.692 3.218,-2.215 3.218,-5.527 0,-3.141 -2.214,-5.004 -3.179,-5.59 z"
       style="fill:#c3312f;fill-opacity:1;fill-rule:nonzero;stroke:none"
       transform="scale(1.3333333)" />
    <path
       id="path34"
       d="m 589.754,14.758 0.273,0.066 c 0.524,-1.277 0.993,-1.695 1.891,-1.695 1.094,0 1.836,0.742 1.836,1.84 0,1.015 -0.598,2.226 -1.692,3.386 l -2.32,2.461 v 0.157 h 5.082 l 0.715,-1.785 -0.168,-0.063 c -0.484,0.742 -0.652,0.859 -1.238,0.859 h -3.113 l 2.187,-2.293 c 1.16,-1.214 1.668,-2.203 1.668,-3.218 0,-1.305 -1.055,-2.309 -2.41,-2.309 -2.098,0 -2.567,1.981 -2.711,2.594 z"
       style="fill:#c3312f;fill-opacity:1;fill-rule:nonzero;stroke:none"
       transform="scale(1.3333333)" />
    <path
       id="path35"
       d="M 149.418,31.738 H 220.91"
       style="fill:none;stroke:#017188;stroke-width:2.83465;stroke-linecap:butt;stroke-linejoin:miter;stroke-miterlimit:4;stroke-dasharray:none;stroke-opacity:1"
       transform="scale(1.3333333)" />
    <path
       id="path36"
       d="m 442.145,31.875 h 71.492"
       style="fill:none;stroke:#c3312f;stroke-width:2.83465;stroke-linecap:butt;stroke-linejoin:miter;stroke-miterlimit:4;stroke-dasharray:none;stroke-opacity:1"
       transform="scale(1.3333333)" />
    <path
       id="path37"
       d="M 103.395,31.738 H 126.07"
       style="fill:none;stroke:#017188;stroke-width:2.55118;stroke-linecap:butt;stroke-linejoin:miter;stroke-miterlimit:3.9;stroke-dasharray:none;stroke-opacity:1"
       transform="scale(1.3333333)" />
    <path
       id="path38"
       d="m 126.07,31.738 -6.375,6.379 22.321,-6.379 -22.321,-6.379 z"
       style="fill:#017188;fill-opacity:1;fill-rule:evenodd;stroke:none"
       transform="scale(1.3333333)" />
    <path
       id="path39"
       d="m 121.027,7.266 0.461,-3.551 c 0.059,-0.52 -0.062,-0.52 -0.484,-0.52 h -9.121 c -0.34,0 -0.539,0 -0.539,0.36 0,0.261 0.14,0.261 0.539,0.261 1.164,0 1.164,0.161 1.164,0.34 0,0 0,0.16 -0.078,0.461 l -2.688,10.746 c -0.16,0.68 -0.281,0.844 -1.644,0.844 -0.321,0 -0.539,0 -0.539,0.379 0,0.242 0.218,0.242 0.277,0.242 0.805,0 1.645,-0.062 2.445,-0.062 0.926,0 1.868,0.062 2.77,0.062 0.18,0 0.418,0 0.418,-0.383 0,-0.238 -0.18,-0.238 -0.5,-0.238 h -0.199 c -1.465,0 -1.465,-0.164 -1.465,-0.422 0,-0.082 0,-0.121 0.082,-0.422 l 1.262,-5.051 h 1.664 c 1.304,0 1.484,0.301 1.484,0.84 0,0.344 -0.082,0.664 -0.16,0.985 -0.043,0.14 -0.063,0.218 -0.063,0.281 0,0.238 0.223,0.238 0.301,0.238 0.223,0 0.281,-0.019 0.383,-0.398 l 1.101,-4.41 c 0.02,-0.082 0.04,-0.184 0.04,-0.282 0,-0.222 -0.239,-0.222 -0.301,-0.222 -0.258,0 -0.282,0.062 -0.379,0.422 -0.363,1.422 -0.684,1.925 -2.348,1.925 h -1.562 L 114.633,4.5 c 0.16,-0.664 0.297,-0.684 0.961,-0.684 h 2.344 c 2.144,0 2.585,0.622 2.585,2.004 0,0.481 -0.058,0.864 -0.121,1.325 l -0.019,0.32 c 0,0.242 0.222,0.242 0.301,0.242 0.281,0 0.3,-0.082 0.343,-0.441 z"
       style="fill:#017188;fill-opacity:1;fill-rule:nonzero;stroke:none"
       transform="scale(1.3333333)" />
    <path
       id="path40"
       d="m 126.555,11.113 0.156,-0.207 c -1.344,-1.054 -2.215,-2.097 -2.215,-5.422 0,-3.191 0.871,-4.195 2.215,-5.277 L 126.594,0 c -1.071,0.691 -3.219,2.215 -3.219,5.523 0,3.141 2.215,5.004 3.18,5.59 z m 2.918,-10.031 c 0.273,0 0.39,0.195 0.39,0.613 v 5.903 c 0,0.847 -0.312,0.988 -1.238,1.015 v 0.196 h 3.598 V 8.613 C 131.191,8.602 130.984,8.469 130.984,7.844 V 0.027 L 130.879,0 128.535,1.188 v 0.179 c 0.508,-0.207 0.742,-0.285 0.938,-0.285 z M 134.137,0 133.98,0.207 c 1.344,1.059 2.215,2.098 2.215,5.422 0,3.191 -0.871,4.195 -2.215,5.277 l 0.118,0.207 c 1.07,-0.687 3.218,-2.215 3.218,-5.523 0,-3.141 -2.214,-5.004 -3.179,-5.59 z"
       style="fill:#017188;fill-opacity:1;fill-rule:nonzero;stroke:none"
       transform="scale(1.3333333)" />
    <path
       id="path41"
       d="m 122.383,13.109 c 0.273,0 0.39,0.196 0.39,0.614 v 5.902 c 0,0.848 -0.312,0.988 -1.238,1.016 v 0.195 h 3.598 v -0.195 c -1.031,-0.012 -1.238,-0.145 -1.238,-0.77 v -7.816 l -0.106,-0.028 -2.344,1.188 v 0.18 c 0.508,-0.207 0.743,-0.286 0.938,-0.286 z"
       style="fill:#017188;fill-opacity:1;fill-rule:nonzero;stroke:none"
       transform="scale(1.3333333)" />
    <path
       id="path42"
       d="m 233.012,31.738 h 22.676"
       style="fill:none;stroke:#017188;stroke-width:2.55118;stroke-linecap:butt;stroke-linejoin:miter;stroke-miterlimit:3.9;stroke-dasharray:none;stroke-opacity:1"
       transform="scale(1.3333333)" />
    <path
       id="path43"
       d="m 255.688,31.738 -6.376,6.379 22.321,-6.379 -22.321,-6.379 z"
       style="fill:#017188;fill-opacity:1;fill-rule:evenodd;stroke:none"
       transform="scale(1.3333333)" />
    <path
       id="path44"
       d="m 306.066,7.402 0.461,-3.547 c 0.059,-0.523 -0.058,-0.523 -0.48,-0.523 h -9.121 c -0.34,0 -0.543,0 -0.543,0.363 0,0.258 0.14,0.258 0.543,0.258 1.16,0 1.16,0.16 1.16,0.344 0,0 0,0.16 -0.078,0.461 L 295.32,15.5 c -0.16,0.684 -0.281,0.844 -1.644,0.844 -0.321,0 -0.539,0 -0.539,0.379 0,0.242 0.218,0.242 0.281,0.242 0.801,0 1.644,-0.059 2.445,-0.059 0.922,0 1.864,0.059 2.766,0.059 0.18,0 0.422,0 0.422,-0.383 0,-0.238 -0.18,-0.238 -0.504,-0.238 h -0.199 c -1.461,0 -1.461,-0.16 -1.461,-0.422 0,-0.078 0,-0.121 0.078,-0.422 l 1.262,-5.051 h 1.664 c 1.304,0 1.484,0.301 1.484,0.844 0,0.34 -0.078,0.66 -0.16,0.98 -0.039,0.141 -0.059,0.223 -0.059,0.282 0,0.238 0.219,0.238 0.301,0.238 0.219,0 0.277,-0.02 0.379,-0.398 l 1.102,-4.411 c 0.019,-0.082 0.042,-0.179 0.042,-0.281 0,-0.219 -0.242,-0.219 -0.3,-0.219 -0.262,0 -0.282,0.059 -0.383,0.418 -0.359,1.426 -0.68,1.926 -2.344,1.926 h -1.566 l 1.285,-5.191 c 0.16,-0.66 0.301,-0.684 0.961,-0.684 h 2.347 c 2.145,0 2.586,0.621 2.586,2.008 0,0.48 -0.062,0.859 -0.121,1.32 l -0.019,0.321 c 0,0.242 0.219,0.242 0.301,0.242 0.281,0 0.3,-0.082 0.339,-0.442 z"
       style="fill:#017188;fill-opacity:1;fill-rule:nonzero;stroke:none"
       transform="scale(1.3333333)" />
    <path
       id="path45"
       d="m 311.594,11.254 0.156,-0.211 c -1.34,-1.055 -2.215,-2.098 -2.215,-5.418 0,-3.195 0.875,-4.195 2.215,-5.277 l -0.117,-0.211 c -1.067,0.691 -3.219,2.215 -3.219,5.527 0,3.141 2.215,5.004 3.18,5.59 z m 2.918,-10.035 c 0.273,0 0.39,0.195 0.39,0.613 v 5.902 c 0,0.848 -0.312,0.993 -1.234,1.016 v 0.195 h 3.594 V 8.75 C 316.234,8.738 316.023,8.605 316.023,7.98 V 0.164 l -0.101,-0.027 -2.348,1.187 v 0.184 c 0.508,-0.211 0.742,-0.289 0.938,-0.289 z m 4.668,-1.082 -0.16,0.211 c 1.343,1.054 2.218,2.097 2.218,5.418 0,3.195 -0.875,4.195 -2.218,5.277 l 0.121,0.211 c 1.066,-0.692 3.214,-2.215 3.214,-5.527 0,-3.141 -2.214,-5.004 -3.175,-5.59 z"
       style="fill:#017188;fill-opacity:1;fill-rule:nonzero;stroke:none"
       transform="scale(1.3333333)" />
    <path
       id="path46"
       d="m 306.379,14.758 0.273,0.066 c 0.52,-1.277 0.989,-1.695 1.891,-1.695 1.094,0 1.836,0.742 1.836,1.84 0,1.015 -0.598,2.226 -1.695,3.386 l -2.317,2.461 v 0.157 h 5.078 l 0.719,-1.785 -0.168,-0.063 c -0.484,0.742 -0.652,0.859 -1.238,0.859 h -3.117 l 2.191,-2.293 c 1.16,-1.214 1.668,-2.203 1.668,-3.218 0,-1.305 -1.055,-2.309 -2.41,-2.309 -2.098,0 -2.567,1.981 -2.711,2.594 z"
       style="fill:#017188;fill-opacity:1;fill-rule:nonzero;stroke:none"
       transform="scale(1.3333333)" />
    <path
       id="path47"
       d="m 393.746,31.875 h 22.676"
       style="fill:none;stroke:#c3312f;stroke-width:2.55118;stroke-linecap:butt;stroke-linejoin:miter;stroke-miterlimit:3.9;stroke-dasharray:none;stroke-opacity:1"
       transform="scale(1.3333333)" />
    <path
       id="path48"
       d="m 416.422,31.875 -6.379,6.379 22.324,-6.379 -22.324,-6.379 z"
       style="fill:#c3312f;fill-opacity:1;fill-rule:evenodd;stroke:none"
       transform="scale(1.3333333)" />
    <path
       id="path49"
       d="m 411.375,7.402 0.461,-3.547 c 0.062,-0.523 -0.059,-0.523 -0.481,-0.523 h -9.121 c -0.339,0 -0.539,0 -0.539,0.363 0,0.258 0.141,0.258 0.539,0.258 1.164,0 1.164,0.16 1.164,0.344 0,0 0,0.16 -0.082,0.461 L 400.633,15.5 c -0.16,0.684 -0.281,0.844 -1.645,0.844 -0.32,0 -0.543,0 -0.543,0.379 0,0.242 0.223,0.242 0.282,0.242 0.8,0 1.644,-0.059 2.445,-0.059 0.922,0 1.863,0.059 2.766,0.059 0.179,0 0.421,0 0.421,-0.383 0,-0.238 -0.179,-0.238 -0.5,-0.238 h -0.199 c -1.465,0 -1.465,-0.16 -1.465,-0.422 0,-0.078 0,-0.121 0.078,-0.422 l 1.266,-5.051 h 1.664 c 1.301,0 1.481,0.301 1.481,0.844 0,0.34 -0.079,0.66 -0.161,0.98 -0.039,0.141 -0.058,0.223 -0.058,0.282 0,0.238 0.219,0.238 0.301,0.238 0.218,0 0.281,-0.02 0.379,-0.398 l 1.105,-4.411 c 0.02,-0.082 0.039,-0.179 0.039,-0.281 0,-0.219 -0.242,-0.219 -0.301,-0.219 -0.261,0 -0.281,0.059 -0.383,0.418 -0.359,1.426 -0.679,1.926 -2.343,1.926 h -1.563 l 1.281,-5.191 c 0.161,-0.66 0.301,-0.684 0.965,-0.684 h 2.344 c 2.145,0 2.586,0.621 2.586,2.008 0,0.48 -0.059,0.859 -0.121,1.32 l -0.02,0.321 c 0,0.242 0.223,0.242 0.301,0.242 0.281,0 0.301,-0.082 0.34,-0.442 z"
       style="fill:#c3312f;fill-opacity:1;fill-rule:nonzero;stroke:none"
       transform="scale(1.3333333)" />
    <path
       id="path50"
       d="m 416.906,11.254 0.156,-0.211 c -1.343,-1.055 -2.214,-2.098 -2.214,-5.418 0,-3.195 0.871,-4.195 2.214,-5.277 l -0.117,-0.211 c -1.07,0.691 -3.218,2.215 -3.218,5.527 0,3.141 2.214,5.004 3.179,5.59 z m 0.938,-8.524 0.273,0.067 c 0.52,-1.277 0.988,-1.695 1.887,-1.695 1.098,0 1.84,0.742 1.84,1.836 0,1.019 -0.602,2.23 -1.696,3.39 l -2.32,2.461 v 0.156 h 5.082 l 0.719,-1.785 -0.172,-0.062 c -0.48,0.742 -0.648,0.859 -1.238,0.859 h -3.114 l 2.192,-2.293 c 1.156,-1.215 1.668,-2.203 1.668,-3.219 0,-1.304 -1.059,-2.308 -2.414,-2.308 -2.098,0 -2.567,1.98 -2.707,2.593 z m 6.644,-2.593 -0.156,0.211 c 1.34,1.054 2.215,2.097 2.215,5.418 0,3.195 -0.875,4.195 -2.215,5.277 l 0.117,0.211 c 1.067,-0.692 3.219,-2.215 3.219,-5.527 0,-3.141 -2.215,-5.004 -3.18,-5.59 z"
       style="fill:#c3312f;fill-opacity:1;fill-rule:nonzero;stroke:none"
       transform="scale(1.3333333)" />
    <path
       id="path51"
       d="m 412.734,13.246 c 0.274,0 0.391,0.195 0.391,0.613 v 5.903 c 0,0.847 -0.313,0.992 -1.238,1.015 v 0.196 h 3.597 v -0.196 c -1.031,-0.011 -1.238,-0.14 -1.238,-0.769 v -7.817 l -0.105,-0.027 -2.344,1.188 v 0.183 c 0.508,-0.211 0.742,-0.289 0.937,-0.289 z"
       style="fill:#c3312f;fill-opacity:1;fill-rule:nonzero;stroke:none"
       transform="scale(1.3333333)" />
    <path
       id="path52"
       d="M 523.414,31.875 H 546.09"
       style="fill:none;stroke:#c3312f;stroke-width:2.55118;stroke-linecap:butt;stroke-linejoin:miter;stroke-miterlimit:3.9;stroke-dasharray:none;stroke-opacity:1"
       transform="scale(1.3333333)" />
    <path
       id="path53"
       d="m 546.09,31.875 -6.379,6.379 22.324,-6.379 -22.324,-6.379 z"
       style="fill:#c3312f;fill-opacity:1;fill-rule:evenodd;stroke:none"
       transform="scale(1.3333333)" />
    <path
       id="path54"
       d="m 541.043,7.402 0.461,-3.547 c 0.062,-0.523 -0.059,-0.523 -0.481,-0.523 h -9.121 c -0.34,0 -0.539,0 -0.539,0.363 0,0.258 0.137,0.258 0.539,0.258 1.164,0 1.164,0.16 1.164,0.344 0,0 0,0.16 -0.082,0.461 L 530.301,15.5 c -0.164,0.684 -0.281,0.844 -1.645,0.844 -0.32,0 -0.543,0 -0.543,0.379 0,0.242 0.223,0.242 0.282,0.242 0.8,0 1.644,-0.063 2.445,-0.063 0.922,0 1.863,0.063 2.765,0.063 0.18,0 0.422,0 0.422,-0.383 0,-0.238 -0.179,-0.238 -0.5,-0.238 h -0.203 c -1.461,0 -1.461,-0.16 -1.461,-0.422 0,-0.078 0,-0.121 0.078,-0.422 l 1.266,-5.051 h 1.664 c 1.301,0 1.481,0.301 1.481,0.844 0,0.34 -0.079,0.66 -0.161,0.98 -0.039,0.141 -0.058,0.223 -0.058,0.282 0,0.238 0.219,0.238 0.301,0.238 0.218,0 0.281,-0.02 0.378,-0.398 l 1.106,-4.411 c 0.02,-0.082 0.039,-0.179 0.039,-0.281 0,-0.219 -0.242,-0.219 -0.301,-0.219 -0.261,0 -0.281,0.059 -0.383,0.418 -0.359,1.426 -0.679,1.926 -2.343,1.926 h -1.563 l 1.281,-5.191 c 0.161,-0.66 0.301,-0.684 0.961,-0.684 h 2.348 c 2.145,0 2.586,0.621 2.586,2.008 0,0.48 -0.063,0.859 -0.121,1.32 l -0.02,0.321 c 0,0.242 0.219,0.242 0.301,0.242 0.281,0 0.301,-0.082 0.34,-0.442 z"
       style="fill:#c3312f;fill-opacity:1;fill-rule:nonzero;stroke:none"
       transform="scale(1.3333333)" />
    <path
       id="path55"
       d="m 546.57,11.254 0.16,-0.211 c -1.343,-1.055 -2.218,-2.098 -2.218,-5.418 0,-3.195 0.875,-4.195 2.218,-5.277 l -0.121,-0.211 c -1.066,0.691 -3.214,2.215 -3.214,5.527 0,3.137 2.214,5 3.175,5.59 z m 0.942,-8.524 0.273,0.067 c 0.52,-1.277 0.988,-1.695 1.887,-1.695 1.098,0 1.84,0.742 1.84,1.836 0,1.019 -0.602,2.23 -1.696,3.39 l -2.32,2.461 v 0.156 h 5.082 l 0.719,-1.785 -0.172,-0.062 c -0.48,0.742 -0.652,0.859 -1.238,0.859 h -3.114 l 2.192,-2.293 c 1.156,-1.215 1.664,-2.203 1.664,-3.219 0,-1.304 -1.055,-2.308 -2.41,-2.308 -2.098,0 -2.567,1.98 -2.707,2.593 z M 554.156,0.137 554,0.348 c 1.34,1.054 2.215,2.097 2.215,5.418 0,3.195 -0.875,4.195 -2.215,5.277 l 0.117,0.211 c 1.067,-0.692 3.219,-2.215 3.219,-5.527 0,-3.141 -2.215,-5.004 -3.18,-5.59 z"
       style="fill:#c3312f;fill-opacity:1;fill-rule:nonzero;stroke:none"
       transform="scale(1.3333333)" />
    <path
       id="path56"
       d="m 541.355,14.758 0.274,0.066 c 0.523,-1.277 0.992,-1.695 1.891,-1.695 1.093,0 1.835,0.742 1.835,1.84 0,1.015 -0.597,2.226 -1.691,3.386 l -2.32,2.461 v 0.157 h 5.082 l 0.715,-1.785 -0.168,-0.063 c -0.485,0.742 -0.653,0.859 -1.239,0.859 h -3.113 l 2.188,-2.293 c 1.16,-1.214 1.668,-2.203 1.668,-3.218 0,-1.305 -1.055,-2.309 -2.411,-2.309 -2.097,0 -2.566,1.981 -2.711,2.594 z"
       style="fill:#c3312f;fill-opacity:1;fill-rule:nonzero;stroke:none"
       transform="scale(1.3333333)" />
  </g>
</svg>
