<?xml version="1.0" encoding="UTF-8" standalone="no"?>
<svg
   xmlns:dc="http://purl.org/dc/elements/1.1/"
   xmlns:cc="http://creativecommons.org/ns#"
   xmlns:rdf="http://www.w3.org/1999/02/22-rdf-syntax-ns#"
   xmlns:svg="http://www.w3.org/2000/svg"
   xmlns="http://www.w3.org/2000/svg"
   viewBox="0 0 182.05733 145.80133"
   height="145.80133"
   width="182.05733"
   xml:space="preserve"
   id="svg2"
   version="1.1"><metadata
     id="metadata8"><rdf:RDF><cc:Work
         rdf:about=""><dc:format>image/svg+xml</dc:format><dc:type
           rdf:resource="http://purl.org/dc/dcmitype/StillImage" /></cc:Work></rdf:RDF></metadata><defs
     id="defs6"><clipPath
       id="clipPath14"
       clipPathUnits="userSpaceOnUse"><path
         id="path12"
         d="M 0,0 H 612 V 792 H 0 Z" /></clipPath></defs><g
     clip-path="url(#clipPath14)"
     transform="matrix(1.3333333,0,0,-1.3333333,-201.864,963.328)"
     id="g10"><g
       transform="translate(157.22299,630.476)"
       id="g16"><g
         transform="translate(2.8348)"
         id="g18"><path
           id="path20"
           style="fill:#017188;fill-opacity:1;fill-rule:nonzero;stroke:#000000;stroke-width:0.398;stroke-linecap:butt;stroke-linejoin:miter;stroke-miterlimit:10;stroke-dasharray:none;stroke-opacity:1"
           d="M 0,0 C 0,1.566 -1.269,2.835 -2.835,2.835 -4.4,2.835 -5.67,1.566 -5.67,0 c 0,-1.566 1.27,-2.835 2.835,-2.835 C -1.269,-2.835 0,-1.566 0,0 Z" /></g></g><g
       transform="translate(157.22298,630.476)"
       id="g22"><g
         transform="translate(59.5285,56.6936)"
         id="g24"><path
           id="path26"
           style="fill:#017188;fill-opacity:1;fill-rule:nonzero;stroke:#000000;stroke-width:0.398;stroke-linecap:butt;stroke-linejoin:miter;stroke-miterlimit:10;stroke-dasharray:none;stroke-opacity:1"
           d="M 0,0 C 0,1.566 -1.269,2.835 -2.835,2.835 -4.401,2.835 -5.67,1.566 -5.67,0 c 0,-1.566 1.269,-2.835 2.835,-2.835 C -1.269,-2.835 0,-1.566 0,0 Z" /></g></g><g
       transform="translate(157.22299,630.476)"
       id="g28"><g
         transform="translate(116.2221,56.6936)"
         id="g30"><path
           id="path32"
           style="fill:#017188;fill-opacity:1;fill-rule:nonzero;stroke:#000000;stroke-width:0.398;stroke-linecap:butt;stroke-linejoin:miter;stroke-miterlimit:10;stroke-dasharray:none;stroke-opacity:1"
           d="M 0,0 C 0,1.566 -1.269,2.835 -2.835,2.835 -4.4,2.835 -5.67,1.566 -5.67,0 c 0,-1.566 1.27,-2.835 2.835,-2.835 C -1.269,-2.835 0,-1.566 0,0 Z" /></g></g><g
       transform="translate(157.22299,630.476)"
       id="g34"><g
         transform="translate(116.2221)"
         id="g36"><path
           id="path38"
           style="fill:#017188;fill-opacity:1;fill-rule:nonzero;stroke:#000000;stroke-width:0.398;stroke-linecap:butt;stroke-linejoin:miter;stroke-miterlimit:10;stroke-dasharray:none;stroke-opacity:1"
           d="M 0,0 C 0,1.566 -1.269,2.835 -2.835,2.835 -4.4,2.835 -5.67,1.566 -5.67,0 c 0,-1.566 1.27,-2.835 2.835,-2.835 C -1.269,-2.835 0,-1.566 0,0 Z" /></g></g><g
       transform="translate(157.22299,630.476)"
       id="g40"><g
         transform="translate(56.6936,85.0404)"
         id="g42"><path
           id="path44"
           style="fill:none;stroke:#00b7d3;stroke-width:1.19599998;stroke-linecap:butt;stroke-linejoin:miter;stroke-miterlimit:10;stroke-dasharray:none;stroke-opacity:1"
           d="M 0,0 V -12.687" /></g></g><g
       transform="rotate(-90,458.37316,244.45655)"
       id="g46"><g
         transform="translate(5.7385)"
         id="g48"><path
           id="path50"
           style="fill:#00b7d3;fill-opacity:1;fill-rule:nonzero;stroke:none"
           d="M 0,0 C -1.7,0.319 -4.463,1.275 -6.376,2.391 V -2.391 C -4.463,-1.275 -1.7,-0.319 0,0" /></g></g><g
       transform="translate(157.22299,630.476)"
       id="g52"><g
         transform="translate(90.7097,56.6936)"
         id="g54"><path
           id="path56"
           style="fill:none;stroke:#00b7d3;stroke-width:1.19599998;stroke-linecap:butt;stroke-linejoin:miter;stroke-miterlimit:10;stroke-dasharray:none;stroke-opacity:1"
           d="M 0,0 H 11.27" /></g></g><g
       transform="translate(259.20238,687.16963)"
       id="g58"><g
         transform="translate(5.7385)"
         id="g60"><path
           id="path62"
           style="fill:#00b7d3;fill-opacity:1;fill-rule:nonzero;stroke:none"
           d="M 0,0 C -1.7,0.319 -4.463,1.275 -6.376,2.391 V -2.391 C -4.463,-1.275 -1.7,-0.319 0,0" /></g></g><g
       transform="translate(157.22299,630.476)"
       id="g64"><path
         id="path66"
         style="fill:none;stroke:#0066a2;stroke-width:0.79699999;stroke-linecap:butt;stroke-linejoin:miter;stroke-miterlimit:10;stroke-dasharray:none;stroke-opacity:1"
         d="M 0,0 H 12.346" /></g><g
       transform="translate(169.56874,630.47601)"
       id="g68"><g
         transform="translate(4.6625)"
         id="g70"><path
           id="path72"
           style="fill:#0066a2;fill-opacity:1;fill-rule:nonzero;stroke:none"
           d="M 0,0 C -1.381,0.259 -3.626,1.036 -5.181,1.943 V -1.943 C -3.626,-1.036 -1.381,-0.259 0,0" /></g></g><g
       transform="translate(157.22299,630.47601)"
       id="g74"><path
         id="path76"
         style="fill:none;stroke:#0066a2;stroke-width:0.79699999;stroke-linecap:butt;stroke-linejoin:miter;stroke-miterlimit:10;stroke-dasharray:none;stroke-opacity:1"
         d="M 0,0 V -12.346" /></g><g
       transform="rotate(-90,387.67661,230.45362)"
       id="g78"><g
         transform="translate(4.6625)"
         id="g80"><path
           id="path82"
           style="fill:#0066a2;fill-opacity:1;fill-rule:nonzero;stroke:none"
           d="M 0,0 C -1.381,0.259 -3.626,1.036 -5.181,1.943 V -1.943 C -3.626,-1.036 -1.381,-0.259 0,0" /></g></g><g
       transform="translate(157.22298,630.476)"
       id="g84"><g
         transform="translate(5.6693,-8.5041)"
         id="g86"><path
           id="path88"
           style="fill:none;stroke:#0066a2;stroke-width:0.79699999;stroke-linecap:butt;stroke-linejoin:miter;stroke-miterlimit:10;stroke-dasharray:none;stroke-opacity:1"
           d="m 0,0 c 4.197,3.522 4.745,9.78 1.223,13.978 -1.885,2.246 -4.668,3.544 -6.893,3.544" /></g></g><g
       transform="rotate(180,78.611069,319.74686)"
       id="g90"><g
         transform="translate(-1.5541,2.0722)"
         id="g92"><path
           id="path94"
           style="fill:none;stroke:#0066a2;stroke-width:0.63800001;stroke-linecap:round;stroke-linejoin:round;stroke-miterlimit:10;stroke-dasharray:none;stroke-opacity:1"
           d="M 0,0 C 0.13,-0.777 1.554,-1.943 1.943,-2.072 1.554,-2.202 0.13,-3.367 0,-4.144" /></g></g><g
       transform="translate(157.22299,630.476)"
       id="g96"><g
         transform="translate(56.6936,56.6936)"
         id="g98"><path
           id="path100"
           style="fill:none;stroke:#0066a2;stroke-width:0.79699999;stroke-linecap:butt;stroke-linejoin:miter;stroke-miterlimit:10;stroke-dasharray:none;stroke-opacity:1"
           d="M 0,0 H 12.346" /></g></g><g
       transform="translate(226.26236,687.16963)"
       id="g102"><g
         transform="translate(4.6625)"
         id="g104"><path
           id="path106"
           style="fill:#0066a2;fill-opacity:1;fill-rule:nonzero;stroke:none"
           d="M 0,0 C -1.381,0.259 -3.626,1.036 -5.181,1.943 V -1.943 C -3.626,-1.036 -1.381,-0.259 0,0" /></g></g><g
       transform="translate(157.22299,630.476)"
       id="g108"><g
         transform="translate(56.6936,56.6936)"
         id="g110"><path
           id="path112"
           style="fill:none;stroke:#0066a2;stroke-width:0.79699999;stroke-linecap:butt;stroke-linejoin:miter;stroke-miterlimit:10;stroke-dasharray:none;stroke-opacity:1"
           d="M 0,0 V -12.346" /></g></g><g
       transform="rotate(-90,444.37022,230.45361)"
       id="g114"><g
         transform="translate(4.6625)"
         id="g116"><path
           id="path118"
           style="fill:#0066a2;fill-opacity:1;fill-rule:nonzero;stroke:none"
           d="M 0,0 C -1.381,0.259 -3.626,1.036 -5.181,1.943 V -1.943 C -3.626,-1.036 -1.381,-0.259 0,0" /></g></g><g
       transform="translate(157.22299,630.476)"
       id="g120"><g
         transform="translate(62.3629,48.1895)"
         id="g122"><path
           id="path124"
           style="fill:none;stroke:#0066a2;stroke-width:0.79699999;stroke-linecap:butt;stroke-linejoin:miter;stroke-miterlimit:10;stroke-dasharray:none;stroke-opacity:1"
           d="m 0,0 c 4.197,3.522 4.745,9.78 1.223,13.978 -1.885,2.246 -4.668,3.544 -6.893,3.544" /></g></g><g
       transform="rotate(180,106.95787,348.09365)"
       id="g126"><g
         transform="translate(-1.5541,2.0722)"
         id="g128"><path
           id="path130"
           style="fill:none;stroke:#0066a2;stroke-width:0.63800001;stroke-linecap:round;stroke-linejoin:round;stroke-miterlimit:10;stroke-dasharray:none;stroke-opacity:1"
           d="M 0,0 C 0.13,-0.777 1.554,-1.943 1.943,-2.072 1.554,-2.202 0.13,-3.367 0,-4.144" /></g></g><g
       transform="translate(157.22299,630.476)"
       id="g132"><g
         transform="translate(113.3872,56.6936)"
         id="g134"><path
           id="path136"
           style="fill:none;stroke:#0066a2;stroke-width:0.79699999;stroke-linecap:butt;stroke-linejoin:miter;stroke-miterlimit:10;stroke-dasharray:none;stroke-opacity:1"
           d="M 0,0 H 12.346" /></g></g><g
       transform="translate(282.95598,687.16963)"
       id="g138"><g
         transform="translate(4.6625)"
         id="g140"><path
           id="path142"
           style="fill:#0066a2;fill-opacity:1;fill-rule:nonzero;stroke:none"
           d="M 0,0 C -1.381,0.259 -3.626,1.036 -5.181,1.943 V -1.943 C -3.626,-1.036 -1.381,-0.259 0,0" /></g></g><g
       transform="translate(157.22299,630.476)"
       id="g144"><g
         transform="translate(113.3872,56.6936)"
         id="g146"><path
           id="path148"
           style="fill:none;stroke:#0066a2;stroke-width:0.79699999;stroke-linecap:butt;stroke-linejoin:miter;stroke-miterlimit:10;stroke-dasharray:none;stroke-opacity:1"
           d="M 0,0 V -12.346" /></g></g><g
       transform="rotate(-90,472.71703,202.1068)"
       id="g150"><g
         transform="translate(4.6625)"
         id="g152"><path
           id="path154"
           style="fill:#0066a2;fill-opacity:1;fill-rule:nonzero;stroke:none"
           d="M 0,0 C -1.381,0.259 -3.626,1.036 -5.181,1.943 V -1.943 C -3.626,-1.036 -1.381,-0.259 0,0" /></g></g><g
       transform="translate(157.22299,630.476)"
       id="g156"><g
         transform="translate(119.0565,48.1895)"
         id="g158"><path
           id="path160"
           style="fill:none;stroke:#0066a2;stroke-width:0.79699999;stroke-linecap:butt;stroke-linejoin:miter;stroke-miterlimit:10;stroke-dasharray:none;stroke-opacity:1"
           d="m 0,0 c 4.197,3.522 4.745,9.78 1.223,13.978 -1.885,2.246 -4.668,3.544 -6.893,3.544" /></g></g><g
       transform="rotate(180,135.30468,348.09365)"
       id="g162"><g
         transform="translate(-1.5541,2.0722)"
         id="g164"><path
           id="path166"
           style="fill:none;stroke:#0066a2;stroke-width:0.63800001;stroke-linecap:round;stroke-linejoin:round;stroke-miterlimit:10;stroke-dasharray:none;stroke-opacity:1"
           d="M 0,0 C 0.13,-0.777 1.554,-1.943 1.943,-2.072 1.554,-2.202 0.13,-3.367 0,-4.144" /></g></g><g
       transform="translate(157.22299,630.476)"
       id="g168"><g
         transform="translate(113.3872)"
         id="g170"><path
           id="path172"
           style="fill:none;stroke:#0066a2;stroke-width:0.79699999;stroke-linecap:butt;stroke-linejoin:miter;stroke-miterlimit:10;stroke-dasharray:none;stroke-opacity:1"
           d="M 0,0 H 12.346" /></g></g><g
       transform="translate(282.95598,630.47601)"
       id="g174"><g
         transform="translate(4.6625)"
         id="g176"><path
           id="path178"
           style="fill:#0066a2;fill-opacity:1;fill-rule:nonzero;stroke:none"
           d="M 0,0 C -1.381,0.259 -3.626,1.036 -5.181,1.943 V -1.943 C -3.626,-1.036 -1.381,-0.259 0,0" /></g></g><g
       transform="translate(157.22299,630.47601)"
       id="g180"><g
         transform="translate(113.3872)"
         id="g182"><path
           id="path184"
           style="fill:none;stroke:#0066a2;stroke-width:0.79699999;stroke-linecap:butt;stroke-linejoin:miter;stroke-miterlimit:10;stroke-dasharray:none;stroke-opacity:1"
           d="M 0,0 V -12.346" /></g></g><g
       transform="rotate(-90,444.37023,173.76)"
       id="g186"><g
         transform="translate(4.6625)"
         id="g188"><path
           id="path190"
           style="fill:#0066a2;fill-opacity:1;fill-rule:nonzero;stroke:none"
           d="M 0,0 C -1.381,0.259 -3.626,1.036 -5.181,1.943 V -1.943 C -3.626,-1.036 -1.381,-0.259 0,0" /></g></g><g
       transform="translate(157.22299,630.476)"
       id="g192"><g
         transform="translate(119.0565,-8.5041)"
         id="g194"><path
           id="path196"
           style="fill:none;stroke:#0066a2;stroke-width:0.79699999;stroke-linecap:butt;stroke-linejoin:miter;stroke-miterlimit:10;stroke-dasharray:none;stroke-opacity:1"
           d="m 0,0 c 4.197,3.522 4.745,9.78 1.223,13.978 -1.885,2.246 -4.668,3.544 -6.893,3.544" /></g></g><g
       transform="rotate(180,135.30468,319.74686)"
       id="g198"><g
         transform="translate(-1.5541,2.0722)"
         id="g200"><path
           id="path202"
           style="fill:none;stroke:#0066a2;stroke-width:0.63800001;stroke-linecap:round;stroke-linejoin:round;stroke-miterlimit:10;stroke-dasharray:none;stroke-opacity:1"
           d="M 0,0 C 0.13,-0.777 1.554,-1.943 1.943,-2.072 1.554,-2.202 0.13,-3.367 0,-4.144" /></g></g></g></svg>