<?xml version="1.0" encoding="UTF-8" standalone="no"?>
<!DOCTYPE svg PUBLIC "-//W3C//DTD SVG 1.1//EN" "http://www.w3.org/Graphics/SVG/1.1/DTD/svg11.dtd">
<!-- Gegenereerd door Microsoft Visio, SVG Export graded_assignment.svg Pagina-1 -->
<svg xmlns="http://www.w3.org/2000/svg" xmlns:xlink="http://www.w3.org/1999/xlink" xmlns:ev="http://www.w3.org/2001/xml-events"
		xmlns:v="http://schemas.microsoft.com/visio/2003/SVGExtensions/" width="6.06002in" height="2.40159in"
		viewBox="0 0 436.322 172.914" xml:space="preserve" color-interpolation-filters="sRGB" class="st26">
	<v:documentProperties v:langID="1043" v:metric="true" v:viewMarkup="false"/>

	<style type="text/css">
	<![CDATA[
		.st1 {fill:none;stroke:none;stroke-linecap:round;stroke-linejoin:round;stroke-width:0.75}
		.st2 {fill:#000000;font-family:Times New Roman;font-size:0.499992em}
		.st3 {stroke:#000000;stroke-linecap:round;stroke-linejoin:round;stroke-width:0.25}
		.st4 {fill:none;stroke:none;stroke-linecap:round;stroke-linejoin:round;stroke-width:0.24}
		.st5 {fill:#000000;font-family:Times New Roman;font-size:1.00001em}
		.st6 {marker-end:url(#mrkr5-40);stroke:#800000;stroke-linecap:round;stroke-linejoin:round;stroke-width:1.2}
		.st7 {fill:#800000;fill-opacity:1;stroke:#800000;stroke-opacity:1;stroke-width:0.45454545454546}
		.st8 {stroke:#800000;stroke-linecap:round;stroke-linejoin:round;stroke-width:1.2}
		.st9 {fill:#00cc99;fill-opacity:0.5;stroke:#000000;stroke-linecap:round;stroke-linejoin:round;stroke-opacity:0.5;stroke-width:0.75}
		.st10 {stroke:#000000;stroke-linecap:round;stroke-linejoin:round;stroke-opacity:0.5;stroke-width:0.75}
		.st11 {stroke:#000000;stroke-linecap:round;stroke-linejoin:round;stroke-width:2}
		.st12 {stroke:#000000;stroke-linecap:round;stroke-linejoin:round;stroke-width:1}
		.st13 {fill:#00cc99;stroke:#000000;stroke-linecap:round;stroke-linejoin:round;stroke-width:0.75}
		.st14 {stroke:#000000;stroke-linecap:round;stroke-linejoin:round;stroke-width:0.75}
		.st15 {marker-start:url(#mrkr5-168);stroke:#800000;stroke-linecap:round;stroke-linejoin:round;stroke-width:2}
		.st16 {fill:#800000;fill-opacity:1;stroke:#800000;stroke-opacity:1;stroke-width:0.44247787610619}
		.st17 {fill:#ffffff;stroke:#000000;stroke-linecap:round;stroke-linejoin:round;stroke-width:0.75}
		.st18 {marker-end:url(#mrkr4-221);marker-start:url(#mrkr4-219);stroke:#000000;stroke-linecap:round;stroke-linejoin:round;stroke-width:0.25}
		.st19 {fill:#000000;fill-opacity:1;stroke:#000000;stroke-opacity:1;stroke-width:0.1219512195122}
		.st20 {marker-end:url(#mrkr1-401);stroke:#000000;stroke-linecap:butt;stroke-width:3}
		.st21 {fill:#000000;fill-opacity:1;stroke:#000000;stroke-opacity:1;stroke-width:0.67567567567568}
		.st22 {fill:#000000;font-family:Times New Roman;font-size:1.00001em;font-style:italic}
		.st23 {font-size:1em;font-style:normal}
		.st24 {baseline-shift:32.4941%;font-size:0.649882em;font-style:normal}
		.st25 {font-size:1em}
		.st26 {fill:none;fill-rule:evenodd;font-size:12px;overflow:visible;stroke-linecap:square;stroke-miterlimit:3}
	]]>
	</style>

	<defs id="Markers">
		<g id="lend5">
			<path d="M 2 1 L 0 0 L 1.98117 -0.993387 C 1.67173 -0.364515 1.67301 0.372641 1.98465 1.00043 " style="stroke:none"/>
		</g>
		<marker id="mrkr5-40" class="st7" v:arrowType="5" v:arrowSize="0" v:setback="3.85" refX="-3.85" orient="auto"
				markerUnits="strokeWidth" overflow="visible">
			<use xlink:href="#lend5" transform="scale(-2.2,-2.2) "/>
		</marker>
		<marker id="mrkr5-168" class="st16" v:arrowType="5" v:arrowSize="2" v:setback="3.775" refX="3.775" orient="auto"
				markerUnits="strokeWidth" overflow="visible">
			<use xlink:href="#lend5" transform="scale(2.26) "/>
		</marker>
		<g id="lend4">
			<path d="M 2 1 L 0 0 L 2 -1 L 2 1 " style="stroke:none"/>
		</g>
		<marker id="mrkr4-219" class="st19" v:arrowType="4" v:arrowSize="1" v:setback="14.96" refX="14.96" orient="auto"
				markerUnits="strokeWidth" overflow="visible">
			<use xlink:href="#lend4" transform="scale(8.2) "/>
		</marker>
		<marker id="mrkr4-221" class="st19" v:arrowType="4" v:arrowSize="1" v:setback="16.4" refX="-16.4" orient="auto"
				markerUnits="strokeWidth" overflow="visible">
			<use xlink:href="#lend4" transform="scale(-8.2,-8.2) "/>
		</marker>
		<g id="lend1">
			<path d="M 1 -1 L 0 0 L 1 1 " style="stroke-linecap:round;stroke-linejoin:round;fill:none"/>
		</g>
		<marker id="mrkr1-401" class="st21" v:arrowType="1" v:arrowSize="0" orient="auto" markerUnits="strokeWidth"
				overflow="visible">
			<use xlink:href="#lend1" transform="scale(-1.48,-1.48) "/>
		</marker>
	</defs>
	<g v:mID="0" v:index="1" v:groupContext="foregroundPage">
		<title>Pagina-1</title>
		<v:pageProperties v:drawingScale="0.0393701" v:pageScale="0.0393701" v:drawingUnits="24" v:shadowOffsetX="8.50394"
				v:shadowOffsetY="-8.50394"/>
		<g id="group144-1" transform="translate(360.829,255.631) rotate(180)" v:mID="144" v:groupContext="group">
			<title>Hellingsdriehoek.144</title>
			<g id="shape145-2" v:mID="145" v:groupContext="shape" transform="translate(19.9606,336.971) rotate(180)">
				<title>Blad.145</title>
				<desc>3</desc>
				<v:textBlock v:margins="rect(4,4,4,4)" v:tabSpace="42.5197"/>
				<v:textRect cx="2.95275" cy="168.485" width="5.91" height="8.85826"/>
				<rect x="0" y="164.056" width="5.90551" height="8.85826" class="st1"/>
				<text x="4" y="170.29" class="st2" v:langID="1043"><v:paragraph v:horizAlign="1"/><v:tabList/>3</text>			</g>
			<g id="shape146-5" v:mID="146" v:groupContext="shape" transform="translate(11.811,331.921) rotate(180)">
				<title>Blad.146</title>
				<desc>4</desc>
				<v:textBlock v:margins="rect(4,4,4,4)" v:tabSpace="42.5197"/>
				<v:textRect cx="5.90551" cy="170.7" width="11.82" height="4.42913"/>
				<rect x="0" y="168.485" width="11.811" height="4.42913" class="st1"/>
				<text x="4.41" y="172.5" class="st2" v:langID="1043"><v:paragraph v:horizAlign="1"/><v:tabList/>4</text>			</g>
			<g id="shape147-8" v:mID="147" v:groupContext="shape">
				<title>Blad.147</title>
				<path d="M11.81 172.91 L11.81 164.06 L0 164.06" class="st3"/>
			</g>
		</g>
		<g id="group140-11" transform="translate(360.829,232.954) rotate(180)" v:mID="140" v:groupContext="group">
			<title>Hellingsdriehoek.140</title>
			<g id="shape141-12" v:mID="141" v:groupContext="shape" transform="translate(19.9606,336.971) rotate(180)">
				<title>Blad.141</title>
				<desc>3</desc>
				<v:textBlock v:margins="rect(4,4,4,4)" v:tabSpace="42.5197"/>
				<v:textRect cx="2.95275" cy="168.485" width="5.91" height="8.85826"/>
				<rect x="0" y="164.056" width="5.90551" height="8.85826" class="st1"/>
				<text x="4" y="170.29" class="st2" v:langID="1043"><v:paragraph v:horizAlign="1"/><v:tabList/>3</text>			</g>
			<g id="shape142-15" v:mID="142" v:groupContext="shape" transform="translate(11.811,331.921) rotate(180)">
				<title>Blad.142</title>
				<desc>4</desc>
				<v:textBlock v:margins="rect(4,4,4,4)" v:tabSpace="42.5197"/>
				<v:textRect cx="5.90551" cy="170.7" width="11.82" height="4.42913"/>
				<rect x="0" y="168.485" width="11.811" height="4.42913" class="st1"/>
				<text x="4.41" y="172.5" class="st2" v:langID="1043"><v:paragraph v:horizAlign="1"/><v:tabList/>4</text>			</g>
			<g id="shape143-18" v:mID="143" v:groupContext="shape">
				<title>Blad.143</title>
				<path d="M11.81 172.91 L11.81 164.06 L0 164.06" class="st3"/>
			</g>
		</g>
		<g id="group135-21" transform="translate(360.829,210.277) rotate(180)" v:mID="135" v:groupContext="group">
			<title>Hellingsdriehoek</title>
			<g id="shape136-22" v:mID="136" v:groupContext="shape" transform="translate(19.9606,336.971) rotate(180)">
				<title>Blad.136</title>
				<desc>3</desc>
				<v:textBlock v:margins="rect(4,4,4,4)" v:tabSpace="42.5197"/>
				<v:textRect cx="2.95275" cy="168.485" width="5.91" height="8.85826"/>
				<rect x="0" y="164.056" width="5.90551" height="8.85826" class="st1"/>
				<text x="4" y="170.29" class="st2" v:langID="1043"><v:paragraph v:horizAlign="1"/><v:tabList/>3</text>			</g>
			<g id="shape137-25" v:mID="137" v:groupContext="shape" transform="translate(11.811,331.921) rotate(180)">
				<title>Blad.137</title>
				<desc>4</desc>
				<v:textBlock v:margins="rect(4,4,4,4)" v:tabSpace="42.5197"/>
				<v:textRect cx="5.90551" cy="170.7" width="11.82" height="4.42913"/>
				<rect x="0" y="168.485" width="11.811" height="4.42913" class="st1"/>
				<text x="4.41" y="172.5" class="st2" v:langID="1043"><v:paragraph v:horizAlign="1"/><v:tabList/>4</text>			</g>
			<g id="shape138-28" v:mID="138" v:groupContext="shape">
				<title>Blad.138</title>
				<path d="M11.81 172.91 L11.81 164.06 L0 164.06" class="st3"/>
			</g>
		</g>
		<g id="group51-31" transform="translate(53.2696,-71.2411)" v:mID="51" v:groupContext="group">
			<title>qz-last constant</title>
			<g id="shape52-32" v:mID="52" v:groupContext="shape" transform="translate(0,-14.1732)">
				<title>A.58</title>
				<desc>20 kN/m</desc>
				<v:textBlock v:margins="rect(4,4,4,4)" v:tabSpace="42.5197"/>
				<v:textRect cx="49.6063" cy="165.828" width="99.22" height="14.1732"/>
				<rect x="0" y="158.741" width="99.2126" height="14.1732" class="st4"/>
				<text x="28.44" y="169.43" class="st5" v:langID="1043"><v:paragraph v:horizAlign="1"/><v:tabList/>20 kN/m</text>			</g>
			<g id="shape53-35" v:mID="53" v:groupContext="shape" transform="translate(172.914,158.741) rotate(90)">
				<title>Kracht.5</title>
				<path d="M0 172.91 L9.55 172.91" class="st6"/>
			</g>
			<g id="shape54-41" v:mID="54" v:groupContext="shape" transform="translate(0,-14.1732)">
				<title>Blad.54</title>
				<path d="M0 172.91 L266.46 172.91" class="st8"/>
			</g>
			<g id="shape55-44" v:mID="55" v:groupContext="shape" transform="translate(226.206,158.741) rotate(90)">
				<title>Kracht.4</title>
				<path d="M0 172.91 L9.55 172.91" class="st6"/>
			</g>
			<g id="shape56-49" v:mID="56" v:groupContext="shape" transform="translate(279.497,158.741) rotate(90)">
				<title>Kracht.9</title>
				<path d="M0 172.91 L9.55 172.91" class="st6"/>
			</g>
			<g id="shape57-54" v:mID="57" v:groupContext="shape" transform="translate(439.371,158.741) rotate(90)">
				<title>Kracht.6</title>
				<path d="M0 172.91 L9.55 172.91" class="st6"/>
			</g>
			<g id="shape58-59" v:mID="58" v:groupContext="shape" transform="translate(386.08,158.741) rotate(90)">
				<title>Kracht.37</title>
				<path d="M0 172.91 L9.55 172.91" class="st6"/>
			</g>
			<g id="shape59-64" v:mID="59" v:groupContext="shape" transform="translate(332.788,158.741) rotate(90)">
				<title>Kracht.7</title>
				<path d="M0 172.91 L9.55 172.91" class="st6"/>
			</g>
		</g>
		<g id="group1-69" transform="translate(43.3483,-57.0679)" v:mID="1" v:groupContext="group">
			<title>Rol</title>
			<g id="group2-70" transform="translate(0.261477,-2.83465)" v:mID="2" v:groupContext="group">
				<title>Scharnier</title>
				<g id="shape3-71" v:mID="3" v:groupContext="shape" transform="translate(2.79729,0)">
					<title>Blad.3</title>
					<path d="M0 172.91 L13.99 172.91 L6.99 161.58 L0 172.91 Z" class="st9"/>
				</g>
				<g id="shape4-73" v:mID="4" v:groupContext="shape" transform="translate(2.79729,345.829) rotate(180)">
					<title>Blad.4</title>
					<path d="M0 172.91 L2.8 172.91" class="st10"/>
				</g>
				<g id="shape5-76" v:mID="5" v:groupContext="shape" transform="translate(16.7838,0)">
					<title>Blad.5</title>
					<path d="M0 172.91 L2.8 172.91" class="st10"/>
				</g>
			</g>
			<g id="shape6-79" v:mID="6" v:groupContext="shape">
				<title>Blad.6</title>
				<path d="M0 172.91 L19.84 172.91" class="st10"/>
			</g>
		</g>
		<g id="shape7-82" v:mID="7" v:groupContext="shape" transform="translate(53.2696,-71.2411)">
			<title>Ligger, 2 pt</title>
			<path d="M0 172.91 L66.61 172.91" class="st11"/>
		</g>
		<g id="shape8-85" v:mID="8" v:groupContext="shape" transform="translate(119.884,-71.2411)">
			<title>Ligger, 2 pt.8</title>
			<path d="M0 172.91 L66.61 172.91" class="st11"/>
		</g>
		<g id="shape9-88" v:mID="9" v:groupContext="shape" transform="translate(186.498,-71.2411)">
			<title>Ligger, 2 pt.9</title>
			<path d="M0 172.91 L66.61 172.91" class="st11"/>
		</g>
		<g id="shape10-91" v:mID="10" v:groupContext="shape" transform="translate(253.112,-71.2411)">
			<title>Ligger, 2 pt.10</title>
			<path d="M0 172.91 L66.61 172.91" class="st11"/>
		</g>
		<g id="shape11-94" v:mID="11" v:groupContext="shape" transform="translate(319.726,-71.2411)">
			<title>Ligger, 2 pt.11</title>
			<path d="M0 172.91 L22.68 172.91" class="st12"/>
		</g>
		<g id="shape12-97" v:mID="12" v:groupContext="shape" transform="translate(146.812,101.673) rotate(-90)">
			<title>Ligger, 2 pt.12</title>
			<path d="M0 172.91 L22.68 172.91" class="st12"/>
		</g>
		<g id="shape13-100" v:mID="13" v:groupContext="shape" transform="translate(319.726,-93.9183)">
			<title>Ligger, 2 pt.13</title>
			<path d="M0 172.91 L22.68 172.91" class="st12"/>
		</g>
		<g id="shape14-103" v:mID="14" v:groupContext="shape" transform="translate(146.812,78.9961) rotate(-90)">
			<title>Ligger, 2 pt.14</title>
			<path d="M0 172.91 L22.68 172.91" class="st12"/>
		</g>
		<g id="shape15-106" v:mID="15" v:groupContext="shape" transform="translate(319.726,-116.595)">
			<title>Ligger, 2 pt.15</title>
			<path d="M0 172.91 L22.68 172.91" class="st12"/>
		</g>
		<g id="shape16-109" v:mID="16" v:groupContext="shape" transform="translate(146.812,56.3189) rotate(-90)">
			<title>Ligger, 2 pt.16</title>
			<path d="M0 172.91 L22.68 172.91" class="st12"/>
		</g>
		<g id="shape17-112" v:mID="17" v:groupContext="shape" transform="translate(319.726,-139.273)">
			<title>Ligger, 2 pt.17</title>
			<path d="M0 172.91 L22.68 172.91" class="st12"/>
		</g>
		<g id="shape18-115" v:mID="18" v:groupContext="shape" transform="translate(146.812,33.6418) rotate(-90)">
			<title>Ligger, 2 pt.18</title>
			<path d="M0 172.91 L22.68 172.91" class="st12"/>
		</g>
		<g id="shape19-118" v:mID="19" v:groupContext="shape" transform="translate(169.489,101.673) rotate(-90)">
			<title>Ligger, 2 pt.19</title>
			<path d="M0 172.91 L22.68 172.91" class="st12"/>
		</g>
		<g id="shape20-121" v:mID="20" v:groupContext="shape" transform="translate(169.489,78.9961) rotate(-90)">
			<title>Ligger, 2 pt.20</title>
			<path d="M0 172.91 L22.68 172.91" class="st12"/>
		</g>
		<g id="shape21-124" v:mID="21" v:groupContext="shape" transform="translate(169.489,56.3189) rotate(-90)">
			<title>Ligger, 2 pt.21</title>
			<path d="M0 172.91 L22.68 172.91" class="st12"/>
		</g>
		<g id="shape22-127" v:mID="22" v:groupContext="shape" transform="translate(169.489,124.35) rotate(-90)">
			<title>Ligger, 2 pt.22</title>
			<path d="M0 172.91 L22.68 172.91" class="st12"/>
		</g>
		<g id="shape26-130" v:mID="26" v:groupContext="shape" transform="translate(441.995,-111.304) rotate(45)">
			<title>Ligger, 2 pt.26</title>
			<path d="M0 172.91 L32.07 172.91" class="st12"/>
		</g>
		<g id="shape27-133" v:mID="27" v:groupContext="shape" transform="translate(441.995,-20.5957) rotate(45)">
			<title>Ligger, 2 pt.27</title>
			<path d="M0 172.91 L32.07 172.91" class="st12"/>
		</g>
		<g id="shape30-136" v:mID="30" v:groupContext="shape" transform="translate(50.2821,-59.4491) rotate(-23.7359)">
			<title>Ligger, 2 pt.30</title>
			<path d="M0 172.91 L218.31 172.91" class="st12"/>
		</g>
		<g id="shape31-139" v:mID="31" v:groupContext="shape" transform="translate(110.493,-56.476) rotate(-26.0754)">
			<title>Ligger, 2 pt.31</title>
			<path d="M0 172.91 L148.33 172.91" class="st12"/>
		</g>
		<g id="shape32-142" v:mID="32" v:groupContext="shape" transform="translate(160.078,-46.9147) rotate(-32.55)">
			<title>Ligger, 2 pt.32</title>
			<path d="M0 172.91 L79.03 172.91" class="st12"/>
		</g>
		<g id="group33-145" transform="translate(332.482,-37.2254)" v:mID="33" v:groupContext="group">
			<title>Scharnieroplegging</title>
			<g id="shape34-146" v:mID="34" v:groupContext="shape" transform="translate(2.83465,0)">
				<title>Blad.34</title>
				<path d="M0 172.91 L14.17 172.91 L7.09 161.58 L0 172.91 Z" class="st13"/>
			</g>
			<g id="shape35-148" v:mID="35" v:groupContext="shape" transform="translate(2.83465,345.829) rotate(180)">
				<title>Blad.35</title>
				<path d="M0 172.91 L2.83 172.91" class="st14"/>
			</g>
			<g id="shape36-151" v:mID="36" v:groupContext="shape" transform="translate(17.0079,0)">
				<title>Blad.36</title>
				<path d="M0 172.91 L2.83 172.91" class="st14"/>
			</g>
		</g>
		<g id="shape37-154" v:mID="37" v:groupContext="shape" transform="translate(441.995,-65.95) rotate(45)">
			<title>Ligger, 2 pt.37</title>
			<path d="M0 172.91 L32.07 172.91" class="st12"/>
		</g>
		<g id="shape38-157" v:mID="38" v:groupContext="shape" transform="translate(197.457,-65.95) rotate(-45)">
			<title>Ligger, 2 pt.38</title>
			<path d="M0 172.91 L32.07 172.91" class="st12"/>
		</g>
		<g id="shape39-160" v:mID="39" v:groupContext="shape" transform="translate(197.457,-20.5957) rotate(-45)">
			<title>Ligger, 2 pt.39</title>
			<path d="M0 172.91 L32.07 172.91" class="st12"/>
		</g>
		<g id="shape40-163" v:mID="40" v:groupContext="shape" transform="translate(276.252,197.358) rotate(-146.31)">
			<title>Kracht</title>
			<path d="M7.55 172.91 L7.91 172.91 L35.77 172.91" class="st15"/>
		</g>
		<g id="shape41-169" v:mID="41" v:groupContext="shape" transform="translate(276.252,220.035) rotate(-146.31)">
			<title>Kracht.41</title>
			<path d="M7.55 172.91 L7.91 172.91 L35.77 172.91" class="st15"/>
		</g>
		<g id="shape42-174" v:mID="42" v:groupContext="shape" transform="translate(276.252,242.712) rotate(-146.31)">
			<title>Kracht.42</title>
			<path d="M7.55 172.91 L7.91 172.91 L35.77 172.91" class="st15"/>
		</g>
		<g id="shape60-179" v:mID="60" v:groupContext="shape" transform="translate(317.6,-159.824)">
			<title>Scharnier</title>
			<ellipse cx="2.12598" cy="170.788" rx="2.12598" ry="2.12598" class="st17"/>
		</g>
		<g id="shape61-181" v:mID="61" v:groupContext="shape" transform="translate(317.6,-137.147)">
			<title>Scharnier.61</title>
			<ellipse cx="2.12598" cy="170.788" rx="2.12598" ry="2.12598" class="st17"/>
		</g>
		<g id="shape62-183" v:mID="62" v:groupContext="shape" transform="translate(340.277,-137.147)">
			<title>Scharnier.62</title>
			<ellipse cx="2.12598" cy="170.788" rx="2.12598" ry="2.12598" class="st17"/>
		</g>
		<g id="shape63-185" v:mID="63" v:groupContext="shape" transform="translate(317.6,-114.469)">
			<title>Scharnier.63</title>
			<ellipse cx="2.12598" cy="170.788" rx="2.12598" ry="2.12598" class="st17"/>
		</g>
		<g id="shape64-187" v:mID="64" v:groupContext="shape" transform="translate(340.277,-114.469)">
			<title>Scharnier.64</title>
			<ellipse cx="2.12598" cy="170.788" rx="2.12598" ry="2.12598" class="st17"/>
		</g>
		<g id="shape65-189" v:mID="65" v:groupContext="shape" transform="translate(340.277,-91.7923)">
			<title>Scharnier.65</title>
			<ellipse cx="2.12598" cy="170.788" rx="2.12598" ry="2.12598" class="st17"/>
		</g>
		<g id="shape66-191" v:mID="66" v:groupContext="shape" transform="translate(317.6,-91.7923)">
			<title>Scharnier.66</title>
			<ellipse cx="2.12598" cy="170.788" rx="2.12598" ry="2.12598" class="st17"/>
		</g>
		<g id="shape67-193" v:mID="67" v:groupContext="shape" transform="translate(317.6,-69.1151)">
			<title>Scharnier.67</title>
			<ellipse cx="2.12598" cy="170.788" rx="2.12598" ry="2.12598" class="st17"/>
		</g>
		<g id="shape68-195" v:mID="68" v:groupContext="shape" transform="translate(340.277,-69.1151)">
			<title>Scharnier.68</title>
			<ellipse cx="2.12598" cy="170.788" rx="2.12598" ry="2.12598" class="st17"/>
		</g>
		<g id="shape69-197" v:mID="69" v:groupContext="shape" transform="translate(340.277,-46.438)">
			<title>Scharnier.69</title>
			<ellipse cx="2.12598" cy="170.788" rx="2.12598" ry="2.12598" class="st17"/>
		</g>
		<g id="shape70-199" v:mID="70" v:groupContext="shape" transform="translate(117.758,-71.9498)">
			<title>Scharnier.70</title>
			<ellipse cx="2.12598" cy="170.788" rx="2.12598" ry="2.12598" class="st17"/>
		</g>
		<g id="shape71-201" v:mID="71" v:groupContext="shape" transform="translate(184.372,-71.9498)">
			<title>Scharnier.71</title>
			<ellipse cx="2.12598" cy="170.788" rx="2.12598" ry="2.12598" class="st17"/>
		</g>
		<g id="shape72-203" v:mID="72" v:groupContext="shape" transform="translate(250.986,-71.9498)">
			<title>Scharnier.72</title>
			<ellipse cx="2.12598" cy="170.788" rx="2.12598" ry="2.12598" class="st17"/>
		</g>
		<g id="group73-205" transform="translate(53.2696,-0.375)" v:mID="73" v:groupContext="group">
			<title>Maatlijn</title>
			<g id="group74-206" transform="translate(0,-9.92126)" v:mID="74" v:groupContext="group">
				<title>Maatlijn.31</title>
				<g id="shape75-207" v:mID="75" v:groupContext="shape" transform="translate(172.914,164.41) rotate(90)">
					<title>Blad.75</title>
					<path d="M0 172.91 L8.5 172.91" class="st3"/>
				</g>
				<g id="shape76-210" v:mID="76" v:groupContext="shape" transform="translate(239.529,164.41) rotate(90)">
					<title>Blad.76</title>
					<path d="M0 172.91 L8.5 172.91" class="st3"/>
				</g>
				<g id="shape77-213" v:mID="77" v:groupContext="shape" transform="translate(0,-4.25197)">
					<title>Blad.77</title>
					<path d="M3.74 172.91 L4.1 172.91 L62.51 172.91" class="st18"/>
				</g>
			</g>
			<g id="shape78-222" v:mID="78" v:groupContext="shape">
				<title>Blad.78</title>
				<desc>11.75 m</desc>
				<v:textBlock v:margins="rect(4,4,4,4)" v:tabSpace="42.5197"/>
				<v:textRect cx="33.3071" cy="165.828" width="66.62" height="14.1732"/>
				<rect x="0" y="158.741" width="66.6142" height="14.1732" class="st1"/>
				<text x="13.64" y="169.43" class="st5" v:langID="1043"><v:paragraph v:horizAlign="1"/><v:tabList/>11.75 m</text>			</g>
		</g>
		<g id="group79-225" transform="translate(119.884,-0.375)" v:mID="79" v:groupContext="group">
			<title>Maatlijn.79</title>
			<g id="group80-226" transform="translate(0,-9.92126)" v:mID="80" v:groupContext="group">
				<title>Maatlijn.31</title>
				<g id="shape81-227" v:mID="81" v:groupContext="shape" transform="translate(172.914,164.41) rotate(90)">
					<title>Blad.81</title>
					<path d="M0 172.91 L8.5 172.91" class="st3"/>
				</g>
				<g id="shape82-230" v:mID="82" v:groupContext="shape" transform="translate(239.529,164.41) rotate(90)">
					<title>Blad.82</title>
					<path d="M0 172.91 L8.5 172.91" class="st3"/>
				</g>
				<g id="shape83-233" v:mID="83" v:groupContext="shape" transform="translate(0,-4.25197)">
					<title>Blad.83</title>
					<path d="M3.74 172.91 L4.1 172.91 L62.51 172.91" class="st18"/>
				</g>
			</g>
			<g id="shape84-240" v:mID="84" v:groupContext="shape">
				<title>Blad.84</title>
				<desc>11.75 m</desc>
				<v:textBlock v:margins="rect(4,4,4,4)" v:tabSpace="42.5197"/>
				<v:textRect cx="33.3071" cy="165.828" width="66.62" height="14.1732"/>
				<rect x="0" y="158.741" width="66.6142" height="14.1732" class="st1"/>
				<text x="13.64" y="169.43" class="st5" v:langID="1043"><v:paragraph v:horizAlign="1"/><v:tabList/>11.75 m</text>			</g>
		</g>
		<g id="group86-243" transform="translate(186.498,-0.375)" v:mID="86" v:groupContext="group">
			<title>Maatlijn.86</title>
			<g id="group87-244" transform="translate(0,-9.92126)" v:mID="87" v:groupContext="group">
				<title>Maatlijn.31</title>
				<g id="shape88-245" v:mID="88" v:groupContext="shape" transform="translate(172.914,164.41) rotate(90)">
					<title>Blad.88</title>
					<path d="M0 172.91 L8.5 172.91" class="st3"/>
				</g>
				<g id="shape89-248" v:mID="89" v:groupContext="shape" transform="translate(239.529,164.41) rotate(90)">
					<title>Blad.89</title>
					<path d="M0 172.91 L8.5 172.91" class="st3"/>
				</g>
				<g id="shape90-251" v:mID="90" v:groupContext="shape" transform="translate(0,-4.25197)">
					<title>Blad.90</title>
					<path d="M3.74 172.91 L4.1 172.91 L62.51 172.91" class="st18"/>
				</g>
			</g>
			<g id="shape91-258" v:mID="91" v:groupContext="shape">
				<title>Blad.91</title>
				<desc>11.75 m</desc>
				<v:textBlock v:margins="rect(4,4,4,4)" v:tabSpace="42.5197"/>
				<v:textRect cx="33.3071" cy="165.828" width="66.62" height="14.1732"/>
				<rect x="0" y="158.741" width="66.6142" height="14.1732" class="st1"/>
				<text x="13.64" y="169.43" class="st5" v:langID="1043"><v:paragraph v:horizAlign="1"/><v:tabList/>11.75 m</text>			</g>
		</g>
		<g id="group92-261" transform="translate(253.112,-0.375)" v:mID="92" v:groupContext="group">
			<title>Maatlijn.92</title>
			<g id="group93-262" transform="translate(0,-9.92126)" v:mID="93" v:groupContext="group">
				<title>Maatlijn.31</title>
				<g id="shape94-263" v:mID="94" v:groupContext="shape" transform="translate(172.914,164.41) rotate(90)">
					<title>Blad.94</title>
					<path d="M0 172.91 L8.5 172.91" class="st3"/>
				</g>
				<g id="shape95-266" v:mID="95" v:groupContext="shape" transform="translate(239.529,164.41) rotate(90)">
					<title>Blad.95</title>
					<path d="M0 172.91 L8.5 172.91" class="st3"/>
				</g>
				<g id="shape96-269" v:mID="96" v:groupContext="shape" transform="translate(0,-4.25197)">
					<title>Blad.96</title>
					<path d="M3.74 172.91 L4.1 172.91 L62.51 172.91" class="st18"/>
				</g>
			</g>
			<g id="shape97-276" v:mID="97" v:groupContext="shape">
				<title>Blad.97</title>
				<desc>11.75 m</desc>
				<v:textBlock v:margins="rect(4,4,4,4)" v:tabSpace="42.5197"/>
				<v:textRect cx="33.3071" cy="165.828" width="66.62" height="14.1732"/>
				<rect x="0" y="158.741" width="66.6142" height="14.1732" class="st1"/>
				<text x="13.64" y="169.43" class="st5" v:langID="1043"><v:paragraph v:horizAlign="1"/><v:tabList/>11.75 m</text>			</g>
		</g>
		<g id="group98-279" transform="translate(319.726,-0.375)" v:mID="98" v:groupContext="group">
			<title>Maatlijn.98</title>
			<g id="group99-280" transform="translate(0,-9.92126)" v:mID="99" v:groupContext="group">
				<title>Maatlijn.31</title>
				<g id="shape100-281" v:mID="100" v:groupContext="shape" transform="translate(172.914,164.41) rotate(90)">
					<title>Blad.100</title>
					<path d="M0 172.91 L8.5 172.91" class="st3"/>
				</g>
				<g id="shape101-284" v:mID="101" v:groupContext="shape" transform="translate(195.592,164.41) rotate(90)">
					<title>Blad.101</title>
					<path d="M0 172.91 L8.5 172.91" class="st3"/>
				</g>
				<g id="shape102-287" v:mID="102" v:groupContext="shape" transform="translate(0,-4.25197)">
					<title>Blad.102</title>
					<path d="M3.74 172.91 L4.1 172.91 L18.58 172.91" class="st18"/>
				</g>
			</g>
			<g id="shape103-294" v:mID="103" v:groupContext="shape" transform="translate(-5.66929,2.84217E-14)">
				<title>Blad.103</title>
				<desc>4 m</desc>
				<v:textBlock v:margins="rect(4,4,4,4)" v:tabSpace="42.5197"/>
				<v:textRect cx="17.0079" cy="165.828" width="34.02" height="14.1732"/>
				<rect x="0" y="158.741" width="34.0157" height="14.1732" class="st1"/>
				<text x="7.84" y="169.43" class="st5" v:langID="1043"><v:paragraph v:horizAlign="1"/><v:tabList/>4 m</text>			</g>
		</g>
		<g id="group104-297" transform="translate(403.348,-71.2411)" v:mID="104" v:groupContext="group">
			<title>Maatlijn verticaal</title>
			<g id="group105-298" transform="translate(-164.41,172.914) rotate(-90)" v:mID="105" v:groupContext="group">
				<title>Maatlijn.31</title>
				<g id="shape106-299" v:mID="106" v:groupContext="shape" transform="translate(172.914,164.41) rotate(90)">
					<title>Blad.106</title>
					<path d="M0 172.91 L8.5 172.91" class="st3"/>
				</g>
				<g id="shape107-302" v:mID="107" v:groupContext="shape" transform="translate(195.592,164.41) rotate(90)">
					<title>Blad.107</title>
					<path d="M0 172.91 L8.5 172.91" class="st3"/>
				</g>
				<g id="shape108-305" v:mID="108" v:groupContext="shape" transform="translate(0,-4.25197)">
					<title>Blad.108</title>
					<path d="M3.74 172.91 L4.1 172.91 L18.58 172.91" class="st18"/>
				</g>
			</g>
			<g id="shape109-312" v:mID="109" v:groupContext="shape" transform="translate(4.25197,-9.07086)">
				<title>Blad.109</title>
				<desc>4 m</desc>
				<v:textBlock v:margins="rect(4,4,4,4)" v:tabSpace="42.5197"/>
				<v:textRect cx="14.1732" cy="170.647" width="28.35" height="4.53543"/>
				<rect x="0" y="168.379" width="28.3465" height="4.53543" class="st1"/>
				<text x="5.01" y="174.25" class="st5" v:langID="1043"><v:paragraph v:horizAlign="1"/><v:tabList/>4 m</text>			</g>
		</g>
		<g id="group110-315" transform="translate(403.348,-48.564)" v:mID="110" v:groupContext="group">
			<title>Maatlijn verticaal.110</title>
			<g id="group111-316" transform="translate(-164.41,172.914) rotate(-90)" v:mID="111" v:groupContext="group">
				<title>Maatlijn.31</title>
				<g id="shape112-317" v:mID="112" v:groupContext="shape" transform="translate(172.914,164.41) rotate(90)">
					<title>Blad.112</title>
					<path d="M0 172.91 L8.5 172.91" class="st3"/>
				</g>
				<g id="shape113-320" v:mID="113" v:groupContext="shape" transform="translate(195.592,164.41) rotate(90)">
					<title>Blad.113</title>
					<path d="M0 172.91 L8.5 172.91" class="st3"/>
				</g>
				<g id="shape114-323" v:mID="114" v:groupContext="shape" transform="translate(0,-4.25197)">
					<title>Blad.114</title>
					<path d="M3.74 172.91 L4.1 172.91 L18.58 172.91" class="st18"/>
				</g>
			</g>
			<g id="shape115-330" v:mID="115" v:groupContext="shape" transform="translate(4.25197,-9.07086)">
				<title>Blad.115</title>
				<desc>4 m</desc>
				<v:textBlock v:margins="rect(4,4,4,4)" v:tabSpace="42.5197"/>
				<v:textRect cx="14.1732" cy="170.647" width="28.35" height="4.53543"/>
				<rect x="0" y="168.379" width="28.3465" height="4.53543" class="st1"/>
				<text x="5.01" y="174.25" class="st5" v:langID="1043"><v:paragraph v:horizAlign="1"/><v:tabList/>4 m</text>			</g>
		</g>
		<g id="group116-333" transform="translate(403.348,-116.595)" v:mID="116" v:groupContext="group">
			<title>Maatlijn verticaal.116</title>
			<g id="group117-334" transform="translate(-164.41,172.914) rotate(-90)" v:mID="117" v:groupContext="group">
				<title>Maatlijn.31</title>
				<g id="shape118-335" v:mID="118" v:groupContext="shape" transform="translate(172.914,164.41) rotate(90)">
					<title>Blad.118</title>
					<path d="M0 172.91 L8.5 172.91" class="st3"/>
				</g>
				<g id="shape119-338" v:mID="119" v:groupContext="shape" transform="translate(195.592,164.41) rotate(90)">
					<title>Blad.119</title>
					<path d="M0 172.91 L8.5 172.91" class="st3"/>
				</g>
				<g id="shape120-341" v:mID="120" v:groupContext="shape" transform="translate(0,-4.25197)">
					<title>Blad.120</title>
					<path d="M3.74 172.91 L4.1 172.91 L18.58 172.91" class="st18"/>
				</g>
			</g>
			<g id="shape121-348" v:mID="121" v:groupContext="shape" transform="translate(4.25197,-9.07086)">
				<title>Blad.121</title>
				<desc>4 m</desc>
				<v:textBlock v:margins="rect(4,4,4,4)" v:tabSpace="42.5197"/>
				<v:textRect cx="14.1732" cy="170.647" width="28.35" height="4.53543"/>
				<rect x="0" y="168.379" width="28.3465" height="4.53543" class="st1"/>
				<text x="5.01" y="174.25" class="st5" v:langID="1043"><v:paragraph v:horizAlign="1"/><v:tabList/>4 m</text>			</g>
		</g>
		<g id="group122-351" transform="translate(403.348,-93.9183)" v:mID="122" v:groupContext="group">
			<title>Maatlijn verticaal.122</title>
			<g id="group123-352" transform="translate(-164.41,172.914) rotate(-90)" v:mID="123" v:groupContext="group">
				<title>Maatlijn.31</title>
				<g id="shape124-353" v:mID="124" v:groupContext="shape" transform="translate(172.914,164.41) rotate(90)">
					<title>Blad.124</title>
					<path d="M0 172.91 L8.5 172.91" class="st3"/>
				</g>
				<g id="shape125-356" v:mID="125" v:groupContext="shape" transform="translate(195.592,164.41) rotate(90)">
					<title>Blad.125</title>
					<path d="M0 172.91 L8.5 172.91" class="st3"/>
				</g>
				<g id="shape126-359" v:mID="126" v:groupContext="shape" transform="translate(0,-4.25197)">
					<title>Blad.126</title>
					<path d="M3.74 172.91 L4.1 172.91 L18.58 172.91" class="st18"/>
				</g>
			</g>
			<g id="shape127-366" v:mID="127" v:groupContext="shape" transform="translate(4.25197,-9.07086)">
				<title>Blad.127</title>
				<desc>4 m</desc>
				<v:textBlock v:margins="rect(4,4,4,4)" v:tabSpace="42.5197"/>
				<v:textRect cx="14.1732" cy="170.647" width="28.35" height="4.53543"/>
				<rect x="0" y="168.379" width="28.3465" height="4.53543" class="st1"/>
				<text x="5.01" y="174.25" class="st5" v:langID="1043"><v:paragraph v:horizAlign="1"/><v:tabList/>4 m</text>			</g>
		</g>
		<g id="group128-369" transform="translate(403.348,-139.273)" v:mID="128" v:groupContext="group">
			<title>Maatlijn verticaal.128</title>
			<g id="group129-370" transform="translate(-164.41,172.914) rotate(-90)" v:mID="129" v:groupContext="group">
				<title>Maatlijn.31</title>
				<g id="shape130-371" v:mID="130" v:groupContext="shape" transform="translate(172.914,164.41) rotate(90)">
					<title>Blad.130</title>
					<path d="M0 172.91 L8.5 172.91" class="st3"/>
				</g>
				<g id="shape131-374" v:mID="131" v:groupContext="shape" transform="translate(195.592,164.41) rotate(90)">
					<title>Blad.131</title>
					<path d="M0 172.91 L8.5 172.91" class="st3"/>
				</g>
				<g id="shape132-377" v:mID="132" v:groupContext="shape" transform="translate(0,-4.25197)">
					<title>Blad.132</title>
					<path d="M3.74 172.91 L4.1 172.91 L18.58 172.91" class="st18"/>
				</g>
			</g>
			<g id="shape133-384" v:mID="133" v:groupContext="shape" transform="translate(4.25197,-9.07086)">
				<title>Blad.133</title>
				<desc>4 m</desc>
				<v:textBlock v:margins="rect(4,4,4,4)" v:tabSpace="42.5197"/>
				<v:textRect cx="14.1732" cy="170.647" width="28.35" height="4.53543"/>
				<rect x="0" y="168.379" width="28.3465" height="4.53543" class="st1"/>
				<text x="5.01" y="174.25" class="st5" v:langID="1043"><v:paragraph v:horizAlign="1"/><v:tabList/>4 m</text>			</g>
		</g>
		<g id="shape134-387" v:mID="134" v:groupContext="shape" transform="translate(351.616,-125.099)">
			<title>A.58</title>
			<desc>500 kN</desc>
			<v:textBlock v:margins="rect(4,4,4,4)" v:tabSpace="42.5197"/>
			<v:textRect cx="24.8031" cy="165.828" width="49.61" height="14.1732"/>
			<rect x="0" y="158.741" width="49.6063" height="14.1732" class="st4"/>
			<text x="6.97" y="169.43" class="st5" v:langID="1043"><v:paragraph v:horizAlign="1"/><v:tabList/>500 kN</text>		</g>
		<g id="shape148-390" v:mID="148" v:groupContext="shape" transform="translate(351.616,-102.422)">
			<title>A.148</title>
			<desc>500 kN</desc>
			<v:textBlock v:margins="rect(4,4,4,4)" v:tabSpace="42.5197"/>
			<v:textRect cx="24.8031" cy="165.828" width="49.61" height="14.1732"/>
			<rect x="0" y="158.741" width="49.6063" height="14.1732" class="st4"/>
			<text x="6.97" y="169.43" class="st5" v:langID="1043"><v:paragraph v:horizAlign="1"/><v:tabList/>500 kN</text>		</g>
		<g id="shape149-393" v:mID="149" v:groupContext="shape" transform="translate(351.758,-79.7451)">
			<title>A.149</title>
			<desc>500 kN</desc>
			<v:textBlock v:margins="rect(4,4,4,4)" v:tabSpace="42.5197"/>
			<v:textRect cx="24.8031" cy="165.828" width="49.61" height="14.1732"/>
			<rect x="0" y="158.741" width="49.6063" height="14.1732" class="st4"/>
			<text x="6.97" y="169.43" class="st5" v:langID="1043"><v:paragraph v:horizAlign="1"/><v:tabList/>500 kN</text>		</g>
		<g id="shape150-396" v:mID="150" v:groupContext="shape" transform="translate(226.315,101.673) rotate(90)">
			<title>verplaatsing</title>
			<path d="M0 172.91 L22.68 172.91" class="st20"/>
		</g>
		<g id="group151-402" transform="translate(43.3483,-34.3907)" v:mID="151" v:groupContext="group">
			<title>Rol.151</title>
			<g id="group152-403" transform="translate(0.261477,-2.83465)" v:mID="152" v:groupContext="group">
				<title>Scharnier</title>
				<g id="shape153-404" v:mID="153" v:groupContext="shape" transform="translate(2.79729,0)">
					<title>Blad.153</title>
					<path d="M0 172.91 L13.99 172.91 L6.99 161.58 L0 172.91 Z" class="st13"/>
				</g>
				<g id="shape154-406" v:mID="154" v:groupContext="shape" transform="translate(2.79729,345.829) rotate(180)">
					<title>Blad.154</title>
					<path d="M0 172.91 L2.8 172.91" class="st14"/>
				</g>
				<g id="shape155-409" v:mID="155" v:groupContext="shape" transform="translate(16.7838,0)">
					<title>Blad.155</title>
					<path d="M0 172.91 L2.8 172.91" class="st14"/>
				</g>
			</g>
			<g id="shape156-412" v:mID="156" v:groupContext="shape">
				<title>Blad.156</title>
				<path d="M0 172.91 L19.84 172.91" class="st14"/>
			</g>
		</g>
		<g id="shape157-415" v:mID="157" v:groupContext="shape" transform="translate(0.12,-49.9813)">
			<title>A.157</title>
			<desc>0.1 m</desc>
			<v:textBlock v:margins="rect(4,4,4,4)" v:tabSpace="42.5197"/>
			<v:textRect cx="24.8031" cy="165.828" width="49.61" height="14.1732"/>
			<rect x="0" y="158.741" width="49.6063" height="14.1732" class="st4"/>
			<text x="11.14" y="169.43" class="st5" v:langID="1043"><v:paragraph v:horizAlign="1"/><v:tabList/>0.1 m</text>		</g>
		<g id="shape158-418" v:mID="158" v:groupContext="shape" transform="translate(53.2696,-142.107)">
			<title>A.158</title>
			<desc>EI = 400 MNm2 (except for truss members) EA = 1.3 GN</desc>
			<v:textBlock v:margins="rect(4,4,4,4)" v:tabSpace="42.5197"/>
			<v:textRect cx="113.386" cy="158.741" width="226.78" height="28.3465"/>
			<rect x="0" y="144.568" width="226.772" height="28.3465" class="st4"/>
			<text x="10.6" y="155.14" class="st22" v:langID="1043"><v:paragraph v:horizAlign="1"/><v:tabList/>EI<tspan class="st23"> </tspan><tspan
						class="st23">= 400 MNm</tspan><tspan dy="-0.198em" class="st24" v:baseFontSize="12">2 </tspan><tspan
						dy="0.129em" class="st23">(except for truss members)<v:newlineChar/></tspan><tspan x="82.01" dy="1.2em"
						class="st25">EA</tspan><tspan class="st23"> </tspan><tspan class="st23">= 1.3 GN</tspan></text>		</g>
		<g id="shape159-428" v:mID="159" v:groupContext="shape" transform="translate(387.146,206.639) rotate(128.066)">
			<title>Blad.159</title>
			<path d="M0 170.24 C2.26 171.11 3.56 170.81 5.28 170.79 C7.34 170.76 9.99 171.14 11.78 169.66 C13.36 168.35 14.26 165.6
						 13.21 164.58 C12.5 163.9 10.93 164 10.37 164.64 C9.52 165.63 11.06 167.93 12.8 169.58 C16.11 172.72 20.14
						 173.55 23.75 172.53 C25.79 171.95 27.7 170.79 29.88 170.24" class="st3"/>
		</g>
		<g id="shape160-431" v:mID="160" v:groupContext="shape" transform="translate(166.655,-35.8081)">
			<title>A.160</title>
			<desc>Find FBD of this node</desc>
			<v:textBlock v:margins="rect(4,4,4,4)" v:tabSpace="42.5197"/>
			<v:textRect cx="67.3228" cy="165.828" width="134.65" height="14.1732"/>
			<rect x="0" y="158.741" width="134.646" height="14.1732" class="st4"/>
			<text x="13.32" y="169.43" class="st5" v:langID="1043"><v:paragraph v:horizAlign="1"/><v:tabList/>Find FBD of this node</text>		</g>
	</g>
</svg>
